<?xml version="1.0" encoding="utf-8"?>
<!-- Generator: Adobe Illustrator 26.3.0, SVG Export Plug-In . SVG Version: 6.00 Build 0)  -->
<svg version="1.1" id="Camada_1" xmlns="http://www.w3.org/2000/svg" xmlns:xlink="http://www.w3.org/1999/xlink" x="0px" y="0px"
	 width="418.4px" height="141.3px" viewBox="0 0 418.4 141.3" style="enable-background:new 0 0 418.4 141.3;" xml:space="preserve"
	>
<style type="text/css">
	.st0{fill:#161B22;}
	.st1{opacity:0.12;}
	.st2{fill:#14251F;}
	.st3{fill:none;stroke:#228534;stroke-width:0.3;stroke-miterlimit:10;}
	.st4{fill:#228632;}
	.st5{fill:#7A828D;}
	.st6{fill:#292929;}
	.st7{fill:#E3B341;}
	.st8{fill:#14251F;stroke:#228534;stroke-width:0.3;stroke-miterlimit:10;}
	.st9{font-family:'MyriadPro-Regular';}
	.st10{font-size:8.486px;}
</style>
<g id="Camada_2_00000093139482852668715770000004103646696610550921_">
	<path class="st0" d="M408.9,12.2v124.9c0,2.3-1.6,4.2-3.6,4.2H3.6c-2,0-3.6-1.9-3.6-4.2V12.2C0,9.9,1.6,8,3.6,8h401.6
		c0.1,0,0.2,0,0.4,0c0.1,0,0.2,0,0.3,0.1c1.1,0.2,2.1,1.1,2.6,2.2c0.1,0.3,0.2,0.6,0.3,0.9C408.9,11.5,408.9,11.8,408.9,12.2z"/>
	<g class="st1">
		<path d="M409.5,110.5c-0.2-0.8-0.4-1.6-0.6-2.3C400.2,74.8,391.5,41.4,382.7,8h-76.5c-1.6,0.4-3.2,0.8-4.8,1.3
			c-7.2,1.9-14.5,3.6-21.6,5.7c-10.3,2.9-16.5,14-13.7,24.8c7.4,28.5,14.8,57,22.3,85.4c1.9,7.4,7.2,13.3,13.8,16.2h37.5
			c0.1-0.1,0.2-0.2,0.2-0.3c0.7-0.8,1.3-1,2.3-0.6c0.8,0.3,1.5,0.6,2.3,0.9H362l-2.6-9.8l1.9-0.5c14.3-3.7,28.5-7.4,42.8-11.1
			c2.2-0.6,3.8-1.6,4.7-3.1C409.9,115.2,410.2,113.1,409.5,110.5z M319.2,84l-12.8,3.3l-3.5-13.3l12.8-3.3L319.2,84z M292.3,33.4
			l12.8-3.3l3.5,13.3l-12.8,3.3L292.3,33.4z M310.4,50.4l3.5,13.3L301,67l-3.5-13.3L310.4,50.4z M355.9,117.9l-3.5-13.3l-39,10.1
			l3.4,13.1c-6.4,3.2-12.3,0.8-14.9-4.5c-2.7-5.5-0.2-12.1,5.4-14.3c0.7-0.3,1.4-0.5,2.1-0.7c26-6.8,52.1-13.5,78.1-20.3l1.9-0.5
			l5.3,20.2L355.9,117.9z"/>
	</g>
	<g>
		<g>
			<g>
				<g>
					<g>
						<path class="st2" d="M33.2,46.3H14.7c-2.8,0-5-2.2-5-5V22.8c0-2.8,2.2-5,5-5h18.5c2.8,0,5,2.2,5,5v18.5
							C38.2,44.1,36,46.3,33.2,46.3z"/>
						<path class="st3" d="M33.2,46.3H14.7c-2.8,0-5-2.2-5-5V22.8c0-2.8,2.2-5,5-5h18.5c2.8,0,5,2.2,5,5v18.5
							C38.2,44.1,36,46.3,33.2,46.3z"/>
					</g>
				</g>
			</g>
			<g>
				<g>
					<path class="st4" d="M30.9,24.3c-0.1-0.4-0.4-0.6-0.8-0.6h-8.2c-0.8,0-1.7,0-2.5,0c-1.2,0-2.2,1-2.2,2.3v9.9
						c0,1.2,0.8,2.3,1.9,2.6c0.4,0.1,0.7,0.1,1.1,0.2v1.9c0.1-0.1,0.1-0.1,0.2-0.1c0.7-0.4,1.3-0.9,2-1.3c0.1-0.1,0.2-0.1,0.3,0
						c0.7,0.5,1.3,0.9,2,1.4c0,0,0.1,0.1,0.2,0.1v-1.9H30c0.5,0,0.8-0.3,0.8-0.9V24.5C30.9,24.4,30.9,24.4,30.9,24.3z M20.1,26h1.5
						v1.5h-1.5V26z M20.1,28.4h1.5v1.5h-1.5V28.4z M20.1,30.7h1.5v1.5h-1.5V30.7z M29.3,36.9h-4.6v-1.5h-4.6v1.5
						c-0.8,0.2-1.4-0.3-1.5-0.9c-0.1-0.7,0.3-1.3,1-1.4c0.1,0,0.2,0,0.2,0h9.5V36.9z"/>
				</g>
			</g>
		</g>
		<g>
			<g>
				<path class="st5" d="M53.9,37.2l5.1-14h3.7l5,14h-3.4l-0.9-2.9h-5.1l-0.9,2.9H53.9z M59,31.8h3.7l-1.5-4.9
					c-0.1-0.2-0.1-0.4-0.1-0.5s-0.1-0.3-0.1-0.5h-0.1c0,0.2-0.1,0.4-0.1,0.5s-0.1,0.3-0.1,0.5L59,31.8z"/>
				<path class="st5" d="M72.3,36L72.3,36l0,5.8h-3.1V27.2h3.1v1.5h0c0.4-0.6,0.8-1,1.4-1.3s1.2-0.4,1.8-0.4c1.3,0,2.3,0.4,3,1.3
					s1.1,2.1,1.1,3.6c0,1.7-0.4,3-1.2,4s-1.9,1.5-3.3,1.5c-0.6,0-1.1-0.1-1.6-0.4S72.6,36.5,72.3,36z M72.2,31.9v0.8
					c0,0.7,0.2,1.3,0.5,1.7s0.8,0.7,1.4,0.7c0.7,0,1.2-0.3,1.6-0.8s0.6-1.3,0.6-2.3c0-0.9-0.2-1.5-0.5-2s-0.9-0.7-1.5-0.7
					c-0.6,0-1.1,0.2-1.5,0.7S72.2,31.1,72.2,31.9z"/>
				<path class="st5" d="M83.2,25.8c-0.5,0-1-0.2-1.3-0.5s-0.5-0.7-0.5-1.2c0-0.5,0.2-0.9,0.5-1.2s0.8-0.5,1.3-0.5
					c0.5,0,1,0.2,1.3,0.5s0.5,0.7,0.5,1.2c0,0.5-0.2,0.9-0.5,1.2S83.7,25.8,83.2,25.8z M84.7,37.2h-3.1v-10h3.1V37.2z"/>
				<path class="st5" d="M87.4,32.9v-2.2h5.3v2.2H87.4z"/>
				<path class="st5" d="M94.2,37.2l5.1-14h3.7l5,14h-3.4l-0.9-2.9h-5.1l-0.9,2.9H94.2z M99.2,31.8h3.7l-1.5-4.9
					c-0.1-0.2-0.1-0.4-0.1-0.5s-0.1-0.3-0.1-0.5H101c0,0.2-0.1,0.4-0.1,0.5s-0.1,0.3-0.1,0.5L99.2,31.8z"/>
				<path class="st5" d="M119.1,37.2H116v-5.6c0-0.8-0.1-1.4-0.4-1.7s-0.7-0.6-1.2-0.6c-0.5,0-1,0.2-1.3,0.6s-0.5,0.9-0.5,1.6v5.7
					h-3.1v-10h3.1v1.6h0c0.4-0.6,0.8-1.1,1.4-1.4s1.2-0.5,1.9-0.5c1.1,0,1.9,0.3,2.5,1s0.8,1.7,0.8,3.1V37.2z"/>
				<path class="st5" d="M123.1,25.8c-0.5,0-1-0.2-1.3-0.5s-0.5-0.7-0.5-1.2c0-0.5,0.2-0.9,0.5-1.2s0.8-0.5,1.3-0.5
					c0.5,0,1,0.2,1.3,0.5s0.5,0.7,0.5,1.2c0,0.5-0.2,0.9-0.5,1.2S123.6,25.8,123.1,25.8z M124.6,37.2h-3.1v-10h3.1V37.2z"/>
				<path class="st5" d="M143.1,37.2H140v-5.7c0-0.7-0.1-1.3-0.4-1.6s-0.7-0.5-1.2-0.5c-0.5,0-0.9,0.2-1.2,0.7s-0.5,1-0.5,1.6v5.6
					h-3.1v-5.8c0-0.7-0.1-1.2-0.4-1.6s-0.7-0.5-1.2-0.5s-0.9,0.2-1.3,0.6s-0.5,1-0.5,1.7v5.6h-3.1v-10h3.1v1.6h0
					c0.3-0.5,0.8-1,1.3-1.3s1.2-0.5,1.9-0.5c0.7,0,1.3,0.2,1.8,0.5s0.9,0.8,1.1,1.4c0.4-0.6,0.9-1.1,1.4-1.4s1.2-0.5,1.9-0.5
					c1.1,0,1.9,0.3,2.4,1s0.8,1.7,0.8,3V37.2z"/>
				<path class="st5" d="M154.5,33H148c0.1,0.7,0.3,1.3,0.7,1.6s1,0.5,1.8,0.5c0.3,0,0.7-0.1,1.2-0.3s1-0.4,1.5-0.8l1.4,1.7
					c-0.7,0.5-1.4,0.9-2.1,1.2s-1.5,0.4-2.4,0.4c-1.6,0-2.9-0.4-3.8-1.3s-1.3-2.1-1.3-3.7c0-1.6,0.5-2.9,1.4-3.9s2.1-1.5,3.6-1.5
					c1.4,0,2.5,0.4,3.3,1.3s1.2,2.1,1.2,3.6V33z M151.6,31.1c0-0.8-0.1-1.3-0.4-1.7s-0.7-0.5-1.3-0.5c-0.5,0-0.9,0.2-1.3,0.6
					s-0.6,0.9-0.7,1.6H151.6z"/>
				<path class="st5" d="M155.3,36.3l1.3-2.1c0.3,0.3,0.7,0.5,1.2,0.7s1,0.3,1.5,0.3c0.4,0,0.7-0.1,1-0.2s0.4-0.4,0.4-0.6
					c0-0.2-0.1-0.4-0.3-0.5s-0.6-0.3-1.1-0.4c-1.2-0.3-2.1-0.6-2.7-1.1s-0.8-1.2-0.8-2c0-1,0.4-1.8,1.2-2.4s1.8-0.9,3-0.9
					c0.6,0,1.2,0.1,1.7,0.2s1.1,0.4,1.5,0.7l-1.2,2c-0.4-0.3-0.8-0.4-1.1-0.6s-0.7-0.2-1.1-0.2c-0.4,0-0.7,0.1-1,0.2
					s-0.4,0.3-0.4,0.6c0,0.3,0.1,0.5,0.4,0.6s0.7,0.2,1.3,0.4c1.2,0.2,2,0.6,2.5,1.1s0.7,1.2,0.7,2c0,1-0.4,1.8-1.2,2.5
					s-1.8,0.9-3.1,0.9c-0.7,0-1.4-0.1-2-0.3S156,36.7,155.3,36.3z"/>
			</g>
		</g>
	</g>
	<g>
		<g>
			<path class="st5" d="M17.4,63.8c0,1.2-0.3,2-0.8,2.6s-1.3,0.9-2.3,0.9c-1,0-1.8-0.3-2.3-0.8s-0.8-1.4-0.8-2.5v-5.2h0.9v5.1
				c0,0.9,0.2,1.5,0.6,2s0.9,0.7,1.7,0.7c0.7,0,1.2-0.2,1.6-0.6s0.5-1.1,0.5-1.9v-5.2h0.9V63.8z"/>
			<path class="st5" d="M28.1,67.1h-0.9v-3.6c0-0.7-0.1-1.2-0.3-1.5s-0.6-0.5-1.1-0.5c-0.4,0-0.8,0.2-1.1,0.6s-0.5,0.9-0.5,1.4v3.5
				h-0.9v-3.7c0-0.6-0.1-1.1-0.4-1.4s-0.6-0.5-1.1-0.5c-0.5,0-0.8,0.2-1.1,0.6s-0.4,0.9-0.4,1.5v3.5h-0.9V61h0.9v1h0
				c0.2-0.4,0.5-0.7,0.8-0.9s0.7-0.3,1.1-0.3c0.4,0,0.8,0.1,1.1,0.4s0.5,0.6,0.6,0.9c0.2-0.4,0.5-0.8,0.8-1s0.7-0.3,1.2-0.3
				c0.7,0,1.2,0.2,1.5,0.6s0.5,1,0.5,1.9V67.1z"/>
			<path class="st5" d="M34.3,67.1h-0.9v-1h0c-0.2,0.4-0.5,0.7-0.8,0.9s-0.7,0.3-1.1,0.3c-0.6,0-1-0.2-1.4-0.5s-0.5-0.8-0.5-1.3
				c0-0.5,0.2-1,0.5-1.3s0.9-0.6,1.6-0.7l1.8-0.2v-0.2c0-0.5-0.1-0.9-0.4-1.2s-0.6-0.4-1-0.4c-0.3,0-0.7,0.1-1,0.2s-0.6,0.3-0.9,0.6
				l-0.5-0.5c0.3-0.3,0.7-0.6,1.1-0.7s0.8-0.2,1.3-0.2c0.7,0,1.3,0.2,1.6,0.6s0.6,1,0.6,1.7V67.1z M33.5,64.5v-0.6l-1.5,0.2
				c-0.5,0.1-0.9,0.2-1.1,0.4s-0.4,0.5-0.4,0.8c0,0.4,0.1,0.6,0.3,0.8s0.5,0.3,0.9,0.3c0.5,0,1-0.2,1.3-0.6S33.5,65.1,33.5,64.5z"/>
			<path class="st5" d="M42.3,58.9c-0.1,0-0.2-0.1-0.3-0.1s-0.2,0-0.3,0c-0.3,0-0.6,0.1-0.8,0.3s-0.2,0.5-0.2,0.8v1h1.5v0.7h-1.5
				v5.4h-0.9v-5.4h-1V61h1v-1c0-0.6,0.2-1,0.5-1.3s0.8-0.5,1.4-0.5c0.1,0,0.3,0,0.4,0s0.2,0,0.4,0.1L42.3,58.9z"/>
			<path class="st5" d="M48.2,64.2h-4.4c0,0.8,0.2,1.3,0.6,1.7s0.9,0.6,1.5,0.6c0.3,0,0.6,0,0.9-0.1s0.6-0.2,0.9-0.4l0.4,0.6
				c-0.3,0.2-0.7,0.4-1.1,0.5s-0.7,0.2-1.2,0.2c-0.9,0-1.6-0.3-2.1-0.8s-0.8-1.3-0.8-2.4c0-1,0.3-1.8,0.8-2.4s1.2-0.9,2-0.9
				c0.8,0,1.4,0.3,1.8,0.8s0.7,1.3,0.7,2.2V64.2z M47.4,63.5c0-0.6-0.2-1.1-0.4-1.4s-0.7-0.5-1.2-0.5c-0.5,0-0.9,0.2-1.3,0.5
				s-0.5,0.8-0.6,1.4H47.4z"/>
			<path class="st5" d="M52.8,61.7c-0.1,0-0.2,0-0.2-0.1s-0.2,0-0.3,0c-0.5,0-0.9,0.2-1.2,0.7s-0.4,1-0.4,1.7v3h-0.9V61h0.9v1.3h0
				c0.1-0.4,0.4-0.8,0.7-1s0.6-0.4,1-0.4c0.1,0,0.2,0,0.3,0s0.2,0,0.3,0.1L52.8,61.7z"/>
			<path class="st5" d="M57.1,61.7c-0.1,0-0.2,0-0.2-0.1s-0.2,0-0.3,0c-0.5,0-0.9,0.2-1.2,0.7s-0.4,1-0.4,1.7v3h-0.9V61H55v1.3h0
				c0.1-0.4,0.4-0.8,0.7-1s0.6-0.4,1-0.4c0.1,0,0.2,0,0.3,0s0.2,0,0.3,0.1L57.1,61.7z"/>
			<path class="st5" d="M62.8,67.1h-0.9v-1h0c-0.2,0.4-0.5,0.7-0.8,0.9s-0.7,0.3-1.1,0.3c-0.6,0-1-0.2-1.4-0.5S58,66,58,65.4
				c0-0.5,0.2-1,0.5-1.3s0.9-0.6,1.6-0.7l1.8-0.2v-0.2c0-0.5-0.1-0.9-0.4-1.2s-0.6-0.4-1-0.4c-0.3,0-0.7,0.1-1,0.2S59,62,58.7,62.3
				l-0.5-0.5c0.3-0.3,0.7-0.6,1.1-0.7s0.8-0.2,1.3-0.2c0.7,0,1.3,0.2,1.6,0.6s0.6,1,0.6,1.7V67.1z M61.9,64.5v-0.6l-1.5,0.2
				c-0.5,0.1-0.9,0.2-1.1,0.4s-0.4,0.5-0.4,0.8c0,0.4,0.1,0.6,0.3,0.8s0.5,0.3,0.9,0.3c0.5,0,1-0.2,1.3-0.6S61.9,65.1,61.9,64.5z"/>
			<path class="st5" d="M73.4,67.1h-0.9v-3.6c0-0.7-0.1-1.2-0.3-1.5s-0.6-0.5-1.1-0.5c-0.4,0-0.8,0.2-1.1,0.6s-0.5,0.9-0.5,1.4v3.5
				h-0.9v-3.7c0-0.6-0.1-1.1-0.4-1.4s-0.6-0.5-1.1-0.5c-0.5,0-0.8,0.2-1.1,0.6s-0.4,0.9-0.4,1.5v3.5h-0.9V61h0.9v1h0
				c0.2-0.4,0.5-0.7,0.8-0.9s0.7-0.3,1.1-0.3c0.4,0,0.8,0.1,1.1,0.4s0.5,0.6,0.6,0.9c0.2-0.4,0.5-0.8,0.8-1s0.7-0.3,1.2-0.3
				c0.7,0,1.2,0.2,1.5,0.6s0.5,1,0.5,1.9V67.1z"/>
			<path class="st5" d="M80.2,64.2h-4.4c0,0.8,0.2,1.3,0.6,1.7s0.9,0.6,1.5,0.6c0.3,0,0.6,0,0.9-0.1s0.6-0.2,0.9-0.4l0.4,0.6
				c-0.3,0.2-0.7,0.4-1.1,0.5s-0.7,0.2-1.2,0.2c-0.9,0-1.6-0.3-2.1-0.8s-0.8-1.3-0.8-2.4c0-1,0.3-1.8,0.8-2.4s1.2-0.9,2-0.9
				c0.8,0,1.4,0.3,1.8,0.8s0.7,1.3,0.7,2.2V64.2z M79.3,63.5c0-0.6-0.2-1.1-0.4-1.4s-0.7-0.5-1.2-0.5c-0.5,0-0.9,0.2-1.3,0.5
				s-0.5,0.8-0.6,1.4H79.3z"/>
			<path class="st5" d="M86.7,67.1h-0.9v-3.5c0-0.7-0.1-1.2-0.4-1.5s-0.6-0.5-1.1-0.5c-0.5,0-0.9,0.2-1.3,0.6s-0.5,0.9-0.5,1.5v3.5
				h-0.9V61h0.9v1h0c0.2-0.4,0.5-0.7,0.8-0.9s0.7-0.3,1.2-0.3c0.7,0,1.2,0.2,1.5,0.7s0.5,1.1,0.5,1.9V67.1z"/>
			<path class="st5" d="M91.5,67c-0.2,0.1-0.3,0.1-0.5,0.2s-0.3,0.1-0.5,0.1c-0.5,0-0.8-0.1-1.1-0.4S89,66.1,89,65.6v-3.9h-1.1V61
				H89v-1.4l0.9-0.3V61h1.6v0.7h-1.6v3.8c0,0.4,0.1,0.6,0.2,0.8s0.3,0.2,0.6,0.2c0.1,0,0.2,0,0.4,0s0.2-0.1,0.3-0.1L91.5,67z"/>
			<path class="st5" d="M97.1,67.1h-0.9v-1h0c-0.2,0.4-0.5,0.7-0.8,0.9s-0.7,0.3-1.1,0.3c-0.6,0-1-0.2-1.4-0.5s-0.5-0.8-0.5-1.3
				c0-0.5,0.2-1,0.5-1.3s0.9-0.6,1.6-0.7l1.8-0.2v-0.2c0-0.5-0.1-0.9-0.4-1.2s-0.6-0.4-1-0.4c-0.3,0-0.7,0.1-1,0.2s-0.6,0.3-0.9,0.6
				l-0.5-0.5c0.3-0.3,0.7-0.6,1.1-0.7s0.8-0.2,1.3-0.2c0.7,0,1.3,0.2,1.6,0.6s0.6,1,0.6,1.7V67.1z M96.3,64.5v-0.6l-1.5,0.2
				c-0.5,0.1-0.9,0.2-1.1,0.4s-0.4,0.5-0.4,0.8c0,0.4,0.1,0.6,0.3,0.8s0.5,0.3,0.9,0.3c0.5,0,1-0.2,1.3-0.6S96.3,65.1,96.3,64.5z"/>
			<path class="st5" d="M107.7,69.9h-0.9V66h0c-0.2,0.4-0.5,0.7-0.9,0.9s-0.8,0.3-1.3,0.3c-0.8,0-1.4-0.3-1.9-0.8s-0.7-1.3-0.7-2.3
				c0-1,0.3-1.8,0.8-2.4s1.2-0.9,2.1-0.9c0.4,0,0.8,0.1,1.1,0.3s0.6,0.4,0.8,0.8h0V61h0.9V69.9z M106.9,64.4v-0.9
				c0-0.5-0.2-1-0.5-1.3s-0.8-0.5-1.3-0.5c-0.6,0-1.1,0.2-1.5,0.7s-0.6,1.1-0.6,1.9c0,0.7,0.2,1.3,0.5,1.7s0.8,0.6,1.3,0.6
				c0.6,0,1.1-0.2,1.4-0.6S106.9,65,106.9,64.4z"/>
			<path class="st5" d="M114.5,67.1h-0.9v-1h0c-0.2,0.4-0.5,0.7-0.8,0.9s-0.7,0.3-1.1,0.3c-0.7,0-1.3-0.2-1.6-0.7s-0.5-1.1-0.5-2V61
				h0.9v3.5c0,0.7,0.1,1.2,0.4,1.6s0.6,0.5,1.2,0.5c0.5,0,0.9-0.2,1.2-0.6s0.5-0.9,0.5-1.5V61h0.9V67.1z"/>
			<path class="st5" d="M121.4,64.2H117c0,0.8,0.2,1.3,0.6,1.7s0.9,0.6,1.5,0.6c0.3,0,0.6,0,0.9-0.1s0.6-0.2,0.9-0.4l0.4,0.6
				c-0.3,0.2-0.7,0.4-1.1,0.5s-0.7,0.2-1.2,0.2c-0.9,0-1.6-0.3-2.1-0.8s-0.8-1.3-0.8-2.4c0-1,0.3-1.8,0.8-2.4s1.2-0.9,2-0.9
				c0.8,0,1.4,0.3,1.8,0.8s0.7,1.3,0.7,2.2V64.2z M120.5,63.5c0-0.6-0.2-1.1-0.4-1.4s-0.7-0.5-1.2-0.5c-0.5,0-0.9,0.2-1.3,0.5
				s-0.5,0.8-0.6,1.4H120.5z"/>
			<path class="st5" d="M125.7,66.7l0.4-0.7c0.2,0.2,0.5,0.3,0.7,0.4s0.5,0.1,0.8,0.1c0.4,0,0.8-0.1,1-0.3s0.3-0.4,0.3-0.8
				c0-0.3-0.1-0.5-0.3-0.7s-0.5-0.3-1-0.5c-0.7-0.2-1.2-0.4-1.5-0.7s-0.4-0.7-0.4-1.1c0-0.5,0.2-0.9,0.6-1.3s0.9-0.5,1.5-0.5
				c0.3,0,0.6,0,0.9,0.1s0.6,0.2,0.9,0.4l-0.4,0.7c-0.2-0.2-0.5-0.3-0.7-0.3s-0.5-0.1-0.7-0.1c-0.4,0-0.7,0.1-0.9,0.2
				s-0.3,0.4-0.3,0.7c0,0.3,0.1,0.5,0.3,0.6s0.5,0.3,1,0.4c0.6,0.2,1.1,0.4,1.4,0.7s0.5,0.7,0.5,1.2c0,0.6-0.2,1-0.6,1.3
				s-0.9,0.5-1.6,0.5c-0.4,0-0.7-0.1-1.1-0.2S126,66.8,125.7,66.7z"/>
			<path class="st5" d="M131.9,59.6c-0.2,0-0.3-0.1-0.5-0.2s-0.2-0.3-0.2-0.4c0-0.2,0.1-0.3,0.2-0.4s0.3-0.2,0.5-0.2
				c0.2,0,0.3,0.1,0.5,0.2s0.2,0.3,0.2,0.4c0,0.2-0.1,0.3-0.2,0.4S132.1,59.6,131.9,59.6z M132.3,67.1h-0.9V61h0.9V67.1z"/>
			<path class="st5" d="M143.1,67.1h-0.9v-3.6c0-0.7-0.1-1.2-0.3-1.5s-0.6-0.5-1.1-0.5c-0.4,0-0.8,0.2-1.1,0.6s-0.5,0.9-0.5,1.4v3.5
				h-0.9v-3.7c0-0.6-0.1-1.1-0.4-1.4s-0.6-0.5-1.1-0.5c-0.5,0-0.8,0.2-1.1,0.6s-0.4,0.9-0.4,1.5v3.5h-0.9V61h0.9v1h0
				c0.2-0.4,0.5-0.7,0.8-0.9s0.7-0.3,1.1-0.3c0.4,0,0.8,0.1,1.1,0.4s0.5,0.6,0.6,0.9c0.2-0.4,0.5-0.8,0.8-1s0.7-0.3,1.2-0.3
				c0.7,0,1.2,0.2,1.5,0.6s0.5,1,0.5,1.9V67.1z"/>
			<path class="st5" d="M145.9,66.2L145.9,66.2l0,3.7H145V61h0.9v1.1h0c0.2-0.4,0.5-0.7,0.9-1s0.8-0.3,1.3-0.3
				c0.8,0,1.4,0.3,1.8,0.8s0.7,1.3,0.7,2.2c0,1-0.3,1.8-0.8,2.5s-1.2,0.9-2,0.9c-0.4,0-0.8-0.1-1.1-0.3S146.1,66.5,145.9,66.2z
				 M145.8,63.7v0.8c0,0.5,0.2,1,0.5,1.4s0.8,0.6,1.3,0.6c0.6,0,1.1-0.2,1.4-0.7s0.5-1.1,0.5-2c0-0.7-0.2-1.3-0.5-1.7
				s-0.8-0.6-1.3-0.6c-0.6,0-1.1,0.2-1.5,0.6S145.8,63.1,145.8,63.7z"/>
			<path class="st5" d="M152.2,67.1v-8.9h0.9v8.9H152.2z"/>
			<path class="st5" d="M155.5,59.6c-0.2,0-0.3-0.1-0.5-0.2s-0.2-0.3-0.2-0.4c0-0.2,0.1-0.3,0.2-0.4s0.3-0.2,0.5-0.2
				c0.2,0,0.3,0.1,0.5,0.2s0.2,0.3,0.2,0.4c0,0.2-0.1,0.3-0.2,0.4S155.7,59.6,155.5,59.6z M156,67.1h-0.9V61h0.9V67.1z"/>
			<path class="st5" d="M160.9,58.9c-0.1,0-0.2-0.1-0.3-0.1s-0.2,0-0.3,0c-0.3,0-0.6,0.1-0.8,0.3s-0.2,0.5-0.2,0.8v1h1.5v0.7h-1.5
				v5.4h-0.9v-5.4h-1V61h1v-1c0-0.6,0.2-1,0.5-1.3s0.8-0.5,1.4-0.5c0.1,0,0.3,0,0.4,0s0.2,0,0.4,0.1L160.9,58.9z"/>
			<path class="st5" d="M162.3,59.6c-0.2,0-0.3-0.1-0.5-0.2s-0.2-0.3-0.2-0.4c0-0.2,0.1-0.3,0.2-0.4s0.3-0.2,0.5-0.2
				c0.2,0,0.3,0.1,0.5,0.2s0.2,0.3,0.2,0.4c0,0.2-0.1,0.3-0.2,0.4S162.5,59.6,162.3,59.6z M162.8,67.1h-0.9V61h0.9V67.1z"/>
			<path class="st5" d="M169.2,66.7c-0.3,0.2-0.6,0.3-0.9,0.4s-0.6,0.1-0.9,0.1c-0.9,0-1.6-0.3-2.1-0.8s-0.8-1.3-0.8-2.3
				c0-1,0.3-1.8,0.8-2.4s1.3-0.9,2.3-0.9c0.3,0,0.6,0,0.8,0.1s0.5,0.2,0.8,0.3l-0.4,0.7c-0.2-0.1-0.4-0.2-0.7-0.3s-0.4-0.1-0.7-0.1
				c-0.7,0-1.2,0.2-1.6,0.7s-0.6,1.1-0.6,1.8c0,0.8,0.2,1.4,0.6,1.8s0.9,0.6,1.5,0.6c0.2,0,0.4,0,0.7-0.1s0.4-0.2,0.7-0.3
				L169.2,66.7z"/>
			<path class="st5" d="M175,67.1h-0.9v-1h0c-0.2,0.4-0.5,0.7-0.8,0.9s-0.7,0.3-1.1,0.3c-0.6,0-1-0.2-1.4-0.5s-0.5-0.8-0.5-1.3
				c0-0.5,0.2-1,0.5-1.3s0.9-0.6,1.6-0.7l1.8-0.2v-0.2c0-0.5-0.1-0.9-0.4-1.2s-0.6-0.4-1-0.4c-0.3,0-0.7,0.1-1,0.2s-0.6,0.3-0.9,0.6
				l-0.5-0.5c0.3-0.3,0.7-0.6,1.1-0.7s0.8-0.2,1.3-0.2c0.7,0,1.3,0.2,1.6,0.6s0.6,1,0.6,1.7V67.1z M174.1,64.5v-0.6l-1.5,0.2
				c-0.5,0.1-0.9,0.2-1.1,0.4s-0.4,0.5-0.4,0.8c0,0.4,0.1,0.6,0.3,0.8s0.5,0.3,0.9,0.3c0.5,0,1-0.2,1.3-0.6S174.1,65.1,174.1,64.5z"
				/>
			<path class="st5" d="M182.8,67.2c-0.9,0-1.6-0.3-2.2-0.9s-0.8-1.3-0.8-2.3c0-1,0.3-1.8,0.8-2.4s1.3-0.9,2.3-0.9
				c0.9,0,1.6,0.3,2.1,0.9s0.8,1.4,0.8,2.4c0,1-0.3,1.8-0.8,2.3S183.7,67.2,182.8,67.2z M182.8,66.5c0.7,0,1.2-0.2,1.5-0.6
				s0.5-1,0.5-1.8c0-0.8-0.2-1.4-0.5-1.8s-0.9-0.6-1.5-0.6c-0.7,0-1.2,0.2-1.6,0.7s-0.6,1.1-0.6,1.8c0,0.8,0.2,1.3,0.6,1.8
				S182.2,66.5,182.8,66.5z"/>
			<path class="st5" d="M195.9,66.7c0,1.1-0.3,1.9-0.8,2.4s-1.3,0.8-2.3,0.8c-0.4,0-0.8,0-1.1-0.1s-0.7-0.2-1.1-0.4l0.3-0.7
				c0.3,0.2,0.6,0.3,0.9,0.3s0.6,0.1,1,0.1c0.7,0,1.2-0.2,1.6-0.6s0.6-1,0.6-1.8V66h0c-0.2,0.4-0.5,0.7-0.9,0.9s-0.8,0.3-1.3,0.3
				c-0.8,0-1.4-0.3-1.8-0.8s-0.7-1.3-0.7-2.2c0-1,0.3-1.8,0.8-2.4s1.2-0.9,2-0.9c0.4,0,0.8,0.1,1.1,0.3s0.6,0.4,0.8,0.8h0V61h0.9
				V66.7z M195,64.4v-1c0-0.5-0.2-0.9-0.5-1.3s-0.8-0.5-1.3-0.5c-0.6,0-1.1,0.2-1.5,0.7s-0.5,1.1-0.5,1.9c0,0.8,0.2,1.4,0.5,1.8
				s0.8,0.6,1.4,0.6c0.6,0,1-0.2,1.4-0.6S195,65,195,64.4z"/>
			<path class="st5" d="M202.8,64.2h-4.4c0,0.8,0.2,1.3,0.6,1.7s0.9,0.6,1.5,0.6c0.3,0,0.6,0,0.9-0.1s0.6-0.2,0.9-0.4l0.4,0.6
				c-0.3,0.2-0.7,0.4-1.1,0.5s-0.7,0.2-1.2,0.2c-0.9,0-1.6-0.3-2.1-0.8s-0.8-1.3-0.8-2.4c0-1,0.3-1.8,0.8-2.4s1.2-0.9,2-0.9
				c0.8,0,1.4,0.3,1.8,0.8s0.7,1.3,0.7,2.2V64.2z M201.9,63.5c0-0.6-0.2-1.1-0.4-1.4s-0.7-0.5-1.2-0.5c-0.5,0-0.9,0.2-1.3,0.5
				s-0.5,0.8-0.6,1.4H201.9z"/>
			<path class="st5" d="M207.4,61.7c-0.1,0-0.2,0-0.2-0.1s-0.2,0-0.3,0c-0.5,0-0.9,0.2-1.2,0.7s-0.4,1-0.4,1.7v3h-0.9V61h0.9v1.3h0
				c0.1-0.4,0.4-0.8,0.7-1s0.6-0.4,1-0.4c0.1,0,0.2,0,0.3,0s0.2,0,0.3,0.1L207.4,61.7z"/>
			<path class="st5" d="M213.6,64.2h-4.4c0,0.8,0.2,1.3,0.6,1.7s0.9,0.6,1.5,0.6c0.3,0,0.6,0,0.9-0.1s0.6-0.2,0.9-0.4l0.4,0.6
				c-0.3,0.2-0.7,0.4-1.1,0.5s-0.7,0.2-1.2,0.2c-0.9,0-1.6-0.3-2.1-0.8s-0.8-1.3-0.8-2.4c0-1,0.3-1.8,0.8-2.4s1.2-0.9,2-0.9
				c0.8,0,1.4,0.3,1.8,0.8s0.7,1.3,0.7,2.2V64.2z M212.7,63.5c0-0.6-0.2-1.1-0.4-1.4s-0.7-0.5-1.2-0.5c-0.5,0-0.9,0.2-1.3,0.5
				s-0.5,0.8-0.6,1.4H212.7z"/>
			<path class="st5" d="M220.2,67.1h-0.9v-3.5c0-0.7-0.1-1.2-0.4-1.5s-0.6-0.5-1.1-0.5c-0.5,0-0.9,0.2-1.3,0.6S216,63,216,63.6v3.5
				h-0.9V61h0.9v1h0c0.2-0.4,0.5-0.7,0.8-0.9s0.7-0.3,1.2-0.3c0.7,0,1.2,0.2,1.5,0.7s0.5,1.1,0.5,1.9V67.1z"/>
			<path class="st5" d="M226.4,66.7c-0.3,0.2-0.6,0.3-0.9,0.4s-0.6,0.1-0.9,0.1c-0.9,0-1.6-0.3-2.1-0.8s-0.8-1.3-0.8-2.3
				c0-1,0.3-1.8,0.8-2.4s1.3-0.9,2.3-0.9c0.3,0,0.6,0,0.8,0.1s0.5,0.2,0.8,0.3l-0.4,0.7c-0.2-0.1-0.4-0.2-0.7-0.3s-0.4-0.1-0.7-0.1
				c-0.7,0-1.2,0.2-1.6,0.7s-0.6,1.1-0.6,1.8c0,0.8,0.2,1.4,0.6,1.8s0.9,0.6,1.5,0.6c0.2,0,0.4,0,0.7-0.1s0.4-0.2,0.7-0.3
				L226.4,66.7z"/>
			<path class="st5" d="M228.3,59.6c-0.2,0-0.3-0.1-0.5-0.2s-0.2-0.3-0.2-0.4c0-0.2,0.1-0.3,0.2-0.4s0.3-0.2,0.5-0.2
				c0.2,0,0.3,0.1,0.5,0.2s0.2,0.3,0.2,0.4c0,0.2-0.1,0.3-0.2,0.4S228.4,59.6,228.3,59.6z M228.7,67.1h-0.9V61h0.9V67.1z"/>
			<path class="st5" d="M235.2,67.1h-0.9v-1h0c-0.2,0.4-0.5,0.7-0.8,0.9s-0.7,0.3-1.1,0.3c-0.6,0-1-0.2-1.4-0.5s-0.5-0.8-0.5-1.3
				c0-0.5,0.2-1,0.5-1.3s0.9-0.6,1.6-0.7l1.8-0.2v-0.2c0-0.5-0.1-0.9-0.4-1.2s-0.6-0.4-1-0.4c-0.3,0-0.7,0.1-1,0.2s-0.6,0.3-0.9,0.6
				l-0.5-0.5c0.3-0.3,0.7-0.6,1.1-0.7s0.8-0.2,1.3-0.2c0.7,0,1.3,0.2,1.6,0.6s0.6,1,0.6,1.7V67.1z M234.3,64.5v-0.6l-1.5,0.2
				c-0.5,0.1-0.9,0.2-1.1,0.4s-0.4,0.5-0.4,0.8c0,0.4,0.1,0.6,0.3,0.8s0.5,0.3,0.9,0.3c0.5,0,1-0.2,1.3-0.6S234.3,65.1,234.3,64.5z"
				/>
			<path class="st5" d="M245.7,67.1h-0.9v-3.6c0-0.7-0.1-1.2-0.3-1.5s-0.6-0.5-1.1-0.5c-0.4,0-0.8,0.2-1.1,0.6s-0.5,0.9-0.5,1.4v3.5
				H241v-3.7c0-0.6-0.1-1.1-0.4-1.4s-0.6-0.5-1.1-0.5c-0.5,0-0.8,0.2-1.1,0.6S238,63,238,63.6v3.5h-0.9V61h0.9v1h0
				c0.2-0.4,0.5-0.7,0.8-0.9s0.7-0.3,1.1-0.3c0.4,0,0.8,0.1,1.1,0.4s0.5,0.6,0.6,0.9c0.2-0.4,0.5-0.8,0.8-1s0.7-0.3,1.2-0.3
				c0.7,0,1.2,0.2,1.5,0.6s0.5,1,0.5,1.9V67.1z"/>
			<path class="st5" d="M252.5,64.2h-4.4c0,0.8,0.2,1.3,0.6,1.7s0.9,0.6,1.5,0.6c0.3,0,0.6,0,0.9-0.1s0.6-0.2,0.9-0.4l0.4,0.6
				c-0.3,0.2-0.7,0.4-1.1,0.5s-0.7,0.2-1.2,0.2c-0.9,0-1.6-0.3-2.1-0.8s-0.8-1.3-0.8-2.4c0-1,0.3-1.8,0.8-2.4s1.2-0.9,2-0.9
				c0.8,0,1.4,0.3,1.8,0.8s0.7,1.3,0.7,2.2V64.2z M251.6,63.5c0-0.6-0.2-1.1-0.4-1.4s-0.7-0.5-1.2-0.5c-0.5,0-0.9,0.2-1.3,0.5
				s-0.5,0.8-0.6,1.4H251.6z"/>
			<path class="st5" d="M259.1,67.1h-0.9v-3.5c0-0.7-0.1-1.2-0.4-1.5s-0.6-0.5-1.1-0.5c-0.5,0-0.9,0.2-1.3,0.6S255,63,255,63.6v3.5
				h-0.9V61h0.9v1h0c0.2-0.4,0.5-0.7,0.8-0.9s0.7-0.3,1.2-0.3c0.7,0,1.2,0.2,1.5,0.7s0.5,1.1,0.5,1.9V67.1z"/>
			<path class="st5" d="M263.8,67c-0.2,0.1-0.3,0.1-0.5,0.2s-0.3,0.1-0.5,0.1c-0.5,0-0.8-0.1-1.1-0.4s-0.4-0.7-0.4-1.2v-3.9h-1.1V61
				h1.1v-1.4l0.9-0.3V61h1.6v0.7h-1.6v3.8c0,0.4,0.1,0.6,0.2,0.8s0.3,0.2,0.6,0.2c0.1,0,0.2,0,0.4,0s0.2-0.1,0.3-0.1L263.8,67z"/>
			<path class="st5" d="M267.7,67.2c-0.9,0-1.6-0.3-2.2-0.9s-0.8-1.3-0.8-2.3c0-1,0.3-1.8,0.8-2.4s1.3-0.9,2.3-0.9
				c0.9,0,1.6,0.3,2.1,0.9s0.8,1.4,0.8,2.4c0,1-0.3,1.8-0.8,2.3S268.6,67.2,267.7,67.2z M267.8,66.5c0.7,0,1.2-0.2,1.5-0.6
				s0.5-1,0.5-1.8c0-0.8-0.2-1.4-0.5-1.8s-0.9-0.6-1.5-0.6c-0.7,0-1.2,0.2-1.6,0.7s-0.6,1.1-0.6,1.8c0,0.8,0.2,1.3,0.6,1.8
				S267.1,66.5,267.8,66.5z"/>
			<path class="st5" d="M15.5,80.4c-0.2,0.4-0.5,0.7-0.9,0.9s-0.8,0.3-1.3,0.3c-0.8,0-1.4-0.3-1.9-0.8s-0.7-1.3-0.7-2.3
				c0-1,0.3-1.8,0.8-2.4s1.2-0.9,2-0.9c0.4,0,0.8,0.1,1.1,0.3s0.6,0.4,0.8,0.8h0v-3.6h0.9v8.9h-0.9L15.5,80.4L15.5,80.4z M11.7,78.5
				c0,0.8,0.2,1.3,0.5,1.8s0.8,0.6,1.4,0.6c0.6,0,1.1-0.2,1.4-0.6s0.5-0.9,0.5-1.5v-1c0-0.5-0.2-1-0.5-1.3s-0.8-0.5-1.3-0.5
				c-0.6,0-1.1,0.2-1.5,0.7S11.7,77.7,11.7,78.5z"/>
			<path class="st5" d="M23.3,78.6h-4.4c0,0.8,0.2,1.3,0.6,1.7s0.9,0.6,1.5,0.6c0.3,0,0.6,0,0.9-0.1s0.6-0.2,0.9-0.4l0.4,0.6
				c-0.3,0.2-0.7,0.4-1.1,0.5s-0.7,0.2-1.2,0.2c-0.9,0-1.6-0.3-2.1-0.8S18,79.5,18,78.5c0-1,0.3-1.8,0.8-2.4s1.2-0.9,2-0.9
				c0.8,0,1.4,0.3,1.8,0.8s0.7,1.3,0.7,2.2V78.6z M22.4,77.9c0-0.6-0.2-1.1-0.4-1.4s-0.7-0.5-1.2-0.5c-0.5,0-0.9,0.2-1.3,0.5
				s-0.5,0.8-0.6,1.4H22.4z"/>
			<path class="st5" d="M32.5,81.5h-0.9v-1h0c-0.2,0.4-0.5,0.7-0.8,0.9s-0.7,0.3-1.1,0.3c-0.6,0-1-0.2-1.4-0.5s-0.5-0.8-0.5-1.3
				c0-0.5,0.2-1,0.5-1.3s0.9-0.6,1.6-0.7l1.8-0.2v-0.2c0-0.5-0.1-0.9-0.4-1.2s-0.6-0.4-1-0.4c-0.3,0-0.7,0.1-1,0.2s-0.6,0.3-0.9,0.6
				L28,76.1c0.3-0.3,0.7-0.6,1.1-0.7s0.8-0.2,1.3-0.2c0.7,0,1.3,0.2,1.6,0.6s0.6,1,0.6,1.7V81.5z M31.7,78.9v-0.6l-1.5,0.2
				c-0.5,0.1-0.9,0.2-1.1,0.4s-0.4,0.5-0.4,0.8c0,0.4,0.1,0.6,0.3,0.8s0.5,0.3,0.9,0.3c0.5,0,1-0.2,1.3-0.6S31.7,79.5,31.7,78.9z"/>
			<path class="st5" d="M39.5,81.5h-0.9V78c0-0.7-0.1-1.2-0.4-1.5s-0.6-0.5-1.1-0.5c-0.5,0-0.9,0.2-1.3,0.6s-0.5,0.9-0.5,1.5v3.5
				h-0.9v-6.1h0.9v1h0c0.2-0.4,0.5-0.7,0.8-0.9s0.7-0.3,1.2-0.3c0.7,0,1.2,0.2,1.5,0.7s0.5,1.1,0.5,1.9V81.5z"/>
			<path class="st5" d="M41.8,74c-0.2,0-0.3-0.1-0.5-0.2s-0.2-0.3-0.2-0.4c0-0.2,0.1-0.3,0.2-0.4s0.3-0.2,0.5-0.2
				c0.2,0,0.3,0.1,0.5,0.2s0.2,0.3,0.2,0.4c0,0.2-0.1,0.3-0.2,0.4S42,74,41.8,74z M42.3,81.5h-0.9v-6.1h0.9V81.5z"/>
			<path class="st5" d="M53,81.5h-0.9v-3.6c0-0.7-0.1-1.2-0.3-1.5s-0.6-0.5-1.1-0.5c-0.4,0-0.8,0.2-1.1,0.6s-0.5,0.9-0.5,1.4v3.5
				h-0.9v-3.7c0-0.6-0.1-1.1-0.4-1.4s-0.6-0.5-1.1-0.5c-0.5,0-0.8,0.2-1.1,0.6s-0.4,0.9-0.4,1.5v3.5h-0.9v-6.1h0.9v1h0
				c0.2-0.4,0.5-0.7,0.8-0.9s0.7-0.3,1.1-0.3c0.4,0,0.8,0.1,1.1,0.4s0.5,0.6,0.6,0.9c0.2-0.4,0.5-0.8,0.8-1s0.7-0.3,1.2-0.3
				c0.7,0,1.2,0.2,1.5,0.6s0.5,1,0.5,1.9V81.5z"/>
			<path class="st5" d="M59.8,78.6h-4.4c0,0.8,0.2,1.3,0.6,1.7s0.9,0.6,1.5,0.6c0.3,0,0.6,0,0.9-0.1s0.6-0.2,0.9-0.4l0.4,0.6
				c-0.3,0.2-0.7,0.4-1.1,0.5s-0.7,0.2-1.2,0.2c-0.9,0-1.6-0.3-2.1-0.8s-0.8-1.3-0.8-2.4c0-1,0.3-1.8,0.8-2.4s1.2-0.9,2-0.9
				c0.8,0,1.4,0.3,1.8,0.8s0.7,1.3,0.7,2.2V78.6z M58.9,77.9c0-0.6-0.2-1.1-0.4-1.4s-0.7-0.5-1.2-0.5c-0.5,0-0.9,0.2-1.3,0.5
				s-0.5,0.8-0.6,1.4H58.9z"/>
			<path class="st5" d="M60.8,81.1l0.4-0.7c0.2,0.2,0.5,0.3,0.7,0.4s0.5,0.1,0.8,0.1c0.4,0,0.8-0.1,1-0.3s0.3-0.4,0.3-0.8
				c0-0.3-0.1-0.5-0.3-0.7s-0.5-0.3-1-0.5c-0.7-0.2-1.2-0.4-1.5-0.7S61,77.4,61,77c0-0.5,0.2-0.9,0.6-1.3s0.9-0.5,1.5-0.5
				c0.3,0,0.6,0,0.9,0.1s0.6,0.2,0.9,0.4l-0.4,0.7c-0.2-0.2-0.5-0.3-0.7-0.3s-0.5-0.1-0.7-0.1c-0.4,0-0.7,0.1-0.9,0.2
				s-0.3,0.4-0.3,0.7c0,0.3,0.1,0.5,0.3,0.6s0.5,0.3,1,0.4c0.6,0.2,1.1,0.4,1.4,0.7s0.5,0.7,0.5,1.2c0,0.6-0.2,1-0.6,1.3
				s-0.9,0.5-1.6,0.5c-0.4,0-0.7-0.1-1.1-0.2S61.1,81.2,60.8,81.1z"/>
			<path class="st5" d="M67.4,80.2L66.5,83h-0.7l0.7-2.9H67.4z"/>
			<path class="st5" d="M76.9,81.1c-0.3,0.2-0.6,0.3-0.9,0.4s-0.6,0.1-0.9,0.1c-0.9,0-1.6-0.3-2.1-0.8s-0.8-1.3-0.8-2.3
				c0-1,0.3-1.8,0.8-2.4s1.3-0.9,2.3-0.9c0.3,0,0.6,0,0.8,0.1s0.5,0.2,0.8,0.3l-0.4,0.7c-0.2-0.1-0.4-0.2-0.7-0.3S75.5,76,75.3,76
				c-0.7,0-1.2,0.2-1.6,0.7s-0.6,1.1-0.6,1.8c0,0.8,0.2,1.4,0.6,1.8s0.9,0.6,1.5,0.6c0.2,0,0.4,0,0.7-0.1s0.4-0.2,0.7-0.3L76.9,81.1
				z"/>
			<path class="st5" d="M82.7,81.5h-0.9v-1h0c-0.2,0.4-0.5,0.7-0.8,0.9s-0.7,0.3-1.1,0.3c-0.6,0-1-0.2-1.4-0.5s-0.5-0.8-0.5-1.3
				c0-0.5,0.2-1,0.5-1.3s0.9-0.6,1.6-0.7l1.8-0.2v-0.2c0-0.5-0.1-0.9-0.4-1.2s-0.6-0.4-1-0.4c-0.3,0-0.7,0.1-1,0.2s-0.6,0.3-0.9,0.6
				l-0.5-0.5c0.3-0.3,0.7-0.6,1.1-0.7s0.8-0.2,1.3-0.2c0.7,0,1.3,0.2,1.6,0.6s0.6,1,0.6,1.7V81.5z M81.8,78.9v-0.6l-1.5,0.2
				c-0.5,0.1-0.9,0.2-1.1,0.4s-0.4,0.5-0.4,0.8c0,0.4,0.1,0.6,0.3,0.8s0.5,0.3,0.9,0.3c0.5,0,1-0.2,1.3-0.6S81.8,79.5,81.8,78.9z"/>
			<path class="st5" d="M84.6,81.5v-8.9h0.9v8.9H84.6z"/>
			<path class="st5" d="M91.8,81.1c-0.3,0.2-0.6,0.3-0.9,0.4s-0.6,0.1-0.9,0.1c-0.9,0-1.6-0.3-2.1-0.8s-0.8-1.3-0.8-2.3
				c0-1,0.3-1.8,0.8-2.4s1.3-0.9,2.3-0.9c0.3,0,0.6,0,0.8,0.1s0.5,0.2,0.8,0.3l-0.4,0.7c-0.2-0.1-0.4-0.2-0.7-0.3S90.5,76,90.2,76
				c-0.7,0-1.2,0.2-1.6,0.7S88,77.7,88,78.5c0,0.8,0.2,1.4,0.6,1.8s0.9,0.6,1.5,0.6c0.2,0,0.4,0,0.7-0.1s0.4-0.2,0.7-0.3L91.8,81.1z
				"/>
			<path class="st5" d="M98.2,81.5h-0.9v-1h0c-0.2,0.4-0.5,0.7-0.8,0.9s-0.7,0.3-1.1,0.3c-0.7,0-1.3-0.2-1.6-0.7s-0.5-1.1-0.5-2
				v-3.6H94v3.5c0,0.7,0.1,1.2,0.4,1.6s0.6,0.5,1.2,0.5c0.5,0,0.9-0.2,1.2-0.6s0.5-0.9,0.5-1.5v-3.5h0.9V81.5z"/>
			<path class="st5" d="M100.2,81.5v-8.9h0.9v8.9H100.2z"/>
			<path class="st5" d="M107.5,81.5h-0.9v-1h0c-0.2,0.4-0.5,0.7-0.8,0.9s-0.7,0.3-1.1,0.3c-0.6,0-1-0.2-1.4-0.5s-0.5-0.8-0.5-1.3
				c0-0.5,0.2-1,0.5-1.3s0.9-0.6,1.6-0.7l1.8-0.2v-0.2c0-0.5-0.1-0.9-0.4-1.2s-0.6-0.4-1-0.4c-0.3,0-0.7,0.1-1,0.2s-0.6,0.3-0.9,0.6
				l-0.5-0.5c0.3-0.3,0.7-0.6,1.1-0.7s0.8-0.2,1.3-0.2c0.7,0,1.3,0.2,1.6,0.6s0.6,1,0.6,1.7V81.5z M106.6,78.9v-0.6l-1.5,0.2
				c-0.5,0.1-0.9,0.2-1.1,0.4s-0.4,0.5-0.4,0.8c0,0.4,0.1,0.6,0.3,0.8s0.5,0.3,0.9,0.3c0.5,0,1-0.2,1.3-0.6S106.6,79.5,106.6,78.9z"
				/>
			<path class="st5" d="M115.5,81.4c-0.2,0.1-0.3,0.1-0.5,0.2s-0.3,0.1-0.5,0.1c-0.5,0-0.8-0.1-1.1-0.4S113,80.5,113,80v-3.9H112
				v-0.7h1.1v-1.4l0.9-0.3v1.7h1.6v0.7h-1.6v3.8c0,0.4,0.1,0.6,0.2,0.8s0.3,0.2,0.6,0.2c0.1,0,0.2,0,0.4,0s0.2-0.1,0.3-0.1
				L115.5,81.4z"/>
			<path class="st5" d="M121.7,78.6h-4.4c0,0.8,0.2,1.3,0.6,1.7s0.9,0.6,1.5,0.6c0.3,0,0.6,0,0.9-0.1s0.6-0.2,0.9-0.4l0.4,0.6
				c-0.3,0.2-0.7,0.4-1.1,0.5s-0.7,0.2-1.2,0.2c-0.9,0-1.6-0.3-2.1-0.8s-0.8-1.3-0.8-2.4c0-1,0.3-1.8,0.8-2.4s1.2-0.9,2-0.9
				c0.8,0,1.4,0.3,1.8,0.8s0.7,1.3,0.7,2.2V78.6z M120.9,77.9c0-0.6-0.2-1.1-0.4-1.4s-0.7-0.5-1.2-0.5c-0.5,0-0.9,0.2-1.3,0.5
				s-0.5,0.8-0.6,1.4H120.9z"/>
			<path class="st5" d="M131.9,81.5H131v-3.6c0-0.7-0.1-1.2-0.3-1.5s-0.6-0.5-1.1-0.5c-0.4,0-0.8,0.2-1.1,0.6s-0.5,0.9-0.5,1.4v3.5
				h-0.9v-3.7c0-0.6-0.1-1.1-0.4-1.4s-0.6-0.5-1.1-0.5c-0.5,0-0.8,0.2-1.1,0.6s-0.4,0.9-0.4,1.5v3.5h-0.9v-6.1h0.9v1h0
				c0.2-0.4,0.5-0.7,0.8-0.9s0.7-0.3,1.1-0.3c0.4,0,0.8,0.1,1.1,0.4s0.5,0.6,0.6,0.9c0.2-0.4,0.5-0.8,0.8-1s0.7-0.3,1.2-0.3
				c0.7,0,1.2,0.2,1.5,0.6s0.5,1,0.5,1.9V81.5z"/>
			<path class="st5" d="M134.7,80.6L134.7,80.6l0,3.7h-0.9v-8.9h0.9v1.1h0c0.2-0.4,0.5-0.7,0.9-1s0.8-0.3,1.3-0.3
				c0.8,0,1.4,0.3,1.8,0.8s0.7,1.3,0.7,2.2c0,1-0.3,1.8-0.8,2.5s-1.2,0.9-2,0.9c-0.4,0-0.8-0.1-1.1-0.3S135,80.9,134.7,80.6z
				 M134.7,78.1V79c0,0.5,0.2,1,0.5,1.4s0.8,0.6,1.3,0.6c0.6,0,1.1-0.2,1.4-0.7s0.5-1.1,0.5-2c0-0.7-0.2-1.3-0.5-1.7
				s-0.8-0.6-1.3-0.6c-0.6,0-1.1,0.2-1.5,0.6S134.7,77.5,134.7,78.1z"/>
			<path class="st5" d="M143.6,81.7c-0.9,0-1.6-0.3-2.2-0.9s-0.8-1.3-0.8-2.3c0-1,0.3-1.8,0.8-2.4s1.3-0.9,2.3-0.9
				c0.9,0,1.6,0.3,2.1,0.9s0.8,1.4,0.8,2.4c0,1-0.3,1.8-0.8,2.3S144.5,81.7,143.6,81.7z M143.7,80.9c0.7,0,1.2-0.2,1.5-0.6
				s0.5-1,0.5-1.8c0-0.8-0.2-1.4-0.5-1.8s-0.9-0.6-1.5-0.6c-0.7,0-1.2,0.2-1.6,0.7s-0.6,1.1-0.6,1.8c0,0.8,0.2,1.3,0.6,1.8
				S143,80.9,143.7,80.9z"/>
			<path class="st5" d="M147.7,81.1l0.4-0.7c0.2,0.2,0.5,0.3,0.7,0.4s0.5,0.1,0.8,0.1c0.4,0,0.8-0.1,1-0.3s0.3-0.4,0.3-0.8
				c0-0.3-0.1-0.5-0.3-0.7s-0.5-0.3-1-0.5c-0.7-0.2-1.2-0.4-1.5-0.7s-0.4-0.7-0.4-1.1c0-0.5,0.2-0.9,0.6-1.3s0.9-0.5,1.5-0.5
				c0.3,0,0.6,0,0.9,0.1s0.6,0.2,0.9,0.4l-0.4,0.7c-0.2-0.2-0.5-0.3-0.7-0.3s-0.5-0.1-0.7-0.1c-0.4,0-0.7,0.1-0.9,0.2
				s-0.3,0.4-0.3,0.7c0,0.3,0.1,0.5,0.3,0.6s0.5,0.3,1,0.4c0.6,0.2,1.1,0.4,1.4,0.7s0.5,0.7,0.5,1.2c0,0.6-0.2,1-0.6,1.3
				s-0.9,0.5-1.6,0.5c-0.4,0-0.7-0.1-1.1-0.2S148,81.2,147.7,81.1z"/>
			<path class="st5" d="M161,80.4c-0.2,0.4-0.5,0.7-0.9,0.9s-0.8,0.3-1.3,0.3c-0.8,0-1.4-0.3-1.9-0.8s-0.7-1.3-0.7-2.3
				c0-1,0.3-1.8,0.8-2.4s1.2-0.9,2-0.9c0.4,0,0.8,0.1,1.1,0.3s0.6,0.4,0.8,0.8h0v-3.6h0.9v8.9H161L161,80.4L161,80.4z M157.2,78.5
				c0,0.8,0.2,1.3,0.5,1.8s0.8,0.6,1.4,0.6c0.6,0,1.1-0.2,1.4-0.6s0.5-0.9,0.5-1.5v-1c0-0.5-0.2-1-0.5-1.3s-0.8-0.5-1.3-0.5
				c-0.6,0-1.1,0.2-1.5,0.7S157.2,77.7,157.2,78.5z"/>
			<path class="st5" d="M168.8,78.6h-4.4c0,0.8,0.2,1.3,0.6,1.7s0.9,0.6,1.5,0.6c0.3,0,0.6,0,0.9-0.1s0.6-0.2,0.9-0.4l0.4,0.6
				c-0.3,0.2-0.7,0.4-1.1,0.5s-0.7,0.2-1.2,0.2c-0.9,0-1.6-0.3-2.1-0.8s-0.8-1.3-0.8-2.4c0-1,0.3-1.8,0.8-2.4s1.2-0.9,2-0.9
				c0.8,0,1.4,0.3,1.8,0.8s0.7,1.3,0.7,2.2V78.6z M167.9,77.9c0-0.6-0.2-1.1-0.4-1.4s-0.7-0.5-1.2-0.5c-0.5,0-0.9,0.2-1.3,0.5
				s-0.5,0.8-0.6,1.4H167.9z"/>
			<path class="st5" d="M178.6,78.6h-4.4c0,0.8,0.2,1.3,0.6,1.7s0.9,0.6,1.5,0.6c0.3,0,0.6,0,0.9-0.1s0.6-0.2,0.9-0.4l0.4,0.6
				c-0.3,0.2-0.7,0.4-1.1,0.5s-0.7,0.2-1.2,0.2c-0.9,0-1.6-0.3-2.1-0.8s-0.8-1.3-0.8-2.4c0-1,0.3-1.8,0.8-2.4s1.2-0.9,2-0.9
				c0.8,0,1.4,0.3,1.8,0.8s0.7,1.3,0.7,2.2V78.6z M177.7,77.9c0-0.6-0.2-1.1-0.4-1.4s-0.7-0.5-1.2-0.5c-0.5,0-0.9,0.2-1.3,0.5
				s-0.5,0.8-0.6,1.4H177.7z"/>
			<path class="st5" d="M184.5,75.4l-2.1,3.1l2,3h-1l-1.2-2c0-0.1-0.1-0.1-0.1-0.2s-0.1-0.2-0.2-0.3h0c0,0.1-0.1,0.1-0.1,0.2
				s-0.1,0.2-0.2,0.3l-1.3,2h-1l2.1-3l-2-3.1h1l1.2,2.1c0.1,0.1,0.1,0.2,0.1,0.2s0.1,0.2,0.1,0.2h0c0-0.1,0.1-0.2,0.1-0.2
				s0.1-0.2,0.1-0.2l1.3-2.1H184.5z"/>
			<path class="st5" d="M186.2,74c-0.2,0-0.3-0.1-0.5-0.2s-0.2-0.3-0.2-0.4c0-0.2,0.1-0.3,0.2-0.4s0.3-0.2,0.5-0.2
				c0.2,0,0.3,0.1,0.5,0.2s0.2,0.3,0.2,0.4c0,0.2-0.1,0.3-0.2,0.4S186.4,74,186.2,74z M186.7,81.5h-0.9v-6.1h0.9V81.5z"/>
			<path class="st5" d="M189.7,80.6L189.7,80.6l0,0.9h-0.9v-8.9h0.9v3.9h0c0.2-0.4,0.5-0.7,0.9-1s0.8-0.3,1.3-0.3
				c0.8,0,1.4,0.3,1.8,0.8s0.7,1.3,0.7,2.2c0,1-0.3,1.9-0.8,2.5s-1.2,0.9-2,0.9c-0.4,0-0.8-0.1-1.1-0.3S189.9,81,189.7,80.6z
				 M189.7,78.1V79c0,0.5,0.2,1,0.5,1.4s0.8,0.6,1.3,0.6c0.6,0,1.1-0.2,1.4-0.7s0.5-1.1,0.5-2c0-0.7-0.2-1.3-0.5-1.7
				s-0.8-0.6-1.3-0.6c-0.6,0-1.1,0.2-1.5,0.6S189.7,77.5,189.7,78.1z"/>
			<path class="st5" d="M196.4,74c-0.2,0-0.3-0.1-0.5-0.2s-0.2-0.3-0.2-0.4c0-0.2,0.1-0.3,0.2-0.4s0.3-0.2,0.5-0.2
				c0.2,0,0.3,0.1,0.5,0.2s0.2,0.3,0.2,0.4c0,0.2-0.1,0.3-0.2,0.4S196.6,74,196.4,74z M196.9,81.5H196v-6.1h0.9V81.5z"/>
			<path class="st5" d="M203.3,81.1c-0.3,0.2-0.6,0.3-0.9,0.4s-0.6,0.1-0.9,0.1c-0.9,0-1.6-0.3-2.1-0.8s-0.8-1.3-0.8-2.3
				c0-1,0.3-1.8,0.8-2.4s1.3-0.9,2.3-0.9c0.3,0,0.6,0,0.8,0.1s0.5,0.2,0.8,0.3l-0.4,0.7c-0.2-0.1-0.4-0.2-0.7-0.3s-0.4-0.1-0.7-0.1
				c-0.7,0-1.2,0.2-1.6,0.7s-0.6,1.1-0.6,1.8c0,0.8,0.2,1.4,0.6,1.8s0.9,0.6,1.5,0.6c0.2,0,0.4,0,0.7-0.1s0.4-0.2,0.7-0.3
				L203.3,81.1z M201.4,81.5v0.6c0.4,0,0.7,0.1,0.9,0.2s0.3,0.4,0.3,0.7c0,0.3-0.1,0.6-0.4,0.8S201.5,84,201,84c-0.1,0-0.2,0-0.3,0
				s-0.2,0-0.3,0l0.1-0.5c0.1,0,0.2,0,0.2,0s0.1,0,0.2,0c0.3,0,0.5,0,0.6-0.1s0.2-0.2,0.2-0.4c0-0.2-0.1-0.3-0.2-0.3
				s-0.3-0.1-0.6-0.1c0,0-0.1,0-0.1,0s-0.1,0-0.2,0v-1.1H201.4z"/>
			<path class="st5" d="M209.1,81.5h-0.9v-1h0c-0.2,0.4-0.5,0.7-0.8,0.9s-0.7,0.3-1.1,0.3c-0.6,0-1-0.2-1.4-0.5s-0.5-0.8-0.5-1.3
				c0-0.5,0.2-1,0.5-1.3s0.9-0.6,1.6-0.7l1.8-0.2v-0.2c0-0.5-0.1-0.9-0.4-1.2s-0.6-0.4-1-0.4c-0.3,0-0.7,0.1-1,0.2s-0.6,0.3-0.9,0.6
				l-0.5-0.5c0.3-0.3,0.7-0.6,1.1-0.7s0.8-0.2,1.3-0.2c0.7,0,1.3,0.2,1.6,0.6s0.6,1,0.6,1.7V81.5z M208.8,72.9c0,0.4-0.1,0.7-0.3,1
				s-0.4,0.4-0.8,0.4c-0.1,0-0.3,0-0.4-0.1c-0.2-0.1-0.3-0.1-0.5-0.3c-0.1-0.1-0.3-0.2-0.4-0.2s-0.2-0.1-0.3-0.1
				c-0.2,0-0.3,0.1-0.4,0.2s-0.1,0.3-0.1,0.5H205c0-0.4,0.1-0.8,0.3-1s0.5-0.4,0.8-0.4c0.1,0,0.3,0,0.4,0.1s0.3,0.1,0.5,0.3
				c0.1,0.1,0.3,0.2,0.4,0.2s0.2,0.1,0.3,0.1c0.2,0,0.3-0.1,0.4-0.2s0.1-0.3,0.1-0.5H208.8z M208.2,78.9v-0.6l-1.5,0.2
				c-0.5,0.1-0.9,0.2-1.1,0.4s-0.4,0.5-0.4,0.8c0,0.4,0.1,0.6,0.3,0.8s0.5,0.3,0.9,0.3c0.5,0,1-0.2,1.3-0.6S208.2,79.5,208.2,78.9z"
				/>
			<path class="st5" d="M213.6,81.7c-0.9,0-1.6-0.3-2.2-0.9s-0.8-1.3-0.8-2.3c0-1,0.3-1.8,0.8-2.4s1.3-0.9,2.3-0.9
				c0.9,0,1.6,0.3,2.1,0.9s0.8,1.4,0.8,2.4c0,1-0.3,1.8-0.8,2.3S214.5,81.7,213.6,81.7z M213.6,80.9c0.7,0,1.2-0.2,1.5-0.6
				s0.5-1,0.5-1.8c0-0.8-0.2-1.4-0.5-1.8s-0.9-0.6-1.5-0.6c-0.7,0-1.2,0.2-1.6,0.7s-0.6,1.1-0.6,1.8c0,0.8,0.2,1.3,0.6,1.8
				S213,80.9,213.6,80.9z"/>
			<path class="st5" d="M226.4,78.6H222c0,0.8,0.2,1.3,0.6,1.7s0.9,0.6,1.5,0.6c0.3,0,0.6,0,0.9-0.1s0.6-0.2,0.9-0.4l0.4,0.6
				c-0.3,0.2-0.7,0.4-1.1,0.5s-0.7,0.2-1.2,0.2c-0.9,0-1.6-0.3-2.1-0.8s-0.8-1.3-0.8-2.4c0-1,0.3-1.8,0.8-2.4s1.2-0.9,2-0.9
				c0.8,0,1.4,0.3,1.8,0.8s0.7,1.3,0.7,2.2V78.6z M225.5,77.9c0-0.6-0.2-1.1-0.4-1.4s-0.7-0.5-1.2-0.5c-0.5,0-0.9,0.2-1.3,0.5
				s-0.5,0.8-0.6,1.4H225.5z"/>
			<path class="st5" d="M13.8,96.1c-0.9,0-1.6-0.3-2.2-0.9s-0.8-1.3-0.8-2.3c0-1,0.3-1.8,0.8-2.4s1.3-0.9,2.3-0.9
				c0.9,0,1.6,0.3,2.1,0.9s0.8,1.4,0.8,2.4c0,1-0.3,1.8-0.8,2.3S14.7,96.1,13.8,96.1z M13.8,95.3c0.7,0,1.2-0.2,1.5-0.6
				s0.5-1,0.5-1.8c0-0.8-0.2-1.4-0.5-1.8s-0.9-0.6-1.5-0.6c-0.7,0-1.2,0.2-1.6,0.7s-0.6,1.1-0.6,1.8c0,0.8,0.2,1.3,0.6,1.8
				S13.2,95.3,13.8,95.3z"/>
			<path class="st5" d="M21.2,87.7c-0.1,0-0.2-0.1-0.3-0.1s-0.2,0-0.3,0c-0.3,0-0.6,0.1-0.8,0.3s-0.2,0.5-0.2,0.8v1h1.5v0.7h-1.5
				v5.4h-0.9v-5.4h-1v-0.7h1v-1c0-0.6,0.2-1,0.5-1.3s0.8-0.5,1.4-0.5c0.1,0,0.3,0,0.4,0s0.2,0,0.4,0.1L21.2,87.7z"/>
			<path class="st5" d="M27.1,93h-4.4c0,0.8,0.2,1.3,0.6,1.7s0.9,0.6,1.5,0.6c0.3,0,0.6,0,0.9-0.1s0.6-0.2,0.9-0.4l0.4,0.6
				c-0.3,0.2-0.7,0.4-1.1,0.5s-0.7,0.2-1.2,0.2c-0.9,0-1.6-0.3-2.1-0.8s-0.8-1.3-0.8-2.4c0-1,0.3-1.8,0.8-2.4s1.2-0.9,2-0.9
				c0.8,0,1.4,0.3,1.8,0.8s0.7,1.3,0.7,2.2V93z M26.2,92.3c0-0.6-0.2-1.1-0.4-1.4s-0.7-0.5-1.2-0.5c-0.5,0-0.9,0.2-1.3,0.5
				s-0.5,0.8-0.6,1.4H26.2z"/>
			<path class="st5" d="M31.7,90.5c-0.1,0-0.2,0-0.2-0.1s-0.2,0-0.3,0c-0.5,0-0.9,0.2-1.2,0.7s-0.4,1-0.4,1.7v3h-0.9v-6.1h0.9V91h0
				c0.1-0.4,0.4-0.8,0.7-1s0.6-0.4,1-0.4c0.1,0,0.2,0,0.3,0s0.2,0,0.3,0.1L31.7,90.5z"/>
			<path class="st5" d="M37.9,93h-4.4c0,0.8,0.2,1.3,0.6,1.7s0.9,0.6,1.5,0.6c0.3,0,0.6,0,0.9-0.1s0.6-0.2,0.9-0.4l0.4,0.6
				c-0.3,0.2-0.7,0.4-1.1,0.5s-0.7,0.2-1.2,0.2c-0.9,0-1.6-0.3-2.1-0.8s-0.8-1.3-0.8-2.4c0-1,0.3-1.8,0.8-2.4s1.2-0.9,2-0.9
				c0.8,0,1.4,0.3,1.8,0.8s0.7,1.3,0.7,2.2V93z M37,92.3c0-0.6-0.2-1.1-0.4-1.4s-0.7-0.5-1.2-0.5c-0.5,0-0.9,0.2-1.3,0.5
				s-0.5,0.8-0.6,1.4H37z"/>
			<path class="st5" d="M43.8,95.5c-0.3,0.2-0.6,0.3-0.9,0.4s-0.6,0.1-0.9,0.1c-0.9,0-1.6-0.3-2.1-0.8S39,93.9,39,93
				c0-1,0.3-1.8,0.8-2.4s1.3-0.9,2.3-0.9c0.3,0,0.6,0,0.8,0.1s0.5,0.2,0.8,0.3l-0.4,0.7c-0.2-0.1-0.4-0.2-0.7-0.3s-0.4-0.1-0.7-0.1
				c-0.7,0-1.2,0.2-1.6,0.7s-0.6,1.1-0.6,1.8c0,0.8,0.2,1.4,0.6,1.8s0.9,0.6,1.5,0.6c0.2,0,0.4,0,0.7-0.1s0.4-0.2,0.7-0.3L43.8,95.5
				z"/>
			<path class="st5" d="M50.1,93h-4.4c0,0.8,0.2,1.3,0.6,1.7s0.9,0.6,1.5,0.6c0.3,0,0.6,0,0.9-0.1s0.6-0.2,0.9-0.4l0.4,0.6
				c-0.3,0.2-0.7,0.4-1.1,0.5s-0.7,0.2-1.2,0.2c-0.9,0-1.6-0.3-2.1-0.8s-0.8-1.3-0.8-2.4c0-1,0.3-1.8,0.8-2.4s1.2-0.9,2-0.9
				c0.8,0,1.4,0.3,1.8,0.8s0.7,1.3,0.7,2.2V93z M49.2,92.3c0-0.6-0.2-1.1-0.4-1.4s-0.7-0.5-1.2-0.5c-0.5,0-0.9,0.2-1.3,0.5
				s-0.5,0.8-0.6,1.4H49.2z"/>
			<path class="st5" d="M55.4,88.4c-0.2,0-0.3-0.1-0.5-0.2s-0.2-0.3-0.2-0.4c0-0.2,0.1-0.3,0.2-0.4s0.3-0.2,0.5-0.2
				c0.2,0,0.3,0.1,0.5,0.2s0.2,0.3,0.2,0.4c0,0.2-0.1,0.3-0.2,0.4S55.6,88.4,55.4,88.4z M55.8,95.9H55v-6.1h0.9V95.9z"/>
			<path class="st5" d="M63,95.9h-0.9v-3.5c0-0.7-0.1-1.2-0.4-1.5s-0.6-0.5-1.1-0.5c-0.5,0-0.9,0.2-1.3,0.6s-0.5,0.9-0.5,1.5v3.5
				h-0.9v-6.1h0.9v1h0c0.2-0.4,0.5-0.7,0.8-0.9s0.7-0.3,1.2-0.3c0.7,0,1.2,0.2,1.5,0.7s0.5,1.1,0.5,1.9V95.9z"/>
			<path class="st5" d="M67.7,87.7c-0.1,0-0.2-0.1-0.3-0.1s-0.2,0-0.3,0c-0.3,0-0.6,0.1-0.8,0.3s-0.2,0.5-0.2,0.8v1h1.5v0.7h-1.5
				v5.4h-0.9v-5.4h-1v-0.7h1v-1c0-0.6,0.2-1,0.5-1.3s0.8-0.5,1.4-0.5c0.1,0,0.3,0,0.4,0s0.2,0,0.4,0.1L67.7,87.7z"/>
			<path class="st5" d="M71.2,96.1c-0.9,0-1.6-0.3-2.2-0.9s-0.8-1.3-0.8-2.3c0-1,0.3-1.8,0.8-2.4s1.3-0.9,2.3-0.9
				c0.9,0,1.6,0.3,2.1,0.9s0.8,1.4,0.8,2.4c0,1-0.3,1.8-0.8,2.3S72.2,96.1,71.2,96.1z M71.3,95.3c0.7,0,1.2-0.2,1.5-0.6
				s0.5-1,0.5-1.8c0-0.8-0.2-1.4-0.5-1.8s-0.9-0.6-1.5-0.6c-0.7,0-1.2,0.2-1.6,0.7s-0.6,1.1-0.6,1.8c0,0.8,0.2,1.3,0.6,1.8
				S70.6,95.3,71.3,95.3z"/>
			<path class="st5" d="M78.9,90.5c-0.1,0-0.2,0-0.2-0.1s-0.2,0-0.3,0c-0.5,0-0.9,0.2-1.2,0.7s-0.4,1-0.4,1.7v3h-0.9v-6.1h0.9V91h0
				c0.1-0.4,0.4-0.8,0.7-1s0.6-0.4,1-0.4c0.1,0,0.2,0,0.3,0s0.2,0,0.3,0.1L78.9,90.5z"/>
			<path class="st5" d="M88.8,95.9h-0.9v-3.6c0-0.7-0.1-1.2-0.3-1.5s-0.6-0.5-1.1-0.5c-0.4,0-0.8,0.2-1.1,0.6s-0.5,0.9-0.5,1.4v3.5
				h-0.9v-3.7c0-0.6-0.1-1.1-0.4-1.4s-0.6-0.5-1.1-0.5c-0.5,0-0.8,0.2-1.1,0.6s-0.4,0.9-0.4,1.5v3.5h-0.9v-6.1h0.9v1h0
				c0.2-0.4,0.5-0.7,0.8-0.9s0.7-0.3,1.1-0.3c0.4,0,0.8,0.1,1.1,0.4s0.5,0.6,0.6,0.9c0.2-0.4,0.5-0.8,0.8-1s0.7-0.3,1.2-0.3
				c0.7,0,1.2,0.2,1.5,0.6s0.5,1,0.5,1.9V95.9z"/>
			<path class="st5" d="M95.1,95.9h-0.9v-1h0c-0.2,0.4-0.5,0.7-0.8,0.9s-0.7,0.3-1.1,0.3c-0.6,0-1-0.2-1.4-0.5s-0.5-0.8-0.5-1.3
				c0-0.5,0.2-1,0.5-1.3s0.9-0.6,1.6-0.7l1.8-0.2v-0.2c0-0.5-0.1-0.9-0.4-1.2s-0.6-0.4-1-0.4c-0.3,0-0.7,0.1-1,0.2s-0.6,0.3-0.9,0.6
				l-0.5-0.5c0.3-0.3,0.7-0.6,1.1-0.7s0.8-0.2,1.3-0.2c0.7,0,1.3,0.2,1.6,0.6s0.6,1,0.6,1.7V95.9z M94.2,93.3v-0.6L92.7,93
				c-0.5,0.1-0.9,0.2-1.1,0.4s-0.4,0.5-0.4,0.8c0,0.4,0.1,0.6,0.3,0.8s0.5,0.3,0.9,0.3c0.5,0,1-0.2,1.3-0.6S94.2,93.9,94.2,93.3z"/>
			<path class="st5" d="M101.3,95.5c-0.3,0.2-0.6,0.3-0.9,0.4s-0.6,0.1-0.9,0.1c-0.9,0-1.6-0.3-2.1-0.8s-0.8-1.3-0.8-2.3
				c0-1,0.3-1.8,0.8-2.4s1.3-0.9,2.3-0.9c0.3,0,0.6,0,0.8,0.1s0.5,0.2,0.8,0.3l-0.4,0.7c-0.2-0.1-0.4-0.2-0.7-0.3s-0.4-0.1-0.7-0.1
				c-0.7,0-1.2,0.2-1.6,0.7s-0.6,1.1-0.6,1.8c0,0.8,0.2,1.4,0.6,1.8s0.9,0.6,1.5,0.6c0.2,0,0.4,0,0.7-0.1s0.4-0.2,0.7-0.3
				L101.3,95.5z M99.4,95.9v0.6c0.4,0,0.7,0.1,0.9,0.2s0.3,0.4,0.3,0.7c0,0.3-0.1,0.6-0.4,0.8s-0.6,0.3-1.1,0.3c-0.1,0-0.2,0-0.3,0
				s-0.2,0-0.3,0l0.1-0.5c0.1,0,0.2,0,0.2,0s0.1,0,0.2,0c0.3,0,0.5,0,0.6-0.1s0.2-0.2,0.2-0.4c0-0.2-0.1-0.3-0.2-0.3
				S99.3,97,99.1,97c0,0-0.1,0-0.1,0s-0.1,0-0.2,0v-1.1H99.4z"/>
			<path class="st5" d="M105.3,96.1c-0.9,0-1.6-0.3-2.2-0.9s-0.8-1.3-0.8-2.3c0-1,0.3-1.8,0.8-2.4s1.3-0.9,2.3-0.9
				c0.9,0,1.6,0.3,2.1,0.9s0.8,1.4,0.8,2.4c0,1-0.3,1.8-0.8,2.3S106.2,96.1,105.3,96.1z M105.4,95.3c0.7,0,1.2-0.2,1.5-0.6
				s0.5-1,0.5-1.8c0-0.8-0.2-1.4-0.5-1.8s-0.9-0.6-1.5-0.6c-0.7,0-1.2,0.2-1.6,0.7s-0.6,1.1-0.6,1.8c0,0.8,0.2,1.3,0.6,1.8
				S104.7,95.3,105.4,95.3z M107.2,87.3c0,0.4-0.1,0.7-0.3,1s-0.4,0.4-0.8,0.4c-0.1,0-0.3,0-0.4-0.1s-0.3-0.1-0.5-0.3
				c-0.1-0.1-0.3-0.2-0.4-0.2s-0.2-0.1-0.3-0.1c-0.2,0-0.3,0.1-0.4,0.2s-0.1,0.3-0.1,0.5h-0.5c0-0.4,0.1-0.8,0.3-1s0.5-0.4,0.8-0.4
				c0.1,0,0.3,0,0.4,0.1s0.3,0.1,0.5,0.3c0.1,0.1,0.3,0.2,0.4,0.2s0.2,0.1,0.3,0.1c0.2,0,0.3-0.1,0.4-0.2s0.1-0.3,0.1-0.5H107.2z"/>
			<path class="st5" d="M114.9,93h-4.4c0,0.8,0.2,1.3,0.6,1.7s0.9,0.6,1.5,0.6c0.3,0,0.6,0,0.9-0.1s0.6-0.2,0.9-0.4l0.4,0.6
				c-0.3,0.2-0.7,0.4-1.1,0.5s-0.7,0.2-1.2,0.2c-0.9,0-1.6-0.3-2.1-0.8s-0.8-1.3-0.8-2.4c0-1,0.3-1.8,0.8-2.4s1.2-0.9,2-0.9
				c0.8,0,1.4,0.3,1.8,0.8s0.7,1.3,0.7,2.2V93z M114,92.3c0-0.6-0.2-1.1-0.4-1.4s-0.7-0.5-1.2-0.5c-0.5,0-0.9,0.2-1.3,0.5
				s-0.5,0.8-0.6,1.4H114z"/>
			<path class="st5" d="M115.9,95.5l0.4-0.7c0.2,0.2,0.5,0.3,0.7,0.4s0.5,0.1,0.8,0.1c0.4,0,0.8-0.1,1-0.3s0.3-0.4,0.3-0.8
				c0-0.3-0.1-0.5-0.3-0.7s-0.5-0.3-1-0.5c-0.7-0.2-1.2-0.4-1.5-0.7s-0.4-0.7-0.4-1.1c0-0.5,0.2-0.9,0.6-1.3s0.9-0.5,1.5-0.5
				c0.3,0,0.6,0,0.9,0.1s0.6,0.2,0.9,0.4l-0.4,0.7c-0.2-0.2-0.5-0.3-0.7-0.3s-0.5-0.1-0.7-0.1c-0.4,0-0.7,0.1-0.9,0.2
				s-0.3,0.4-0.3,0.7c0,0.3,0.1,0.5,0.3,0.6s0.5,0.3,1,0.4c0.6,0.2,1.1,0.4,1.4,0.7s0.5,0.7,0.5,1.2c0,0.6-0.2,1-0.6,1.3
				s-0.9,0.5-1.6,0.5c-0.4,0-0.7-0.1-1.1-0.2S116.2,95.6,115.9,95.5z"/>
			<path class="st5" d="M129.2,94.8c-0.2,0.4-0.5,0.7-0.9,0.9s-0.8,0.3-1.3,0.3c-0.8,0-1.4-0.3-1.9-0.8s-0.7-1.3-0.7-2.3
				c0-1,0.3-1.8,0.8-2.4s1.2-0.9,2-0.9c0.4,0,0.8,0.1,1.1,0.3s0.6,0.4,0.8,0.8h0V87h0.9v8.9h-0.9L129.2,94.8L129.2,94.8z
				 M125.4,92.9c0,0.8,0.2,1.3,0.5,1.8s0.8,0.6,1.4,0.6c0.6,0,1.1-0.2,1.4-0.6s0.5-0.9,0.5-1.5v-1c0-0.5-0.2-1-0.5-1.3
				s-0.8-0.5-1.3-0.5c-0.6,0-1.1,0.2-1.5,0.7S125.4,92.1,125.4,92.9z"/>
			<path class="st5" d="M137,93h-4.4c0,0.8,0.2,1.3,0.6,1.7s0.9,0.6,1.5,0.6c0.3,0,0.6,0,0.9-0.1s0.6-0.2,0.9-0.4l0.4,0.6
				c-0.3,0.2-0.7,0.4-1.1,0.5s-0.7,0.2-1.2,0.2c-0.9,0-1.6-0.3-2.1-0.8s-0.8-1.3-0.8-2.4c0-1,0.3-1.8,0.8-2.4s1.2-0.9,2-0.9
				c0.8,0,1.4,0.3,1.8,0.8s0.7,1.3,0.7,2.2V93z M136.1,92.3c0-0.6-0.2-1.1-0.4-1.4s-0.7-0.5-1.2-0.5c-0.5,0-0.9,0.2-1.3,0.5
				s-0.5,0.8-0.6,1.4H136.1z"/>
			<path class="st5" d="M141.4,95.8c-0.2,0.1-0.3,0.1-0.5,0.2s-0.3,0.1-0.5,0.1c-0.5,0-0.8-0.1-1.1-0.4s-0.4-0.7-0.4-1.2v-3.9h-1.1
				v-0.7h1.1v-1.4l0.9-0.3v1.7h1.6v0.7h-1.6v3.8c0,0.4,0.1,0.6,0.2,0.8s0.3,0.2,0.6,0.2c0.1,0,0.2,0,0.4,0s0.2-0.1,0.3-0.1
				L141.4,95.8z"/>
			<path class="st5" d="M147.1,95.9h-0.9v-1h0c-0.2,0.4-0.5,0.7-0.8,0.9s-0.7,0.3-1.1,0.3c-0.6,0-1-0.2-1.4-0.5s-0.5-0.8-0.5-1.3
				c0-0.5,0.2-1,0.5-1.3s0.9-0.6,1.6-0.7l1.8-0.2v-0.2c0-0.5-0.1-0.9-0.4-1.2s-0.6-0.4-1-0.4c-0.3,0-0.7,0.1-1,0.2s-0.6,0.3-0.9,0.6
				l-0.5-0.5c0.3-0.3,0.7-0.6,1.1-0.7s0.8-0.2,1.3-0.2c0.7,0,1.3,0.2,1.6,0.6s0.6,1,0.6,1.7V95.9z M146.2,93.3v-0.6l-1.5,0.2
				c-0.5,0.1-0.9,0.2-1.1,0.4s-0.4,0.5-0.4,0.8c0,0.4,0.1,0.6,0.3,0.8s0.5,0.3,0.9,0.3c0.5,0,1-0.2,1.3-0.6S146.2,93.9,146.2,93.3z"
				/>
			<path class="st5" d="M149,95.9V87h0.9v8.9H149z"/>
			<path class="st5" d="M156.9,95.9h-0.9v-3.6c0-0.7-0.1-1.2-0.4-1.5s-0.6-0.5-1.1-0.5c-0.5,0-0.9,0.2-1.3,0.6s-0.5,0.9-0.5,1.5v3.5
				h-0.9V87h0.9v3.8h0c0.2-0.4,0.5-0.7,0.9-0.9s0.7-0.3,1.2-0.3c0.7,0,1.2,0.2,1.5,0.6s0.5,1,0.5,1.9V95.9z"/>
			<path class="st5" d="M163.2,95.9h-0.9v-1h0c-0.2,0.4-0.5,0.7-0.8,0.9s-0.7,0.3-1.1,0.3c-0.6,0-1-0.2-1.4-0.5s-0.5-0.8-0.5-1.3
				c0-0.5,0.2-1,0.5-1.3s0.9-0.6,1.6-0.7l1.8-0.2v-0.2c0-0.5-0.1-0.9-0.4-1.2s-0.6-0.4-1-0.4c-0.3,0-0.7,0.1-1,0.2s-0.6,0.3-0.9,0.6
				l-0.5-0.5c0.3-0.3,0.7-0.6,1.1-0.7s0.8-0.2,1.3-0.2c0.7,0,1.3,0.2,1.6,0.6s0.6,1,0.6,1.7V95.9z M162.3,93.3v-0.6l-1.5,0.2
				c-0.5,0.1-0.9,0.2-1.1,0.4s-0.4,0.5-0.4,0.8c0,0.4,0.1,0.6,0.3,0.8s0.5,0.3,0.9,0.3c0.5,0,1-0.2,1.3-0.6S162.3,93.9,162.3,93.3z"
				/>
			<path class="st5" d="M169.4,94.8c-0.2,0.4-0.5,0.7-0.9,0.9s-0.8,0.3-1.3,0.3c-0.8,0-1.4-0.3-1.9-0.8s-0.7-1.3-0.7-2.3
				c0-1,0.3-1.8,0.8-2.4s1.2-0.9,2-0.9c0.4,0,0.8,0.1,1.1,0.3s0.6,0.4,0.8,0.8h0V87h0.9v8.9h-0.9L169.4,94.8L169.4,94.8z
				 M165.6,92.9c0,0.8,0.2,1.3,0.5,1.8s0.8,0.6,1.4,0.6c0.6,0,1.1-0.2,1.4-0.6s0.5-0.9,0.5-1.5v-1c0-0.5-0.2-1-0.5-1.3
				s-0.8-0.5-1.3-0.5c-0.6,0-1.1,0.2-1.5,0.7S165.6,92.1,165.6,92.9z"/>
			<path class="st5" d="M176.7,95.9h-0.9v-1h0c-0.2,0.4-0.5,0.7-0.8,0.9s-0.7,0.3-1.1,0.3c-0.6,0-1-0.2-1.4-0.5s-0.5-0.8-0.5-1.3
				c0-0.5,0.2-1,0.5-1.3s0.9-0.6,1.6-0.7l1.8-0.2v-0.2c0-0.5-0.1-0.9-0.4-1.2s-0.6-0.4-1-0.4c-0.3,0-0.7,0.1-1,0.2s-0.6,0.3-0.9,0.6
				l-0.5-0.5c0.3-0.3,0.7-0.6,1.1-0.7s0.8-0.2,1.3-0.2c0.7,0,1.3,0.2,1.6,0.6s0.6,1,0.6,1.7V95.9z M175.8,93.3v-0.6l-1.5,0.2
				c-0.5,0.1-0.9,0.2-1.1,0.4s-0.4,0.5-0.4,0.8c0,0.4,0.1,0.6,0.3,0.8s0.5,0.3,0.9,0.3c0.5,0,1-0.2,1.3-0.6S175.8,93.9,175.8,93.3z"
				/>
			<path class="st5" d="M178.1,95.5l0.4-0.7c0.2,0.2,0.5,0.3,0.7,0.4s0.5,0.1,0.8,0.1c0.4,0,0.8-0.1,1-0.3s0.3-0.4,0.3-0.8
				c0-0.3-0.1-0.5-0.3-0.7s-0.5-0.3-1-0.5c-0.7-0.2-1.2-0.4-1.5-0.7s-0.4-0.7-0.4-1.1c0-0.5,0.2-0.9,0.6-1.3s0.9-0.5,1.5-0.5
				c0.3,0,0.6,0,0.9,0.1s0.6,0.2,0.9,0.4l-0.4,0.7c-0.2-0.2-0.5-0.3-0.7-0.3s-0.5-0.1-0.7-0.1c-0.4,0-0.7,0.1-0.9,0.2
				s-0.3,0.4-0.3,0.7c0,0.3,0.1,0.5,0.3,0.6s0.5,0.3,1,0.4c0.6,0.2,1.1,0.4,1.4,0.7s0.5,0.7,0.5,1.2c0,0.6-0.2,1-0.6,1.3
				s-0.9,0.5-1.6,0.5c-0.4,0-0.7-0.1-1.1-0.2S178.4,95.6,178.1,95.5z"/>
			<path class="st5" d="M184.2,96c-0.2,0-0.3-0.1-0.5-0.2s-0.2-0.3-0.2-0.4s0.1-0.3,0.2-0.4s0.3-0.2,0.5-0.2c0.2,0,0.3,0.1,0.5,0.2
				s0.2,0.3,0.2,0.4s-0.1,0.3-0.2,0.4S184.4,96,184.2,96z"/>
		</g>
	</g>
	<g>
		<path class="st6" d="M407.9,21.1L407.9,21.1c-5.8,0-10.6-4.8-10.6-10.6v0c0-5.8,4.8-10.6,10.6-10.6l0,0c5.8,0,10.6,4.8,10.6,10.6
			v0C418.4,16.4,413.7,21.1,407.9,21.1z"/>
		<polygon class="st7" points="407.9,5.2 409.6,8.7 413.5,9.3 410.7,12 411.3,15.9 407.9,14.1 404.4,15.9 405.1,12 402.3,9.3 
			406.1,8.7 		"/>
	</g>
	<g>
		<path class="st8" d="M143.3,129.6h-59c-1.1,0-1.9-0.9-1.9-1.9v-15.5c0-1.1,0.9-1.9,1.9-1.9h59c1.1,0,1.9,0.9,1.9,1.9v15.5
			C145.2,128.7,144.4,129.6,143.3,129.6z"/>
		<g>
			<text transform="matrix(1 0 0 1 90.4452 122.4769)"><tspan x="0" y="0" class="st4 st9 st10">S</tspan><tspan x="4.2" y="0" class="st4 st9 st10">aiba mais</tspan></text>
			<path class="st4" d="M137,119.8c0,0.1-0.1,0.1-0.1,0.1c-1.3,1.3-2.5,2.5-3.8,3.8c-0.1,0.1-0.2,0.1-0.3,0.2h-0.2
				c-0.3-0.1-0.4-0.3-0.6-0.5c-0.1-0.2-0.1-0.4,0-0.6c0,0,0.1-0.1,0.1-0.1c1-1,2.1-2.1,3.1-3.1c0,0,0.1,0,0.1-0.1
				c0,0-0.1-0.1-0.1-0.1c-1-1-2.1-2.1-3.1-3.1c-0.2-0.2-0.2-0.4-0.1-0.6c0.1-0.2,0.3-0.3,0.5-0.5c0.2-0.1,0.4-0.1,0.5,0
				c0,0,0,0,0.1,0.1c1.3,1.3,2.5,2.5,3.8,3.8C137.1,119.3,137.2,119.5,137,119.8z"/>
		</g>
	</g>
</g>
</svg>
