<?xml version="1.0" encoding="utf-8"?>
<!-- Generator: Adobe Illustrator 26.3.0, SVG Export Plug-In . SVG Version: 6.00 Build 0)  -->
<svg version="1.1" id="Camada_1" xmlns="http://www.w3.org/2000/svg" xmlns:xlink="http://www.w3.org/1999/xlink" x="0px" y="0px"
	 width="412.8px" height="137.1px" viewBox="0 0 412.8 137.1" style="enable-background:new 0 0 412.8 137.1;" xml:space="preserve"
	>
<style type="text/css">
	.st0{fill:#161B22;}
	.st1{opacity:0.12;}
	.st2{fill:#14251F;}
	.st3{fill:none;stroke:#228534;stroke-width:0.3;stroke-miterlimit:10;}
	.st4{fill:#228632;}
	.st5{fill:#7A828D;}
	.st6{fill:#292929;}
	.st7{fill:#E3B341;}
	.st8{fill:#14251F;stroke:#228534;stroke-width:0.3;stroke-miterlimit:10;}
	.st9{font-family:'MyriadPro-Regular';}
	.st10{font-size:5.8402px;}
</style>
<g id="Camada_2_00000093139482852668715770000004103646696610550921_">
	<path class="st0" d="M408.9,8v124.9c0,2.3-1.6,4.2-3.6,4.2H3.6c-2,0-3.6-1.9-3.6-4.2V8c0-2.3,1.6-4.2,3.6-4.2h401.6
		c0.1,0,0.2,0,0.4,0c0.1,0,0.2,0,0.3,0.1c1.1,0.2,2.1,1.1,2.6,2.2c0.1,0.3,0.2,0.6,0.3,0.9C408.9,7.3,408.9,7.6,408.9,8z"/>
	<g class="st1">
		<path d="M409.5,106.3c-0.2-0.8-0.4-1.6-0.6-2.3c-8.7-33.4-17.4-66.8-26.2-100.2h-76.5c-1.6,0.4-3.2,0.8-4.8,1.3
			c-7.2,1.9-14.5,3.6-21.6,5.7c-10.3,2.9-16.5,14-13.7,24.8c7.4,28.5,14.8,57,22.3,85.4c1.9,7.4,7.2,13.3,13.8,16.2h37.5
			c0.1-0.1,0.2-0.2,0.2-0.3c0.7-0.8,1.3-1,2.3-0.6c0.8,0.3,1.5,0.6,2.3,0.9H362l-2.6-9.8l1.9-0.5c14.3-3.7,28.5-7.4,42.8-11.1
			c2.2-0.6,3.8-1.6,4.7-3.1C409.9,111,410.2,108.8,409.5,106.3z M319.2,79.8l-12.8,3.3l-3.5-13.3l12.8-3.3L319.2,79.8z M292.3,29.2
			l12.8-3.3l3.5,13.3l-12.8,3.3L292.3,29.2z M310.4,46.2l3.5,13.3L301,62.8l-3.5-13.3L310.4,46.2z M355.9,113.6l-3.5-13.3l-39,10.1
			l3.4,13.1c-6.4,3.2-12.3,0.8-14.9-4.5c-2.7-5.5-0.2-12.1,5.4-14.3c0.7-0.3,1.4-0.5,2.1-0.7c26-6.8,52.1-13.5,78.1-20.3l1.9-0.5
			l5.3,20.2L355.9,113.6z"/>
	</g>
	<g>
		<g>
			<g>
				<g>
					<g>
						<path class="st2" d="M33.2,42.1H14.7c-2.8,0-5-2.2-5-5V18.6c0-2.8,2.2-5,5-5h18.5c2.8,0,5,2.2,5,5v18.5
							C38.2,39.9,36,42.1,33.2,42.1z"/>
						<path class="st3" d="M33.2,42.1H14.7c-2.8,0-5-2.2-5-5V18.6c0-2.8,2.2-5,5-5h18.5c2.8,0,5,2.2,5,5v18.5
							C38.2,39.9,36,42.1,33.2,42.1z"/>
					</g>
				</g>
			</g>
			<g>
				<g>
					<path class="st4" d="M30.9,20.1c-0.1-0.4-0.4-0.6-0.8-0.6h-8.2c-0.8,0-1.7,0-2.5,0c-1.2,0-2.2,1-2.2,2.3v9.9
						c0,1.2,0.8,2.3,1.9,2.6c0.4,0.1,0.7,0.1,1.1,0.2v1.9c0.1-0.1,0.1-0.1,0.2-0.1c0.7-0.4,1.3-0.9,2-1.3c0.1-0.1,0.2-0.1,0.3,0
						c0.7,0.5,1.3,0.9,2,1.4c0,0,0.1,0.1,0.2,0.1v-1.9H30c0.5,0,0.8-0.3,0.8-0.9V20.3C30.9,20.2,30.9,20.1,30.9,20.1z M20.1,21.8
						h1.5v1.5h-1.5V21.8z M20.1,24.1h1.5v1.5h-1.5V24.1z M20.1,26.5h1.5V28h-1.5V26.5z M29.3,32.7h-4.6v-1.5h-4.6v1.5
						c-0.8,0.2-1.4-0.3-1.5-0.9c-0.1-0.7,0.3-1.3,1-1.4c0.1,0,0.2,0,0.2,0h9.5V32.7z"/>
				</g>
			</g>
		</g>
		<g>
			<g>
				<path class="st5" d="M53.9,32.9l5.1-14h3.7l5,14h-3.4L63.4,30h-5.1l-0.9,2.9H53.9z M59,27.5h3.7l-1.5-4.9
					c-0.1-0.2-0.1-0.4-0.1-0.5s-0.1-0.3-0.1-0.5h-0.1c0,0.2-0.1,0.4-0.1,0.5s-0.1,0.3-0.1,0.5L59,27.5z"/>
				<path class="st5" d="M72.3,31.8L72.3,31.8l0,5.8h-3.1V22.9h3.1v1.5h0c0.4-0.6,0.8-1,1.4-1.3s1.2-0.4,1.8-0.4
					c1.3,0,2.3,0.4,3,1.3s1.1,2.1,1.1,3.6c0,1.7-0.4,3-1.2,4s-1.9,1.5-3.3,1.5c-0.6,0-1.1-0.1-1.6-0.4S72.6,32.2,72.3,31.8z
					 M72.2,27.7v0.8c0,0.7,0.2,1.3,0.5,1.7s0.8,0.7,1.4,0.7c0.7,0,1.2-0.3,1.6-0.8s0.6-1.3,0.6-2.3c0-0.9-0.2-1.5-0.5-2
					S75.1,25,74.4,25c-0.6,0-1.1,0.2-1.5,0.7S72.2,26.9,72.2,27.7z"/>
				<path class="st5" d="M83.2,21.6c-0.5,0-1-0.2-1.3-0.5s-0.5-0.7-0.5-1.2c0-0.5,0.2-0.9,0.5-1.2s0.8-0.5,1.3-0.5
					c0.5,0,1,0.2,1.3,0.5s0.5,0.7,0.5,1.2c0,0.5-0.2,0.9-0.5,1.2S83.7,21.6,83.2,21.6z M84.7,32.9h-3.1v-10h3.1V32.9z"/>
				<path class="st5" d="M87.4,28.7v-2.2h5.3v2.2H87.4z"/>
				<path class="st5" d="M94.2,32.9l5.1-14h3.7l5,14h-3.4l-0.9-2.9h-5.1l-0.9,2.9H94.2z M99.2,27.5h3.7l-1.5-4.9
					c-0.1-0.2-0.1-0.4-0.1-0.5s-0.1-0.3-0.1-0.5H101c0,0.2-0.1,0.4-0.1,0.5s-0.1,0.3-0.1,0.5L99.2,27.5z"/>
				<path class="st5" d="M119.1,32.9H116v-5.6c0-0.8-0.1-1.4-0.4-1.7s-0.7-0.6-1.2-0.6c-0.5,0-1,0.2-1.3,0.6s-0.5,0.9-0.5,1.6v5.7
					h-3.1v-10h3.1v1.6h0c0.4-0.6,0.8-1.1,1.4-1.4s1.2-0.5,1.9-0.5c1.1,0,1.9,0.3,2.5,1s0.8,1.7,0.8,3.1V32.9z"/>
				<path class="st5" d="M123.1,21.6c-0.5,0-1-0.2-1.3-0.5s-0.5-0.7-0.5-1.2c0-0.5,0.2-0.9,0.5-1.2s0.8-0.5,1.3-0.5
					c0.5,0,1,0.2,1.3,0.5s0.5,0.7,0.5,1.2c0,0.5-0.2,0.9-0.5,1.2S123.6,21.6,123.1,21.6z M124.6,32.9h-3.1v-10h3.1V32.9z"/>
				<path class="st5" d="M143.1,32.9H140v-5.7c0-0.7-0.1-1.3-0.4-1.6s-0.7-0.5-1.2-0.5c-0.5,0-0.9,0.2-1.2,0.7s-0.5,1-0.5,1.6v5.6
					h-3.1v-5.8c0-0.7-0.1-1.2-0.4-1.6S132.6,25,132,25s-0.9,0.2-1.3,0.6s-0.5,1-0.5,1.7v5.6h-3.1v-10h3.1v1.6h0
					c0.3-0.5,0.8-1,1.3-1.3s1.2-0.5,1.9-0.5c0.7,0,1.3,0.2,1.8,0.5s0.9,0.8,1.1,1.4c0.4-0.6,0.9-1.1,1.4-1.4s1.2-0.5,1.9-0.5
					c1.1,0,1.9,0.3,2.4,1s0.8,1.7,0.8,3V32.9z"/>
				<path class="st5" d="M154.5,28.8H148c0.1,0.7,0.3,1.3,0.7,1.6s1,0.5,1.8,0.5c0.3,0,0.7-0.1,1.2-0.3s1-0.4,1.5-0.8l1.4,1.7
					c-0.7,0.5-1.4,0.9-2.1,1.2s-1.5,0.4-2.4,0.4c-1.6,0-2.9-0.4-3.8-1.3s-1.3-2.1-1.3-3.7c0-1.6,0.5-2.9,1.4-3.9s2.1-1.5,3.6-1.5
					c1.4,0,2.5,0.4,3.3,1.3s1.2,2.1,1.2,3.6V28.8z M151.6,26.9c0-0.8-0.1-1.3-0.4-1.7s-0.7-0.5-1.3-0.5c-0.5,0-0.9,0.2-1.3,0.6
					s-0.6,0.9-0.7,1.6H151.6z"/>
				<path class="st5" d="M155.3,32.1l1.3-2.1c0.3,0.3,0.7,0.5,1.2,0.7s1,0.3,1.5,0.3c0.4,0,0.7-0.1,1-0.2s0.4-0.4,0.4-0.6
					c0-0.2-0.1-0.4-0.3-0.5s-0.6-0.3-1.1-0.4c-1.2-0.3-2.1-0.6-2.7-1.1s-0.8-1.2-0.8-2c0-1,0.4-1.8,1.2-2.4s1.8-0.9,3-0.9
					c0.6,0,1.2,0.1,1.7,0.2s1.1,0.4,1.5,0.7l-1.2,2c-0.4-0.3-0.8-0.4-1.1-0.6s-0.7-0.2-1.1-0.2c-0.4,0-0.7,0.1-1,0.2
					s-0.4,0.3-0.4,0.6c0,0.3,0.1,0.5,0.4,0.6s0.7,0.2,1.3,0.4c1.2,0.2,2,0.6,2.5,1.1s0.7,1.2,0.7,2c0,1-0.4,1.8-1.2,2.5
					s-1.8,0.9-3.1,0.9c-0.7,0-1.4-0.1-2-0.3S156,32.4,155.3,32.1z"/>
			</g>
		</g>
	</g>
	<g>
		<g>
			<path class="st5" d="M28.9,59.5c0,1.2-0.3,2-0.8,2.6S26.8,63,25.7,63c-1,0-1.8-0.3-2.3-0.8s-0.8-1.4-0.8-2.5v-5.2h0.9v5.1
				c0,0.9,0.2,1.5,0.6,2s0.9,0.7,1.7,0.7c0.7,0,1.2-0.2,1.6-0.6s0.5-1.1,0.5-1.9v-5.2h0.9V59.5z"/>
			<path class="st5" d="M39.5,62.9h-0.9v-3.6c0-0.7-0.1-1.2-0.3-1.5s-0.6-0.5-1.1-0.5c-0.4,0-0.8,0.2-1.1,0.6s-0.5,0.9-0.5,1.4v3.5
				h-0.9v-3.7c0-0.6-0.1-1.1-0.4-1.4s-0.6-0.5-1.1-0.5c-0.5,0-0.8,0.2-1.1,0.6s-0.4,0.9-0.4,1.5v3.5h-0.9v-6.1h0.9v1h0
				c0.2-0.4,0.5-0.7,0.8-0.9s0.7-0.3,1.1-0.3c0.4,0,0.8,0.1,1.1,0.4s0.5,0.6,0.6,0.9c0.2-0.4,0.5-0.8,0.8-1s0.7-0.3,1.2-0.3
				c0.7,0,1.2,0.2,1.5,0.6s0.5,1,0.5,1.9V62.9z"/>
			<path class="st5" d="M45.8,62.9h-0.9v-1h0c-0.2,0.4-0.5,0.7-0.8,0.9S43.4,63,43,63c-0.6,0-1-0.2-1.4-0.5S41,61.8,41,61.2
				c0-0.5,0.2-1,0.5-1.3s0.9-0.6,1.6-0.7l1.8-0.2v-0.2c0-0.5-0.1-0.9-0.4-1.2s-0.6-0.4-1-0.4c-0.3,0-0.7,0.1-1,0.2s-0.6,0.3-0.9,0.6
				l-0.5-0.5c0.3-0.3,0.7-0.6,1.1-0.7s0.8-0.2,1.3-0.2c0.7,0,1.3,0.2,1.6,0.6s0.6,1,0.6,1.7V62.9z M44.9,60.3v-0.6l-1.5,0.2
				c-0.5,0.1-0.9,0.2-1.1,0.4s-0.4,0.5-0.4,0.8c0,0.4,0.1,0.6,0.3,0.8s0.5,0.3,0.9,0.3c0.5,0,1-0.2,1.3-0.6S44.9,60.9,44.9,60.3z"/>
			<path class="st5" d="M53.8,54.7c-0.1,0-0.2-0.1-0.3-0.1s-0.2,0-0.3,0c-0.3,0-0.6,0.1-0.8,0.3s-0.2,0.5-0.2,0.8v1h1.5v0.7h-1.5
				v5.4h-0.9v-5.4h-1v-0.7h1v-1c0-0.6,0.2-1,0.5-1.3s0.8-0.5,1.4-0.5c0.1,0,0.3,0,0.4,0s0.2,0,0.4,0.1L53.8,54.7z"/>
			<path class="st5" d="M59.7,60h-4.4c0,0.8,0.2,1.3,0.6,1.7s0.9,0.6,1.5,0.6c0.3,0,0.6,0,0.9-0.1s0.6-0.2,0.9-0.4l0.4,0.6
				c-0.3,0.2-0.7,0.4-1.1,0.5S57.7,63,57.3,63c-0.9,0-1.6-0.3-2.1-0.8s-0.8-1.3-0.8-2.4c0-1,0.3-1.8,0.8-2.4s1.2-0.9,2-0.9
				c0.8,0,1.4,0.3,1.8,0.8s0.7,1.3,0.7,2.2V60z M58.8,59.2c0-0.6-0.2-1.1-0.4-1.4s-0.7-0.5-1.2-0.5c-0.5,0-0.9,0.2-1.3,0.5
				s-0.5,0.8-0.6,1.4H58.8z"/>
			<path class="st5" d="M64.3,57.5c-0.1,0-0.2,0-0.2-0.1s-0.2,0-0.3,0c-0.5,0-0.9,0.2-1.2,0.7s-0.4,1-0.4,1.7v3h-0.9v-6.1h0.9V58h0
				c0.1-0.4,0.4-0.8,0.7-1s0.6-0.4,1-0.4c0.1,0,0.2,0,0.3,0s0.2,0,0.3,0.1L64.3,57.5z"/>
			<path class="st5" d="M68.6,57.5c-0.1,0-0.2,0-0.2-0.1s-0.2,0-0.3,0c-0.5,0-0.9,0.2-1.2,0.7s-0.4,1-0.4,1.7v3h-0.9v-6.1h0.9V58h0
				c0.1-0.4,0.4-0.8,0.7-1s0.6-0.4,1-0.4c0.1,0,0.2,0,0.3,0s0.2,0,0.3,0.1L68.6,57.5z"/>
			<path class="st5" d="M74.3,62.9h-0.9v-1h0c-0.2,0.4-0.5,0.7-0.8,0.9S71.8,63,71.4,63c-0.6,0-1-0.2-1.4-0.5s-0.5-0.8-0.5-1.3
				c0-0.5,0.2-1,0.5-1.3s0.9-0.6,1.6-0.7l1.8-0.2v-0.2c0-0.5-0.1-0.9-0.4-1.2s-0.6-0.4-1-0.4c-0.3,0-0.7,0.1-1,0.2s-0.6,0.3-0.9,0.6
				l-0.5-0.5c0.3-0.3,0.7-0.6,1.1-0.7s0.8-0.2,1.3-0.2c0.7,0,1.3,0.2,1.6,0.6s0.6,1,0.6,1.7V62.9z M73.4,60.3v-0.6l-1.5,0.2
				c-0.5,0.1-0.9,0.2-1.1,0.4s-0.4,0.5-0.4,0.8c0,0.4,0.1,0.6,0.3,0.8s0.5,0.3,0.9,0.3c0.5,0,1-0.2,1.3-0.6S73.4,60.9,73.4,60.3z"/>
			<path class="st5" d="M84.8,62.9h-0.9v-3.6c0-0.7-0.1-1.2-0.3-1.5s-0.6-0.5-1.1-0.5c-0.4,0-0.8,0.2-1.1,0.6s-0.5,0.9-0.5,1.4v3.5
				h-0.9v-3.7c0-0.6-0.1-1.1-0.4-1.4s-0.6-0.5-1.1-0.5c-0.5,0-0.8,0.2-1.1,0.6s-0.4,0.9-0.4,1.5v3.5h-0.9v-6.1h0.9v1h0
				c0.2-0.4,0.5-0.7,0.8-0.9s0.7-0.3,1.1-0.3c0.4,0,0.8,0.1,1.1,0.4s0.5,0.6,0.6,0.9c0.2-0.4,0.5-0.8,0.8-1s0.7-0.3,1.2-0.3
				c0.7,0,1.2,0.2,1.5,0.6s0.5,1,0.5,1.9V62.9z"/>
			<path class="st5" d="M91.6,60h-4.4c0,0.8,0.2,1.3,0.6,1.7s0.9,0.6,1.5,0.6c0.3,0,0.6,0,0.9-0.1s0.6-0.2,0.9-0.4l0.4,0.6
				c-0.3,0.2-0.7,0.4-1.1,0.5S89.6,63,89.2,63c-0.9,0-1.6-0.3-2.1-0.8s-0.8-1.3-0.8-2.4c0-1,0.3-1.8,0.8-2.4s1.2-0.9,2-0.9
				c0.8,0,1.4,0.3,1.8,0.8s0.7,1.3,0.7,2.2V60z M90.7,59.2c0-0.6-0.2-1.1-0.4-1.4s-0.7-0.5-1.2-0.5c-0.5,0-0.9,0.2-1.3,0.5
				s-0.5,0.8-0.6,1.4H90.7z"/>
			<path class="st5" d="M98.2,62.9h-0.9v-3.5c0-0.7-0.1-1.2-0.4-1.5s-0.6-0.5-1.1-0.5c-0.5,0-0.9,0.2-1.3,0.6s-0.5,0.9-0.5,1.5v3.5
				h-0.9v-6.1h0.9v1h0c0.2-0.4,0.5-0.7,0.8-0.9s0.7-0.3,1.2-0.3c0.7,0,1.2,0.2,1.5,0.7s0.5,1.1,0.5,1.9V62.9z"/>
			<path class="st5" d="M102.9,62.8c-0.2,0.1-0.3,0.1-0.5,0.2s-0.3,0.1-0.5,0.1c-0.5,0-0.8-0.1-1.1-0.4s-0.4-0.7-0.4-1.2v-3.9h-1.1
				v-0.7h1.1v-1.4l0.9-0.3v1.7h1.6v0.7h-1.6v3.8c0,0.4,0.1,0.6,0.2,0.8s0.3,0.2,0.6,0.2c0.1,0,0.2,0,0.4,0s0.2-0.1,0.3-0.1
				L102.9,62.8z"/>
			<path class="st5" d="M108.6,62.9h-0.9v-1h0c-0.2,0.4-0.5,0.7-0.8,0.9s-0.7,0.3-1.1,0.3c-0.6,0-1-0.2-1.4-0.5s-0.5-0.8-0.5-1.3
				c0-0.5,0.2-1,0.5-1.3s0.9-0.6,1.6-0.7l1.8-0.2v-0.2c0-0.5-0.1-0.9-0.4-1.2s-0.6-0.4-1-0.4c-0.3,0-0.7,0.1-1,0.2s-0.6,0.3-0.9,0.6
				l-0.5-0.5c0.3-0.3,0.7-0.6,1.1-0.7s0.8-0.2,1.3-0.2c0.7,0,1.3,0.2,1.6,0.6s0.6,1,0.6,1.7V62.9z M107.7,60.3v-0.6l-1.5,0.2
				c-0.5,0.1-0.9,0.2-1.1,0.4s-0.4,0.5-0.4,0.8c0,0.4,0.1,0.6,0.3,0.8s0.5,0.3,0.9,0.3c0.5,0,1-0.2,1.3-0.6S107.7,60.9,107.7,60.3z"
				/>
			<path class="st5" d="M119.2,65.6h-0.9v-3.8h0c-0.2,0.4-0.5,0.7-0.9,0.9s-0.8,0.3-1.3,0.3c-0.8,0-1.4-0.3-1.9-0.8
				s-0.7-1.3-0.7-2.3c0-1,0.3-1.8,0.8-2.4s1.2-0.9,2.1-0.9c0.4,0,0.8,0.1,1.1,0.3s0.6,0.4,0.8,0.8h0v-0.9h0.9V65.6z M118.3,60.1
				v-0.9c0-0.5-0.2-1-0.5-1.3s-0.8-0.5-1.3-0.5c-0.6,0-1.1,0.2-1.5,0.7s-0.6,1.1-0.6,1.9c0,0.7,0.2,1.3,0.5,1.7s0.8,0.6,1.3,0.6
				c0.6,0,1.1-0.2,1.4-0.6S118.3,60.8,118.3,60.1z"/>
			<path class="st5" d="M125.9,62.9H125v-1h0c-0.2,0.4-0.5,0.7-0.8,0.9s-0.7,0.3-1.1,0.3c-0.7,0-1.3-0.2-1.6-0.7s-0.5-1.1-0.5-2
				v-3.6h0.9v3.5c0,0.7,0.1,1.2,0.4,1.6s0.6,0.5,1.2,0.5c0.5,0,0.9-0.2,1.2-0.6s0.5-0.9,0.5-1.5v-3.5h0.9V62.9z"/>
			<path class="st5" d="M132.9,60h-4.4c0,0.8,0.2,1.3,0.6,1.7s0.9,0.6,1.5,0.6c0.3,0,0.6,0,0.9-0.1s0.6-0.2,0.9-0.4l0.4,0.6
				c-0.3,0.2-0.7,0.4-1.1,0.5s-0.7,0.2-1.2,0.2c-0.9,0-1.6-0.3-2.1-0.8s-0.8-1.3-0.8-2.4c0-1,0.3-1.8,0.8-2.4s1.2-0.9,2-0.9
				c0.8,0,1.4,0.3,1.8,0.8s0.7,1.3,0.7,2.2V60z M132,59.2c0-0.6-0.2-1.1-0.4-1.4s-0.7-0.5-1.2-0.5c-0.5,0-0.9,0.2-1.3,0.5
				s-0.5,0.8-0.6,1.4H132z"/>
			<path class="st5" d="M137.2,62.4l0.4-0.7c0.2,0.2,0.5,0.3,0.7,0.4s0.5,0.1,0.8,0.1c0.4,0,0.8-0.1,1-0.3s0.3-0.4,0.3-0.8
				c0-0.3-0.1-0.5-0.3-0.7s-0.5-0.3-1-0.5c-0.7-0.2-1.2-0.4-1.5-0.7s-0.4-0.7-0.4-1.1c0-0.5,0.2-0.9,0.6-1.3s0.9-0.5,1.5-0.5
				c0.3,0,0.6,0,0.9,0.1s0.6,0.2,0.9,0.4l-0.4,0.7c-0.2-0.2-0.5-0.3-0.7-0.3s-0.5-0.1-0.7-0.1c-0.4,0-0.7,0.1-0.9,0.2
				s-0.3,0.4-0.3,0.7c0,0.3,0.1,0.5,0.3,0.6s0.5,0.3,1,0.4c0.6,0.2,1.1,0.4,1.4,0.7s0.5,0.7,0.5,1.2c0,0.6-0.2,1-0.6,1.3
				s-0.9,0.5-1.6,0.5c-0.4,0-0.7-0.1-1.1-0.2S137.5,62.6,137.2,62.4z"/>
			<path class="st5" d="M143.3,55.4c-0.2,0-0.3-0.1-0.5-0.2s-0.2-0.3-0.2-0.4c0-0.2,0.1-0.3,0.2-0.4s0.3-0.2,0.5-0.2
				c0.2,0,0.3,0.1,0.5,0.2s0.2,0.3,0.2,0.4c0,0.2-0.1,0.3-0.2,0.4S143.5,55.4,143.3,55.4z M143.8,62.9h-0.9v-6.1h0.9V62.9z"/>
			<path class="st5" d="M154.5,62.9h-0.9v-3.6c0-0.7-0.1-1.2-0.3-1.5s-0.6-0.5-1.1-0.5c-0.4,0-0.8,0.2-1.1,0.6s-0.5,0.9-0.5,1.4v3.5
				h-0.9v-3.7c0-0.6-0.1-1.1-0.4-1.4s-0.6-0.5-1.1-0.5c-0.5,0-0.8,0.2-1.1,0.6s-0.4,0.9-0.4,1.5v3.5h-0.9v-6.1h0.9v1h0
				c0.2-0.4,0.5-0.7,0.8-0.9s0.7-0.3,1.1-0.3c0.4,0,0.8,0.1,1.1,0.4s0.5,0.6,0.6,0.9c0.2-0.4,0.5-0.8,0.8-1s0.7-0.3,1.2-0.3
				c0.7,0,1.2,0.2,1.5,0.6s0.5,1,0.5,1.9V62.9z"/>
			<path class="st5" d="M157.3,61.9L157.3,61.9l0,3.7h-0.9v-8.9h0.9v1.1h0c0.2-0.4,0.5-0.7,0.9-1s0.8-0.3,1.3-0.3
				c0.8,0,1.4,0.3,1.8,0.8s0.7,1.3,0.7,2.2c0,1-0.3,1.8-0.8,2.5s-1.2,0.9-2,0.9c-0.4,0-0.8-0.1-1.1-0.3S157.5,62.3,157.3,61.9z
				 M157.3,59.5v0.8c0,0.5,0.2,1,0.5,1.4s0.8,0.6,1.3,0.6c0.6,0,1.1-0.2,1.4-0.7s0.5-1.1,0.5-2c0-0.7-0.2-1.3-0.5-1.7
				s-0.8-0.6-1.3-0.6c-0.6,0-1.1,0.2-1.5,0.6S157.3,58.9,157.3,59.5z"/>
			<path class="st5" d="M163.6,62.9V54h0.9v8.9H163.6z"/>
			<path class="st5" d="M167,55.4c-0.2,0-0.3-0.1-0.5-0.2s-0.2-0.3-0.2-0.4c0-0.2,0.1-0.3,0.2-0.4s0.3-0.2,0.5-0.2
				c0.2,0,0.3,0.1,0.5,0.2s0.2,0.3,0.2,0.4c0,0.2-0.1,0.3-0.2,0.4S167.2,55.4,167,55.4z M167.4,62.9h-0.9v-6.1h0.9V62.9z"/>
			<path class="st5" d="M172.3,54.7c-0.1,0-0.2-0.1-0.3-0.1s-0.2,0-0.3,0c-0.3,0-0.6,0.1-0.8,0.3s-0.2,0.5-0.2,0.8v1h1.5v0.7h-1.5
				v5.4h-0.9v-5.4h-1v-0.7h1v-1c0-0.6,0.2-1,0.5-1.3s0.8-0.5,1.4-0.5c0.1,0,0.3,0,0.4,0s0.2,0,0.4,0.1L172.3,54.7z"/>
			<path class="st5" d="M173.8,55.4c-0.2,0-0.3-0.1-0.5-0.2s-0.2-0.3-0.2-0.4c0-0.2,0.1-0.3,0.2-0.4s0.3-0.2,0.5-0.2
				c0.2,0,0.3,0.1,0.5,0.2s0.2,0.3,0.2,0.4c0,0.2-0.1,0.3-0.2,0.4S174,55.4,173.8,55.4z M174.2,62.9h-0.9v-6.1h0.9V62.9z"/>
			<path class="st5" d="M180.6,62.5c-0.3,0.2-0.6,0.3-0.9,0.4s-0.6,0.1-0.9,0.1c-0.9,0-1.6-0.3-2.1-0.8s-0.8-1.3-0.8-2.3
				c0-1,0.3-1.8,0.8-2.4s1.3-0.9,2.3-0.9c0.3,0,0.6,0,0.8,0.1s0.5,0.2,0.8,0.3l-0.4,0.7c-0.2-0.1-0.4-0.2-0.7-0.3s-0.4-0.1-0.7-0.1
				c-0.7,0-1.2,0.2-1.6,0.7s-0.6,1.1-0.6,1.8c0,0.8,0.2,1.4,0.6,1.8s0.9,0.6,1.5,0.6c0.2,0,0.4,0,0.7-0.1s0.4-0.2,0.7-0.3
				L180.6,62.5z"/>
			<path class="st5" d="M186.4,62.9h-0.9v-1h0c-0.2,0.4-0.5,0.7-0.8,0.9S184,63,183.6,63c-0.6,0-1-0.2-1.4-0.5s-0.5-0.8-0.5-1.3
				c0-0.5,0.2-1,0.5-1.3s0.9-0.6,1.6-0.7l1.8-0.2v-0.2c0-0.5-0.1-0.9-0.4-1.2s-0.6-0.4-1-0.4c-0.3,0-0.7,0.1-1,0.2s-0.6,0.3-0.9,0.6
				l-0.5-0.5c0.3-0.3,0.7-0.6,1.1-0.7s0.8-0.2,1.3-0.2c0.7,0,1.3,0.2,1.6,0.6s0.6,1,0.6,1.7V62.9z M185.6,60.3v-0.6l-1.5,0.2
				c-0.5,0.1-0.9,0.2-1.1,0.4s-0.4,0.5-0.4,0.8c0,0.4,0.1,0.6,0.3,0.8s0.5,0.3,0.9,0.3c0.5,0,1-0.2,1.3-0.6S185.6,60.9,185.6,60.3z"
				/>
			<path class="st5" d="M194.2,63c-0.9,0-1.6-0.3-2.2-0.9s-0.8-1.3-0.8-2.3c0-1,0.3-1.8,0.8-2.4s1.3-0.9,2.3-0.9
				c0.9,0,1.6,0.3,2.1,0.9s0.8,1.4,0.8,2.4c0,1-0.3,1.8-0.8,2.3S195.1,63,194.2,63z M194.3,62.3c0.7,0,1.2-0.2,1.5-0.6
				s0.5-1,0.5-1.8c0-0.8-0.2-1.4-0.5-1.8s-0.9-0.6-1.5-0.6c-0.7,0-1.2,0.2-1.6,0.7s-0.6,1.1-0.6,1.8c0,0.8,0.2,1.3,0.6,1.8
				S193.6,62.3,194.3,62.3z"/>
			<path class="st5" d="M207.3,62.4c0,1.1-0.3,1.9-0.8,2.4s-1.3,0.8-2.3,0.8c-0.4,0-0.8,0-1.1-0.1s-0.7-0.2-1.1-0.4l0.3-0.7
				c0.3,0.2,0.6,0.3,0.9,0.3s0.6,0.1,1,0.1c0.7,0,1.2-0.2,1.6-0.6s0.6-1,0.6-1.8v-0.8h0c-0.2,0.4-0.5,0.7-0.9,0.9s-0.8,0.3-1.3,0.3
				c-0.8,0-1.4-0.3-1.8-0.8s-0.7-1.3-0.7-2.2c0-1,0.3-1.8,0.8-2.4s1.2-0.9,2-0.9c0.4,0,0.8,0.1,1.1,0.3s0.6,0.4,0.8,0.8h0v-0.9h0.9
				V62.4z M206.5,60.2v-1c0-0.5-0.2-0.9-0.5-1.3s-0.8-0.5-1.3-0.5c-0.6,0-1.1,0.2-1.5,0.7s-0.5,1.1-0.5,1.9c0,0.8,0.2,1.4,0.5,1.8
				s0.8,0.6,1.4,0.6c0.6,0,1-0.2,1.4-0.6S206.5,60.8,206.5,60.2z"/>
			<path class="st5" d="M214.3,60h-4.4c0,0.8,0.2,1.3,0.6,1.7s0.9,0.6,1.5,0.6c0.3,0,0.6,0,0.9-0.1s0.6-0.2,0.9-0.4l0.4,0.6
				c-0.3,0.2-0.7,0.4-1.1,0.5s-0.7,0.2-1.2,0.2c-0.9,0-1.6-0.3-2.1-0.8s-0.8-1.3-0.8-2.4c0-1,0.3-1.8,0.8-2.4s1.2-0.9,2-0.9
				c0.8,0,1.4,0.3,1.8,0.8s0.7,1.3,0.7,2.2V60z M213.4,59.2c0-0.6-0.2-1.1-0.4-1.4s-0.7-0.5-1.2-0.5c-0.5,0-0.9,0.2-1.3,0.5
				s-0.5,0.8-0.6,1.4H213.4z"/>
			<path class="st5" d="M218.8,57.5c-0.1,0-0.2,0-0.2-0.1s-0.2,0-0.3,0c-0.5,0-0.9,0.2-1.2,0.7s-0.4,1-0.4,1.7v3h-0.9v-6.1h0.9V58h0
				c0.1-0.4,0.4-0.8,0.7-1s0.6-0.4,1-0.4c0.1,0,0.2,0,0.3,0s0.2,0,0.3,0.1L218.8,57.5z"/>
			<path class="st5" d="M225,60h-4.4c0,0.8,0.2,1.3,0.6,1.7s0.9,0.6,1.5,0.6c0.3,0,0.6,0,0.9-0.1s0.6-0.2,0.9-0.4l0.4,0.6
				c-0.3,0.2-0.7,0.4-1.1,0.5S223,63,222.6,63c-0.9,0-1.6-0.3-2.1-0.8s-0.8-1.3-0.8-2.4c0-1,0.3-1.8,0.8-2.4s1.2-0.9,2-0.9
				c0.8,0,1.4,0.3,1.8,0.8s0.7,1.3,0.7,2.2V60z M224.1,59.2c0-0.6-0.2-1.1-0.4-1.4s-0.7-0.5-1.2-0.5c-0.5,0-0.9,0.2-1.3,0.5
				s-0.5,0.8-0.6,1.4H224.1z"/>
			<path class="st5" d="M231.6,62.9h-0.9v-3.5c0-0.7-0.1-1.2-0.4-1.5s-0.6-0.5-1.1-0.5c-0.5,0-0.9,0.2-1.3,0.6s-0.5,0.9-0.5,1.5v3.5
				h-0.9v-6.1h0.9v1h0c0.2-0.4,0.5-0.7,0.8-0.9s0.7-0.3,1.2-0.3c0.7,0,1.2,0.2,1.5,0.7s0.5,1.1,0.5,1.9V62.9z"/>
			<path class="st5" d="M237.8,62.5c-0.3,0.2-0.6,0.3-0.9,0.4S236.4,63,236,63c-0.9,0-1.6-0.3-2.1-0.8s-0.8-1.3-0.8-2.3
				c0-1,0.3-1.8,0.8-2.4s1.3-0.9,2.3-0.9c0.3,0,0.6,0,0.8,0.1s0.5,0.2,0.8,0.3l-0.4,0.7c-0.2-0.1-0.4-0.2-0.7-0.3s-0.4-0.1-0.7-0.1
				c-0.7,0-1.2,0.2-1.6,0.7s-0.6,1.1-0.6,1.8c0,0.8,0.2,1.4,0.6,1.8s0.9,0.6,1.5,0.6c0.2,0,0.4,0,0.7-0.1s0.4-0.2,0.7-0.3
				L237.8,62.5z"/>
			<path class="st5" d="M239.7,55.4c-0.2,0-0.3-0.1-0.5-0.2s-0.2-0.3-0.2-0.4c0-0.2,0.1-0.3,0.2-0.4s0.3-0.2,0.5-0.2
				c0.2,0,0.3,0.1,0.5,0.2s0.2,0.3,0.2,0.4c0,0.2-0.1,0.3-0.2,0.4S239.9,55.4,239.7,55.4z M240.2,62.9h-0.9v-6.1h0.9V62.9z"/>
			<path class="st5" d="M246.6,62.9h-0.9v-1h0c-0.2,0.4-0.5,0.7-0.8,0.9s-0.7,0.3-1.1,0.3c-0.6,0-1-0.2-1.4-0.5s-0.5-0.8-0.5-1.3
				c0-0.5,0.2-1,0.5-1.3s0.9-0.6,1.6-0.7l1.8-0.2v-0.2c0-0.5-0.1-0.9-0.4-1.2s-0.6-0.4-1-0.4c-0.3,0-0.7,0.1-1,0.2s-0.6,0.3-0.9,0.6
				l-0.5-0.5c0.3-0.3,0.7-0.6,1.1-0.7s0.8-0.2,1.3-0.2c0.7,0,1.3,0.2,1.6,0.6s0.6,1,0.6,1.7V62.9z M245.7,60.3v-0.6l-1.5,0.2
				c-0.5,0.1-0.9,0.2-1.1,0.4s-0.4,0.5-0.4,0.8c0,0.4,0.1,0.6,0.3,0.8s0.5,0.3,0.9,0.3c0.5,0,1-0.2,1.3-0.6S245.7,60.9,245.7,60.3z"
				/>
			<path class="st5" d="M257.2,62.9h-0.9v-3.6c0-0.7-0.1-1.2-0.3-1.5s-0.6-0.5-1.1-0.5c-0.4,0-0.8,0.2-1.1,0.6s-0.5,0.9-0.5,1.4v3.5
				h-0.9v-3.7c0-0.6-0.1-1.1-0.4-1.4s-0.6-0.5-1.1-0.5c-0.5,0-0.8,0.2-1.1,0.6s-0.4,0.9-0.4,1.5v3.5h-0.9v-6.1h0.9v1h0
				c0.2-0.4,0.5-0.7,0.8-0.9s0.7-0.3,1.1-0.3c0.4,0,0.8,0.1,1.1,0.4s0.5,0.6,0.6,0.9c0.2-0.4,0.5-0.8,0.8-1s0.7-0.3,1.2-0.3
				c0.7,0,1.2,0.2,1.5,0.6s0.5,1,0.5,1.9V62.9z"/>
			<path class="st5" d="M264,60h-4.4c0,0.8,0.2,1.3,0.6,1.7s0.9,0.6,1.5,0.6c0.3,0,0.6,0,0.9-0.1s0.6-0.2,0.9-0.4l0.4,0.6
				c-0.3,0.2-0.7,0.4-1.1,0.5S262,63,261.6,63c-0.9,0-1.6-0.3-2.1-0.8s-0.8-1.3-0.8-2.4c0-1,0.3-1.8,0.8-2.4s1.2-0.9,2-0.9
				c0.8,0,1.4,0.3,1.8,0.8s0.7,1.3,0.7,2.2V60z M263.1,59.2c0-0.6-0.2-1.1-0.4-1.4s-0.7-0.5-1.2-0.5c-0.5,0-0.9,0.2-1.3,0.5
				s-0.5,0.8-0.6,1.4H263.1z"/>
			<path class="st5" d="M270.5,62.9h-0.9v-3.5c0-0.7-0.1-1.2-0.4-1.5s-0.6-0.5-1.1-0.5c-0.5,0-0.9,0.2-1.3,0.6s-0.5,0.9-0.5,1.5v3.5
				h-0.9v-6.1h0.9v1h0c0.2-0.4,0.5-0.7,0.8-0.9s0.7-0.3,1.2-0.3c0.7,0,1.2,0.2,1.5,0.7s0.5,1.1,0.5,1.9V62.9z"/>
			<path class="st5" d="M275.3,62.8c-0.2,0.1-0.3,0.1-0.5,0.2s-0.3,0.1-0.5,0.1c-0.5,0-0.8-0.1-1.1-0.4s-0.4-0.7-0.4-1.2v-3.9h-1.1
				v-0.7h1.1v-1.4l0.9-0.3v1.7h1.6v0.7h-1.6v3.8c0,0.4,0.1,0.6,0.2,0.8s0.3,0.2,0.6,0.2c0.1,0,0.2,0,0.4,0s0.2-0.1,0.3-0.1
				L275.3,62.8z"/>
			<path class="st5" d="M279.2,63c-0.9,0-1.6-0.3-2.2-0.9s-0.8-1.3-0.8-2.3c0-1,0.3-1.8,0.8-2.4s1.3-0.9,2.3-0.9
				c0.9,0,1.6,0.3,2.1,0.9s0.8,1.4,0.8,2.4c0,1-0.3,1.8-0.8,2.3S280.1,63,279.2,63z M279.2,62.3c0.7,0,1.2-0.2,1.5-0.6
				s0.5-1,0.5-1.8c0-0.8-0.2-1.4-0.5-1.8s-0.9-0.6-1.5-0.6c-0.7,0-1.2,0.2-1.6,0.7s-0.6,1.1-0.6,1.8c0,0.8,0.2,1.3,0.6,1.8
				S278.6,62.3,279.2,62.3z"/>
			<path class="st5" d="M27,76.2c-0.2,0.4-0.5,0.7-0.9,0.9s-0.8,0.3-1.3,0.3c-0.8,0-1.4-0.3-1.9-0.8s-0.7-1.3-0.7-2.3
				c0-1,0.3-1.8,0.8-2.4s1.2-0.9,2-0.9c0.4,0,0.8,0.1,1.1,0.3s0.6,0.4,0.8,0.8h0v-3.6h0.9v8.9H27L27,76.2L27,76.2z M23.2,74.3
				c0,0.8,0.2,1.3,0.5,1.8s0.8,0.6,1.4,0.6c0.6,0,1.1-0.2,1.4-0.6s0.5-0.9,0.5-1.5v-1c0-0.5-0.2-1-0.5-1.3s-0.8-0.5-1.3-0.5
				c-0.6,0-1.1,0.2-1.5,0.7S23.2,73.5,23.2,74.3z"/>
			<path class="st5" d="M34.8,74.4h-4.4c0,0.8,0.2,1.3,0.6,1.7s0.9,0.6,1.5,0.6c0.3,0,0.6,0,0.9-0.1s0.6-0.2,0.9-0.4l0.4,0.6
				c-0.3,0.2-0.7,0.4-1.1,0.5s-0.7,0.2-1.2,0.2c-0.9,0-1.6-0.3-2.1-0.8s-0.8-1.3-0.8-2.4c0-1,0.3-1.8,0.8-2.4s1.2-0.9,2-0.9
				c0.8,0,1.4,0.3,1.8,0.8s0.7,1.3,0.7,2.2V74.4z M33.9,73.6c0-0.6-0.2-1.1-0.4-1.4s-0.7-0.5-1.2-0.5c-0.5,0-0.9,0.2-1.3,0.5
				s-0.5,0.8-0.6,1.4H33.9z"/>
			<path class="st5" d="M44,77.3h-0.9v-1h0c-0.2,0.4-0.5,0.7-0.8,0.9s-0.7,0.3-1.1,0.3c-0.6,0-1-0.2-1.4-0.5s-0.5-0.8-0.5-1.3
				c0-0.5,0.2-1,0.5-1.3s0.9-0.6,1.6-0.7l1.8-0.2v-0.2c0-0.5-0.1-0.9-0.4-1.2s-0.6-0.4-1-0.4c-0.3,0-0.7,0.1-1,0.2s-0.6,0.3-0.9,0.6
				l-0.5-0.5c0.3-0.3,0.7-0.6,1.1-0.7s0.8-0.2,1.3-0.2c0.7,0,1.3,0.2,1.6,0.6s0.6,1,0.6,1.7V77.3z M43.1,74.7v-0.6l-1.5,0.2
				c-0.5,0.1-0.9,0.2-1.1,0.4s-0.4,0.5-0.4,0.8c0,0.4,0.1,0.6,0.3,0.8s0.5,0.3,0.9,0.3c0.5,0,1-0.2,1.3-0.6S43.1,75.3,43.1,74.7z"/>
			<path class="st5" d="M50.9,77.3H50v-3.5c0-0.7-0.1-1.2-0.4-1.5s-0.6-0.5-1.1-0.5c-0.5,0-0.9,0.2-1.3,0.6s-0.5,0.9-0.5,1.5v3.5
				h-0.9v-6.1h0.9v1h0c0.2-0.4,0.5-0.7,0.8-0.9s0.7-0.3,1.2-0.3c0.7,0,1.2,0.2,1.5,0.7s0.5,1.1,0.5,1.9V77.3z"/>
			<path class="st5" d="M53.3,69.8c-0.2,0-0.3-0.1-0.5-0.2s-0.2-0.3-0.2-0.4c0-0.2,0.1-0.3,0.2-0.4s0.3-0.2,0.5-0.2
				c0.2,0,0.3,0.1,0.5,0.2s0.2,0.3,0.2,0.4c0,0.2-0.1,0.3-0.2,0.4S53.5,69.8,53.3,69.8z M53.7,77.3h-0.9v-6.1h0.9V77.3z"/>
			<path class="st5" d="M64.5,77.3h-0.9v-3.6c0-0.7-0.1-1.2-0.3-1.5s-0.6-0.5-1.1-0.5c-0.4,0-0.8,0.2-1.1,0.6s-0.5,0.9-0.5,1.4v3.5
				h-0.9v-3.7c0-0.6-0.1-1.1-0.4-1.4s-0.6-0.5-1.1-0.5c-0.5,0-0.8,0.2-1.1,0.6s-0.4,0.9-0.4,1.5v3.5h-0.9v-6.1h0.9v1h0
				c0.2-0.4,0.5-0.7,0.8-0.9s0.7-0.3,1.1-0.3c0.4,0,0.8,0.1,1.1,0.4s0.5,0.6,0.6,0.9c0.2-0.4,0.5-0.8,0.8-1S62,71,62.4,71
				c0.7,0,1.2,0.2,1.5,0.6s0.5,1,0.5,1.9V77.3z"/>
			<path class="st5" d="M71.3,74.4h-4.4c0,0.8,0.2,1.3,0.6,1.7s0.9,0.6,1.5,0.6c0.3,0,0.6,0,0.9-0.1s0.6-0.2,0.9-0.4l0.4,0.6
				c-0.3,0.2-0.7,0.4-1.1,0.5s-0.7,0.2-1.2,0.2c-0.9,0-1.6-0.3-2.1-0.8S66,75.3,66,74.2c0-1,0.3-1.8,0.8-2.4s1.2-0.9,2-0.9
				c0.8,0,1.4,0.3,1.8,0.8s0.7,1.3,0.7,2.2V74.4z M70.4,73.6c0-0.6-0.2-1.1-0.4-1.4s-0.7-0.5-1.2-0.5c-0.5,0-0.9,0.2-1.3,0.5
				s-0.5,0.8-0.6,1.4H70.4z"/>
			<path class="st5" d="M72.3,76.8l0.4-0.7c0.2,0.2,0.5,0.3,0.7,0.4s0.5,0.1,0.8,0.1c0.4,0,0.8-0.1,1-0.3s0.3-0.4,0.3-0.8
				c0-0.3-0.1-0.5-0.3-0.7s-0.5-0.3-1-0.5c-0.7-0.2-1.2-0.4-1.5-0.7s-0.4-0.7-0.4-1.1c0-0.5,0.2-0.9,0.6-1.3s0.9-0.5,1.5-0.5
				c0.3,0,0.6,0,0.9,0.1s0.6,0.2,0.9,0.4l-0.4,0.7c-0.2-0.2-0.5-0.3-0.7-0.3s-0.5-0.1-0.7-0.1c-0.4,0-0.7,0.1-0.9,0.2
				s-0.3,0.4-0.3,0.7c0,0.3,0.1,0.5,0.3,0.6s0.5,0.3,1,0.4c0.6,0.2,1.1,0.4,1.4,0.7s0.5,0.7,0.5,1.2c0,0.6-0.2,1-0.6,1.3
				s-0.9,0.5-1.6,0.5c-0.4,0-0.7-0.1-1.1-0.2S72.6,77,72.3,76.8z"/>
			<path class="st5" d="M78.9,75.9l-0.9,2.9h-0.7l0.7-2.9H78.9z"/>
			<path class="st5" d="M88.4,76.9c-0.3,0.2-0.6,0.3-0.9,0.4s-0.6,0.1-0.9,0.1c-0.9,0-1.6-0.3-2.1-0.8s-0.8-1.3-0.8-2.3
				c0-1,0.3-1.8,0.8-2.4s1.3-0.9,2.3-0.9c0.3,0,0.6,0,0.8,0.1s0.5,0.2,0.8,0.3l-0.4,0.7c-0.2-0.1-0.4-0.2-0.7-0.3s-0.4-0.1-0.7-0.1
				c-0.7,0-1.2,0.2-1.6,0.7s-0.6,1.1-0.6,1.8c0,0.8,0.2,1.4,0.6,1.8s0.9,0.6,1.5,0.6c0.2,0,0.4,0,0.7-0.1s0.4-0.2,0.7-0.3L88.4,76.9
				z"/>
			<path class="st5" d="M94.2,77.3h-0.9v-1h0c-0.2,0.4-0.5,0.7-0.8,0.9s-0.7,0.3-1.1,0.3c-0.6,0-1-0.2-1.4-0.5s-0.5-0.8-0.5-1.3
				c0-0.5,0.2-1,0.5-1.3s0.9-0.6,1.6-0.7l1.8-0.2v-0.2c0-0.5-0.1-0.9-0.4-1.2s-0.6-0.4-1-0.4c-0.3,0-0.7,0.1-1,0.2s-0.6,0.3-0.9,0.6
				l-0.5-0.5c0.3-0.3,0.7-0.6,1.1-0.7S91.5,71,92,71c0.7,0,1.3,0.2,1.6,0.6s0.6,1,0.6,1.7V77.3z M93.3,74.7v-0.6l-1.5,0.2
				c-0.5,0.1-0.9,0.2-1.1,0.4s-0.4,0.5-0.4,0.8c0,0.4,0.1,0.6,0.3,0.8s0.5,0.3,0.9,0.3c0.5,0,1-0.2,1.3-0.6S93.3,75.3,93.3,74.7z"/>
			<path class="st5" d="M96.1,77.3v-8.9H97v8.9H96.1z"/>
			<path class="st5" d="M103.3,76.9c-0.3,0.2-0.6,0.3-0.9,0.4s-0.6,0.1-0.9,0.1c-0.9,0-1.6-0.3-2.1-0.8s-0.8-1.3-0.8-2.3
				c0-1,0.3-1.8,0.8-2.4s1.3-0.9,2.3-0.9c0.3,0,0.6,0,0.8,0.1s0.5,0.2,0.8,0.3l-0.4,0.7c-0.2-0.1-0.4-0.2-0.7-0.3s-0.4-0.1-0.7-0.1
				c-0.7,0-1.2,0.2-1.6,0.7s-0.6,1.1-0.6,1.8c0,0.8,0.2,1.4,0.6,1.8s0.9,0.6,1.5,0.6c0.2,0,0.4,0,0.7-0.1s0.4-0.2,0.7-0.3
				L103.3,76.9z"/>
			<path class="st5" d="M109.6,77.3h-0.9v-1h0c-0.2,0.4-0.5,0.7-0.8,0.9s-0.7,0.3-1.1,0.3c-0.7,0-1.3-0.2-1.6-0.7s-0.5-1.1-0.5-2
				v-3.6h0.9v3.5c0,0.7,0.1,1.2,0.4,1.6s0.6,0.5,1.2,0.5c0.5,0,0.9-0.2,1.2-0.6s0.5-0.9,0.5-1.5v-3.5h0.9V77.3z"/>
			<path class="st5" d="M111.7,77.3v-8.9h0.9v8.9H111.7z"/>
			<path class="st5" d="M118.9,77.3h-0.9v-1h0c-0.2,0.4-0.5,0.7-0.8,0.9s-0.7,0.3-1.1,0.3c-0.6,0-1-0.2-1.4-0.5s-0.5-0.8-0.5-1.3
				c0-0.5,0.2-1,0.5-1.3s0.9-0.6,1.6-0.7l1.8-0.2v-0.2c0-0.5-0.1-0.9-0.4-1.2s-0.6-0.4-1-0.4c-0.3,0-0.7,0.1-1,0.2s-0.6,0.3-0.9,0.6
				l-0.5-0.5c0.3-0.3,0.7-0.6,1.1-0.7s0.8-0.2,1.3-0.2c0.7,0,1.3,0.2,1.6,0.6s0.6,1,0.6,1.7V77.3z M118.1,74.7v-0.6l-1.5,0.2
				c-0.5,0.1-0.9,0.2-1.1,0.4s-0.4,0.5-0.4,0.8c0,0.4,0.1,0.6,0.3,0.8s0.5,0.3,0.9,0.3c0.5,0,1-0.2,1.3-0.6S118.1,75.3,118.1,74.7z"
				/>
			<path class="st5" d="M127,77.2c-0.2,0.1-0.3,0.1-0.5,0.2s-0.3,0.1-0.5,0.1c-0.5,0-0.8-0.1-1.1-0.4s-0.4-0.7-0.4-1.2v-3.9h-1.1
				v-0.7h1.1v-1.4l0.9-0.3v1.7h1.6v0.7h-1.6v3.8c0,0.4,0.1,0.6,0.2,0.8s0.3,0.2,0.6,0.2c0.1,0,0.2,0,0.4,0s0.2-0.1,0.3-0.1L127,77.2
				z"/>
			<path class="st5" d="M133.2,74.4h-4.4c0,0.8,0.2,1.3,0.6,1.7s0.9,0.6,1.5,0.6c0.3,0,0.6,0,0.9-0.1s0.6-0.2,0.9-0.4l0.4,0.6
				c-0.3,0.2-0.7,0.4-1.1,0.5s-0.7,0.2-1.2,0.2c-0.9,0-1.6-0.3-2.1-0.8s-0.8-1.3-0.8-2.4c0-1,0.3-1.8,0.8-2.4s1.2-0.9,2-0.9
				c0.8,0,1.4,0.3,1.8,0.8s0.7,1.3,0.7,2.2V74.4z M132.3,73.6c0-0.6-0.2-1.1-0.4-1.4s-0.7-0.5-1.2-0.5c-0.5,0-0.9,0.2-1.3,0.5
				s-0.5,0.8-0.6,1.4H132.3z"/>
			<path class="st5" d="M143.4,77.3h-0.9v-3.6c0-0.7-0.1-1.2-0.3-1.5s-0.6-0.5-1.1-0.5c-0.4,0-0.8,0.2-1.1,0.6s-0.5,0.9-0.5,1.4v3.5
				h-0.9v-3.7c0-0.6-0.1-1.1-0.4-1.4s-0.6-0.5-1.1-0.5c-0.5,0-0.8,0.2-1.1,0.6s-0.4,0.9-0.4,1.5v3.5h-0.9v-6.1h0.9v1h0
				c0.2-0.4,0.5-0.7,0.8-0.9s0.7-0.3,1.1-0.3c0.4,0,0.8,0.1,1.1,0.4s0.5,0.6,0.6,0.9c0.2-0.4,0.5-0.8,0.8-1s0.7-0.3,1.2-0.3
				c0.7,0,1.2,0.2,1.5,0.6s0.5,1,0.5,1.9V77.3z"/>
			<path class="st5" d="M146.2,76.3L146.2,76.3l0,3.7h-0.9v-8.9h0.9v1.1h0c0.2-0.4,0.5-0.7,0.9-1s0.8-0.3,1.3-0.3
				c0.8,0,1.4,0.3,1.8,0.8s0.7,1.3,0.7,2.2c0,1-0.3,1.8-0.8,2.5s-1.2,0.9-2,0.9c-0.4,0-0.8-0.1-1.1-0.3S146.4,76.7,146.2,76.3z
				 M146.2,73.9v0.8c0,0.5,0.2,1,0.5,1.4s0.8,0.6,1.3,0.6c0.6,0,1.1-0.2,1.4-0.7s0.5-1.1,0.5-2c0-0.7-0.2-1.3-0.5-1.7
				s-0.8-0.6-1.3-0.6c-0.6,0-1.1,0.2-1.5,0.6S146.2,73.3,146.2,73.9z"/>
			<path class="st5" d="M155.1,77.4c-0.9,0-1.6-0.3-2.2-0.9s-0.8-1.3-0.8-2.3c0-1,0.3-1.8,0.8-2.4s1.3-0.9,2.3-0.9
				c0.9,0,1.6,0.3,2.1,0.9s0.8,1.4,0.8,2.4c0,1-0.3,1.8-0.8,2.3S156,77.4,155.1,77.4z M155.1,76.7c0.7,0,1.2-0.2,1.5-0.6
				s0.5-1,0.5-1.8c0-0.8-0.2-1.4-0.5-1.8s-0.9-0.6-1.5-0.6c-0.7,0-1.2,0.2-1.6,0.7s-0.6,1.1-0.6,1.8c0,0.8,0.2,1.3,0.6,1.8
				S154.5,76.7,155.1,76.7z"/>
			<path class="st5" d="M159.2,76.8l0.4-0.7c0.2,0.2,0.5,0.3,0.7,0.4s0.5,0.1,0.8,0.1c0.4,0,0.8-0.1,1-0.3s0.3-0.4,0.3-0.8
				c0-0.3-0.1-0.5-0.3-0.7s-0.5-0.3-1-0.5c-0.7-0.2-1.2-0.4-1.5-0.7s-0.4-0.7-0.4-1.1c0-0.5,0.2-0.9,0.6-1.3s0.9-0.5,1.5-0.5
				c0.3,0,0.6,0,0.9,0.1s0.6,0.2,0.9,0.4l-0.4,0.7c-0.2-0.2-0.5-0.3-0.7-0.3s-0.5-0.1-0.7-0.1c-0.4,0-0.7,0.1-0.9,0.2
				s-0.3,0.4-0.3,0.7c0,0.3,0.1,0.5,0.3,0.6s0.5,0.3,1,0.4c0.6,0.2,1.1,0.4,1.4,0.7s0.5,0.7,0.5,1.2c0,0.6-0.2,1-0.6,1.3
				s-0.9,0.5-1.6,0.5c-0.4,0-0.7-0.1-1.1-0.2S159.5,77,159.2,76.8z"/>
			<path class="st5" d="M172.5,76.2c-0.2,0.4-0.5,0.7-0.9,0.9s-0.8,0.3-1.3,0.3c-0.8,0-1.4-0.3-1.9-0.8s-0.7-1.3-0.7-2.3
				c0-1,0.3-1.8,0.8-2.4s1.2-0.9,2-0.9c0.4,0,0.8,0.1,1.1,0.3s0.6,0.4,0.8,0.8h0v-3.6h0.9v8.9h-0.9L172.5,76.2L172.5,76.2z
				 M168.7,74.3c0,0.8,0.2,1.3,0.5,1.8s0.8,0.6,1.4,0.6c0.6,0,1.1-0.2,1.4-0.6s0.5-0.9,0.5-1.5v-1c0-0.5-0.2-1-0.5-1.3
				s-0.8-0.5-1.3-0.5c-0.6,0-1.1,0.2-1.5,0.7S168.7,73.5,168.7,74.3z"/>
			<path class="st5" d="M180.3,74.4h-4.4c0,0.8,0.2,1.3,0.6,1.7s0.9,0.6,1.5,0.6c0.3,0,0.6,0,0.9-0.1s0.6-0.2,0.9-0.4l0.4,0.6
				c-0.3,0.2-0.7,0.4-1.1,0.5s-0.7,0.2-1.2,0.2c-0.9,0-1.6-0.3-2.1-0.8s-0.8-1.3-0.8-2.4c0-1,0.3-1.8,0.8-2.4s1.2-0.9,2-0.9
				c0.8,0,1.4,0.3,1.8,0.8s0.7,1.3,0.7,2.2V74.4z M179.4,73.6c0-0.6-0.2-1.1-0.4-1.4s-0.7-0.5-1.2-0.5c-0.5,0-0.9,0.2-1.3,0.5
				s-0.5,0.8-0.6,1.4H179.4z"/>
			<path class="st5" d="M190,74.4h-4.4c0,0.8,0.2,1.3,0.6,1.7s0.9,0.6,1.5,0.6c0.3,0,0.6,0,0.9-0.1s0.6-0.2,0.9-0.4l0.4,0.6
				c-0.3,0.2-0.7,0.4-1.1,0.5s-0.7,0.2-1.2,0.2c-0.9,0-1.6-0.3-2.1-0.8s-0.8-1.3-0.8-2.4c0-1,0.3-1.8,0.8-2.4s1.2-0.9,2-0.9
				c0.8,0,1.4,0.3,1.8,0.8s0.7,1.3,0.7,2.2V74.4z M189.2,73.6c0-0.6-0.2-1.1-0.4-1.4s-0.7-0.5-1.2-0.5c-0.5,0-0.9,0.2-1.3,0.5
				s-0.5,0.8-0.6,1.4H189.2z"/>
			<path class="st5" d="M196,71.1l-2.1,3.1l2,3h-1l-1.2-2c0-0.1-0.1-0.1-0.1-0.2s-0.1-0.2-0.2-0.3h0c0,0.1-0.1,0.1-0.1,0.2
				s-0.1,0.2-0.2,0.3l-1.3,2h-1l2.1-3l-2-3.1h1l1.2,2.1c0.1,0.1,0.1,0.2,0.1,0.2s0.1,0.2,0.1,0.2h0c0-0.1,0.1-0.2,0.1-0.2
				s0.1-0.2,0.1-0.2l1.3-2.1H196z"/>
			<path class="st5" d="M197.7,69.8c-0.2,0-0.3-0.1-0.5-0.2s-0.2-0.3-0.2-0.4c0-0.2,0.1-0.3,0.2-0.4s0.3-0.2,0.5-0.2
				c0.2,0,0.3,0.1,0.5,0.2s0.2,0.3,0.2,0.4c0,0.2-0.1,0.3-0.2,0.4S197.9,69.8,197.7,69.8z M198.1,77.3h-0.9v-6.1h0.9V77.3z"/>
			<path class="st5" d="M201.1,76.4L201.1,76.4l0,0.9h-0.9v-8.9h0.9v3.9h0c0.2-0.4,0.5-0.7,0.9-1s0.8-0.3,1.3-0.3
				c0.8,0,1.4,0.3,1.8,0.8s0.7,1.3,0.7,2.2c0,1-0.3,1.9-0.8,2.5s-1.2,0.9-2,0.9c-0.4,0-0.8-0.1-1.1-0.3S201.4,76.7,201.1,76.4z
				 M201.1,73.9v0.8c0,0.5,0.2,1,0.5,1.4s0.8,0.6,1.3,0.6c0.6,0,1.1-0.2,1.4-0.7s0.5-1.1,0.5-2c0-0.7-0.2-1.3-0.5-1.7
				s-0.8-0.6-1.3-0.6c-0.6,0-1.1,0.2-1.5,0.6S201.1,73.3,201.1,73.9z"/>
			<path class="st5" d="M207.9,69.8c-0.2,0-0.3-0.1-0.5-0.2s-0.2-0.3-0.2-0.4c0-0.2,0.1-0.3,0.2-0.4s0.3-0.2,0.5-0.2
				c0.2,0,0.3,0.1,0.5,0.2s0.2,0.3,0.2,0.4c0,0.2-0.1,0.3-0.2,0.4S208.1,69.8,207.9,69.8z M208.3,77.3h-0.9v-6.1h0.9V77.3z"/>
			<path class="st5" d="M214.7,76.9c-0.3,0.2-0.6,0.3-0.9,0.4s-0.6,0.1-0.9,0.1c-0.9,0-1.6-0.3-2.1-0.8s-0.8-1.3-0.8-2.3
				c0-1,0.3-1.8,0.8-2.4s1.3-0.9,2.3-0.9c0.3,0,0.6,0,0.8,0.1s0.5,0.2,0.8,0.3l-0.4,0.7c-0.2-0.1-0.4-0.2-0.7-0.3s-0.4-0.1-0.7-0.1
				c-0.7,0-1.2,0.2-1.6,0.7s-0.6,1.1-0.6,1.8c0,0.8,0.2,1.4,0.6,1.8s0.9,0.6,1.5,0.6c0.2,0,0.4,0,0.7-0.1s0.4-0.2,0.7-0.3
				L214.7,76.9z M212.8,77.3v0.6c0.4,0,0.7,0.1,0.9,0.2s0.3,0.4,0.3,0.7c0,0.3-0.1,0.6-0.4,0.8s-0.6,0.3-1.1,0.3c-0.1,0-0.2,0-0.3,0
				s-0.2,0-0.3,0l0.1-0.5c0.1,0,0.2,0,0.2,0s0.1,0,0.2,0c0.3,0,0.5,0,0.6-0.1s0.2-0.2,0.2-0.4c0-0.2-0.1-0.3-0.2-0.3
				s-0.3-0.1-0.6-0.1c0,0-0.1,0-0.1,0s-0.1,0-0.2,0v-1.1H212.8z"/>
			<path class="st5" d="M220.5,77.3h-0.9v-1h0c-0.2,0.4-0.5,0.7-0.8,0.9s-0.7,0.3-1.1,0.3c-0.6,0-1-0.2-1.4-0.5s-0.5-0.8-0.5-1.3
				c0-0.5,0.2-1,0.5-1.3s0.9-0.6,1.6-0.7l1.8-0.2v-0.2c0-0.5-0.1-0.9-0.4-1.2s-0.6-0.4-1-0.4c-0.3,0-0.7,0.1-1,0.2s-0.6,0.3-0.9,0.6
				l-0.5-0.5c0.3-0.3,0.7-0.6,1.1-0.7s0.8-0.2,1.3-0.2c0.7,0,1.3,0.2,1.6,0.6s0.6,1,0.6,1.7V77.3z M220.2,68.7c0,0.4-0.1,0.7-0.3,1
				s-0.4,0.4-0.8,0.4c-0.1,0-0.3,0-0.4-0.1s-0.3-0.1-0.5-0.3c-0.1-0.1-0.3-0.2-0.4-0.2s-0.2-0.1-0.3-0.1c-0.2,0-0.3,0.1-0.4,0.2
				s-0.1,0.3-0.1,0.5h-0.5c0-0.4,0.1-0.8,0.3-1s0.5-0.4,0.8-0.4c0.1,0,0.3,0,0.4,0.1s0.3,0.1,0.5,0.3c0.1,0.1,0.3,0.2,0.4,0.2
				s0.2,0.1,0.3,0.1c0.2,0,0.3-0.1,0.4-0.2s0.1-0.3,0.1-0.5H220.2z M219.7,74.7v-0.6l-1.5,0.2c-0.5,0.1-0.9,0.2-1.1,0.4
				s-0.4,0.5-0.4,0.8c0,0.4,0.1,0.6,0.3,0.8s0.5,0.3,0.9,0.3c0.5,0,1-0.2,1.3-0.6S219.7,75.3,219.7,74.7z"/>
			<path class="st5" d="M225,77.4c-0.9,0-1.6-0.3-2.2-0.9s-0.8-1.3-0.8-2.3c0-1,0.3-1.8,0.8-2.4s1.3-0.9,2.3-0.9
				c0.9,0,1.6,0.3,2.1,0.9s0.8,1.4,0.8,2.4c0,1-0.3,1.8-0.8,2.3S226,77.4,225,77.4z M225.1,76.7c0.7,0,1.2-0.2,1.5-0.6
				s0.5-1,0.5-1.8c0-0.8-0.2-1.4-0.5-1.8s-0.9-0.6-1.5-0.6c-0.7,0-1.2,0.2-1.6,0.7s-0.6,1.1-0.6,1.8c0,0.8,0.2,1.3,0.6,1.8
				S224.4,76.7,225.1,76.7z"/>
			<path class="st5" d="M237.9,74.4h-4.4c0,0.8,0.2,1.3,0.6,1.7s0.9,0.6,1.5,0.6c0.3,0,0.6,0,0.9-0.1s0.6-0.2,0.9-0.4l0.4,0.6
				c-0.3,0.2-0.7,0.4-1.1,0.5s-0.7,0.2-1.2,0.2c-0.9,0-1.6-0.3-2.1-0.8s-0.8-1.3-0.8-2.4c0-1,0.3-1.8,0.8-2.4s1.2-0.9,2-0.9
				c0.8,0,1.4,0.3,1.8,0.8s0.7,1.3,0.7,2.2V74.4z M237,73.6c0-0.6-0.2-1.1-0.4-1.4s-0.7-0.5-1.2-0.5c-0.5,0-0.9,0.2-1.3,0.5
				s-0.5,0.8-0.6,1.4H237z"/>
			<path class="st5" d="M25.2,91.8c-0.9,0-1.6-0.3-2.2-0.9s-0.8-1.3-0.8-2.3c0-1,0.3-1.8,0.8-2.4s1.3-0.9,2.3-0.9
				c0.9,0,1.6,0.3,2.1,0.9s0.8,1.4,0.8,2.4c0,1-0.3,1.8-0.8,2.3S26.2,91.8,25.2,91.8z M25.3,91.1c0.7,0,1.2-0.2,1.5-0.6
				s0.5-1,0.5-1.8c0-0.8-0.2-1.4-0.5-1.8s-0.9-0.6-1.5-0.6c-0.7,0-1.2,0.2-1.6,0.7s-0.6,1.1-0.6,1.8c0,0.8,0.2,1.3,0.6,1.8
				S24.6,91.1,25.3,91.1z"/>
			<path class="st5" d="M32.7,83.5c-0.1,0-0.2-0.1-0.3-0.1s-0.2,0-0.3,0c-0.3,0-0.6,0.1-0.8,0.3s-0.2,0.5-0.2,0.8v1h1.5v0.7h-1.5
				v5.4h-0.9v-5.4h-1v-0.7h1v-1c0-0.6,0.2-1,0.5-1.3s0.8-0.5,1.4-0.5c0.1,0,0.3,0,0.4,0s0.2,0,0.4,0.1L32.7,83.5z"/>
			<path class="st5" d="M38.6,88.8h-4.4c0,0.8,0.2,1.3,0.6,1.7s0.9,0.6,1.5,0.6c0.3,0,0.6,0,0.9-0.1s0.6-0.2,0.9-0.4l0.4,0.6
				c-0.3,0.2-0.7,0.4-1.1,0.5s-0.7,0.2-1.2,0.2c-0.9,0-1.6-0.3-2.1-0.8s-0.8-1.3-0.8-2.4c0-1,0.3-1.8,0.8-2.4s1.2-0.9,2-0.9
				c0.8,0,1.4,0.3,1.8,0.8s0.7,1.3,0.7,2.2V88.8z M37.7,88c0-0.6-0.2-1.1-0.4-1.4s-0.7-0.5-1.2-0.5c-0.5,0-0.9,0.2-1.3,0.5
				s-0.5,0.8-0.6,1.4H37.7z"/>
			<path class="st5" d="M43.1,86.3c-0.1,0-0.2,0-0.2-0.1s-0.2,0-0.3,0c-0.5,0-0.9,0.2-1.2,0.7s-0.4,1-0.4,1.7v3h-0.9v-6.1H41v1.3h0
				c0.1-0.4,0.4-0.8,0.7-1s0.6-0.4,1-0.4c0.1,0,0.2,0,0.3,0s0.2,0,0.3,0.1L43.1,86.3z"/>
			<path class="st5" d="M49.3,88.8h-4.4c0,0.8,0.2,1.3,0.6,1.7s0.9,0.6,1.5,0.6c0.3,0,0.6,0,0.9-0.1s0.6-0.2,0.9-0.4l0.4,0.6
				c-0.3,0.2-0.7,0.4-1.1,0.5s-0.7,0.2-1.2,0.2c-0.9,0-1.6-0.3-2.1-0.8S44,89.7,44,88.6c0-1,0.3-1.8,0.8-2.4s1.2-0.9,2-0.9
				c0.8,0,1.4,0.3,1.8,0.8s0.7,1.3,0.7,2.2V88.8z M48.5,88c0-0.6-0.2-1.1-0.4-1.4s-0.7-0.5-1.2-0.5c-0.5,0-0.9,0.2-1.3,0.5
				S45,87.4,45,88H48.5z"/>
			<path class="st5" d="M55.2,91.3c-0.3,0.2-0.6,0.3-0.9,0.4s-0.6,0.1-0.9,0.1c-0.9,0-1.6-0.3-2.1-0.8s-0.8-1.3-0.8-2.3
				c0-1,0.3-1.8,0.8-2.4s1.3-0.9,2.3-0.9c0.3,0,0.6,0,0.8,0.1s0.5,0.2,0.8,0.3l-0.4,0.7c-0.2-0.1-0.4-0.2-0.7-0.3s-0.4-0.1-0.7-0.1
				c-0.7,0-1.2,0.2-1.6,0.7s-0.6,1.1-0.6,1.8c0,0.8,0.2,1.4,0.6,1.8s0.9,0.6,1.5,0.6c0.2,0,0.4,0,0.7-0.1s0.4-0.2,0.7-0.3L55.2,91.3
				z"/>
			<path class="st5" d="M61.6,88.8h-4.4c0,0.8,0.2,1.3,0.6,1.7s0.9,0.6,1.5,0.6c0.3,0,0.6,0,0.9-0.1s0.6-0.2,0.9-0.4l0.4,0.6
				c-0.3,0.2-0.7,0.4-1.1,0.5s-0.7,0.2-1.2,0.2c-0.9,0-1.6-0.3-2.1-0.8s-0.8-1.3-0.8-2.4c0-1,0.3-1.8,0.8-2.4s1.2-0.9,2-0.9
				c0.8,0,1.4,0.3,1.8,0.8s0.7,1.3,0.7,2.2V88.8z M60.7,88c0-0.6-0.2-1.1-0.4-1.4s-0.7-0.5-1.2-0.5c-0.5,0-0.9,0.2-1.3,0.5
				s-0.5,0.8-0.6,1.4H60.7z"/>
			<path class="st5" d="M66.8,84.2c-0.2,0-0.3-0.1-0.5-0.2s-0.2-0.3-0.2-0.4c0-0.2,0.1-0.3,0.2-0.4s0.3-0.2,0.5-0.2
				c0.2,0,0.3,0.1,0.5,0.2s0.2,0.3,0.2,0.4c0,0.2-0.1,0.3-0.2,0.4S67,84.2,66.8,84.2z M67.3,91.7h-0.9v-6.1h0.9V91.7z"/>
			<path class="st5" d="M74.4,91.7h-0.9v-3.5c0-0.7-0.1-1.2-0.4-1.5s-0.6-0.5-1.1-0.5c-0.5,0-0.9,0.2-1.3,0.6s-0.5,0.9-0.5,1.5v3.5
				h-0.9v-6.1h0.9v1h0c0.2-0.4,0.5-0.7,0.8-0.9s0.7-0.3,1.2-0.3c0.7,0,1.2,0.2,1.5,0.7s0.5,1.1,0.5,1.9V91.7z"/>
			<path class="st5" d="M79.1,83.5c-0.1,0-0.2-0.1-0.3-0.1s-0.2,0-0.3,0c-0.3,0-0.6,0.1-0.8,0.3s-0.2,0.5-0.2,0.8v1H79v0.7h-1.5v5.4
				h-0.9v-5.4h-1v-0.7h1v-1c0-0.6,0.2-1,0.5-1.3s0.8-0.5,1.4-0.5c0.1,0,0.3,0,0.4,0s0.2,0,0.4,0.1L79.1,83.5z"/>
			<path class="st5" d="M82.7,91.8c-0.9,0-1.6-0.3-2.2-0.9s-0.8-1.3-0.8-2.3c0-1,0.3-1.8,0.8-2.4s1.3-0.9,2.3-0.9
				c0.9,0,1.6,0.3,2.1,0.9s0.8,1.4,0.8,2.4c0,1-0.3,1.8-0.8,2.3S83.6,91.8,82.7,91.8z M82.7,91.1c0.7,0,1.2-0.2,1.5-0.6
				s0.5-1,0.5-1.8c0-0.8-0.2-1.4-0.5-1.8s-0.9-0.6-1.5-0.6c-0.7,0-1.2,0.2-1.6,0.7s-0.6,1.1-0.6,1.8c0,0.8,0.2,1.3,0.6,1.8
				S82.1,91.1,82.7,91.1z"/>
			<path class="st5" d="M90.3,86.3c-0.1,0-0.2,0-0.2-0.1s-0.2,0-0.3,0c-0.5,0-0.9,0.2-1.2,0.7s-0.4,1-0.4,1.7v3h-0.9v-6.1h0.9v1.3h0
				c0.1-0.4,0.4-0.8,0.7-1s0.6-0.4,1-0.4c0.1,0,0.2,0,0.3,0s0.2,0,0.3,0.1L90.3,86.3z"/>
			<path class="st5" d="M100.3,91.7h-0.9v-3.6c0-0.7-0.1-1.2-0.3-1.5s-0.6-0.5-1.1-0.5c-0.4,0-0.8,0.2-1.1,0.6s-0.5,0.9-0.5,1.4v3.5
				h-0.9V88c0-0.6-0.1-1.1-0.4-1.4s-0.6-0.5-1.1-0.5c-0.5,0-0.8,0.2-1.1,0.6s-0.4,0.9-0.4,1.5v3.5h-0.9v-6.1h0.9v1h0
				c0.2-0.4,0.5-0.7,0.8-0.9s0.7-0.3,1.1-0.3c0.4,0,0.8,0.1,1.1,0.4s0.5,0.6,0.6,0.9c0.2-0.4,0.5-0.8,0.8-1s0.7-0.3,1.2-0.3
				c0.7,0,1.2,0.2,1.5,0.6s0.5,1,0.5,1.9V91.7z"/>
			<path class="st5" d="M106.5,91.7h-0.9v-1h0c-0.2,0.4-0.5,0.7-0.8,0.9s-0.7,0.3-1.1,0.3c-0.6,0-1-0.2-1.4-0.5s-0.5-0.8-0.5-1.3
				c0-0.5,0.2-1,0.5-1.3s0.9-0.6,1.6-0.7l1.8-0.2v-0.2c0-0.5-0.1-0.9-0.4-1.2s-0.6-0.4-1-0.4c-0.3,0-0.7,0.1-1,0.2s-0.6,0.3-0.9,0.6
				l-0.5-0.5c0.3-0.3,0.7-0.6,1.1-0.7s0.8-0.2,1.3-0.2c0.7,0,1.3,0.2,1.6,0.6s0.6,1,0.6,1.7V91.7z M105.7,89.1v-0.6l-1.5,0.2
				c-0.5,0.1-0.9,0.2-1.1,0.4s-0.4,0.5-0.4,0.8c0,0.4,0.1,0.6,0.3,0.8s0.5,0.3,0.9,0.3c0.5,0,1-0.2,1.3-0.6S105.7,89.7,105.7,89.1z"
				/>
			<path class="st5" d="M112.8,91.3c-0.3,0.2-0.6,0.3-0.9,0.4s-0.6,0.1-0.9,0.1c-0.9,0-1.6-0.3-2.1-0.8s-0.8-1.3-0.8-2.3
				c0-1,0.3-1.8,0.8-2.4s1.3-0.9,2.3-0.9c0.3,0,0.6,0,0.8,0.1s0.5,0.2,0.8,0.3l-0.4,0.7c-0.2-0.1-0.4-0.2-0.7-0.3s-0.4-0.1-0.7-0.1
				c-0.7,0-1.2,0.2-1.6,0.7s-0.6,1.1-0.6,1.8c0,0.8,0.2,1.4,0.6,1.8s0.9,0.6,1.5,0.6c0.2,0,0.4,0,0.7-0.1s0.4-0.2,0.7-0.3
				L112.8,91.3z M110.8,91.7v0.6c0.4,0,0.7,0.1,0.9,0.2s0.3,0.4,0.3,0.7c0,0.3-0.1,0.6-0.4,0.8s-0.6,0.3-1.1,0.3c-0.1,0-0.2,0-0.3,0
				s-0.2,0-0.3,0l0.1-0.5c0.1,0,0.2,0,0.2,0s0.1,0,0.2,0c0.3,0,0.5,0,0.6-0.1s0.2-0.2,0.2-0.4c0-0.2-0.1-0.3-0.2-0.3
				s-0.3-0.1-0.6-0.1c0,0-0.1,0-0.1,0s-0.1,0-0.2,0v-1.1H110.8z"/>
			<path class="st5" d="M116.8,91.8c-0.9,0-1.6-0.3-2.2-0.9s-0.8-1.3-0.8-2.3c0-1,0.3-1.8,0.8-2.4s1.3-0.9,2.3-0.9
				c0.9,0,1.6,0.3,2.1,0.9s0.8,1.4,0.8,2.4c0,1-0.3,1.8-0.8,2.3S117.7,91.8,116.8,91.8z M116.8,91.1c0.7,0,1.2-0.2,1.5-0.6
				s0.5-1,0.5-1.8c0-0.8-0.2-1.4-0.5-1.8s-0.9-0.6-1.5-0.6c-0.7,0-1.2,0.2-1.6,0.7s-0.6,1.1-0.6,1.8c0,0.8,0.2,1.3,0.6,1.8
				S116.2,91.1,116.8,91.1z M118.7,83.1c0,0.4-0.1,0.7-0.3,1s-0.4,0.4-0.8,0.4c-0.1,0-0.3,0-0.4-0.1s-0.3-0.1-0.5-0.3
				c-0.1-0.1-0.3-0.2-0.4-0.2s-0.2-0.1-0.3-0.1c-0.2,0-0.3,0.1-0.4,0.2s-0.1,0.3-0.1,0.5H115c0-0.4,0.1-0.8,0.3-1s0.5-0.4,0.8-0.4
				c0.1,0,0.3,0,0.4,0.1s0.3,0.1,0.5,0.3c0.1,0.1,0.3,0.2,0.4,0.2s0.2,0.1,0.3,0.1c0.2,0,0.3-0.1,0.4-0.2s0.1-0.3,0.1-0.5H118.7z"/>
			<path class="st5" d="M126.3,88.8h-4.4c0,0.8,0.2,1.3,0.6,1.7s0.9,0.6,1.5,0.6c0.3,0,0.6,0,0.9-0.1s0.6-0.2,0.9-0.4l0.4,0.6
				c-0.3,0.2-0.7,0.4-1.1,0.5s-0.7,0.2-1.2,0.2c-0.9,0-1.6-0.3-2.1-0.8s-0.8-1.3-0.8-2.4c0-1,0.3-1.8,0.8-2.4s1.2-0.9,2-0.9
				c0.8,0,1.4,0.3,1.8,0.8s0.7,1.3,0.7,2.2V88.8z M125.4,88c0-0.6-0.2-1.1-0.4-1.4s-0.7-0.5-1.2-0.5c-0.5,0-0.9,0.2-1.3,0.5
				s-0.5,0.8-0.6,1.4H125.4z"/>
			<path class="st5" d="M127.3,91.2l0.4-0.7c0.2,0.2,0.5,0.3,0.7,0.4s0.5,0.1,0.8,0.1c0.4,0,0.8-0.1,1-0.3s0.3-0.4,0.3-0.8
				c0-0.3-0.1-0.5-0.3-0.7s-0.5-0.3-1-0.5c-0.7-0.2-1.2-0.4-1.5-0.7s-0.4-0.7-0.4-1.1c0-0.5,0.2-0.9,0.6-1.3s0.9-0.5,1.5-0.5
				c0.3,0,0.6,0,0.9,0.1s0.6,0.2,0.9,0.4l-0.4,0.7c-0.2-0.2-0.5-0.3-0.7-0.3s-0.5-0.1-0.7-0.1c-0.4,0-0.7,0.1-0.9,0.2
				s-0.3,0.4-0.3,0.7c0,0.3,0.1,0.5,0.3,0.6s0.5,0.3,1,0.4c0.6,0.2,1.1,0.4,1.4,0.7s0.5,0.7,0.5,1.2c0,0.6-0.2,1-0.6,1.3
				s-0.9,0.5-1.6,0.5c-0.4,0-0.7-0.1-1.1-0.2S127.6,91.4,127.3,91.2z"/>
			<path class="st5" d="M140.6,90.6c-0.2,0.4-0.5,0.7-0.9,0.9s-0.8,0.3-1.3,0.3c-0.8,0-1.4-0.3-1.9-0.8s-0.7-1.3-0.7-2.3
				c0-1,0.3-1.8,0.8-2.4s1.2-0.9,2-0.9c0.4,0,0.8,0.1,1.1,0.3s0.6,0.4,0.8,0.8h0v-3.6h0.9v8.9h-0.9L140.6,90.6L140.6,90.6z
				 M136.8,88.7c0,0.8,0.2,1.3,0.5,1.8s0.8,0.6,1.4,0.6c0.6,0,1.1-0.2,1.4-0.6s0.5-0.9,0.5-1.5v-1c0-0.5-0.2-1-0.5-1.3
				s-0.8-0.5-1.3-0.5c-0.6,0-1.1,0.2-1.5,0.7S136.8,87.9,136.8,88.7z"/>
			<path class="st5" d="M148.5,88.8h-4.4c0,0.8,0.2,1.3,0.6,1.7s0.9,0.6,1.5,0.6c0.3,0,0.6,0,0.9-0.1s0.6-0.2,0.9-0.4l0.4,0.6
				c-0.3,0.2-0.7,0.4-1.1,0.5s-0.7,0.2-1.2,0.2c-0.9,0-1.6-0.3-2.1-0.8s-0.8-1.3-0.8-2.4c0-1,0.3-1.8,0.8-2.4s1.2-0.9,2-0.9
				c0.8,0,1.4,0.3,1.8,0.8s0.7,1.3,0.7,2.2V88.8z M147.6,88c0-0.6-0.2-1.1-0.4-1.4s-0.7-0.5-1.2-0.5c-0.5,0-0.9,0.2-1.3,0.5
				s-0.5,0.8-0.6,1.4H147.6z"/>
			<path class="st5" d="M152.9,91.6c-0.2,0.1-0.3,0.1-0.5,0.2s-0.3,0.1-0.5,0.1c-0.5,0-0.8-0.1-1.1-0.4s-0.4-0.7-0.4-1.2v-3.9h-1.1
				v-0.7h1.1v-1.4l0.9-0.3v1.7h1.6v0.7h-1.6v3.8c0,0.4,0.1,0.6,0.2,0.8s0.3,0.2,0.6,0.2c0.1,0,0.2,0,0.4,0s0.2-0.1,0.3-0.1
				L152.9,91.6z"/>
			<path class="st5" d="M158.5,91.7h-0.9v-1h0c-0.2,0.4-0.5,0.7-0.8,0.9s-0.7,0.3-1.1,0.3c-0.6,0-1-0.2-1.4-0.5s-0.5-0.8-0.5-1.3
				c0-0.5,0.2-1,0.5-1.3s0.9-0.6,1.6-0.7l1.8-0.2v-0.2c0-0.5-0.1-0.9-0.4-1.2s-0.6-0.4-1-0.4c-0.3,0-0.7,0.1-1,0.2s-0.6,0.3-0.9,0.6
				l-0.5-0.5c0.3-0.3,0.7-0.6,1.1-0.7s0.8-0.2,1.3-0.2c0.7,0,1.3,0.2,1.6,0.6s0.6,1,0.6,1.7V91.7z M157.7,89.1v-0.6l-1.5,0.2
				c-0.5,0.1-0.9,0.2-1.1,0.4s-0.4,0.5-0.4,0.8c0,0.4,0.1,0.6,0.3,0.8s0.5,0.3,0.9,0.3c0.5,0,1-0.2,1.3-0.6S157.7,89.7,157.7,89.1z"
				/>
			<path class="st5" d="M160.5,91.7v-8.9h0.9v8.9H160.5z"/>
			<path class="st5" d="M168.4,91.7h-0.9v-3.6c0-0.7-0.1-1.2-0.4-1.5s-0.6-0.5-1.1-0.5c-0.5,0-0.9,0.2-1.3,0.6s-0.5,0.9-0.5,1.5v3.5
				h-0.9v-8.9h0.9v3.8h0c0.2-0.4,0.5-0.7,0.9-0.9s0.7-0.3,1.2-0.3c0.7,0,1.2,0.2,1.5,0.6s0.5,1,0.5,1.9V91.7z"/>
			<path class="st5" d="M174.7,91.7h-0.9v-1h0c-0.2,0.4-0.5,0.7-0.8,0.9s-0.7,0.3-1.1,0.3c-0.6,0-1-0.2-1.4-0.5s-0.5-0.8-0.5-1.3
				c0-0.5,0.2-1,0.5-1.3s0.9-0.6,1.6-0.7l1.8-0.2v-0.2c0-0.5-0.1-0.9-0.4-1.2s-0.6-0.4-1-0.4c-0.3,0-0.7,0.1-1,0.2s-0.6,0.3-0.9,0.6
				l-0.5-0.5c0.3-0.3,0.7-0.6,1.1-0.7s0.8-0.2,1.3-0.2c0.7,0,1.3,0.2,1.6,0.6s0.6,1,0.6,1.7V91.7z M173.8,89.1v-0.6l-1.5,0.2
				c-0.5,0.1-0.9,0.2-1.1,0.4s-0.4,0.5-0.4,0.8c0,0.4,0.1,0.6,0.3,0.8s0.5,0.3,0.9,0.3c0.5,0,1-0.2,1.3-0.6S173.8,89.7,173.8,89.1z"
				/>
			<path class="st5" d="M180.9,90.6c-0.2,0.4-0.5,0.7-0.9,0.9s-0.8,0.3-1.3,0.3c-0.8,0-1.4-0.3-1.9-0.8s-0.7-1.3-0.7-2.3
				c0-1,0.3-1.8,0.8-2.4s1.2-0.9,2-0.9c0.4,0,0.8,0.1,1.1,0.3s0.6,0.4,0.8,0.8h0v-3.6h0.9v8.9h-0.9L180.9,90.6L180.9,90.6z
				 M177.1,88.7c0,0.8,0.2,1.3,0.5,1.8s0.8,0.6,1.4,0.6c0.6,0,1.1-0.2,1.4-0.6s0.5-0.9,0.5-1.5v-1c0-0.5-0.2-1-0.5-1.3
				s-0.8-0.5-1.3-0.5c-0.6,0-1.1,0.2-1.5,0.7S177.1,87.9,177.1,88.7z"/>
			<path class="st5" d="M188.2,91.7h-0.9v-1h0c-0.2,0.4-0.5,0.7-0.8,0.9s-0.7,0.3-1.1,0.3c-0.6,0-1-0.2-1.4-0.5s-0.5-0.8-0.5-1.3
				c0-0.5,0.2-1,0.5-1.3s0.9-0.6,1.6-0.7l1.8-0.2v-0.2c0-0.5-0.1-0.9-0.4-1.2s-0.6-0.4-1-0.4c-0.3,0-0.7,0.1-1,0.2s-0.6,0.3-0.9,0.6
				l-0.5-0.5c0.3-0.3,0.7-0.6,1.1-0.7s0.8-0.2,1.3-0.2c0.7,0,1.3,0.2,1.6,0.6s0.6,1,0.6,1.7V91.7z M187.3,89.1v-0.6l-1.5,0.2
				c-0.5,0.1-0.9,0.2-1.1,0.4s-0.4,0.5-0.4,0.8c0,0.4,0.1,0.6,0.3,0.8s0.5,0.3,0.9,0.3c0.5,0,1-0.2,1.3-0.6S187.3,89.7,187.3,89.1z"
				/>
			<path class="st5" d="M189.5,91.2l0.4-0.7c0.2,0.2,0.5,0.3,0.7,0.4s0.5,0.1,0.8,0.1c0.4,0,0.8-0.1,1-0.3s0.3-0.4,0.3-0.8
				c0-0.3-0.1-0.5-0.3-0.7s-0.5-0.3-1-0.5c-0.7-0.2-1.2-0.4-1.5-0.7s-0.4-0.7-0.4-1.1c0-0.5,0.2-0.9,0.6-1.3s0.9-0.5,1.5-0.5
				c0.3,0,0.6,0,0.9,0.1s0.6,0.2,0.9,0.4l-0.4,0.7c-0.2-0.2-0.5-0.3-0.7-0.3s-0.5-0.1-0.7-0.1c-0.4,0-0.7,0.1-0.9,0.2
				s-0.3,0.4-0.3,0.7c0,0.3,0.1,0.5,0.3,0.6s0.5,0.3,1,0.4c0.6,0.2,1.1,0.4,1.4,0.7s0.5,0.7,0.5,1.2c0,0.6-0.2,1-0.6,1.3
				s-0.9,0.5-1.6,0.5c-0.4,0-0.7-0.1-1.1-0.2S189.8,91.4,189.5,91.2z"/>
			<path class="st5" d="M195.6,91.8c-0.2,0-0.3-0.1-0.5-0.2s-0.2-0.3-0.2-0.4s0.1-0.3,0.2-0.4s0.3-0.2,0.5-0.2
				c0.2,0,0.3,0.1,0.5,0.2s0.2,0.3,0.2,0.4s-0.1,0.3-0.2,0.4S195.8,91.8,195.6,91.8z"/>
		</g>
	</g>
	<g>
		<path class="st6" d="M405.8,14.1L405.8,14.1c-3.9,0-7-3.2-7-7v0c0-3.9,3.2-7,7-7h0c3.9,0,7,3.2,7,7v0
			C412.8,10.9,409.6,14.1,405.8,14.1z"/>
		<polygon class="st7" points="405.8,3.5 406.9,5.8 409.5,6.2 407.6,8 408.1,10.6 405.8,9.4 403.5,10.6 403.9,8 402,6.2 404.6,5.8 
					"/>
	</g>
	<g>
		<path class="st8" d="M139.2,119.3H99.8c-1.1,0-1.9-0.9-1.9-1.9v-9.5c0-1.1,0.9-1.9,1.9-1.9h39.4c1.1,0,1.9,0.9,1.9,1.9v9.5
			C141.2,118.4,140.3,119.3,139.2,119.3z"/>
		<g>
			<text transform="matrix(1 0 0 1 103.4482 114.4053)"><tspan x="0" y="0" class="st4 st9 st10">S</tspan><tspan x="2.9" y="0" class="st4 st9 st10">aiba mais</tspan></text>
			<path class="st4" d="M135.5,112.5C135.5,112.6,135.5,112.6,135.5,112.5c-0.9,1-1.8,1.8-2.7,2.7c-0.1,0.1-0.1,0.1-0.2,0.1h-0.1
				c-0.2-0.1-0.3-0.2-0.4-0.3c-0.1-0.1-0.1-0.3,0-0.4c0,0,0,0,0.1-0.1c0.7-0.7,1.4-1.4,2.1-2.1c0,0,0,0,0.1,0c0,0,0,0-0.1-0.1
				c-0.7-0.7-1.4-1.4-2.2-2.2c-0.1-0.1-0.2-0.3-0.1-0.4c0.1-0.1,0.2-0.2,0.3-0.3c0.1-0.1,0.3-0.1,0.4,0c0,0,0,0,0,0
				c0.9,0.9,1.7,1.7,2.6,2.6C135.6,112.2,135.6,112.4,135.5,112.5z"/>
		</g>
	</g>
</g>
</svg>
