<?xml version="1.0" encoding="utf-8"?>
<!-- Generator: Adobe Illustrator 27.8.0, SVG Export Plug-In . SVG Version: 6.00 Build 0)  -->
<svg version="1.1" id="Camada_1" xmlns="http://www.w3.org/2000/svg" xmlns:xlink="http://www.w3.org/1999/xlink" x="0px" y="0px"
	 viewBox="0 0 551.3 212.1" style="enable-background:new 0 0 551.3 212.1;" xml:space="preserve">
<style type="text/css">
	.st0{opacity:0.48;}
	.st1{opacity:0.48;fill:url(#SVGID_1_);}
	
		.st2{opacity:0.75;fill:none;stroke:url(#SVGID_00000120541285815085440350000000782226901423261065_);stroke-width:0.5;stroke-miterlimit:10;}
	.st3{opacity:0.18;}
	.st4{opacity:0.9;}
	.st5{opacity:0.3;}
	
		.st6{fill:url(#SVGID_00000106843934194396251690000005037905710119094663_);stroke:url(#SVGID_00000169532199072201303830000016434696997711689346_);stroke-width:0.5;stroke-miterlimit:10;}
	.st7{fill:#FFFFFF;}
	
		.st8{fill:url(#SVGID_00000024711103276219406410000015981860984195473578_);stroke:url(#SVGID_00000166644016699918550100000007601561489122227082_);stroke-width:0.5;stroke-miterlimit:10;}
	.st9{clip-path:url(#SVGID_00000040563495249837170490000018162846424561797049_);}
	.st10{clip-path:url(#SVGID_00000005982705659947178500000013964275018775845767_);}
	.st11{opacity:0.52;}
	.st12{fill:#F7F9F7;}
	.st13{opacity:0.8;}
	.st14{clip-path:url(#SVGID_00000089546199990051015080000018420191812490833550_);}
	.st15{clip-path:url(#SVGID_00000034074424289977586580000011347525581236399253_);}
	.st16{clip-path:url(#SVGID_00000045607695674086815500000014227402063915943836_);}
	.st17{clip-path:url(#SVGID_00000056388944185454030000000010486374853512976562_);}
	.st18{display:none;opacity:0.8;}
	.st19{display:inline;}
	.st20{fill:none;}
	.st21{fill:url(#SVGID_00000074406937506553001240000005892099781626276018_);}
	.st22{opacity:0.14;fill:#840C28;}
	.st23{fill:url(#SVGID_00000171685399411517619230000007164837087066924941_);}
	.st24{fill:url(#SVGID_00000013891670003684840930000002101273259218815872_);}
</style>
<g>
	<g>
		<g>
			<g class="st0">
				
					<image style="overflow:visible;" width="615" height="275" xlink:href="8160C7DD.png"  transform="matrix(1 0 0 1 -36.4667 -26.381)">
				</image>
			</g>
			<linearGradient id="SVGID_1_" gradientUnits="userSpaceOnUse" x1="271.2278" y1="10.0692" x2="271.2278" y2="204.0273">
				<stop  offset="0" style="stop-color:#454955"/>
				<stop  offset="0.3272" style="stop-color:#33363F"/>
				<stop  offset="0.7318" style="stop-color:#22242B"/>
				<stop  offset="1" style="stop-color:#1C1E23"/>
			</linearGradient>
			<path class="st1" d="M529.1,204H13.3c-7.2,0-13.1-5.9-13.1-13.1V23.2c0-7.2,5.9-13.1,13.1-13.1h515.8c7.2,0,13.1,5.9,13.1,13.1
				v167.8C542.2,198.1,536.3,204,529.1,204z"/>
		</g>
		
			<linearGradient id="SVGID_00000010302495919419346660000000237246794035772035_" gradientUnits="userSpaceOnUse" x1="271.2294" y1="9.8229" x2="271.2294" y2="204.273">
			<stop  offset="0" style="stop-color:#878B97"/>
			<stop  offset="0.2324" style="stop-color:#6D6F7A"/>
			<stop  offset="0.5556" style="stop-color:#4E4F58"/>
			<stop  offset="0.8231" style="stop-color:#3B3B44"/>
			<stop  offset="1" style="stop-color:#34343C"/>
		</linearGradient>
		
			<path style="opacity:0.75;fill:none;stroke:url(#SVGID_00000010302495919419346660000000237246794035772035_);stroke-width:0.5;stroke-miterlimit:10;" d="
			M542.2,22.1v170c0,0.8-0.1,1.6-0.3,2.4c0,0.2-0.1,0.3-0.1,0.5c0,0.2-0.1,0.3-0.2,0.5c0,0.2-0.1,0.3-0.2,0.5
			c-1.9,4.6-7.1,8-13.2,8.1c-0.1,0-0.2,0-0.3,0H14.5c-7.9,0-14.3-5.4-14.3-12v-170c0-6.6,6.4-12,14.3-12h513.4
			c6.6,0,12.2,3.8,13.8,8.9c0.1,0.2,0.1,0.5,0.2,0.7c0,0.2,0.1,0.4,0.1,0.6c0,0.1,0,0.2,0,0.4c0,0.2,0,0.3,0.1,0.5
			C542.2,21.5,542.2,21.8,542.2,22.1z"/>
	</g>
	<g>
		<g class="st3">
			
				<image style="overflow:visible;" width="285" height="263" xlink:href="8160C7DF.png"  transform="matrix(1 0 0 1 293.5333 -23.381)">
			</image>
		</g>
		<g class="st4">
			
				<image style="overflow:visible;" width="187" height="145" xlink:href="8160C7DA.png"  transform="matrix(1 0 0 1 391.5333 94.619)">
			</image>
		</g>
		<g class="st5">
			
				<linearGradient id="SVGID_00000025403316298774741990000016891412424618466714_" gradientUnits="userSpaceOnUse" x1="339.6342" y1="63.8668" x2="542.2032" y2="63.8668">
				<stop  offset="0" style="stop-color:#454955"/>
				<stop  offset="0.3272" style="stop-color:#33363F"/>
				<stop  offset="0.7318" style="stop-color:#22242B"/>
				<stop  offset="1" style="stop-color:#1C1E23"/>
			</linearGradient>
			
				<linearGradient id="SVGID_00000154392198560484737020000008119446510730789536_" gradientUnits="userSpaceOnUse" x1="479.2557" y1="123.7362" x2="400.959" y2="-11.8778">
				<stop  offset="0" style="stop-color:#333333"/>
				<stop  offset="0.2646" style="stop-color:#3B3B3B;stop-opacity:0.9339"/>
				<stop  offset="0.6636" style="stop-color:#4F4F4F;stop-opacity:0.8341"/>
				<stop  offset="1" style="stop-color:#666666;stop-opacity:0.75"/>
			</linearGradient>
			
				<path style="fill:url(#SVGID_00000025403316298774741990000016891412424618466714_);stroke:url(#SVGID_00000154392198560484737020000008119446510730789536_);stroke-width:0.5;stroke-miterlimit:10;" d="
				M542.2,21.5v65.8c0-0.2,0-0.4-0.1-0.6c-1.3-10.1-2.5-20.1-3.8-30.2c-0.6-4.5-1.9-5.7-5.8-5.2c-54.6,6.9-109.2,13.7-163.8,20.6
				c-3.9,0.5-4.9,2-4.3,6.5c1.2,10.1,2.5,20.1,3.8,30.1c0,0.2,0.1,0.4,0.1,0.7l0.1,0.7c0.1,0.6,0,1.2-0.3,1.7c0,0,0,0,0,0
				c-0.3,0.6-0.9,1.1-1.6,1.2l-14.4,1.8c-1.2,0.2-2.4-0.8-2.5-2.2c0,0,0,0,0,0c-0.1-0.5-0.1-0.9-0.2-1.4
				c-3.2-25.2-6.4-50.5-9.5-75.7c-0.9-7.5,1.8-13.3,7.2-15.5c1-0.4,2.1-0.6,3.2-0.7c14.7-1.9,29.3-3.7,43.9-5.6
				c5.1-0.7,9,1.3,12.1,6c2.3,3.5,4.7,7,6.9,10.6c1.6,2.7,3.6,3.6,6.4,3.2c39.2-5,78.4-9.7,117.5-15c1.7-0.2,3.3-0.2,4.8,0.2
				C542.1,19.4,542.2,20.4,542.2,21.5z"/>
			<path class="st7" d="M542.2,74.6v17.7c-0.7,0.7-1.5,1.1-2.5,1.2l-166.7,21c-2,0.3-4-1-4.9-2.9c0,0,0,0,0,0
				c-0.3-0.6-0.5-1.3-0.6-2l-0.1-0.9l-4.7-37.1c-0.4-3.1,1.5-5.8,4.1-6.1l166.7-21c2.7-0.3,5.1,1.9,5.5,4.9L542.2,74.6z"/>
			
				<linearGradient id="SVGID_00000106139272518836866370000008868150432089709193_" gradientUnits="userSpaceOnUse" x1="354.109" y1="89.5015" x2="540.702" y2="197.231">
				<stop  offset="0" style="stop-color:#454955"/>
				<stop  offset="0.1051" style="stop-color:#3C404A"/>
				<stop  offset="0.482" style="stop-color:#222428"/>
				<stop  offset="0.7938" style="stop-color:#111214"/>
				<stop  offset="1" style="stop-color:#0B0C0C"/>
			</linearGradient>
			
				<linearGradient id="SVGID_00000082345456036891101050000013948037593459416728_" gradientUnits="userSpaceOnUse" x1="514.0344" y1="220.9785" x2="389.5574" y2="72.6326">
				<stop  offset="0" style="stop-color:#333333"/>
				<stop  offset="0.2646" style="stop-color:#3B3B3B;stop-opacity:0.9339"/>
				<stop  offset="0.6636" style="stop-color:#4F4F4F;stop-opacity:0.8341"/>
				<stop  offset="1" style="stop-color:#666666;stop-opacity:0.75"/>
			</linearGradient>
			
				<path style="fill:url(#SVGID_00000106139272518836866370000008868150432089709193_);stroke:url(#SVGID_00000082345456036891101050000013948037593459416728_);stroke-width:0.5;stroke-miterlimit:10;" d="
				M542.2,86.6v104.8c0,0.8-0.1,1.6-0.2,2.4c0,0.2-0.1,0.3-0.1,0.5c-1.3,5.2-6,9.1-11.6,9.1H358.3c-0.7-2.7-1.4-5.3-2.1-8
				c-6.3-23.3-12.6-46.6-18.9-69.9c-1.4-5.3,0.9-10.6,5.5-13v0c0.4-0.2,0.8-0.4,1.2-0.5c1.6-0.6,3.5-0.9,5.2-1.1c0,0,0.1,0,0.1,0
				c4.3-0.5,8.6-1.1,12.9-1.6c1.7-0.2,3.4-0.4,5.2-0.7c0.3,0,0.5-0.1,0.8-0.1C426.2,101.2,484.2,93.9,542.2,86.6
				C542.2,86.6,542.2,86.6,542.2,86.6z"/>
		</g>
		<g class="st4">
			<g>
				<defs>
					<path id="SVGID_00000142885672952220834790000000519049873915335311_" d="M542.2,161.3v30.1c0,0.8-0.1,1.6-0.2,2.4
						c0,0.2-0.1,0.3-0.1,0.5c0,0.2-0.1,0.3-0.2,0.5c0,0.2-0.1,0.3-0.1,0.5c-1.6,4.6-6,8-11.1,8.1h-57.6l-0.4,0l-0.9-0.1l-0.9-0.1h0
						l-1-0.1l-12.8,0.2l-0.8,0l-0.5,0l-0.7,0l-24.8,0h-1.9c-0.1-0.5-1.1-4-1.1-4.5c-5.3-33.4,17.5-64.8,50.9-70.1
						c19.4-3.1,38.2,3.3,51.5,15.8c0,0,0,0,0,0C534.7,149.4,539,155,542.2,161.3z"/>
				</defs>
				<clipPath id="SVGID_00000131334646518627538760000008099340046978200464_">
					<use xlink:href="#SVGID_00000142885672952220834790000000519049873915335311_"  style="overflow:visible;"/>
				</clipPath>
				<g style="clip-path:url(#SVGID_00000131334646518627538760000008099340046978200464_);">
					<g>
						<defs>
							<rect id="SVGID_00000113350601396049333990000013253245955207003568_" x="421.4" y="123" width="125.8" height="85.4"/>
						</defs>
						<clipPath id="SVGID_00000073717963151678943980000013452516334775527559_">
							<use xlink:href="#SVGID_00000113350601396049333990000013253245955207003568_"  style="overflow:visible;"/>
						</clipPath>
						<g style="clip-path:url(#SVGID_00000073717963151678943980000013452516334775527559_);">
							<defs>
								<rect id="SVGID_00000023252149288356483130000017319536307892684979_" x="421.4" y="123" width="125.8" height="85.4"/>
							</defs>
							<clipPath id="SVGID_00000170254713745639506940000001524399074305911202_">
								<use xlink:href="#SVGID_00000023252149288356483130000017319536307892684979_"  style="overflow:visible;"/>
							</clipPath>
							<g style="clip-path:url(#SVGID_00000170254713745639506940000001524399074305911202_);">
								
									<image style="overflow:visible;" width="263" height="179" xlink:href="8160C7DB.jpg"  transform="matrix(0.48 0 0 0.48 421.2933 122.619)">
								</image>
							</g>
						</g>
					</g>
				</g>
			</g>
		</g>
		<g class="st11">
			<path class="st12" d="M527.1,182.1c-0.2,1.3-0.8,2.4-1.5,3.5c-2.5,4.1-5.1,8.3-7.6,12.5c-0.8,1.3-1.6,2.7-2.4,4
				c-0.3,0.6-0.8,1-1.2,1.3c0,0,0,0,0,0h-4.4c0,0,0,0,0,0c-1.4-1-2-2.6-1.7-4.2c0.1-0.5,0.3-1,0.5-1.5c1.4-2.3,2.8-4.6,4.2-6.9
				c1.5-2.5,3.1-5,4.7-7.7c-0.3-0.1-0.6-0.2-0.9-0.4c-4.4-2.9-8.8-5.8-13.2-8.7c-1.9-1.3-2.6-3.6-1.5-5.5c1.1-2.1,3.6-2.8,5.7-1.4
				c2.4,1.6,4.9,3.2,7.3,4.8c3.1,2,6.1,4.1,9.2,6c1,0.7,2,1.4,2.6,2.5L527.1,182.1z"/>
			<path class="st12" d="M470.9,203.4h-14.7c0,0,0,0,0,0c-1.8-1.2-3.7-2.4-5.5-3.6c-0.6-0.4-1-1.1-1.5-1.7l-0.4-1.6
				c0.1-1.3,0.7-2.3,1.3-3.3c3.4-5.6,6.8-11.2,10.3-16.8c0.8-1.4,2.1-2.1,3.6-1.9c1.6,0.1,2.8,1,3.4,2.5c0.6,1.4,0.4,2.8-0.4,4
				c-2.8,4.5-5.5,9-8.2,13.5c-0.2,0.2-0.3,0.5-0.5,0.8c0.3,0.2,0.5,0.4,0.7,0.5c3.8,2.5,7.7,5.1,11.5,7.6h0
				C470.7,203.3,470.8,203.4,470.9,203.4z"/>
			<path class="st12" d="M497.3,160.2c-1,5.4-2.1,10.9-3.1,16.3c-1.6,8.3-3.2,16.6-4.8,24.8c-0.1,0.7-0.3,1.3-0.4,2v0h-8.2v0
				c0.1-0.4,0.1-0.7,0.2-1c2.8-14.5,5.6-29.1,8.3-43.6c0.5-2.5,2.1-3.9,4.3-3.7C496.2,155.3,497.8,157.6,497.3,160.2z"/>
		</g>
	</g>
	<g>
		<g>
		</g>
	</g>
	<g>
		<g>
			<g class="st13">
				<path class="st7" d="M15.4,100.5c-1.8,0-3.2-0.6-4.3-1.8c-1.1-1.2-1.6-2.7-1.6-4.6c0-2,0.5-3.6,1.6-4.8c1.1-1.2,2.6-1.8,4.5-1.8
					c1.7,0,3.1,0.6,4.2,1.8c1.1,1.2,1.6,2.7,1.6,4.6c0,2.1-0.5,3.7-1.6,4.9C18.7,99.9,17.3,100.5,15.4,100.5z M15.5,99.2
					c1.4,0,2.5-0.5,3.3-1.4c0.8-0.9,1.2-2.2,1.2-3.9c0-1.7-0.4-3-1.2-3.9c-0.8-0.9-1.9-1.4-3.3-1.4c-1.3,0-2.4,0.5-3.3,1.5
					c-0.8,1-1.3,2.3-1.3,3.8s0.4,2.9,1.2,3.8S14.1,99.2,15.5,99.2z"/>
				<path class="st7" d="M30.1,100.3l4.8-12.6h1.4l4.8,12.6h-1.5l-1.3-3.5h-5.4l-1.2,3.5H30.1z M33.3,95.5h4.5l-2-5.6
					c0-0.1-0.1-0.2-0.1-0.4s-0.1-0.3-0.1-0.5h0c0,0.2-0.1,0.3-0.1,0.5s-0.1,0.3-0.1,0.4L33.3,95.5z"/>
				<path class="st7" d="M44.8,89c-0.3,0-0.5-0.1-0.7-0.3s-0.3-0.4-0.3-0.7c0-0.3,0.1-0.5,0.3-0.7s0.4-0.3,0.7-0.3
					c0.3,0,0.5,0.1,0.7,0.3c0.2,0.2,0.3,0.4,0.3,0.7c0,0.3-0.1,0.5-0.3,0.7C45.3,88.9,45.1,89,44.8,89z M45.5,100.3h-1.3V91h1.3
					V100.3z"/>
				<path class="st7" d="M57.2,100.3h-1.8l-4.1-4.5h0v4.5h-1.3V86.9h1.3v8.4h0l3.9-4.3h1.7l-4.3,4.4L57.2,100.3z"/>
				<path class="st7" d="M63.9,100.5c-1.4,0-2.5-0.4-3.3-1.3c-0.8-0.9-1.2-2-1.2-3.4c0-1.5,0.4-2.7,1.3-3.6c0.8-0.9,2-1.3,3.4-1.3
					c1.4,0,2.4,0.4,3.2,1.3c0.8,0.9,1.2,2,1.2,3.5c0,1.5-0.4,2.6-1.2,3.5C66.4,100,65.3,100.5,63.9,100.5z M64,99.4
					c1,0,1.8-0.3,2.3-1c0.5-0.6,0.8-1.6,0.8-2.7c0-1.2-0.3-2.1-0.8-2.8s-1.3-1-2.3-1c-1,0-1.8,0.3-2.3,1c-0.6,0.7-0.9,1.6-0.9,2.8
					c0,1.1,0.3,2,0.9,2.7S63,99.4,64,99.4z"/>
				<path class="st7" d="M79.6,100.3h-1.3V95c0-1-0.2-1.8-0.5-2.3c-0.4-0.5-0.9-0.8-1.6-0.8c-0.8,0-1.4,0.3-1.9,0.9
					c-0.5,0.6-0.8,1.3-0.8,2.2v5.3H72V91h1.3v1.6h0c0.3-0.6,0.8-1,1.3-1.3c0.5-0.3,1.1-0.5,1.8-0.5c1,0,1.8,0.3,2.3,1
					s0.8,1.6,0.8,2.8V100.3z"/>
				<path class="st7" d="M89.9,100.3V87.7h3.6c1.1,0,1.9,0.3,2.6,0.8s0.9,1.2,0.9,2.1c0,0.7-0.2,1.3-0.6,1.9s-0.9,0.9-1.6,1.1v0
					c0.8,0.1,1.5,0.4,2,1c0.5,0.5,0.7,1.2,0.7,2.1c0,1.1-0.4,2-1.1,2.6s-1.7,1-2.9,1H89.9z M91.3,88.9v4.3h1.6c0.8,0,1.5-0.2,2-0.6
					c0.5-0.4,0.7-1,0.7-1.7c0-0.7-0.2-1.1-0.6-1.5s-1-0.5-1.9-0.5H91.3z M91.3,94.3V99h2.1c0.9,0,1.6-0.2,2.1-0.6
					c0.5-0.4,0.7-1,0.7-1.8c0-0.8-0.3-1.4-0.8-1.7c-0.5-0.4-1.3-0.6-2.3-0.6H91.3z"/>
				<path class="st7" d="M105.2,100.5c-1.4,0-2.5-0.4-3.3-1.3c-0.8-0.9-1.2-2-1.2-3.4c0-1.5,0.4-2.7,1.3-3.6c0.8-0.9,2-1.3,3.4-1.3
					c1.4,0,2.4,0.4,3.2,1.3c0.8,0.9,1.2,2,1.2,3.5c0,1.5-0.4,2.6-1.2,3.5C107.6,100,106.5,100.5,105.2,100.5z M105.2,99.4
					c1,0,1.8-0.3,2.3-1c0.5-0.6,0.8-1.6,0.8-2.7c0-1.2-0.3-2.1-0.8-2.8s-1.3-1-2.3-1c-1,0-1.8,0.3-2.3,1c-0.6,0.7-0.9,1.6-0.9,2.8
					c0,1.1,0.3,2,0.9,2.7S104.3,99.4,105.2,99.4z"/>
				<path class="st7" d="M119.9,91l-3.1,4.7l3,4.6h-1.6l-1.8-3c-0.1-0.1-0.1-0.2-0.2-0.3s-0.1-0.2-0.2-0.4h0
					c-0.1,0.1-0.1,0.2-0.2,0.3c-0.1,0.1-0.2,0.3-0.3,0.4l-1.9,3h-1.5l3.1-4.5l-3-4.7h1.5l1.9,3.2c0.1,0.1,0.1,0.3,0.2,0.4
					s0.1,0.2,0.2,0.4h0c0.1-0.1,0.1-0.3,0.2-0.4c0.1-0.1,0.1-0.2,0.2-0.4l1.9-3.2H119.9z"/>
				<path class="st7" d="M128.3,99.6l0.6-1c0.4,0.2,0.7,0.4,1.1,0.6s0.8,0.2,1.3,0.2c0.7,0,1.2-0.1,1.5-0.4s0.5-0.6,0.5-1.1
					c0-0.4-0.1-0.7-0.4-1c-0.3-0.3-0.8-0.5-1.5-0.7c-1.1-0.3-1.8-0.7-2.2-1.1c-0.4-0.4-0.6-1-0.6-1.6c0-0.8,0.3-1.4,0.9-1.9
					s1.3-0.7,2.3-0.7c0.5,0,0.9,0.1,1.3,0.2c0.4,0.1,0.9,0.3,1.3,0.6l-0.6,1c-0.4-0.2-0.7-0.4-1.1-0.5s-0.7-0.2-1-0.2
					c-0.6,0-1.1,0.1-1.4,0.4c-0.3,0.2-0.5,0.6-0.5,1c0,0.4,0.1,0.7,0.4,1c0.3,0.2,0.8,0.4,1.5,0.6c1,0.3,1.7,0.6,2.1,1.1
					c0.5,0.4,0.7,1,0.7,1.7c0,0.8-0.3,1.5-0.9,2c-0.6,0.5-1.4,0.7-2.4,0.7c-0.6,0-1.1-0.1-1.6-0.2
					C129.2,100.1,128.7,99.9,128.3,99.6z"/>
				<path class="st7" d="M138.7,89c-0.3,0-0.5-0.1-0.7-0.3s-0.3-0.4-0.3-0.7c0-0.3,0.1-0.5,0.3-0.7s0.4-0.3,0.7-0.3
					c0.3,0,0.5,0.1,0.7,0.3c0.2,0.2,0.3,0.4,0.3,0.7c0,0.3-0.1,0.5-0.3,0.7C139.2,88.9,139,89,138.7,89z M139.4,100.3H138V91h1.3
					V100.3z"/>
				<path class="st7" d="M156.7,100.3h-1.3v-5.4c0-1.1-0.2-1.8-0.5-2.3c-0.3-0.5-0.9-0.7-1.6-0.7c-0.7,0-1.2,0.3-1.7,0.9
					s-0.7,1.3-0.7,2.2v5.3h-1.3v-5.5c0-0.9-0.2-1.6-0.5-2.1c-0.4-0.5-0.9-0.7-1.6-0.7c-0.7,0-1.2,0.3-1.7,0.8
					c-0.4,0.6-0.7,1.3-0.7,2.2v5.3h-1.3V91h1.3v1.5h0c0.3-0.6,0.7-1,1.2-1.3s1-0.4,1.7-0.4c0.6,0,1.2,0.2,1.7,0.5
					c0.5,0.4,0.8,0.8,1,1.4c0.3-0.6,0.8-1.1,1.3-1.5c0.5-0.3,1.1-0.5,1.8-0.5c1,0,1.8,0.3,2.3,0.9s0.8,1.6,0.8,2.8V100.3z"/>
				<path class="st7" d="M162.1,98.8L162.1,98.8l0,5.6h-1.3V91h1.3v1.7h0c0.4-0.6,0.8-1.1,1.4-1.4c0.6-0.3,1.2-0.5,1.9-0.5
					c1.2,0,2.1,0.4,2.8,1.2s1,1.9,1,3.3c0,1.5-0.4,2.8-1.1,3.7c-0.8,0.9-1.8,1.4-3,1.4c-0.6,0-1.2-0.1-1.7-0.4
					C162.8,99.8,162.4,99.4,162.1,98.8z M162,95.2v1.2c0,0.8,0.3,1.5,0.8,2.1c0.5,0.6,1.2,0.9,2,0.9c0.9,0,1.6-0.4,2.1-1.1
					s0.8-1.7,0.8-2.9c0-1.1-0.2-1.9-0.7-2.5s-1.2-0.9-2-0.9c-0.9,0-1.6,0.3-2.2,0.9S162,94.3,162,95.2z"/>
				<path class="st7" d="M172.7,100.3V86.9h1.3v13.3H172.7z"/>
				<path class="st7" d="M178.9,89c-0.3,0-0.5-0.1-0.7-0.3s-0.3-0.4-0.3-0.7c0-0.3,0.1-0.5,0.3-0.7s0.4-0.3,0.7-0.3
					c0.3,0,0.5,0.1,0.7,0.3c0.2,0.2,0.3,0.4,0.3,0.7c0,0.3-0.1,0.5-0.3,0.7C179.4,88.9,179.2,89,178.9,89z M179.6,100.3h-1.3V91h1.3
					V100.3z"/>
				<path class="st7" d="M188.1,88c-0.2-0.1-0.3-0.1-0.4-0.1s-0.3,0-0.4,0c-0.5,0-0.9,0.1-1.1,0.4s-0.4,0.7-0.4,1.2V91h2.2v1.1h-2.2
					v8.1h-1.3v-8.1h-1.6V91h1.6v-1.6c0-0.9,0.3-1.5,0.8-2s1.2-0.7,2.1-0.7c0.2,0,0.4,0,0.6,0c0.2,0,0.4,0.1,0.6,0.1L188.1,88z"/>
				<path class="st7" d="M191.5,89c-0.3,0-0.5-0.1-0.7-0.3s-0.3-0.4-0.3-0.7c0-0.3,0.1-0.5,0.3-0.7s0.4-0.3,0.7-0.3
					c0.3,0,0.5,0.1,0.7,0.3c0.2,0.2,0.3,0.4,0.3,0.7c0,0.3-0.1,0.5-0.3,0.7C192,88.9,191.8,89,191.5,89z M192.2,100.3h-1.3V91h1.3
					V100.3z"/>
				<path class="st7" d="M203,99.7c-0.4,0.3-0.9,0.5-1.3,0.6c-0.4,0.1-0.9,0.2-1.4,0.2c-1.3,0-2.3-0.4-3.2-1.2
					c-0.8-0.8-1.2-2-1.2-3.4c0-1.5,0.4-2.7,1.3-3.6s2-1.4,3.4-1.4c0.4,0,0.9,0.1,1.3,0.2s0.8,0.3,1.2,0.5l-0.6,1
					c-0.3-0.2-0.7-0.3-1-0.4c-0.3-0.1-0.7-0.1-1-0.1c-1,0-1.9,0.4-2.4,1.1s-0.9,1.6-0.9,2.7c0,1.2,0.3,2.1,0.9,2.7
					c0.6,0.6,1.3,1,2.3,1c0.3,0,0.7,0,1-0.1s0.7-0.2,1-0.5L203,99.7z"/>
				<path class="st7" d="M212.9,100.3h-1.3v-1.6h0c-0.3,0.6-0.7,1-1.2,1.3c-0.5,0.3-1.1,0.5-1.7,0.5c-0.9,0-1.6-0.3-2.1-0.8
					c-0.5-0.5-0.8-1.2-0.8-2c0-0.8,0.3-1.5,0.8-2s1.3-0.8,2.4-1l2.6-0.4v-0.2c0-0.8-0.2-1.4-0.6-1.7c-0.4-0.4-0.9-0.6-1.5-0.6
					c-0.5,0-1,0.1-1.4,0.3s-0.9,0.5-1.3,0.8l-0.8-0.8c0.5-0.5,1-0.8,1.6-1.1s1.2-0.4,1.9-0.4c1.1,0,1.9,0.3,2.5,0.9
					c0.6,0.6,0.8,1.4,0.8,2.6V100.3z M211.5,96.4v-0.9l-2.3,0.3c-0.8,0.1-1.3,0.3-1.7,0.6s-0.5,0.7-0.5,1.3c0,0.5,0.2,0.9,0.5,1.3
					s0.8,0.5,1.3,0.5c0.8,0,1.5-0.3,2-0.8C211.3,98,211.5,97.3,211.5,96.4z"/>
				<path class="st7" d="M229.6,100.3h-1.3v-1.6h0c-0.3,0.6-0.7,1-1.2,1.3c-0.5,0.3-1.1,0.5-1.7,0.5c-0.9,0-1.6-0.3-2.1-0.8
					c-0.5-0.5-0.8-1.2-0.8-2c0-0.8,0.3-1.5,0.8-2s1.3-0.8,2.4-1l2.6-0.4v-0.2c0-0.8-0.2-1.4-0.6-1.7c-0.4-0.4-0.9-0.6-1.5-0.6
					c-0.5,0-1,0.1-1.4,0.3s-0.9,0.5-1.3,0.8l-0.8-0.8c0.5-0.5,1-0.8,1.6-1.1s1.2-0.4,1.9-0.4c1.1,0,1.9,0.3,2.5,0.9
					c0.6,0.6,0.8,1.4,0.8,2.6V100.3z M228.3,96.4v-0.9l-2.3,0.3c-0.8,0.1-1.3,0.3-1.7,0.6s-0.5,0.7-0.5,1.3c0,0.5,0.2,0.9,0.5,1.3
					s0.8,0.5,1.3,0.5c0.8,0,1.5-0.3,2-0.8C228,98,228.3,97.3,228.3,96.4z"/>
				<path class="st7" d="M246.3,100.3H245v-1.6h0c-0.3,0.6-0.7,1-1.2,1.3c-0.5,0.3-1.1,0.5-1.7,0.5c-0.9,0-1.6-0.3-2.1-0.8
					c-0.5-0.5-0.8-1.2-0.8-2c0-0.8,0.3-1.5,0.8-2s1.3-0.8,2.4-1l2.6-0.4v-0.2c0-0.8-0.2-1.4-0.6-1.7c-0.4-0.4-0.9-0.6-1.5-0.6
					c-0.5,0-1,0.1-1.4,0.3s-0.9,0.5-1.3,0.8l-0.8-0.8c0.5-0.5,1-0.8,1.6-1.1s1.2-0.4,1.9-0.4c1.1,0,1.9,0.3,2.5,0.9
					c0.6,0.6,0.8,1.4,0.8,2.6V100.3z M245,96.4v-0.9l-2.3,0.3c-0.8,0.1-1.3,0.3-1.7,0.6s-0.5,0.7-0.5,1.3c0,0.5,0.2,0.9,0.5,1.3
					s0.8,0.5,1.3,0.5c0.8,0,1.5-0.3,2-0.8C244.8,98,245,97.3,245,96.4z"/>
				<path class="st7" d="M256.8,98.7c-0.3,0.6-0.8,1-1.3,1.4c-0.5,0.3-1.2,0.5-1.9,0.5c-1.2,0-2.1-0.4-2.8-1.2
					c-0.7-0.8-1.1-2-1.1-3.4c0-1.5,0.4-2.7,1.2-3.7c0.8-0.9,1.8-1.4,3.1-1.4c0.7,0,1.2,0.1,1.7,0.4c0.5,0.3,0.9,0.7,1.1,1.2h0v-5.4
					h1.3v13.3h-1.3L256.8,98.7L256.8,98.7z M251.1,95.8c0,1.1,0.3,2,0.8,2.6c0.5,0.6,1.2,1,2,1c0.9,0,1.6-0.3,2.1-0.9
					c0.5-0.6,0.8-1.4,0.8-2.3v-1.5c0-0.8-0.3-1.4-0.8-2c-0.5-0.5-1.2-0.8-2-0.8c-0.9,0-1.7,0.3-2.2,1
					C251.4,93.6,251.1,94.6,251.1,95.8z"/>
				<path class="st7" d="M263.1,89c-0.3,0-0.5-0.1-0.7-0.3s-0.3-0.4-0.3-0.7c0-0.3,0.1-0.5,0.3-0.7s0.4-0.3,0.7-0.3
					c0.3,0,0.5,0.1,0.7,0.3c0.2,0.2,0.3,0.4,0.3,0.7c0,0.3-0.1,0.5-0.3,0.7C263.6,88.9,263.4,89,263.1,89z M263.7,100.3h-1.3V91h1.3
					V100.3z"/>
				<path class="st7" d="M274.5,99.7c-0.4,0.3-0.9,0.5-1.3,0.6c-0.4,0.1-0.9,0.2-1.4,0.2c-1.3,0-2.3-0.4-3.2-1.2
					c-0.8-0.8-1.2-2-1.2-3.4c0-1.5,0.4-2.7,1.3-3.6s2-1.4,3.4-1.4c0.4,0,0.9,0.1,1.3,0.2s0.8,0.3,1.2,0.5l-0.6,1
					c-0.3-0.2-0.7-0.3-1-0.4c-0.3-0.1-0.7-0.1-1-0.1c-1,0-1.9,0.4-2.4,1.1s-0.9,1.6-0.9,2.7c0,1.2,0.3,2.1,0.9,2.7
					c0.6,0.6,1.3,1,2.3,1c0.3,0,0.7,0,1-0.1s0.7-0.2,1-0.5L274.5,99.7z M271.6,100.3v0.9c0.6,0,1,0.1,1.3,0.3c0.3,0.2,0.5,0.6,0.5,1
					c0,0.5-0.2,0.9-0.6,1.2c-0.4,0.3-0.9,0.4-1.7,0.4c-0.2,0-0.3,0-0.4,0c-0.1,0-0.2,0-0.4,0l0.1-0.7c0.1,0,0.3,0,0.4,0
					c0.1,0,0.2,0,0.3,0c0.4,0,0.7-0.1,1-0.2c0.2-0.1,0.3-0.3,0.3-0.6c0-0.2-0.1-0.4-0.3-0.5c-0.2-0.1-0.5-0.2-0.9-0.2
					c-0.1,0-0.1,0-0.2,0c-0.1,0-0.1,0-0.2,0v-1.6H271.6z"/>
				<path class="st7" d="M284.4,100.3h-1.3v-1.6h0c-0.3,0.6-0.7,1-1.2,1.3c-0.5,0.3-1.1,0.5-1.7,0.5c-0.9,0-1.6-0.3-2.1-0.8
					c-0.5-0.5-0.8-1.2-0.8-2c0-0.8,0.3-1.5,0.8-2s1.3-0.8,2.4-1l2.6-0.4v-0.2c0-0.8-0.2-1.4-0.6-1.7c-0.4-0.4-0.9-0.6-1.5-0.6
					c-0.5,0-1,0.1-1.4,0.3s-0.9,0.5-1.3,0.8l-0.8-0.8c0.5-0.5,1-0.8,1.6-1.1s1.2-0.4,1.9-0.4c1.1,0,1.9,0.3,2.5,0.9
					c0.6,0.6,0.8,1.4,0.8,2.6V100.3z M284,87.3c0,0.6-0.1,1.1-0.4,1.5c-0.3,0.4-0.7,0.6-1.1,0.6c-0.2,0-0.4,0-0.7-0.1
					s-0.5-0.2-0.7-0.4c-0.2-0.1-0.4-0.2-0.6-0.3c-0.2-0.1-0.3-0.1-0.5-0.1c-0.3,0-0.5,0.1-0.6,0.3s-0.2,0.4-0.2,0.8h-0.8
					c0-0.6,0.1-1.1,0.4-1.5c0.3-0.4,0.7-0.6,1.2-0.6c0.2,0,0.4,0,0.6,0.1s0.5,0.2,0.7,0.4c0.2,0.1,0.4,0.2,0.6,0.3s0.3,0.1,0.5,0.1
					c0.2,0,0.4-0.1,0.6-0.3s0.2-0.5,0.2-0.8H284z M283.1,96.4v-0.9l-2.3,0.3c-0.8,0.1-1.3,0.3-1.7,0.6s-0.5,0.7-0.5,1.3
					c0,0.5,0.2,0.9,0.5,1.3s0.8,0.5,1.3,0.5c0.8,0,1.5-0.3,2-0.8C282.9,98,283.1,97.3,283.1,96.4z"/>
				<path class="st7" d="M292.4,100.5c-1.4,0-2.5-0.4-3.3-1.3c-0.8-0.9-1.2-2-1.2-3.4c0-1.5,0.4-2.7,1.3-3.6c0.8-0.9,2-1.3,3.4-1.3
					c1.4,0,2.4,0.4,3.2,1.3c0.8,0.9,1.2,2,1.2,3.5c0,1.5-0.4,2.6-1.2,3.5C294.8,100,293.7,100.5,292.4,100.5z M292.4,99.4
					c1,0,1.8-0.3,2.3-1c0.5-0.6,0.8-1.6,0.8-2.7c0-1.2-0.3-2.1-0.8-2.8s-1.3-1-2.3-1c-1,0-1.8,0.3-2.3,1c-0.6,0.7-0.9,1.6-0.9,2.8
					c0,1.1,0.3,2,0.9,2.7S291.5,99.4,292.4,99.4z"/>
				<path class="st7" d="M16.6,120.3c-0.3,0.6-0.8,1-1.3,1.4s-1.2,0.5-1.9,0.5c-1.2,0-2.1-0.4-2.8-1.2c-0.7-0.8-1.1-2-1.1-3.4
					c0-1.5,0.4-2.7,1.2-3.7c0.8-0.9,1.8-1.4,3.1-1.4c0.7,0,1.2,0.1,1.7,0.4c0.5,0.3,0.9,0.7,1.1,1.2h0v-5.4h1.3v13.3h-1.3
					L16.6,120.3L16.6,120.3z M10.9,117.4c0,1.1,0.3,2,0.8,2.6c0.5,0.6,1.2,1,2,1c0.9,0,1.6-0.3,2.1-0.9c0.5-0.6,0.8-1.4,0.8-2.3
					v-1.5c0-0.8-0.3-1.4-0.8-2c-0.5-0.5-1.2-0.8-2-0.8c-0.9,0-1.7,0.3-2.2,1C11.2,115.2,10.9,116.2,10.9,117.4z"/>
				<path class="st7" d="M29.5,117.5h-6.6c0,1.1,0.3,2,0.9,2.6c0.5,0.6,1.3,0.9,2.3,0.9c0.4,0,0.8-0.1,1.3-0.2s0.9-0.4,1.3-0.7
					l0.6,0.9c-0.5,0.4-1,0.6-1.6,0.8c-0.5,0.2-1.1,0.3-1.8,0.3c-1.3,0-2.4-0.4-3.2-1.2s-1.2-2-1.2-3.5c0-1.5,0.4-2.6,1.2-3.5
					c0.8-0.9,1.8-1.4,3.1-1.4c1.2,0,2.1,0.4,2.8,1.2s1,1.9,1,3.3V117.5z M28.2,116.4c0-0.9-0.2-1.6-0.7-2.1s-1-0.8-1.8-0.8
					c-0.8,0-1.4,0.3-1.9,0.8c-0.5,0.5-0.8,1.2-0.9,2.1H28.2z"/>
				<path class="st7" d="M39.8,111h-1.1l2-2.9h1.3L39.8,111z M39.1,121.9v-9.2h1.3v9.2H39.1z"/>
				<path class="st7" d="M51.2,121.3c-0.4,0.3-0.9,0.5-1.3,0.6c-0.4,0.1-0.9,0.2-1.4,0.2c-1.3,0-2.3-0.4-3.2-1.2
					c-0.8-0.8-1.2-2-1.2-3.4c0-1.5,0.4-2.7,1.3-3.6s2-1.4,3.4-1.4c0.4,0,0.9,0.1,1.3,0.2s0.8,0.3,1.2,0.5l-0.6,1
					c-0.3-0.2-0.7-0.3-1-0.4c-0.3-0.1-0.7-0.1-1-0.1c-1,0-1.9,0.4-2.4,1.1s-0.9,1.6-0.9,2.7c0,1.2,0.3,2.1,0.9,2.7
					c0.6,0.6,1.3,1,2.3,1c0.3,0,0.7,0,1-0.1s0.7-0.2,1-0.5L51.2,121.3z"/>
				<path class="st7" d="M58.4,122.1c-1.4,0-2.5-0.4-3.3-1.3c-0.8-0.9-1.2-2-1.2-3.4c0-1.5,0.4-2.7,1.3-3.6c0.8-0.9,2-1.3,3.4-1.3
					c1.4,0,2.4,0.4,3.2,1.3c0.8,0.9,1.2,2,1.2,3.5c0,1.5-0.4,2.6-1.2,3.5C60.9,121.6,59.8,122.1,58.4,122.1z M58.5,121
					c1,0,1.8-0.3,2.3-1c0.5-0.6,0.8-1.6,0.8-2.7c0-1.2-0.3-2.1-0.8-2.8s-1.3-1-2.3-1c-1,0-1.8,0.3-2.3,1c-0.6,0.7-0.9,1.6-0.9,2.8
					c0,1.1,0.3,2,0.9,2.7S57.5,121,58.5,121z"/>
				<path class="st7" d="M74,121.9h-1.3v-5.3c0-1-0.2-1.8-0.5-2.3c-0.4-0.5-0.9-0.8-1.6-0.8c-0.8,0-1.4,0.3-1.9,0.9
					c-0.5,0.6-0.8,1.3-0.8,2.2v5.3h-1.3v-9.2h1.3v1.6h0c0.3-0.6,0.8-1,1.3-1.3c0.5-0.3,1.1-0.5,1.8-0.5c1,0,1.8,0.3,2.3,1
					s0.8,1.6,0.8,2.8V121.9z"/>
				<path class="st7" d="M85.4,117.5h-6.6c0,1.1,0.3,2,0.9,2.6c0.5,0.6,1.3,0.9,2.3,0.9c0.4,0,0.8-0.1,1.3-0.2s0.9-0.4,1.3-0.7
					l0.6,0.9c-0.5,0.4-1,0.6-1.6,0.8c-0.5,0.2-1.1,0.3-1.8,0.3c-1.3,0-2.4-0.4-3.2-1.2s-1.2-2-1.2-3.5c0-1.5,0.4-2.6,1.2-3.5
					c0.8-0.9,1.8-1.4,3.1-1.4c1.2,0,2.1,0.4,2.8,1.2s1,1.9,1,3.3V117.5z M84.1,116.4c0-0.9-0.2-1.6-0.7-2.1s-1-0.8-1.8-0.8
					c-0.8,0-1.4,0.3-1.9,0.8c-0.5,0.5-0.8,1.2-0.9,2.1H84.1z"/>
				<path class="st7" d="M88.2,121.2l0.6-1c0.4,0.2,0.7,0.4,1.1,0.6s0.8,0.2,1.3,0.2c0.7,0,1.2-0.1,1.5-0.4s0.5-0.6,0.5-1.1
					c0-0.4-0.1-0.7-0.4-1c-0.3-0.3-0.8-0.5-1.5-0.7c-1.1-0.3-1.8-0.7-2.2-1.1c-0.4-0.4-0.6-1-0.6-1.6c0-0.8,0.3-1.4,0.9-1.9
					s1.3-0.7,2.3-0.7c0.5,0,0.9,0.1,1.3,0.2c0.4,0.1,0.9,0.3,1.3,0.6l-0.6,1c-0.4-0.2-0.7-0.4-1.1-0.5s-0.7-0.2-1-0.2
					c-0.6,0-1.1,0.1-1.4,0.4c-0.3,0.2-0.5,0.6-0.5,1c0,0.4,0.1,0.7,0.4,1c0.3,0.2,0.8,0.4,1.5,0.6c1,0.3,1.7,0.6,2.1,1.1
					c0.5,0.4,0.7,1,0.7,1.7c0,0.8-0.3,1.5-0.9,2c-0.6,0.5-1.4,0.7-2.4,0.7c-0.6,0-1.1-0.1-1.6-0.2C89.1,121.7,88.6,121.5,88.2,121.2
					z"/>
				<path class="st7" d="M105.4,120.4L105.4,120.4l0,5.6h-1.3v-13.4h1.3v1.7h0c0.4-0.6,0.8-1.1,1.4-1.4c0.6-0.3,1.2-0.5,1.9-0.5
					c1.2,0,2.1,0.4,2.8,1.2s1,1.9,1,3.3c0,1.5-0.4,2.8-1.1,3.7c-0.8,0.9-1.8,1.4-3,1.4c-0.6,0-1.2-0.1-1.7-0.4
					C106.1,121.4,105.8,121,105.4,120.4z M105.4,116.8v1.2c0,0.8,0.3,1.5,0.8,2.1c0.5,0.6,1.2,0.9,2,0.9c0.9,0,1.6-0.4,2.1-1.1
					s0.8-1.7,0.8-2.9c0-1.1-0.2-1.9-0.7-2.5s-1.2-0.9-2-0.9c-0.9,0-1.6,0.3-2.2,0.9S105.4,115.9,105.4,116.8z"/>
				<path class="st7" d="M123.4,117.5h-6.6c0,1.1,0.3,2,0.9,2.6c0.5,0.6,1.3,0.9,2.3,0.9c0.4,0,0.8-0.1,1.3-0.2s0.9-0.4,1.3-0.7
					l0.6,0.9c-0.5,0.4-1,0.6-1.6,0.8c-0.5,0.2-1.1,0.3-1.8,0.3c-1.3,0-2.4-0.4-3.2-1.2s-1.2-2-1.2-3.5c0-1.5,0.4-2.6,1.2-3.5
					c0.8-0.9,1.8-1.4,3.1-1.4c1.2,0,2.1,0.4,2.8,1.2s1,1.9,1,3.3V117.5z M122.1,116.4c0-0.9-0.2-1.6-0.7-2.1s-1-0.8-1.8-0.8
					c-0.8,0-1.4,0.3-1.9,0.8c-0.5,0.5-0.8,1.2-0.9,2.1H122.1z"/>
				<path class="st7" d="M131.4,113.8c-0.1,0-0.2-0.1-0.4-0.1s-0.2,0-0.4,0c-0.8,0-1.4,0.3-1.8,1c-0.4,0.7-0.7,1.6-0.7,2.6v4.6h-1.3
					v-9.2h1.3v1.9h0c0.2-0.7,0.5-1.2,1-1.5s1-0.5,1.6-0.5c0.2,0,0.3,0,0.4,0s0.3,0,0.4,0.1L131.4,113.8z"/>
				<path class="st7" d="M133.8,121.2l0.6-1c0.4,0.2,0.7,0.4,1.1,0.6s0.8,0.2,1.3,0.2c0.7,0,1.2-0.1,1.5-0.4s0.5-0.6,0.5-1.1
					c0-0.4-0.1-0.7-0.4-1c-0.3-0.3-0.8-0.5-1.5-0.7c-1.1-0.3-1.8-0.7-2.2-1.1c-0.4-0.4-0.6-1-0.6-1.6c0-0.8,0.3-1.4,0.9-1.9
					s1.3-0.7,2.3-0.7c0.5,0,0.9,0.1,1.3,0.2c0.4,0.1,0.9,0.3,1.3,0.6l-0.6,1c-0.4-0.2-0.7-0.4-1.1-0.5s-0.7-0.2-1-0.2
					c-0.6,0-1.1,0.1-1.4,0.4c-0.3,0.2-0.5,0.6-0.5,1c0,0.4,0.1,0.7,0.4,1c0.3,0.2,0.8,0.4,1.5,0.6c1,0.3,1.7,0.6,2.1,1.1
					c0.5,0.4,0.7,1,0.7,1.7c0,0.8-0.3,1.5-0.9,2c-0.6,0.5-1.4,0.7-2.4,0.7c-0.6,0-1.1-0.1-1.6-0.2
					C134.7,121.7,134.2,121.5,133.8,121.2z"/>
				<path class="st7" d="M147.4,122.1c-1.4,0-2.5-0.4-3.3-1.3c-0.8-0.9-1.2-2-1.2-3.4c0-1.5,0.4-2.7,1.3-3.6c0.8-0.9,2-1.3,3.4-1.3
					c1.4,0,2.4,0.4,3.2,1.3c0.8,0.9,1.2,2,1.2,3.5c0,1.5-0.4,2.6-1.2,3.5C149.9,121.6,148.8,122.1,147.4,122.1z M147.5,121
					c1,0,1.8-0.3,2.3-1c0.5-0.6,0.8-1.6,0.8-2.7c0-1.2-0.3-2.1-0.8-2.8s-1.3-1-2.3-1c-1,0-1.8,0.3-2.3,1c-0.6,0.7-0.9,1.6-0.9,2.8
					c0,1.1,0.3,2,0.9,2.7S146.5,121,147.5,121z"/>
				<path class="st7" d="M163.1,121.9h-1.3v-5.3c0-1-0.2-1.8-0.5-2.3c-0.4-0.5-0.9-0.8-1.6-0.8c-0.8,0-1.4,0.3-1.9,0.9
					c-0.5,0.6-0.8,1.3-0.8,2.2v5.3h-1.3v-9.2h1.3v1.6h0c0.3-0.6,0.8-1,1.3-1.3c0.5-0.3,1.1-0.5,1.8-0.5c1,0,1.8,0.3,2.3,1
					s0.8,1.6,0.8,2.8V121.9z"/>
				<path class="st7" d="M173.7,121.9h-1.3v-1.6h0c-0.3,0.6-0.7,1-1.2,1.3c-0.5,0.3-1.1,0.5-1.7,0.5c-0.9,0-1.6-0.3-2.1-0.8
					c-0.5-0.5-0.8-1.2-0.8-2c0-0.8,0.3-1.5,0.8-2s1.3-0.8,2.4-1l2.6-0.4v-0.2c0-0.8-0.2-1.4-0.6-1.7c-0.4-0.4-0.9-0.6-1.5-0.6
					c-0.5,0-1,0.1-1.4,0.3s-0.9,0.5-1.3,0.8l-0.8-0.8c0.5-0.5,1-0.8,1.6-1.1s1.2-0.4,1.9-0.4c1.1,0,1.9,0.3,2.5,0.9
					c0.6,0.6,0.8,1.4,0.8,2.6V121.9z M172.4,118v-0.9l-2.3,0.3c-0.8,0.1-1.3,0.3-1.7,0.6s-0.5,0.7-0.5,1.3c0,0.5,0.2,0.9,0.5,1.3
					s0.8,0.5,1.3,0.5c0.8,0,1.5-0.3,2-0.8C172.1,119.6,172.4,118.9,172.4,118z"/>
				<path class="st7" d="M177.8,121.9v-13.3h1.3v13.3H177.8z"/>
				<path class="st7" d="M184,110.6c-0.3,0-0.5-0.1-0.7-0.3s-0.3-0.4-0.3-0.7c0-0.3,0.1-0.5,0.3-0.7s0.4-0.3,0.7-0.3
					c0.3,0,0.5,0.1,0.7,0.3c0.2,0.2,0.3,0.4,0.3,0.7c0,0.3-0.1,0.5-0.3,0.7C184.5,110.5,184.3,110.6,184,110.6z M184.6,121.9h-1.3
					v-9.2h1.3V121.9z"/>
				<path class="st7" d="M195.5,113l-5.7,7.7h5.5v1.1h-7.5v-0.4l5.7-7.7h-5.2v-1.1h7.1V113z"/>
				<path class="st7" d="M205.3,121.9H204v-1.6h0c-0.3,0.6-0.7,1-1.2,1.3c-0.5,0.3-1.1,0.5-1.7,0.5c-0.9,0-1.6-0.3-2.1-0.8
					c-0.5-0.5-0.8-1.2-0.8-2c0-0.8,0.3-1.5,0.8-2s1.3-0.8,2.4-1l2.6-0.4v-0.2c0-0.8-0.2-1.4-0.6-1.7c-0.4-0.4-0.9-0.6-1.5-0.6
					c-0.5,0-1,0.1-1.4,0.3s-0.9,0.5-1.3,0.8l-0.8-0.8c0.5-0.5,1-0.8,1.6-1.1s1.2-0.4,1.9-0.4c1.1,0,1.9,0.3,2.5,0.9
					c0.6,0.6,0.8,1.4,0.8,2.6V121.9z M204,118v-0.9l-2.3,0.3c-0.8,0.1-1.3,0.3-1.7,0.6s-0.5,0.7-0.5,1.3c0,0.5,0.2,0.9,0.5,1.3
					s0.8,0.5,1.3,0.5c0.8,0,1.5-0.3,2-0.8C203.7,119.6,204,118.9,204,118z"/>
				<path class="st7" d="M215.8,120.3c-0.3,0.6-0.8,1-1.3,1.4s-1.2,0.5-1.9,0.5c-1.2,0-2.1-0.4-2.8-1.2c-0.7-0.8-1.1-2-1.1-3.4
					c0-1.5,0.4-2.7,1.2-3.7c0.8-0.9,1.8-1.4,3.1-1.4c0.7,0,1.2,0.1,1.7,0.4c0.5,0.3,0.9,0.7,1.1,1.2h0v-5.4h1.3v13.3h-1.3
					L215.8,120.3L215.8,120.3z M210.1,117.4c0,1.1,0.3,2,0.8,2.6c0.5,0.6,1.2,1,2,1c0.9,0,1.6-0.3,2.1-0.9s0.8-1.4,0.8-2.3v-1.5
					c0-0.8-0.3-1.4-0.8-2c-0.5-0.5-1.2-0.8-2-0.8c-0.9,0-1.7,0.3-2.2,1C210.4,115.2,210.1,116.2,210.1,117.4z"/>
				<path class="st7" d="M225.2,122.1c-1.4,0-2.5-0.4-3.3-1.3c-0.8-0.9-1.2-2-1.2-3.4c0-1.5,0.4-2.7,1.3-3.6c0.8-0.9,2-1.3,3.4-1.3
					c1.4,0,2.4,0.4,3.2,1.3c0.8,0.9,1.2,2,1.2,3.5c0,1.5-0.4,2.6-1.2,3.5C227.7,121.6,226.6,122.1,225.2,122.1z M225.3,121
					c1,0,1.8-0.3,2.3-1c0.5-0.6,0.8-1.6,0.8-2.7c0-1.2-0.3-2.1-0.8-2.8s-1.3-1-2.3-1c-1,0-1.8,0.3-2.3,1c-0.6,0.7-0.9,1.6-0.9,2.8
					c0,1.1,0.3,2,0.9,2.7S224.3,121,225.3,121z"/>
				<path class="st7" d="M232.6,121.2l0.6-1c0.4,0.2,0.7,0.4,1.1,0.6s0.8,0.2,1.3,0.2c0.7,0,1.2-0.1,1.5-0.4s0.5-0.6,0.5-1.1
					c0-0.4-0.1-0.7-0.4-1c-0.3-0.3-0.8-0.5-1.5-0.7c-1.1-0.3-1.8-0.7-2.2-1.1c-0.4-0.4-0.6-1-0.6-1.6c0-0.8,0.3-1.4,0.9-1.9
					s1.3-0.7,2.3-0.7c0.5,0,0.9,0.1,1.3,0.2c0.4,0.1,0.9,0.3,1.3,0.6l-0.6,1c-0.4-0.2-0.7-0.4-1.1-0.5s-0.7-0.2-1-0.2
					c-0.6,0-1.1,0.1-1.4,0.4c-0.3,0.2-0.5,0.6-0.5,1c0,0.4,0.1,0.7,0.4,1c0.3,0.2,0.8,0.4,1.5,0.6c1,0.3,1.7,0.6,2.1,1.1
					c0.5,0.4,0.7,1,0.7,1.7c0,0.8-0.3,1.5-0.9,2c-0.6,0.5-1.4,0.7-2.4,0.7c-0.6,0-1.1-0.1-1.6-0.2
					C233.5,121.7,233,121.5,232.6,121.2z"/>
				<path class="st7" d="M255,121.9h-1.3v-1.6h0c-0.3,0.6-0.7,1-1.2,1.3c-0.5,0.3-1.1,0.5-1.7,0.5c-0.9,0-1.6-0.3-2.1-0.8
					c-0.5-0.5-0.8-1.2-0.8-2c0-0.8,0.3-1.5,0.8-2s1.3-0.8,2.4-1l2.6-0.4v-0.2c0-0.8-0.2-1.4-0.6-1.7c-0.4-0.4-0.9-0.6-1.5-0.6
					c-0.5,0-1,0.1-1.4,0.3s-0.9,0.5-1.3,0.8l-0.8-0.8c0.5-0.5,1-0.8,1.6-1.1s1.2-0.4,1.9-0.4c1.1,0,1.9,0.3,2.5,0.9
					c0.6,0.6,0.8,1.4,0.8,2.6V121.9z M253.7,118v-0.9l-2.3,0.3c-0.8,0.1-1.3,0.3-1.7,0.6s-0.5,0.7-0.5,1.3c0,0.5,0.2,0.9,0.5,1.3
					s0.8,0.5,1.3,0.5c0.8,0,1.5-0.3,2-0.8C253.4,119.6,253.7,118.9,253.7,118z"/>
				<path class="st7" d="M262.9,122.1c-1.4,0-2.5-0.4-3.3-1.3c-0.8-0.9-1.2-2-1.2-3.4c0-1.5,0.4-2.7,1.3-3.6c0.8-0.9,2-1.3,3.4-1.3
					c1.4,0,2.4,0.4,3.2,1.3c0.8,0.9,1.2,2,1.2,3.5c0,1.5-0.4,2.6-1.2,3.5C265.4,121.6,264.3,122.1,262.9,122.1z M263,121
					c1,0,1.8-0.3,2.3-1c0.5-0.6,0.8-1.6,0.8-2.7c0-1.2-0.3-2.1-0.8-2.8s-1.3-1-2.3-1c-1,0-1.8,0.3-2.3,1c-0.6,0.7-0.9,1.6-0.9,2.8
					c0,1.1,0.3,2,0.9,2.7S262,121,263,121z"/>
				<path class="st7" d="M276.4,121.2l0.6-1c0.4,0.2,0.7,0.4,1.1,0.6s0.8,0.2,1.3,0.2c0.7,0,1.2-0.1,1.5-0.4s0.5-0.6,0.5-1.1
					c0-0.4-0.1-0.7-0.4-1c-0.3-0.3-0.8-0.5-1.5-0.7c-1.1-0.3-1.8-0.7-2.2-1.1c-0.4-0.4-0.6-1-0.6-1.6c0-0.8,0.3-1.4,0.9-1.9
					s1.3-0.7,2.3-0.7c0.5,0,0.9,0.1,1.3,0.2c0.4,0.1,0.9,0.3,1.3,0.6l-0.6,1c-0.4-0.2-0.7-0.4-1.1-0.5s-0.7-0.2-1-0.2
					c-0.6,0-1.1,0.1-1.4,0.4c-0.3,0.2-0.5,0.6-0.5,1c0,0.4,0.1,0.7,0.4,1c0.3,0.2,0.8,0.4,1.5,0.6c1,0.3,1.7,0.6,2.1,1.1
					c0.5,0.4,0.7,1,0.7,1.7c0,0.8-0.3,1.5-0.9,2c-0.6,0.5-1.4,0.7-2.4,0.7c-0.6,0-1.1-0.1-1.6-0.2
					C277.3,121.7,276.8,121.5,276.4,121.2z"/>
				<path class="st7" d="M293.5,117.5h-6.6c0,1.1,0.3,2,0.9,2.6c0.5,0.6,1.3,0.9,2.3,0.9c0.4,0,0.8-0.1,1.3-0.2s0.9-0.4,1.3-0.7
					l0.6,0.9c-0.5,0.4-1,0.6-1.6,0.8c-0.5,0.2-1.1,0.3-1.8,0.3c-1.3,0-2.4-0.4-3.2-1.2s-1.2-2-1.2-3.5c0-1.5,0.4-2.6,1.2-3.5
					c0.8-0.9,1.8-1.4,3.1-1.4c1.2,0,2.1,0.4,2.8,1.2s1,1.9,1,3.3V117.5z M292.2,116.4c0-0.9-0.2-1.6-0.7-2.1s-1-0.8-1.8-0.8
					c-0.8,0-1.4,0.3-1.9,0.8c-0.5,0.5-0.8,1.2-0.9,2.1H292.2z"/>
				<path class="st7" d="M304.4,121.9h-1.3v-1.5h0c-0.3,0.6-0.7,1-1.2,1.3c-0.5,0.3-1.1,0.4-1.7,0.4c-1.1,0-1.9-0.3-2.5-1
					s-0.8-1.7-0.8-3v-5.5h1.3v5.2c0,1,0.2,1.8,0.6,2.3c0.4,0.5,1,0.8,1.7,0.8c0.8,0,1.4-0.3,1.9-0.8c0.5-0.6,0.7-1.3,0.7-2.2v-5.3
					h1.3V121.9z"/>
				<path class="st7" d="M18.9,143.5h-1.6l-2-3.6c-0.4-0.7-0.7-1.1-1-1.4c-0.3-0.2-0.7-0.3-1.1-0.3h-1.5v5.3h-1.4v-12.6H14
					c1.1,0,2,0.3,2.7,0.9s1.1,1.4,1.1,2.5c0,0.9-0.2,1.6-0.7,2.2s-1.1,1-2,1.3v0c0.3,0.1,0.5,0.3,0.7,0.5c0.2,0.2,0.5,0.5,0.7,0.9
					L18.9,143.5z M11.7,132.1v4.9h2c0.8,0,1.4-0.2,1.9-0.7c0.5-0.5,0.8-1.1,0.8-1.9c0-0.7-0.2-1.3-0.7-1.7c-0.4-0.4-1.1-0.6-1.9-0.6
					H11.7z"/>
				<path class="st7" d="M28.8,143.5h-6.6v-12.6h6.3v1.2h-4.9v4.4h4.6v1.2h-4.6v4.6h5.2V143.5z"/>
				<path class="st7" d="M31.4,143.5l4.8-12.6h1.4l4.8,12.6h-1.5l-1.3-3.5h-5.4l-1.2,3.5H31.4z M34.6,138.7h4.5l-2-5.6
					c0-0.1-0.1-0.2-0.1-0.4s-0.1-0.3-0.1-0.5h0c0,0.2-0.1,0.3-0.1,0.5s-0.1,0.3-0.1,0.4L34.6,138.7z"/>
				<path class="st7" d="M45.7,143.5v-12.6h3.4c2.2,0,3.8,0.5,4.9,1.5s1.7,2.6,1.7,4.6c0,2-0.6,3.5-1.8,4.7s-2.9,1.8-4.9,1.8H45.7z
					 M47,132.1v10.2h1.9c1.7,0,3-0.5,3.9-1.4s1.4-2.2,1.4-3.9c0-1.7-0.4-2.9-1.3-3.7s-2.2-1.2-3.9-1.2H47z"/>
				<path class="st7" d="M72.1,143.5h-1.3v-8.6c0-0.3,0-0.6,0-1s0-0.8,0.1-1.3h0c-0.1,0.3-0.1,0.5-0.2,0.7s-0.1,0.4-0.2,0.5
					l-4.3,9.7h-0.7l-4.3-9.6c-0.1-0.1-0.1-0.3-0.2-0.5c-0.1-0.2-0.1-0.5-0.2-0.7h0c0,0.3,0,0.6,0.1,1s0,0.8,0,1.3v8.6h-1.3v-12.6
					h1.7l4.1,9.1c0.1,0.3,0.2,0.5,0.3,0.8s0.2,0.4,0.2,0.6h0.1c0.1-0.3,0.2-0.6,0.3-0.8c0.1-0.2,0.2-0.4,0.2-0.6l4.1-9.1h1.6V143.5z
					"/>
				<path class="st7" d="M83.3,143.5h-6.6v-12.6h6.3v1.2h-4.9v4.4h4.6v1.2h-4.6v4.6h5.2V143.5z"/>
				<path class="st7" d="M100.7,143.5h-1.3v-5.3c0-1-0.2-1.8-0.5-2.3c-0.4-0.5-0.9-0.8-1.6-0.8c-0.8,0-1.4,0.3-1.9,0.9
					c-0.5,0.6-0.8,1.3-0.8,2.2v5.3h-1.3v-9.2h1.3v1.6h0c0.3-0.6,0.8-1,1.3-1.3c0.5-0.3,1.1-0.5,1.8-0.5c1,0,1.8,0.3,2.3,1
					s0.8,1.6,0.8,2.8V143.5z"/>
				<path class="st7" d="M108.6,143.7c-1.4,0-2.5-0.4-3.3-1.3c-0.8-0.9-1.2-2-1.2-3.4c0-1.5,0.4-2.7,1.3-3.6c0.8-0.9,2-1.3,3.4-1.3
					c1.4,0,2.4,0.4,3.2,1.3c0.8,0.9,1.2,2,1.2,3.5c0,1.5-0.4,2.6-1.2,3.5C111.1,143.2,110,143.7,108.6,143.7z M108.7,142.6
					c1,0,1.8-0.3,2.3-1c0.5-0.6,0.8-1.6,0.8-2.7c0-1.2-0.3-2.1-0.8-2.8s-1.3-1-2.3-1c-1,0-1.8,0.3-2.3,1c-0.6,0.7-0.9,1.6-0.9,2.8
					c0,1.1,0.3,2,0.9,2.7S107.7,142.6,108.7,142.6z"/>
				<path class="st7" d="M132.4,142.6c-0.6,0.4-1.3,0.6-2,0.8c-0.7,0.2-1.4,0.3-2.2,0.3c-1.8,0-3.3-0.6-4.4-1.7
					c-1.1-1.1-1.6-2.7-1.6-4.7c0-2,0.6-3.6,1.8-4.8c1.2-1.2,2.7-1.8,4.7-1.8c0.7,0,1.3,0.1,1.9,0.2s1.2,0.4,1.8,0.7l-0.6,1.1
					c-0.5-0.3-1-0.5-1.5-0.6s-1-0.2-1.6-0.2c-1.5,0-2.7,0.5-3.6,1.4s-1.4,2.3-1.4,3.9c0,1.7,0.4,3,1.2,3.9s2,1.3,3.5,1.3
					c0.5,0,1-0.1,1.4-0.2s0.9-0.3,1.2-0.5v-3.7h-2.8v-1.2h4.2V142.6z"/>
				<path class="st7" d="M137.2,132.2c-0.3,0-0.5-0.1-0.7-0.3s-0.3-0.4-0.3-0.7c0-0.3,0.1-0.5,0.3-0.7s0.4-0.3,0.7-0.3
					c0.3,0,0.5,0.1,0.7,0.3c0.2,0.2,0.3,0.4,0.3,0.7c0,0.3-0.1,0.5-0.3,0.7C137.7,132.1,137.4,132.2,137.2,132.2z M137.8,143.5h-1.3
					v-9.2h1.3V143.5z"/>
				<path class="st7" d="M146.4,143.3c-0.2,0.1-0.5,0.2-0.7,0.2c-0.2,0.1-0.5,0.1-0.8,0.1c-0.7,0-1.3-0.2-1.6-0.6
					c-0.4-0.4-0.6-1-0.6-1.8v-5.8h-1.6v-1.1h1.6v-2.2l1.3-0.4v2.6h2.3v1.1H144v5.7c0,0.5,0.1,0.9,0.3,1.2c0.2,0.2,0.5,0.4,0.9,0.4
					c0.2,0,0.4,0,0.5-0.1c0.2,0,0.3-0.1,0.4-0.2L146.4,143.3z"/>
				<path class="st7" d="M159.1,143.5h-1.4v-5.8h-6.7v5.8h-1.4v-12.6h1.4v5.6h6.7v-5.6h1.4V143.5z"/>
				<path class="st7" d="M170.9,143.5h-1.3v-1.5h0c-0.3,0.6-0.7,1-1.2,1.3c-0.5,0.3-1.1,0.4-1.7,0.4c-1.1,0-1.9-0.3-2.5-1
					s-0.8-1.7-0.8-3v-5.5h1.3v5.2c0,1,0.2,1.8,0.6,2.3c0.4,0.5,1,0.8,1.7,0.8c0.8,0,1.4-0.3,1.9-0.8c0.5-0.6,0.7-1.3,0.7-2.2v-5.3
					h1.3V143.5z"/>
				<path class="st7" d="M176.5,142.1L176.5,142.1l0,1.3h-1.3v-13.3h1.3v5.8h0c0.4-0.6,0.8-1.1,1.4-1.4c0.6-0.3,1.2-0.5,1.9-0.5
					c1.2,0,2.1,0.4,2.8,1.2s1,1.9,1,3.3c0,1.5-0.4,2.8-1.1,3.7s-1.8,1.4-3,1.4c-0.6,0-1.2-0.1-1.7-0.4
					C177.2,143,176.8,142.6,176.5,142.1z M176.5,138.4v1.2c0,0.8,0.3,1.5,0.8,2.1s1.2,0.9,2,0.9c0.9,0,1.6-0.4,2.1-1.1
					s0.8-1.7,0.8-2.9c0-1.1-0.2-1.9-0.7-2.5s-1.2-0.9-2-0.9c-0.9,0-1.6,0.3-2.2,0.9S176.5,137.5,176.5,138.4z"/>
				<path class="st7" d="M187.7,143.6c-0.3,0-0.5-0.1-0.7-0.3c-0.2-0.2-0.3-0.4-0.3-0.7s0.1-0.5,0.3-0.7c0.2-0.2,0.4-0.3,0.7-0.3
					c0.3,0,0.5,0.1,0.7,0.3c0.2,0.2,0.3,0.4,0.3,0.7s-0.1,0.5-0.3,0.7C188.2,143.5,188,143.6,187.7,143.6z"/>
				<path class="st7" d="M198.8,143.5v-12.6h3.4c2.2,0,3.8,0.5,4.9,1.5s1.7,2.6,1.7,4.6c0,2-0.6,3.5-1.8,4.7s-2.9,1.8-4.9,1.8H198.8
					z M200.2,132.1v10.2h1.9c1.7,0,3-0.5,3.9-1.4s1.4-2.2,1.4-3.9c0-1.7-0.4-2.9-1.3-3.7s-2.2-1.2-3.9-1.2H200.2z"/>
				<path class="st7" d="M219.8,139.1h-6.6c0,1.1,0.3,2,0.9,2.6c0.5,0.6,1.3,0.9,2.3,0.9c0.4,0,0.8-0.1,1.3-0.2s0.9-0.4,1.3-0.7
					l0.6,0.9c-0.5,0.4-1,0.6-1.6,0.8c-0.5,0.2-1.1,0.3-1.8,0.3c-1.3,0-2.4-0.4-3.2-1.2s-1.2-2-1.2-3.5c0-1.5,0.4-2.6,1.2-3.5
					c0.8-0.9,1.8-1.4,3.1-1.4c1.2,0,2.1,0.4,2.8,1.2s1,1.9,1,3.3V139.1z M218.5,138c0-0.9-0.2-1.6-0.7-2.1s-1-0.8-1.8-0.8
					c-0.8,0-1.4,0.3-1.9,0.8c-0.5,0.5-0.8,1.2-0.9,2.1H218.5z"/>
				<path class="st7" d="M222.5,142.8l0.6-1c0.4,0.2,0.7,0.4,1.1,0.6s0.8,0.2,1.3,0.2c0.7,0,1.2-0.1,1.5-0.4s0.5-0.6,0.5-1.1
					c0-0.4-0.1-0.7-0.4-1c-0.3-0.3-0.8-0.5-1.5-0.7c-1.1-0.3-1.8-0.7-2.2-1.1c-0.4-0.4-0.6-1-0.6-1.6c0-0.8,0.3-1.4,0.9-1.9
					s1.3-0.7,2.3-0.7c0.5,0,0.9,0.1,1.3,0.2c0.4,0.1,0.9,0.3,1.3,0.6l-0.6,1c-0.4-0.2-0.7-0.4-1.1-0.5s-0.7-0.2-1-0.2
					c-0.6,0-1.1,0.1-1.4,0.4c-0.3,0.2-0.5,0.6-0.5,1c0,0.4,0.1,0.7,0.4,1c0.3,0.2,0.8,0.4,1.5,0.6c1,0.3,1.7,0.6,2.1,1.1
					c0.5,0.4,0.7,1,0.7,1.7c0,0.8-0.3,1.5-0.9,2c-0.6,0.5-1.4,0.7-2.4,0.7c-0.6,0-1.1-0.1-1.6-0.2
					C223.4,143.3,223,143.1,222.5,142.8z"/>
				<path class="st7" d="M236.6,143.3c-0.2,0.1-0.5,0.2-0.7,0.2c-0.2,0.1-0.5,0.1-0.8,0.1c-0.7,0-1.3-0.2-1.6-0.6
					c-0.4-0.4-0.6-1-0.6-1.8v-5.8h-1.6v-1.1h1.6v-2.2l1.3-0.4v2.6h2.3v1.1h-2.3v5.7c0,0.5,0.1,0.9,0.3,1.2c0.2,0.2,0.5,0.4,0.9,0.4
					c0.2,0,0.4,0,0.5-0.1c0.2,0,0.3-0.1,0.4-0.2L236.6,143.3z"/>
				<path class="st7" d="M246.3,143.5H245v-1.6h0c-0.3,0.6-0.7,1-1.2,1.3c-0.5,0.3-1.1,0.5-1.7,0.5c-0.9,0-1.6-0.3-2.1-0.8
					c-0.5-0.5-0.8-1.2-0.8-2c0-0.8,0.3-1.5,0.8-2s1.3-0.8,2.4-1l2.6-0.4v-0.2c0-0.8-0.2-1.4-0.6-1.7c-0.4-0.4-0.9-0.6-1.5-0.6
					c-0.5,0-1,0.1-1.4,0.3s-0.9,0.5-1.3,0.8l-0.8-0.8c0.5-0.5,1-0.8,1.6-1.1s1.2-0.4,1.9-0.4c1.1,0,1.9,0.3,2.5,0.9
					c0.6,0.6,0.8,1.4,0.8,2.6V143.5z M245,139.6v-0.9l-2.3,0.3c-0.8,0.1-1.3,0.3-1.7,0.6s-0.5,0.7-0.5,1.3c0,0.5,0.2,0.9,0.5,1.3
					s0.8,0.5,1.3,0.5c0.8,0,1.5-0.3,2-0.8C244.7,141.2,245,140.5,245,139.6z"/>
				<path class="st7" d="M258.4,147.6h-1.3v-5.8h0c-0.3,0.6-0.8,1.1-1.3,1.4c-0.5,0.3-1.2,0.5-1.9,0.5c-1.2,0-2.1-0.4-2.8-1.2
					s-1-2-1-3.4c0-1.5,0.4-2.8,1.2-3.7c0.8-0.9,1.8-1.4,3.1-1.4c0.6,0,1.2,0.1,1.7,0.4c0.5,0.3,0.8,0.7,1.1,1.2h0v-1.3h1.3V147.6z
					 M257.1,139.4V138c0-0.8-0.3-1.5-0.8-2c-0.5-0.5-1.2-0.8-2-0.8c-0.9,0-1.6,0.3-2.2,1s-0.8,1.6-0.8,2.9c0,1.1,0.3,2,0.8,2.6
					c0.5,0.6,1.2,0.9,2,0.9c0.9,0,1.6-0.3,2.2-0.9C256.8,141,257.1,140.3,257.1,139.4z"/>
				<path class="st7" d="M269.7,143.5h-1.3v-1.5h0c-0.3,0.6-0.7,1-1.2,1.3c-0.5,0.3-1.1,0.4-1.7,0.4c-1.1,0-1.9-0.3-2.5-1
					s-0.8-1.7-0.8-3v-5.5h1.3v5.2c0,1,0.2,1.8,0.6,2.3c0.4,0.5,1,0.8,1.7,0.8c0.8,0,1.4-0.3,1.9-0.8c0.5-0.6,0.7-1.3,0.7-2.2v-5.3
					h1.3V143.5z"/>
				<path class="st7" d="M281.3,139.1h-6.6c0,1.1,0.3,2,0.9,2.6c0.5,0.6,1.3,0.9,2.3,0.9c0.4,0,0.8-0.1,1.3-0.2s0.9-0.4,1.3-0.7
					l0.6,0.9c-0.5,0.4-1,0.6-1.6,0.8c-0.5,0.2-1.1,0.3-1.8,0.3c-1.3,0-2.4-0.4-3.2-1.2s-1.2-2-1.2-3.5c0-1.5,0.4-2.6,1.2-3.5
					c0.8-0.9,1.8-1.4,3.1-1.4c1.2,0,2.1,0.4,2.8,1.2s1,1.9,1,3.3V139.1z M279.9,138c0-0.9-0.2-1.6-0.7-2.1s-1-0.8-1.8-0.8
					c-0.8,0-1.4,0.3-1.9,0.8c-0.5,0.5-0.8,1.2-0.9,2.1H279.9z"/>
				<path class="st7" d="M9.3,164.4l0.6-1c0.4,0.2,0.7,0.4,1.1,0.6s0.8,0.2,1.3,0.2c0.7,0,1.2-0.1,1.5-0.4s0.5-0.6,0.5-1.1
					c0-0.4-0.1-0.7-0.4-1c-0.3-0.3-0.8-0.5-1.5-0.7c-1.1-0.3-1.8-0.7-2.2-1.1c-0.4-0.4-0.6-1-0.6-1.6c0-0.8,0.3-1.4,0.9-1.9
					s1.3-0.7,2.3-0.7c0.5,0,0.9,0.1,1.3,0.2c0.4,0.1,0.9,0.3,1.3,0.6l-0.6,1c-0.4-0.2-0.7-0.4-1.1-0.5s-0.7-0.2-1-0.2
					c-0.6,0-1.1,0.1-1.4,0.4c-0.3,0.2-0.5,0.6-0.5,1c0,0.4,0.1,0.7,0.4,1c0.3,0.2,0.8,0.4,1.5,0.6c1,0.3,1.7,0.6,2.1,1.1
					c0.5,0.4,0.7,1,0.7,1.7c0,0.8-0.3,1.5-0.9,2c-0.6,0.5-1.4,0.7-2.4,0.7c-0.6,0-1.1-0.1-1.6-0.2C10.2,164.9,9.8,164.7,9.3,164.4z"
					/>
				<path class="st7" d="M26.5,165.1h-1.3v-1.5h0c-0.3,0.6-0.7,1-1.2,1.3c-0.5,0.3-1.1,0.4-1.7,0.4c-1.1,0-1.9-0.3-2.5-1
					s-0.8-1.7-0.8-3v-5.5h1.3v5.2c0,1,0.2,1.8,0.6,2.3c0.4,0.5,1,0.8,1.7,0.8c0.8,0,1.4-0.3,1.9-0.8c0.5-0.6,0.7-1.3,0.7-2.2v-5.3
					h1.3V165.1z"/>
				<path class="st7" d="M37.2,165.1h-1.3v-1.6h0c-0.3,0.6-0.7,1-1.2,1.3c-0.5,0.3-1.1,0.5-1.7,0.5c-0.9,0-1.6-0.3-2.1-0.8
					c-0.5-0.5-0.8-1.2-0.8-2c0-0.8,0.3-1.5,0.8-2s1.3-0.8,2.4-1l2.6-0.4V159c0-0.8-0.2-1.4-0.6-1.7c-0.4-0.4-0.9-0.6-1.5-0.6
					c-0.5,0-1,0.1-1.4,0.3s-0.9,0.5-1.3,0.8l-0.8-0.8c0.5-0.5,1-0.8,1.6-1.1s1.2-0.4,1.9-0.4c1.1,0,1.9,0.3,2.5,0.9
					c0.6,0.6,0.8,1.4,0.8,2.6V165.1z M35.9,161.2v-0.9l-2.3,0.3c-0.8,0.1-1.3,0.3-1.7,0.6s-0.5,0.7-0.5,1.3c0,0.5,0.2,0.9,0.5,1.3
					s0.8,0.5,1.3,0.5c0.8,0,1.5-0.3,2-0.8C35.7,162.8,35.9,162.1,35.9,161.2z"/>
				<path class="st7" d="M40.5,164.4l0.6-1c0.4,0.2,0.7,0.4,1.1,0.6s0.8,0.2,1.3,0.2c0.7,0,1.2-0.1,1.5-0.4s0.5-0.6,0.5-1.1
					c0-0.4-0.1-0.7-0.4-1c-0.3-0.3-0.8-0.5-1.5-0.7c-1.1-0.3-1.8-0.7-2.2-1.1c-0.4-0.4-0.6-1-0.6-1.6c0-0.8,0.3-1.4,0.9-1.9
					s1.3-0.7,2.3-0.7c0.5,0,0.9,0.1,1.3,0.2c0.4,0.1,0.9,0.3,1.3,0.6l-0.6,1c-0.4-0.2-0.7-0.4-1.1-0.5s-0.7-0.2-1-0.2
					c-0.6,0-1.1,0.1-1.4,0.4c-0.3,0.2-0.5,0.6-0.5,1c0,0.4,0.1,0.7,0.4,1c0.3,0.2,0.8,0.4,1.5,0.6c1,0.3,1.7,0.6,2.1,1.1
					c0.5,0.4,0.7,1,0.7,1.7c0,0.8-0.3,1.5-0.9,2c-0.6,0.5-1.4,0.7-2.4,0.7c-0.6,0-1.1-0.1-1.6-0.2C41.4,164.9,40.9,164.7,40.5,164.4
					z"/>
				<path class="st7" d="M63.9,165.1h-1.3v-5.4c0-1-0.2-1.7-0.5-2.2s-0.9-0.7-1.7-0.7c-0.7,0-1.4,0.3-1.9,0.9
					c-0.5,0.6-0.8,1.3-0.8,2.3v5.2h-1.3v-13.3h1.3v5.7h0c0.4-0.6,0.8-1,1.3-1.3s1.1-0.4,1.8-0.4c1,0,1.8,0.3,2.3,1
					c0.5,0.6,0.8,1.6,0.8,2.8V165.1z"/>
				<path class="st7" d="M74.5,165.1h-1.3v-1.6h0c-0.3,0.6-0.7,1-1.2,1.3c-0.5,0.3-1.1,0.5-1.7,0.5c-0.9,0-1.6-0.3-2.1-0.8
					c-0.5-0.5-0.8-1.2-0.8-2c0-0.8,0.3-1.5,0.8-2s1.3-0.8,2.4-1l2.6-0.4V159c0-0.8-0.2-1.4-0.6-1.7c-0.4-0.4-0.9-0.6-1.5-0.6
					c-0.5,0-1,0.1-1.4,0.3s-0.9,0.5-1.3,0.8l-0.8-0.8c0.5-0.5,1-0.8,1.6-1.1s1.2-0.4,1.9-0.4c1.1,0,1.9,0.3,2.5,0.9
					c0.6,0.6,0.8,1.4,0.8,2.6V165.1z M73.2,161.2v-0.9l-2.3,0.3c-0.8,0.1-1.3,0.3-1.7,0.6s-0.5,0.7-0.5,1.3c0,0.5,0.2,0.9,0.5,1.3
					s0.8,0.5,1.3,0.5c0.8,0,1.5-0.3,2-0.8C72.9,162.8,73.2,162.1,73.2,161.2z"/>
				<path class="st7" d="M79.9,163.7L79.9,163.7l0,1.3h-1.3v-13.3h1.3v5.8h0c0.4-0.6,0.8-1.1,1.4-1.4c0.6-0.3,1.2-0.5,1.9-0.5
					c1.2,0,2.1,0.4,2.8,1.2s1,1.9,1,3.3c0,1.5-0.4,2.8-1.1,3.7s-1.8,1.4-3,1.4c-0.6,0-1.2-0.1-1.7-0.4
					C80.7,164.6,80.3,164.2,79.9,163.7z M79.9,160v1.2c0,0.8,0.3,1.5,0.8,2.1s1.2,0.9,2,0.9c0.9,0,1.6-0.4,2.1-1.1s0.8-1.7,0.8-2.9
					c0-1.1-0.2-1.9-0.7-2.5s-1.2-0.9-2-0.9c-0.9,0-1.6,0.3-2.2,0.9S79.9,159.1,79.9,160z"/>
				<path class="st7" d="M91.2,153.8c-0.3,0-0.5-0.1-0.7-0.3s-0.3-0.4-0.3-0.7c0-0.3,0.1-0.5,0.3-0.7s0.4-0.3,0.7-0.3
					c0.3,0,0.5,0.1,0.7,0.3c0.2,0.2,0.3,0.4,0.3,0.7c0,0.3-0.1,0.5-0.3,0.7C91.8,153.7,91.5,153.8,91.2,153.8z M91.9,165.1h-1.3
					v-9.2h1.3V165.1z"/>
				<path class="st7" d="M96.3,165.1v-13.3h1.3v13.3H96.3z"/>
				<path class="st7" d="M102.5,153.8c-0.3,0-0.5-0.1-0.7-0.3s-0.3-0.4-0.3-0.7c0-0.3,0.1-0.5,0.3-0.7s0.4-0.3,0.7-0.3
					c0.3,0,0.5,0.1,0.7,0.3c0.2,0.2,0.3,0.4,0.3,0.7c0,0.3-0.1,0.5-0.3,0.7C103,153.7,102.8,153.8,102.5,153.8z M103.1,165.1h-1.3
					v-9.2h1.3V165.1z"/>
				<path class="st7" d="M113.9,163.5c-0.3,0.6-0.8,1-1.3,1.4s-1.2,0.5-1.9,0.5c-1.2,0-2.1-0.4-2.8-1.2c-0.7-0.8-1.1-2-1.1-3.4
					c0-1.5,0.4-2.7,1.2-3.7c0.8-0.9,1.8-1.4,3.1-1.4c0.7,0,1.2,0.1,1.7,0.4c0.5,0.3,0.9,0.7,1.1,1.2h0v-5.4h1.3v13.3H114
					L113.9,163.5L113.9,163.5z M108.2,160.6c0,1.1,0.3,2,0.8,2.6c0.5,0.6,1.2,1,2,1c0.9,0,1.6-0.3,2.1-0.9s0.8-1.4,0.8-2.3v-1.5
					c0-0.8-0.3-1.4-0.8-2c-0.5-0.5-1.2-0.8-2-0.8c-0.9,0-1.7,0.3-2.2,1C108.5,158.4,108.2,159.4,108.2,160.6z"/>
				<path class="st7" d="M126.1,165.1h-1.3v-1.6h0c-0.3,0.6-0.7,1-1.2,1.3c-0.5,0.3-1.1,0.5-1.7,0.5c-0.9,0-1.6-0.3-2.1-0.8
					c-0.5-0.5-0.8-1.2-0.8-2c0-0.8,0.3-1.5,0.8-2s1.3-0.8,2.4-1l2.6-0.4V159c0-0.8-0.2-1.4-0.6-1.7c-0.4-0.4-0.9-0.6-1.5-0.6
					c-0.5,0-1,0.1-1.4,0.3s-0.9,0.5-1.3,0.8l-0.8-0.8c0.5-0.5,1-0.8,1.6-1.1s1.2-0.4,1.9-0.4c1.1,0,1.9,0.3,2.5,0.9
					c0.6,0.6,0.8,1.4,0.8,2.6V165.1z M124.7,161.2v-0.9l-2.3,0.3c-0.8,0.1-1.3,0.3-1.7,0.6s-0.5,0.7-0.5,1.3c0,0.5,0.2,0.9,0.5,1.3
					s0.8,0.5,1.3,0.5c0.8,0,1.5-0.3,2-0.8C124.5,162.8,124.7,162.1,124.7,161.2z"/>
				<path class="st7" d="M136.6,163.5c-0.3,0.6-0.8,1-1.3,1.4s-1.2,0.5-1.9,0.5c-1.2,0-2.1-0.4-2.8-1.2c-0.7-0.8-1.1-2-1.1-3.4
					c0-1.5,0.4-2.7,1.2-3.7c0.8-0.9,1.8-1.4,3.1-1.4c0.7,0,1.2,0.1,1.7,0.4c0.5,0.3,0.9,0.7,1.1,1.2h0v-5.4h1.3v13.3h-1.3
					L136.6,163.5L136.6,163.5z M130.9,160.6c0,1.1,0.3,2,0.8,2.6c0.5,0.6,1.2,1,2,1c0.9,0,1.6-0.3,2.1-0.9s0.8-1.4,0.8-2.3v-1.5
					c0-0.8-0.3-1.4-0.8-2c-0.5-0.5-1.2-0.8-2-0.8c-0.9,0-1.7,0.3-2.2,1C131.1,158.4,130.9,159.4,130.9,160.6z"/>
				<path class="st7" d="M149.5,160.7h-6.6c0,1.1,0.3,2,0.9,2.6c0.5,0.6,1.3,0.9,2.3,0.9c0.4,0,0.8-0.1,1.3-0.2s0.9-0.4,1.3-0.7
					l0.6,0.9c-0.5,0.4-1,0.6-1.6,0.8c-0.5,0.2-1.1,0.3-1.8,0.3c-1.3,0-2.4-0.4-3.2-1.2s-1.2-2-1.2-3.5c0-1.5,0.4-2.6,1.2-3.5
					c0.8-0.9,1.8-1.4,3.1-1.4c1.2,0,2.1,0.4,2.8,1.2s1,1.9,1,3.3V160.7z M148.1,159.6c0-0.9-0.2-1.6-0.7-2.1s-1-0.8-1.8-0.8
					c-0.8,0-1.4,0.3-1.9,0.8c-0.5,0.5-0.8,1.2-0.9,2.1H148.1z"/>
				<path class="st7" d="M152.2,164.4l0.6-1c0.4,0.2,0.7,0.4,1.1,0.6s0.8,0.2,1.3,0.2c0.7,0,1.2-0.1,1.5-0.4s0.5-0.6,0.5-1.1
					c0-0.4-0.1-0.7-0.4-1c-0.3-0.3-0.8-0.5-1.5-0.7c-1.1-0.3-1.8-0.7-2.2-1.1c-0.4-0.4-0.6-1-0.6-1.6c0-0.8,0.3-1.4,0.9-1.9
					s1.3-0.7,2.3-0.7c0.5,0,0.9,0.1,1.3,0.2c0.4,0.1,0.9,0.3,1.3,0.6l-0.6,1c-0.4-0.2-0.7-0.4-1.1-0.5s-0.7-0.2-1-0.2
					c-0.6,0-1.1,0.1-1.4,0.4c-0.3,0.2-0.5,0.6-0.5,1c0,0.4,0.1,0.7,0.4,1c0.3,0.2,0.8,0.4,1.5,0.6c1,0.3,1.7,0.6,2.1,1.1
					c0.5,0.4,0.7,1,0.7,1.7c0,0.8-0.3,1.5-0.9,2c-0.6,0.5-1.4,0.7-2.4,0.7c-0.6,0-1.1-0.1-1.6-0.2
					C153.1,164.9,152.6,164.7,152.2,164.4z"/>
				<path class="st7" d="M175.5,160.7h-6.6c0,1.1,0.3,2,0.9,2.6c0.5,0.6,1.3,0.9,2.3,0.9c0.4,0,0.8-0.1,1.3-0.2s0.9-0.4,1.3-0.7
					l0.6,0.9c-0.5,0.4-1,0.6-1.6,0.8c-0.5,0.2-1.1,0.3-1.8,0.3c-1.3,0-2.4-0.4-3.2-1.2s-1.2-2-1.2-3.5c0-1.5,0.4-2.6,1.2-3.5
					c0.8-0.9,1.8-1.4,3.1-1.4c1.2,0,2.1,0.4,2.8,1.2s1,1.9,1,3.3V160.7z M174.1,159.6c0-0.9-0.2-1.6-0.7-2.1s-1-0.8-1.8-0.8
					c-0.8,0-1.4,0.3-1.9,0.8c-0.5,0.5-0.8,1.2-0.9,2.1H174.1z"/>
				<path class="st7" d="M185.8,153.8c-0.3,0-0.5-0.1-0.7-0.3s-0.3-0.4-0.3-0.7c0-0.3,0.1-0.5,0.3-0.7s0.4-0.3,0.7-0.3
					c0.3,0,0.5,0.1,0.7,0.3c0.2,0.2,0.3,0.4,0.3,0.7c0,0.3-0.1,0.5-0.3,0.7C186.3,153.7,186,153.8,185.8,153.8z M186.4,165.1h-1.3
					v-9.2h1.3V165.1z"/>
				<path class="st7" d="M198.3,165.1H197v-5.3c0-1-0.2-1.8-0.5-2.3c-0.4-0.5-0.9-0.8-1.6-0.8c-0.8,0-1.4,0.3-1.9,0.9
					c-0.5,0.6-0.8,1.3-0.8,2.2v5.3h-1.3v-9.2h1.3v1.6h0c0.3-0.6,0.8-1,1.3-1.3c0.5-0.3,1.1-0.5,1.8-0.5c1,0,1.8,0.3,2.3,1
					s0.8,1.6,0.8,2.8V165.1z"/>
				<path class="st7" d="M206.6,164.9c-0.2,0.1-0.5,0.2-0.7,0.2c-0.2,0.1-0.5,0.1-0.8,0.1c-0.7,0-1.3-0.2-1.6-0.6
					c-0.4-0.4-0.6-1-0.6-1.8V157h-1.6v-1.1h1.6v-2.2l1.3-0.4v2.6h2.3v1.1h-2.3v5.7c0,0.5,0.1,0.9,0.3,1.2c0.2,0.2,0.5,0.4,0.9,0.4
					c0.2,0,0.4,0,0.5-0.1c0.2,0,0.3-0.1,0.4-0.2L206.6,164.9z"/>
				<path class="st7" d="M217.1,160.7h-6.6c0,1.1,0.3,2,0.9,2.6c0.5,0.6,1.3,0.9,2.3,0.9c0.4,0,0.8-0.1,1.3-0.2s0.9-0.4,1.3-0.7
					l0.6,0.9c-0.5,0.4-1,0.6-1.6,0.8c-0.5,0.2-1.1,0.3-1.8,0.3c-1.3,0-2.4-0.4-3.2-1.2s-1.2-2-1.2-3.5c0-1.5,0.4-2.6,1.2-3.5
					c0.8-0.9,1.8-1.4,3.1-1.4c1.2,0,2.1,0.4,2.8,1.2s1,1.9,1,3.3V160.7z M215.8,159.6c0-0.9-0.2-1.6-0.7-2.1s-1-0.8-1.8-0.8
					c-0.8,0-1.4,0.3-1.9,0.8c-0.5,0.5-0.8,1.2-0.9,2.1H215.8z"/>
				<path class="st7" d="M225.2,157c-0.1,0-0.2-0.1-0.4-0.1s-0.2,0-0.4,0c-0.8,0-1.4,0.3-1.8,1c-0.4,0.7-0.7,1.6-0.7,2.6v4.6h-1.3
					v-9.2h1.3v1.9h0c0.2-0.7,0.5-1.2,1-1.5s1-0.5,1.6-0.5c0.2,0,0.3,0,0.4,0s0.3,0,0.4,0.1L225.2,157z"/>
				<path class="st7" d="M235.7,160.7H229c0,1.1,0.3,2,0.9,2.6c0.5,0.6,1.3,0.9,2.3,0.9c0.4,0,0.8-0.1,1.3-0.2s0.9-0.4,1.3-0.7
					l0.6,0.9c-0.5,0.4-1,0.6-1.6,0.8c-0.5,0.2-1.1,0.3-1.8,0.3c-1.3,0-2.4-0.4-3.2-1.2s-1.2-2-1.2-3.5c0-1.5,0.4-2.6,1.2-3.5
					c0.8-0.9,1.8-1.4,3.1-1.4c1.2,0,2.1,0.4,2.8,1.2s1,1.9,1,3.3V160.7z M234.3,159.6c0-0.9-0.2-1.6-0.7-2.1s-1-0.8-1.8-0.8
					c-0.8,0-1.4,0.3-1.9,0.8c-0.5,0.5-0.8,1.2-0.9,2.1H234.3z"/>
				<path class="st7" d="M238.4,164.4l0.6-1c0.4,0.2,0.7,0.4,1.1,0.6s0.8,0.2,1.3,0.2c0.7,0,1.2-0.1,1.5-0.4s0.5-0.6,0.5-1.1
					c0-0.4-0.1-0.7-0.4-1c-0.3-0.3-0.8-0.5-1.5-0.7c-1.1-0.3-1.8-0.7-2.2-1.1c-0.4-0.4-0.6-1-0.6-1.6c0-0.8,0.3-1.4,0.9-1.9
					s1.3-0.7,2.3-0.7c0.5,0,0.9,0.1,1.3,0.2c0.4,0.1,0.9,0.3,1.3,0.6l-0.6,1c-0.4-0.2-0.7-0.4-1.1-0.5s-0.7-0.2-1-0.2
					c-0.6,0-1.1,0.1-1.4,0.4c-0.3,0.2-0.5,0.6-0.5,1c0,0.4,0.1,0.7,0.4,1c0.3,0.2,0.8,0.4,1.5,0.6c1,0.3,1.7,0.6,2.1,1.1
					c0.5,0.4,0.7,1,0.7,1.7c0,0.8-0.3,1.5-0.9,2c-0.6,0.5-1.4,0.7-2.4,0.7c-0.6,0-1.1-0.1-1.6-0.2
					C239.3,164.9,238.8,164.7,238.4,164.4z"/>
				<path class="st7" d="M247.4,164.4l0.6-1c0.4,0.2,0.7,0.4,1.1,0.6s0.8,0.2,1.3,0.2c0.7,0,1.2-0.1,1.5-0.4s0.5-0.6,0.5-1.1
					c0-0.4-0.1-0.7-0.4-1c-0.3-0.3-0.8-0.5-1.5-0.7c-1.1-0.3-1.8-0.7-2.2-1.1c-0.4-0.4-0.6-1-0.6-1.6c0-0.8,0.3-1.4,0.9-1.9
					s1.3-0.7,2.3-0.7c0.5,0,0.9,0.1,1.3,0.2c0.4,0.1,0.9,0.3,1.3,0.6l-0.6,1c-0.4-0.2-0.7-0.4-1.1-0.5s-0.7-0.2-1-0.2
					c-0.6,0-1.1,0.1-1.4,0.4c-0.3,0.2-0.5,0.6-0.5,1c0,0.4,0.1,0.7,0.4,1c0.3,0.2,0.8,0.4,1.5,0.6c1,0.3,1.7,0.6,2.1,1.1
					c0.5,0.4,0.7,1,0.7,1.7c0,0.8-0.3,1.5-0.9,2c-0.6,0.5-1.4,0.7-2.4,0.7c-0.6,0-1.1-0.1-1.6-0.2
					C248.3,164.9,247.8,164.7,247.4,164.4z"/>
				<path class="st7" d="M264.5,160.7h-6.6c0,1.1,0.3,2,0.9,2.6c0.5,0.6,1.3,0.9,2.3,0.9c0.4,0,0.8-0.1,1.3-0.2s0.9-0.4,1.3-0.7
					l0.6,0.9c-0.5,0.4-1,0.6-1.6,0.8c-0.5,0.2-1.1,0.3-1.8,0.3c-1.3,0-2.4-0.4-3.2-1.2s-1.2-2-1.2-3.5c0-1.5,0.4-2.6,1.2-3.5
					c0.8-0.9,1.8-1.4,3.1-1.4c1.2,0,2.1,0.4,2.8,1.2s1,1.9,1,3.3V160.7z M263.1,159.6c0-0.9-0.2-1.6-0.7-2.1s-1-0.8-1.8-0.8
					c-0.8,0-1.4,0.3-1.9,0.8c-0.5,0.5-0.8,1.2-0.9,2.1H263.1z"/>
				<path class="st7" d="M267.2,164.4l0.6-1c0.4,0.2,0.7,0.4,1.1,0.6s0.8,0.2,1.3,0.2c0.7,0,1.2-0.1,1.5-0.4s0.5-0.6,0.5-1.1
					c0-0.4-0.1-0.7-0.4-1c-0.3-0.3-0.8-0.5-1.5-0.7c-1.1-0.3-1.8-0.7-2.2-1.1c-0.4-0.4-0.6-1-0.6-1.6c0-0.8,0.3-1.4,0.9-1.9
					s1.3-0.7,2.3-0.7c0.5,0,0.9,0.1,1.3,0.2c0.4,0.1,0.9,0.3,1.3,0.6l-0.6,1c-0.4-0.2-0.7-0.4-1.1-0.5s-0.7-0.2-1-0.2
					c-0.6,0-1.1,0.1-1.4,0.4c-0.3,0.2-0.5,0.6-0.5,1c0,0.4,0.1,0.7,0.4,1c0.3,0.2,0.8,0.4,1.5,0.6c1,0.3,1.7,0.6,2.1,1.1
					c0.5,0.4,0.7,1,0.7,1.7c0,0.8-0.3,1.5-0.9,2c-0.6,0.5-1.4,0.7-2.4,0.7c-0.6,0-1.1-0.1-1.6-0.2
					C268.1,164.9,267.6,164.7,267.2,164.4z"/>
				<path class="st7" d="M289.5,163.5c-0.3,0.6-0.8,1-1.3,1.4s-1.2,0.5-1.9,0.5c-1.2,0-2.1-0.4-2.8-1.2c-0.7-0.8-1.1-2-1.1-3.4
					c0-1.5,0.4-2.7,1.2-3.7c0.8-0.9,1.8-1.4,3.1-1.4c0.7,0,1.2,0.1,1.7,0.4c0.5,0.3,0.9,0.7,1.1,1.2h0v-5.4h1.3v13.3h-1.3
					L289.5,163.5L289.5,163.5z M283.8,160.6c0,1.1,0.3,2,0.8,2.6c0.5,0.6,1.2,1,2,1c0.9,0,1.6-0.3,2.1-0.9s0.8-1.4,0.8-2.3v-1.5
					c0-0.8-0.3-1.4-0.8-2c-0.5-0.5-1.2-0.8-2-0.8c-0.9,0-1.7,0.3-2.2,1C284.1,158.4,283.8,159.4,283.8,160.6z"/>
				<path class="st7" d="M302.5,160.7h-6.6c0,1.1,0.3,2,0.9,2.6c0.5,0.6,1.3,0.9,2.3,0.9c0.4,0,0.8-0.1,1.3-0.2s0.9-0.4,1.3-0.7
					l0.6,0.9c-0.5,0.4-1,0.6-1.6,0.8c-0.5,0.2-1.1,0.3-1.8,0.3c-1.3,0-2.4-0.4-3.2-1.2s-1.2-2-1.2-3.5c0-1.5,0.4-2.6,1.2-3.5
					c0.8-0.9,1.8-1.4,3.1-1.4c1.2,0,2.1,0.4,2.8,1.2s1,1.9,1,3.3V160.7z M301.1,159.6c0-0.9-0.2-1.6-0.7-2.1s-1-0.8-1.8-0.8
					c-0.8,0-1.4,0.3-1.9,0.8c-0.5,0.5-0.8,1.2-0.9,2.1H301.1z"/>
				<path class="st7" d="M14.3,174.4c-0.2-0.1-0.3-0.1-0.4-0.1s-0.3,0-0.4,0c-0.5,0-0.9,0.1-1.1,0.4s-0.4,0.7-0.4,1.2v1.5h2.2v1.1
					H12v8.1h-1.3v-8.1H9.1v-1.1h1.6v-1.6c0-0.9,0.3-1.5,0.8-2s1.2-0.7,2.1-0.7c0.2,0,0.4,0,0.6,0c0.2,0,0.4,0.1,0.6,0.1L14.3,174.4z
					"/>
				<path class="st7" d="M20.9,186.9c-1.4,0-2.5-0.4-3.3-1.3c-0.8-0.9-1.2-2-1.2-3.4c0-1.5,0.4-2.7,1.3-3.6c0.8-0.9,2-1.3,3.4-1.3
					c1.4,0,2.4,0.4,3.2,1.3c0.8,0.9,1.2,2,1.2,3.5c0,1.5-0.4,2.6-1.2,3.5C23.4,186.4,22.3,186.9,20.9,186.9z M21,185.8
					c1,0,1.8-0.3,2.3-1c0.5-0.6,0.8-1.6,0.8-2.7c0-1.2-0.3-2.1-0.8-2.8s-1.3-1-2.3-1c-1,0-1.8,0.3-2.3,1c-0.6,0.7-0.9,1.6-0.9,2.8
					c0,1.1,0.3,2,0.9,2.7S20,185.8,21,185.8z"/>
				<path class="st7" d="M33.5,178.6c-0.1,0-0.2-0.1-0.4-0.1s-0.2,0-0.4,0c-0.8,0-1.4,0.3-1.8,1c-0.4,0.7-0.7,1.6-0.7,2.6v4.6H29
					v-9.2h1.3v1.9h0c0.2-0.7,0.5-1.2,1-1.5s1-0.5,1.6-0.5c0.2,0,0.3,0,0.4,0s0.3,0,0.4,0.1L33.5,178.6z"/>
				<path class="st7" d="M49.6,186.7h-1.3v-5.4c0-1.1-0.2-1.8-0.5-2.3c-0.3-0.5-0.9-0.7-1.6-0.7c-0.7,0-1.2,0.3-1.7,0.9
					s-0.7,1.3-0.7,2.2v5.3h-1.3v-5.5c0-0.9-0.2-1.6-0.5-2.1c-0.4-0.5-0.9-0.7-1.6-0.7c-0.7,0-1.2,0.3-1.7,0.8
					c-0.4,0.6-0.7,1.3-0.7,2.2v5.3h-1.3v-9.2H38v1.5h0c0.3-0.6,0.7-1,1.2-1.3s1-0.4,1.7-0.4c0.6,0,1.2,0.2,1.7,0.5
					c0.5,0.4,0.8,0.8,1,1.4c0.3-0.6,0.8-1.1,1.3-1.5c0.5-0.3,1.1-0.5,1.8-0.5c1,0,1.8,0.3,2.3,0.9s0.8,1.6,0.8,2.8V186.7z"/>
				<path class="st7" d="M60.2,186.7h-1.3v-1.6h0c-0.3,0.6-0.7,1-1.2,1.3c-0.5,0.3-1.1,0.5-1.7,0.5c-0.9,0-1.6-0.3-2.1-0.8
					c-0.5-0.5-0.8-1.2-0.8-2c0-0.8,0.3-1.5,0.8-2s1.3-0.8,2.4-1l2.6-0.4v-0.2c0-0.8-0.2-1.4-0.6-1.7c-0.4-0.4-0.9-0.6-1.5-0.6
					c-0.5,0-1,0.1-1.4,0.3s-0.9,0.5-1.3,0.8l-0.8-0.8c0.5-0.5,1-0.8,1.6-1.1s1.2-0.4,1.9-0.4c1.1,0,1.9,0.3,2.5,0.9
					c0.6,0.6,0.8,1.4,0.8,2.6V186.7z M58.9,182.8v-0.9l-2.3,0.3c-0.8,0.1-1.3,0.3-1.7,0.6s-0.5,0.7-0.5,1.3c0,0.5,0.2,0.9,0.5,1.3
					s0.8,0.5,1.3,0.5c0.8,0,1.5-0.3,2-0.8C58.6,184.4,58.9,183.7,58.9,182.8z"/>
				<path class="st7" d="M77.6,177.4l-3.7,9.2h-1.3l-3.5-9.2h1.5l2.4,6.9c0.1,0.2,0.1,0.4,0.2,0.6s0.1,0.4,0.1,0.6h0
					c0-0.2,0.1-0.4,0.1-0.6s0.1-0.4,0.2-0.5l2.6-6.9H77.6z"/>
				<path class="st7" d="M81.1,175.4c-0.3,0-0.5-0.1-0.7-0.3s-0.3-0.4-0.3-0.7c0-0.3,0.1-0.5,0.3-0.7s0.4-0.3,0.7-0.3
					c0.3,0,0.5,0.1,0.7,0.3c0.2,0.2,0.3,0.4,0.3,0.7c0,0.3-0.1,0.5-0.3,0.7C81.6,175.3,81.4,175.4,81.1,175.4z M81.8,186.7h-1.3
					v-9.2h1.3V186.7z"/>
				<path class="st7" d="M85.3,186l0.6-1c0.4,0.2,0.7,0.4,1.1,0.6s0.8,0.2,1.3,0.2c0.7,0,1.2-0.1,1.5-0.4s0.5-0.6,0.5-1.1
					c0-0.4-0.1-0.7-0.4-1c-0.3-0.3-0.8-0.5-1.5-0.7c-1.1-0.3-1.8-0.7-2.2-1.1c-0.4-0.4-0.6-1-0.6-1.6c0-0.8,0.3-1.4,0.9-1.9
					s1.3-0.7,2.3-0.7c0.5,0,0.9,0.1,1.3,0.2c0.4,0.1,0.9,0.3,1.3,0.6l-0.6,1c-0.4-0.2-0.7-0.4-1.1-0.5s-0.7-0.2-1-0.2
					c-0.6,0-1.1,0.1-1.4,0.4c-0.3,0.2-0.5,0.6-0.5,1c0,0.4,0.1,0.7,0.4,1c0.3,0.2,0.8,0.4,1.5,0.6c1,0.3,1.7,0.6,2.1,1.1
					c0.5,0.4,0.7,1,0.7,1.7c0,0.8-0.3,1.5-0.9,2c-0.6,0.5-1.4,0.7-2.4,0.7c-0.6,0-1.1-0.1-1.6-0.2C86.2,186.5,85.8,186.3,85.3,186z"
					/>
				<path class="st7" d="M102.5,186.7h-1.3v-1.5h0c-0.3,0.6-0.7,1-1.2,1.3c-0.5,0.3-1.1,0.4-1.7,0.4c-1.1,0-1.9-0.3-2.5-1
					s-0.8-1.7-0.8-3v-5.5h1.3v5.2c0,1,0.2,1.8,0.6,2.3c0.4,0.5,1,0.8,1.7,0.8c0.8,0,1.4-0.3,1.9-0.8c0.5-0.6,0.7-1.3,0.7-2.2v-5.3
					h1.3V186.7z"/>
				<path class="st7" d="M113.2,186.7h-1.3v-1.6h0c-0.3,0.6-0.7,1-1.2,1.3c-0.5,0.3-1.1,0.5-1.7,0.5c-0.9,0-1.6-0.3-2.1-0.8
					c-0.5-0.5-0.8-1.2-0.8-2c0-0.8,0.3-1.5,0.8-2s1.3-0.8,2.4-1l2.6-0.4v-0.2c0-0.8-0.2-1.4-0.6-1.7c-0.4-0.4-0.9-0.6-1.5-0.6
					c-0.5,0-1,0.1-1.4,0.3s-0.9,0.5-1.3,0.8l-0.8-0.8c0.5-0.5,1-0.8,1.6-1.1s1.2-0.4,1.9-0.4c1.1,0,1.9,0.3,2.5,0.9
					c0.6,0.6,0.8,1.4,0.8,2.6V186.7z M111.9,182.8v-0.9l-2.3,0.3c-0.8,0.1-1.3,0.3-1.7,0.6s-0.5,0.7-0.5,1.3c0,0.5,0.2,0.9,0.5,1.3
					s0.8,0.5,1.3,0.5c0.8,0,1.5-0.3,2-0.8C111.7,184.4,111.9,183.7,111.9,182.8z"/>
				<path class="st7" d="M117.3,186.7v-13.3h1.3v13.3H117.3z"/>
				<path class="st7" d="M135.8,186.7h-1.3v-5.4c0-1.1-0.2-1.8-0.5-2.3c-0.3-0.5-0.9-0.7-1.6-0.7c-0.7,0-1.2,0.3-1.7,0.9
					s-0.7,1.3-0.7,2.2v5.3h-1.3v-5.5c0-0.9-0.2-1.6-0.5-2.1c-0.4-0.5-0.9-0.7-1.6-0.7c-0.7,0-1.2,0.3-1.7,0.8
					c-0.4,0.6-0.7,1.3-0.7,2.2v5.3h-1.3v-9.2h1.3v1.5h0c0.3-0.6,0.7-1,1.2-1.3s1-0.4,1.7-0.4c0.6,0,1.2,0.2,1.7,0.5
					c0.5,0.4,0.8,0.8,1,1.4c0.3-0.6,0.8-1.1,1.3-1.5c0.5-0.3,1.1-0.5,1.8-0.5c1,0,1.8,0.3,2.3,0.9s0.8,1.6,0.8,2.8V186.7z"/>
				<path class="st7" d="M147.2,182.3h-6.6c0,1.1,0.3,2,0.9,2.6c0.5,0.6,1.3,0.9,2.3,0.9c0.4,0,0.8-0.1,1.3-0.2s0.9-0.4,1.3-0.7
					l0.6,0.9c-0.5,0.4-1,0.6-1.6,0.8c-0.5,0.2-1.1,0.3-1.8,0.3c-1.3,0-2.4-0.4-3.2-1.2s-1.2-2-1.2-3.5c0-1.5,0.4-2.6,1.2-3.5
					c0.8-0.9,1.8-1.4,3.1-1.4c1.2,0,2.1,0.4,2.8,1.2s1,1.9,1,3.3V182.3z M145.9,181.2c0-0.9-0.2-1.6-0.7-2.1s-1-0.8-1.8-0.8
					c-0.8,0-1.4,0.3-1.9,0.8c-0.5,0.5-0.8,1.2-0.9,2.1H145.9z"/>
				<path class="st7" d="M158.3,186.7h-1.3v-5.3c0-1-0.2-1.8-0.5-2.3c-0.4-0.5-0.9-0.8-1.6-0.8c-0.8,0-1.4,0.3-1.9,0.9
					c-0.5,0.6-0.8,1.3-0.8,2.2v5.3h-1.3v-9.2h1.3v1.6h0c0.3-0.6,0.8-1,1.3-1.3c0.5-0.3,1.1-0.5,1.8-0.5c1,0,1.8,0.3,2.3,1
					s0.8,1.6,0.8,2.8V186.7z"/>
				<path class="st7" d="M166.6,186.5c-0.2,0.1-0.5,0.2-0.7,0.2c-0.2,0.1-0.5,0.1-0.8,0.1c-0.7,0-1.3-0.2-1.6-0.6
					c-0.4-0.4-0.6-1-0.6-1.8v-5.8h-1.6v-1.1h1.6v-2.2l1.3-0.4v2.6h2.3v1.1h-2.3v5.7c0,0.5,0.1,0.9,0.3,1.2c0.2,0.2,0.5,0.4,0.9,0.4
					c0.2,0,0.4,0,0.5-0.1c0.2,0,0.3-0.1,0.4-0.2L166.6,186.5z"/>
				<path class="st7" d="M177.1,182.3h-6.6c0,1.1,0.3,2,0.9,2.6c0.5,0.6,1.3,0.9,2.3,0.9c0.4,0,0.8-0.1,1.3-0.2s0.9-0.4,1.3-0.7
					l0.6,0.9c-0.5,0.4-1,0.6-1.6,0.8c-0.5,0.2-1.1,0.3-1.8,0.3c-1.3,0-2.4-0.4-3.2-1.2s-1.2-2-1.2-3.5c0-1.5,0.4-2.6,1.2-3.5
					c0.8-0.9,1.8-1.4,3.1-1.4c1.2,0,2.1,0.4,2.8,1.2s1,1.9,1,3.3V182.3z M175.7,181.2c0-0.9-0.2-1.6-0.7-2.1s-1-0.8-1.8-0.8
					c-0.8,0-1.4,0.3-1.9,0.8c-0.5,0.5-0.8,1.2-0.9,2.1H175.7z"/>
				<path class="st7" d="M193.2,186.7h-1.3v-1.6h0c-0.3,0.6-0.7,1-1.2,1.3c-0.5,0.3-1.1,0.5-1.7,0.5c-0.9,0-1.6-0.3-2.1-0.8
					c-0.5-0.5-0.8-1.2-0.8-2c0-0.8,0.3-1.5,0.8-2s1.3-0.8,2.4-1l2.6-0.4v-0.2c0-0.8-0.2-1.4-0.6-1.7c-0.4-0.4-0.9-0.6-1.5-0.6
					c-0.5,0-1,0.1-1.4,0.3s-0.9,0.5-1.3,0.8l-0.8-0.8c0.5-0.5,1-0.8,1.6-1.1s1.2-0.4,1.9-0.4c1.1,0,1.9,0.3,2.5,0.9
					c0.6,0.6,0.8,1.4,0.8,2.6V186.7z M191.9,182.8v-0.9l-2.3,0.3c-0.8,0.1-1.3,0.3-1.7,0.6s-0.5,0.7-0.5,1.3c0,0.5,0.2,0.9,0.5,1.3
					s0.8,0.5,1.3,0.5c0.8,0,1.5-0.3,2-0.8C191.7,184.4,191.9,183.7,191.9,182.8z"/>
				<path class="st7" d="M201.6,186.5c-0.2,0.1-0.5,0.2-0.7,0.2c-0.2,0.1-0.5,0.1-0.8,0.1c-0.7,0-1.3-0.2-1.6-0.6
					c-0.4-0.4-0.6-1-0.6-1.8v-5.8h-1.6v-1.1h1.6v-2.2l1.3-0.4v2.6h2.3v1.1h-2.3v5.7c0,0.5,0.1,0.9,0.3,1.2c0.2,0.2,0.5,0.4,0.9,0.4
					c0.2,0,0.4,0,0.5-0.1c0.2,0,0.3-0.1,0.4-0.2L201.6,186.5z"/>
				<path class="st7" d="M209.2,178.6c-0.1,0-0.2-0.1-0.4-0.1s-0.2,0-0.4,0c-0.8,0-1.4,0.3-1.8,1c-0.4,0.7-0.7,1.6-0.7,2.6v4.6h-1.3
					v-9.2h1.3v1.9h0c0.2-0.7,0.5-1.2,1-1.5s1-0.5,1.6-0.5c0.2,0,0.3,0,0.4,0s0.3,0,0.4,0.1L209.2,178.6z"/>
				<path class="st7" d="M218.9,186.7h-1.3v-1.6h0c-0.3,0.6-0.7,1-1.2,1.3c-0.5,0.3-1.1,0.5-1.7,0.5c-0.9,0-1.6-0.3-2.1-0.8
					c-0.5-0.5-0.8-1.2-0.8-2c0-0.8,0.3-1.5,0.8-2s1.3-0.8,2.4-1l2.6-0.4v-0.2c0-0.8-0.2-1.4-0.6-1.7c-0.4-0.4-0.9-0.6-1.5-0.6
					c-0.5,0-1,0.1-1.4,0.3s-0.9,0.5-1.3,0.8l-0.8-0.8c0.5-0.5,1-0.8,1.6-1.1s1.2-0.4,1.9-0.4c1.1,0,1.9,0.3,2.5,0.9
					c0.6,0.6,0.8,1.4,0.8,2.6V186.7z M217.6,182.8v-0.9l-2.3,0.3c-0.8,0.1-1.3,0.3-1.7,0.6s-0.5,0.7-0.5,1.3c0,0.5,0.2,0.9,0.5,1.3
					s0.8,0.5,1.3,0.5c0.8,0,1.5-0.3,2-0.8C217.4,184.4,217.6,183.7,217.6,182.8z"/>
				<path class="st7" d="M230.3,182.3h-6.6c0,1.1,0.3,2,0.9,2.6c0.5,0.6,1.3,0.9,2.3,0.9c0.4,0,0.8-0.1,1.3-0.2s0.9-0.4,1.3-0.7
					l0.6,0.9c-0.5,0.4-1,0.6-1.6,0.8c-0.5,0.2-1.1,0.3-1.8,0.3c-1.3,0-2.4-0.4-3.2-1.2s-1.2-2-1.2-3.5c0-1.5,0.4-2.6,1.2-3.5
					c0.8-0.9,1.8-1.4,3.1-1.4c1.2,0,2.1,0.4,2.8,1.2s1,1.9,1,3.3V182.3z M229,181.2c0-0.9-0.2-1.6-0.7-2.1s-1-0.8-1.8-0.8
					c-0.8,0-1.4,0.3-1.9,0.8c-0.5,0.5-0.8,1.2-0.9,2.1H229z"/>
				<path class="st7" d="M241.4,186.7h-1.3v-5.3c0-1-0.2-1.8-0.5-2.3c-0.4-0.5-0.9-0.8-1.6-0.8c-0.8,0-1.4,0.3-1.9,0.9
					c-0.5,0.6-0.8,1.3-0.8,2.2v5.3h-1.3v-9.2h1.3v1.6h0c0.3-0.6,0.8-1,1.3-1.3c0.5-0.3,1.1-0.5,1.8-0.5c1,0,1.8,0.3,2.3,1
					s0.8,1.6,0.8,2.8V186.7z"/>
				<path class="st7" d="M249.7,186.5c-0.2,0.1-0.5,0.2-0.7,0.2c-0.2,0.1-0.5,0.1-0.8,0.1c-0.7,0-1.3-0.2-1.6-0.6
					c-0.4-0.4-0.6-1-0.6-1.8v-5.8h-1.6v-1.1h1.6v-2.2l1.3-0.4v2.6h2.3v1.1h-2.3v5.7c0,0.5,0.1,0.9,0.3,1.2c0.2,0.2,0.5,0.4,0.9,0.4
					c0.2,0,0.4,0,0.5-0.1c0.2,0,0.3-0.1,0.4-0.2L249.7,186.5z"/>
				<path class="st7" d="M260.2,182.3h-6.6c0,1.1,0.3,2,0.9,2.6c0.5,0.6,1.3,0.9,2.3,0.9c0.4,0,0.8-0.1,1.3-0.2s0.9-0.4,1.3-0.7
					l0.6,0.9c-0.5,0.4-1,0.6-1.6,0.8c-0.5,0.2-1.1,0.3-1.8,0.3c-1.3,0-2.4-0.4-3.2-1.2s-1.2-2-1.2-3.5c0-1.5,0.4-2.6,1.2-3.5
					c0.8-0.9,1.8-1.4,3.1-1.4c1.2,0,2.1,0.4,2.8,1.2s1,1.9,1,3.3V182.3z M258.9,181.2c0-0.9-0.2-1.6-0.7-2.1s-1-0.8-1.8-0.8
					c-0.7,0-1.4,0.3-1.9,0.8c-0.5,0.5-0.8,1.2-0.9,2.1H258.9z"/>
				<path class="st7" d="M264.3,186.8c-0.3,0-0.5-0.1-0.7-0.3c-0.2-0.2-0.3-0.4-0.3-0.7s0.1-0.5,0.3-0.7c0.2-0.2,0.4-0.3,0.7-0.3
					c0.3,0,0.5,0.1,0.7,0.3c0.2,0.2,0.3,0.4,0.3,0.7s-0.1,0.5-0.3,0.7C264.8,186.7,264.6,186.8,264.3,186.8z"/>
			</g>
		</g>
		<g>
			<g>
				<g class="st4">
					<g>
						
							<image style="overflow:visible;" width="104" height="103" xlink:href="8160C7E5.png"  transform="matrix(1 0 0 1 -20.4667 -7.381)">
						</image>
					</g>
				</g>
				<g class="st4">
					<g>
						<g>
							<g>
								<g>
									<g>
										<defs>
											<path id="SVGID_00000115492917975724761900000002923843269245817223_" d="M44.5,65.1H18.6c-3.9,0-7-3.1-7-7V32
												c0-3.9,3.1-7,7-7h25.9c3.9,0,7,3.1,7,7v26.1C51.5,62,48.4,65.1,44.5,65.1z"/>
										</defs>
										<clipPath id="SVGID_00000124157253505207524980000000839289253805805957_">
											<use xlink:href="#SVGID_00000115492917975724761900000002923843269245817223_"  style="overflow:visible;"/>
										</clipPath>
										<g style="clip-path:url(#SVGID_00000124157253505207524980000000839289253805805957_);">
											<g>
												<defs>
													<rect id="SVGID_00000131341054955677109860000015193079754859394975_" x="6.6" y="20" width="49.9" height="50.2"/>
												</defs>
												<clipPath id="SVGID_00000087381023300198692970000017535909606507606406_">
													<use xlink:href="#SVGID_00000131341054955677109860000015193079754859394975_"  style="overflow:visible;"/>
												</clipPath>
												<g style="clip-path:url(#SVGID_00000087381023300198692970000017535909606507606406_);">
													<defs>
														<rect id="SVGID_00000021101760423154565580000011632519447755176868_" x="6.6" y="20" width="49.9" height="50.2"/>
													</defs>
													<clipPath id="SVGID_00000071550447633145464020000014242241517628453285_">
														<use xlink:href="#SVGID_00000021101760423154565580000011632519447755176868_"  style="overflow:visible;"/>
													</clipPath>
													<g style="clip-path:url(#SVGID_00000071550447633145464020000014242241517628453285_);">
														
															<image style="overflow:visible;" width="104" height="105" xlink:href="8160C7E7.jpg"  transform="matrix(0.48 0 0 0.48 6.5733 19.899)">
														</image>
													</g>
												</g>
											</g>
										</g>
									</g>
								</g>
								<g>
									<g>
										<defs>
											<path id="SVGID_00000056388485551827628350000010558591896872641721_" d="M44.5,65.1H18.6c-3.9,0-7-3.1-7-7V32
												c0-3.9,3.1-7,7-7h25.9c3.9,0,7,3.1,7,7v26.1C51.5,62,48.4,65.1,44.5,65.1z"/>
										</defs>
										<clipPath id="SVGID_00000003812350707587414510000013837110941848606592_">
											<use xlink:href="#SVGID_00000056388485551827628350000010558591896872641721_"  style="overflow:visible;"/>
										</clipPath>
										<g style="clip-path:url(#SVGID_00000003812350707587414510000013837110941848606592_);">
											<g>
												<defs>
													<rect id="SVGID_00000098919768897380568370000017092907006523487166_" x="6.6" y="20" width="49.9" height="50.2"/>
												</defs>
												<clipPath id="SVGID_00000024697893018213718890000016824477796468077189_">
													<use xlink:href="#SVGID_00000098919768897380568370000017092907006523487166_"  style="overflow:visible;"/>
												</clipPath>
												<g style="clip-path:url(#SVGID_00000024697893018213718890000016824477796468077189_);">
													<defs>
														<rect id="SVGID_00000013899366700259653760000001250206096629194136_" x="6.6" y="20" width="49.9" height="50.2"/>
													</defs>
													<clipPath id="SVGID_00000041261450761604485730000008431177376175891590_">
														<use xlink:href="#SVGID_00000013899366700259653760000001250206096629194136_"  style="overflow:visible;"/>
													</clipPath>
													<g style="clip-path:url(#SVGID_00000041261450761604485730000008431177376175891590_);">
														
															<image style="overflow:visible;" width="104" height="105" xlink:href="8160C7E5.jpg"  transform="matrix(0.48 0 0 0.48 6.5733 19.899)">
														</image>
													</g>
												</g>
											</g>
										</g>
									</g>
								</g>
							</g>
						</g>
					</g>
					<g>
						<g>
							<path class="st12" d="M41.3,34.1c-0.1-0.6-0.6-0.8-1.1-0.8H28.7c-1.1,0-2.4,0-3.5,0c-1.7,0-3.1,1.4-3.1,3.2v13.9
								c0,1.7,1.1,3.2,2.7,3.7c0.6,0.1,1,0.1,1.5,0.3V57c0.1-0.1,0.1-0.1,0.3-0.1c1-0.6,1.8-1.3,2.8-1.8c0.1-0.1,0.3-0.1,0.4,0
								c1,0.7,1.8,1.3,2.8,2c0,0,0.1,0.1,0.3,0.1v-3H40c0.7,0,1.1-0.4,1.1-1.3V34.4C41.3,34.3,41.3,34.3,41.3,34.1z M26.1,36.5h2.1
								v2.1h-2.1V36.5z M26.1,39.9h2.1V42h-2.1V39.9z M26.1,43.2h2.1v2.1h-2.1V43.2z M39,52h-6.4v-2.1h-6.4V52
								c-1.1,0.3-2-0.4-2.1-1.3c-0.1-1,0.4-1.8,1.4-2c0.1,0,0.3,0,0.3,0H39V52z"/>
						</g>
					</g>
				</g>
				<g class="st18">
					<g class="st19">
						<path class="st12" d="M63.3,52.3l7.1-19.7h5.2l7,19.7h-4.8l-1.3-4.1h-7.1l-1.3,4.1H63.3z M70.4,44.7h5.2l-2.1-6.9
							c-0.1-0.3-0.1-0.6-0.1-0.7c0-0.1-0.1-0.4-0.1-0.7h-0.1c0,0.3-0.1,0.6-0.1,0.7c0,0.1-0.1,0.4-0.1,0.7L70.4,44.7z"/>
						<path class="st12" d="M89,50.6L89,50.6v8.2h-4.3V38.2H89v2.1l0,0c0.6-0.8,1.1-1.4,2-1.8c0.8-0.4,1.7-0.6,2.5-0.6
							c1.8,0,3.2,0.6,4.2,1.8c1,1.3,1.5,3,1.5,5.1c0,2.4-0.6,4.2-1.7,5.6s-2.7,2.1-4.6,2.1c-0.8,0-1.5-0.1-2.2-0.6
							C90,51.6,89.4,51.3,89,50.6z M88.9,44.8V46c0,1,0.3,1.8,0.7,2.4c0.4,0.6,1.1,1,2,1c1,0,1.7-0.4,2.2-1.1
							c0.6-0.7,0.8-1.8,0.8-3.2c0-1.3-0.3-2.1-0.7-2.8c-0.4-0.7-1.3-1-2.1-1s-1.5,0.3-2.1,1C89.2,42.9,88.9,43.7,88.9,44.8z"/>
						<path class="st12" d="M104.3,36.2c-0.7,0-1.4-0.3-1.8-0.7c-0.4-0.4-0.7-1-0.7-1.7c0-0.7,0.3-1.3,0.7-1.7
							c0.4-0.4,1.1-0.7,1.8-0.7s1.4,0.3,1.8,0.7c0.4,0.4,0.7,1,0.7,1.7c0,0.7-0.3,1.3-0.7,1.7S105,36.2,104.3,36.2z M106.4,52.3H102
							V38.2h4.3V52.3z"/>
						<path class="st12" d="M110.2,46.3v-3.1h7.4v3.1H110.2z"/>
						<path class="st12" d="M119.7,52.3l7.1-19.7h5.2l7,19.7h-4.8l-1.3-4.1h-7.1l-1.3,4.1H119.7z M126.7,44.7h5.2l-2.1-6.9
							c-0.1-0.3-0.1-0.6-0.1-0.7c0-0.1-0.1-0.4-0.1-0.7h-0.3c0,0.3-0.1,0.6-0.1,0.7c0,0.1-0.1,0.4-0.1,0.7L126.7,44.7z"/>
						<path class="st12" d="M154.5,52.3h-4.3v-7.9c0-1.1-0.1-2-0.6-2.4c-0.4-0.4-1-0.8-1.7-0.8s-1.4,0.3-1.8,0.8s-0.7,1.3-0.7,2.3v8
							h-4.3V38.2h4.3v2.3l0,0c0.6-0.8,1.1-1.5,2-2c0.8-0.4,1.7-0.7,2.7-0.7c1.5,0,2.7,0.4,3.5,1.4c0.8,1,1.1,2.4,1.1,4.4v8.7H154.5z
							"/>
						<path class="st12" d="M160.1,36.2c-0.7,0-1.4-0.3-1.8-0.7s-0.7-1-0.7-1.7c0-0.7,0.3-1.3,0.7-1.7s1.1-0.7,1.8-0.7
							s1.4,0.3,1.8,0.7c0.4,0.4,0.7,1,0.7,1.7c0,0.7-0.3,1.3-0.7,1.7S160.8,36.2,160.1,36.2z M162.2,52.3h-4.3V38.2h4.3V52.3z"/>
						<path class="st12" d="M188.1,52.3h-4.3v-8c0-1-0.1-1.8-0.6-2.3s-1-0.7-1.7-0.7s-1.3,0.3-1.7,1c-0.4,0.7-0.7,1.4-0.7,2.3v7.9
							h-4.3v-8.2c0-1-0.1-1.7-0.6-2.3c-0.4-0.6-1-0.7-1.7-0.7s-1.3,0.3-1.8,0.8c-0.6,0.6-0.7,1.4-0.7,2.4v7.9h-4.3V38.4h4.3v2.3l0,0
							c0.4-0.7,1.1-1.4,1.8-1.8s1.7-0.7,2.7-0.7s1.8,0.3,2.5,0.7s1.3,1.1,1.5,2c0.6-0.8,1.3-1.5,2-2s1.7-0.7,2.7-0.7
							c1.5,0,2.7,0.4,3.4,1.4s1.1,2.4,1.1,4.2v8.6H188.1z"/>
						<path class="st12" d="M204.1,46.4H195c0.1,1,0.4,1.8,1,2.3c0.6,0.4,1.4,0.7,2.5,0.7c0.4,0,1-0.1,1.7-0.4
							c0.7-0.3,1.4-0.6,2.1-1.1l2,2.4c-1,0.7-2,1.3-2.9,1.7c-1,0.4-2.1,0.6-3.4,0.6c-2.2,0-4.1-0.6-5.3-1.8c-1.3-1.3-1.8-3-1.8-5.2
							c0-2.3,0.7-4.1,2-5.5s2.9-2.1,5-2.1c2,0,3.5,0.6,4.6,1.8c1.1,1.3,1.7,3,1.7,5.1L204.1,46.4L204.1,46.4z M200,43.9
							c0-1.1-0.1-1.8-0.6-2.4c-0.4-0.6-1-0.7-1.8-0.7c-0.7,0-1.3,0.3-1.8,0.8c-0.6,0.6-0.8,1.3-0.8,2.3H200z"/>
						<path class="st12" d="M205.2,51l1.8-3c0.4,0.4,1,0.7,1.7,1s1.4,0.4,2.1,0.4c0.6,0,1-0.1,1.4-0.3c0.4-0.1,0.6-0.6,0.6-0.8
							c0-0.3-0.1-0.6-0.4-0.7s-0.8-0.4-1.5-0.6c-1.7-0.4-2.9-0.8-3.8-1.5c-0.8-0.7-1.1-1.7-1.1-2.8c0-1.4,0.6-2.5,1.7-3.4
							c1.1-0.8,2.5-1.3,4.2-1.3c0.8,0,1.7,0.1,2.4,0.3c0.7,0.1,1.5,0.6,2.1,1l-1.7,2.8c-0.6-0.4-1.1-0.6-1.5-0.8
							c-0.4-0.3-1-0.3-1.5-0.3c-0.6,0-1,0.1-1.4,0.3c-0.4,0.1-0.6,0.4-0.6,0.8c0,0.4,0.1,0.7,0.6,0.8c0.4,0.1,1,0.3,1.8,0.6
							c1.7,0.3,2.8,0.8,3.5,1.5c0.7,0.7,1,1.7,1,2.8c0,1.4-0.6,2.5-1.7,3.5s-2.5,1.3-4.3,1.3c-1,0-2-0.1-2.8-0.4
							C206.7,52,206.2,51.6,205.2,51z"/>
					</g>
				</g>
				<g>
					<g class="st13">
						<path class="st12" d="M63.5,52.7l7-19.6h5.2l6.9,19.6H78l-1.4-3.9h-7.2l-1.3,3.9H63.5z M70.4,45.2h5.1l-2.1-6.8
							c-0.1-0.2-0.1-0.5-0.2-0.7c-0.1-0.2-0.1-0.4-0.2-0.7H73c-0.1,0.2-0.1,0.5-0.2,0.7c-0.1,0.2-0.1,0.5-0.2,0.7L70.4,45.2z"/>
						<path class="st12" d="M86.6,36.9c-0.7,0-1.4-0.2-1.8-0.7c-0.5-0.5-0.7-1-0.7-1.7c0-0.7,0.2-1.3,0.7-1.7
							c0.5-0.4,1.1-0.7,1.8-0.7c0.8,0,1.4,0.2,1.8,0.7c0.5,0.4,0.7,1,0.7,1.7s-0.2,1.3-0.7,1.7C88,36.7,87.4,36.9,86.6,36.9z
							 M88.8,52.7h-4.3v-14h4.3V52.7z"/>
						<path class="st12" d="M106.2,52.7H101l-4.4-6.7h-0.1v6.7h-4.3V32h4.3v12.9h0.1l4.4-6.2h4.9l-4.9,6.6L106.2,52.7z"/>
						<path class="st12" d="M114.9,53.1c-2.3,0-4.1-0.7-5.5-2c-1.4-1.3-2.1-3.1-2.1-5.3c0-2.2,0.7-4,2.1-5.4c1.4-1.4,3.3-2,5.7-2
							c2.3,0,4.2,0.7,5.5,2c1.3,1.3,2,3.1,2,5.1c0,2.2-0.7,4.1-2.2,5.4C119,52.4,117.1,53.1,114.9,53.1z M115,49.7
							c1.1,0,1.8-0.4,2.4-1.1c0.5-0.8,0.8-1.7,0.8-2.9c0-1.2-0.3-2.1-0.8-2.8c-0.5-0.7-1.3-1-2.4-1c-1,0-1.8,0.4-2.4,1.1
							c-0.6,0.7-0.9,1.7-0.9,2.9c0,1.2,0.3,2.1,0.8,2.9C113.1,49.3,113.9,49.7,115,49.7z"/>
						<path class="st12" d="M138.6,52.7h-4.3v-8c0-0.9-0.2-1.6-0.6-2.1s-1-0.8-1.7-0.8c-0.8,0-1.4,0.3-1.9,0.8
							c-0.5,0.6-0.7,1.3-0.7,2.1v8h-4.3v-14h4.3v1.8h0.1c0.5-0.6,1.1-1.2,1.9-1.5c0.8-0.4,1.6-0.6,2.4-0.6c1.6,0,2.8,0.5,3.6,1.5
							c0.8,1,1.2,2.4,1.2,4.2V52.7z"/>
						<path class="st12" d="M141.9,46.8v-3h7.5v3H141.9z"/>
						<path class="st12" d="M157.2,51.4L157.2,51.4l-0.1,1.3h-4.3V32h4.3v8.4h0.1c0.5-0.7,1.2-1.2,2-1.5c0.8-0.3,1.7-0.5,2.7-0.5
							c1.8,0,3.3,0.6,4.3,1.9c1,1.2,1.5,2.9,1.5,5.1c0,2.3-0.6,4.2-1.7,5.6c-1.2,1.4-2.7,2.1-4.6,2.1c-0.9,0-1.7-0.1-2.3-0.4
							S157.6,52,157.2,51.4z M157,45.2v1.4c0,0.9,0.3,1.6,0.8,2.2c0.5,0.6,1.3,0.9,2.1,0.9c1,0,1.8-0.4,2.3-1.1
							c0.6-0.7,0.8-1.8,0.8-3.2c0-1.1-0.3-2-0.8-2.7c-0.5-0.6-1.2-1-2.2-1c-0.9,0-1.7,0.3-2.3,1C157.3,43.3,157,44.2,157,45.2z"/>
						<path class="st12" d="M176.8,53.1c-2.3,0-4.1-0.7-5.5-2c-1.4-1.3-2.1-3.1-2.1-5.3c0-2.2,0.7-4,2.1-5.4c1.4-1.4,3.3-2,5.7-2
							c2.3,0,4.2,0.7,5.5,2c1.3,1.3,2,3.1,2,5.1c0,2.2-0.7,4.1-2.2,5.4C180.9,52.4,179.1,53.1,176.8,53.1z M177,49.7
							c1.1,0,1.8-0.4,2.4-1.1c0.5-0.8,0.8-1.7,0.8-2.9c0-1.2-0.3-2.1-0.8-2.8c-0.5-0.7-1.3-1-2.4-1c-1,0-1.8,0.4-2.4,1.1
							c-0.6,0.7-0.9,1.7-0.9,2.9c0,1.2,0.3,2.1,0.8,2.9C175,49.3,175.9,49.7,177,49.7z"/>
						<path class="st12" d="M199.9,38.7l-4.3,7l4.4,7h-4.6l-2.1-3.7c-0.1-0.1-0.2-0.3-0.3-0.5c-0.1-0.2-0.2-0.4-0.3-0.7h-0.1
							c-0.1,0.2-0.2,0.4-0.3,0.6c-0.1,0.2-0.2,0.4-0.3,0.6l-2,3.7h-4.5l4.4-7l-4.3-7h4.5l2.1,3.7c0.1,0.2,0.2,0.4,0.3,0.6
							c0.1,0.2,0.2,0.4,0.2,0.6h0.1c0.1-0.2,0.2-0.4,0.3-0.6c0.1-0.2,0.2-0.4,0.3-0.6l2.1-3.7H199.9z"/>
					</g>
				</g>
			</g>
			<rect x="8.6" y="14.9" class="st20" width="318.7" height="60.2"/>
		</g>
	</g>
</g>
<g>
	<g>
		
			<linearGradient id="SVGID_00000036234306995056677330000014542709647573446050_" gradientUnits="userSpaceOnUse" x1="529.3877" y1="2.4226" x2="545.9697" y2="31.6418" gradientTransform="matrix(-1 0 0 1 1072.0781 0)">
			<stop  offset="0" style="stop-color:#F05B79"/>
			<stop  offset="1" style="stop-color:#D31F43"/>
		</linearGradient>
		<path style="fill:url(#SVGID_00000036234306995056677330000014542709647573446050_);" d="M517.7,16.7c0,9.3,7.4,16.7,16.6,16.8
			c9.3,0.1,16.9-7.3,17-16.6C551.4,7.5,543.9,0,534.5,0C525.3,0,517.7,7.5,517.7,16.7z"/>
	</g>
	<path class="st22" d="M530.9,23.3c-0.4,0.4-0.8,0.9-1.2,1.3c-0.1,0.1-0.2,0.2-0.3,0.2c-0.6,0.2-1.3,0.3-1.9,0.5
		c0.1-0.6,0.1-1.1,0.2-1.5c0.1-0.3,0.2-0.6,0.4-0.9c0.4-0.4,0.7-0.8,1.1-1.2L530.9,23.3z"/>
	<path class="st22" d="M530.6,23.3l2.1,1c4.1,1.4,8.7-0.5,10.7-4.5c2.1-4.3,0.3-9.5-4-11.6c-4.4-2.1-9.6-0.3-11.7,4
		C525.7,16.2,527,20.9,530.6,23.3z"/>
	
		<linearGradient id="SVGID_00000178911372418816060180000003037387440844376254_" gradientUnits="userSpaceOnUse" x1="542.5724" y1="24.5305" x2="544.3867" y2="23.008" gradientTransform="matrix(-1 0 0 1 1072.0781 0)">
		<stop  offset="0" style="stop-color:#F5F2F4"/>
		<stop  offset="0.6201" style="stop-color:#C68596"/>
	</linearGradient>
	<path style="fill:url(#SVGID_00000178911372418816060180000003037387440844376254_);" d="M530.7,23.1c-0.4,0.5-0.7,0.9-1.1,1.4
		c-0.1,0.1-0.1,0.2-0.3,0.2c-0.6,0.2-1.2,0.4-1.9,0.6c0-0.6,0-1.1,0.1-1.5c0.1-0.3,0.1-0.6,0.3-0.9c0.3-0.4,0.7-0.8,1-1.2
		L530.7,23.1z"/>
	
		<linearGradient id="SVGID_00000037681157452567968660000000764761328098712753_" gradientUnits="userSpaceOnUse" x1="529.1123" y1="11.142" x2="544.4045" y2="19.9709" gradientTransform="matrix(-1 0 0 1 1072.0781 0)">
		<stop  offset="0" style="stop-color:#F5F2F4"/>
		<stop  offset="1" style="stop-color:#E07C96"/>
	</linearGradient>
	<path style="fill:url(#SVGID_00000037681157452567968660000000764761328098712753_);" d="M528.9,21.6l1.8,1.5
		c3.7,2.3,8.6,1.5,11.5-2c3-3.8,2.5-9.3-1.3-12.4c-3.8-3.1-9.4-2.5-12.5,1.3C525.6,13.5,525.9,18.4,528.9,21.6z M539.3,9.7
		c0.2-0.3,0.6-0.3,0.9,0c1.4,1.2,2.3,2.7,2.6,4.6c0.1,0.4-0.1,0.7-0.5,0.8c-0.3,0-0.5-0.1-0.6-0.3c0-0.1-0.1-0.2-0.1-0.3
		c-0.1-0.2-0.1-0.5-0.2-0.7c-0.1-0.2-0.1-0.5-0.2-0.7c-0.4-1-1-1.8-1.8-2.4C539.2,10.3,539.1,10,539.3,9.7z M541.5,13.7
		c0.1,0.2,0.1,0.5,0.2,0.7c0,0.1,0.1,0.2,0.1,0.3c0-0.1-0.1-0.2-0.1-0.3C541.6,14.2,541.6,14,541.5,13.7z"/>
</g>
</svg>
