<?xml version="1.0" encoding="utf-8"?>
<!-- Generator: Adobe Illustrator 26.3.0, SVG Export Plug-In . SVG Version: 6.00 Build 0)  -->
<svg version="1.1" id="Camada_1" xmlns="http://www.w3.org/2000/svg" xmlns:xlink="http://www.w3.org/1999/xlink" x="0px" y="0px"
	 width="158.6px" height="32.1px" viewBox="0 0 158.6 32.1" style="enable-background:new 0 0 158.6 32.1;" xml:space="preserve">
<style type="text/css">
	.st0{fill:#29422D;}
	.st1{display:none;}
	.st2{display:inline;fill:#29422D;}
	.st3{fill:#E1E1E1;}
	.st4{fill:url(#SVGID_1_);}
	.st5{fill:url(#SVGID_00000062154399798023906660000004809265079034648971_);}
	.st6{fill:url(#SVGID_00000043417630930405010190000003559588187452479666_);}
	.st7{fill:url(#SVGID_00000098938436935154195240000003424162337636551812_);}
	.st8{fill:url(#SVGID_00000055707614342107672140000017920589249647754633_);}
	.st9{fill:url(#SVGID_00000152245668068003864210000008949016920263014532_);}
	.st10{fill:url(#SVGID_00000040567314677480023530000018242949086076130210_);}
	.st11{fill:#80BE65;}
</style>
<g>
	<g>
		<g>
			<path class="st0" d="M25.2,32.1H6.7c-3.7,0-6.7-3-6.7-6.7V6.9c0-3.7,3-6.7,6.7-6.7h18.5c3.7,0,6.7,3,6.7,6.7v18.5
				C31.8,29.1,28.8,32.1,25.2,32.1z"/>
		</g>
		<g class="st1">
			<path class="st2" d="M26.7,18.6c-0.1,0.4-0.4,0.7-0.8,0.7c-0.3,0-0.5,0-0.8,0c-0.1,0-0.2,0-0.3,0.2c0,0.1,0,0.1-0.1,0.2
				c-0.3,0.4-0.1,0.7,0.2,1c0.7,0.6,0.7,0.8,0.2,1.6c-0.9,1.3-1.9,2.3-3.2,3.2c-0.5,0.3-0.8,0.3-1.2-0.1c0,0-0.1-0.1-0.1-0.1
				c-0.2-0.2-0.4-0.5-0.6-0.5c-0.2,0-0.5,0.2-0.8,0.3c-0.1,0-0.1,0.1-0.1,0.2c0,0.3,0,0.6,0,0.9c0,0.4-0.2,0.7-0.6,0.8
				c-0.6,0.1-1.1,0.2-1.8,0.3V20c2.2-0.6,3.2-2.5,3.1-4c-0.1-1.6-1.1-3.2-3.1-3.7V5.1c0.6,0.1,1.2,0.2,1.8,0.3
				c0.4,0.1,0.6,0.4,0.6,0.7c0,0.3,0,0.6,0,0.8c0,0.2,0.1,0.3,0.2,0.3c0.1,0,0.1,0,0.2,0.1c0.4,0.3,0.7,0.1,1-0.2
				c0.6-0.7,0.9-0.7,1.6-0.2c1.3,0.9,2.3,1.9,3.2,3.2c0.3,0.5,0.3,0.8-0.1,1.2c0,0,0,0-0.1,0.1c-0.2,0.2-0.5,0.4-0.5,0.6
				c0,0.2,0.2,0.5,0.3,0.8c0,0.1,0.1,0.1,0.2,0.1c0.3,0,0.6,0,0.8,0c0.5,0,0.7,0.2,0.8,0.7C27.1,15.3,27.1,17,26.7,18.6z"/>
			<path class="st2" d="M15.2,6.4c0,6.5,0,12.9,0,19.4c0,0.1-0.1,0.2-0.1,0.3c-2.3,1.9-5.9,1.1-7.1-1.6c0,0,0-0.1-0.1-0.2
				c1.2,0.2,2.3,0.2,3.4-0.2c0.6-0.2,1.2-0.6,1.7-1c0.4-0.3,0.4-0.8,0.2-1.2c-0.3-0.4-0.8-0.4-1.2-0.1c-1.5,1.2-3.4,1.4-5,0.4
				c-1.6-1-2.4-3-1.8-4.7c0-0.1,0.1-0.2,0.1-0.3c0.1,0.1,0.2,0.2,0.3,0.3c0.8,0.9,1.7,1.4,2.8,1.7c0.4,0.1,0.8-0.1,1-0.6
				c0.1-0.4-0.1-0.8-0.6-1c-0.8-0.2-1.4-0.5-2-1.1c-0.9-1-1.1-2.1-1-3.3c0.1-1.3,0.9-2.3,2-2.9c0,0,0.1,0,0.1-0.1
				c0,0.3,0,0.6,0.1,0.9c0.2,1.8,1,3.3,2.5,4.4c0.1,0.1,0.1,0.2,0.1,0.3c-0.1,1.6,0.5,2.9,1.6,4c0.3,0.3,0.8,0.3,1.1,0
				c0.3-0.3,0.3-0.8,0.1-1.1c-0.2-0.2-0.4-0.4-0.5-0.6c-0.4-0.5-0.6-1-0.6-1.6c-0.1-1.1,0.2-2.1,1-2.9c0.1-0.1,0.3-0.3,0.3-0.5
				c0.1-0.3-0.1-0.7-0.4-0.8c-0.3-0.2-0.7-0.1-0.9,0.2c-0.4,0.5-0.8,1-1.2,1.5c-0.6-0.5-1-1.3-1.3-2.1c-0.3-1.1-0.3-2.3,0.2-3.4
				c0.9-2,3.1-3,5.1-2.3C15.1,6.1,15.2,6.2,15.2,6.4z"/>
		</g>
	</g>
</g>
<g>
	<g>
		<g>
			<g>
				<path class="st3" d="M58.2,22c-0.9,0.4-1.7,0.7-2.6,0.9c-0.8,0.2-1.7,0.3-2.7,0.3c-2.7,0-4.7-0.8-6.2-2.3
					c-1.5-1.5-2.2-3.7-2.2-6.4c0-2.7,0.8-4.9,2.5-6.6s3.8-2.6,6.5-2.6c0.9,0,1.7,0.1,2.4,0.2s1.5,0.4,2.2,0.7l-1,2.4
					c-0.6-0.3-1.2-0.4-1.8-0.6c-0.6-0.1-1.2-0.2-1.9-0.2c-1.7,0-3.2,0.6-4.3,1.7c-1.1,1.2-1.7,2.7-1.7,4.7c0,1.9,0.5,3.5,1.5,4.6
					c1,1.1,2.4,1.7,4.2,1.7c0.6,0,1.2-0.1,1.8-0.2c0.6-0.2,1.3-0.4,2-0.7L58.2,22z"/>
				<path class="st3" d="M66.6,23.2c-2,0-3.6-0.6-4.7-1.8c-1.2-1.2-1.7-2.8-1.7-4.8c0-2.1,0.6-3.8,1.8-4.9c1.2-1.2,2.8-1.8,4.9-1.8
					c2,0,3.5,0.6,4.6,1.7s1.7,2.8,1.7,4.8c0,2.1-0.6,3.7-1.8,4.9C70.2,22.6,68.6,23.2,66.6,23.2z M66.7,20.9c1.1,0,2-0.4,2.6-1.1
					c0.6-0.8,0.9-1.8,0.9-3.3c0-1.4-0.3-2.5-0.9-3.2c-0.6-0.7-1.5-1.1-2.6-1.1c-1.1,0-2,0.4-2.7,1.2c-0.6,0.8-1,1.9-1,3.2
					c0,1.4,0.3,2.4,1,3.2C64.7,20.5,65.6,20.9,66.7,20.9z"/>
				<path class="st3" d="M87.5,22.9h-2.9v-7.1c0-1.2-0.2-2.1-0.6-2.6c-0.4-0.6-1.1-0.9-1.9-0.9c-0.9,0-1.6,0.3-2.1,1
					c-0.6,0.7-0.8,1.5-0.8,2.5v7.2h-2.9V10.2h2.9v2h0c0.5-0.8,1-1.4,1.7-1.8c0.7-0.4,1.5-0.6,2.4-0.6c1.4,0,2.4,0.4,3.2,1.3
					c0.7,0.9,1.1,2.2,1.1,3.9V22.9z"/>
				<path class="st3" d="M103,28.6h-2.9v-7.7h0c-0.4,0.8-1,1.3-1.7,1.7c-0.7,0.4-1.5,0.6-2.4,0.6c-1.6,0-2.9-0.6-3.8-1.7
					c-1-1.1-1.4-2.7-1.4-4.6c0-2.1,0.5-3.8,1.6-5s2.5-1.9,4.2-1.9c0.8,0,1.5,0.2,2.1,0.5c0.6,0.3,1.1,0.8,1.5,1.4h0v-1.6h2.9V28.6z
					 M100.2,17v-1.5c0-0.9-0.3-1.7-0.9-2.4c-0.6-0.6-1.3-1-2.3-1c-1.1,0-1.9,0.4-2.5,1.2c-0.6,0.8-0.9,1.9-0.9,3.4
					c0,1.3,0.3,2.3,0.9,3c0.6,0.7,1.4,1.1,2.3,1.1c1,0,1.8-0.4,2.5-1.1S100.2,18.2,100.2,17z"/>
				<path class="st3" d="M117.6,22.9h-2.9v-2h-0.1c-0.4,0.8-1,1.3-1.6,1.7s-1.4,0.6-2.3,0.6c-1.5,0-2.6-0.4-3.3-1.3
					c-0.7-0.9-1.1-2.2-1.1-4v-7.6h2.9v7.3c0,1.1,0.2,2,0.7,2.6c0.4,0.6,1.1,0.9,2,0.9c0.9,0,1.6-0.3,2.1-0.9
					c0.5-0.6,0.8-1.4,0.8-2.5v-7.3h2.9V22.9z"/>
				<path class="st3" d="M122.9,8c-0.5,0-1-0.2-1.3-0.5c-0.3-0.3-0.5-0.7-0.5-1.2c0-0.5,0.2-0.9,0.5-1.2c0.3-0.3,0.8-0.5,1.3-0.5
					s1,0.2,1.3,0.5c0.3,0.3,0.5,0.7,0.5,1.2c0,0.5-0.2,0.9-0.5,1.2C123.8,7.8,123.4,8,122.9,8z M124.3,22.9h-2.9V10.2h2.9V22.9z"/>
				<path class="st3" d="M127.1,21.9l1.3-2c0.5,0.3,1,0.6,1.5,0.8s1.2,0.3,1.8,0.3c0.7,0,1.3-0.1,1.7-0.4c0.4-0.3,0.6-0.6,0.6-1.2
					c0-0.4-0.2-0.8-0.5-1s-0.9-0.5-1.7-0.7c-1.6-0.4-2.7-0.9-3.3-1.5c-0.6-0.6-0.9-1.4-0.9-2.4c0-1.1,0.5-2.1,1.4-2.8
					c0.9-0.7,2.1-1.1,3.5-1.1c0.7,0,1.4,0.1,2,0.3c0.6,0.2,1.3,0.5,1.9,0.9l-1.1,2c-0.5-0.3-1-0.6-1.5-0.7c-0.4-0.1-0.9-0.2-1.4-0.2
					c-0.7,0-1.2,0.1-1.6,0.4s-0.6,0.6-0.6,1.1s0.2,0.8,0.5,1c0.4,0.2,1,0.5,1.9,0.7c1.4,0.3,2.4,0.8,3,1.4s1,1.5,1,2.5
					c0,1.2-0.4,2.2-1.3,2.9c-0.9,0.7-2.1,1.1-3.6,1.1c-0.8,0-1.6-0.1-2.4-0.3C128.5,22.7,127.8,22.3,127.1,21.9z"/>
				<path class="st3" d="M146.3,22.7c-0.4,0.2-0.7,0.3-1.1,0.3c-0.4,0.1-0.8,0.1-1.3,0.1c-1.2,0-2.1-0.3-2.7-0.9s-0.9-1.5-0.9-2.8
					v-7h-2.1v-2.2h2.1V7.4l2.9-0.9v3.7h3v2.2h-3v6.7c0,0.6,0.1,1.1,0.3,1.4c0.2,0.3,0.6,0.4,1.1,0.4c0.2,0,0.5,0,0.7-0.1
					c0.2-0.1,0.4-0.1,0.6-0.2L146.3,22.7z"/>
				<path class="st3" d="M158.5,22.9h-2.8V21h0c-0.4,0.7-1,1.3-1.6,1.7c-0.6,0.4-1.4,0.6-2.2,0.6c-1.2,0-2.1-0.3-2.9-1
					c-0.7-0.7-1.1-1.6-1.1-2.8c0-1.1,0.4-2.1,1.1-2.8c0.8-0.7,1.9-1.2,3.4-1.4l3.4-0.4v-0.3c0-0.9-0.2-1.5-0.7-1.9
					c-0.4-0.4-1.1-0.6-1.8-0.6c-0.6,0-1.2,0.1-1.8,0.3c-0.6,0.2-1.2,0.6-1.8,1l-1.2-1.7c0.8-0.6,1.6-1,2.4-1.3s1.7-0.4,2.7-0.4
					c1.7,0,2.9,0.4,3.8,1.3c0.8,0.8,1.2,2.1,1.2,3.8V22.9z M155.7,17.7v-1.1L153,17c-0.8,0.1-1.4,0.3-1.8,0.7s-0.6,0.8-0.6,1.4
					c0,0.6,0.2,1.1,0.6,1.4c0.4,0.3,0.9,0.5,1.5,0.5c0.9,0,1.7-0.3,2.2-0.9C155.4,19.5,155.7,18.7,155.7,17.7z"/>
			</g>
		</g>
	</g>
</g>
<g>
	<g>
		<g>
			<linearGradient id="SVGID_1_" gradientUnits="userSpaceOnUse" x1="15.9171" y1="24.3043" x2="15.9171" y2="9.9579">
				<stop  offset="0.4944" style="stop-color:#329D43"/>
				<stop  offset="1" style="stop-color:#6FB85A"/>
			</linearGradient>
			<path class="st4" d="M21.5,11.4c-0.6,0.7-1.2,1.5-1.9,2.2c-0.4,0.5-0.8,1-1.3,1.5c-0.2,0.2-0.3,0.5-0.3,0.8c0,2.6,0,5.2,0,7.8
				c0,0.5-0.2,0.7-0.7,0.7c-0.2,0-0.4,0-0.5,0c-0.4,0-0.6-0.2-0.6-0.6c0-1.2,0-2.5,0-3.7c0-0.1,0-0.2,0-0.2c0-0.2-0.1-0.3-0.3-0.3
				c-0.2,0-0.3,0.1-0.3,0.3c0,0.2,0,0.4,0,0.6c0,1.1,0,2.2,0,3.3c0,0.5-0.2,0.6-0.7,0.6c-0.2,0-0.4,0-0.6,0c-0.4,0-0.6-0.2-0.6-0.6
				c0-1.3,0-2.7,0-4c0-1.3,0-2.6,0-3.8c0-0.3-0.1-0.6-0.3-0.9c-1-1.2-2-2.3-3-3.5c-0.1-0.2-0.2-0.4-0.3-0.5
				c-0.1-0.4,0.1-0.7,0.5-0.9c0.3-0.2,0.7-0.1,1,0.2c0.5,0.6,1,1.2,1.5,1.8c0.2,0.2,0.4,0.5,0.6,0.7c0.2,0.2,0.4,0.3,0.7,0.3
				c1,0,2,0,3,0c0.3,0,0.5-0.1,0.7-0.3c0.7-0.8,1.4-1.6,2-2.4c0.2-0.3,0.5-0.4,0.9-0.3C21.7,10.2,21.9,10.9,21.5,11.4z"/>
			
				<linearGradient id="SVGID_00000176017695470198566910000002039216202713602701_" gradientUnits="userSpaceOnUse" x1="15.9179" y1="28.2313" x2="15.9179" y2="25.0069">
				<stop  offset="1" style="stop-color:#329D43"/>
				<stop  offset="1" style="stop-color:#6FB85A"/>
			</linearGradient>
			<path style="fill:url(#SVGID_00000176017695470198566910000002039216202713602701_);" d="M21.2,27.6c0,0.4-0.2,0.6-0.6,0.6
				c-1.6,0-3.1,0-4.7,0c-1.5,0-3.1,0-4.6,0c-0.5,0-0.6-0.2-0.6-0.6c0-0.7,0-1.3,0-2c0-0.4,0.2-0.6,0.6-0.6c3.1,0,6.3,0,9.4,0
				c0.4,0,0.6,0.2,0.6,0.6C21.2,26.3,21.2,27,21.2,27.6z"/>
			
				<linearGradient id="SVGID_00000180329211130745126250000017961878843925310655_" gradientUnits="userSpaceOnUse" x1="10.7648" y1="7.1552" x2="10.7648" y2="4.0767">
				<stop  offset="0" style="stop-color:#329D43"/>
				<stop  offset="1" style="stop-color:#6FB85A"/>
			</linearGradient>
			<path style="fill:url(#SVGID_00000180329211130745126250000017961878843925310655_);" d="M12.7,4.3c-0.2,0-0.4,0.1-0.6-0.2
				c0,0-0.2,0-0.2,0h-1.1c-0.4,0-0.8,0-1.1,0c-0.1,0-0.2,0-0.3,0.1C9.3,4.3,9.1,4.3,9,4.3H8.5c-0.2,0-0.4,0.1-0.4,0.4
				c0,0.2,0,0.3,0,0.5c0,0.8,0.6,1.4,1.4,1.5c0.1,0,0.2,0.1,0.3,0.1c0.5,0.4,1.1,0.4,1.6,0.1c0.2-0.1,0.4-0.2,0.7-0.3
				c0.8-0.2,1.2-0.8,1.2-1.7C13.4,4.4,13.3,4.3,12.7,4.3z M9.3,5.8C9,5.7,8.9,5.5,8.9,5h0.4V5.8z M11.2,6.1c-0.3-0.2-0.6-0.2-0.8,0
				c0.1-0.3,0-0.6-0.2-0.8c0.4,0,0.6-0.1,0.7-0.5c0.1,0.3,0.3,0.5,0.7,0.5C11.2,5.5,11,5.7,11.2,6.1z M12.3,5.8V5h0.4
				C12.7,5.4,12.5,5.7,12.3,5.8z"/>
			
				<linearGradient id="SVGID_00000064341419615032473310000003113672165395533208_" gradientUnits="userSpaceOnUse" x1="15.9177" y1="11.8414" x2="15.9177" y2="8.2688">
				<stop  offset="0" style="stop-color:#329D43"/>
				<stop  offset="1" style="stop-color:#6FB85A"/>
			</linearGradient>
			<path style="fill:url(#SVGID_00000064341419615032473310000003113672165395533208_);" d="M17.7,10.1c0,1-0.8,1.8-1.8,1.8
				c-1,0-1.8-0.8-1.8-1.8c0-1,0.8-1.8,1.8-1.8C16.9,8.3,17.7,9.1,17.7,10.1z"/>
			
				<linearGradient id="SVGID_00000154427457365371794970000013630789659530477981_" gradientUnits="userSpaceOnUse" x1="22.3794" y1="17.5891" x2="25.8265" y2="17.5891">
				<stop  offset="0" style="stop-color:#329D43"/>
				<stop  offset="1" style="stop-color:#6FB85A"/>
			</linearGradient>
			<path style="fill:url(#SVGID_00000154427457365371794970000013630789659530477981_);" d="M25.6,17.8c-0.6,0.3-1,0.7-1.3,1.3
				c0,0.1-0.1,0.1-0.2,0.2c-0.1-0.1-0.2-0.1-0.2-0.2c-0.3-0.6-0.7-1-1.3-1.3c-0.2-0.1-0.2-0.4,0-0.5c0.6-0.3,1-0.7,1.3-1.3
				c0.1-0.2,0.4-0.2,0.5,0c0.3,0.6,0.7,1,1.3,1.3C25.9,17.5,25.9,17.7,25.6,17.8z"/>
			
				<linearGradient id="SVGID_00000133505990406028237610000010879168701448488073_" gradientUnits="userSpaceOnUse" x1="7.7187" y1="19.3413" x2="7.7187" y2="15.8665">
				<stop  offset="0" style="stop-color:#329D43"/>
				<stop  offset="1" style="stop-color:#6FB85A"/>
			</linearGradient>
			<path style="fill:url(#SVGID_00000133505990406028237610000010879168701448488073_);" d="M9.4,17.6c0,0.1-0.1,0.2-0.2,0.3
				c-0.6,0.3-1,0.7-1.2,1.3c0,0.1-0.1,0.2-0.3,0.3c-0.1-0.1-0.2-0.1-0.2-0.2c-0.3-0.6-0.7-1-1.3-1.3c-0.3-0.1-0.2-0.4,0-0.5
				c0.6-0.3,1-0.7,1.3-1.3c0-0.1,0.2-0.2,0.3-0.2C7.8,15.9,7.9,16,8,16c0.3,0.6,0.7,1,1.3,1.3C9.3,17.4,9.4,17.5,9.4,17.6z"/>
			
				<linearGradient id="SVGID_00000120519791852340176800000004262379035776644795_" gradientUnits="userSpaceOnUse" x1="10.7759" y1="10.1578" x2="10.7759" y2="7.8302">
				<stop  offset="0" style="stop-color:#329D43"/>
				<stop  offset="1" style="stop-color:#6FB85A"/>
			</linearGradient>
			<path style="fill:url(#SVGID_00000120519791852340176800000004262379035776644795_);" d="M12.2,9.7c-1-0.7-1.8-0.6-2.6,0.5
				c0-0.1-0.1-0.2-0.1-0.3c0-0.3,0-0.6,0-1c0-0.3,0.2-0.4,0.5-0.4c0.3,0,0.3-0.1,0.3-0.3c0-0.1,0-0.2,0-0.3h1.1v0.6
				c0.3,0,0.6,0,0.8,0.3C12.1,9,12.1,9.4,12.2,9.7z"/>
		</g>
	</g>
	<path class="st11" d="M8.4,4.4c0,0.1-0.3,0.6-0.1,1.2c0.2,0.7,0.9,0.9,1,1C9.2,6.5,8.7,6.2,8.5,5.6C8.3,5.1,8.3,4.6,8.4,4.4z"/>
	<path class="st11" d="M7.6,16c-0.1,0.2-0.2,0.5-0.5,0.8c-0.4,0.4-0.8,0.6-1,0.6c0.3-0.1,0.6-0.4,0.9-0.7C7.3,16.5,7.5,16.2,7.6,16z
		"/>
	<path class="st11" d="M24.3,15.9c0,0.2,0.2,0.5,0.4,0.8c0.4,0.5,0.9,0.6,1.1,0.7c-0.2-0.1-0.6-0.3-0.9-0.7
		C24.5,16.5,24.4,16.2,24.3,15.9z"/>
	<path class="st11" d="M14.7,8.8c0.1-0.1,0.5-0.5,1.2-0.5c0.7,0,1.2,0.5,1.3,0.5c-0.1-0.1-0.6-0.5-1.2-0.5
		C15.3,8.3,14.8,8.7,14.7,8.8z"/>
	<path class="st11" d="M9.5,10.2c0.2-0.5,0.6-0.9,1.1-1c0.6-0.1,1.1,0.1,1.5,0.6c-0.1-0.1-0.3-0.2-0.6-0.3c-0.2-0.1-0.5-0.2-0.8-0.1
		c-0.3,0.1-0.5,0.2-0.7,0.3C9.8,9.8,9.6,10,9.5,10.2z"/>
	<path class="st11" d="M21.1,27.7c0,0,0.1,0.2,0,0.4c-0.1,0.1-0.3,0.2-0.4,0.1c0,0,0.2,0,0.4-0.2C21.1,27.9,21.1,27.7,21.1,27.7z"/>
	<path class="st11" d="M9.3,17.3c0.1,0,0.1,0.1,0.2,0.2c0,0.1-0.1,0.2-0.1,0.2c0,0,0.1-0.1,0.1-0.2C9.4,17.4,9.3,17.3,9.3,17.3z"/>
</g>
</svg>
