<?xml version="1.0" encoding="utf-8"?>
<!-- Generator: Adobe Illustrator 26.3.0, SVG Export Plug-In . SVG Version: 6.00 Build 0)  -->
<svg version="1.1" id="Camada_1" xmlns="http://www.w3.org/2000/svg" xmlns:xlink="http://www.w3.org/1999/xlink" x="0px" y="0px"
	 width="165px" height="32.1px" viewBox="0 0 165 32.1" style="enable-background:new 0 0 165 32.1;" xml:space="preserve">
<style type="text/css">
	.st0{fill:#291715;}
	.st1{display:none;}
	.st2{display:inline;fill:#291B14;}
	.st3{fill:#E1E1E1;}
	.st4{fill:url(#SVGID_1_);}
	.st5{fill:#E35027;}
	.st6{fill:#CA3E1D;}
</style>
<g>
	<g>
		<g>
			<path class="st0" d="M25.3,32.1H6.7c-3.7,0-6.7-3-6.7-6.7V6.9c0-3.7,3-6.7,6.7-6.7h18.5c3.7,0,6.7,3,6.7,6.7v18.5
				C31.9,29.1,28.9,32.1,25.3,32.1z"/>
		</g>
		<g class="st1">
			<path class="st2" d="M26.8,18.7c-0.1,0.4-0.4,0.7-0.8,0.7c-0.3,0-0.5,0-0.8,0c-0.1,0-0.2,0-0.3,0.2c0,0.1,0,0.1-0.1,0.2
				c-0.3,0.4-0.1,0.7,0.2,1c0.7,0.6,0.7,0.8,0.2,1.6c-0.9,1.3-1.9,2.3-3.2,3.2c-0.5,0.3-0.8,0.3-1.2-0.1c0,0-0.1-0.1-0.1-0.1
				c-0.2-0.2-0.4-0.5-0.6-0.5c-0.2,0-0.5,0.2-0.8,0.3c-0.1,0-0.1,0.1-0.1,0.2c0,0.3,0,0.6,0,0.9c0,0.4-0.2,0.7-0.6,0.8
				c-0.6,0.1-1.1,0.2-1.8,0.3V20c2.2-0.6,3.2-2.5,3.1-4c-0.1-1.6-1.1-3.2-3.1-3.7V5.1c0.6,0.1,1.2,0.2,1.8,0.3
				c0.4,0.1,0.6,0.4,0.6,0.7c0,0.3,0,0.6,0,0.8c0,0.2,0.1,0.3,0.2,0.3c0.1,0,0.1,0,0.2,0.1c0.4,0.3,0.7,0.1,1-0.2
				c0.6-0.7,0.9-0.7,1.6-0.2c1.3,0.9,2.3,1.9,3.2,3.2c0.3,0.5,0.3,0.8-0.1,1.2c0,0,0,0-0.1,0.1c-0.2,0.2-0.5,0.4-0.5,0.6
				c0,0.2,0.2,0.5,0.3,0.8c0,0.1,0.1,0.1,0.2,0.1c0.3,0,0.6,0,0.8,0c0.5,0,0.7,0.2,0.8,0.7C27.1,15.3,27.1,17,26.8,18.7z"/>
			<path class="st2" d="M15.2,6.4c0,6.5,0,12.9,0,19.4c0,0.1-0.1,0.2-0.1,0.3c-2.3,1.9-5.9,1.1-7.1-1.6c0,0,0-0.1-0.1-0.2
				c1.2,0.2,2.3,0.2,3.4-0.2c0.6-0.2,1.2-0.6,1.7-1c0.4-0.3,0.4-0.8,0.2-1.2c-0.3-0.4-0.8-0.4-1.2-0.1c-1.5,1.2-3.4,1.4-5,0.4
				c-1.6-1-2.4-3-1.8-4.7c0-0.1,0.1-0.2,0.1-0.3c0.1,0.1,0.2,0.2,0.3,0.3c0.8,0.9,1.7,1.4,2.8,1.7c0.4,0.1,0.8-0.1,1-0.6
				c0.1-0.4-0.1-0.8-0.6-1c-0.8-0.2-1.4-0.5-2-1.1c-0.9-1-1.1-2.1-1-3.3C6,12,6.7,11,7.8,10.3c0,0,0.1,0,0.1-0.1
				c0,0.3,0,0.6,0.1,0.9c0.2,1.8,1,3.3,2.5,4.4c0.1,0.1,0.1,0.2,0.1,0.3c-0.1,1.6,0.5,2.9,1.6,4c0.3,0.3,0.8,0.3,1.1,0
				c0.3-0.3,0.3-0.8,0.1-1.1c-0.2-0.2-0.4-0.4-0.5-0.6c-0.4-0.5-0.6-1-0.6-1.6c-0.1-1.1,0.2-2.1,1-2.9c0.1-0.1,0.3-0.3,0.3-0.5
				c0.1-0.3-0.1-0.7-0.4-0.8c-0.3-0.2-0.7-0.1-0.9,0.2c-0.4,0.5-0.8,1-1.2,1.5c-0.6-0.5-1-1.3-1.3-2.1c-0.3-1.1-0.3-2.3,0.2-3.4
				c0.9-2,3.1-3,5.1-2.3C15.2,6.2,15.2,6.2,15.2,6.4z"/>
		</g>
	</g>
</g>
<g>
	<g>
		<g>
			<g>
				<path class="st3" d="M55.3,22.9h-9.7V5.6h9.4v2.5h-6.4v4.8h6v2.5h-6v5h6.8V22.9z"/>
				<path class="st3" d="M57.2,21.9l1.3-2c0.5,0.3,1,0.6,1.5,0.8s1.2,0.3,1.8,0.3c0.7,0,1.3-0.1,1.7-0.4c0.4-0.3,0.6-0.6,0.6-1.2
					c0-0.4-0.2-0.8-0.5-1s-0.9-0.5-1.7-0.7c-1.6-0.4-2.7-0.9-3.3-1.5c-0.6-0.6-0.9-1.4-0.9-2.4c0-1.1,0.5-2.1,1.4-2.8
					c0.9-0.7,2.1-1.1,3.5-1.1c0.7,0,1.4,0.1,2,0.3c0.6,0.2,1.3,0.5,1.9,0.9l-1.1,2c-0.5-0.3-1-0.6-1.5-0.7c-0.4-0.1-0.9-0.2-1.4-0.2
					c-0.7,0-1.2,0.1-1.6,0.4s-0.6,0.6-0.6,1.1s0.2,0.8,0.5,1c0.4,0.2,1,0.5,1.9,0.7c1.4,0.3,2.4,0.8,3,1.4s1,1.5,1,2.5
					c0,1.2-0.4,2.2-1.3,2.9c-0.9,0.7-2.1,1.1-3.6,1.1c-0.8,0-1.6-0.1-2.4-0.3C58.5,22.7,57.8,22.3,57.2,21.9z"/>
				<path class="st3" d="M76.3,22.7c-0.4,0.2-0.7,0.3-1.1,0.3c-0.4,0.1-0.8,0.1-1.3,0.1c-1.2,0-2.1-0.3-2.7-0.9s-0.9-1.5-0.9-2.8v-7
					h-2.1v-2.2h2.1V7.4l2.9-0.9v3.7h3v2.2h-3v6.7c0,0.6,0.1,1.1,0.3,1.4c0.2,0.3,0.6,0.4,1.1,0.4c0.2,0,0.5,0,0.7-0.1
					c0.2-0.1,0.4-0.1,0.6-0.2L76.3,22.7z"/>
				<path class="st3" d="M89.9,22.9H87v-2h-0.1c-0.4,0.8-1,1.3-1.6,1.7s-1.4,0.6-2.3,0.6c-1.5,0-2.6-0.4-3.3-1.3
					c-0.7-0.9-1.1-2.2-1.1-4v-7.6h2.9v7.3c0,1.1,0.2,2,0.7,2.6c0.4,0.6,1.1,0.9,2,0.9c0.9,0,1.6-0.3,2.1-0.9
					c0.5-0.6,0.8-1.4,0.8-2.5v-7.3h2.9V22.9z"/>
				<path class="st3" d="M102.3,20.9c-0.5,0.8-1,1.3-1.7,1.7c-0.7,0.4-1.5,0.6-2.4,0.6c-1.6,0-2.9-0.6-3.8-1.7
					c-1-1.1-1.4-2.7-1.4-4.6c0-2.1,0.5-3.8,1.6-5s2.5-1.9,4.2-1.9c0.8,0,1.6,0.2,2.2,0.5c0.6,0.3,1.1,0.8,1.4,1.4h0V4.6h2.9v18.3
					h-2.9L102.3,20.9L102.3,20.9z M95.8,16.7c0,1.3,0.3,2.3,0.9,3.1s1.4,1.1,2.4,1.1c1,0,1.8-0.4,2.4-1.1s0.9-1.7,0.9-2.8v-1.5
					c0-0.9-0.3-1.7-0.9-2.4c-0.6-0.6-1.3-0.9-2.2-0.9c-1.1,0-1.9,0.4-2.5,1.2S95.8,15.3,95.8,16.7z"/>
				<path class="st3" d="M118.8,22.9H116V21h0c-0.4,0.7-1,1.3-1.6,1.7c-0.6,0.4-1.4,0.6-2.2,0.6c-1.2,0-2.1-0.3-2.9-1
					c-0.7-0.7-1.1-1.6-1.1-2.8c0-1.1,0.4-2.1,1.1-2.8c0.8-0.7,1.9-1.2,3.4-1.4l3.4-0.4v-0.3c0-0.9-0.2-1.5-0.7-1.9
					c-0.4-0.4-1.1-0.6-1.8-0.6c-0.6,0-1.2,0.1-1.8,0.3c-0.6,0.2-1.2,0.6-1.8,1l-1.2-1.7c0.8-0.6,1.6-1,2.4-1.3s1.7-0.4,2.7-0.4
					c1.7,0,2.9,0.4,3.8,1.3c0.8,0.8,1.2,2.1,1.2,3.8V22.9z M116,17.7v-1.1l-2.7,0.4c-0.8,0.1-1.4,0.3-1.8,0.7s-0.6,0.8-0.6,1.4
					c0,0.6,0.2,1.1,0.6,1.4c0.4,0.3,0.9,0.5,1.5,0.5c0.9,0,1.7-0.3,2.2-0.9C115.7,19.5,116,18.7,116,17.7z"/>
				<path class="st3" d="M133.7,22.9h-2.9v-7.1c0-1.2-0.2-2.1-0.6-2.6c-0.4-0.6-1.1-0.9-1.9-0.9c-0.9,0-1.6,0.3-2.1,1
					c-0.6,0.7-0.8,1.5-0.8,2.5v7.2h-2.9V10.2h2.9v2h0c0.5-0.8,1-1.4,1.7-1.8c0.7-0.4,1.5-0.6,2.4-0.6c1.4,0,2.4,0.4,3.2,1.3
					c0.7,0.9,1.1,2.2,1.1,3.9V22.9z"/>
				<path class="st3" d="M145.9,20.9c-0.5,0.8-1,1.3-1.7,1.7c-0.7,0.4-1.5,0.6-2.4,0.6c-1.6,0-2.9-0.6-3.8-1.7
					c-1-1.1-1.4-2.7-1.4-4.6c0-2.1,0.5-3.8,1.6-5s2.5-1.9,4.2-1.9c0.8,0,1.6,0.2,2.2,0.5c0.6,0.3,1.1,0.8,1.4,1.4h0V4.6h2.9v18.3
					H146L145.9,20.9L145.9,20.9z M139.5,16.7c0,1.3,0.3,2.3,0.9,3.1s1.4,1.1,2.4,1.1c1,0,1.8-0.4,2.4-1.1s0.9-1.7,0.9-2.8v-1.5
					c0-0.9-0.3-1.7-0.9-2.4c-0.6-0.6-1.3-0.9-2.2-0.9c-1.1,0-1.9,0.4-2.5,1.2S139.5,15.3,139.5,16.7z"/>
				<path class="st3" d="M158.4,23.2c-2,0-3.6-0.6-4.7-1.8c-1.2-1.2-1.7-2.8-1.7-4.8c0-2.1,0.6-3.8,1.8-4.9c1.2-1.2,2.8-1.8,4.9-1.8
					c2,0,3.5,0.6,4.6,1.7s1.7,2.8,1.7,4.8c0,2.1-0.6,3.7-1.8,4.9C162,22.6,160.4,23.2,158.4,23.2z M158.5,20.9c1.1,0,2-0.4,2.6-1.1
					c0.6-0.8,0.9-1.8,0.9-3.3c0-1.4-0.3-2.5-0.9-3.2c-0.6-0.7-1.5-1.1-2.6-1.1c-1.1,0-2,0.4-2.7,1.2c-0.6,0.8-1,1.9-1,3.2
					c0,1.4,0.3,2.4,1,3.2C156.5,20.5,157.4,20.9,158.5,20.9z"/>
			</g>
		</g>
	</g>
</g>
<g>
	<g>
		<linearGradient id="SVGID_1_" gradientUnits="userSpaceOnUse" x1="15.993" y1="4.6618" x2="15.993" y2="15.4585">
			<stop  offset="0" style="stop-color:#F18A61"/>
			<stop  offset="1" style="stop-color:#E35027"/>
		</linearGradient>
		<path class="st4" d="M21.3,9.4c-0.3-2.2-1.6-3.7-3.6-4.5c-0.4-0.1-0.7-0.2-1.1-0.3h-1.2c-0.1,0-0.3,0.1-0.4,0.1
			c-2.9,0.5-4.8,3.3-4.4,6.1c0.5,3,3.2,4.9,6.2,4.5C19.7,15,21.7,12.3,21.3,9.4z M16.9,10.8c0,0.4-0.4,0.7-0.8,0.6
			c-0.6-0.2-1.2-0.5-1.7-0.7c-0.3-0.1-0.4-0.5-0.3-0.8c0.1-0.3,0.5-0.5,0.8-0.4c0.2,0.1,0.5,0.2,0.7,0.3c0-0.5,0-1,0-1.5
			c0-0.1,0-0.2,0-0.3c0.1-0.3,0.4-0.5,0.7-0.5c0.3,0,0.6,0.3,0.6,0.6C16.9,9,16.9,9.9,16.9,10.8z"/>
		<g>
			<path class="st5" d="M26.8,21.6c0,0.4-0.3,0.7-0.7,0.7c-5.5,0-11,0-16.5,0c-0.6,0-1.1,0-1.7,0c-1.3,0-2.5-1.1-2.7-2.4
				c-0.1-1.4,0.8-2.7,2.2-2.9c0.1,0,0.3,0,0.4,0c6.1,0,12.2,0,18.3,0c0.4,0,0.7,0.3,0.7,0.7c0,0.4-0.3,0.7-0.7,0.7
				c-0.2,0-0.4,0-0.6,0v0.7H8.8c-0.1,0-0.2,0-0.2,0c-0.4,0-0.7,0.3-0.7,0.7c0,0.4,0.3,0.7,0.7,0.7c0.1,0,0.1,0,0.2,0h16.6v0.7
				c0.2,0,0.4,0,0.6,0C26.5,20.9,26.8,21.2,26.8,21.6z"/>
		</g>
		<g>
			<path class="st6" d="M26.8,27c0,0.4-0.3,0.7-0.7,0.7c-6.3,0-12.6,0-18.9,0c-1,0-1.9-0.8-2-1.8c-0.1-1,0.6-2,1.6-2.2
				c0.2,0,0.3,0,0.5,0c6.3,0,12.5,0,18.8,0c0.4,0,0.7,0.3,0.7,0.7c0,0.4-0.3,0.7-0.7,0.7c-0.2,0-0.4,0-0.6,0v1.4c0.2,0,0.4,0,0.6,0
				C26.5,26.3,26.8,26.6,26.8,27z"/>
		</g>
	</g>
</g>
</svg>
