<?xml version="1.0" encoding="utf-8"?>
<!-- Generator: Adobe Illustrator 26.3.0, SVG Export Plug-In . SVG Version: 6.00 Build 0)  -->
<svg version="1.1" id="Camada_1" xmlns="http://www.w3.org/2000/svg" xmlns:xlink="http://www.w3.org/1999/xlink" x="0px" y="0px"
	 width="186.2px" height="32.1px" viewBox="0 0 186.2 32.1" style="enable-background:new 0 0 186.2 32.1;" xml:space="preserve">
<style type="text/css">
	.st0{fill:#483A23;}
	.st1{display:none;}
	.st2{display:inline;fill:#483A23;}
	.st3{fill:#E1E1E1;}
	.st4{fill:url(#SVGID_1_);}
	.st5{fill:url(#SVGID_00000070841320351642729120000000672941273744087941_);}
	.st6{fill:url(#SVGID_00000030446575494890802810000003939665562009374598_);}
	.st7{fill:url(#SVGID_00000013872825324926138180000004376824101663493804_);}
	.st8{fill:url(#SVGID_00000158714715942983420910000004898260716414570884_);}
	.st9{fill:url(#SVGID_00000037686773313293843890000011533198634961310607_);}
</style>
<g>
	<path class="st0" d="M25.3,32H6.7c-3.7,0-6.7-3-6.7-6.7V6.9c0-3.7,3-6.7,6.7-6.7h18.5c3.7,0,6.7,3,6.7,6.7v18.5
		C31.9,29,28.9,32,25.3,32z"/>
	<g class="st1">
		<path class="st2" d="M26.8,18.6c-0.1,0.4-0.4,0.7-0.8,0.7c-0.3,0-0.5,0-0.8,0c-0.1,0-0.2,0-0.3,0.2c0,0.1,0,0.1-0.1,0.2
			c-0.3,0.4-0.1,0.7,0.2,1c0.7,0.6,0.7,0.8,0.2,1.6c-0.9,1.3-1.9,2.3-3.2,3.2c-0.5,0.3-0.8,0.3-1.2-0.1c0,0-0.1-0.1-0.1-0.1
			c-0.2-0.2-0.4-0.5-0.6-0.5c-0.2,0-0.5,0.2-0.8,0.3c-0.1,0-0.1,0.1-0.1,0.2c0,0.3,0,0.6,0,0.9c0,0.4-0.2,0.7-0.6,0.8
			c-0.6,0.1-1.1,0.2-1.8,0.3V20c2.2-0.6,3.2-2.5,3.1-4c-0.1-1.6-1.1-3.2-3.1-3.7V5.1c0.6,0.1,1.2,0.2,1.8,0.3
			c0.4,0.1,0.6,0.4,0.6,0.7c0,0.3,0,0.6,0,0.8c0,0.2,0.1,0.3,0.2,0.3c0.1,0,0.1,0,0.2,0.1c0.4,0.3,0.7,0.1,1-0.2
			c0.6-0.7,0.9-0.7,1.6-0.2c1.3,0.9,2.3,1.9,3.2,3.2c0.3,0.5,0.3,0.8-0.1,1.2c0,0,0,0-0.1,0.1c-0.2,0.2-0.5,0.4-0.5,0.6
			c0,0.2,0.2,0.5,0.3,0.8c0,0.1,0.1,0.1,0.2,0.1c0.3,0,0.6,0,0.8,0c0.5,0,0.7,0.2,0.8,0.7C27.1,15.3,27.1,16.9,26.8,18.6z"/>
		<path class="st2" d="M15.2,6.3c0,6.5,0,12.9,0,19.4c0,0.1-0.1,0.2-0.1,0.3C12.8,28,9.2,27.2,8,24.5c0,0,0-0.1-0.1-0.2
			c1.2,0.2,2.3,0.2,3.4-0.2c0.6-0.2,1.2-0.6,1.7-1c0.4-0.3,0.4-0.8,0.2-1.2c-0.3-0.4-0.8-0.4-1.2-0.1c-1.5,1.2-3.4,1.4-5,0.4
			c-1.6-1-2.4-3-1.8-4.7c0-0.1,0.1-0.2,0.1-0.3c0.1,0.1,0.2,0.2,0.3,0.3c0.8,0.9,1.7,1.4,2.8,1.7c0.4,0.1,0.8-0.1,1-0.6
			c0.1-0.4-0.1-0.8-0.6-1c-0.8-0.2-1.4-0.5-2-1.1c-0.9-1-1.1-2.1-1-3.3c0.1-1.3,0.9-2.3,2-2.9c0,0,0.1,0,0.1-0.1
			c0,0.3,0,0.6,0.1,0.9c0.2,1.8,1,3.3,2.5,4.4c0.1,0.1,0.1,0.2,0.1,0.3c-0.1,1.6,0.5,2.9,1.6,4c0.3,0.3,0.8,0.3,1.1,0
			c0.3-0.3,0.3-0.8,0.1-1.1c-0.2-0.2-0.4-0.4-0.5-0.6c-0.4-0.5-0.6-1-0.6-1.6c-0.1-1.1,0.2-2.1,1-2.9c0.1-0.1,0.3-0.3,0.3-0.5
			c0.1-0.3-0.1-0.7-0.4-0.8c-0.3-0.2-0.7-0.1-0.9,0.2c-0.4,0.5-0.8,1-1.2,1.5c-0.6-0.5-1-1.3-1.3-2.1c-0.3-1.1-0.3-2.3,0.2-3.4
			c0.9-2,3.1-3,5.1-2.3C15.2,6.1,15.2,6.2,15.2,6.3z"/>
	</g>
</g>
<g>
	<g>
		<g>
			<g>
				<path class="st3" d="M54.9,8.1h-6.4v5.1h5.9v2.5h-5.9v7.2h-2.9V5.6h9.4V8.1z"/>
				<path class="st3" d="M68.7,17.3H60c0.1,1.2,0.4,2.1,1,2.7s1.5,0.9,2.7,0.9c0.5,0,1-0.1,1.6-0.3s1.2-0.5,1.8-0.9l1.3,1.8
					c-0.8,0.6-1.6,1-2.4,1.2c-0.8,0.3-1.7,0.4-2.7,0.4c-2,0-3.5-0.6-4.6-1.7c-1.1-1.1-1.6-2.7-1.7-4.8c0-2,0.6-3.7,1.7-4.9
					c1.1-1.2,2.6-1.9,4.4-1.9c1.7,0,3,0.5,4,1.6c1,1.1,1.5,2.6,1.5,4.5V17.3z M65.9,15.3c0-1.1-0.2-1.9-0.7-2.5
					c-0.5-0.6-1.1-0.8-2-0.8c-0.8,0-1.5,0.3-2.1,0.9s-0.9,1.4-1,2.4H65.9z"/>
				<path class="st3" d="M78.6,12.6c-0.2,0-0.3-0.1-0.5-0.1s-0.3,0-0.5,0c-1,0-1.8,0.4-2.3,1.1s-0.8,1.8-0.8,3v6.2h-2.9V10.2h2.9
					v2.4h0c0.3-0.9,0.7-1.5,1.3-2c0.6-0.4,1.3-0.7,2.1-0.7c0.2,0,0.4,0,0.6,0c0.2,0,0.4,0.1,0.5,0.1L78.6,12.6z"/>
				<path class="st3" d="M88.2,12.6c-0.2,0-0.3-0.1-0.5-0.1s-0.3,0-0.5,0c-1,0-1.8,0.4-2.3,1.1s-0.8,1.8-0.8,3v6.2h-2.9V10.2H84v2.4
					h0c0.3-0.9,0.7-1.5,1.3-2c0.6-0.4,1.3-0.7,2.1-0.7c0.2,0,0.4,0,0.6,0c0.2,0,0.4,0.1,0.5,0.1L88.2,12.6z"/>
				<path class="st3" d="M100.4,22.9h-2.8v-1.9h0c-0.4,0.7-1,1.3-1.6,1.7c-0.6,0.4-1.4,0.6-2.2,0.6c-1.2,0-2.1-0.3-2.9-1
					c-0.7-0.7-1.1-1.6-1.1-2.8c0-1.1,0.4-2.1,1.1-2.8c0.8-0.7,1.9-1.2,3.4-1.4l3.4-0.4v-0.3c0-0.9-0.2-1.5-0.7-1.9
					c-0.4-0.4-1.1-0.6-1.8-0.6c-0.6,0-1.2,0.1-1.8,0.3c-0.6,0.2-1.2,0.6-1.8,1l-1.2-1.7c0.8-0.6,1.6-1,2.4-1.3s1.7-0.4,2.7-0.4
					c1.7,0,2.9,0.4,3.8,1.3c0.8,0.8,1.2,2.1,1.2,3.8V22.9z M97.6,17.7v-1.1L94.9,17c-0.8,0.1-1.4,0.3-1.8,0.7s-0.6,0.8-0.6,1.4
					c0,0.6,0.2,1.1,0.6,1.4c0.4,0.3,0.9,0.5,1.5,0.5c0.9,0,1.7-0.3,2.2-0.9C97.4,19.5,97.6,18.7,97.6,17.7z"/>
				<path class="st3" d="M123,22.9h-2.9v-7.2c0-1.2-0.2-2.1-0.6-2.6c-0.4-0.5-1-0.8-1.9-0.8c-0.8,0-1.4,0.3-1.9,1
					c-0.5,0.7-0.8,1.5-0.8,2.5v7.2h-2.9v-7.4c0-1.1-0.2-1.9-0.6-2.4c-0.4-0.5-1-0.8-1.9-0.8c-0.8,0-1.4,0.3-1.9,1
					c-0.5,0.6-0.7,1.5-0.7,2.6v7.1h-2.9V10.2h2.9v2h0c0.4-0.7,1-1.3,1.7-1.7c0.7-0.4,1.5-0.6,2.3-0.6s1.6,0.2,2.2,0.7
					c0.6,0.4,1.1,1.1,1.4,1.8c0.5-0.8,1.1-1.5,1.8-1.9c0.7-0.4,1.5-0.6,2.5-0.6c1.4,0,2.4,0.4,3.1,1.3c0.7,0.9,1,2.1,1,3.8V22.9z"/>
				<path class="st3" d="M137.3,17.3h-8.6c0.1,1.2,0.4,2.1,1,2.7s1.5,0.9,2.7,0.9c0.5,0,1-0.1,1.6-0.3s1.2-0.5,1.8-0.9l1.3,1.8
					c-0.8,0.6-1.6,1-2.4,1.2c-0.8,0.3-1.7,0.4-2.7,0.4c-2,0-3.5-0.6-4.6-1.7c-1.1-1.1-1.6-2.7-1.7-4.8c0-2,0.6-3.7,1.7-4.9
					c1.1-1.2,2.6-1.9,4.4-1.9c1.7,0,3,0.5,4,1.6c1,1.1,1.5,2.6,1.5,4.5V17.3z M134.6,15.3c0-1.1-0.2-1.9-0.7-2.5
					c-0.5-0.6-1.1-0.8-2-0.8c-0.8,0-1.5,0.3-2.1,0.9s-0.9,1.4-1,2.4H134.6z"/>
				<path class="st3" d="M151.5,22.9h-2.9v-7.1c0-1.2-0.2-2.1-0.6-2.6c-0.4-0.6-1.1-0.9-1.9-0.9c-0.9,0-1.6,0.3-2.1,1
					c-0.6,0.7-0.8,1.5-0.8,2.5v7.2h-2.9V10.2h2.9v2h0c0.5-0.8,1-1.4,1.7-1.8c0.7-0.4,1.5-0.6,2.4-0.6c1.4,0,2.4,0.4,3.2,1.3
					c0.7,0.9,1.1,2.2,1.1,3.9V22.9z"/>
				<path class="st3" d="M162,22.7c-0.4,0.2-0.7,0.3-1.1,0.3c-0.4,0.1-0.8,0.1-1.3,0.1c-1.2,0-2.1-0.3-2.7-0.9s-0.9-1.5-0.9-2.8v-7
					h-2.1v-2.2h2.1V7.3l2.9-0.9v3.7h3v2.2h-3v6.7c0,0.6,0.1,1.1,0.3,1.4c0.2,0.3,0.6,0.4,1.1,0.4c0.2,0,0.5,0,0.7-0.1
					c0.2-0.1,0.4-0.1,0.6-0.2L162,22.7z"/>
				<path class="st3" d="M174.2,22.9h-2.8v-1.9h0c-0.4,0.7-1,1.3-1.6,1.7c-0.6,0.4-1.4,0.6-2.2,0.6c-1.2,0-2.1-0.3-2.9-1
					c-0.7-0.7-1.1-1.6-1.1-2.8c0-1.1,0.4-2.1,1.1-2.8c0.8-0.7,1.9-1.2,3.4-1.4l3.4-0.4v-0.3c0-0.9-0.2-1.5-0.7-1.9
					c-0.4-0.4-1.1-0.6-1.8-0.6c-0.6,0-1.2,0.1-1.8,0.3c-0.6,0.2-1.2,0.6-1.8,1l-1.2-1.7c0.8-0.6,1.6-1,2.4-1.3s1.7-0.4,2.7-0.4
					c1.7,0,2.9,0.4,3.8,1.3c0.8,0.8,1.2,2.1,1.2,3.8V22.9z M171.4,17.7v-1.1l-2.7,0.4c-0.8,0.1-1.4,0.3-1.8,0.7s-0.6,0.8-0.6,1.4
					c0,0.6,0.2,1.1,0.6,1.4c0.4,0.3,0.9,0.5,1.5,0.5c0.9,0,1.7-0.3,2.2-0.9C171.1,19.5,171.4,18.7,171.4,17.7z"/>
				<path class="st3" d="M176.7,21.9l1.3-2c0.5,0.3,1,0.6,1.5,0.8s1.2,0.3,1.8,0.3c0.7,0,1.3-0.1,1.7-0.4c0.4-0.3,0.6-0.6,0.6-1.2
					c0-0.4-0.2-0.8-0.5-1s-0.9-0.5-1.7-0.7c-1.6-0.4-2.7-0.9-3.3-1.5c-0.6-0.6-0.9-1.4-0.9-2.4c0-1.1,0.5-2.1,1.4-2.8
					c0.9-0.7,2.1-1.1,3.5-1.1c0.7,0,1.4,0.1,2,0.3c0.6,0.2,1.3,0.5,1.9,0.9l-1.1,2c-0.5-0.3-1-0.6-1.5-0.7c-0.4-0.1-0.9-0.2-1.4-0.2
					c-0.7,0-1.2,0.1-1.6,0.4s-0.6,0.6-0.6,1.1s0.2,0.8,0.5,1c0.4,0.2,1,0.5,1.9,0.7c1.4,0.3,2.4,0.8,3,1.4s1,1.5,1,2.5
					c0,1.2-0.4,2.2-1.3,2.9c-0.9,0.7-2.1,1.1-3.6,1.1c-0.8,0-1.6-0.1-2.4-0.3C178.1,22.6,177.4,22.3,176.7,21.9z"/>
			</g>
		</g>
	</g>
</g>
<g>
	<g>
		<linearGradient id="SVGID_1_" gradientUnits="userSpaceOnUse" x1="15.9991" y1="14.1574" x2="15.9991" y2="27.4805">
			<stop  offset="0" style="stop-color:#FDC61B"/>
			<stop  offset="1" style="stop-color:#F7A41F"/>
		</linearGradient>
		<path class="st4" d="M27.2,18.1c-0.1,0-0.2,0-0.3,0c-0.6,0-1.3,0-1.9,0c-0.2,0-0.2,0-0.3,0.2c-0.1,0.5-0.3,0.9-0.5,1.4
			c-0.2,0.4-0.4,0.9-0.6,1.3c0.5,0.5,1.1,1.1,1.7,1.7c-0.8,1.1-1.7,2-2.8,2.8c-0.6-0.6-1.1-1.1-1.7-1.7c-0.3,0.2-0.5,0.3-0.8,0.4
			c-0.6,0.3-1.3,0.5-1.9,0.7C18,24.9,18,25,18,25.1c0,0.7,0,1.4,0,2.2c-1.3,0.2-2.6,0.2-3.9,0v-1.9c0-0.5,0-0.5-0.4-0.6
			c-0.8-0.2-1.6-0.5-2.3-1c-0.1,0-0.1-0.1-0.2-0.1c-0.6,0.6-1.1,1.1-1.7,1.7c-1-0.6-2.1-1.8-2.8-2.8c0.6-0.6,1.1-1.1,1.7-1.7
			c-0.1-0.3-0.3-0.5-0.4-0.7c-0.3-0.6-0.5-1.3-0.7-1.9c-0.1-0.2-0.1-0.2-0.3-0.2c-0.6,0-1.3,0-1.9,0H4.8c-0.2-1.3-0.2-2.6,0-3.9h5.6
			c-0.7,2.9,0,5.3,2.5,6.9c2.1,1.3,4.3,1.2,6.4-0.1c1.1-0.7,1.9-1.8,2.3-3c0.4-1.3,0.4-2.5,0-3.8h5.6C27.4,14.9,27.4,16.8,27.2,18.1
			z"/>
		
			<linearGradient id="SVGID_00000007411441187072574110000017019231701066895496_" gradientUnits="userSpaceOnUse" x1="15.0109" y1="4.9051" x2="17.2193" y2="13.7598">
			<stop  offset="0" style="stop-color:#FDC61B"/>
			<stop  offset="1" style="stop-color:#F7A41F"/>
		</linearGradient>
		<path style="fill:url(#SVGID_00000007411441187072574110000017019231701066895496_);" d="M18,4.7V5c0,2.4,0,4.9,0,7.3
			c0,0.1,0,0.2-0.1,0.3c-0.7,0.8-0.9,1.9-1.2,2.9c-0.3,0.8-0.5,1.7-0.8,2.6c-0.2-0.6-0.4-1.1-0.6-1.6c0.1,0,0.2,0,0.3,0v-0.7
			c0,0,0,0-0.1,0c-0.5,0-0.5,0-0.7-0.5c-0.1-0.3-0.2-0.7-0.4-1h1.2v-0.8h-1.5c-0.2-0.5-0.1-1-0.1-1.6h1.6V11h-1.5V9.4h1.5V8.7h-1.5
			V7.1h1.5V6.3h-1.5V4.7H18z"/>
		
			<linearGradient id="SVGID_00000134232453227514356260000001700147905883609233_" gradientUnits="userSpaceOnUse" x1="12.5782" y1="9.5569" x2="12.5782" y2="21.0789">
			<stop  offset="0" style="stop-color:#FDC61B"/>
			<stop  offset="1" style="stop-color:#F7A41F"/>
		</linearGradient>
		<path style="fill:url(#SVGID_00000134232453227514356260000001700147905883609233_);" d="M15.4,19.6c-0.1,0.5-0.3,1-0.5,1.5
			c-0.5-0.1-1-0.3-1.5-0.6c0,0-0.1-0.1-0.1-0.2c-1.2-3.3-2.4-6.6-3.6-9.9c0,0,0,0,0-0.1c0.7-0.3,1.4-0.5,2.2-0.8
			c0.2,0.6,0.5,1.3,0.7,1.9c0.9,2.6,1.9,5.1,2.8,7.7C15.4,19.2,15.4,19.4,15.4,19.6z"/>
		
			<linearGradient id="SVGID_00000109011697549063731200000004251776897684269462_" gradientUnits="userSpaceOnUse" x1="15.5588" y1="14.1551" x2="22.1916" y2="20.5576">
			<stop  offset="0" style="stop-color:#FDC61B"/>
			<stop  offset="0.1227" style="stop-color:#F9BA18"/>
			<stop  offset="0.3892" style="stop-color:#F0A413"/>
			<stop  offset="0.6262" style="stop-color:#EB9611"/>
			<stop  offset="0.8079" style="stop-color:#E99110"/>
		</linearGradient>
		<path style="fill:url(#SVGID_00000109011697549063731200000004251776897684269462_);" d="M21.3,12.8c-0.3,0.9-0.3,2-0.8,2.9
			c-0.8,1.6-1.6,3.2-2.4,4.8c-0.1,0.2-0.2,0.3-0.3,0.3c-0.6,0.2-1.2,0.4-1.9,0.4h-0.3c0.2-0.5,0.3-1,0.4-1.4
			c0.6-1.9,1.2-3.8,1.8-5.7c0-0.1,0.1-0.2,0.2-0.3c0.4-0.6,0.8-1.2,1.1-1.7c0.3,0.2,0.6,0.5,1,0.6C20.6,12.7,21,12.8,21.3,12.8z"/>
		
			<linearGradient id="SVGID_00000087413362087159140980000013957648599617601665_" gradientUnits="userSpaceOnUse" x1="20.4319" y1="6.4379" x2="22.5012" y2="11.9685">
			<stop  offset="0" style="stop-color:#FDC61B"/>
			<stop  offset="1" style="stop-color:#F7A41F"/>
		</linearGradient>
		<path style="fill:url(#SVGID_00000087413362087159140980000013957648599617601665_);" d="M23.4,9.7c0,0.9-0.7,1.9-1.6,2.2
			c-1,0.4-2.1-0.2-2.3-1.3c-0.2-0.9,0-1.7,0.6-2.3c0.8-0.9,1.7-1.5,2.7-2.1c0,0,0,0,0.1,0C23.1,7.3,23.4,8.5,23.4,9.7z"/>
		
			<linearGradient id="SVGID_00000178911367705313296630000006395483026793320885_" gradientUnits="userSpaceOnUse" x1="10.4968" y1="5.9026" x2="10.4968" y2="9.621">
			<stop  offset="0" style="stop-color:#FDC61B"/>
			<stop  offset="1" style="stop-color:#F7A41F"/>
		</linearGradient>
		<path style="fill:url(#SVGID_00000178911367705313296630000006395483026793320885_);" d="M11.7,8.8c-0.7,0.3-1.5,0.5-2.2,0.8
			c0-1.2-0.1-2.4-0.1-3.7C10.1,6.9,10.9,7.8,11.7,8.8z"/>
	</g>
</g>
</svg>
