<svg width="92" height="33" viewBox="0 0 92 33" fill="none" xmlns="http://www.w3.org/2000/svg">
<path d="M87.7701 33H4.22989C1.90345 33 0 31.0962 0 28.7692V4.23077C0 1.90385 1.90345 0 4.22989 0H87.7701C90.0966 0 92 1.90385 92 4.23077V28.7692C91.7885 31.0962 89.8851 33 87.7701 33Z" fill="#1A2C1F"/>
<path opacity="0.8" d="M22.6299 25.5961C27.1853 25.5961 30.8781 21.9025 30.8781 17.3461C30.8781 12.7898 27.1853 9.09613 22.6299 9.09613C18.0745 9.09613 14.3816 12.7898 14.3816 17.3461C14.3816 21.9025 18.0745 25.5961 22.6299 25.5961Z" fill="white"/>
<path d="M56.046 23.2692C54.5655 24.1154 52.8736 24.5384 50.9701 24.5384C48.8552 24.5384 46.9517 23.9038 45.6828 22.4231C44.4138 20.9423 43.5678 19.25 43.5678 16.9231C43.5678 14.5961 44.4138 12.6923 45.8942 11.2115C47.3747 9.73075 49.2782 9.09613 51.6046 9.09613C53.2965 9.09613 54.5655 9.30767 55.8345 9.73075V12.2692C54.777 11.4231 53.2965 11.2115 51.8161 11.2115C50.3356 11.2115 48.8552 11.6346 48.0092 12.6923C46.9517 13.75 46.5287 15.0192 46.5287 16.7115C46.5287 18.4038 46.9517 19.6731 47.7977 20.7307C48.6437 21.7884 49.9126 22.2115 51.3931 22.2115C52.4506 22.2115 53.2965 22 53.931 21.5769V18.1923H50.7586V16.0769H56.2575V23.2692H56.046Z" fill="#17CB49"/>
<path d="M67.4667 24.3269H59.2184V9.51921H67.2552V11.6346H61.7563V15.8654H66.8322V17.9807H61.7563V22.4231H67.6782V24.3269H67.4667Z" fill="#17CB49"/>
<path d="M79.7333 11.6346H75.5034V24.3269H72.9655V11.6346H68.7356V9.51921H79.7333V11.6346Z" fill="#17CB49"/>
<path d="M23.2644 6.1346C17.3425 6.1346 12.6896 11 12.6896 16.7115C12.6896 22.6346 17.554 27.5 23.2644 27.5C29.1862 27.5 33.8391 22.6346 33.8391 16.7115C33.8391 10.7884 29.1862 6.1346 23.2644 6.1346ZM25.8023 20.0961C24.3218 20.3077 23.0529 20.0961 21.7839 19.25L20.7264 20.0961L20.5149 20.3077C20.5149 20.5192 20.5149 20.7308 20.3034 20.7308C19.6689 21.3654 19.0345 22 18.1885 22.8461C17.7655 23.2692 17.131 23.2692 16.708 22.8461C16.285 22.4231 16.285 21.7884 16.708 21.3654C17.3425 20.7308 17.977 20.0961 18.6115 19.25C18.823 19.0384 18.823 19.0384 19.0345 19.0384H19.246C19.6689 18.6154 19.8804 18.4038 20.3034 17.9808C19.0345 15.8654 19.6689 12.9038 21.7839 11.4231C23.6873 9.94229 26.4368 10.1538 28.3402 11.8461C30.0322 13.5384 30.4552 16.2884 28.9747 18.4038C27.9172 19.0384 27.0712 19.8846 25.8023 20.0961Z" fill="url(#paint0_linear_1_321)"/>
<path d="M21.3609 15.2307C21.3609 17.1346 22.8414 18.6154 24.7448 18.6154C26.6483 18.6154 28.1287 17.1346 28.1287 15.2307C28.1287 13.3269 26.6483 11.8461 24.7448 11.8461C22.8414 11.8461 21.3609 13.3269 21.3609 15.2307Z" fill="url(#paint1_linear_1_321)"/>
<defs>
<linearGradient id="paint0_linear_1_321" x1="28.5481" y1="25.9813" x2="17.8806" y2="7.50857" gradientUnits="userSpaceOnUse">
<stop stop-color="#18A43F"/>
<stop offset="1" stop-color="#17CB49"/>
</linearGradient>
<linearGradient id="paint1_linear_1_321" x1="26.4198" y1="18.124" x2="23.0675" y2="12.3185" gradientUnits="userSpaceOnUse">
<stop stop-color="#18A43F"/>
<stop offset="1" stop-color="#17CB49"/>
</linearGradient>
</defs>
</svg>
