<?xml version="1.0" encoding="utf-8"?>
<!-- Generator: Adobe Illustrator 26.3.0, SVG Export Plug-In . SVG Version: 6.00 Build 0)  -->
<svg version="1.1" id="Camada_1" xmlns="http://www.w3.org/2000/svg" xmlns:xlink="http://www.w3.org/1999/xlink" x="0px" y="0px"
	 width="383.2px" height="148.9px" viewBox="0 0 383.2 148.9" style="enable-background:new 0 0 383.2 148.9;" xml:space="preserve"
	>
<style type="text/css">
	.st0{fill:#161B22;}
	.st1{opacity:0.12;}
	.st2{fill:#14251F;}
	.st3{fill:none;stroke:#228534;stroke-width:0.3;stroke-miterlimit:10;}
	.st4{fill:#228632;}
	.st5{fill:#7A828D;}
	.st6{fill:#14251F;stroke:#228534;stroke-width:0.3;stroke-miterlimit:10;}
	.st7{font-family:'MyriadPro-Regular';}
	.st8{font-size:8.486px;}
	.st9{fill:#292929;}
	.st10{fill:#E3B341;}
</style>
<g id="Camada_2_00000093139482852668715770000004103646696610550921_">
	<g>
		<path class="st0" d="M375.4,12v132.4c0,2.5-1.5,4.5-3.3,4.5H3.3c-1.8,0-3.3-2-3.3-4.5V12c0-2.5,1.5-4.5,3.3-4.5h368.8
			c0.1,0,0.2,0,0.3,0c0.1,0,0.2,0,0.3,0.1c1,0.3,1.9,1.1,2.3,2.4c0.1,0.3,0.2,0.6,0.3,0.9C375.4,11.3,375.4,11.7,375.4,12z"/>
		<g class="st1">
			<path d="M373.8,116.2c-0.2-0.8-0.4-1.7-0.6-2.5c-9.3-35.4-18.5-70.8-27.7-106.2h-81.1c-1.7,0.4-3.4,0.9-5.1,1.3
				c-7.6,2-15.3,3.9-22.9,6c-11,3.1-17.5,14.8-14.5,26.3c7.8,30.2,15.7,60.4,23.6,90.5c2.1,7.9,7.7,14.1,14.7,17.2h39.7
				c0.1-0.1,0.2-0.2,0.2-0.3c0.8-0.9,1.3-1,2.4-0.6c0.8,0.3,1.6,0.6,2.4,0.9h18.5l-2.7-10.3l2.1-0.5c15.1-3.9,30.2-7.8,45.4-11.8
				c2.3-0.6,4-1.7,5-3.3C374.3,121.2,374.5,118.9,373.8,116.2z M278.1,88.2l-13.6,3.5l-3.7-14.1l13.6-3.5L278.1,88.2z M249.6,34.5
				l13.6-3.5l3.7,14.1l-13.6,3.5L249.6,34.5z M268.8,52.5l3.7,14.1l-13.6,3.6L255.2,56L268.8,52.5z M317,124l-3.7-14.1L272,120.7
				l3.6,13.9c-6.8,3.4-13,0.8-15.8-4.8c-2.9-5.9-0.2-12.8,5.8-15.2c0.7-0.3,1.5-0.5,2.2-0.7c27.6-7.2,55.2-14.3,82.8-21.5l2-0.5
				l5.6,21.4L317,124z"/>
		</g>
	</g>
	<g>
		<g>
			<g>
				<g>
					<g>
						<g>
							<path class="st2" d="M33.2,46.8H14.7c-2.8,0-5-2.2-5-5V23.3c0-2.8,2.2-5,5-5h18.5c2.8,0,5,2.2,5,5v18.5
								C38.2,44.6,36,46.8,33.2,46.8z"/>
							<path class="st3" d="M33.2,46.8H14.7c-2.8,0-5-2.2-5-5V23.3c0-2.8,2.2-5,5-5h18.5c2.8,0,5,2.2,5,5v18.5
								C38.2,44.6,36,46.8,33.2,46.8z"/>
						</g>
					</g>
				</g>
				<g>
					<g>
						<path class="st4" d="M30.9,24.8c-0.1-0.4-0.4-0.6-0.8-0.6h-8.2c-0.8,0-1.7,0-2.5,0c-1.2,0-2.2,1-2.2,2.3v9.9
							c0,1.2,0.8,2.3,1.9,2.6c0.4,0.1,0.7,0.1,1.1,0.2V41c0.1-0.1,0.1-0.1,0.2-0.1c0.7-0.4,1.3-0.9,2-1.3c0.1-0.1,0.2-0.1,0.3,0
							c0.7,0.5,1.3,0.9,2,1.4c0,0,0.1,0.1,0.2,0.1V39H30c0.5,0,0.8-0.3,0.8-0.9V25C30.9,24.9,30.9,24.9,30.9,24.8z M20.1,26.5h1.5
							v1.5h-1.5V26.5z M20.1,28.9h1.5v1.5h-1.5V28.9z M20.1,31.2h1.5v1.5h-1.5V31.2z M29.3,37.5h-4.6v-1.5h-4.6v1.5
							c-0.8,0.2-1.4-0.3-1.5-0.9c-0.1-0.7,0.3-1.3,1-1.4c0.1,0,0.2,0,0.2,0h9.5V37.5z"/>
					</g>
				</g>
			</g>
			<g>
				<g>
					<path class="st5" d="M66.9,36.6c-0.7,0.4-1.4,0.7-2.3,1s-1.8,0.3-2.8,0.3c-2.2,0-4-0.6-5.3-1.8s-2-2.9-2-5.3
						c0-2.1,0.7-3.9,2-5.3c1.3-1.4,3.2-2.1,5.6-2.1c0.9,0,1.7,0.1,2.5,0.2s1.5,0.4,2.4,0.7l-1,2.4c-0.7-0.3-1.3-0.4-1.9-0.6
						s-1.2-0.2-1.9-0.2c-1.3,0-2.3,0.4-3.1,1.2s-1.1,2-1.1,3.5c0,1.6,0.4,2.7,1.1,3.4s1.7,1.1,3,1.1c0.4,0,0.7,0,1-0.1
						s0.6-0.1,0.8-0.2v-2.8H61v-2.5h6V36.6z"/>
					<path class="st5" d="M70.9,26.3c-0.5,0-1-0.2-1.3-0.5s-0.5-0.7-0.5-1.2c0-0.5,0.2-0.9,0.5-1.2s0.8-0.5,1.3-0.5
						c0.5,0,1,0.2,1.3,0.5s0.5,0.7,0.5,1.2c0,0.5-0.2,0.9-0.5,1.2S71.4,26.3,70.9,26.3z M72.4,37.7h-3.1v-10h3.1V37.7z"/>
					<path class="st5" d="M81.3,37.5c-0.3,0.1-0.7,0.2-1,0.3s-0.8,0.1-1.2,0.1c-1.1,0-1.9-0.3-2.5-0.8s-0.8-1.3-0.8-2.4v-4.8h-1.6
						v-2.3h1.6v-2.4l3.1-0.9v3.3h2.2v2.3h-2.2v4.6c0,0.4,0.1,0.7,0.2,0.8s0.4,0.3,0.7,0.3c0.2,0,0.3,0,0.5-0.1s0.3-0.1,0.4-0.2
						L81.3,37.5z"/>
					<path class="st5" d="M82.9,33.4v-2.2h5.3v2.2H82.9z"/>
					<path class="st5" d="M103.3,37.7h-3.2V32h-5.8v5.7h-3.2v-14h3.2v5.6h5.8v-5.6h3.2V37.7z"/>
					<path class="st5" d="M115.7,37.7h-3.1v-1.5h0c-0.4,0.6-0.8,1-1.3,1.3s-1.1,0.4-1.7,0.4c-1.2,0-2-0.4-2.6-1.1s-0.9-1.8-0.9-3.2
						v-6h3.1v5.8c0,0.7,0.1,1.2,0.4,1.6s0.7,0.5,1.3,0.5c0.6,0,1-0.2,1.3-0.6s0.5-0.9,0.5-1.6v-5.7h3.1V37.7z"/>
					<path class="st5" d="M121.4,36.5L121.4,36.5l0,1.2h-3.1V22.9h3.1v6.3h0c0.4-0.6,0.8-1,1.4-1.3s1.2-0.4,1.9-0.4
						c1.3,0,2.3,0.4,3,1.3s1,2.1,1,3.6c0,1.7-0.4,3-1.2,4s-1.9,1.5-3.3,1.5c-0.6,0-1.2-0.1-1.6-0.4S121.8,37,121.4,36.5z
						 M121.4,32.3v1c0,0.6,0.2,1.2,0.6,1.6s0.8,0.6,1.4,0.6c0.7,0,1.2-0.3,1.6-0.8s0.6-1.3,0.6-2.3c0-0.8-0.2-1.5-0.5-1.9
						s-0.9-0.7-1.5-0.7c-0.6,0-1.1,0.2-1.5,0.7S121.4,31.5,121.4,32.3z"/>
					<path class="st5" d="M130.8,33.4v-2.2h5.3v2.2H130.8z"/>
					<path class="st5" d="M138,36.7l1.3-2.5c0.7,0.4,1.3,0.7,1.8,0.8s1.1,0.2,1.6,0.2c0.8,0,1.3-0.1,1.7-0.4s0.5-0.7,0.5-1.2
						c0-0.5-0.1-0.9-0.4-1.1s-0.8-0.5-1.6-0.6c-1.6-0.4-2.7-0.9-3.4-1.5s-1.1-1.6-1.1-2.8c0-1.2,0.5-2.2,1.4-3s2.2-1.2,3.9-1.2
						c0.7,0,1.4,0.1,2,0.2s1.3,0.4,1.9,0.7l-1.2,2.5c-0.5-0.3-1-0.5-1.5-0.7S144,26,143.6,26c-0.6,0-1.1,0.1-1.5,0.4
						s-0.5,0.6-0.5,1.1c0,0.4,0.2,0.7,0.5,1s0.9,0.4,1.7,0.6c1.5,0.3,2.6,0.9,3.3,1.5s1,1.6,1,2.9c0,1.3-0.5,2.4-1.4,3.2
						s-2.3,1.2-4.1,1.2c-0.8,0-1.6-0.1-2.4-0.3S138.6,37.1,138,36.7z"/>
					<path class="st5" d="M155.6,37.5c-0.3,0.1-0.7,0.2-1,0.3s-0.8,0.1-1.2,0.1c-1.1,0-1.9-0.3-2.5-0.8s-0.8-1.3-0.8-2.4v-4.8h-1.6
						v-2.3h1.6v-2.4l3.1-0.9v3.3h2.2v2.3h-2.2v4.6c0,0.4,0.1,0.7,0.2,0.8s0.4,0.3,0.7,0.3c0.2,0,0.3,0,0.5-0.1s0.3-0.1,0.4-0.2
						L155.6,37.5z"/>
					<path class="st5" d="M166.7,27.7l-4.5,11.9c-0.3,0.9-0.8,1.6-1.5,2.1s-1.5,0.8-2.5,0.8c-0.3,0-0.6,0-0.9,0s-0.6-0.1-0.8-0.1
						l0.5-2.3c0.1,0.1,0.3,0.1,0.4,0.1s0.3,0,0.5,0c0.3,0,0.6-0.1,0.8-0.2s0.4-0.4,0.6-0.7l0.6-1.5l-4.1-10h3.4l1.9,6.1
						c0.1,0.2,0.1,0.4,0.2,0.6s0.1,0.5,0.1,0.7h0c0-0.2,0.1-0.4,0.1-0.6s0.1-0.4,0.2-0.7l1.9-6.1H166.7z"/>
					<path class="st5" d="M167.9,37.7V22.9h3.1v14.8H167.9z"/>
					<path class="st5" d="M182.6,33.5h-6.5c0.1,0.7,0.3,1.3,0.7,1.6s1,0.5,1.8,0.5c0.3,0,0.7-0.1,1.2-0.3s1-0.4,1.5-0.8l1.4,1.7
						c-0.7,0.5-1.4,0.9-2.1,1.2s-1.5,0.4-2.4,0.4c-1.6,0-2.9-0.4-3.8-1.3s-1.3-2.1-1.3-3.7c0-1.6,0.5-2.9,1.4-3.9s2.1-1.5,3.6-1.5
						c1.4,0,2.5,0.4,3.3,1.3s1.2,2.1,1.2,3.6V33.5z M179.7,31.7c0-0.8-0.1-1.3-0.4-1.7s-0.7-0.5-1.3-0.5c-0.5,0-0.9,0.2-1.3,0.6
						s-0.6,0.9-0.7,1.6H179.7z"/>
					<path class="st5" d="M184.5,33.4v-2.2h5.3v2.2H184.5z"/>
					<path class="st5" d="M196,37.7h-3.2v-14h3.2V37.7z"/>
					<path class="st5" d="M206.9,37c-0.5,0.3-1,0.5-1.6,0.7s-1.1,0.2-1.7,0.2c-1.7,0-3-0.5-4-1.4s-1.4-2.1-1.4-3.6
						c0-1.7,0.5-3,1.5-4s2.3-1.5,4-1.5c0.6,0,1.2,0.1,1.7,0.2s0.9,0.3,1.4,0.6l-1.1,2.1c-0.3-0.2-0.6-0.3-0.9-0.4s-0.6-0.1-0.9-0.1
						c-0.8,0-1.4,0.3-1.8,0.8s-0.7,1.2-0.7,2.2c0,0.9,0.2,1.6,0.7,2.1s1.1,0.8,1.8,0.8c0.2,0,0.4,0,0.8-0.1s0.7-0.2,1-0.4L206.9,37z
						"/>
					<path class="st5" d="M213.2,37.9c-1.7,0-3-0.5-3.9-1.4s-1.4-2.2-1.4-3.8c0-1.7,0.5-2.9,1.5-3.9s2.3-1.4,4-1.4
						c1.7,0,3,0.5,3.9,1.4s1.4,2.2,1.4,3.7c0,1.7-0.5,3-1.5,3.9S214.9,37.9,213.2,37.9z M213.3,35.6c0.7,0,1.3-0.2,1.7-0.7
						s0.6-1.2,0.6-2.2c0-0.9-0.2-1.6-0.6-2.1s-0.9-0.7-1.7-0.7c-0.7,0-1.3,0.3-1.7,0.8s-0.6,1.2-0.6,2.1c0,1,0.2,1.7,0.6,2.2
						S212.5,35.6,213.3,35.6z"/>
					<path class="st5" d="M230.3,37.7h-3.1v-5.6c0-0.8-0.1-1.4-0.4-1.7s-0.7-0.6-1.2-0.6c-0.5,0-1,0.2-1.3,0.6s-0.5,0.9-0.5,1.6v5.7
						h-3.1v-10h3.1v1.6h0c0.4-0.6,0.8-1.1,1.4-1.4s1.2-0.5,1.9-0.5c1.1,0,1.9,0.3,2.5,1s0.8,1.7,0.8,3.1V37.7z"/>
					<path class="st5" d="M231.8,36.8l1.3-2.1c0.3,0.3,0.7,0.5,1.2,0.7s1,0.3,1.5,0.3c0.4,0,0.7-0.1,1-0.2s0.4-0.4,0.4-0.6
						c0-0.2-0.1-0.4-0.3-0.5s-0.6-0.3-1.1-0.4c-1.2-0.3-2.1-0.6-2.7-1.1s-0.8-1.2-0.8-2c0-1,0.4-1.8,1.2-2.4s1.8-0.9,3-0.9
						c0.6,0,1.2,0.1,1.7,0.2s1.1,0.4,1.5,0.7l-1.2,2c-0.4-0.3-0.8-0.4-1.1-0.6s-0.7-0.2-1.1-0.2c-0.4,0-0.7,0.1-1,0.2
						s-0.4,0.3-0.4,0.6c0,0.3,0.1,0.5,0.4,0.6s0.7,0.2,1.3,0.4c1.2,0.2,2,0.6,2.5,1.1c0.5,0.5,0.7,1.2,0.7,2c0,1-0.4,1.8-1.2,2.5
						s-1.8,0.9-3.1,0.9c-0.7,0-1.4-0.1-2-0.3S232.4,37.2,231.8,36.8z"/>
				</g>
			</g>
		</g>
		<g>
			<g>
				<g>
					<path class="st5" d="M11.3,62.4h-0.7l1.3-1.9h0.9L11.3,62.4z M11.8,71.6h-0.9v-8.4h0.9V71.6z"/>
					<path class="st5" d="M18.2,71.2c-0.3,0.2-0.6,0.3-0.9,0.4s-0.6,0.1-0.9,0.1c-0.9,0-1.6-0.3-2.1-0.8s-0.8-1.3-0.8-2.3
						c0-1,0.3-1.8,0.8-2.4s1.3-0.9,2.3-0.9c0.3,0,0.6,0,0.8,0.1s0.5,0.2,0.8,0.3L18,66.4c-0.2-0.1-0.4-0.2-0.7-0.3s-0.4-0.1-0.7-0.1
						c-0.7,0-1.2,0.2-1.6,0.7s-0.6,1.1-0.6,1.8c0,0.8,0.2,1.4,0.6,1.8s0.9,0.6,1.5,0.6c0.2,0,0.4,0,0.7-0.1s0.4-0.2,0.7-0.3
						L18.2,71.2z"/>
					<path class="st5" d="M22.3,71.8c-0.9,0-1.6-0.3-2.2-0.9s-0.8-1.3-0.8-2.3c0-1,0.3-1.8,0.8-2.4s1.3-0.9,2.3-0.9
						c0.9,0,1.6,0.3,2.1,0.9s0.8,1.4,0.8,2.4c0,1-0.3,1.8-0.8,2.3S23.2,71.8,22.3,71.8z M22.3,71c0.7,0,1.2-0.2,1.5-0.6
						s0.5-1,0.5-1.8c0-0.8-0.2-1.4-0.5-1.8s-0.9-0.6-1.5-0.6c-0.7,0-1.2,0.2-1.6,0.7s-0.6,1.1-0.6,1.8c0,0.8,0.2,1.3,0.6,1.8
						S21.7,71,22.3,71z"/>
					<path class="st5" d="M31.9,71.6H31v-3.5c0-0.7-0.1-1.2-0.4-1.5s-0.6-0.5-1.1-0.5c-0.5,0-0.9,0.2-1.3,0.6s-0.5,0.9-0.5,1.5v3.5
						h-0.9v-6.1h0.9v1h0c0.2-0.4,0.5-0.7,0.8-0.9s0.7-0.3,1.2-0.3c0.7,0,1.2,0.2,1.5,0.7s0.5,1.1,0.5,1.9V71.6z"/>
					<path class="st5" d="M38.7,68.7h-4.4c0,0.8,0.2,1.3,0.6,1.7s0.9,0.6,1.5,0.6c0.3,0,0.6,0,0.9-0.1s0.6-0.2,0.9-0.4l0.4,0.6
						c-0.3,0.2-0.7,0.4-1.1,0.5s-0.7,0.2-1.2,0.2c-0.9,0-1.6-0.3-2.1-0.8s-0.8-1.3-0.8-2.4c0-1,0.3-1.8,0.8-2.4s1.2-0.9,2-0.9
						c0.8,0,1.4,0.3,1.8,0.8s0.7,1.3,0.7,2.2V68.7z M37.8,68c0-0.6-0.2-1.1-0.4-1.4s-0.7-0.5-1.2-0.5c-0.5,0-0.9,0.2-1.3,0.5
						s-0.5,0.8-0.6,1.4H37.8z"/>
					<path class="st5" d="M39.7,71.2l0.4-0.7c0.2,0.2,0.5,0.3,0.7,0.4s0.5,0.1,0.8,0.1c0.4,0,0.8-0.1,1-0.3s0.3-0.4,0.3-0.8
						c0-0.3-0.1-0.5-0.3-0.7s-0.5-0.3-1-0.5c-0.7-0.2-1.2-0.4-1.5-0.7s-0.4-0.7-0.4-1.1c0-0.5,0.2-0.9,0.6-1.3s0.9-0.5,1.5-0.5
						c0.3,0,0.6,0,0.9,0.1s0.6,0.2,0.9,0.4l-0.4,0.7c-0.2-0.2-0.5-0.3-0.7-0.3s-0.5-0.1-0.7-0.1c-0.4,0-0.7,0.1-0.9,0.2
						s-0.3,0.4-0.3,0.7c0,0.3,0.1,0.5,0.3,0.6s0.5,0.3,1,0.4c0.6,0.2,1.1,0.4,1.4,0.7s0.5,0.7,0.5,1.2c0,0.6-0.2,1-0.6,1.3
						s-0.9,0.5-1.6,0.5c-0.4,0-0.7-0.1-1.1-0.2S40,71.4,39.7,71.2z"/>
					<path class="st5" d="M49.8,68.5v3.1h-0.9v-8.4h2.2c0.9,0,1.6,0.2,2.1,0.7s0.7,1.1,0.7,1.9s-0.3,1.5-0.8,2s-1.3,0.8-2.2,0.8
						H49.8z M49.8,64v3.7h1.1c0.7,0,1.2-0.2,1.6-0.5s0.5-0.8,0.5-1.4c0-0.6-0.2-1-0.5-1.3S51.7,64,51,64H49.8z"/>
					<path class="st5" d="M60,68.7h-4.4c0,0.8,0.2,1.3,0.6,1.7S57,71,57.7,71c0.3,0,0.6,0,0.9-0.1s0.6-0.2,0.9-0.4l0.4,0.6
						c-0.3,0.2-0.7,0.4-1.1,0.5s-0.7,0.2-1.2,0.2c-0.9,0-1.6-0.3-2.1-0.8s-0.8-1.3-0.8-2.4c0-1,0.3-1.8,0.8-2.4s1.2-0.9,2-0.9
						c0.8,0,1.4,0.3,1.8,0.8s0.7,1.3,0.7,2.2V68.7z M59.1,68c0-0.6-0.2-1.1-0.4-1.4s-0.7-0.5-1.2-0.5c-0.5,0-0.9,0.2-1.3,0.5
						s-0.5,0.8-0.6,1.4H59.1z"/>
					<path class="st5" d="M64.6,66.2c-0.1,0-0.2,0-0.2-0.1s-0.2,0-0.3,0c-0.5,0-0.9,0.2-1.2,0.7s-0.4,1-0.4,1.7v3h-0.9v-6.1h0.9v1.3
						h0c0.1-0.4,0.4-0.8,0.7-1s0.6-0.4,1-0.4c0.1,0,0.2,0,0.3,0s0.2,0,0.3,0.1L64.6,66.2z"/>
					<path class="st5" d="M65.3,71.2l0.4-0.7c0.2,0.2,0.5,0.3,0.7,0.4S67,71,67.4,71c0.4,0,0.8-0.1,1-0.3s0.3-0.4,0.3-0.8
						c0-0.3-0.1-0.5-0.3-0.7s-0.5-0.3-1-0.5c-0.7-0.2-1.2-0.4-1.5-0.7s-0.4-0.7-0.4-1.1c0-0.5,0.2-0.9,0.6-1.3s0.9-0.5,1.5-0.5
						c0.3,0,0.6,0,0.9,0.1s0.6,0.2,0.9,0.4L69,66.5c-0.2-0.2-0.5-0.3-0.7-0.3s-0.5-0.1-0.7-0.1c-0.4,0-0.7,0.1-0.9,0.2
						s-0.3,0.4-0.3,0.7c0,0.3,0.1,0.5,0.3,0.6s0.5,0.3,1,0.4c0.6,0.2,1.1,0.4,1.4,0.7s0.5,0.7,0.5,1.2c0,0.6-0.2,1-0.6,1.3
						s-0.9,0.5-1.6,0.5c-0.4,0-0.7-0.1-1.1-0.2S65.6,71.4,65.3,71.2z"/>
					<path class="st5" d="M73.6,71.8c-0.9,0-1.6-0.3-2.2-0.9s-0.8-1.3-0.8-2.3c0-1,0.3-1.8,0.8-2.4s1.3-0.9,2.3-0.9
						c0.9,0,1.6,0.3,2.1,0.9s0.8,1.4,0.8,2.4c0,1-0.3,1.8-0.8,2.3S74.6,71.8,73.6,71.8z M73.7,71c0.7,0,1.2-0.2,1.5-0.6
						s0.5-1,0.5-1.8c0-0.8-0.2-1.4-0.5-1.8s-0.9-0.6-1.5-0.6c-0.7,0-1.2,0.2-1.6,0.7s-0.6,1.1-0.6,1.8c0,0.8,0.2,1.3,0.6,1.8
						S73,71,73.7,71z"/>
					<path class="st5" d="M83.3,71.6h-0.9v-3.5c0-0.7-0.1-1.2-0.4-1.5s-0.6-0.5-1.1-0.5c-0.5,0-0.9,0.2-1.3,0.6s-0.5,0.9-0.5,1.5
						v3.5h-0.9v-6.1h0.9v1h0c0.2-0.4,0.5-0.7,0.8-0.9s0.7-0.3,1.2-0.3c0.7,0,1.2,0.2,1.5,0.7s0.5,1.1,0.5,1.9V71.6z"/>
					<path class="st5" d="M89.6,71.6h-0.9v-1h0c-0.2,0.4-0.5,0.7-0.8,0.9s-0.7,0.3-1.1,0.3c-0.6,0-1-0.2-1.4-0.5s-0.5-0.8-0.5-1.3
						c0-0.5,0.2-1,0.5-1.3s0.9-0.6,1.6-0.7l1.8-0.2v-0.2c0-0.5-0.1-0.9-0.4-1.2s-0.6-0.4-1-0.4c-0.3,0-0.7,0.1-1,0.2
						s-0.6,0.3-0.9,0.6L85,66.3c0.3-0.3,0.7-0.6,1.1-0.7s0.8-0.2,1.3-0.2c0.7,0,1.3,0.2,1.6,0.6s0.6,1,0.6,1.7V71.6z M88.7,69v-0.6
						l-1.5,0.2c-0.5,0.1-0.9,0.2-1.1,0.4s-0.4,0.5-0.4,0.8c0,0.4,0.1,0.6,0.3,0.8s0.5,0.3,0.9,0.3c0.5,0,1-0.2,1.3-0.6
						S88.7,69.6,88.7,69z"/>
					<path class="st5" d="M91.5,71.6v-8.9h0.9v8.9H91.5z"/>
					<path class="st5" d="M94.9,64.1c-0.2,0-0.3-0.1-0.5-0.2s-0.2-0.3-0.2-0.4c0-0.2,0.1-0.3,0.2-0.4s0.3-0.2,0.5-0.2
						c0.2,0,0.3,0.1,0.5,0.2s0.2,0.3,0.2,0.4c0,0.2-0.1,0.3-0.2,0.4S95,64.1,94.9,64.1z M95.3,71.6h-0.9v-6.1h0.9V71.6z"/>
					<path class="st5" d="M101.8,65.7L98,70.9h3.7v0.8h-5v-0.3l3.8-5.1H97v-0.8h4.8V65.7z"/>
					<path class="st5" d="M107.5,71.6h-0.9v-1h0c-0.2,0.4-0.5,0.7-0.8,0.9s-0.7,0.3-1.1,0.3c-0.6,0-1-0.2-1.4-0.5s-0.5-0.8-0.5-1.3
						c0-0.5,0.2-1,0.5-1.3s0.9-0.6,1.6-0.7l1.8-0.2v-0.2c0-0.5-0.1-0.9-0.4-1.2s-0.6-0.4-1-0.4c-0.3,0-0.7,0.1-1,0.2
						s-0.6,0.3-0.9,0.6l-0.5-0.5c0.3-0.3,0.7-0.6,1.1-0.7s0.8-0.2,1.3-0.2c0.7,0,1.3,0.2,1.6,0.6s0.6,1,0.6,1.7V71.6z M106.6,69
						v-0.6l-1.5,0.2c-0.5,0.1-0.9,0.2-1.1,0.4s-0.4,0.5-0.4,0.8c0,0.4,0.1,0.6,0.3,0.8s0.5,0.3,0.9,0.3c0.5,0,1-0.2,1.3-0.6
						S106.6,69.6,106.6,69z"/>
					<path class="st5" d="M113.7,70.5c-0.2,0.4-0.5,0.7-0.9,0.9s-0.8,0.3-1.3,0.3c-0.8,0-1.4-0.3-1.9-0.8s-0.7-1.3-0.7-2.3
						c0-1,0.3-1.8,0.8-2.4s1.2-0.9,2-0.9c0.4,0,0.8,0.1,1.1,0.3s0.6,0.4,0.8,0.8h0v-3.6h0.9v8.9h-0.9L113.7,70.5L113.7,70.5z
						 M109.9,68.6c0,0.8,0.2,1.3,0.5,1.8s0.8,0.6,1.4,0.6c0.6,0,1.1-0.2,1.4-0.6s0.5-0.9,0.5-1.5v-1c0-0.5-0.2-1-0.5-1.3
						s-0.8-0.5-1.3-0.5c-0.6,0-1.1,0.2-1.5,0.7S109.9,67.8,109.9,68.6z"/>
					<path class="st5" d="M119.2,71.8c-0.9,0-1.6-0.3-2.2-0.9s-0.8-1.3-0.8-2.3c0-1,0.3-1.8,0.8-2.4s1.3-0.9,2.3-0.9
						c0.9,0,1.6,0.3,2.1,0.9s0.8,1.4,0.8,2.4c0,1-0.3,1.8-0.8,2.3S120.1,71.8,119.2,71.8z M119.2,71c0.7,0,1.2-0.2,1.5-0.6
						s0.5-1,0.5-1.8c0-0.8-0.2-1.4-0.5-1.8s-0.9-0.6-1.5-0.6c-0.7,0-1.2,0.2-1.6,0.7s-0.6,1.1-0.6,1.8c0,0.8,0.2,1.3,0.6,1.8
						S118.6,71,119.2,71z"/>
					<path class="st5" d="M123.3,71.2l0.4-0.7c0.2,0.2,0.5,0.3,0.7,0.4s0.5,0.1,0.8,0.1c0.4,0,0.8-0.1,1-0.3s0.3-0.4,0.3-0.8
						c0-0.3-0.1-0.5-0.3-0.7s-0.5-0.3-1-0.5c-0.7-0.2-1.2-0.4-1.5-0.7s-0.4-0.7-0.4-1.1c0-0.5,0.2-0.9,0.6-1.3s0.9-0.5,1.5-0.5
						c0.3,0,0.6,0,0.9,0.1s0.6,0.2,0.9,0.4l-0.4,0.7c-0.2-0.2-0.5-0.3-0.7-0.3s-0.5-0.1-0.7-0.1c-0.4,0-0.7,0.1-0.9,0.2
						s-0.3,0.4-0.3,0.7c0,0.3,0.1,0.5,0.3,0.6s0.5,0.3,1,0.4c0.6,0.2,1.1,0.4,1.4,0.7s0.5,0.7,0.5,1.2c0,0.6-0.2,1-0.6,1.3
						s-0.9,0.5-1.6,0.5c-0.4,0-0.7-0.1-1.1-0.2S123.6,71.4,123.3,71.2z"/>
					<path class="st5" d="M133.2,70.7L133.2,70.7l0,3.7h-0.9v-8.9h0.9v1.1h0c0.2-0.4,0.5-0.7,0.9-1s0.8-0.3,1.3-0.3
						c0.8,0,1.4,0.3,1.8,0.8s0.7,1.3,0.7,2.2c0,1-0.3,1.8-0.8,2.5s-1.2,0.9-2,0.9c-0.4,0-0.8-0.1-1.1-0.3S133.4,71,133.2,70.7z
						 M133.2,68.2v0.8c0,0.5,0.2,1,0.5,1.4s0.8,0.6,1.3,0.6c0.6,0,1.1-0.2,1.4-0.7s0.5-1.1,0.5-2c0-0.7-0.2-1.3-0.5-1.7
						s-0.8-0.6-1.3-0.6c-0.6,0-1.1,0.2-1.5,0.6S133.2,67.6,133.2,68.2z"/>
					<path class="st5" d="M143.9,71.6H143v-1h0c-0.2,0.4-0.5,0.7-0.8,0.9s-0.7,0.3-1.1,0.3c-0.6,0-1-0.2-1.4-0.5s-0.5-0.8-0.5-1.3
						c0-0.5,0.2-1,0.5-1.3s0.9-0.6,1.6-0.7l1.8-0.2v-0.2c0-0.5-0.1-0.9-0.4-1.2s-0.6-0.4-1-0.4c-0.3,0-0.7,0.1-1,0.2
						s-0.6,0.3-0.9,0.6l-0.5-0.5c0.3-0.3,0.7-0.6,1.1-0.7s0.8-0.2,1.3-0.2c0.7,0,1.3,0.2,1.6,0.6s0.6,1,0.6,1.7V71.6z M143,69v-0.6
						l-1.5,0.2c-0.5,0.1-0.9,0.2-1.1,0.4s-0.4,0.5-0.4,0.8c0,0.4,0.1,0.6,0.3,0.8s0.5,0.3,0.9,0.3c0.5,0,1-0.2,1.3-0.6
						S143,69.6,143,69z"/>
					<path class="st5" d="M148.8,66.2c-0.1,0-0.2,0-0.2-0.1s-0.2,0-0.3,0c-0.5,0-0.9,0.2-1.2,0.7s-0.4,1-0.4,1.7v3h-0.9v-6.1h0.9
						v1.3h0c0.1-0.4,0.4-0.8,0.7-1s0.6-0.4,1-0.4c0.1,0,0.2,0,0.3,0s0.2,0,0.3,0.1L148.8,66.2z"/>
					<path class="st5" d="M154.5,71.6h-0.9v-1h0c-0.2,0.4-0.5,0.7-0.8,0.9s-0.7,0.3-1.1,0.3c-0.6,0-1-0.2-1.4-0.5s-0.5-0.8-0.5-1.3
						c0-0.5,0.2-1,0.5-1.3s0.9-0.6,1.6-0.7l1.8-0.2v-0.2c0-0.5-0.1-0.9-0.4-1.2s-0.6-0.4-1-0.4c-0.3,0-0.7,0.1-1,0.2
						s-0.6,0.3-0.9,0.6l-0.5-0.5c0.3-0.3,0.7-0.6,1.1-0.7s0.8-0.2,1.3-0.2c0.7,0,1.3,0.2,1.6,0.6s0.6,1,0.6,1.7V71.6z M153.6,69
						v-0.6l-1.5,0.2c-0.5,0.1-0.9,0.2-1.1,0.4s-0.4,0.5-0.4,0.8c0,0.4,0.1,0.6,0.3,0.8s0.5,0.3,0.9,0.3c0.5,0,1-0.2,1.3-0.6
						S153.6,69.6,153.6,69z"/>
					<path class="st5" d="M165.5,71.6h-1.1l-1.3-2.4c-0.3-0.5-0.5-0.8-0.7-0.9s-0.5-0.2-0.8-0.2h-1v3.5h-0.9v-8.4h2.4
						c0.7,0,1.3,0.2,1.8,0.6s0.7,0.9,0.7,1.7c0,0.6-0.2,1.1-0.5,1.5s-0.8,0.7-1.3,0.9v0c0.2,0.1,0.3,0.2,0.5,0.4s0.3,0.4,0.5,0.6
						L165.5,71.6z M160.7,64v3.3h1.3c0.5,0,0.9-0.2,1.3-0.5s0.5-0.7,0.5-1.3c0-0.5-0.1-0.8-0.4-1.1s-0.7-0.4-1.3-0.4H160.7z"/>
					<path class="st5" d="M171.3,71.6H167v-8.4h4.2V64h-3.3v2.9h3v0.8h-3v3h3.5V71.6z"/>
					<path class="st5" d="M172.3,71.6l3.2-8.4h0.9l3.2,8.4h-1l-0.9-2.3h-3.6l-0.8,2.3H172.3z M174.4,68.5h3l-1.4-3.7
						c0-0.1-0.1-0.2-0.1-0.3s0-0.2-0.1-0.3h0c0,0.1,0,0.2-0.1,0.3s-0.1,0.2-0.1,0.3L174.4,68.5z"/>
					<path class="st5" d="M181,71.6v-8.4h2.3c1.5,0,2.6,0.3,3.3,1s1.1,1.7,1.1,3.1c0,1.3-0.4,2.4-1.2,3.1s-1.9,1.2-3.3,1.2H181z
						 M181.9,64v6.8h1.3c1.1,0,2-0.3,2.6-0.9s0.9-1.5,0.9-2.6c0-1.1-0.3-1.9-0.9-2.5s-1.5-0.8-2.6-0.8H181.9z"/>
					<path class="st5" d="M197.8,71.6h-0.9v-5.7c0-0.2,0-0.4,0-0.7s0-0.5,0.1-0.9h0c-0.1,0.2-0.1,0.3-0.1,0.5s-0.1,0.2-0.1,0.3
						l-2.9,6.4h-0.4l-2.9-6.4c0-0.1-0.1-0.2-0.1-0.4s-0.1-0.3-0.1-0.5h0c0,0.2,0,0.4,0,0.7s0,0.5,0,0.9v5.7h-0.9v-8.4h1.1l2.7,6.1
						c0.1,0.2,0.2,0.4,0.2,0.5s0.1,0.3,0.1,0.4h0c0.1-0.2,0.1-0.4,0.2-0.6s0.1-0.3,0.2-0.4l2.7-6h1.1V71.6z"/>
					<path class="st5" d="M204.5,71.6h-4.4v-8.4h4.2V64H201v2.9h3v0.8h-3v3h3.5V71.6z"/>
					<path class="st5" d="M205.6,71.2l0.4-0.7c0.2,0.2,0.5,0.3,0.7,0.4c0.3,0.1,0.5,0.1,0.8,0.1c0.4,0,0.8-0.1,1-0.3
						s0.3-0.4,0.3-0.8c0-0.3-0.1-0.5-0.3-0.7s-0.5-0.3-1-0.5c-0.7-0.2-1.2-0.4-1.5-0.7s-0.4-0.7-0.4-1.1c0-0.5,0.2-0.9,0.6-1.3
						s0.9-0.5,1.5-0.5c0.3,0,0.6,0,0.9,0.1s0.6,0.2,0.9,0.4l-0.4,0.7c-0.2-0.2-0.5-0.3-0.7-0.3s-0.5-0.1-0.7-0.1
						c-0.4,0-0.7,0.1-0.9,0.2c-0.2,0.2-0.3,0.4-0.3,0.7c0,0.3,0.1,0.5,0.3,0.6c0.2,0.2,0.5,0.3,1,0.4c0.6,0.2,1.1,0.4,1.4,0.7
						s0.5,0.7,0.5,1.2c0,0.6-0.2,1-0.6,1.3s-0.9,0.5-1.6,0.5c-0.4,0-0.7-0.1-1.1-0.2S205.9,71.4,205.6,71.2z"/>
					<path class="st5" d="M211.7,71.7c-0.2,0-0.3-0.1-0.5-0.2s-0.2-0.3-0.2-0.4s0.1-0.3,0.2-0.4s0.3-0.2,0.5-0.2
						c0.2,0,0.3,0.1,0.5,0.2s0.2,0.3,0.2,0.4s-0.1,0.3-0.2,0.4S211.9,71.7,211.7,71.7z"/>
					<path class="st5" d="M10,86l3.2-8.4h0.9l3.2,8.4h-1l-0.9-2.3h-3.6L11,86H10z M12.1,82.9h3l-1.4-3.7c0-0.1-0.1-0.2-0.1-0.3
						s0-0.2-0.1-0.3h0c0,0.1,0,0.2-0.1,0.3s-0.1,0.2-0.1,0.3L12.1,82.9z"/>
					<path class="st5" d="M23.9,88.8H23v-3.8h0c-0.2,0.4-0.5,0.7-0.9,0.9s-0.8,0.3-1.3,0.3c-0.8,0-1.4-0.3-1.9-0.8s-0.7-1.3-0.7-2.3
						c0-1,0.3-1.8,0.8-2.4s1.2-0.9,2.1-0.9c0.4,0,0.8,0.1,1.1,0.3s0.6,0.4,0.8,0.8h0v-0.9h0.9V88.8z M23,83.3v-0.9
						c0-0.5-0.2-1-0.5-1.3s-0.8-0.5-1.3-0.5c-0.6,0-1.1,0.2-1.5,0.7s-0.6,1.1-0.6,1.9c0,0.7,0.2,1.3,0.5,1.7s0.8,0.6,1.3,0.6
						c0.6,0,1.1-0.2,1.4-0.6S23,83.9,23,83.3z"/>
					<path class="st5" d="M30.7,86h-0.9v-1h0c-0.2,0.4-0.5,0.7-0.8,0.9s-0.7,0.3-1.1,0.3c-0.7,0-1.3-0.2-1.6-0.7s-0.5-1.1-0.5-2
						v-3.6h0.9v3.5c0,0.7,0.1,1.2,0.4,1.6s0.6,0.5,1.2,0.5c0.5,0,0.9-0.2,1.2-0.6s0.5-0.9,0.5-1.5v-3.5h0.9V86z"/>
					<path class="st5" d="M33.1,78.5c-0.2,0-0.3-0.1-0.5-0.2s-0.2-0.3-0.2-0.4c0-0.2,0.1-0.3,0.2-0.4s0.3-0.2,0.5-0.2
						c0.2,0,0.3,0.1,0.5,0.2s0.2,0.3,0.2,0.4c0,0.2-0.1,0.3-0.2,0.4S33.3,78.5,33.1,78.5z M33.6,86h-0.9v-6.1h0.9V86z"/>
					<path class="st5" d="M43.9,83.1h-4.4c0,0.8,0.2,1.3,0.6,1.7s0.9,0.6,1.5,0.6c0.3,0,0.6,0,0.9-0.1s0.6-0.2,0.9-0.4l0.4,0.6
						c-0.3,0.2-0.7,0.4-1.1,0.5s-0.7,0.2-1.2,0.2c-0.9,0-1.6-0.3-2.1-0.8S38.6,84,38.6,83c0-1,0.3-1.8,0.8-2.4s1.2-0.9,2-0.9
						c0.8,0,1.4,0.3,1.8,0.8s0.7,1.3,0.7,2.2V83.1z M43,82.4c0-0.6-0.2-1.1-0.4-1.4s-0.7-0.5-1.2-0.5c-0.5,0-0.9,0.2-1.3,0.5
						s-0.5,0.8-0.6,1.4H43z"/>
					<path class="st5" d="M44.9,85.6l0.4-0.7c0.2,0.2,0.5,0.3,0.7,0.4s0.5,0.1,0.8,0.1c0.4,0,0.8-0.1,1-0.3s0.3-0.4,0.3-0.8
						c0-0.3-0.1-0.5-0.3-0.7s-0.5-0.3-1-0.5c-0.7-0.2-1.2-0.4-1.5-0.7s-0.4-0.7-0.4-1.1c0-0.5,0.2-0.9,0.6-1.3s0.9-0.5,1.5-0.5
						c0.3,0,0.6,0,0.9,0.1s0.6,0.2,0.9,0.4l-0.4,0.7c-0.2-0.2-0.5-0.3-0.7-0.3s-0.5-0.1-0.7-0.1c-0.4,0-0.7,0.1-0.9,0.2
						s-0.3,0.4-0.3,0.7c0,0.3,0.1,0.5,0.3,0.6s0.5,0.3,1,0.4c0.6,0.2,1.1,0.4,1.4,0.7s0.5,0.7,0.5,1.2c0,0.6-0.2,1-0.6,1.3
						s-0.9,0.5-1.6,0.5c-0.4,0-0.7-0.1-1.1-0.2S45.2,85.8,44.9,85.6z"/>
					<path class="st5" d="M53.5,85.9C53.3,86,53.2,86,53,86.1s-0.3,0.1-0.5,0.1c-0.5,0-0.8-0.1-1.1-0.4S51,85,51,84.5v-3.9h-1.1
						v-0.7H51v-1.4l0.9-0.3v1.7h1.6v0.7h-1.6v3.8c0,0.4,0.1,0.6,0.2,0.8s0.3,0.2,0.6,0.2c0.1,0,0.2,0,0.4,0s0.2-0.1,0.3-0.1
						L53.5,85.9z"/>
					<path class="st5" d="M59.1,86h-0.9v-1h0c-0.2,0.4-0.5,0.7-0.8,0.9s-0.7,0.3-1.1,0.3c-0.6,0-1-0.2-1.4-0.5s-0.5-0.8-0.5-1.3
						c0-0.5,0.2-1,0.5-1.3s0.9-0.6,1.6-0.7l1.8-0.2V82c0-0.5-0.1-0.9-0.4-1.2s-0.6-0.4-1-0.4c-0.3,0-0.7,0.1-1,0.2s-0.6,0.3-0.9,0.6
						l-0.5-0.5c0.3-0.3,0.7-0.6,1.1-0.7s0.8-0.2,1.3-0.2c0.7,0,1.3,0.2,1.6,0.6s0.6,1,0.6,1.7V86z M58.8,77.4c0,0.4-0.1,0.7-0.3,1
						s-0.4,0.4-0.8,0.4c-0.1,0-0.3,0-0.4-0.1s-0.3-0.1-0.5-0.3c-0.1-0.1-0.3-0.2-0.4-0.2s-0.2-0.1-0.3-0.1c-0.2,0-0.3,0.1-0.4,0.2
						s-0.1,0.3-0.1,0.5h-0.5c0-0.4,0.1-0.8,0.3-1s0.5-0.4,0.8-0.4c0.1,0,0.3,0,0.4,0.1s0.3,0.1,0.5,0.3c0.1,0.1,0.3,0.2,0.4,0.2
						s0.2,0.1,0.3,0.1c0.2,0,0.3-0.1,0.4-0.2s0.1-0.3,0.1-0.5H58.8z M58.3,83.4v-0.6l-1.5,0.2c-0.5,0.1-0.9,0.2-1.1,0.4
						s-0.4,0.5-0.4,0.8c0,0.4,0.1,0.6,0.3,0.8s0.5,0.3,0.9,0.3c0.5,0,1-0.2,1.3-0.6S58.3,84,58.3,83.4z"/>
					<path class="st5" d="M63.6,86.2c-0.9,0-1.6-0.3-2.2-0.9s-0.8-1.3-0.8-2.3c0-1,0.3-1.8,0.8-2.4s1.3-0.9,2.3-0.9
						c0.9,0,1.6,0.3,2.1,0.9s0.8,1.4,0.8,2.4c0,1-0.3,1.8-0.8,2.3S64.6,86.2,63.6,86.2z M63.7,85.4c0.7,0,1.2-0.2,1.5-0.6
						s0.5-1,0.5-1.8c0-0.8-0.2-1.4-0.5-1.8s-0.9-0.6-1.5-0.6c-0.7,0-1.2,0.2-1.6,0.7s-0.6,1.1-0.6,1.8c0,0.8,0.2,1.3,0.6,1.8
						S63,85.4,63.7,85.4z"/>
					<path class="st5" d="M74.1,86.2c-0.9,0-1.6-0.3-2.2-0.9s-0.8-1.3-0.8-2.3c0-1,0.3-1.8,0.8-2.4s1.3-0.9,2.3-0.9
						c0.9,0,1.6,0.3,2.1,0.9s0.8,1.4,0.8,2.4c0,1-0.3,1.8-0.8,2.3S75,86.2,74.1,86.2z M74.2,85.4c0.7,0,1.2-0.2,1.5-0.6
						s0.5-1,0.5-1.8c0-0.8-0.2-1.4-0.5-1.8s-0.9-0.6-1.5-0.6c-0.7,0-1.2,0.2-1.6,0.7S72,82.2,72,83c0,0.8,0.2,1.3,0.6,1.8
						S73.5,85.4,74.2,85.4z"/>
					<path class="st5" d="M78.2,85.6l0.4-0.7c0.2,0.2,0.5,0.3,0.7,0.4s0.5,0.1,0.8,0.1c0.4,0,0.8-0.1,1-0.3s0.3-0.4,0.3-0.8
						c0-0.3-0.1-0.5-0.3-0.7s-0.5-0.3-1-0.5c-0.7-0.2-1.2-0.4-1.5-0.7s-0.4-0.7-0.4-1.1c0-0.5,0.2-0.9,0.6-1.3s0.9-0.5,1.5-0.5
						c0.3,0,0.6,0,0.9,0.1s0.6,0.2,0.9,0.4l-0.4,0.7c-0.2-0.2-0.5-0.3-0.7-0.3s-0.5-0.1-0.7-0.1c-0.4,0-0.7,0.1-0.9,0.2
						s-0.3,0.4-0.3,0.7c0,0.3,0.1,0.5,0.3,0.6s0.5,0.3,1,0.4c0.6,0.2,1.1,0.4,1.4,0.7s0.5,0.7,0.5,1.2c0,0.6-0.2,1-0.6,1.3
						s-0.9,0.5-1.6,0.5c-0.4,0-0.7-0.1-1.1-0.2S78.5,85.8,78.2,85.6z"/>
					<path class="st5" d="M87.7,78.8H87l1.3-1.9h0.9L87.7,78.8z M87.2,86v-6.1h0.9V86H87.2z"/>
					<path class="st5" d="M94.5,85.6c-0.3,0.2-0.6,0.3-0.9,0.4s-0.6,0.1-0.9,0.1c-0.9,0-1.6-0.3-2.1-0.8s-0.8-1.3-0.8-2.3
						c0-1,0.3-1.8,0.8-2.4s1.3-0.9,2.3-0.9c0.3,0,0.6,0,0.8,0.1s0.5,0.2,0.8,0.3l-0.4,0.7c-0.2-0.1-0.4-0.2-0.7-0.3
						s-0.4-0.1-0.7-0.1c-0.7,0-1.2,0.2-1.6,0.7s-0.6,1.1-0.6,1.8c0,0.8,0.2,1.4,0.6,1.8s0.9,0.6,1.5,0.6c0.2,0,0.4,0,0.7-0.1
						s0.4-0.2,0.7-0.3L94.5,85.6z"/>
					<path class="st5" d="M98.5,86.2c-0.9,0-1.6-0.3-2.2-0.9s-0.8-1.3-0.8-2.3c0-1,0.3-1.8,0.8-2.4s1.3-0.9,2.3-0.9
						c0.9,0,1.6,0.3,2.1,0.9s0.8,1.4,0.8,2.4c0,1-0.3,1.8-0.8,2.3S99.4,86.2,98.5,86.2z M98.5,85.4c0.7,0,1.2-0.2,1.5-0.6
						s0.5-1,0.5-1.8c0-0.8-0.2-1.4-0.5-1.8s-0.9-0.6-1.5-0.6c-0.7,0-1.2,0.2-1.6,0.7s-0.6,1.1-0.6,1.8c0,0.8,0.2,1.3,0.6,1.8
						S97.9,85.4,98.5,85.4z"/>
					<path class="st5" d="M108.1,86h-0.9v-3.5c0-0.7-0.1-1.2-0.4-1.5s-0.6-0.5-1.1-0.5c-0.5,0-0.9,0.2-1.3,0.6s-0.5,0.9-0.5,1.5V86
						h-0.9v-6.1h0.9v1h0c0.2-0.4,0.5-0.7,0.8-0.9s0.7-0.3,1.2-0.3c0.7,0,1.2,0.2,1.5,0.7s0.5,1.1,0.5,1.9V86z"/>
					<path class="st5" d="M114.9,83.1h-4.4c0,0.8,0.2,1.3,0.6,1.7s0.9,0.6,1.5,0.6c0.3,0,0.6,0,0.9-0.1s0.6-0.2,0.9-0.4l0.4,0.6
						c-0.3,0.2-0.7,0.4-1.1,0.5s-0.7,0.2-1.2,0.2c-0.9,0-1.6-0.3-2.1-0.8s-0.8-1.3-0.8-2.4c0-1,0.3-1.8,0.8-2.4s1.2-0.9,2-0.9
						c0.8,0,1.4,0.3,1.8,0.8s0.7,1.3,0.7,2.2V83.1z M114,82.4c0-0.6-0.2-1.1-0.4-1.4s-0.7-0.5-1.2-0.5c-0.5,0-0.9,0.2-1.3,0.5
						s-0.5,0.8-0.6,1.4H114z"/>
					<path class="st5" d="M116,85.6l0.4-0.7c0.2,0.2,0.5,0.3,0.7,0.4s0.5,0.1,0.8,0.1c0.4,0,0.8-0.1,1-0.3s0.3-0.4,0.3-0.8
						c0-0.3-0.1-0.5-0.3-0.7s-0.5-0.3-1-0.5c-0.7-0.2-1.2-0.4-1.5-0.7s-0.4-0.7-0.4-1.1c0-0.5,0.2-0.9,0.6-1.3s0.9-0.5,1.5-0.5
						c0.3,0,0.6,0,0.9,0.1s0.6,0.2,0.9,0.4l-0.4,0.7c-0.2-0.2-0.5-0.3-0.7-0.3s-0.5-0.1-0.7-0.1c-0.4,0-0.7,0.1-0.9,0.2
						s-0.3,0.4-0.3,0.7c0,0.3,0.1,0.5,0.3,0.6s0.5,0.3,1,0.4c0.6,0.2,1.1,0.4,1.4,0.7s0.5,0.7,0.5,1.2c0,0.6-0.2,1-0.6,1.3
						s-0.9,0.5-1.6,0.5c-0.4,0-0.7-0.1-1.1-0.2S116.2,85.8,116,85.6z"/>
					<path class="st5" d="M130.3,88.8h-0.9v-3.8h0c-0.2,0.4-0.5,0.7-0.9,0.9s-0.8,0.3-1.3,0.3c-0.8,0-1.4-0.3-1.9-0.8
						s-0.7-1.3-0.7-2.3c0-1,0.3-1.8,0.8-2.4s1.2-0.9,2.1-0.9c0.4,0,0.8,0.1,1.1,0.3s0.6,0.4,0.8,0.8h0v-0.9h0.9V88.8z M129.5,83.3
						v-0.9c0-0.5-0.2-1-0.5-1.3s-0.8-0.5-1.3-0.5c-0.6,0-1.1,0.2-1.5,0.7s-0.6,1.1-0.6,1.9c0,0.7,0.2,1.3,0.5,1.7s0.8,0.6,1.3,0.6
						c0.6,0,1.1-0.2,1.4-0.6S129.5,83.9,129.5,83.3z"/>
					<path class="st5" d="M137.1,86h-0.9v-1h0c-0.2,0.4-0.5,0.7-0.8,0.9s-0.7,0.3-1.1,0.3c-0.7,0-1.3-0.2-1.6-0.7s-0.5-1.1-0.5-2
						v-3.6h0.9v3.5c0,0.7,0.1,1.2,0.4,1.6s0.6,0.5,1.2,0.5c0.5,0,0.9-0.2,1.2-0.6s0.5-0.9,0.5-1.5v-3.5h0.9V86z"/>
					<path class="st5" d="M144,83.1h-4.4c0,0.8,0.2,1.3,0.6,1.7s0.9,0.6,1.5,0.6c0.3,0,0.6,0,0.9-0.1s0.6-0.2,0.9-0.4l0.4,0.6
						c-0.3,0.2-0.7,0.4-1.1,0.5s-0.7,0.2-1.2,0.2c-0.9,0-1.6-0.3-2.1-0.8s-0.8-1.3-0.8-2.4c0-1,0.3-1.8,0.8-2.4s1.2-0.9,2-0.9
						c0.8,0,1.4,0.3,1.8,0.8s0.7,1.3,0.7,2.2V83.1z M143.1,82.4c0-0.6-0.2-1.1-0.4-1.4s-0.7-0.5-1.2-0.5c-0.5,0-0.9,0.2-1.3,0.5
						s-0.5,0.8-0.6,1.4H143.1z"/>
					<path class="st5" d="M153.8,83.1h-4.4c0,0.8,0.2,1.3,0.6,1.7s0.9,0.6,1.5,0.6c0.3,0,0.6,0,0.9-0.1s0.6-0.2,0.9-0.4l0.4,0.6
						c-0.3,0.2-0.7,0.4-1.1,0.5s-0.7,0.2-1.2,0.2c-0.9,0-1.6-0.3-2.1-0.8s-0.8-1.3-0.8-2.4c0-1,0.3-1.8,0.8-2.4s1.2-0.9,2-0.9
						c0.8,0,1.4,0.3,1.8,0.8s0.7,1.3,0.7,2.2V83.1z M152.9,82.4c0-0.6-0.2-1.1-0.4-1.4s-0.7-0.5-1.2-0.5c-0.5,0-0.9,0.2-1.3,0.5
						s-0.5,0.8-0.6,1.4H152.9z"/>
					<path class="st5" d="M160.2,86h-0.9v-1h0c-0.2,0.4-0.5,0.7-0.8,0.9s-0.7,0.3-1.1,0.3c-0.7,0-1.3-0.2-1.6-0.7s-0.5-1.1-0.5-2
						v-3.6h0.9v3.5c0,0.7,0.1,1.2,0.4,1.6s0.6,0.5,1.2,0.5c0.5,0,0.9-0.2,1.2-0.6s0.5-0.9,0.5-1.5v-3.5h0.9V86z"/>
					<path class="st5" d="M170.4,86h-0.9v-1h0c-0.2,0.4-0.5,0.7-0.8,0.9s-0.7,0.3-1.1,0.3c-0.7,0-1.3-0.2-1.6-0.7s-0.5-1.1-0.5-2
						v-3.6h0.9v3.5c0,0.7,0.1,1.2,0.4,1.6s0.6,0.5,1.2,0.5c0.5,0,0.9-0.2,1.2-0.6s0.5-0.9,0.5-1.5v-3.5h0.9V86z"/>
					<path class="st5" d="M175.3,85.9c-0.2,0.1-0.3,0.1-0.5,0.2s-0.3,0.1-0.5,0.1c-0.5,0-0.8-0.1-1.1-0.4s-0.4-0.7-0.4-1.2v-3.9
						h-1.1v-0.7h1.1v-1.4l0.9-0.3v1.7h1.6v0.7h-1.6v3.8c0,0.4,0.1,0.6,0.2,0.8s0.3,0.2,0.6,0.2c0.1,0,0.2,0,0.4,0s0.2-0.1,0.3-0.1
						L175.3,85.9z"/>
					<path class="st5" d="M177.1,78.5c-0.2,0-0.3-0.1-0.5-0.2s-0.2-0.3-0.2-0.4c0-0.2,0.1-0.3,0.2-0.4s0.3-0.2,0.5-0.2
						c0.2,0,0.3,0.1,0.5,0.2s0.2,0.3,0.2,0.4c0,0.2-0.1,0.3-0.2,0.4S177.2,78.5,177.1,78.5z M177.5,86h-0.9v-6.1h0.9V86z"/>
					<path class="st5" d="M179.6,86v-8.9h0.9V86H179.6z"/>
					<path class="st5" d="M183,78.5c-0.2,0-0.3-0.1-0.5-0.2s-0.2-0.3-0.2-0.4c0-0.2,0.1-0.3,0.2-0.4s0.3-0.2,0.5-0.2
						c0.2,0,0.3,0.1,0.5,0.2s0.2,0.3,0.2,0.4c0,0.2-0.1,0.3-0.2,0.4S183.1,78.5,183,78.5z M183.4,86h-0.9v-6.1h0.9V86z"/>
					<path class="st5" d="M189.9,80.1l-3.8,5.1h3.7V86h-5v-0.3l3.8-5.1h-3.4v-0.8h4.8V80.1z"/>
					<path class="st5" d="M196.1,83.1h-4.4c0,0.8,0.2,1.3,0.6,1.7s0.9,0.6,1.5,0.6c0.3,0,0.6,0,0.9-0.1s0.6-0.2,0.9-0.4l0.4,0.6
						c-0.3,0.2-0.7,0.4-1.1,0.5s-0.7,0.2-1.2,0.2c-0.9,0-1.6-0.3-2.1-0.8s-0.8-1.3-0.8-2.4c0-1,0.3-1.8,0.8-2.4s1.2-0.9,2-0.9
						c0.8,0,1.4,0.3,1.8,0.8s0.7,1.3,0.7,2.2V83.1z M195.2,82.4c0-0.6-0.2-1.1-0.4-1.4s-0.7-0.5-1.2-0.5c-0.5,0-0.9,0.2-1.3,0.5
						s-0.5,0.8-0.6,1.4H195.2z"/>
					<path class="st5" d="M198.1,78.5c-0.2,0-0.3-0.1-0.5-0.2s-0.2-0.3-0.2-0.4c0-0.2,0.1-0.3,0.2-0.4s0.3-0.2,0.5-0.2
						c0.2,0,0.3,0.1,0.5,0.2s0.2,0.3,0.2,0.4c0,0.2-0.1,0.3-0.2,0.4S198.3,78.5,198.1,78.5z M198.6,86h-0.9v-6.1h0.9V86z"/>
					<path class="st5" d="M204.9,85.1L204.9,85.1l0,3.7H204v-8.9h0.9V81h0c0.2-0.4,0.5-0.7,0.9-1s0.8-0.3,1.3-0.3
						c0.8,0,1.4,0.3,1.8,0.8s0.7,1.3,0.7,2.2c0,1-0.3,1.8-0.8,2.5s-1.2,0.9-2,0.9c-0.4,0-0.8-0.1-1.1-0.3S205.1,85.4,204.9,85.1z
						 M204.8,82.7v0.8c0,0.5,0.2,1,0.5,1.4s0.8,0.6,1.3,0.6c0.6,0,1.1-0.2,1.4-0.7s0.5-1.1,0.5-2c0-0.7-0.2-1.3-0.5-1.7
						s-0.8-0.6-1.3-0.6c-0.6,0-1.1,0.2-1.5,0.6S204.8,82,204.8,82.7z"/>
					<path class="st5" d="M215.5,86h-0.9v-1h0c-0.2,0.4-0.5,0.7-0.8,0.9s-0.7,0.3-1.1,0.3c-0.6,0-1-0.2-1.4-0.5s-0.5-0.8-0.5-1.3
						c0-0.5,0.2-1,0.5-1.3s0.9-0.6,1.6-0.7l1.8-0.2V82c0-0.5-0.1-0.9-0.4-1.2s-0.6-0.4-1-0.4c-0.3,0-0.7,0.1-1,0.2s-0.6,0.3-0.9,0.6
						l-0.5-0.5c0.3-0.3,0.7-0.6,1.1-0.7s0.8-0.2,1.3-0.2c0.7,0,1.3,0.2,1.6,0.6s0.6,1,0.6,1.7V86z M214.6,83.4v-0.6l-1.5,0.2
						c-0.5,0.1-0.9,0.2-1.1,0.4s-0.4,0.5-0.4,0.8c0,0.4,0.1,0.6,0.3,0.8s0.5,0.3,0.9,0.3c0.5,0,1-0.2,1.3-0.6S214.6,84,214.6,83.4z"
						/>
					<path class="st5" d="M220.5,80.6c-0.1,0-0.2,0-0.2-0.1s-0.2,0-0.3,0c-0.5,0-0.9,0.2-1.2,0.7s-0.4,1-0.4,1.7v3h-0.9v-6.1h0.9
						v1.3h0c0.1-0.4,0.4-0.8,0.7-1s0.6-0.4,1-0.4c0.1,0,0.2,0,0.3,0s0.2,0,0.3,0.1L220.5,80.6z"/>
					<path class="st5" d="M226.1,86h-0.9v-1h0c-0.2,0.4-0.5,0.7-0.8,0.9s-0.7,0.3-1.1,0.3c-0.6,0-1-0.2-1.4-0.5s-0.5-0.8-0.5-1.3
						c0-0.5,0.2-1,0.5-1.3s0.9-0.6,1.6-0.7l1.8-0.2V82c0-0.5-0.1-0.9-0.4-1.2s-0.6-0.4-1-0.4c-0.3,0-0.7,0.1-1,0.2s-0.6,0.3-0.9,0.6
						l-0.5-0.5c0.3-0.3,0.7-0.6,1.1-0.7s0.8-0.2,1.3-0.2c0.7,0,1.3,0.2,1.6,0.6s0.6,1,0.6,1.7V86z M225.2,83.4v-0.6l-1.5,0.2
						c-0.5,0.1-0.9,0.2-1.1,0.4s-0.4,0.5-0.4,0.8c0,0.4,0.1,0.6,0.3,0.8s0.5,0.3,0.9,0.3c0.5,0,1-0.2,1.3-0.6S225.2,84,225.2,83.4z"
						/>
					<path class="st5" d="M235.6,84.9c-0.2,0.4-0.5,0.7-0.9,0.9s-0.8,0.3-1.3,0.3c-0.8,0-1.4-0.3-1.9-0.8s-0.7-1.3-0.7-2.3
						c0-1,0.3-1.8,0.8-2.4s1.2-0.9,2-0.9c0.4,0,0.8,0.1,1.1,0.3s0.6,0.4,0.8,0.8h0v-3.6h0.9V86h-0.9L235.6,84.9L235.6,84.9z
						 M231.8,83c0,0.8,0.2,1.3,0.5,1.8s0.8,0.6,1.4,0.6c0.6,0,1.1-0.2,1.4-0.6s0.5-0.9,0.5-1.5v-1c0-0.5-0.2-1-0.5-1.3
						s-0.8-0.5-1.3-0.5c-0.6,0-1.1,0.2-1.5,0.7S231.8,82.2,231.8,83z"/>
					<path class="st5" d="M242.9,86H242v-1h0c-0.2,0.4-0.5,0.7-0.8,0.9s-0.7,0.3-1.1,0.3c-0.6,0-1-0.2-1.4-0.5s-0.5-0.8-0.5-1.3
						c0-0.5,0.2-1,0.5-1.3s0.9-0.6,1.6-0.7l1.8-0.2V82c0-0.5-0.1-0.9-0.4-1.2s-0.6-0.4-1-0.4c-0.3,0-0.7,0.1-1,0.2s-0.6,0.3-0.9,0.6
						l-0.5-0.5c0.3-0.3,0.7-0.6,1.1-0.7s0.8-0.2,1.3-0.2c0.7,0,1.3,0.2,1.6,0.6s0.6,1,0.6,1.7V86z M242,83.4v-0.6l-1.5,0.2
						c-0.5,0.1-0.9,0.2-1.1,0.4s-0.4,0.5-0.4,0.8c0,0.4,0.1,0.6,0.3,0.8s0.5,0.3,0.9,0.3c0.5,0,1-0.2,1.3-0.6S242,84,242,83.4z"/>
					<path class="st5" d="M247.8,80.6c-0.1,0-0.2,0-0.2-0.1s-0.2,0-0.3,0c-0.5,0-0.9,0.2-1.2,0.7s-0.4,1-0.4,1.7v3h-0.9v-6.1h0.9
						v1.3h0c0.1-0.4,0.4-0.8,0.7-1s0.6-0.4,1-0.4c0.1,0,0.2,0,0.3,0s0.2,0,0.3,0.1L247.8,80.6z"/>
					<path class="st5" d="M257.2,79.9l-2.4,6.1h-0.9l-2.3-6.1h1l1.6,4.6c0.1,0.2,0.1,0.3,0.1,0.4s0.1,0.3,0.1,0.4h0
						c0-0.1,0.1-0.3,0.1-0.4s0.1-0.2,0.1-0.4l1.7-4.6H257.2z"/>
					<path class="st5" d="M258.8,78.5c-0.2,0-0.3-0.1-0.5-0.2s-0.2-0.3-0.2-0.4c0-0.2,0.1-0.3,0.2-0.4s0.3-0.2,0.5-0.2
						c0.2,0,0.3,0.1,0.5,0.2s0.2,0.3,0.2,0.4c0,0.2-0.1,0.3-0.2,0.4S259,78.5,258.8,78.5z M259.2,86h-0.9v-6.1h0.9V86z"/>
					<path class="st5" d="M265.6,84.9c-0.2,0.4-0.5,0.7-0.9,0.9s-0.8,0.3-1.3,0.3c-0.8,0-1.4-0.3-1.9-0.8s-0.7-1.3-0.7-2.3
						c0-1,0.3-1.8,0.8-2.4s1.2-0.9,2-0.9c0.4,0,0.8,0.1,1.1,0.3s0.6,0.4,0.8,0.8h0v-3.6h0.9V86h-0.9L265.6,84.9L265.6,84.9z
						 M261.8,83c0,0.8,0.2,1.3,0.5,1.8s0.8,0.6,1.4,0.6c0.6,0,1.1-0.2,1.4-0.6s0.5-0.9,0.5-1.5v-1c0-0.5-0.2-1-0.5-1.3
						s-0.8-0.5-1.3-0.5c-0.6,0-1.1,0.2-1.5,0.7S261.8,82.2,261.8,83z"/>
					<path class="st5" d="M272.9,86H272v-1h0c-0.2,0.4-0.5,0.7-0.8,0.9s-0.7,0.3-1.1,0.3c-0.6,0-1-0.2-1.4-0.5s-0.5-0.8-0.5-1.3
						c0-0.5,0.2-1,0.5-1.3s0.9-0.6,1.6-0.7l1.8-0.2V82c0-0.5-0.1-0.9-0.4-1.2s-0.6-0.4-1-0.4c-0.3,0-0.7,0.1-1,0.2s-0.6,0.3-0.9,0.6
						l-0.5-0.5c0.3-0.3,0.7-0.6,1.1-0.7s0.8-0.2,1.3-0.2c0.7,0,1.3,0.2,1.6,0.6s0.6,1,0.6,1.7V86z M272,83.4v-0.6l-1.5,0.2
						c-0.5,0.1-0.9,0.2-1.1,0.4s-0.4,0.5-0.4,0.8c0,0.4,0.1,0.6,0.3,0.8s0.5,0.3,0.9,0.3c0.5,0,1-0.2,1.3-0.6S272,84,272,83.4z"/>
					<path class="st5" d="M283,83.1h-4.4c0,0.8,0.2,1.3,0.6,1.7s0.9,0.6,1.5,0.6c0.3,0,0.6,0,0.9-0.1s0.6-0.2,0.9-0.4l0.4,0.6
						c-0.3,0.2-0.7,0.4-1.1,0.5s-0.7,0.2-1.2,0.2c-0.9,0-1.6-0.3-2.1-0.8s-0.8-1.3-0.8-2.4c0-1,0.3-1.8,0.8-2.4s1.2-0.9,2-0.9
						c0.8,0,1.4,0.3,1.8,0.8s0.7,1.3,0.7,2.2V83.1z M282.1,82.4c0-0.6-0.2-1.1-0.4-1.4s-0.7-0.5-1.2-0.5c-0.5,0-0.9,0.2-1.3,0.5
						s-0.5,0.8-0.6,1.4H282.1z"/>
					<path class="st5" d="M15.6,97.5h-4.4c0,0.8,0.2,1.3,0.6,1.7s0.9,0.6,1.5,0.6c0.3,0,0.6,0,0.9-0.1s0.6-0.2,0.9-0.4l0.4,0.6
						c-0.3,0.2-0.7,0.4-1.1,0.5s-0.7,0.2-1.2,0.2c-0.9,0-1.6-0.3-2.1-0.8s-0.8-1.3-0.8-2.4c0-1,0.3-1.8,0.8-2.4s1.2-0.9,2-0.9
						c0.8,0,1.4,0.3,1.8,0.8s0.7,1.3,0.7,2.2V97.5z M14.7,96.8c0-0.6-0.2-1.1-0.4-1.4s-0.7-0.5-1.2-0.5c-0.5,0-0.9,0.2-1.3,0.5
						s-0.5,0.8-0.6,1.4H14.7z"/>
					<path class="st5" d="M16.6,100l0.4-0.7c0.2,0.2,0.5,0.3,0.7,0.4s0.5,0.1,0.8,0.1c0.4,0,0.8-0.1,1-0.3s0.3-0.4,0.3-0.8
						c0-0.3-0.1-0.5-0.3-0.7s-0.5-0.3-1-0.5c-0.7-0.2-1.2-0.4-1.5-0.7s-0.4-0.7-0.4-1.1c0-0.5,0.2-0.9,0.6-1.3s0.9-0.5,1.5-0.5
						c0.3,0,0.6,0,0.9,0.1s0.6,0.2,0.9,0.4l-0.4,0.7c-0.2-0.2-0.5-0.3-0.7-0.3s-0.5-0.1-0.7-0.1c-0.4,0-0.7,0.1-0.9,0.2
						s-0.3,0.4-0.3,0.7c0,0.3,0.1,0.5,0.3,0.6s0.5,0.3,1,0.4c0.6,0.2,1.1,0.4,1.4,0.7s0.5,0.7,0.5,1.2c0,0.6-0.2,1-0.6,1.3
						s-0.9,0.5-1.6,0.5c-0.4,0-0.7-0.1-1.1-0.2S16.9,100.2,16.6,100z"/>
					<path class="st5" d="M25.2,100.3c-0.2,0.1-0.3,0.1-0.5,0.2s-0.3,0.1-0.5,0.1c-0.5,0-0.8-0.1-1.1-0.4s-0.4-0.7-0.4-1.2V95h-1.1
						v-0.7h1.1v-1.4l0.9-0.3v1.7h1.6V95h-1.6v3.8c0,0.4,0.1,0.6,0.2,0.8s0.3,0.2,0.6,0.2c0.1,0,0.2,0,0.4,0s0.2-0.1,0.3-0.1
						L25.2,100.3z"/>
					<path class="st5" d="M27,92.9c-0.2,0-0.3-0.1-0.5-0.2s-0.2-0.3-0.2-0.4c0-0.2,0.1-0.3,0.2-0.4s0.3-0.2,0.5-0.2
						c0.2,0,0.3,0.1,0.5,0.2s0.2,0.3,0.2,0.4c0,0.2-0.1,0.3-0.2,0.4S27.2,92.9,27,92.9z M27.4,100.4h-0.9v-6.1h0.9V100.4z"/>
					<path class="st5" d="M29.5,100.4v-8.9h0.9v8.9H29.5z"/>
					<path class="st5" d="M35,100.6c-0.9,0-1.6-0.3-2.2-0.9S32,98.3,32,97.4c0-1,0.3-1.8,0.8-2.4s1.3-0.9,2.3-0.9
						c0.9,0,1.6,0.3,2.1,0.9s0.8,1.4,0.8,2.4c0,1-0.3,1.8-0.8,2.3S35.9,100.6,35,100.6z M35.1,99.8c0.7,0,1.2-0.2,1.5-0.6
						s0.5-1,0.5-1.8c0-0.8-0.2-1.4-0.5-1.8s-0.9-0.6-1.5-0.6c-0.7,0-1.2,0.2-1.6,0.7s-0.6,1.1-0.6,1.8c0,0.8,0.2,1.3,0.6,1.8
						S34.4,99.8,35.1,99.8z"/>
					<path class="st5" d="M47.3,100.4h-0.9v-1h0c-0.2,0.4-0.5,0.7-0.8,0.9s-0.7,0.3-1.1,0.3c-0.6,0-1-0.2-1.4-0.5s-0.5-0.8-0.5-1.3
						c0-0.5,0.2-1,0.5-1.3s0.9-0.6,1.6-0.7l1.8-0.2v-0.2c0-0.5-0.1-0.9-0.4-1.2s-0.6-0.4-1-0.4c-0.3,0-0.7,0.1-1,0.2
						s-0.6,0.3-0.9,0.6l-0.5-0.5c0.3-0.3,0.7-0.6,1.1-0.7s0.8-0.2,1.3-0.2c0.7,0,1.3,0.2,1.6,0.6s0.6,1,0.6,1.7V100.4z M46.4,97.8
						v-0.6l-1.5,0.2c-0.5,0.1-0.9,0.2-1.1,0.4s-0.4,0.5-0.4,0.8c0,0.4,0.1,0.6,0.3,0.8s0.5,0.3,0.9,0.3c0.5,0,1-0.2,1.3-0.6
						S46.4,98.4,46.4,97.8z"/>
					<path class="st5" d="M51.8,100.6c-0.9,0-1.6-0.3-2.2-0.9s-0.8-1.3-0.8-2.3c0-1,0.3-1.8,0.8-2.4s1.3-0.9,2.3-0.9
						c0.9,0,1.6,0.3,2.1,0.9s0.8,1.4,0.8,2.4c0,1-0.3,1.8-0.8,2.3S52.7,100.6,51.8,100.6z M51.8,99.8c0.7,0,1.2-0.2,1.5-0.6
						s0.5-1,0.5-1.8c0-0.8-0.2-1.4-0.5-1.8s-0.9-0.6-1.5-0.6c-0.7,0-1.2,0.2-1.6,0.7s-0.6,1.1-0.6,1.8c0,0.8,0.2,1.3,0.6,1.8
						S51.2,99.8,51.8,99.8z"/>
					<path class="st5" d="M68.3,100.4h-0.9v-3.6c0-0.7-0.1-1.2-0.3-1.5s-0.6-0.5-1.1-0.5c-0.4,0-0.8,0.2-1.1,0.6s-0.5,0.9-0.5,1.4
						v3.5h-0.9v-3.7c0-0.6-0.1-1.1-0.4-1.4s-0.6-0.5-1.1-0.5c-0.5,0-0.8,0.2-1.1,0.6s-0.4,0.9-0.4,1.5v3.5h-0.9v-6.1h0.9v1h0
						c0.2-0.4,0.5-0.7,0.8-0.9s0.7-0.3,1.1-0.3c0.4,0,0.8,0.1,1.1,0.4s0.5,0.6,0.6,0.9c0.2-0.4,0.5-0.8,0.8-1s0.7-0.3,1.2-0.3
						c0.7,0,1.2,0.2,1.5,0.6s0.5,1,0.5,1.9V100.4z"/>
					<path class="st5" d="M75.1,97.5h-4.4c0,0.8,0.2,1.3,0.6,1.7s0.9,0.6,1.5,0.6c0.3,0,0.6,0,0.9-0.1s0.6-0.2,0.9-0.4l0.4,0.6
						c-0.3,0.2-0.7,0.4-1.1,0.5s-0.7,0.2-1.2,0.2c-0.9,0-1.6-0.3-2.1-0.8s-0.8-1.3-0.8-2.4c0-1,0.3-1.8,0.8-2.4s1.2-0.9,2-0.9
						c0.8,0,1.4,0.3,1.8,0.8s0.7,1.3,0.7,2.2V97.5z M74.2,96.8c0-0.6-0.2-1.1-0.4-1.4s-0.7-0.5-1.2-0.5c-0.5,0-0.9,0.2-1.3,0.5
						s-0.5,0.8-0.6,1.4H74.2z"/>
					<path class="st5" d="M81.6,100.4h-0.9v-1h0c-0.2,0.4-0.5,0.7-0.8,0.9s-0.7,0.3-1.1,0.3c-0.7,0-1.3-0.2-1.6-0.7s-0.5-1.1-0.5-2
						v-3.6h0.9v3.5c0,0.7,0.1,1.2,0.4,1.6s0.6,0.5,1.2,0.5c0.5,0,0.9-0.2,1.2-0.6s0.5-0.9,0.5-1.5v-3.5h0.9V100.4z"/>
					<path class="st5" d="M92.8,100.4h-1.1L90.4,98c-0.3-0.5-0.5-0.8-0.7-0.9s-0.5-0.2-0.8-0.2h-1v3.5H87V92h2.4
						c0.7,0,1.3,0.2,1.8,0.6s0.7,0.9,0.7,1.7c0,0.6-0.2,1.1-0.5,1.5s-0.8,0.7-1.3,0.9v0c0.2,0.1,0.3,0.2,0.5,0.4s0.3,0.4,0.5,0.6
						L92.8,100.4z M87.9,92.8v3.3h1.3c0.5,0,0.9-0.2,1.3-0.5s0.5-0.7,0.5-1.3c0-0.5-0.1-0.8-0.4-1.1s-0.7-0.4-1.3-0.4H87.9z"/>
					<path class="st5" d="M98.6,100.4h-4.4V92h4.2v0.8h-3.3v2.9h3v0.8h-3v3h3.5V100.4z"/>
					<path class="st5" d="M99.5,100.4l3.2-8.4h0.9l3.2,8.4h-1l-0.9-2.3h-3.6l-0.8,2.3H99.5z M101.6,97.3h3l-1.4-3.7
						c0-0.1-0.1-0.2-0.1-0.3s0-0.2-0.1-0.3h0c0,0.1,0,0.2-0.1,0.3s-0.1,0.2-0.1,0.3L101.6,97.3z"/>
					<path class="st5" d="M108.2,100.4V92h2.3c1.5,0,2.6,0.3,3.3,1s1.1,1.7,1.1,3.1c0,1.3-0.4,2.4-1.2,3.1s-1.9,1.2-3.3,1.2H108.2z
						 M109.1,92.8v6.8h1.3c1.1,0,2-0.3,2.6-0.9s0.9-1.5,0.9-2.6c0-1.1-0.3-1.9-0.9-2.5s-1.5-0.8-2.6-0.8H109.1z"/>
					<path class="st5" d="M125.1,100.4h-0.9v-5.7c0-0.2,0-0.4,0-0.7s0-0.5,0.1-0.9h0c-0.1,0.2-0.1,0.3-0.1,0.5S124,93.9,124,94
						l-2.9,6.4h-0.4l-2.9-6.4c0-0.1-0.1-0.2-0.1-0.4s-0.1-0.3-0.1-0.5h0c0,0.2,0,0.4,0,0.7s0,0.5,0,0.9v5.7h-0.9V92h1.1l2.7,6.1
						c0.1,0.2,0.2,0.4,0.2,0.5s0.1,0.3,0.1,0.4h0c0.1-0.2,0.1-0.4,0.2-0.6s0.1-0.3,0.2-0.4l2.7-6h1.1V100.4z"/>
					<path class="st5" d="M131.8,100.4h-4.4V92h4.2v0.8h-3.3v2.9h3v0.8h-3v3h3.5V100.4z"/>
					<path class="st5" d="M141.7,100.4h-0.9v-3.5c0-0.7-0.1-1.2-0.4-1.5s-0.6-0.5-1.1-0.5c-0.5,0-0.9,0.2-1.3,0.6s-0.5,0.9-0.5,1.5
						v3.5h-0.9v-6.1h0.9v1h0c0.2-0.4,0.5-0.7,0.8-0.9s0.7-0.3,1.2-0.3c0.7,0,1.2,0.2,1.5,0.7s0.5,1.1,0.5,1.9V100.4z"/>
					<path class="st5" d="M146.2,100.6c-0.9,0-1.6-0.3-2.2-0.9s-0.8-1.3-0.8-2.3c0-1,0.3-1.8,0.8-2.4s1.3-0.9,2.3-0.9
						c0.9,0,1.6,0.3,2.1,0.9s0.8,1.4,0.8,2.4c0,1-0.3,1.8-0.8,2.3S147.1,100.6,146.2,100.6z M146.3,99.8c0.7,0,1.2-0.2,1.5-0.6
						s0.5-1,0.5-1.8c0-0.8-0.2-1.4-0.5-1.8s-0.9-0.6-1.5-0.6c-0.7,0-1.2,0.2-1.6,0.7s-0.6,1.1-0.6,1.8c0,0.8,0.2,1.3,0.6,1.8
						S145.6,99.8,146.3,99.8z"/>
					<path class="st5" d="M160.5,99.8c-0.4,0.2-0.9,0.4-1.3,0.5s-0.9,0.2-1.5,0.2c-1.2,0-2.2-0.4-2.9-1.1s-1.1-1.8-1.1-3.1
						c0-1.3,0.4-2.4,1.2-3.2s1.8-1.2,3.1-1.2c0.5,0,0.9,0,1.3,0.1s0.8,0.2,1.2,0.4l-0.4,0.7c-0.3-0.2-0.7-0.3-1-0.4
						s-0.7-0.1-1.1-0.1c-1,0-1.8,0.3-2.4,1s-0.9,1.5-0.9,2.6c0,1.1,0.3,2,0.8,2.6s1.3,0.9,2.3,0.9c0.3,0,0.7,0,0.9-0.1
						s0.6-0.2,0.8-0.3v-2.4h-1.9v-0.8h2.8V99.8z"/>
					<path class="st5" d="M162.9,92.9c-0.2,0-0.3-0.1-0.5-0.2s-0.2-0.3-0.2-0.4c0-0.2,0.1-0.3,0.2-0.4s0.3-0.2,0.5-0.2
						c0.2,0,0.3,0.1,0.5,0.2s0.2,0.3,0.2,0.4c0,0.2-0.1,0.3-0.2,0.4S163.1,92.9,162.9,92.9z M163.3,100.4h-0.9v-6.1h0.9V100.4z"/>
					<path class="st5" d="M168.3,100.3c-0.2,0.1-0.3,0.1-0.5,0.2s-0.3,0.1-0.5,0.1c-0.5,0-0.8-0.1-1.1-0.4s-0.4-0.7-0.4-1.2V95h-1.1
						v-0.7h1.1v-1.4l0.9-0.3v1.7h1.6V95h-1.6v3.8c0,0.4,0.1,0.6,0.2,0.8s0.3,0.2,0.6,0.2c0.1,0,0.2,0,0.4,0s0.2-0.1,0.3-0.1
						L168.3,100.3z"/>
					<path class="st5" d="M175.9,100.4H175v-3.9h-4.4v3.9h-0.9V92h0.9v3.7h4.4V92h0.9V100.4z"/>
					<path class="st5" d="M183,100.4h-0.9v-1h0c-0.2,0.4-0.5,0.7-0.8,0.9s-0.7,0.3-1.1,0.3c-0.7,0-1.3-0.2-1.6-0.7s-0.5-1.1-0.5-2
						v-3.6h0.9v3.5c0,0.7,0.1,1.2,0.4,1.6s0.6,0.5,1.2,0.5c0.5,0,0.9-0.2,1.2-0.6s0.5-0.9,0.5-1.5v-3.5h0.9V100.4z"/>
					<path class="st5" d="M186,99.5L186,99.5l0,0.9h-0.9v-8.9h0.9v3.9h0c0.2-0.4,0.5-0.7,0.9-1s0.8-0.3,1.3-0.3
						c0.8,0,1.4,0.3,1.8,0.8s0.7,1.3,0.7,2.2c0,1-0.3,1.9-0.8,2.5s-1.2,0.9-2,0.9c-0.4,0-0.8-0.1-1.1-0.3S186.2,99.9,186,99.5z
						 M185.9,97v0.8c0,0.5,0.2,1,0.5,1.4s0.8,0.6,1.3,0.6c0.6,0,1.1-0.2,1.4-0.7s0.5-1.1,0.5-2c0-0.7-0.2-1.3-0.5-1.7
						s-0.8-0.6-1.3-0.6c-0.6,0-1.1,0.2-1.5,0.6S185.9,96.4,185.9,97z"/>
					<path class="st5" d="M192.6,100.5c-0.2,0-0.3-0.1-0.5-0.2s-0.2-0.3-0.2-0.4s0.1-0.3,0.2-0.4s0.3-0.2,0.5-0.2
						c0.2,0,0.3,0.1,0.5,0.2s0.2,0.3,0.2,0.4s-0.1,0.3-0.2,0.4S192.8,100.5,192.6,100.5z"/>
				</g>
			</g>
			<g>
				<path class="st6" d="M169.8,138.1h-59c-1.1,0-1.9-0.9-1.9-1.9v-15.5c0-1.1,0.9-1.9,1.9-1.9h59c1.1,0,1.9,0.9,1.9,1.9v15.5
					C171.8,137.2,170.9,138.1,169.8,138.1z"/>
				<g>
					<text transform="matrix(1 0 0 1 116.9617 130.9866)"><tspan x="0" y="0" class="st4 st7 st8">S</tspan><tspan x="4.2" y="0" class="st4 st7 st8">aiba mais</tspan></text>
					<path class="st4" d="M163.6,128.3c0,0.1-0.1,0.1-0.1,0.1c-1.3,1.3-2.5,2.5-3.8,3.8c-0.1,0.1-0.2,0.1-0.3,0.2h-0.2
						c-0.3-0.1-0.4-0.3-0.6-0.5c-0.1-0.2-0.1-0.4,0-0.6c0,0,0.1-0.1,0.1-0.1c1-1,2.1-2.1,3.1-3.1c0,0,0.1,0,0.1-0.1
						c0,0-0.1-0.1-0.1-0.1c-1-1-2.1-2.1-3.1-3.1c-0.2-0.2-0.2-0.4-0.1-0.6c0.1-0.2,0.3-0.3,0.5-0.5c0.2-0.1,0.4-0.1,0.5,0
						c0,0,0,0,0.1,0.1c1.3,1.3,2.5,2.5,3.8,3.8C163.6,127.8,163.7,128.1,163.6,128.3z"/>
				</g>
			</g>
		</g>
	</g>
	<g>
		<path class="st9" d="M372.6,21.1L372.6,21.1c-5.8,0-10.6-4.8-10.6-10.6v0c0-5.8,4.8-10.6,10.6-10.6h0c5.8,0,10.6,4.8,10.6,10.6v0
			C383.2,16.4,378.4,21.1,372.6,21.1z"/>
		<polygon class="st10" points="372.6,5.2 374.4,8.7 378.3,9.3 375.4,12 376.1,15.9 372.6,14.1 369.2,15.9 369.8,12 367,9.3 
			370.9,8.7 		"/>
	</g>
</g>
</svg>
