<?xml version="1.0" encoding="utf-8"?>
<!-- Generator: Adobe Illustrator 26.3.0, SVG Export Plug-In . SVG Version: 6.00 Build 0)  -->
<svg version="1.1" id="Camada_1" xmlns="http://www.w3.org/2000/svg" xmlns:xlink="http://www.w3.org/1999/xlink" x="0px" y="0px"
	 width="196.5px" height="32.1px" viewBox="0 0 196.5 32.1" style="enable-background:new 0 0 196.5 32.1;" xml:space="preserve">
<style type="text/css">
	.st0{fill:#251414;}
	.st1{display:none;}
	.st2{display:inline;fill:#251414;}
	.st3{fill:#E1E1E1;}
	.st4{fill:url(#SVGID_1_);}
	.st5{fill:url(#SVGID_00000088830916690879225060000001413811989263601065_);}
	.st6{fill:url(#SVGID_00000175323363719948611620000003715145624597760424_);}
	.st7{fill:#F08384;}
</style>
<g>
	<path class="st0" d="M25.2,32.1H6.7c-3.7,0-6.7-3-6.7-6.7V6.9c0-3.7,3-6.7,6.7-6.7h18.5c3.7,0,6.7,3,6.7,6.7v18.5
		C31.8,29.1,28.8,32.1,25.2,32.1z"/>
	<g class="st1">
		<path class="st2" d="M26.7,18.6c-0.1,0.4-0.4,0.7-0.8,0.7c-0.3,0-0.5,0-0.8,0c-0.1,0-0.2,0-0.3,0.2c0,0.1,0,0.1-0.1,0.2
			c-0.3,0.4-0.1,0.7,0.2,1c0.7,0.6,0.7,0.8,0.2,1.6c-0.9,1.3-1.9,2.3-3.2,3.2c-0.5,0.3-0.8,0.3-1.2-0.1c0,0-0.1-0.1-0.1-0.1
			c-0.2-0.2-0.4-0.5-0.6-0.5c-0.2,0-0.5,0.2-0.8,0.3c-0.1,0-0.1,0.1-0.1,0.2c0,0.3,0,0.6,0,0.9c0,0.4-0.2,0.7-0.6,0.8
			c-0.6,0.1-1.1,0.2-1.8,0.3V20c2.2-0.6,3.2-2.5,3.1-4c-0.1-1.6-1.1-3.2-3.1-3.7V5.1c0.6,0.1,1.2,0.2,1.8,0.3
			c0.4,0.1,0.6,0.4,0.6,0.7c0,0.3,0,0.6,0,0.8c0,0.2,0.1,0.3,0.2,0.3c0.1,0,0.1,0,0.2,0.1c0.4,0.3,0.7,0.1,1-0.2
			c0.6-0.7,0.9-0.7,1.6-0.2c1.3,0.9,2.3,1.9,3.2,3.2c0.3,0.5,0.3,0.8-0.1,1.2c0,0,0,0-0.1,0.1c-0.2,0.2-0.5,0.4-0.5,0.6
			c0,0.2,0.2,0.5,0.3,0.8c0,0.1,0.1,0.1,0.2,0.1c0.3,0,0.6,0,0.8,0c0.5,0,0.7,0.2,0.8,0.7C27.1,15.3,27.1,17,26.7,18.6z"/>
		<path class="st2" d="M15.2,6.4c0,6.5,0,12.9,0,19.4c0,0.1-0.1,0.2-0.1,0.3c-2.3,1.9-5.9,1.1-7.1-1.6c0,0,0-0.1-0.1-0.2
			c1.2,0.2,2.3,0.2,3.4-0.2c0.6-0.2,1.2-0.6,1.7-1c0.4-0.3,0.4-0.8,0.2-1.2c-0.3-0.4-0.8-0.4-1.2-0.1c-1.5,1.2-3.4,1.4-5,0.4
			c-1.6-1-2.4-3-1.8-4.7c0-0.1,0.1-0.2,0.1-0.3c0.1,0.1,0.2,0.2,0.3,0.3c0.8,0.9,1.7,1.4,2.8,1.7c0.4,0.1,0.8-0.1,1-0.6
			c0.1-0.4-0.1-0.8-0.6-1c-0.8-0.2-1.4-0.5-2-1.1c-0.9-1-1.1-2.1-1-3.3c0.1-1.3,0.9-2.3,2-2.9c0,0,0.1,0,0.1-0.1
			c0,0.3,0,0.6,0.1,0.9c0.2,1.8,1,3.3,2.5,4.4c0.1,0.1,0.1,0.2,0.1,0.3c-0.1,1.6,0.5,2.9,1.6,4c0.3,0.3,0.8,0.3,1.1,0
			c0.3-0.3,0.3-0.8,0.1-1.1c-0.2-0.2-0.4-0.4-0.5-0.6c-0.4-0.5-0.6-1-0.6-1.6c-0.1-1.1,0.2-2.1,1-2.9c0.1-0.1,0.3-0.3,0.3-0.5
			c0.1-0.3-0.1-0.7-0.4-0.8c-0.3-0.2-0.7-0.1-0.9,0.2c-0.4,0.5-0.8,1-1.2,1.5c-0.6-0.5-1-1.3-1.3-2.1c-0.3-1.1-0.3-2.3,0.2-3.4
			c0.9-2,3.1-3,5.1-2.3C15.1,6.1,15.2,6.2,15.2,6.4z"/>
	</g>
</g>
<g>
	<g>
		<g>
			<g>
				<path class="st3" d="M64.2,22.9h-2.9v-11c0-0.5,0-1,0-1.6s0.1-1.2,0.1-1.9h-0.1c-0.1,0.5-0.2,0.9-0.3,1.2
					c-0.1,0.3-0.2,0.6-0.2,0.8l-5,12.5h-2.1l-5-12.4c-0.1-0.2-0.1-0.4-0.2-0.8c-0.1-0.3-0.2-0.8-0.3-1.3h-0.1c0,0.6,0.1,1.2,0.1,1.9
					s0,1.3,0,2v10.6h-2.7V5.6h4.1l4.4,11.2c0.2,0.4,0.3,0.8,0.4,1.2c0.1,0.4,0.2,0.7,0.3,1H55c0.1-0.5,0.3-0.9,0.4-1.3
					c0.1-0.4,0.2-0.7,0.3-1l4.5-11.1h4V22.9z"/>
				<path class="st3" d="M79.1,17.3h-8.6c0.1,1.2,0.4,2.1,1,2.7s1.5,0.9,2.7,0.9c0.5,0,1-0.1,1.6-0.3s1.2-0.5,1.8-0.9l1.3,1.8
					c-0.8,0.6-1.6,1-2.4,1.2c-0.8,0.3-1.7,0.4-2.7,0.4c-2,0-3.5-0.6-4.6-1.7c-1.1-1.1-1.6-2.7-1.7-4.8c0-2,0.6-3.7,1.7-4.9
					c1.1-1.2,2.6-1.9,4.4-1.9c1.7,0,3,0.5,4,1.6c1,1.1,1.5,2.6,1.5,4.5V17.3z M76.4,15.3c0-1.1-0.2-1.9-0.7-2.5
					c-0.5-0.6-1.1-0.8-2-0.8c-0.8,0-1.5,0.3-2.1,0.9s-0.9,1.4-1,2.4H76.4z"/>
				<path class="st3" d="M93.1,22.9h-2.9v-2h-0.1c-0.4,0.8-1,1.3-1.6,1.7s-1.4,0.6-2.3,0.6c-1.5,0-2.6-0.4-3.3-1.3
					c-0.7-0.9-1.1-2.2-1.1-4v-7.6h2.9v7.3c0,1.1,0.2,2,0.7,2.6c0.4,0.6,1.1,0.9,2,0.9c0.9,0,1.6-0.3,2.1-0.9
					c0.5-0.6,0.8-1.4,0.8-2.5v-7.3h2.9V22.9z"/>
				<path class="st3" d="M109.3,23.2c-2,0-3.6-0.6-4.7-1.8c-1.2-1.2-1.7-2.8-1.7-4.8c0-2.1,0.6-3.8,1.8-4.9c1.2-1.2,2.8-1.8,4.9-1.8
					c2,0,3.5,0.6,4.6,1.7s1.7,2.8,1.7,4.8c0,2.1-0.6,3.7-1.8,4.9C112.9,22.6,111.3,23.2,109.3,23.2z M109.5,20.9
					c1.1,0,2-0.4,2.6-1.1c0.6-0.8,0.9-1.8,0.9-3.3c0-1.4-0.3-2.5-0.9-3.2c-0.6-0.7-1.5-1.1-2.6-1.1c-1.1,0-2,0.4-2.7,1.2
					c-0.6,0.8-1,1.9-1,3.2c0,1.4,0.3,2.4,1,3.2C107.4,20.5,108.3,20.9,109.5,20.9z"/>
				<path class="st3" d="M121.9,21.3L121.9,21.3l0,1.6H119V4.6h2.9v7.7h0c0.5-0.8,1.1-1.4,1.8-1.8c0.7-0.4,1.5-0.6,2.5-0.6
					c1.6,0,2.9,0.6,3.8,1.7c0.9,1.1,1.4,2.6,1.4,4.6c0,2.1-0.5,3.8-1.6,5.1c-1,1.3-2.4,1.9-4.2,1.9c-0.8,0-1.5-0.2-2.1-0.5
					C122.8,22.4,122.3,21.9,121.9,21.3z M121.8,16v1.5c0,1,0.3,1.8,0.9,2.4c0.6,0.6,1.3,1,2.2,1c1.1,0,1.9-0.4,2.5-1.2
					c0.6-0.8,0.9-2,0.9-3.5c0-1.2-0.3-2.2-0.8-2.9c-0.6-0.7-1.3-1.1-2.3-1.1c-1,0-1.8,0.4-2.5,1.1C122.1,14,121.8,14.9,121.8,16z"/>
				<path class="st3" d="M137.2,23.6c0,1.7-0.4,3-1.2,3.8c-0.8,0.9-1.9,1.3-3.4,1.3c-0.4,0-0.8,0-1.1-0.1c-0.4-0.1-0.7-0.1-1-0.3
					l0.6-2.2c0.2,0.1,0.4,0.1,0.6,0.2s0.4,0.1,0.7,0.1c0.7,0,1.2-0.2,1.5-0.6c0.3-0.4,0.5-1.1,0.5-2V10.2h2.9V23.6z M135.8,8
					c-0.5,0-1-0.2-1.3-0.5c-0.3-0.3-0.5-0.7-0.5-1.2c0-0.5,0.2-0.9,0.5-1.2c0.3-0.3,0.8-0.5,1.3-0.5c0.5,0,0.9,0.2,1.3,0.5
					c0.3,0.3,0.5,0.7,0.5,1.2c0,0.5-0.2,0.9-0.5,1.2C136.8,7.8,136.3,8,135.8,8z"/>
				<path class="st3" d="M152,17.3h-8.6c0.1,1.2,0.4,2.1,1,2.7s1.5,0.9,2.7,0.9c0.5,0,1-0.1,1.6-0.3s1.2-0.5,1.8-0.9l1.3,1.8
					c-0.8,0.6-1.6,1-2.4,1.2c-0.8,0.3-1.7,0.4-2.7,0.4c-2,0-3.5-0.6-4.6-1.7c-1.1-1.1-1.6-2.7-1.7-4.8c0-2,0.6-3.7,1.7-4.9
					c1.1-1.2,2.6-1.9,4.4-1.9c1.7,0,3,0.5,4,1.6c1,1.1,1.5,2.6,1.5,4.5V17.3z M149.2,15.3c0-1.1-0.2-1.9-0.7-2.5
					c-0.5-0.6-1.1-0.8-2-0.8c-0.8,0-1.5,0.3-2.1,0.9s-0.9,1.4-1,2.4H149.2z"/>
				<path class="st3" d="M161.8,22.7c-0.4,0.2-0.7,0.3-1.1,0.3c-0.4,0.1-0.8,0.1-1.3,0.1c-1.2,0-2.1-0.3-2.7-0.9s-0.9-1.5-0.9-2.8
					v-7h-2.1v-2.2h2.1V7.4l2.9-0.9v3.7h3v2.2h-3v6.7c0,0.6,0.1,1.1,0.3,1.4c0.2,0.3,0.6,0.4,1.1,0.4c0.2,0,0.5,0,0.7-0.1
					c0.2-0.1,0.4-0.1,0.6-0.2L161.8,22.7z"/>
				<path class="st3" d="M165.7,8c-0.5,0-1-0.2-1.3-0.5c-0.3-0.3-0.5-0.7-0.5-1.2c0-0.5,0.2-0.9,0.5-1.2c0.3-0.3,0.8-0.5,1.3-0.5
					s1,0.2,1.3,0.5c0.3,0.3,0.5,0.7,0.5,1.2c0,0.5-0.2,0.9-0.5,1.2C166.6,7.8,166.2,8,165.7,8z M167.1,22.9h-2.9V10.2h2.9V22.9z"/>
				<path class="st3" d="M182.1,10.2l-4.9,12.6h-3.1l-4.7-12.6h3.1l2.8,8.6c0.1,0.4,0.2,0.7,0.3,1.1c0.1,0.3,0.1,0.6,0.2,0.9h0
					c0-0.3,0.1-0.6,0.2-0.9s0.2-0.6,0.3-1l2.9-8.6H182.1z"/>
				<path class="st3" d="M189.8,23.2c-2,0-3.6-0.6-4.7-1.8c-1.2-1.2-1.7-2.8-1.7-4.8c0-2.1,0.6-3.8,1.8-4.9c1.2-1.2,2.8-1.8,4.9-1.8
					c2,0,3.5,0.6,4.6,1.7s1.7,2.8,1.7,4.8c0,2.1-0.6,3.7-1.8,4.9C193.4,22.6,191.8,23.2,189.8,23.2z M190,20.9c1.1,0,2-0.4,2.6-1.1
					c0.6-0.8,0.9-1.8,0.9-3.3c0-1.4-0.3-2.5-0.9-3.2c-0.6-0.7-1.5-1.1-2.6-1.1c-1.1,0-2,0.4-2.7,1.2c-0.6,0.8-1,1.9-1,3.2
					c0,1.4,0.3,2.4,1,3.2C187.9,20.5,188.8,20.9,190,20.9z"/>
			</g>
		</g>
	</g>
</g>
<g>
	<g>
		<g>
			<linearGradient id="SVGID_1_" gradientUnits="userSpaceOnUse" x1="15.18" y1="5.4999" x2="15.18" y2="28.2462">
				<stop  offset="0" style="stop-color:#EF796D"/>
				<stop  offset="0.8603" style="stop-color:#D54036"/>
			</linearGradient>
			<path class="st4" d="M18,27.9c-0.6,0.2-1.3,0.2-1.9,0.3c-0.1,0-0.1,0-0.2,0h-1.4c-0.1,0-0.1,0-0.2,0c-2-0.1-3.8-0.8-5.4-1.9
				C6.3,24.5,4.6,22,4,18.8c-0.1-0.4-0.1-0.9-0.2-1.3v-1.4c0.1-0.4,0.1-0.9,0.2-1.3c0.6-3.2,2.3-5.7,4.9-7.5c2-1.4,4.3-2,6.7-1.9
				c1.4,0,2.8,0.4,4,0.9c0,0,0.1,0,0.1,0.1C19.5,7,19.5,7.4,19.5,8c0,0.4,0,0.8,0,1.2c0,0.3-0.1,0.5-0.3,0.7c-0.1,0-0.1,0.1-0.1,0.2
				c-3.9-2.1-8.2-0.7-10.3,2.4c-2.1,3.1-1.7,7.2,0.9,9.9c2.6,2.6,6.8,3,9.9,1c3.1-2.1,4.6-6.4,2.4-10.3c0.1-0.1,0.3-0.2,0.4-0.3
				c0.1,0,0.2-0.1,0.2-0.1c0.5,0,0.9,0,1.4,0c0.5,0,1,0,1.5-0.4c0.2,0.7,0.5,1.3,0.6,2C27.7,20.2,24,26.4,18,27.9z"/>
			
				<linearGradient id="SVGID_00000180356735124528336470000016685830355052065964_" gradientUnits="userSpaceOnUse" x1="15.2145" y1="10.4741" x2="15.2145" y2="23.2376">
				<stop  offset="0" style="stop-color:#EF796D"/>
				<stop  offset="0.8603" style="stop-color:#D54036"/>
			</linearGradient>
			<path style="fill:url(#SVGID_00000180356735124528336470000016685830355052065964_);" d="M19.2,21.8c-2.6,2.1-6.1,1.9-8.5-0.4
				c-2.2-2.1-2.6-5.7-0.8-8.2c1.9-2.7,5.3-3.5,8-2.1c0,0.1-0.1,0.1-0.1,0.2c-0.9,0.9-1.7,1.8-2.6,2.6c-0.1,0.1-0.2,0.1-0.3,0.2
				c-1.3,0.2-2.4,1.4-2.4,2.7c0,1.4,1,2.7,2.4,2.8c1.6,0.2,3-0.8,3.3-2.5c0-0.1,0-0.2,0.1-0.2c0.9-0.9,1.8-1.8,2.8-2.8
				c0,0,0,0,0.1-0.1C22.2,16.6,21.7,19.8,19.2,21.8z"/>
			
				<linearGradient id="SVGID_00000021800298281373526530000013356897861428734910_" gradientUnits="userSpaceOnUse" x1="21.264" y1="4.0319" x2="21.264" y2="17.5554">
				<stop  offset="0" style="stop-color:#EF796D"/>
				<stop  offset="0.8603" style="stop-color:#D54036"/>
			</linearGradient>
			<path style="fill:url(#SVGID_00000021800298281373526530000013356897861428734910_);" d="M27.9,8c-0.1,0.1-0.1,0.2-0.2,0.2
				c-0.9,0.9-1.8,1.7-2.7,2.6c-0.2,0.2-0.5,0.3-0.8,0.3c-0.7,0-1.5,0-2.2,0c-0.2,0-0.3,0-0.4,0.2c-2,2-4,4-5.9,5.9
				c-0.2,0.2-0.5,0.4-0.8,0.3c-0.5-0.2-0.6-0.7-0.4-1.1c0.1-0.1,0.1-0.2,0.2-0.2c1.9-1.9,3.9-3.9,5.8-5.8c0.1-0.1,0.2-0.3,0.2-0.5
				c0-0.7,0-1.4,0-2.2c0-0.3,0.1-0.5,0.3-0.7c0.9-0.9,1.8-1.8,2.7-2.7c0.2-0.2,0.5-0.4,0.9-0.2c0.3,0.1,0.4,0.4,0.4,0.8
				c0,0.7,0,1.4,0,2.1c0.7,0,1.4,0,2.1,0c0.2,0,0.5,0.1,0.6,0.3C28.1,7.4,28.1,7.8,27.9,8z"/>
		</g>
	</g>
	<polygon class="st7" points="23.8,4.6 21.3,7.2 24.2,4.5 	"/>
	<path class="st7" d="M19.5,6.5c-1-0.3-2.6-0.6-4.5-0.5c-1.2,0.1-4.3,0.3-7,2.7c-0.5,0.4-3.1,2.7-3.8,6.4c-0.5,2.9,0.4,5.3,0.4,5.3
		c0,0-1-2.4-0.5-5.5c0.6-3.7,3-6,3.5-6.4c3.3-3,7.2-2.9,8.1-2.9C17.3,5.8,18.7,6.2,19.5,6.5z"/>
</g>
</svg>
