<svg width="116" height="33" viewBox="0 0 116 33" fill="none" xmlns="http://www.w3.org/2000/svg">
<g clip-path="url(#clip0_1_319)">
<path d="M111.759 33H4.24132C1.90859 33 0 31.0962 0 28.7692V4.23077C0 1.90385 1.90859 0 4.24132 0H111.759C114.091 0 116 1.90385 116 4.23077V28.7692C116 31.0962 114.091 33 111.759 33Z" fill="#1A1728"/>
<path d="M47.0786 18.8269V24.1154H44.5338V9.30769H48.9872C50.6837 9.30769 51.9561 9.73077 53.0164 10.5769C53.8647 11.4231 54.5009 12.4808 54.5009 13.9615C54.5009 15.4423 54.0768 16.5 53.0164 17.5577C51.9561 18.4038 50.6837 18.8269 48.9872 18.8269H47.0786ZM47.0786 11.4231V16.9231H48.7751C49.8355 16.9231 50.6837 16.7115 51.1079 16.2885C51.7441 15.8654 51.9561 15.0192 51.9561 14.1731C51.9561 12.4808 50.8958 11.6346 48.9872 11.6346H47.0786V11.4231Z" fill="#7850E9"/>
<path d="M67.861 24.3269H65.1042L63.8318 20.5192H57.8939L56.6215 24.3269H53.8647L59.3784 9.51923H62.1353L67.861 24.3269ZM63.1956 18.4038L61.0749 12.4808C61.0749 12.2692 60.8629 12.0577 60.8629 11.6346C60.8629 12.0577 60.6508 12.2692 60.6508 12.4808L58.5301 18.4038H63.1956Z" fill="#7850E9"/>
<path d="M77.8281 11.6346H73.5868V24.3269H71.042V11.6346H66.8007V9.51923H77.8281V11.6346Z" fill="#7850E9"/>
<path d="M89.4917 23.6923C88.4314 24.3269 86.947 24.5385 85.2504 24.5385C83.1298 24.5385 81.4332 23.9038 80.1608 22.4231C78.8885 21.1538 78.2523 19.25 78.2523 17.1346C78.2523 14.8077 78.8885 12.9038 80.3729 11.4231C81.8574 9.94231 83.766 9.30769 85.8866 9.30769C87.3711 9.30769 88.4314 9.51923 89.4917 9.94231V12.4808C88.4314 11.8462 87.3711 11.6346 86.0987 11.6346C84.4022 11.6346 83.1298 12.0577 82.2815 13.1154C81.2212 14.1731 80.797 15.4423 80.797 17.1346C80.797 18.8269 81.2212 20.0962 82.2815 20.9423C83.1298 22 84.4022 22.4231 85.8866 22.4231C87.3711 22.4231 88.4314 22 89.4917 21.3654V23.6923Z" fill="#7850E9"/>
<path d="M104.336 24.3269H101.792V17.9808H94.7934V24.3269H92.2486V9.51923H94.7934V15.6538H101.792V9.51923H104.336V24.3269Z" fill="#7850E9"/>
<path opacity="0.8" d="M23.3272 24.5385C27.5436 24.5385 30.9616 20.9395 30.9616 16.5C30.9616 12.0605 27.5436 8.46153 23.3272 8.46153C19.1109 8.46153 15.6929 12.0605 15.6929 16.5C15.6929 20.9395 19.1109 24.5385 23.3272 24.5385Z" fill="white"/>
<path d="M28.6289 7.40384C27.1444 6.55769 25.66 6.13461 24.1755 6.13461C24.1755 6.13461 24.1755 6.13461 23.9634 6.13461H22.691C22.2669 6.13461 21.8428 6.13461 21.6307 6.34615C19.0859 6.55769 17.1773 7.82692 15.4808 9.51923C13.9963 11.2115 13.1481 13.1154 12.7239 15.2308C12.7239 15.4423 12.7239 15.6538 12.7239 16.0769V17.3462C12.7239 17.7692 12.7239 18.1923 12.936 18.6154C13.3601 21.1538 14.6325 23.0577 16.3291 24.75C18.0256 26.2308 19.7221 27.0769 22.0548 27.2885C25.4479 27.7115 28.2047 26.8654 30.7495 24.5385C32.6581 22.8462 33.7185 20.7308 34.1426 18.1923C34.5667 13.9615 32.4461 9.51923 28.6289 7.40384ZM29.2651 18.4038C28.6289 21.1538 25.872 23.2692 22.9031 22.8462C21.8428 22.8462 20.9945 22.4231 20.1462 21.7885C19.9342 22.4231 19.51 22.6346 18.8738 22.4231C18.4497 22.2115 18.2376 22 18.2376 21.5769C18.2376 20.9423 18.2376 20.0962 18.2376 19.4615C18.2376 19.0385 18.6618 18.6154 19.0859 18.6154C19.7221 18.6154 20.5704 18.6154 21.2066 18.6154C21.6307 18.6154 21.8428 18.8269 22.0548 19.25C22.0548 19.6731 22.0548 20.0962 21.6307 20.3077C22.0548 20.5192 22.479 20.7308 22.9031 20.9423C25.0238 21.3654 27.1444 19.8846 27.5685 17.7692C27.5685 17.5577 27.5685 17.3462 27.5685 17.1346C27.5685 16.5 27.9927 16.2885 28.4168 16.2885C29.053 16.2885 29.2651 16.7115 29.2651 17.1346C29.4771 17.3462 29.4771 17.7692 29.2651 18.4038ZM17.1773 16.5C17.1773 15.4423 17.3894 14.5962 18.0256 13.5385C18.8738 11.8462 20.3583 11 22.2669 10.7885C23.9634 10.5769 25.4479 10.7885 26.7203 11.8462C26.9323 11.4231 27.1444 11.2115 27.7806 11.2115C28.2047 11.2115 28.6289 11.6346 28.6289 12.0577C28.6289 12.6923 28.6289 13.5385 28.6289 14.1731C28.6289 14.5962 28.2047 14.8077 27.7806 15.0192C27.1444 15.0192 26.2961 15.0192 25.66 15.0192C25.2358 15.0192 24.8117 14.8077 24.8117 14.3846C24.8117 13.9615 24.8117 13.5385 25.2358 13.3269C24.8117 12.9038 24.1755 12.6923 23.5393 12.6923C21.2066 12.2692 19.298 13.9615 19.0859 16.2885C19.0859 16.7115 18.8738 16.9231 18.6618 17.1346C18.4497 17.3462 18.0256 17.1346 17.6015 17.1346C17.3894 16.9231 17.1773 16.7115 17.1773 16.5Z" fill="url(#paint0_linear_1_319)"/>
</g>
<defs>
<linearGradient id="paint0_linear_1_319" x1="28.7173" y1="25.9898" x2="18.0522" y2="7.47117" gradientUnits="userSpaceOnUse">
<stop stop-color="#6747DD"/>
<stop offset="1" stop-color="#8169F7"/>
</linearGradient>
<clipPath id="clip0_1_319">
<rect width="116" height="33" fill="white"/>
</clipPath>
</defs>
</svg>
