<svg width="94" height="33" viewBox="0 0 94 33" fill="none" xmlns="http://www.w3.org/2000/svg">
<path d="M89.5339 33H4.25339C1.91403 33 0 31.0962 0 28.7692V4.23077C0 1.90385 1.91403 0 4.25339 0H89.7466C92.086 0 94 1.90385 94 4.23077V28.7692C93.7873 31.0962 91.8733 33 89.5339 33Z" fill="#31271C"/>
<path d="M47.2127 18.8269V24.1154H44.6606V9.30768H49.1267C50.8281 9.30768 52.1041 9.73075 53.1674 10.5769C54.0181 11.4231 54.6561 12.4808 54.6561 13.9615C54.6561 15.4423 54.2308 16.5 53.1674 17.5577C52.1041 18.4038 50.8281 18.8269 49.1267 18.8269H47.2127ZM47.2127 11.4231V16.9231H48.914C49.9774 16.9231 50.8281 16.7115 51.2534 16.2884C51.8914 15.8654 52.1041 15.0192 52.1041 14.1731C52.1041 12.4808 51.0407 11.6346 49.1267 11.6346H47.2127V11.4231Z" fill="#FE9E2D"/>
<path d="M68.6923 18.1923C68.6923 22.4231 66.7783 24.3269 62.7376 24.3269C58.9095 24.3269 56.9955 22.4231 56.9955 18.4038V9.51923H59.5475V17.9808C59.5475 20.9423 60.6109 22.4231 62.9502 22.4231C65.0769 22.4231 66.1403 20.9423 66.1403 18.1923V9.51923H68.6923V18.1923Z" fill="#FE9E2D"/>
<path d="M81.8779 11.6346H77.6245V24.3269H75.0724V11.6346H70.819V9.51923H81.8779V11.6346Z" fill="#FE9E2D"/>
<path opacity="0.8" d="M23.181 26.0192C28.1141 26.0192 32.1132 22.0415 32.1132 17.1346C32.1132 12.2278 28.1141 8.25 23.181 8.25C18.248 8.25 14.2489 12.2278 14.2489 17.1346C14.2489 22.0415 18.248 26.0192 23.181 26.0192Z" fill="white"/>
<path d="M31.2625 9.51922C29.5611 7.61537 27.6471 6.55768 25.095 6.1346C24.6697 6.1346 24.457 6.1346 24.0317 5.92307H22.7557C22.3303 5.92307 21.905 5.92307 21.6923 6.1346C19.1403 6.55768 17.0136 7.82691 15.5249 9.51922C13.8235 11.4231 12.9729 13.3269 12.7602 15.6538C12.7602 15.8654 12.7602 15.8654 12.7602 16.0769V17.3461C12.7602 17.7692 12.7602 18.1923 12.7602 18.6154C13.1855 21.1538 14.4616 23.0577 16.1629 24.75C17.8643 26.2308 19.5656 27.0769 21.6923 27.2884C25.095 27.7115 28.0724 26.8654 30.4118 24.5384C32.3258 22.8461 33.3892 20.9423 33.6018 18.4038C34.4525 15.0192 33.6018 12.0577 31.2625 9.51922ZM18.0769 20.0961C18.0769 20.0961 18.0769 19.8846 18.2896 19.8846C18.5023 19.6731 18.7149 19.4615 18.7149 19.4615C19.353 20.0961 19.991 20.7308 20.8416 21.5769C20.629 21.7884 20.4163 22 20.2036 22.2115C20.2036 22.2115 19.991 22.2115 19.991 22.4231C19.353 22.6346 18.7149 22.6346 18.2896 22.8461C17.8643 22.8461 17.6516 22.6346 17.8643 22.2115C17.8643 21.3654 17.8643 20.7308 18.0769 20.0961ZM19.5656 18.6154C21.267 16.9231 22.9683 15.2308 24.6697 13.5384C25.3077 14.1731 25.9457 14.8077 26.7964 15.6538C25.095 17.3461 23.3937 19.0384 21.6923 20.7308C21.0543 19.8846 20.2036 19.25 19.5656 18.6154ZM28.4977 13.75L27.4344 14.8077C26.7964 14.1731 26.1584 13.3269 25.3077 12.6923L25.9457 12.0577C26.3711 11.6346 26.3711 11.6346 26.7964 12.0577C27.2217 12.4808 27.6471 12.9038 28.0724 13.3269C28.7104 13.5385 28.7104 13.5384 28.4977 13.75Z" fill="url(#paint0_linear_1_320)"/>
<defs>
<linearGradient id="paint0_linear_1_320" x1="18.0701" y1="7.49437" x2="28.724" y2="26.0462" gradientUnits="userSpaceOnUse">
<stop stop-color="#FFA750"/>
<stop offset="1" stop-color="#EF8D2B"/>
</linearGradient>
</defs>
</svg>
