<?xml version="1.0" encoding="utf-8"?>
<!-- Generator: Adobe Illustrator 26.3.0, SVG Export Plug-In . SVG Version: 6.00 Build 0)  -->
<svg version="1.1" id="Camada_1" xmlns="http://www.w3.org/2000/svg" xmlns:xlink="http://www.w3.org/1999/xlink" x="0px" y="0px"
	 width="383.2px" height="148.9px" viewBox="0 0 383.2 148.9" style="enable-background:new 0 0 383.2 148.9;" xml:space="preserve"
	>
<style type="text/css">
	.st0{fill:#161B22;}
	.st1{opacity:0.12;}
	.st2{fill:#14251F;}
	.st3{fill:none;stroke:#228534;stroke-width:0.3;stroke-miterlimit:10;}
	.st4{fill:#228632;}
	.st5{fill:#7A828D;}
	.st6{fill:#14251F;stroke:#228534;stroke-width:0.3;stroke-miterlimit:10;}
	.st7{font-family:'MyriadPro-Regular';}
	.st8{font-size:8.486px;}
	.st9{fill:#292929;}
	.st10{fill:#E3B341;}
</style>
<g id="Camada_2_00000093139482852668715770000004103646696610550921_">
	<g>
		<g>
			<path class="st0" d="M375.4,12v132.4c0,2.5-1.5,4.5-3.3,4.5H3.3c-1.8,0-3.3-2-3.3-4.5V12c0-2.5,1.5-4.5,3.3-4.5h368.8
				c0.1,0,0.2,0,0.3,0c0.1,0,0.2,0,0.3,0.1c1,0.3,1.9,1.1,2.3,2.4c0.1,0.3,0.2,0.6,0.3,0.9C375.4,11.3,375.4,11.7,375.4,12z"/>
			<g class="st1">
				<path d="M373.8,116.2c-0.2-0.8-0.4-1.7-0.6-2.5c-9.3-35.4-18.5-70.8-27.7-106.2h-81.1c-1.7,0.4-3.4,0.9-5.1,1.3
					c-7.6,2-15.3,3.9-22.9,6c-11,3.1-17.5,14.8-14.5,26.3c7.8,30.2,15.7,60.4,23.6,90.5c2.1,7.9,7.7,14.1,14.7,17.2h39.7
					c0.1-0.1,0.2-0.2,0.2-0.3c0.8-0.9,1.3-1,2.4-0.6c0.8,0.3,1.6,0.6,2.4,0.9h18.5l-2.7-10.3l2.1-0.5c15.1-3.9,30.2-7.8,45.4-11.8
					c2.3-0.6,4-1.7,5-3.3C374.3,121.2,374.5,118.9,373.8,116.2z M278.1,88.2l-13.6,3.5l-3.7-14.1l13.6-3.5L278.1,88.2z M249.6,34.5
					l13.6-3.5l3.7,14.1l-13.6,3.5L249.6,34.5z M268.8,52.5l3.7,14.1l-13.6,3.6L255.2,56L268.8,52.5z M317,124l-3.7-14.1L272,120.7
					l3.6,13.9c-6.8,3.4-13,0.8-15.8-4.8c-2.9-5.9-0.2-12.8,5.8-15.2c0.7-0.3,1.5-0.5,2.2-0.7c27.6-7.2,55.2-14.3,82.8-21.5l2-0.5
					l5.6,21.4L317,124z"/>
			</g>
		</g>
		<g>
			<g>
				<g>
					<g>
						<g>
							<g>
								<path class="st2" d="M33.2,46.8H14.7c-2.8,0-5-2.2-5-5V23.3c0-2.8,2.2-5,5-5h18.5c2.8,0,5,2.2,5,5v18.5
									C38.2,44.6,36,46.8,33.2,46.8z"/>
								<path class="st3" d="M33.2,46.8H14.7c-2.8,0-5-2.2-5-5V23.3c0-2.8,2.2-5,5-5h18.5c2.8,0,5,2.2,5,5v18.5
									C38.2,44.6,36,46.8,33.2,46.8z"/>
							</g>
						</g>
					</g>
					<g>
						<g>
							<path class="st4" d="M30.9,24.8c-0.1-0.4-0.4-0.6-0.8-0.6h-8.2c-0.8,0-1.7,0-2.5,0c-1.2,0-2.2,1-2.2,2.3v9.9
								c0,1.2,0.8,2.3,1.9,2.6c0.4,0.1,0.7,0.1,1.1,0.2V41c0.1-0.1,0.1-0.1,0.2-0.1c0.7-0.4,1.3-0.9,2-1.3c0.1-0.1,0.2-0.1,0.3,0
								c0.7,0.5,1.3,0.9,2,1.4c0,0,0.1,0.1,0.2,0.1V39H30c0.5,0,0.8-0.3,0.8-0.9V25C30.9,24.9,30.9,24.9,30.9,24.8z M20.1,26.5h1.5
								v1.5h-1.5V26.5z M20.1,28.9h1.5v1.5h-1.5V28.9z M20.1,31.2h1.5v1.5h-1.5V31.2z M29.3,37.5h-4.6v-1.5h-4.6v1.5
								c-0.8,0.2-1.4-0.3-1.5-0.9c-0.1-0.7,0.3-1.3,1-1.4c0.1,0,0.2,0,0.2,0h9.5V37.5z"/>
						</g>
					</g>
				</g>
				<g>
					<g>
						<path class="st5" d="M53.9,37.7l5.1-14h3.7l5,14h-3.4l-0.9-2.9h-5.1l-0.9,2.9H53.9z M59,32.3h3.7l-1.5-4.9
							c-0.1-0.2-0.1-0.4-0.1-0.5s-0.1-0.3-0.1-0.5h-0.1c0,0.2-0.1,0.4-0.1,0.5s-0.1,0.3-0.1,0.5L59,32.3z"/>
						<path class="st5" d="M72.3,36.5L72.3,36.5l0,5.8h-3.1V27.7h3.1v1.5h0c0.4-0.6,0.8-1,1.4-1.3s1.2-0.4,1.8-0.4
							c1.3,0,2.3,0.4,3,1.3s1.1,2.1,1.1,3.6c0,1.7-0.4,3-1.2,4s-1.9,1.5-3.3,1.5c-0.6,0-1.1-0.1-1.6-0.4S72.6,37,72.3,36.5z
							 M72.2,32.4v0.8c0,0.7,0.2,1.3,0.5,1.7s0.8,0.7,1.4,0.7c0.7,0,1.2-0.3,1.6-0.8s0.6-1.3,0.6-2.3c0-0.9-0.2-1.5-0.5-2
							s-0.9-0.7-1.5-0.7c-0.6,0-1.1,0.2-1.5,0.7S72.2,31.6,72.2,32.4z"/>
						<path class="st5" d="M83.2,26.3c-0.5,0-1-0.2-1.3-0.5s-0.5-0.7-0.5-1.2c0-0.5,0.2-0.9,0.5-1.2s0.8-0.5,1.3-0.5
							c0.5,0,1,0.2,1.3,0.5s0.5,0.7,0.5,1.2c0,0.5-0.2,0.9-0.5,1.2S83.7,26.3,83.2,26.3z M84.7,37.7h-3.1v-10h3.1V37.7z"/>
						<path class="st5" d="M87.4,33.4v-2.2h5.3v2.2H87.4z"/>
						<path class="st5" d="M94.2,37.7l5.1-14h3.7l5,14h-3.4l-0.9-2.9h-5.1l-0.9,2.9H94.2z M99.2,32.3h3.7l-1.5-4.9
							c-0.1-0.2-0.1-0.4-0.1-0.5s-0.1-0.3-0.1-0.5H101c0,0.2-0.1,0.4-0.1,0.5s-0.1,0.3-0.1,0.5L99.2,32.3z"/>
						<path class="st5" d="M119.1,37.7H116v-5.6c0-0.8-0.1-1.4-0.4-1.7s-0.7-0.6-1.2-0.6c-0.5,0-1,0.2-1.3,0.6s-0.5,0.9-0.5,1.6v5.7
							h-3.1v-10h3.1v1.6h0c0.4-0.6,0.8-1.1,1.4-1.4s1.2-0.5,1.9-0.5c1.1,0,1.9,0.3,2.5,1s0.8,1.7,0.8,3.1V37.7z"/>
						<path class="st5" d="M123.1,26.3c-0.5,0-1-0.2-1.3-0.5s-0.5-0.7-0.5-1.2c0-0.5,0.2-0.9,0.5-1.2s0.8-0.5,1.3-0.5
							c0.5,0,1,0.2,1.3,0.5s0.5,0.7,0.5,1.2c0,0.5-0.2,0.9-0.5,1.2S123.6,26.3,123.1,26.3z M124.6,37.7h-3.1v-10h3.1V37.7z"/>
						<path class="st5" d="M143.1,37.7H140V32c0-0.7-0.1-1.3-0.4-1.6s-0.7-0.5-1.2-0.5c-0.5,0-0.9,0.2-1.2,0.7s-0.5,1-0.5,1.6v5.6
							h-3.1v-5.8c0-0.7-0.1-1.2-0.4-1.6s-0.7-0.5-1.2-0.5s-0.9,0.2-1.3,0.6s-0.5,1-0.5,1.7v5.6h-3.1v-10h3.1v1.6h0
							c0.3-0.5,0.8-1,1.3-1.3s1.2-0.5,1.9-0.5c0.7,0,1.3,0.2,1.8,0.5s0.9,0.8,1.1,1.4c0.4-0.6,0.9-1.1,1.4-1.4s1.2-0.5,1.9-0.5
							c1.1,0,1.9,0.3,2.4,1s0.8,1.7,0.8,3V37.7z"/>
						<path class="st5" d="M154.5,33.5H148c0.1,0.7,0.3,1.3,0.7,1.6s1,0.5,1.8,0.5c0.3,0,0.7-0.1,1.2-0.3s1-0.4,1.5-0.8l1.4,1.7
							c-0.7,0.5-1.4,0.9-2.1,1.2s-1.5,0.4-2.4,0.4c-1.6,0-2.9-0.4-3.8-1.3s-1.3-2.1-1.3-3.7c0-1.6,0.5-2.9,1.4-3.9s2.1-1.5,3.6-1.5
							c1.4,0,2.5,0.4,3.3,1.3s1.2,2.1,1.2,3.6V33.5z M151.6,31.7c0-0.8-0.1-1.3-0.4-1.7s-0.7-0.5-1.3-0.5c-0.5,0-0.9,0.2-1.3,0.6
							S148,31,148,31.7H151.6z"/>
						<path class="st5" d="M155.3,36.8l1.3-2.1c0.3,0.3,0.7,0.5,1.2,0.7s1,0.3,1.5,0.3c0.4,0,0.7-0.1,1-0.2s0.4-0.4,0.4-0.6
							c0-0.2-0.1-0.4-0.3-0.5s-0.6-0.3-1.1-0.4c-1.2-0.3-2.1-0.6-2.7-1.1s-0.8-1.2-0.8-2c0-1,0.4-1.8,1.2-2.4s1.8-0.9,3-0.9
							c0.6,0,1.2,0.1,1.7,0.2s1.1,0.4,1.5,0.7l-1.2,2c-0.4-0.3-0.8-0.4-1.1-0.6s-0.7-0.2-1.1-0.2c-0.4,0-0.7,0.1-1,0.2
							s-0.4,0.3-0.4,0.6c0,0.3,0.1,0.5,0.4,0.6s0.7,0.2,1.3,0.4c1.2,0.2,2,0.6,2.5,1.1c0.5,0.5,0.7,1.2,0.7,2c0,1-0.4,1.8-1.2,2.5
							s-1.8,0.9-3.1,0.9c-0.7,0-1.4-0.1-2-0.3S156,37.2,155.3,36.8z"/>
					</g>
				</g>
			</g>
			<g>
				<g>
					<g>
						<path class="st5" d="M16.9,68.3c0,1.2-0.3,2-0.8,2.6s-1.3,0.9-2.3,0.9c-1,0-1.8-0.3-2.3-0.8s-0.8-1.4-0.8-2.5v-5.2h0.9v5.1
							c0,0.9,0.2,1.5,0.6,2s0.9,0.7,1.7,0.7c0.7,0,1.2-0.2,1.6-0.6s0.5-1.1,0.5-1.9v-5.2h0.9V68.3z"/>
						<path class="st5" d="M27.6,71.6h-0.9V68c0-0.7-0.1-1.2-0.3-1.5s-0.6-0.5-1.1-0.5c-0.4,0-0.8,0.2-1.1,0.6s-0.5,0.9-0.5,1.4v3.5
							h-0.9v-3.7c0-0.6-0.1-1.1-0.4-1.4s-0.6-0.5-1.1-0.5c-0.5,0-0.8,0.2-1.1,0.6s-0.4,0.9-0.4,1.5v3.5H19v-6.1h0.9v1h0
							c0.2-0.4,0.5-0.7,0.8-0.9s0.7-0.3,1.1-0.3c0.4,0,0.8,0.1,1.1,0.4s0.5,0.6,0.6,0.9c0.2-0.4,0.5-0.8,0.8-1s0.7-0.3,1.2-0.3
							c0.7,0,1.2,0.2,1.5,0.6s0.5,1,0.5,1.9V71.6z"/>
						<path class="st5" d="M33.9,71.6H33v-1h0c-0.2,0.4-0.5,0.7-0.8,0.9s-0.7,0.3-1.1,0.3c-0.6,0-1-0.2-1.4-0.5s-0.5-0.8-0.5-1.3
							c0-0.5,0.2-1,0.5-1.3s0.9-0.6,1.6-0.7l1.8-0.2v-0.2c0-0.5-0.1-0.9-0.4-1.2s-0.6-0.4-1-0.4c-0.3,0-0.7,0.1-1,0.2
							s-0.6,0.3-0.9,0.6l-0.5-0.5c0.3-0.3,0.7-0.6,1.1-0.7s0.8-0.2,1.3-0.2c0.7,0,1.3,0.2,1.6,0.6s0.6,1,0.6,1.7V71.6z M33,69v-0.6
							l-1.5,0.2c-0.5,0.1-0.9,0.2-1.1,0.4S30,69.5,30,69.9c0,0.4,0.1,0.6,0.3,0.8s0.5,0.3,0.9,0.3c0.5,0,1-0.2,1.3-0.6
							S33,69.6,33,69z"/>
						<path class="st5" d="M41.9,63.4c-0.1,0-0.2-0.1-0.3-0.1s-0.2,0-0.3,0c-0.3,0-0.6,0.1-0.8,0.3s-0.2,0.5-0.2,0.8v1h1.5v0.7h-1.5
							v5.4h-0.9v-5.4h-1v-0.7h1v-1c0-0.6,0.2-1,0.5-1.3s0.8-0.5,1.4-0.5c0.1,0,0.3,0,0.4,0s0.2,0,0.4,0.1L41.9,63.4z"/>
						<path class="st5" d="M47.8,68.7h-4.4c0,0.8,0.2,1.3,0.6,1.7s0.9,0.6,1.5,0.6c0.3,0,0.6,0,0.9-0.1s0.6-0.2,0.9-0.4l0.4,0.6
							c-0.3,0.2-0.7,0.4-1.1,0.5s-0.7,0.2-1.2,0.2c-0.9,0-1.6-0.3-2.1-0.8s-0.8-1.3-0.8-2.4c0-1,0.3-1.8,0.8-2.4s1.2-0.9,2-0.9
							c0.8,0,1.4,0.3,1.8,0.8s0.7,1.3,0.7,2.2V68.7z M46.9,68c0-0.6-0.2-1.1-0.4-1.4s-0.7-0.5-1.2-0.5c-0.5,0-0.9,0.2-1.3,0.5
							s-0.5,0.8-0.6,1.4H46.9z"/>
						<path class="st5" d="M52.3,66.2c-0.1,0-0.2,0-0.2-0.1s-0.2,0-0.3,0c-0.5,0-0.9,0.2-1.2,0.7s-0.4,1-0.4,1.7v3h-0.9v-6.1h0.9
							v1.3h0c0.1-0.4,0.4-0.8,0.7-1s0.6-0.4,1-0.4c0.1,0,0.2,0,0.3,0s0.2,0,0.3,0.1L52.3,66.2z"/>
						<path class="st5" d="M56.7,66.2c-0.1,0-0.2,0-0.2-0.1s-0.2,0-0.3,0c-0.5,0-0.9,0.2-1.2,0.7s-0.4,1-0.4,1.7v3h-0.9v-6.1h0.9
							v1.3h0c0.1-0.4,0.4-0.8,0.7-1s0.6-0.4,1-0.4c0.1,0,0.2,0,0.3,0s0.2,0,0.3,0.1L56.7,66.2z"/>
						<path class="st5" d="M62.3,71.6h-0.9v-1h0c-0.2,0.4-0.5,0.7-0.8,0.9s-0.7,0.3-1.1,0.3c-0.6,0-1-0.2-1.4-0.5s-0.5-0.8-0.5-1.3
							c0-0.5,0.2-1,0.5-1.3s0.9-0.6,1.6-0.7l1.8-0.2v-0.2c0-0.5-0.1-0.9-0.4-1.2s-0.6-0.4-1-0.4c-0.3,0-0.7,0.1-1,0.2
							s-0.6,0.3-0.9,0.6l-0.5-0.5c0.3-0.3,0.7-0.6,1.1-0.7s0.8-0.2,1.3-0.2c0.7,0,1.3,0.2,1.6,0.6s0.6,1,0.6,1.7V71.6z M61.5,69
							v-0.6l-1.5,0.2c-0.5,0.1-0.9,0.2-1.1,0.4s-0.4,0.5-0.4,0.8c0,0.4,0.1,0.6,0.3,0.8s0.5,0.3,0.9,0.3c0.5,0,1-0.2,1.3-0.6
							S61.5,69.6,61.5,69z"/>
						<path class="st5" d="M72.9,71.6H72V68c0-0.7-0.1-1.2-0.3-1.5s-0.6-0.5-1.1-0.5c-0.4,0-0.8,0.2-1.1,0.6S69,67.5,69,68.1v3.5
							h-0.9v-3.7c0-0.6-0.1-1.1-0.4-1.4s-0.6-0.5-1.1-0.5c-0.5,0-0.8,0.2-1.1,0.6s-0.4,0.9-0.4,1.5v3.5h-0.9v-6.1h0.9v1h0
							c0.2-0.4,0.5-0.7,0.8-0.9s0.7-0.3,1.1-0.3c0.4,0,0.8,0.1,1.1,0.4s0.5,0.6,0.6,0.9c0.2-0.4,0.5-0.8,0.8-1s0.7-0.3,1.2-0.3
							c0.7,0,1.2,0.2,1.5,0.6s0.5,1,0.5,1.9V71.6z"/>
						<path class="st5" d="M79.7,68.7h-4.4c0,0.8,0.2,1.3,0.6,1.7s0.9,0.6,1.5,0.6c0.3,0,0.6,0,0.9-0.1s0.6-0.2,0.9-0.4l0.4,0.6
							c-0.3,0.2-0.7,0.4-1.1,0.5s-0.7,0.2-1.2,0.2c-0.9,0-1.6-0.3-2.1-0.8s-0.8-1.3-0.8-2.4c0-1,0.3-1.8,0.8-2.4s1.2-0.9,2-0.9
							c0.8,0,1.4,0.3,1.8,0.8s0.7,1.3,0.7,2.2V68.7z M78.8,68c0-0.6-0.2-1.1-0.4-1.4s-0.7-0.5-1.2-0.5c-0.5,0-0.9,0.2-1.3,0.5
							s-0.5,0.8-0.6,1.4H78.8z"/>
						<path class="st5" d="M86.3,71.6h-0.9v-3.5c0-0.7-0.1-1.2-0.4-1.5s-0.6-0.5-1.1-0.5c-0.5,0-0.9,0.2-1.3,0.6s-0.5,0.9-0.5,1.5
							v3.5h-0.9v-6.1h0.9v1h0c0.2-0.4,0.5-0.7,0.8-0.9s0.7-0.3,1.2-0.3c0.7,0,1.2,0.2,1.5,0.7s0.5,1.1,0.5,1.9V71.6z"/>
						<path class="st5" d="M91,71.5c-0.2,0.1-0.3,0.1-0.5,0.2s-0.3,0.1-0.5,0.1c-0.5,0-0.8-0.1-1.1-0.4s-0.4-0.7-0.4-1.2v-3.9h-1.1
							v-0.7h1.1V64l0.9-0.3v1.7h1.6v0.7h-1.6V70c0,0.4,0.1,0.6,0.2,0.8s0.3,0.2,0.6,0.2c0.1,0,0.2,0,0.4,0s0.2-0.1,0.3-0.1L91,71.5z
							"/>
						<path class="st5" d="M96.7,71.6h-0.9v-1h0c-0.2,0.4-0.5,0.7-0.8,0.9s-0.7,0.3-1.1,0.3c-0.6,0-1-0.2-1.4-0.5s-0.5-0.8-0.5-1.3
							c0-0.5,0.2-1,0.5-1.3s0.9-0.6,1.6-0.7l1.8-0.2v-0.2c0-0.5-0.1-0.9-0.4-1.2s-0.6-0.4-1-0.4c-0.3,0-0.7,0.1-1,0.2
							s-0.6,0.3-0.9,0.6l-0.5-0.5c0.3-0.3,0.7-0.6,1.1-0.7s0.8-0.2,1.3-0.2c0.7,0,1.3,0.2,1.6,0.6s0.6,1,0.6,1.7V71.6z M95.8,69
							v-0.6l-1.5,0.2c-0.5,0.1-0.9,0.2-1.1,0.4s-0.4,0.5-0.4,0.8c0,0.4,0.1,0.6,0.3,0.8S93.6,71,94,71c0.5,0,1-0.2,1.3-0.6
							S95.8,69.6,95.8,69z"/>
						<path class="st5" d="M107.2,74.4h-0.9v-3.8h0c-0.2,0.4-0.5,0.7-0.9,0.9s-0.8,0.3-1.3,0.3c-0.8,0-1.4-0.3-1.9-0.8
							s-0.7-1.3-0.7-2.3c0-1,0.3-1.8,0.8-2.4s1.2-0.9,2.1-0.9c0.4,0,0.8,0.1,1.1,0.3s0.6,0.4,0.8,0.8h0v-0.9h0.9V74.4z M106.4,68.9
							V68c0-0.5-0.2-1-0.5-1.3s-0.8-0.5-1.3-0.5c-0.6,0-1.1,0.2-1.5,0.7s-0.6,1.1-0.6,1.9c0,0.7,0.2,1.3,0.5,1.7s0.8,0.6,1.3,0.6
							c0.6,0,1.1-0.2,1.4-0.6S106.4,69.5,106.4,68.9z"/>
						<path class="st5" d="M114,71.6h-0.9v-1h0c-0.2,0.4-0.5,0.7-0.8,0.9s-0.7,0.3-1.1,0.3c-0.7,0-1.3-0.2-1.6-0.7s-0.5-1.1-0.5-2
							v-3.6h0.9V69c0,0.7,0.1,1.2,0.4,1.6s0.6,0.5,1.2,0.5c0.5,0,0.9-0.2,1.2-0.6s0.5-0.9,0.5-1.5v-3.5h0.9V71.6z"/>
						<path class="st5" d="M120.9,68.7h-4.4c0,0.8,0.2,1.3,0.6,1.7s0.9,0.6,1.5,0.6c0.3,0,0.6,0,0.9-0.1s0.6-0.2,0.9-0.4l0.4,0.6
							c-0.3,0.2-0.7,0.4-1.1,0.5s-0.7,0.2-1.2,0.2c-0.9,0-1.6-0.3-2.1-0.8s-0.8-1.3-0.8-2.4c0-1,0.3-1.8,0.8-2.4s1.2-0.9,2-0.9
							c0.8,0,1.4,0.3,1.8,0.8s0.7,1.3,0.7,2.2V68.7z M120,68c0-0.6-0.2-1.1-0.4-1.4s-0.7-0.5-1.2-0.5c-0.5,0-0.9,0.2-1.3,0.5
							s-0.5,0.8-0.6,1.4H120z"/>
						<path class="st5" d="M125.2,71.2l0.4-0.7c0.2,0.2,0.5,0.3,0.7,0.4s0.5,0.1,0.8,0.1c0.4,0,0.8-0.1,1-0.3s0.3-0.4,0.3-0.8
							c0-0.3-0.1-0.5-0.3-0.7s-0.5-0.3-1-0.5c-0.7-0.2-1.2-0.4-1.5-0.7s-0.4-0.7-0.4-1.1c0-0.5,0.2-0.9,0.6-1.3s0.9-0.5,1.5-0.5
							c0.3,0,0.6,0,0.9,0.1s0.6,0.2,0.9,0.4l-0.4,0.7c-0.2-0.2-0.5-0.3-0.7-0.3s-0.5-0.1-0.7-0.1c-0.4,0-0.7,0.1-0.9,0.2
							s-0.3,0.4-0.3,0.7c0,0.3,0.1,0.5,0.3,0.6s0.5,0.3,1,0.4c0.6,0.2,1.1,0.4,1.4,0.7s0.5,0.7,0.5,1.2c0,0.6-0.2,1-0.6,1.3
							s-0.9,0.5-1.6,0.5c-0.4,0-0.7-0.1-1.1-0.2S125.5,71.4,125.2,71.2z"/>
						<path class="st5" d="M131.4,64.1c-0.2,0-0.3-0.1-0.5-0.2s-0.2-0.3-0.2-0.4c0-0.2,0.1-0.3,0.2-0.4s0.3-0.2,0.5-0.2
							c0.2,0,0.3,0.1,0.5,0.2s0.2,0.3,0.2,0.4c0,0.2-0.1,0.3-0.2,0.4S131.6,64.1,131.4,64.1z M131.8,71.6H131v-6.1h0.9V71.6z"/>
						<path class="st5" d="M142.6,71.6h-0.9V68c0-0.7-0.1-1.2-0.3-1.5s-0.6-0.5-1.1-0.5c-0.4,0-0.8,0.2-1.1,0.6s-0.5,0.9-0.5,1.4
							v3.5h-0.9v-3.7c0-0.6-0.1-1.1-0.4-1.4s-0.6-0.5-1.1-0.5c-0.5,0-0.8,0.2-1.1,0.6s-0.4,0.9-0.4,1.5v3.5H134v-6.1h0.9v1h0
							c0.2-0.4,0.5-0.7,0.8-0.9s0.7-0.3,1.1-0.3c0.4,0,0.8,0.1,1.1,0.4s0.5,0.6,0.6,0.9c0.2-0.4,0.5-0.8,0.8-1s0.7-0.3,1.2-0.3
							c0.7,0,1.2,0.2,1.5,0.6s0.5,1,0.5,1.9V71.6z"/>
						<path class="st5" d="M145.4,70.7L145.4,70.7l0,3.7h-0.9v-8.9h0.9v1.1h0c0.2-0.4,0.5-0.7,0.9-1s0.8-0.3,1.3-0.3
							c0.8,0,1.4,0.3,1.8,0.8s0.7,1.3,0.7,2.2c0,1-0.3,1.8-0.8,2.5s-1.2,0.9-2,0.9c-0.4,0-0.8-0.1-1.1-0.3S145.6,71,145.4,70.7z
							 M145.4,68.2v0.8c0,0.5,0.2,1,0.5,1.4s0.8,0.6,1.3,0.6c0.6,0,1.1-0.2,1.4-0.7s0.5-1.1,0.5-2c0-0.7-0.2-1.3-0.5-1.7
							s-0.8-0.6-1.3-0.6c-0.6,0-1.1,0.2-1.5,0.6S145.4,67.6,145.4,68.2z"/>
						<path class="st5" d="M151.7,71.6v-8.9h0.9v8.9H151.7z"/>
						<path class="st5" d="M155.1,64.1c-0.2,0-0.3-0.1-0.5-0.2s-0.2-0.3-0.2-0.4c0-0.2,0.1-0.3,0.2-0.4s0.3-0.2,0.5-0.2
							c0.2,0,0.3,0.1,0.5,0.2s0.2,0.3,0.2,0.4c0,0.2-0.1,0.3-0.2,0.4S155.2,64.1,155.1,64.1z M155.5,71.6h-0.9v-6.1h0.9V71.6z"/>
						<path class="st5" d="M160.4,63.4c-0.1,0-0.2-0.1-0.3-0.1s-0.2,0-0.3,0c-0.3,0-0.6,0.1-0.8,0.3s-0.2,0.5-0.2,0.8v1h1.5v0.7
							h-1.5v5.4H158v-5.4h-1v-0.7h1v-1c0-0.6,0.2-1,0.5-1.3s0.8-0.5,1.4-0.5c0.1,0,0.3,0,0.4,0s0.2,0,0.4,0.1L160.4,63.4z"/>
						<path class="st5" d="M161.9,64.1c-0.2,0-0.3-0.1-0.5-0.2s-0.2-0.3-0.2-0.4c0-0.2,0.1-0.3,0.2-0.4s0.3-0.2,0.5-0.2
							c0.2,0,0.3,0.1,0.5,0.2s0.2,0.3,0.2,0.4c0,0.2-0.1,0.3-0.2,0.4S162,64.1,161.9,64.1z M162.3,71.6h-0.9v-6.1h0.9V71.6z"/>
						<path class="st5" d="M168.7,71.2c-0.3,0.2-0.6,0.3-0.9,0.4s-0.6,0.1-0.9,0.1c-0.9,0-1.6-0.3-2.1-0.8s-0.8-1.3-0.8-2.3
							c0-1,0.3-1.8,0.8-2.4s1.3-0.9,2.3-0.9c0.3,0,0.6,0,0.8,0.1s0.5,0.2,0.8,0.3l-0.4,0.7c-0.2-0.1-0.4-0.2-0.7-0.3
							s-0.4-0.1-0.7-0.1c-0.7,0-1.2,0.2-1.6,0.7s-0.6,1.1-0.6,1.8c0,0.8,0.2,1.4,0.6,1.8s0.9,0.6,1.5,0.6c0.2,0,0.4,0,0.7-0.1
							s0.4-0.2,0.7-0.3L168.7,71.2z"/>
						<path class="st5" d="M174.5,71.6h-0.9v-1h0c-0.2,0.4-0.5,0.7-0.8,0.9s-0.7,0.3-1.1,0.3c-0.6,0-1-0.2-1.4-0.5s-0.5-0.8-0.5-1.3
							c0-0.5,0.2-1,0.5-1.3s0.9-0.6,1.6-0.7l1.8-0.2v-0.2c0-0.5-0.1-0.9-0.4-1.2s-0.6-0.4-1-0.4c-0.3,0-0.7,0.1-1,0.2
							s-0.6,0.3-0.9,0.6l-0.5-0.5c0.3-0.3,0.7-0.6,1.1-0.7s0.8-0.2,1.3-0.2c0.7,0,1.3,0.2,1.6,0.6s0.6,1,0.6,1.7V71.6z M173.6,69
							v-0.6l-1.5,0.2c-0.5,0.1-0.9,0.2-1.1,0.4s-0.4,0.5-0.4,0.8c0,0.4,0.1,0.6,0.3,0.8s0.5,0.3,0.9,0.3c0.5,0,1-0.2,1.3-0.6
							S173.6,69.6,173.6,69z"/>
						<path class="st5" d="M182.3,71.8c-0.9,0-1.6-0.3-2.2-0.9s-0.8-1.3-0.8-2.3c0-1,0.3-1.8,0.8-2.4s1.3-0.9,2.3-0.9
							c0.9,0,1.6,0.3,2.1,0.9s0.8,1.4,0.8,2.4c0,1-0.3,1.8-0.8,2.3S183.2,71.8,182.3,71.8z M182.3,71c0.7,0,1.2-0.2,1.5-0.6
							s0.5-1,0.5-1.8c0-0.8-0.2-1.4-0.5-1.8s-0.9-0.6-1.5-0.6c-0.7,0-1.2,0.2-1.6,0.7s-0.6,1.1-0.6,1.8c0,0.8,0.2,1.3,0.6,1.8
							S181.7,71,182.3,71z"/>
						<path class="st5" d="M195.4,71.2c0,1.1-0.3,1.9-0.8,2.4s-1.3,0.8-2.3,0.8c-0.4,0-0.8,0-1.1-0.1s-0.7-0.2-1.1-0.4l0.3-0.7
							c0.3,0.2,0.6,0.3,0.9,0.3s0.6,0.1,1,0.1c0.7,0,1.2-0.2,1.6-0.6s0.6-1,0.6-1.8v-0.8h0c-0.2,0.4-0.5,0.7-0.9,0.9
							s-0.8,0.3-1.3,0.3c-0.8,0-1.4-0.3-1.8-0.8s-0.7-1.3-0.7-2.2c0-1,0.3-1.8,0.8-2.4s1.2-0.9,2-0.9c0.4,0,0.8,0.1,1.1,0.3
							s0.6,0.4,0.8,0.8h0v-0.9h0.9V71.2z M194.5,68.9v-1c0-0.5-0.2-0.9-0.5-1.3s-0.8-0.5-1.3-0.5c-0.6,0-1.1,0.2-1.5,0.7
							s-0.5,1.1-0.5,1.9c0,0.8,0.2,1.4,0.5,1.8s0.8,0.6,1.4,0.6c0.6,0,1-0.2,1.4-0.6S194.5,69.5,194.5,68.9z"/>
						<path class="st5" d="M202.3,68.7h-4.4c0,0.8,0.2,1.3,0.6,1.7s0.9,0.6,1.5,0.6c0.3,0,0.6,0,0.9-0.1s0.6-0.2,0.9-0.4l0.4,0.6
							c-0.3,0.2-0.7,0.4-1.1,0.5s-0.7,0.2-1.2,0.2c-0.9,0-1.6-0.3-2.1-0.8s-0.8-1.3-0.8-2.4c0-1,0.3-1.8,0.8-2.4s1.2-0.9,2-0.9
							c0.8,0,1.4,0.3,1.8,0.8s0.7,1.3,0.7,2.2V68.7z M201.4,68c0-0.6-0.2-1.1-0.4-1.4s-0.7-0.5-1.2-0.5c-0.5,0-0.9,0.2-1.3,0.5
							s-0.5,0.8-0.6,1.4H201.4z"/>
						<path class="st5" d="M206.9,66.2c-0.1,0-0.2,0-0.2-0.1s-0.2,0-0.3,0c-0.5,0-0.9,0.2-1.2,0.7s-0.4,1-0.4,1.7v3h-0.9v-6.1h0.9
							v1.3h0c0.1-0.4,0.4-0.8,0.7-1s0.6-0.4,1-0.4c0.1,0,0.2,0,0.3,0s0.2,0,0.3,0.1L206.9,66.2z"/>
						<path class="st5" d="M213.1,68.7h-4.4c0,0.8,0.2,1.3,0.6,1.7s0.9,0.6,1.5,0.6c0.3,0,0.6,0,0.9-0.1s0.6-0.2,0.9-0.4l0.4,0.6
							c-0.3,0.2-0.7,0.4-1.1,0.5s-0.7,0.2-1.2,0.2c-0.9,0-1.6-0.3-2.1-0.8s-0.8-1.3-0.8-2.4c0-1,0.3-1.8,0.8-2.4s1.2-0.9,2-0.9
							c0.8,0,1.4,0.3,1.8,0.8s0.7,1.3,0.7,2.2V68.7z M212.2,68c0-0.6-0.2-1.1-0.4-1.4s-0.7-0.5-1.2-0.5c-0.5,0-0.9,0.2-1.3,0.5
							s-0.5,0.8-0.6,1.4H212.2z"/>
						<path class="st5" d="M219.7,71.6h-0.9v-3.5c0-0.7-0.1-1.2-0.4-1.5s-0.6-0.5-1.1-0.5c-0.5,0-0.9,0.2-1.3,0.6s-0.5,0.9-0.5,1.5
							v3.5h-0.9v-6.1h0.9v1h0c0.2-0.4,0.5-0.7,0.8-0.9s0.7-0.3,1.2-0.3c0.7,0,1.2,0.2,1.5,0.7s0.5,1.1,0.5,1.9V71.6z"/>
						<path class="st5" d="M225.9,71.2c-0.3,0.2-0.6,0.3-0.9,0.4s-0.6,0.1-0.9,0.1c-0.9,0-1.6-0.3-2.1-0.8s-0.8-1.3-0.8-2.3
							c0-1,0.3-1.8,0.8-2.4s1.3-0.9,2.3-0.9c0.3,0,0.6,0,0.8,0.1s0.5,0.2,0.8,0.3l-0.4,0.7c-0.2-0.1-0.4-0.2-0.7-0.3
							s-0.4-0.1-0.7-0.1c-0.7,0-1.2,0.2-1.6,0.7s-0.6,1.1-0.6,1.8c0,0.8,0.2,1.4,0.6,1.8s0.9,0.6,1.5,0.6c0.2,0,0.4,0,0.7-0.1
							s0.4-0.2,0.7-0.3L225.9,71.2z"/>
						<path class="st5" d="M227.8,64.1c-0.2,0-0.3-0.1-0.5-0.2s-0.2-0.3-0.2-0.4c0-0.2,0.1-0.3,0.2-0.4s0.3-0.2,0.5-0.2
							c0.2,0,0.3,0.1,0.5,0.2s0.2,0.3,0.2,0.4c0,0.2-0.1,0.3-0.2,0.4S228,64.1,227.8,64.1z M228.2,71.6h-0.9v-6.1h0.9V71.6z"/>
						<path class="st5" d="M234.7,71.6h-0.9v-1h0c-0.2,0.4-0.5,0.7-0.8,0.9s-0.7,0.3-1.1,0.3c-0.6,0-1-0.2-1.4-0.5s-0.5-0.8-0.5-1.3
							c0-0.5,0.2-1,0.5-1.3s0.9-0.6,1.6-0.7l1.8-0.2v-0.2c0-0.5-0.1-0.9-0.4-1.2s-0.6-0.4-1-0.4c-0.3,0-0.7,0.1-1,0.2
							s-0.6,0.3-0.9,0.6l-0.5-0.5c0.3-0.3,0.7-0.6,1.1-0.7s0.8-0.2,1.3-0.2c0.7,0,1.3,0.2,1.6,0.6s0.6,1,0.6,1.7V71.6z M233.8,69
							v-0.6l-1.5,0.2c-0.5,0.1-0.9,0.2-1.1,0.4s-0.4,0.5-0.4,0.8c0,0.4,0.1,0.6,0.3,0.8s0.5,0.3,0.9,0.3c0.5,0,1-0.2,1.3-0.6
							S233.8,69.6,233.8,69z"/>
						<path class="st5" d="M245.2,71.6h-0.9V68c0-0.7-0.1-1.2-0.3-1.5s-0.6-0.5-1.1-0.5c-0.4,0-0.8,0.2-1.1,0.6s-0.5,0.9-0.5,1.4
							v3.5h-0.9v-3.7c0-0.6-0.1-1.1-0.4-1.4s-0.6-0.5-1.1-0.5c-0.5,0-0.8,0.2-1.1,0.6s-0.4,0.9-0.4,1.5v3.5h-0.9v-6.1h0.9v1h0
							c0.2-0.4,0.5-0.7,0.8-0.9s0.7-0.3,1.1-0.3c0.4,0,0.8,0.1,1.1,0.4s0.5,0.6,0.6,0.9c0.2-0.4,0.5-0.8,0.8-1s0.7-0.3,1.2-0.3
							c0.7,0,1.2,0.2,1.5,0.6s0.5,1,0.5,1.9V71.6z"/>
						<path class="st5" d="M252,68.7h-4.4c0,0.8,0.2,1.3,0.6,1.7s0.9,0.6,1.5,0.6c0.3,0,0.6,0,0.9-0.1s0.6-0.2,0.9-0.4l0.4,0.6
							c-0.3,0.2-0.7,0.4-1.1,0.5s-0.7,0.2-1.2,0.2c-0.9,0-1.6-0.3-2.1-0.8s-0.8-1.3-0.8-2.4c0-1,0.3-1.8,0.8-2.4s1.2-0.9,2-0.9
							c0.8,0,1.4,0.3,1.8,0.8s0.7,1.3,0.7,2.2V68.7z M251.1,68c0-0.6-0.2-1.1-0.4-1.4s-0.7-0.5-1.2-0.5c-0.5,0-0.9,0.2-1.3,0.5
							s-0.5,0.8-0.6,1.4H251.1z"/>
						<path class="st5" d="M258.6,71.6h-0.9v-3.5c0-0.7-0.1-1.2-0.4-1.5s-0.6-0.5-1.1-0.5c-0.5,0-0.9,0.2-1.3,0.6s-0.5,0.9-0.5,1.5
							v3.5h-0.9v-6.1h0.9v1h0c0.2-0.4,0.5-0.7,0.8-0.9s0.7-0.3,1.2-0.3c0.7,0,1.2,0.2,1.5,0.7s0.5,1.1,0.5,1.9V71.6z"/>
						<path class="st5" d="M263.4,71.5c-0.2,0.1-0.3,0.1-0.5,0.2s-0.3,0.1-0.5,0.1c-0.5,0-0.8-0.1-1.1-0.4s-0.4-0.7-0.4-1.2v-3.9
							h-1.1v-0.7h1.1V64l0.9-0.3v1.7h1.6v0.7h-1.6V70c0,0.4,0.1,0.6,0.2,0.8s0.3,0.2,0.6,0.2c0.1,0,0.2,0,0.4,0s0.2-0.1,0.3-0.1
							L263.4,71.5z"/>
						<path class="st5" d="M267.2,71.8c-0.9,0-1.6-0.3-2.2-0.9s-0.8-1.3-0.8-2.3c0-1,0.3-1.8,0.8-2.4s1.3-0.9,2.3-0.9
							c0.9,0,1.6,0.3,2.1,0.9s0.8,1.4,0.8,2.4c0,1-0.3,1.8-0.8,2.3S268.2,71.8,267.2,71.8z M267.3,71c0.7,0,1.2-0.2,1.5-0.6
							s0.5-1,0.5-1.8c0-0.8-0.2-1.4-0.5-1.8s-0.9-0.6-1.5-0.6c-0.7,0-1.2,0.2-1.6,0.7s-0.6,1.1-0.6,1.8c0,0.8,0.2,1.3,0.6,1.8
							S266.6,71,267.3,71z"/>
						<path class="st5" d="M15,84.9c-0.2,0.4-0.5,0.7-0.9,0.9s-0.8,0.3-1.3,0.3c-0.8,0-1.4-0.3-1.9-0.8s-0.7-1.3-0.7-2.3
							c0-1,0.3-1.8,0.8-2.4s1.2-0.9,2-0.9c0.4,0,0.8,0.1,1.1,0.3s0.6,0.4,0.8,0.8h0v-3.6h0.9V86H15L15,84.9L15,84.9z M11.2,83
							c0,0.8,0.2,1.3,0.5,1.8s0.8,0.6,1.4,0.6c0.6,0,1.1-0.2,1.4-0.6s0.5-0.9,0.5-1.5v-1c0-0.5-0.2-1-0.5-1.3s-0.8-0.5-1.3-0.5
							c-0.6,0-1.1,0.2-1.5,0.7S11.2,82.2,11.2,83z"/>
						<path class="st5" d="M22.8,83.1h-4.4c0,0.8,0.2,1.3,0.6,1.7s0.9,0.6,1.5,0.6c0.3,0,0.6,0,0.9-0.1s0.6-0.2,0.9-0.4l0.4,0.6
							c-0.3,0.2-0.7,0.4-1.1,0.5s-0.7,0.2-1.2,0.2c-0.9,0-1.6-0.3-2.1-0.8S17.5,84,17.5,83c0-1,0.3-1.8,0.8-2.4s1.2-0.9,2-0.9
							c0.8,0,1.4,0.3,1.8,0.8s0.7,1.3,0.7,2.2V83.1z M22,82.4c0-0.6-0.2-1.1-0.4-1.4s-0.7-0.5-1.2-0.5c-0.5,0-0.9,0.2-1.3,0.5
							s-0.5,0.8-0.6,1.4H22z"/>
						<path class="st5" d="M32,86h-0.9v-1h0c-0.2,0.4-0.5,0.7-0.8,0.9s-0.7,0.3-1.1,0.3c-0.6,0-1-0.2-1.4-0.5s-0.5-0.8-0.5-1.3
							c0-0.5,0.2-1,0.5-1.3s0.9-0.6,1.6-0.7l1.8-0.2V82c0-0.5-0.1-0.9-0.4-1.2s-0.6-0.4-1-0.4c-0.3,0-0.7,0.1-1,0.2S28.3,81,28,81.2
							l-0.5-0.5c0.3-0.3,0.7-0.6,1.1-0.7s0.8-0.2,1.3-0.2c0.7,0,1.3,0.2,1.6,0.6s0.6,1,0.6,1.7V86z M31.2,83.4v-0.6l-1.5,0.2
							c-0.5,0.1-0.9,0.2-1.1,0.4s-0.4,0.5-0.4,0.8c0,0.4,0.1,0.6,0.3,0.8s0.5,0.3,0.9,0.3c0.5,0,1-0.2,1.3-0.6S31.2,84,31.2,83.4z"
							/>
						<path class="st5" d="M39,86h-0.9v-3.5c0-0.7-0.1-1.2-0.4-1.5s-0.6-0.5-1.1-0.5c-0.5,0-0.9,0.2-1.3,0.6s-0.5,0.9-0.5,1.5V86H34
							v-6.1h0.9v1h0c0.2-0.4,0.5-0.7,0.8-0.9s0.7-0.3,1.2-0.3c0.7,0,1.2,0.2,1.5,0.7s0.5,1.1,0.5,1.9V86z"/>
						<path class="st5" d="M41.3,78.5c-0.2,0-0.3-0.1-0.5-0.2s-0.2-0.3-0.2-0.4c0-0.2,0.1-0.3,0.2-0.4s0.3-0.2,0.5-0.2
							c0.2,0,0.3,0.1,0.5,0.2s0.2,0.3,0.2,0.4c0,0.2-0.1,0.3-0.2,0.4S41.5,78.5,41.3,78.5z M41.8,86h-0.9v-6.1h0.9V86z"/>
						<path class="st5" d="M52.5,86h-0.9v-3.6c0-0.7-0.1-1.2-0.3-1.5s-0.6-0.5-1.1-0.5c-0.4,0-0.8,0.2-1.1,0.6s-0.5,0.9-0.5,1.4V86
							h-0.9v-3.7c0-0.6-0.1-1.1-0.4-1.4s-0.6-0.5-1.1-0.5c-0.5,0-0.8,0.2-1.1,0.6s-0.4,0.9-0.4,1.5V86h-0.9v-6.1h0.9v1h0
							c0.2-0.4,0.5-0.7,0.8-0.9s0.7-0.3,1.1-0.3c0.4,0,0.8,0.1,1.1,0.4s0.5,0.6,0.6,0.9c0.2-0.4,0.5-0.8,0.8-1s0.7-0.3,1.2-0.3
							c0.7,0,1.2,0.2,1.5,0.6s0.5,1,0.5,1.9V86z"/>
						<path class="st5" d="M59.3,83.1h-4.4c0,0.8,0.2,1.3,0.6,1.7s0.9,0.6,1.5,0.6c0.3,0,0.6,0,0.9-0.1s0.6-0.2,0.9-0.4l0.4,0.6
							c-0.3,0.2-0.7,0.4-1.1,0.5s-0.7,0.2-1.2,0.2c-0.9,0-1.6-0.3-2.1-0.8S54,84,54,83c0-1,0.3-1.8,0.8-2.4s1.2-0.9,2-0.9
							c0.8,0,1.4,0.3,1.8,0.8s0.7,1.3,0.7,2.2V83.1z M58.4,82.4c0-0.6-0.2-1.1-0.4-1.4s-0.7-0.5-1.2-0.5c-0.5,0-0.9,0.2-1.3,0.5
							s-0.5,0.8-0.6,1.4H58.4z"/>
						<path class="st5" d="M60.3,85.6l0.4-0.7c0.2,0.2,0.5,0.3,0.7,0.4s0.5,0.1,0.8,0.1c0.4,0,0.8-0.1,1-0.3s0.3-0.4,0.3-0.8
							c0-0.3-0.1-0.5-0.3-0.7s-0.5-0.3-1-0.5c-0.7-0.2-1.2-0.4-1.5-0.7s-0.4-0.7-0.4-1.1c0-0.5,0.2-0.9,0.6-1.3s0.9-0.5,1.5-0.5
							c0.3,0,0.6,0,0.9,0.1s0.6,0.2,0.9,0.4L64,80.9c-0.2-0.2-0.5-0.3-0.7-0.3s-0.5-0.1-0.7-0.1c-0.4,0-0.7,0.1-0.9,0.2
							s-0.3,0.4-0.3,0.7c0,0.3,0.1,0.5,0.3,0.6s0.5,0.3,1,0.4c0.6,0.2,1.1,0.4,1.4,0.7s0.5,0.7,0.5,1.2c0,0.6-0.2,1-0.6,1.3
							s-0.9,0.5-1.6,0.5c-0.4,0-0.7-0.1-1.1-0.2S60.6,85.8,60.3,85.6z"/>
						<path class="st5" d="M67,84.7L66,87.5h-0.7l0.7-2.9H67z"/>
						<path class="st5" d="M76.4,85.6c-0.3,0.2-0.6,0.3-0.9,0.4s-0.6,0.1-0.9,0.1c-0.9,0-1.6-0.3-2.1-0.8s-0.8-1.3-0.8-2.3
							c0-1,0.3-1.8,0.8-2.4s1.3-0.9,2.3-0.9c0.3,0,0.6,0,0.8,0.1s0.5,0.2,0.8,0.3l-0.4,0.7c-0.2-0.1-0.4-0.2-0.7-0.3
							s-0.4-0.1-0.7-0.1c-0.7,0-1.2,0.2-1.6,0.7s-0.6,1.1-0.6,1.8c0,0.8,0.2,1.4,0.6,1.8s0.9,0.6,1.5,0.6c0.2,0,0.4,0,0.7-0.1
							s0.4-0.2,0.7-0.3L76.4,85.6z"/>
						<path class="st5" d="M82.2,86h-0.9v-1h0c-0.2,0.4-0.5,0.7-0.8,0.9s-0.7,0.3-1.1,0.3c-0.6,0-1-0.2-1.4-0.5s-0.5-0.8-0.5-1.3
							c0-0.5,0.2-1,0.5-1.3s0.9-0.6,1.6-0.7l1.8-0.2V82c0-0.5-0.1-0.9-0.4-1.2s-0.6-0.4-1-0.4c-0.3,0-0.7,0.1-1,0.2
							s-0.6,0.3-0.9,0.6l-0.5-0.5c0.3-0.3,0.7-0.6,1.1-0.7s0.8-0.2,1.3-0.2c0.7,0,1.3,0.2,1.6,0.6s0.6,1,0.6,1.7V86z M81.3,83.4
							v-0.6l-1.5,0.2c-0.5,0.1-0.9,0.2-1.1,0.4s-0.4,0.5-0.4,0.8c0,0.4,0.1,0.6,0.3,0.8s0.5,0.3,0.9,0.3c0.5,0,1-0.2,1.3-0.6
							S81.3,84,81.3,83.4z"/>
						<path class="st5" d="M84.1,86v-8.9H85V86H84.1z"/>
						<path class="st5" d="M91.4,85.6c-0.3,0.2-0.6,0.3-0.9,0.4s-0.6,0.1-0.9,0.1c-0.9,0-1.6-0.3-2.1-0.8s-0.8-1.3-0.8-2.3
							c0-1,0.3-1.8,0.8-2.4s1.3-0.9,2.3-0.9c0.3,0,0.6,0,0.8,0.1s0.5,0.2,0.8,0.3l-0.4,0.7c-0.2-0.1-0.4-0.2-0.7-0.3
							s-0.4-0.1-0.7-0.1c-0.7,0-1.2,0.2-1.6,0.7s-0.6,1.1-0.6,1.8c0,0.8,0.2,1.4,0.6,1.8s0.9,0.6,1.5,0.6c0.2,0,0.4,0,0.7-0.1
							s0.4-0.2,0.7-0.3L91.4,85.6z"/>
						<path class="st5" d="M97.7,86h-0.9v-1h0c-0.2,0.4-0.5,0.7-0.8,0.9s-0.7,0.3-1.1,0.3c-0.7,0-1.3-0.2-1.6-0.7s-0.5-1.1-0.5-2
							v-3.6h0.9v3.5c0,0.7,0.1,1.2,0.4,1.6s0.6,0.5,1.2,0.5c0.5,0,0.9-0.2,1.2-0.6s0.5-0.9,0.5-1.5v-3.5h0.9V86z"/>
						<path class="st5" d="M99.7,86v-8.9h0.9V86H99.7z"/>
						<path class="st5" d="M107,86h-0.9v-1h0c-0.2,0.4-0.5,0.7-0.8,0.9s-0.7,0.3-1.1,0.3c-0.6,0-1-0.2-1.4-0.5s-0.5-0.8-0.5-1.3
							c0-0.5,0.2-1,0.5-1.3s0.9-0.6,1.6-0.7l1.8-0.2V82c0-0.5-0.1-0.9-0.4-1.2s-0.6-0.4-1-0.4c-0.3,0-0.7,0.1-1,0.2
							s-0.6,0.3-0.9,0.6l-0.5-0.5c0.3-0.3,0.7-0.6,1.1-0.7s0.8-0.2,1.3-0.2c0.7,0,1.3,0.2,1.6,0.6s0.6,1,0.6,1.7V86z M106.1,83.4
							v-0.6l-1.5,0.2c-0.5,0.1-0.9,0.2-1.1,0.4s-0.4,0.5-0.4,0.8c0,0.4,0.1,0.6,0.3,0.8s0.5,0.3,0.9,0.3c0.5,0,1-0.2,1.3-0.6
							S106.1,84,106.1,83.4z"/>
						<path class="st5" d="M115.1,85.9c-0.2,0.1-0.3,0.1-0.5,0.2s-0.3,0.1-0.5,0.1c-0.5,0-0.8-0.1-1.1-0.4s-0.4-0.7-0.4-1.2v-3.9
							h-1.1v-0.7h1.1v-1.4l0.9-0.3v1.7h1.6v0.7h-1.6v3.8c0,0.4,0.1,0.6,0.2,0.8s0.3,0.2,0.6,0.2c0.1,0,0.2,0,0.4,0s0.2-0.1,0.3-0.1
							L115.1,85.9z"/>
						<path class="st5" d="M121.3,83.1h-4.4c0,0.8,0.2,1.3,0.6,1.7s0.9,0.6,1.5,0.6c0.3,0,0.6,0,0.9-0.1s0.6-0.2,0.9-0.4l0.4,0.6
							c-0.3,0.2-0.7,0.4-1.1,0.5s-0.7,0.2-1.2,0.2c-0.9,0-1.6-0.3-2.1-0.8S116,84,116,83c0-1,0.3-1.8,0.8-2.4s1.2-0.9,2-0.9
							c0.8,0,1.4,0.3,1.8,0.8s0.7,1.3,0.7,2.2V83.1z M120.4,82.4c0-0.6-0.2-1.1-0.4-1.4s-0.7-0.5-1.2-0.5c-0.5,0-0.9,0.2-1.3,0.5
							s-0.5,0.8-0.6,1.4H120.4z"/>
						<path class="st5" d="M131.5,86h-0.9v-3.6c0-0.7-0.1-1.2-0.3-1.5s-0.6-0.5-1.1-0.5c-0.4,0-0.8,0.2-1.1,0.6s-0.5,0.9-0.5,1.4V86
							h-0.9v-3.7c0-0.6-0.1-1.1-0.4-1.4s-0.6-0.5-1.1-0.5c-0.5,0-0.8,0.2-1.1,0.6s-0.4,0.9-0.4,1.5V86h-0.9v-6.1h0.9v1h0
							c0.2-0.4,0.5-0.7,0.8-0.9s0.7-0.3,1.1-0.3c0.4,0,0.8,0.1,1.1,0.4s0.5,0.6,0.6,0.9c0.2-0.4,0.5-0.8,0.8-1s0.7-0.3,1.2-0.3
							c0.7,0,1.2,0.2,1.5,0.6s0.5,1,0.5,1.9V86z"/>
						<path class="st5" d="M134.3,85.1L134.3,85.1l0,3.7h-0.9v-8.9h0.9V81h0c0.2-0.4,0.5-0.7,0.9-1s0.8-0.3,1.3-0.3
							c0.8,0,1.4,0.3,1.8,0.8s0.7,1.3,0.7,2.2c0,1-0.3,1.8-0.8,2.5s-1.2,0.9-2,0.9c-0.4,0-0.8-0.1-1.1-0.3S134.5,85.4,134.3,85.1z
							 M134.2,82.7v0.8c0,0.5,0.2,1,0.5,1.4s0.8,0.6,1.3,0.6c0.6,0,1.1-0.2,1.4-0.7s0.5-1.1,0.5-2c0-0.7-0.2-1.3-0.5-1.7
							s-0.8-0.6-1.3-0.6c-0.6,0-1.1,0.2-1.5,0.6S134.2,82,134.2,82.7z"/>
						<path class="st5" d="M143.1,86.2c-0.9,0-1.6-0.3-2.2-0.9s-0.8-1.3-0.8-2.3c0-1,0.3-1.8,0.8-2.4s1.3-0.9,2.3-0.9
							c0.9,0,1.6,0.3,2.1,0.9s0.8,1.4,0.8,2.4c0,1-0.3,1.8-0.8,2.3S144.1,86.2,143.1,86.2z M143.2,85.4c0.7,0,1.2-0.2,1.5-0.6
							s0.5-1,0.5-1.8c0-0.8-0.2-1.4-0.5-1.8s-0.9-0.6-1.5-0.6c-0.7,0-1.2,0.2-1.6,0.7s-0.6,1.1-0.6,1.8c0,0.8,0.2,1.3,0.6,1.8
							S142.5,85.4,143.2,85.4z"/>
						<path class="st5" d="M147.2,85.6l0.4-0.7c0.2,0.2,0.5,0.3,0.7,0.4s0.5,0.1,0.8,0.1c0.4,0,0.8-0.1,1-0.3s0.3-0.4,0.3-0.8
							c0-0.3-0.1-0.5-0.3-0.7s-0.5-0.3-1-0.5c-0.7-0.2-1.2-0.4-1.5-0.7s-0.4-0.7-0.4-1.1c0-0.5,0.2-0.9,0.6-1.3s0.9-0.5,1.5-0.5
							c0.3,0,0.6,0,0.9,0.1s0.6,0.2,0.9,0.4l-0.4,0.7c-0.2-0.2-0.5-0.3-0.7-0.3s-0.5-0.1-0.7-0.1c-0.4,0-0.7,0.1-0.9,0.2
							s-0.3,0.4-0.3,0.7c0,0.3,0.1,0.5,0.3,0.6s0.5,0.3,1,0.4c0.6,0.2,1.1,0.4,1.4,0.7s0.5,0.7,0.5,1.2c0,0.6-0.2,1-0.6,1.3
							s-0.9,0.5-1.6,0.5c-0.4,0-0.7-0.1-1.1-0.2S147.5,85.8,147.2,85.6z"/>
						<path class="st5" d="M160.5,84.9c-0.2,0.4-0.5,0.7-0.9,0.9s-0.8,0.3-1.3,0.3c-0.8,0-1.4-0.3-1.9-0.8s-0.7-1.3-0.7-2.3
							c0-1,0.3-1.8,0.8-2.4s1.2-0.9,2-0.9c0.4,0,0.8,0.1,1.1,0.3s0.6,0.4,0.8,0.8h0v-3.6h0.9V86h-0.9L160.5,84.9L160.5,84.9z
							 M156.7,83c0,0.8,0.2,1.3,0.5,1.8s0.8,0.6,1.4,0.6c0.6,0,1.1-0.2,1.4-0.6s0.5-0.9,0.5-1.5v-1c0-0.5-0.2-1-0.5-1.3
							s-0.8-0.5-1.3-0.5c-0.6,0-1.1,0.2-1.5,0.7S156.7,82.2,156.7,83z"/>
						<path class="st5" d="M168.4,83.1H164c0,0.8,0.2,1.3,0.6,1.7s0.9,0.6,1.5,0.6c0.3,0,0.6,0,0.9-0.1s0.6-0.2,0.9-0.4l0.4,0.6
							c-0.3,0.2-0.7,0.4-1.1,0.5s-0.7,0.2-1.2,0.2c-0.9,0-1.6-0.3-2.1-0.8s-0.8-1.3-0.8-2.4c0-1,0.3-1.8,0.8-2.4s1.2-0.9,2-0.9
							c0.8,0,1.4,0.3,1.8,0.8s0.7,1.3,0.7,2.2V83.1z M167.5,82.4c0-0.6-0.2-1.1-0.4-1.4s-0.7-0.5-1.2-0.5c-0.5,0-0.9,0.2-1.3,0.5
							s-0.5,0.8-0.6,1.4H167.5z"/>
						<path class="st5" d="M178.1,83.1h-4.4c0,0.8,0.2,1.3,0.6,1.7s0.9,0.6,1.5,0.6c0.3,0,0.6,0,0.9-0.1s0.6-0.2,0.9-0.4l0.4,0.6
							c-0.3,0.2-0.7,0.4-1.1,0.5s-0.7,0.2-1.2,0.2c-0.9,0-1.6-0.3-2.1-0.8s-0.8-1.3-0.8-2.4c0-1,0.3-1.8,0.8-2.4s1.2-0.9,2-0.9
							c0.8,0,1.4,0.3,1.8,0.8s0.7,1.3,0.7,2.2V83.1z M177.2,82.4c0-0.6-0.2-1.1-0.4-1.4s-0.7-0.5-1.2-0.5c-0.5,0-0.9,0.2-1.3,0.5
							s-0.5,0.8-0.6,1.4H177.2z"/>
						<path class="st5" d="M184.1,79.9L182,83l2,3h-1l-1.2-2c0-0.1-0.1-0.1-0.1-0.2s-0.1-0.2-0.2-0.3h0c0,0.1-0.1,0.1-0.1,0.2
							s-0.1,0.2-0.2,0.3l-1.3,2h-1l2.1-3l-2-3.1h1l1.2,2.1c0.1,0.1,0.1,0.2,0.1,0.2s0.1,0.2,0.1,0.2h0c0-0.1,0.1-0.2,0.1-0.2
							s0.1-0.2,0.1-0.2l1.3-2.1H184.1z"/>
						<path class="st5" d="M185.8,78.5c-0.2,0-0.3-0.1-0.5-0.2s-0.2-0.3-0.2-0.4c0-0.2,0.1-0.3,0.2-0.4s0.3-0.2,0.5-0.2
							c0.2,0,0.3,0.1,0.5,0.2s0.2,0.3,0.2,0.4c0,0.2-0.1,0.3-0.2,0.4S185.9,78.5,185.8,78.5z M186.2,86h-0.9v-6.1h0.9V86z"/>
						<path class="st5" d="M189.2,85.1L189.2,85.1l0,0.9h-0.9v-8.9h0.9V81h0c0.2-0.4,0.5-0.7,0.9-1s0.8-0.3,1.3-0.3
							c0.8,0,1.4,0.3,1.8,0.8s0.7,1.3,0.7,2.2c0,1-0.3,1.9-0.8,2.5s-1.2,0.9-2,0.9c-0.4,0-0.8-0.1-1.1-0.3S189.4,85.5,189.2,85.1z
							 M189.2,82.6v0.8c0,0.5,0.2,1,0.5,1.4s0.8,0.6,1.3,0.6c0.6,0,1.1-0.2,1.4-0.7s0.5-1.1,0.5-2c0-0.7-0.2-1.3-0.5-1.7
							s-0.8-0.6-1.3-0.6c-0.6,0-1.1,0.2-1.5,0.6S189.2,82,189.2,82.6z"/>
						<path class="st5" d="M196,78.5c-0.2,0-0.3-0.1-0.5-0.2s-0.2-0.3-0.2-0.4c0-0.2,0.1-0.3,0.2-0.4s0.3-0.2,0.5-0.2
							c0.2,0,0.3,0.1,0.5,0.2s0.2,0.3,0.2,0.4c0,0.2-0.1,0.3-0.2,0.4S196.1,78.5,196,78.5z M196.4,86h-0.9v-6.1h0.9V86z"/>
						<path class="st5" d="M202.8,85.6c-0.3,0.2-0.6,0.3-0.9,0.4s-0.6,0.1-0.9,0.1c-0.9,0-1.6-0.3-2.1-0.8s-0.8-1.3-0.8-2.3
							c0-1,0.3-1.8,0.8-2.4s1.3-0.9,2.3-0.9c0.3,0,0.6,0,0.8,0.1s0.5,0.2,0.8,0.3l-0.4,0.7c-0.2-0.1-0.4-0.2-0.7-0.3
							s-0.4-0.1-0.7-0.1c-0.7,0-1.2,0.2-1.6,0.7S199,82.2,199,83c0,0.8,0.2,1.4,0.6,1.8s0.9,0.6,1.5,0.6c0.2,0,0.4,0,0.7-0.1
							s0.4-0.2,0.7-0.3L202.8,85.6z M200.9,86v0.6c0.4,0,0.7,0.1,0.9,0.2s0.3,0.4,0.3,0.7c0,0.3-0.1,0.6-0.4,0.8s-0.6,0.3-1.1,0.3
							c-0.1,0-0.2,0-0.3,0s-0.2,0-0.3,0L200,88c0.1,0,0.2,0,0.2,0s0.1,0,0.2,0c0.3,0,0.5,0,0.6-0.1s0.2-0.2,0.2-0.4
							c0-0.2-0.1-0.3-0.2-0.3s-0.3-0.1-0.6-0.1c0,0-0.1,0-0.1,0s-0.1,0-0.2,0V86H200.9z"/>
						<path class="st5" d="M208.6,86h-0.9v-1h0c-0.2,0.4-0.5,0.7-0.8,0.9c-0.3,0.2-0.7,0.3-1.1,0.3c-0.6,0-1-0.2-1.4-0.5
							s-0.5-0.8-0.5-1.3c0-0.5,0.2-1,0.5-1.3s0.9-0.6,1.6-0.7l1.8-0.2V82c0-0.5-0.1-0.9-0.4-1.2s-0.6-0.4-1-0.4
							c-0.3,0-0.7,0.1-1,0.2s-0.6,0.3-0.9,0.6l-0.5-0.5c0.3-0.3,0.7-0.6,1.1-0.7s0.8-0.2,1.3-0.2c0.7,0,1.3,0.2,1.6,0.6
							s0.6,1,0.6,1.7V86z M208.3,77.4c0,0.4-0.1,0.7-0.3,1s-0.4,0.4-0.8,0.4c-0.1,0-0.3,0-0.4-0.1s-0.3-0.1-0.5-0.3
							c-0.1-0.1-0.3-0.2-0.4-0.2s-0.2-0.1-0.3-0.1c-0.2,0-0.3,0.1-0.4,0.2s-0.1,0.3-0.1,0.5h-0.5c0-0.4,0.1-0.8,0.3-1
							s0.5-0.4,0.8-0.4c0.1,0,0.3,0,0.4,0.1s0.3,0.1,0.5,0.3c0.1,0.1,0.3,0.2,0.4,0.2c0.1,0,0.2,0.1,0.3,0.1c0.2,0,0.3-0.1,0.4-0.2
							s0.1-0.3,0.1-0.5H208.3z M207.7,83.4v-0.6l-1.5,0.2c-0.5,0.1-0.9,0.2-1.1,0.4s-0.4,0.5-0.4,0.8c0,0.4,0.1,0.6,0.3,0.8
							s0.5,0.3,0.9,0.3c0.5,0,1-0.2,1.3-0.6C207.6,84.5,207.7,84,207.7,83.4z"/>
						<path class="st5" d="M213.1,86.2c-0.9,0-1.6-0.3-2.2-0.9s-0.8-1.3-0.8-2.3c0-1,0.3-1.8,0.8-2.4s1.3-0.9,2.3-0.9
							c0.9,0,1.6,0.3,2.1,0.9s0.8,1.4,0.8,2.4c0,1-0.3,1.8-0.8,2.3S214,86.2,213.1,86.2z M213.2,85.4c0.7,0,1.2-0.2,1.5-0.6
							s0.5-1,0.5-1.8c0-0.8-0.2-1.4-0.5-1.8s-0.9-0.6-1.5-0.6c-0.7,0-1.2,0.2-1.6,0.7S211,82.2,211,83c0,0.8,0.2,1.3,0.6,1.8
							S212.5,85.4,213.2,85.4z"/>
						<path class="st5" d="M225.9,83.1h-4.4c0,0.8,0.2,1.3,0.6,1.7s0.9,0.6,1.5,0.6c0.3,0,0.6,0,0.9-0.1s0.6-0.2,0.9-0.4l0.4,0.6
							c-0.3,0.2-0.7,0.4-1.1,0.5s-0.7,0.2-1.2,0.2c-0.9,0-1.6-0.3-2.1-0.8s-0.8-1.3-0.8-2.4c0-1,0.3-1.8,0.8-2.4s1.2-0.9,2-0.9
							c0.8,0,1.4,0.3,1.8,0.8s0.7,1.3,0.7,2.2V83.1z M225,82.4c0-0.6-0.2-1.1-0.4-1.4s-0.7-0.5-1.2-0.5c-0.5,0-0.9,0.2-1.3,0.5
							s-0.5,0.8-0.6,1.4H225z"/>
						<path class="st5" d="M13.3,100.6c-0.9,0-1.6-0.3-2.2-0.9s-0.8-1.3-0.8-2.3c0-1,0.3-1.8,0.8-2.4s1.3-0.9,2.3-0.9
							c0.9,0,1.6,0.3,2.1,0.9s0.8,1.4,0.8,2.4c0,1-0.3,1.8-0.8,2.3S14.2,100.6,13.3,100.6z M13.4,99.8c0.7,0,1.2-0.2,1.5-0.6
							s0.5-1,0.5-1.8c0-0.8-0.2-1.4-0.5-1.8s-0.9-0.6-1.5-0.6c-0.7,0-1.2,0.2-1.6,0.7s-0.6,1.1-0.6,1.8c0,0.8,0.2,1.3,0.6,1.8
							S12.7,99.8,13.4,99.8z"/>
						<path class="st5" d="M20.7,92.2c-0.1,0-0.2-0.1-0.3-0.1s-0.2,0-0.3,0c-0.3,0-0.6,0.1-0.8,0.3s-0.2,0.5-0.2,0.8v1h1.5V95h-1.5
							v5.4h-0.9V95h-1v-0.7h1v-1c0-0.6,0.2-1,0.5-1.3s0.8-0.5,1.4-0.5c0.1,0,0.3,0,0.4,0s0.2,0,0.4,0.1L20.7,92.2z"/>
						<path class="st5" d="M26.6,97.5h-4.4c0,0.8,0.2,1.3,0.6,1.7s0.9,0.6,1.5,0.6c0.3,0,0.6,0,0.9-0.1s0.6-0.2,0.9-0.4l0.4,0.6
							c-0.3,0.2-0.7,0.4-1.1,0.5s-0.7,0.2-1.2,0.2c-0.9,0-1.6-0.3-2.1-0.8s-0.8-1.3-0.8-2.4c0-1,0.3-1.8,0.8-2.4s1.2-0.9,2-0.9
							c0.8,0,1.4,0.3,1.8,0.8s0.7,1.3,0.7,2.2V97.5z M25.7,96.8c0-0.6-0.2-1.1-0.4-1.4s-0.7-0.5-1.2-0.5c-0.5,0-0.9,0.2-1.3,0.5
							s-0.5,0.8-0.6,1.4H25.7z"/>
						<path class="st5" d="M31.2,95C31.1,95,31,95,31,95s-0.2,0-0.3,0c-0.5,0-0.9,0.2-1.2,0.7s-0.4,1-0.4,1.7v3h-0.9v-6.1h0.9v1.3h0
							c0.1-0.4,0.4-0.8,0.7-1s0.6-0.4,1-0.4c0.1,0,0.2,0,0.3,0s0.2,0,0.3,0.1L31.2,95z"/>
						<path class="st5" d="M37.4,97.5H33c0,0.8,0.2,1.3,0.6,1.7s0.9,0.6,1.5,0.6c0.3,0,0.6,0,0.9-0.1s0.6-0.2,0.9-0.4l0.4,0.6
							c-0.3,0.2-0.7,0.4-1.1,0.5s-0.7,0.2-1.2,0.2c-0.9,0-1.6-0.3-2.1-0.8s-0.8-1.3-0.8-2.4c0-1,0.3-1.8,0.8-2.4s1.2-0.9,2-0.9
							c0.8,0,1.4,0.3,1.8,0.8s0.7,1.3,0.7,2.2V97.5z M36.5,96.8c0-0.6-0.2-1.1-0.4-1.4s-0.7-0.5-1.2-0.5c-0.5,0-0.9,0.2-1.3,0.5
							s-0.5,0.8-0.6,1.4H36.5z"/>
						<path class="st5" d="M43.3,100c-0.3,0.2-0.6,0.3-0.9,0.4s-0.6,0.1-0.9,0.1c-0.9,0-1.6-0.3-2.1-0.8s-0.8-1.3-0.8-2.3
							c0-1,0.3-1.8,0.8-2.4s1.3-0.9,2.3-0.9c0.3,0,0.6,0,0.8,0.1s0.5,0.2,0.8,0.3L43,95.2c-0.2-0.1-0.4-0.2-0.7-0.3
							s-0.4-0.1-0.7-0.1c-0.7,0-1.2,0.2-1.6,0.7s-0.6,1.1-0.6,1.8c0,0.8,0.2,1.4,0.6,1.8s0.9,0.6,1.5,0.6c0.2,0,0.4,0,0.7-0.1
							s0.4-0.2,0.7-0.3L43.3,100z"/>
						<path class="st5" d="M49.6,97.5h-4.4c0,0.8,0.2,1.3,0.6,1.7s0.9,0.6,1.5,0.6c0.3,0,0.6,0,0.9-0.1s0.6-0.2,0.9-0.4l0.4,0.6
							c-0.3,0.2-0.7,0.4-1.1,0.5s-0.7,0.2-1.2,0.2c-0.9,0-1.6-0.3-2.1-0.8s-0.8-1.3-0.8-2.4c0-1,0.3-1.8,0.8-2.4s1.2-0.9,2-0.9
							c0.8,0,1.4,0.3,1.8,0.8s0.7,1.3,0.7,2.2V97.5z M48.7,96.8c0-0.6-0.2-1.1-0.4-1.4s-0.7-0.5-1.2-0.5c-0.5,0-0.9,0.2-1.3,0.5
							s-0.5,0.8-0.6,1.4H48.7z"/>
						<path class="st5" d="M54.9,92.9c-0.2,0-0.3-0.1-0.5-0.2s-0.2-0.3-0.2-0.4c0-0.2,0.1-0.3,0.2-0.4s0.3-0.2,0.5-0.2
							c0.2,0,0.3,0.1,0.5,0.2s0.2,0.3,0.2,0.4c0,0.2-0.1,0.3-0.2,0.4S55.1,92.9,54.9,92.9z M55.3,100.4h-0.9v-6.1h0.9V100.4z"/>
						<path class="st5" d="M62.5,100.4h-0.9v-3.5c0-0.7-0.1-1.2-0.4-1.5s-0.6-0.5-1.1-0.5c-0.5,0-0.9,0.2-1.3,0.6s-0.5,0.9-0.5,1.5
							v3.5h-0.9v-6.1h0.9v1h0c0.2-0.4,0.5-0.7,0.8-0.9s0.7-0.3,1.2-0.3c0.7,0,1.2,0.2,1.5,0.7s0.5,1.1,0.5,1.9V100.4z"/>
						<path class="st5" d="M67.2,92.2c-0.1,0-0.2-0.1-0.3-0.1s-0.2,0-0.3,0c-0.3,0-0.6,0.1-0.8,0.3s-0.2,0.5-0.2,0.8v1h1.5V95h-1.5
							v5.4h-0.9V95h-1v-0.7h1v-1c0-0.6,0.2-1,0.5-1.3s0.8-0.5,1.4-0.5c0.1,0,0.3,0,0.4,0s0.2,0,0.4,0.1L67.2,92.2z"/>
						<path class="st5" d="M70.8,100.6c-0.9,0-1.6-0.3-2.2-0.9s-0.8-1.3-0.8-2.3c0-1,0.3-1.8,0.8-2.4s1.3-0.9,2.3-0.9
							c0.9,0,1.6,0.3,2.1,0.9s0.8,1.4,0.8,2.4c0,1-0.3,1.8-0.8,2.3S71.7,100.6,70.8,100.6z M70.8,99.8c0.7,0,1.2-0.2,1.5-0.6
							s0.5-1,0.5-1.8c0-0.8-0.2-1.4-0.5-1.8s-0.9-0.6-1.5-0.6c-0.7,0-1.2,0.2-1.6,0.7s-0.6,1.1-0.6,1.8c0,0.8,0.2,1.3,0.6,1.8
							S70.2,99.8,70.8,99.8z"/>
						<path class="st5" d="M78.4,95c-0.1,0-0.2,0-0.2-0.1s-0.2,0-0.3,0c-0.5,0-0.9,0.2-1.2,0.7s-0.4,1-0.4,1.7v3h-0.9v-6.1h0.9v1.3
							h0c0.1-0.4,0.4-0.8,0.7-1s0.6-0.4,1-0.4c0.1,0,0.2,0,0.3,0s0.2,0,0.3,0.1L78.4,95z"/>
						<path class="st5" d="M88.3,100.4h-0.9v-3.6c0-0.7-0.1-1.2-0.3-1.5s-0.6-0.5-1.1-0.5c-0.4,0-0.8,0.2-1.1,0.6s-0.5,0.9-0.5,1.4
							v3.5h-0.9v-3.7c0-0.6-0.1-1.1-0.4-1.4s-0.6-0.5-1.1-0.5c-0.5,0-0.8,0.2-1.1,0.6s-0.4,0.9-0.4,1.5v3.5h-0.9v-6.1h0.9v1h0
							c0.2-0.4,0.5-0.7,0.8-0.9s0.7-0.3,1.1-0.3c0.4,0,0.8,0.1,1.1,0.4s0.5,0.6,0.6,0.9c0.2-0.4,0.5-0.8,0.8-1s0.7-0.3,1.2-0.3
							c0.7,0,1.2,0.2,1.5,0.6s0.5,1,0.5,1.9V100.4z"/>
						<path class="st5" d="M94.6,100.4h-0.9v-1h0c-0.2,0.4-0.5,0.7-0.8,0.9s-0.7,0.3-1.1,0.3c-0.6,0-1-0.2-1.4-0.5s-0.5-0.8-0.5-1.3
							c0-0.5,0.2-1,0.5-1.3s0.9-0.6,1.6-0.7l1.8-0.2v-0.2c0-0.5-0.1-0.9-0.4-1.2s-0.6-0.4-1-0.4c-0.3,0-0.7,0.1-1,0.2
							s-0.6,0.3-0.9,0.6L90,95.1c0.3-0.3,0.7-0.6,1.1-0.7s0.8-0.2,1.3-0.2c0.7,0,1.3,0.2,1.6,0.6s0.6,1,0.6,1.7V100.4z M93.7,97.8
							v-0.6l-1.5,0.2c-0.5,0.1-0.9,0.2-1.1,0.4s-0.4,0.5-0.4,0.8c0,0.4,0.1,0.6,0.3,0.8s0.5,0.3,0.9,0.3c0.5,0,1-0.2,1.3-0.6
							S93.7,98.4,93.7,97.8z"/>
						<path class="st5" d="M100.8,100c-0.3,0.2-0.6,0.3-0.9,0.4s-0.6,0.1-0.9,0.1c-0.9,0-1.6-0.3-2.1-0.8s-0.8-1.3-0.8-2.3
							c0-1,0.3-1.8,0.8-2.4s1.3-0.9,2.3-0.9c0.3,0,0.6,0,0.8,0.1s0.5,0.2,0.8,0.3l-0.4,0.7c-0.2-0.1-0.4-0.2-0.7-0.3
							s-0.4-0.1-0.7-0.1c-0.7,0-1.2,0.2-1.6,0.7S97,96.6,97,97.4c0,0.8,0.2,1.4,0.6,1.8s0.9,0.6,1.5,0.6c0.2,0,0.4,0,0.7-0.1
							s0.4-0.2,0.7-0.3L100.8,100z M98.9,100.4v0.6c0.4,0,0.7,0.1,0.9,0.2s0.3,0.4,0.3,0.7c0,0.3-0.1,0.6-0.4,0.8S99,103,98.6,103
							c-0.1,0-0.2,0-0.3,0s-0.2,0-0.3,0l0.1-0.5c0.1,0,0.2,0,0.2,0s0.1,0,0.2,0c0.3,0,0.5,0,0.6-0.1s0.2-0.2,0.2-0.4
							c0-0.2-0.1-0.3-0.2-0.3s-0.3-0.1-0.6-0.1c0,0-0.1,0-0.1,0s-0.1,0-0.2,0v-1.1H98.9z"/>
						<path class="st5" d="M104.8,100.6c-0.9,0-1.6-0.3-2.2-0.9s-0.8-1.3-0.8-2.3c0-1,0.3-1.8,0.8-2.4s1.3-0.9,2.3-0.9
							c0.9,0,1.6,0.3,2.1,0.9s0.8,1.4,0.8,2.4c0,1-0.3,1.8-0.8,2.3S105.8,100.6,104.8,100.6z M104.9,99.8c0.7,0,1.2-0.2,1.5-0.6
							s0.5-1,0.5-1.8c0-0.8-0.2-1.4-0.5-1.8s-0.9-0.6-1.5-0.6c-0.7,0-1.2,0.2-1.6,0.7s-0.6,1.1-0.6,1.8c0,0.8,0.2,1.3,0.6,1.8
							S104.2,99.8,104.9,99.8z M106.8,91.8c0,0.4-0.1,0.7-0.3,1s-0.4,0.4-0.8,0.4c-0.1,0-0.3,0-0.4-0.1s-0.3-0.1-0.5-0.3
							c-0.1-0.1-0.3-0.2-0.4-0.2s-0.2-0.1-0.3-0.1c-0.2,0-0.3,0.1-0.4,0.2s-0.1,0.3-0.1,0.5H103c0-0.4,0.1-0.8,0.3-1
							s0.5-0.4,0.8-0.4c0.1,0,0.3,0,0.4,0.1s0.3,0.1,0.5,0.3c0.1,0.1,0.3,0.2,0.4,0.2s0.2,0.1,0.3,0.1c0.2,0,0.3-0.1,0.4-0.2
							s0.1-0.3,0.1-0.5H106.8z"/>
						<path class="st5" d="M114.4,97.5H110c0,0.8,0.2,1.3,0.6,1.7s0.9,0.6,1.5,0.6c0.3,0,0.6,0,0.9-0.1s0.6-0.2,0.9-0.4l0.4,0.6
							c-0.3,0.2-0.7,0.4-1.1,0.5s-0.7,0.2-1.2,0.2c-0.9,0-1.6-0.3-2.1-0.8s-0.8-1.3-0.8-2.4c0-1,0.3-1.8,0.8-2.4s1.2-0.9,2-0.9
							c0.8,0,1.4,0.3,1.8,0.8s0.7,1.3,0.7,2.2V97.5z M113.5,96.8c0-0.6-0.2-1.1-0.4-1.4s-0.7-0.5-1.2-0.5c-0.5,0-0.9,0.2-1.3,0.5
							s-0.5,0.8-0.6,1.4H113.5z"/>
						<path class="st5" d="M115.4,100l0.4-0.7c0.2,0.2,0.5,0.3,0.7,0.4s0.5,0.1,0.8,0.1c0.4,0,0.8-0.1,1-0.3s0.3-0.4,0.3-0.8
							c0-0.3-0.1-0.5-0.3-0.7s-0.5-0.3-1-0.5c-0.7-0.2-1.2-0.4-1.5-0.7s-0.4-0.7-0.4-1.1c0-0.5,0.2-0.9,0.6-1.3s0.9-0.5,1.5-0.5
							c0.3,0,0.6,0,0.9,0.1s0.6,0.2,0.9,0.4l-0.4,0.7c-0.2-0.2-0.5-0.3-0.7-0.3s-0.5-0.1-0.7-0.1c-0.4,0-0.7,0.1-0.9,0.2
							s-0.3,0.4-0.3,0.7c0,0.3,0.1,0.5,0.3,0.6s0.5,0.3,1,0.4c0.6,0.2,1.1,0.4,1.4,0.7s0.5,0.7,0.5,1.2c0,0.6-0.2,1-0.6,1.3
							s-0.9,0.5-1.6,0.5c-0.4,0-0.7-0.1-1.1-0.2S115.7,100.2,115.4,100z"/>
						<path class="st5" d="M128.7,99.3c-0.2,0.4-0.5,0.7-0.9,0.9s-0.8,0.3-1.3,0.3c-0.8,0-1.4-0.3-1.9-0.8s-0.7-1.3-0.7-2.3
							c0-1,0.3-1.8,0.8-2.4s1.2-0.9,2-0.9c0.4,0,0.8,0.1,1.1,0.3s0.6,0.4,0.8,0.8h0v-3.6h0.9v8.9h-0.9L128.7,99.3L128.7,99.3z
							 M124.9,97.4c0,0.8,0.2,1.3,0.5,1.8s0.8,0.6,1.4,0.6c0.6,0,1.1-0.2,1.4-0.6s0.5-0.9,0.5-1.5v-1c0-0.5-0.2-1-0.5-1.3
							s-0.8-0.5-1.3-0.5c-0.6,0-1.1,0.2-1.5,0.7S124.9,96.6,124.9,97.4z"/>
						<path class="st5" d="M136.5,97.5h-4.4c0,0.8,0.2,1.3,0.6,1.7s0.9,0.6,1.5,0.6c0.3,0,0.6,0,0.9-0.1s0.6-0.2,0.9-0.4l0.4,0.6
							c-0.3,0.2-0.7,0.4-1.1,0.5s-0.7,0.2-1.2,0.2c-0.9,0-1.6-0.3-2.1-0.8s-0.8-1.3-0.8-2.4c0-1,0.3-1.8,0.8-2.4s1.2-0.9,2-0.9
							c0.8,0,1.4,0.3,1.8,0.8s0.7,1.3,0.7,2.2V97.5z M135.6,96.8c0-0.6-0.2-1.1-0.4-1.4s-0.7-0.5-1.2-0.5c-0.5,0-0.9,0.2-1.3,0.5
							s-0.5,0.8-0.6,1.4H135.6z"/>
						<path class="st5" d="M140.9,100.3c-0.2,0.1-0.3,0.1-0.5,0.2s-0.3,0.1-0.5,0.1c-0.5,0-0.8-0.1-1.1-0.4s-0.4-0.7-0.4-1.2V95
							h-1.1v-0.7h1.1v-1.4l0.9-0.3v1.7h1.6V95h-1.6v3.8c0,0.4,0.1,0.6,0.2,0.8s0.3,0.2,0.6,0.2c0.1,0,0.2,0,0.4,0s0.2-0.1,0.3-0.1
							L140.9,100.3z"/>
						<path class="st5" d="M146.6,100.4h-0.9v-1h0c-0.2,0.4-0.5,0.7-0.8,0.9s-0.7,0.3-1.1,0.3c-0.6,0-1-0.2-1.4-0.5
							s-0.5-0.8-0.5-1.3c0-0.5,0.2-1,0.5-1.3s0.9-0.6,1.6-0.7l1.8-0.2v-0.2c0-0.5-0.1-0.9-0.4-1.2s-0.6-0.4-1-0.4
							c-0.3,0-0.7,0.1-1,0.2s-0.6,0.3-0.9,0.6l-0.5-0.5c0.3-0.3,0.7-0.6,1.1-0.7s0.8-0.2,1.3-0.2c0.7,0,1.3,0.2,1.6,0.6
							s0.6,1,0.6,1.7V100.4z M145.7,97.8v-0.6l-1.5,0.2c-0.5,0.1-0.9,0.2-1.1,0.4s-0.4,0.5-0.4,0.8c0,0.4,0.1,0.6,0.3,0.8
							s0.5,0.3,0.9,0.3c0.5,0,1-0.2,1.3-0.6S145.7,98.4,145.7,97.8z"/>
						<path class="st5" d="M148.5,100.4v-8.9h0.9v8.9H148.5z"/>
						<path class="st5" d="M156.5,100.4h-0.9v-3.6c0-0.7-0.1-1.2-0.4-1.5s-0.6-0.5-1.1-0.5c-0.5,0-0.9,0.2-1.3,0.6s-0.5,0.9-0.5,1.5
							v3.5h-0.9v-8.9h0.9v3.8h0c0.2-0.4,0.5-0.7,0.9-0.9s0.7-0.3,1.2-0.3c0.7,0,1.2,0.2,1.5,0.6s0.5,1,0.5,1.9V100.4z"/>
						<path class="st5" d="M162.7,100.4h-0.9v-1h0c-0.2,0.4-0.5,0.7-0.8,0.9s-0.7,0.3-1.1,0.3c-0.6,0-1-0.2-1.4-0.5
							s-0.5-0.8-0.5-1.3c0-0.5,0.2-1,0.5-1.3s0.9-0.6,1.6-0.7l1.8-0.2v-0.2c0-0.5-0.1-0.9-0.4-1.2s-0.6-0.4-1-0.4
							c-0.3,0-0.7,0.1-1,0.2s-0.6,0.3-0.9,0.6l-0.5-0.5c0.3-0.3,0.7-0.6,1.1-0.7s0.8-0.2,1.3-0.2c0.7,0,1.3,0.2,1.6,0.6
							s0.6,1,0.6,1.7V100.4z M161.8,97.8v-0.6l-1.5,0.2c-0.5,0.1-0.9,0.2-1.1,0.4s-0.4,0.5-0.4,0.8c0,0.4,0.1,0.6,0.3,0.8
							s0.5,0.3,0.9,0.3c0.5,0,1-0.2,1.3-0.6S161.8,98.4,161.8,97.8z"/>
						<path class="st5" d="M168.9,99.3c-0.2,0.4-0.5,0.7-0.9,0.9s-0.8,0.3-1.3,0.3c-0.8,0-1.4-0.3-1.9-0.8s-0.7-1.3-0.7-2.3
							c0-1,0.3-1.8,0.8-2.4s1.2-0.9,2-0.9c0.4,0,0.8,0.1,1.1,0.3s0.6,0.4,0.8,0.8h0v-3.6h0.9v8.9H169L168.9,99.3L168.9,99.3z
							 M165.1,97.4c0,0.8,0.2,1.3,0.5,1.8s0.8,0.6,1.4,0.6c0.6,0,1.1-0.2,1.4-0.6s0.5-0.9,0.5-1.5v-1c0-0.5-0.2-1-0.5-1.3
							s-0.8-0.5-1.3-0.5c-0.6,0-1.1,0.2-1.5,0.7S165.1,96.6,165.1,97.4z"/>
						<path class="st5" d="M176.2,100.4h-0.9v-1h0c-0.2,0.4-0.5,0.7-0.8,0.9s-0.7,0.3-1.1,0.3c-0.6,0-1-0.2-1.4-0.5
							s-0.5-0.8-0.5-1.3c0-0.5,0.2-1,0.5-1.3s0.9-0.6,1.6-0.7l1.8-0.2v-0.2c0-0.5-0.1-0.9-0.4-1.2s-0.6-0.4-1-0.4
							c-0.3,0-0.7,0.1-1,0.2s-0.6,0.3-0.9,0.6l-0.5-0.5c0.3-0.3,0.7-0.6,1.1-0.7s0.8-0.2,1.3-0.2c0.7,0,1.3,0.2,1.6,0.6
							s0.6,1,0.6,1.7V100.4z M175.3,97.8v-0.6l-1.5,0.2c-0.5,0.1-0.9,0.2-1.1,0.4s-0.4,0.5-0.4,0.8c0,0.4,0.1,0.6,0.3,0.8
							s0.5,0.3,0.9,0.3c0.5,0,1-0.2,1.3-0.6S175.3,98.4,175.3,97.8z"/>
						<path class="st5" d="M177.6,100l0.4-0.7c0.2,0.2,0.5,0.3,0.7,0.4s0.5,0.1,0.8,0.1c0.4,0,0.8-0.1,1-0.3s0.3-0.4,0.3-0.8
							c0-0.3-0.1-0.5-0.3-0.7s-0.5-0.3-1-0.5c-0.7-0.2-1.2-0.4-1.5-0.7s-0.4-0.7-0.4-1.1c0-0.5,0.2-0.9,0.6-1.3s0.9-0.5,1.5-0.5
							c0.3,0,0.6,0,0.9,0.1s0.6,0.2,0.9,0.4l-0.4,0.7c-0.2-0.2-0.5-0.3-0.7-0.3s-0.5-0.1-0.7-0.1c-0.4,0-0.7,0.1-0.9,0.2
							s-0.3,0.4-0.3,0.7c0,0.3,0.1,0.5,0.3,0.6s0.5,0.3,1,0.4c0.6,0.2,1.1,0.4,1.4,0.7s0.5,0.7,0.5,1.2c0,0.6-0.2,1-0.6,1.3
							s-0.9,0.5-1.6,0.5c-0.4,0-0.7-0.1-1.1-0.2S177.9,100.2,177.6,100z"/>
						<path class="st5" d="M183.7,100.5c-0.2,0-0.3-0.1-0.5-0.2s-0.2-0.3-0.2-0.4s0.1-0.3,0.2-0.4s0.3-0.2,0.5-0.2
							c0.2,0,0.3,0.1,0.5,0.2s0.2,0.3,0.2,0.4s-0.1,0.3-0.2,0.4S183.9,100.5,183.7,100.5z"/>
					</g>
				</g>
				<g>
					<path class="st6" d="M169.8,138.1h-59c-1.1,0-1.9-0.9-1.9-1.9v-15.5c0-1.1,0.9-1.9,1.9-1.9h59c1.1,0,1.9,0.9,1.9,1.9v15.5
						C171.8,137.2,170.9,138.1,169.8,138.1z"/>
					<g>
						<text transform="matrix(1 0 0 1 116.9617 130.9866)"><tspan x="0" y="0" class="st4 st7 st8">S</tspan><tspan x="4.2" y="0" class="st4 st7 st8">aiba mais</tspan></text>
						<path class="st4" d="M163.6,128.3c0,0.1-0.1,0.1-0.1,0.1c-1.3,1.3-2.5,2.5-3.8,3.8c-0.1,0.1-0.2,0.1-0.3,0.2h-0.2
							c-0.3-0.1-0.4-0.3-0.6-0.5c-0.1-0.2-0.1-0.4,0-0.6c0,0,0.1-0.1,0.1-0.1c1-1,2.1-2.1,3.1-3.1c0,0,0.1,0,0.1-0.1
							c0,0-0.1-0.1-0.1-0.1c-1-1-2.1-2.1-3.1-3.1c-0.2-0.2-0.2-0.4-0.1-0.6c0.1-0.2,0.3-0.3,0.5-0.5c0.2-0.1,0.4-0.1,0.5,0
							c0,0,0,0,0.1,0.1c1.3,1.3,2.5,2.5,3.8,3.8C163.6,127.8,163.7,128.1,163.6,128.3z"/>
					</g>
				</g>
			</g>
		</g>
	</g>
	<g>
		<path class="st9" d="M372.6,21.1L372.6,21.1c-5.8,0-10.6-4.8-10.6-10.6v0c0-5.8,4.8-10.6,10.6-10.6h0c5.8,0,10.6,4.8,10.6,10.6v0
			C383.2,16.4,378.4,21.1,372.6,21.1z"/>
		<polygon class="st10" points="372.6,5.2 374.4,8.7 378.3,9.3 375.4,12 376.1,15.9 372.6,14.1 369.2,15.9 369.8,12 367,9.3 
			370.9,8.7 		"/>
	</g>
</g>
</svg>
