<?xml version="1.0" encoding="utf-8"?>
<!-- Generator: Adobe Illustrator 26.3.0, SVG Export Plug-In . SVG Version: 6.00 Build 0)  -->
<svg version="1.1" id="Camada_1" xmlns="http://www.w3.org/2000/svg" xmlns:xlink="http://www.w3.org/1999/xlink" x="0px" y="0px"
	 width="168.2px" height="32.1px" viewBox="0 0 168.2 32.1" style="enable-background:new 0 0 168.2 32.1;" xml:space="preserve">
<style type="text/css">
	.st0{fill:#2A1D15;}
	.st1{display:none;}
	.st2{display:inline;fill:#2A1D15;}
	.st3{fill:#E1E1E1;}
	.st4{fill:#F4E2CD;}
	.st5{fill:url(#SVGID_1_);}
	.st6{fill:url(#SVGID_00000072255024835147267150000010865108936266137729_);}
	.st7{fill:url(#SVGID_00000095329766875637565140000014912013802841542809_);}
</style>
<g>
	<g>
		<g>
			<path class="st0" d="M25.3,32.1H6.8c-3.7,0-6.7-3-6.7-6.7V6.9c0-3.7,3-6.7,6.7-6.7h18.5c3.7,0,6.7,3,6.7,6.7v18.5
				C31.9,29.1,28.9,32.1,25.3,32.1z"/>
		</g>
		<g class="st1">
			<path class="st2" d="M26.8,18.6c-0.1,0.4-0.4,0.7-0.8,0.7c-0.3,0-0.5,0-0.8,0c-0.1,0-0.2,0-0.3,0.2c0,0.1,0,0.1-0.1,0.2
				c-0.3,0.4-0.1,0.7,0.2,1c0.7,0.6,0.7,0.8,0.2,1.6c-0.9,1.3-1.9,2.3-3.2,3.2c-0.5,0.3-0.8,0.3-1.2-0.1c0,0-0.1-0.1-0.1-0.1
				c-0.2-0.2-0.4-0.5-0.6-0.5c-0.2,0-0.5,0.2-0.8,0.3c-0.1,0-0.1,0.1-0.1,0.2c0,0.3,0,0.6,0,0.9c0,0.4-0.2,0.7-0.6,0.8
				C18,27,17.4,27,16.8,27.2V20c2.2-0.6,3.2-2.5,3.1-4c-0.1-1.6-1.1-3.2-3.1-3.7V5.1c0.6,0.1,1.2,0.2,1.8,0.3
				c0.4,0.1,0.6,0.4,0.6,0.7c0,0.3,0,0.6,0,0.8c0,0.2,0.1,0.3,0.2,0.3c0.1,0,0.1,0,0.2,0.1c0.4,0.3,0.7,0.1,1-0.2
				c0.6-0.7,0.9-0.7,1.6-0.2c1.3,0.9,2.3,1.9,3.2,3.2c0.3,0.5,0.3,0.8-0.1,1.2c0,0,0,0-0.1,0.1c-0.2,0.2-0.5,0.4-0.5,0.6
				c0,0.2,0.2,0.5,0.3,0.8c0,0.1,0.1,0.1,0.2,0.1c0.3,0,0.6,0,0.8,0c0.5,0,0.7,0.2,0.8,0.7C27.2,15.3,27.2,17,26.8,18.6z"/>
			<path class="st2" d="M15.2,6.4c0,6.5,0,12.9,0,19.4c0,0.1-0.1,0.2-0.1,0.3C12.8,28,9.2,27.2,8,24.5c0,0,0-0.1-0.1-0.2
				c1.2,0.2,2.3,0.2,3.4-0.2c0.6-0.2,1.2-0.6,1.7-1c0.4-0.3,0.4-0.8,0.2-1.2c-0.3-0.4-0.8-0.4-1.2-0.1c-1.5,1.2-3.4,1.4-5,0.4
				c-1.6-1-2.4-3-1.8-4.7c0-0.1,0.1-0.2,0.1-0.3c0.1,0.1,0.2,0.2,0.3,0.3c0.8,0.9,1.7,1.4,2.8,1.7c0.4,0.1,0.8-0.1,1-0.6
				c0.1-0.4-0.1-0.8-0.6-1c-0.8-0.2-1.4-0.5-2-1.1c-0.9-1-1.1-2.1-1-3.3c0.1-1.3,0.9-2.3,2-2.9c0,0,0.1,0,0.1-0.1
				c0,0.3,0,0.6,0.1,0.9c0.2,1.8,1,3.3,2.5,4.4c0.1,0.1,0.1,0.2,0.1,0.3c-0.1,1.6,0.5,2.9,1.6,4c0.3,0.3,0.8,0.3,1.1,0
				c0.3-0.3,0.3-0.8,0.1-1.1c-0.2-0.2-0.4-0.4-0.5-0.6c-0.4-0.5-0.6-1-0.6-1.6c-0.1-1.1,0.2-2.1,1-2.9c0.1-0.1,0.3-0.3,0.3-0.5
				c0.1-0.3-0.1-0.7-0.4-0.8c-0.3-0.2-0.7-0.1-0.9,0.2c-0.4,0.5-0.8,1-1.2,1.5c-0.6-0.5-1-1.3-1.3-2.1c-0.3-1.1-0.3-2.3,0.2-3.4
				c0.9-2,3.1-3,5.1-2.3C15.2,6.1,15.2,6.2,15.2,6.4z"/>
		</g>
	</g>
</g>
<g>
	<g>
		<g>
			<g>
				<path class="st3" d="M44.2,21.6l1.3-2.3c0.8,0.5,1.5,0.9,2.2,1.1c0.7,0.2,1.4,0.3,2.2,0.3c1,0,1.8-0.2,2.3-0.6
					c0.6-0.4,0.9-1,0.9-1.8c0-0.7-0.2-1.3-0.7-1.7s-1.3-0.8-2.4-1.1c-1.8-0.5-3.1-1.2-3.9-1.9c-0.8-0.8-1.2-1.8-1.2-3.2
					c0-1.4,0.5-2.6,1.6-3.6c1.1-1,2.5-1.4,4.4-1.4c0.8,0,1.6,0.1,2.4,0.3c0.8,0.2,1.6,0.5,2.3,0.9l-1.1,2.3
					c-0.6-0.3-1.3-0.6-1.9-0.8c-0.6-0.2-1.2-0.2-1.8-0.2c-0.9,0-1.6,0.2-2.1,0.6c-0.5,0.4-0.8,1-0.8,1.7c0,0.6,0.2,1.1,0.7,1.5
					c0.5,0.4,1.3,0.7,2.5,1.1c1.8,0.5,3.1,1.2,3.9,2c0.8,0.8,1.2,1.9,1.2,3.3c0,1.5-0.5,2.8-1.6,3.7s-2.6,1.5-4.6,1.5
					c-1,0-2-0.1-2.9-0.4S45,22.1,44.2,21.6z"/>
				<path class="st3" d="M64.7,23.2c-2,0-3.6-0.6-4.7-1.8c-1.2-1.2-1.7-2.8-1.7-4.8c0-2.1,0.6-3.8,1.8-4.9c1.2-1.2,2.8-1.8,4.9-1.8
					c2,0,3.5,0.6,4.6,1.7s1.7,2.8,1.7,4.8c0,2.1-0.6,3.7-1.8,4.9C68.3,22.6,66.7,23.2,64.7,23.2z M64.8,20.9c1.1,0,2-0.4,2.6-1.1
					c0.6-0.8,0.9-1.8,0.9-3.3c0-1.4-0.3-2.5-0.9-3.2c-0.6-0.7-1.5-1.1-2.6-1.1c-1.1,0-2,0.4-2.7,1.2c-0.6,0.8-1,1.9-1,3.2
					c0,1.4,0.3,2.4,1,3.2C62.8,20.5,63.7,20.9,64.8,20.9z"/>
				<path class="st3" d="M77.3,21.3L77.3,21.3l0,1.6h-2.9V4.6h2.9v7.7h0c0.5-0.8,1.1-1.4,1.8-1.8c0.7-0.4,1.5-0.6,2.5-0.6
					c1.6,0,2.9,0.6,3.8,1.7c0.9,1.1,1.4,2.6,1.4,4.6c0,2.1-0.5,3.8-1.6,5.1c-1,1.3-2.4,1.9-4.2,1.9c-0.8,0-1.5-0.2-2.1-0.5
					C78.2,22.4,77.7,21.9,77.3,21.3z M77.2,16v1.5c0,1,0.3,1.8,0.9,2.4c0.6,0.6,1.3,1,2.2,1c1.1,0,1.9-0.4,2.5-1.2
					c0.6-0.8,0.9-2,0.9-3.5c0-1.2-0.3-2.2-0.8-2.9c-0.6-0.7-1.3-1.1-2.3-1.1c-1,0-1.8,0.4-2.5,1.1C77.5,14,77.2,14.9,77.2,16z"/>
				<path class="st3" d="M96.8,12.7c-0.2,0-0.3-0.1-0.5-0.1s-0.3,0-0.5,0c-1,0-1.8,0.4-2.3,1.1s-0.8,1.8-0.8,3v6.2h-2.9V10.2h2.9
					v2.4h0c0.3-0.9,0.7-1.5,1.3-2c0.6-0.4,1.3-0.7,2.1-0.7c0.2,0,0.4,0,0.6,0c0.2,0,0.4,0.1,0.5,0.1L96.8,12.7z"/>
				<path class="st3" d="M110,17.3h-8.6c0.1,1.2,0.4,2.1,1,2.7s1.5,0.9,2.7,0.9c0.5,0,1-0.1,1.6-0.3s1.2-0.5,1.8-0.9l1.3,1.8
					c-0.8,0.6-1.6,1-2.4,1.2c-0.8,0.3-1.7,0.4-2.7,0.4c-2,0-3.5-0.6-4.6-1.7c-1.1-1.1-1.6-2.7-1.7-4.8c0-2,0.6-3.7,1.7-4.9
					c1.1-1.2,2.6-1.9,4.4-1.9c1.7,0,3,0.5,4,1.6c1,1.1,1.5,2.6,1.5,4.5V17.3z M107.3,15.3c0-1.1-0.2-1.9-0.7-2.5
					c-0.5-0.6-1.1-0.8-2-0.8c-0.8,0-1.5,0.3-2.1,0.9s-0.9,1.4-1,2.4H107.3z"/>
				<path class="st3" d="M138.6,22.9h-2.9v-7.2c0-1.2-0.2-2.1-0.6-2.6c-0.4-0.5-1-0.8-1.9-0.8c-0.8,0-1.4,0.3-1.9,1
					c-0.5,0.7-0.8,1.5-0.8,2.5v7.2h-2.9v-7.4c0-1.1-0.2-1.9-0.6-2.4c-0.4-0.5-1-0.8-1.9-0.8c-0.8,0-1.4,0.3-1.9,1
					c-0.5,0.6-0.7,1.5-0.7,2.6v7.1h-2.9V10.2h2.9v2h0c0.4-0.7,1-1.3,1.7-1.7c0.7-0.4,1.5-0.6,2.3-0.6s1.6,0.2,2.2,0.7
					c0.6,0.4,1.1,1.1,1.4,1.8c0.5-0.8,1.1-1.5,1.8-1.9c0.7-0.4,1.5-0.6,2.5-0.6c1.4,0,2.4,0.4,3.1,1.3c0.7,0.9,1,2.1,1,3.8V22.9z"/>
				<path class="st3" d="M143.7,8c-0.5,0-1-0.2-1.3-0.5c-0.3-0.3-0.5-0.7-0.5-1.2c0-0.5,0.2-0.9,0.5-1.2c0.3-0.3,0.8-0.5,1.3-0.5
					s1,0.2,1.3,0.5c0.3,0.3,0.5,0.7,0.5,1.2c0,0.5-0.2,0.9-0.5,1.2C144.7,7.8,144.2,8,143.7,8z M145.1,22.9h-2.9V10.2h2.9V22.9z"/>
				<path class="st3" d="M168.1,22.9h-2.9v-7.2c0-1.2-0.2-2.1-0.6-2.6c-0.4-0.5-1-0.8-1.9-0.8c-0.8,0-1.4,0.3-1.9,1
					c-0.5,0.7-0.8,1.5-0.8,2.5v7.2h-2.9v-7.4c0-1.1-0.2-1.9-0.6-2.4c-0.4-0.5-1-0.8-1.9-0.8c-0.8,0-1.4,0.3-1.9,1
					c-0.5,0.6-0.7,1.5-0.7,2.6v7.1h-2.9V10.2h2.9v2h0c0.4-0.7,1-1.3,1.7-1.7c0.7-0.4,1.5-0.6,2.3-0.6s1.6,0.2,2.2,0.7
					c0.6,0.4,1.1,1.1,1.4,1.8c0.5-0.8,1.1-1.5,1.8-1.9c0.7-0.4,1.5-0.6,2.5-0.6c1.4,0,2.4,0.4,3.1,1.3c0.7,0.9,1,2.1,1,3.8V22.9z"/>
			</g>
		</g>
	</g>
</g>
<rect x="18.4" y="18" class="st4" width="6.7" height="9.7"/>
<g>
	<g>
		<linearGradient id="SVGID_1_" gradientUnits="userSpaceOnUse" x1="15.4522" y1="16.4127" x2="15.4522" y2="4.0792">
			<stop  offset="0" style="stop-color:#F28B3C"/>
			<stop  offset="1" style="stop-color:#F1AC82"/>
		</linearGradient>
		<path class="st5" d="M21.6,10.2c0,3.4-2.8,6.2-6.2,6.2c-3.4,0-6.2-2.8-6.2-6.2s2.8-6.2,6.2-6.2C18.9,4.1,21.6,6.8,21.6,10.2z"/>
		
			<linearGradient id="SVGID_00000136391935463286480620000015665016581117192380_" gradientUnits="userSpaceOnUse" x1="10.5221" y1="23.0868" x2="10.5221" y2="13.387">
			<stop  offset="0" style="stop-color:#F28B3C"/>
			<stop  offset="1" style="stop-color:#F1AC82"/>
		</linearGradient>
		<path style="fill:url(#SVGID_00000136391935463286480620000015665016581117192380_);" d="M15.2,22.2c0,1.8,0.6,3.4,1.8,4.8
			c-0.1,0-0.1,0-0.2,0c-3.6,0-7.3,0-10.9,0c-1.1,0-1.9-0.8-1.9-1.9c0-0.7,0-1.4,0-2.1c0.2-1.2,0.9-2.2,1.8-2.9c1.2-1,2.6-1.5,4-2
			c2.2-0.7,4.5-0.8,6.8-0.7c0.1,0,0.3,0,0.5,0C15.9,18.8,15.2,20.4,15.2,22.2z"/>
		
			<linearGradient id="SVGID_00000106837460313508004170000001909650940840740284_" gradientUnits="userSpaceOnUse" x1="22.1905" y1="23.6989" x2="22.1905" y2="11.9203">
			<stop  offset="0" style="stop-color:#F28B3C"/>
			<stop  offset="1" style="stop-color:#F1AC82"/>
		</linearGradient>
		<path style="fill:url(#SVGID_00000106837460313508004170000001909650940840740284_);" d="M22.2,16.4c-3.2,0-5.9,2.6-5.9,5.9
			c0,3.2,2.6,5.9,5.9,5.9c3.3,0,5.9-2.6,5.9-5.9C28.1,19.1,25.5,16.4,22.2,16.4z M23,25.1c0,0.5-0.4,0.9-0.8,0.9
			c-0.5,0-0.8-0.4-0.8-0.9c0-0.9,0-1.8,0-2.8c0-0.5,0.4-0.9,0.9-0.9c0.5,0,0.8,0.4,0.8,0.9c0,0,0,0,0,0.1v1.3c0,0.3,0,0.5,0,0.8
			C23,24.7,23,24.9,23,25.1z M22.2,20.9c-0.6,0-1.1-0.5-1.1-1.1c0-0.6,0.5-1.1,1.1-1.1c0.6,0,1.1,0.5,1.1,1.1
			C23.3,20.4,22.8,20.9,22.2,20.9z"/>
	</g>
</g>
</svg>
