<?xml version="1.0" encoding="utf-8"?>
<!-- Generator: Adobe Illustrator 26.3.0, SVG Export Plug-In . SVG Version: 6.00 Build 0)  -->
<svg version="1.1" id="Camada_1" xmlns="http://www.w3.org/2000/svg" xmlns:xlink="http://www.w3.org/1999/xlink" x="0px" y="0px"
	 width="178.7px" height="32.1px" viewBox="0 0 178.7 32.1" style="enable-background:new 0 0 178.7 32.1;" xml:space="preserve">
<style type="text/css">
	.st0{fill:#14251F;}
	.st1{fill:#369A37;}
	.st2{fill:#E1E1E1;}
</style>
<g>
	<g>
		<g>
			<path class="st0" d="M25.2,32.1H6.7c-3.7,0-6.7-3-6.7-6.7V6.9c0-3.7,3-6.7,6.7-6.7h18.5c3.7,0,6.7,3,6.7,6.7v18.5
				C31.8,29.1,28.8,32.1,25.2,32.1z"/>
		</g>
		<g>
			<path class="st1" d="M26.7,18.6c-0.1,0.4-0.4,0.7-0.8,0.7c-0.3,0-0.5,0-0.8,0c-0.1,0-0.2,0-0.3,0.2c0,0.1,0,0.1-0.1,0.2
				c-0.3,0.4-0.1,0.7,0.2,1c0.7,0.6,0.7,0.8,0.2,1.6c-0.9,1.3-1.9,2.3-3.2,3.2c-0.5,0.3-0.8,0.3-1.2-0.1c0,0-0.1-0.1-0.1-0.1
				c-0.2-0.2-0.4-0.5-0.6-0.5c-0.2,0-0.5,0.2-0.8,0.3c-0.1,0-0.1,0.1-0.1,0.2c0,0.3,0,0.6,0,0.9c0,0.4-0.2,0.7-0.6,0.8
				c-0.6,0.1-1.1,0.2-1.8,0.3V20c2.2-0.6,3.2-2.5,3.1-4c-0.1-1.6-1.1-3.2-3.1-3.7V5.1c0.6,0.1,1.2,0.2,1.8,0.3
				c0.4,0.1,0.6,0.4,0.6,0.7c0,0.3,0,0.6,0,0.8c0,0.2,0.1,0.3,0.2,0.3c0.1,0,0.1,0,0.2,0.1c0.4,0.3,0.7,0.1,1-0.2
				c0.6-0.7,0.9-0.7,1.6-0.2c1.3,0.9,2.3,1.9,3.2,3.2c0.3,0.5,0.3,0.8-0.1,1.2c0,0,0,0-0.1,0.1c-0.2,0.2-0.5,0.4-0.5,0.6
				c0,0.2,0.2,0.5,0.3,0.8c0,0.1,0.1,0.1,0.2,0.1c0.3,0,0.6,0,0.8,0c0.5,0,0.7,0.2,0.8,0.7C27.1,15.3,27.1,17,26.7,18.6z"/>
			<path class="st1" d="M15.2,6.4c0,6.5,0,12.9,0,19.4c0,0.1-0.1,0.2-0.1,0.3c-2.3,1.9-5.9,1.1-7.1-1.6c0,0,0-0.1-0.1-0.2
				c1.2,0.2,2.3,0.2,3.4-0.2c0.6-0.2,1.2-0.6,1.7-1c0.4-0.3,0.4-0.8,0.2-1.2c-0.3-0.4-0.8-0.4-1.2-0.1c-1.5,1.2-3.4,1.4-5,0.4
				c-1.6-1-2.4-3-1.8-4.7c0-0.1,0.1-0.2,0.1-0.3c0.1,0.1,0.2,0.2,0.3,0.3c0.8,0.9,1.7,1.4,2.8,1.7c0.4,0.1,0.8-0.1,1-0.6
				c0.1-0.4-0.1-0.8-0.6-1c-0.8-0.2-1.4-0.5-2-1.1c-0.9-1-1.1-2.1-1-3.3c0.1-1.3,0.9-2.3,2-2.9c0,0,0.1,0,0.1-0.1
				c0,0.3,0,0.6,0.1,0.9c0.2,1.8,1,3.3,2.5,4.4c0.1,0.1,0.1,0.2,0.1,0.3c-0.1,1.6,0.5,2.9,1.6,4c0.3,0.3,0.8,0.3,1.1,0
				c0.3-0.3,0.3-0.8,0.1-1.1c-0.2-0.2-0.4-0.4-0.5-0.6c-0.4-0.5-0.6-1-0.6-1.6c-0.1-1.1,0.2-2.1,1-2.9c0.1-0.1,0.3-0.3,0.3-0.5
				c0.1-0.3-0.1-0.7-0.4-0.8c-0.3-0.2-0.7-0.1-0.9,0.2c-0.4,0.5-0.8,1-1.2,1.5c-0.6-0.5-1-1.3-1.3-2.1c-0.3-1.1-0.3-2.3,0.2-3.4
				c0.9-2,3.1-3,5.1-2.3C15.1,6.1,15.2,6.2,15.2,6.4z"/>
		</g>
	</g>
</g>
<g>
	<g>
		<g>
			<g>
				<path class="st2" d="M56.7,8.1h-5v14.8h-2.9V8.1h-5V5.6h12.9V8.1z"/>
				<path class="st2" d="M67.5,17.3h-8.6c0.1,1.2,0.4,2.1,1,2.7s1.5,0.9,2.7,0.9c0.5,0,1-0.1,1.6-0.3s1.2-0.5,1.8-0.9l1.3,1.8
					c-0.8,0.6-1.6,1-2.4,1.2c-0.8,0.3-1.7,0.4-2.7,0.4c-2,0-3.5-0.6-4.6-1.7c-1.1-1.1-1.6-2.7-1.7-4.8c0-2,0.6-3.7,1.7-4.9
					c1.1-1.2,2.6-1.9,4.4-1.9c1.7,0,3,0.5,4,1.6c1,1.1,1.5,2.6,1.5,4.5V17.3z M64.7,15.3c0-1.1-0.2-1.9-0.7-2.5
					c-0.5-0.6-1.1-0.8-2-0.8c-0.8,0-1.5,0.3-2.1,0.9s-0.9,1.4-1,2.4H64.7z"/>
				<path class="st2" d="M79.9,22.1c-0.6,0.4-1.3,0.7-1.9,0.9c-0.6,0.2-1.3,0.3-2,0.3c-1.9,0-3.5-0.6-4.7-1.7
					c-1.2-1.1-1.7-2.7-1.7-4.6c0-2.1,0.6-3.8,1.8-5s2.8-1.9,4.9-1.9c0.7,0,1.4,0.1,1.9,0.2c0.6,0.2,1.2,0.4,1.8,0.7l-1.1,2
					c-0.4-0.2-0.8-0.4-1.2-0.5c-0.4-0.1-0.8-0.2-1.3-0.2c-1.2,0-2.2,0.4-2.8,1.2s-1,1.9-1,3.2c0,1.4,0.4,2.4,1.1,3.2
					c0.7,0.7,1.6,1.1,2.7,1.1c0.4,0,0.7-0.1,1.2-0.2c0.4-0.1,0.9-0.3,1.3-0.6L79.9,22.1z"/>
				<path class="st2" d="M93.8,22.9H91v-7.1c0-1.2-0.2-2.1-0.6-2.6c-0.4-0.6-1.1-0.9-1.9-0.9c-0.9,0-1.6,0.3-2.1,1
					c-0.6,0.7-0.8,1.5-0.8,2.5v7.2h-2.9V10.2h2.9v2h0c0.5-0.8,1-1.4,1.7-1.8c0.7-0.4,1.5-0.6,2.4-0.6c1.4,0,2.4,0.4,3.2,1.3
					c0.7,0.9,1.1,2.2,1.1,3.9V22.9z"/>
				<path class="st2" d="M103.1,23.2c-2,0-3.6-0.6-4.7-1.8c-1.2-1.2-1.7-2.8-1.7-4.8c0-2.1,0.6-3.8,1.8-4.9c1.2-1.2,2.8-1.8,4.9-1.8
					c2,0,3.5,0.6,4.6,1.7s1.7,2.8,1.7,4.8c0,2.1-0.6,3.7-1.8,4.9C106.7,22.6,105.1,23.2,103.1,23.2z M103.2,20.9
					c1.1,0,2-0.4,2.6-1.1c0.6-0.8,0.9-1.8,0.9-3.3c0-1.4-0.3-2.5-0.9-3.2c-0.6-0.7-1.5-1.1-2.6-1.1c-1.1,0-2,0.4-2.7,1.2
					c-0.6,0.8-1,1.9-1,3.2c0,1.4,0.3,2.4,1,3.2C101.2,20.5,102.1,20.9,103.2,20.9z"/>
				<path class="st2" d="M112.7,22.9V4.6h2.9v18.3H112.7z"/>
				<path class="st2" d="M125.1,23.2c-2,0-3.6-0.6-4.7-1.8c-1.2-1.2-1.7-2.8-1.7-4.8c0-2.1,0.6-3.8,1.8-4.9c1.2-1.2,2.8-1.8,4.9-1.8
					c2,0,3.5,0.6,4.6,1.7s1.7,2.8,1.7,4.8c0,2.1-0.6,3.7-1.8,4.9C128.7,22.6,127.1,23.2,125.1,23.2z M125.2,20.9
					c1.1,0,2-0.4,2.6-1.1c0.6-0.8,0.9-1.8,0.9-3.3c0-1.4-0.3-2.5-0.9-3.2c-0.6-0.7-1.5-1.1-2.6-1.1c-1.1,0-2,0.4-2.7,1.2
					c-0.6,0.8-1,1.9-1,3.2c0,1.4,0.3,2.4,1,3.2C123.2,20.5,124.1,20.9,125.2,20.9z"/>
				<path class="st2" d="M146.3,21.7c0,2.2-0.6,3.9-1.8,5.1c-1.2,1.2-2.9,1.9-5.2,1.9c-0.9,0-1.7-0.1-2.5-0.3s-1.5-0.4-2.3-0.8
					l0.9-2c0.7,0.3,1.3,0.5,1.9,0.7s1.3,0.2,2,0.2c1.3,0,2.3-0.4,3-1.1c0.7-0.8,1.1-1.8,1.1-3.2v-1.2h-0.1c-0.5,0.8-1,1.3-1.7,1.7
					c-0.7,0.4-1.5,0.6-2.4,0.6c-1.6,0-2.9-0.6-3.8-1.7c-1-1.1-1.4-2.6-1.4-4.5c0-2.1,0.5-3.8,1.6-5.1s2.4-1.9,4.2-1.9
					c0.8,0,1.5,0.2,2.1,0.5c0.6,0.3,1.1,0.8,1.5,1.5h0.1v-1.6h2.9V21.7z M143.4,17v-1.5c0-0.9-0.3-1.7-0.9-2.3c-0.6-0.6-1.3-1-2.2-1
					c-1.1,0-1.9,0.4-2.5,1.2c-0.6,0.8-0.9,1.9-0.9,3.4c0,1.3,0.3,2.3,0.9,3s1.4,1.1,2.4,1.1c1,0,1.8-0.4,2.4-1.1
					S143.4,18.2,143.4,17z"/>
				<path class="st2" d="M151.6,8c-0.5,0-1-0.2-1.3-0.5c-0.3-0.3-0.5-0.7-0.5-1.2c0-0.5,0.2-0.9,0.5-1.2c0.3-0.3,0.8-0.5,1.3-0.5
					s1,0.2,1.3,0.5c0.3,0.3,0.5,0.7,0.5,1.2c0,0.5-0.2,0.9-0.5,1.2C152.5,7.8,152.1,8,151.6,8z M153,22.9h-2.9V10.2h2.9V22.9z"/>
				<path class="st2" d="M166.7,22.9h-2.8V21h0c-0.4,0.7-1,1.3-1.6,1.7c-0.6,0.4-1.4,0.6-2.2,0.6c-1.2,0-2.1-0.3-2.9-1
					c-0.7-0.7-1.1-1.6-1.1-2.8c0-1.1,0.4-2.1,1.1-2.8c0.8-0.7,1.9-1.2,3.4-1.4l3.4-0.4v-0.3c0-0.9-0.2-1.5-0.7-1.9
					c-0.4-0.4-1.1-0.6-1.8-0.6c-0.6,0-1.2,0.1-1.8,0.3c-0.6,0.2-1.2,0.6-1.8,1l-1.2-1.7c0.8-0.6,1.6-1,2.4-1.3s1.7-0.4,2.7-0.4
					c1.7,0,2.9,0.4,3.8,1.3c0.8,0.8,1.2,2.1,1.2,3.8V22.9z M164,17.7v-1.1l-2.7,0.4c-0.8,0.1-1.4,0.3-1.8,0.7s-0.6,0.8-0.6,1.4
					c0,0.6,0.2,1.1,0.6,1.4c0.4,0.3,0.9,0.5,1.5,0.5c0.9,0,1.7-0.3,2.2-0.9C163.7,19.5,164,18.7,164,17.7z"/>
				<path class="st2" d="M169.2,21.9l1.3-2c0.5,0.3,1,0.6,1.5,0.8s1.2,0.3,1.8,0.3c0.7,0,1.3-0.1,1.7-0.4c0.4-0.3,0.6-0.6,0.6-1.2
					c0-0.4-0.2-0.8-0.5-1s-0.9-0.5-1.7-0.7c-1.6-0.4-2.7-0.9-3.3-1.5c-0.6-0.6-0.9-1.4-0.9-2.4c0-1.1,0.5-2.1,1.4-2.8
					c0.9-0.7,2.1-1.1,3.5-1.1c0.7,0,1.4,0.1,2,0.3c0.6,0.2,1.3,0.5,1.9,0.9l-1.1,2c-0.5-0.3-1-0.6-1.5-0.7c-0.4-0.1-0.9-0.2-1.4-0.2
					c-0.7,0-1.2,0.1-1.6,0.4s-0.6,0.6-0.6,1.1s0.2,0.8,0.5,1c0.4,0.2,1,0.5,1.9,0.7c1.4,0.3,2.4,0.8,3,1.4s1,1.5,1,2.5
					c0,1.2-0.4,2.2-1.3,2.9c-0.9,0.7-2.1,1.1-3.6,1.1c-0.8,0-1.6-0.1-2.4-0.3C170.6,22.7,169.9,22.3,169.2,21.9z"/>
			</g>
		</g>
	</g>
</g>
</svg>
