<?xml version="1.0" encoding="utf-8"?>
<!-- Generator: Adobe Illustrator 26.3.0, SVG Export Plug-In . SVG Version: 6.00 Build 0)  -->
<svg version="1.1" id="Camada_1" xmlns="http://www.w3.org/2000/svg" xmlns:xlink="http://www.w3.org/1999/xlink" x="0px" y="0px"
	 width="191.2px" height="32.7px" viewBox="0 0 191.2 32.7" style="enable-background:new 0 0 191.2 32.7;" xml:space="preserve">
<style type="text/css">
	.st0{fill:#14251F;}
	.st1{fill:#369A37;}
	.st2{fill:#E1E1E1;}
	.st3{fill:#6E7580;}
</style>
<g>
	<g>
		<g>
			<path class="st0" d="M25.2,32.7H6.7c-3.7,0-6.7-3-6.7-6.7V7.6c0-3.7,3-6.7,6.7-6.7h18.5c3.7,0,6.7,3,6.7,6.7v18.5
				C31.8,29.7,28.8,32.7,25.2,32.7z"/>
		</g>
		<g>
			<path class="st1" d="M26.7,19.3c-0.1,0.4-0.4,0.7-0.8,0.7c-0.3,0-0.5,0-0.8,0c-0.1,0-0.2,0-0.3,0.2c0,0.1,0,0.1-0.1,0.2
				c-0.3,0.4-0.1,0.7,0.2,1c0.7,0.6,0.7,0.8,0.2,1.6c-0.9,1.3-1.9,2.3-3.2,3.2c-0.5,0.3-0.8,0.3-1.2-0.1c0,0-0.1-0.1-0.1-0.1
				c-0.2-0.2-0.4-0.5-0.6-0.5c-0.2,0-0.5,0.2-0.8,0.3c-0.1,0-0.1,0.1-0.1,0.2c0,0.3,0,0.6,0,0.9c0,0.4-0.2,0.7-0.6,0.8
				c-0.6,0.1-1.1,0.2-1.8,0.3v-7.1c2.2-0.6,3.2-2.5,3.1-4c-0.1-1.6-1.1-3.2-3.1-3.7V5.8c0.6,0.1,1.2,0.2,1.8,0.3
				c0.4,0.1,0.6,0.4,0.6,0.7c0,0.3,0,0.6,0,0.8c0,0.2,0.1,0.3,0.2,0.3c0.1,0,0.1,0,0.2,0.1c0.4,0.3,0.7,0.1,1-0.2
				c0.6-0.7,0.9-0.7,1.6-0.2c1.3,0.9,2.3,1.9,3.2,3.2c0.3,0.5,0.3,0.8-0.1,1.2c0,0,0,0-0.1,0.1c-0.2,0.2-0.5,0.4-0.5,0.6
				c0,0.2,0.2,0.5,0.3,0.8c0,0.1,0.1,0.1,0.2,0.1c0.3,0,0.6,0,0.8,0c0.5,0,0.7,0.2,0.8,0.7C27.1,16,27.1,17.6,26.7,19.3z"/>
			<path class="st1" d="M15.2,7c0,6.5,0,12.9,0,19.4c0,0.1-0.1,0.2-0.1,0.3c-2.3,1.9-5.9,1.1-7.1-1.6c0,0,0-0.1-0.1-0.2
				c1.2,0.2,2.3,0.2,3.4-0.2c0.6-0.2,1.2-0.6,1.7-1c0.4-0.3,0.4-0.8,0.2-1.2c-0.3-0.4-0.8-0.4-1.2-0.1c-1.5,1.2-3.4,1.4-5,0.4
				c-1.6-1-2.4-3-1.8-4.7c0-0.1,0.1-0.2,0.1-0.3c0.1,0.1,0.2,0.2,0.3,0.3c0.8,0.9,1.7,1.4,2.8,1.7c0.4,0.1,0.8-0.1,1-0.6
				c0.1-0.4-0.1-0.8-0.6-1c-0.8-0.2-1.4-0.5-2-1.1c-0.9-1-1.1-2.1-1-3.3c0.1-1.3,0.9-2.3,2-2.9c0,0,0.1,0,0.1-0.1
				c0,0.3,0,0.6,0.1,0.9c0.2,1.8,1,3.3,2.5,4.4c0.1,0.1,0.1,0.2,0.1,0.3c-0.1,1.6,0.5,2.9,1.6,4c0.3,0.3,0.8,0.3,1.1,0
				c0.3-0.3,0.3-0.8,0.1-1.1c-0.2-0.2-0.4-0.4-0.5-0.6c-0.4-0.5-0.6-1-0.6-1.6c-0.1-1.1,0.2-2.1,1-2.9c0.1-0.1,0.3-0.3,0.3-0.5
				c0.1-0.3-0.1-0.7-0.4-0.8c-0.3-0.2-0.7-0.1-0.9,0.2c-0.4,0.5-0.8,1-1.2,1.5c-0.6-0.5-1-1.3-1.3-2.1c-0.3-1.1-0.3-2.3,0.2-3.4
				c0.9-2,3.1-3,5.1-2.3C15.1,6.8,15.2,6.9,15.2,7z"/>
		</g>
	</g>
</g>
<g>
	<g>
		<g>
			<g>
				<path class="st2" d="M52.4,3h-4v12H46V3h-4V1h10.4V3z"/>
				<path class="st2" d="M61.1,10.5h-7c0,1,0.3,1.7,0.8,2.2s1.2,0.8,2.2,0.8c0.4,0,0.8-0.1,1.3-0.2c0.5-0.2,1-0.4,1.5-0.7l1,1.5
					c-0.6,0.5-1.3,0.8-2,1c-0.7,0.2-1.4,0.3-2.2,0.3c-1.6,0-2.8-0.5-3.7-1.4s-1.3-2.2-1.3-3.9c0-1.6,0.5-3,1.4-4
					c0.9-1,2.1-1.5,3.5-1.5c1.4,0,2.5,0.4,3.2,1.3c0.8,0.9,1.2,2.1,1.2,3.7V10.5z M58.9,8.9c0-0.9-0.2-1.5-0.6-2s-0.9-0.7-1.6-0.7
					c-0.7,0-1.2,0.2-1.7,0.7c-0.5,0.5-0.7,1.1-0.8,1.9H58.9z"/>
				<path class="st2" d="M71.2,14.3c-0.5,0.3-1,0.5-1.5,0.7c-0.5,0.1-1.1,0.2-1.7,0.2c-1.6,0-2.8-0.5-3.8-1.4
					c-0.9-0.9-1.4-2.2-1.4-3.7c0-1.7,0.5-3.1,1.5-4.1c1-1,2.3-1.5,4-1.5c0.6,0,1.1,0.1,1.6,0.2c0.5,0.1,1,0.3,1.4,0.6l-0.9,1.6
					c-0.3-0.2-0.7-0.3-1-0.4s-0.7-0.1-1.1-0.1c-1,0-1.8,0.3-2.3,1c-0.5,0.6-0.8,1.5-0.8,2.6c0,1.1,0.3,2,0.9,2.6
					c0.6,0.6,1.3,0.9,2.2,0.9c0.3,0,0.6,0,1-0.1s0.7-0.3,1.1-0.5L71.2,14.3z"/>
				<path class="st2" d="M82.5,15h-2.3V9.2c0-1-0.2-1.7-0.5-2.1s-0.9-0.7-1.5-0.7c-0.7,0-1.3,0.3-1.7,0.8s-0.7,1.2-0.7,2V15h-2.3
					V4.8h2.3v1.7h0c0.4-0.6,0.8-1.1,1.4-1.4c0.6-0.3,1.2-0.5,1.9-0.5c1.1,0,2,0.4,2.6,1.1s0.9,1.8,0.9,3.1V15z"/>
				<path class="st2" d="M90,15.2c-1.6,0-2.9-0.5-3.8-1.4c-0.9-1-1.4-2.2-1.4-3.9c0-1.7,0.5-3,1.5-4c1-1,2.3-1.4,4-1.4
					c1.6,0,2.9,0.5,3.8,1.4c0.9,1,1.4,2.2,1.4,3.9c0,1.7-0.5,3-1.4,4S91.6,15.2,90,15.2z M90.1,13.4c0.9,0,1.6-0.3,2.1-0.9
					c0.5-0.6,0.7-1.5,0.7-2.6c0-1.1-0.2-2-0.7-2.6S91,6.4,90.1,6.4c-0.9,0-1.6,0.3-2.2,0.9c-0.5,0.6-0.8,1.5-0.8,2.6s0.3,2,0.8,2.6
					S89.1,13.4,90.1,13.4z"/>
				<path class="st2" d="M97.8,15V0.2h2.3V15H97.8z"/>
				<path class="st2" d="M107.8,15.2c-1.6,0-2.9-0.5-3.8-1.4c-0.9-1-1.4-2.2-1.4-3.9c0-1.7,0.5-3,1.5-4c1-1,2.3-1.4,4-1.4
					c1.6,0,2.9,0.5,3.8,1.4c0.9,1,1.4,2.2,1.4,3.9c0,1.7-0.5,3-1.4,4S109.4,15.2,107.8,15.2z M107.9,13.4c0.9,0,1.6-0.3,2.1-0.9
					c0.5-0.6,0.7-1.5,0.7-2.6c0-1.1-0.2-2-0.7-2.6s-1.2-0.9-2.1-0.9c-0.9,0-1.6,0.3-2.2,0.9c-0.5,0.6-0.8,1.5-0.8,2.6s0.3,2,0.8,2.6
					S107,13.4,107.9,13.4z"/>
				<path class="st2" d="M124.9,14c0,1.8-0.5,3.2-1.5,4.2c-1,1-2.4,1.5-4.2,1.5c-0.7,0-1.4-0.1-2-0.2c-0.6-0.1-1.2-0.4-1.9-0.7
					l0.8-1.7c0.5,0.2,1,0.4,1.5,0.5c0.5,0.1,1,0.2,1.6,0.2c1.1,0,1.9-0.3,2.5-0.9c0.6-0.6,0.9-1.5,0.9-2.6v-1h0
					c-0.4,0.6-0.8,1.1-1.4,1.4c-0.6,0.3-1.2,0.5-2,0.5c-1.3,0-2.3-0.5-3.1-1.4s-1.2-2.1-1.2-3.7c0-1.7,0.4-3.1,1.3-4.1
					c0.9-1,2-1.6,3.4-1.6c0.7,0,1.2,0.1,1.7,0.4c0.5,0.3,0.9,0.6,1.2,1.2h0V4.8h2.3V14z M122.6,10.2V9c0-0.7-0.2-1.4-0.7-1.9
					c-0.5-0.5-1.1-0.8-1.8-0.8c-0.9,0-1.6,0.3-2.1,0.9c-0.5,0.6-0.7,1.6-0.7,2.8c0,1,0.2,1.9,0.7,2.4c0.5,0.6,1.1,0.9,1.9,0.9
					c0.8,0,1.4-0.3,1.9-0.9S122.6,11.2,122.6,10.2z"/>
				<path class="st2" d="M129.2,2.9c-0.4,0-0.8-0.1-1-0.4c-0.3-0.3-0.4-0.6-0.4-1c0-0.4,0.1-0.7,0.4-1c0.3-0.3,0.6-0.4,1-0.4
					s0.8,0.1,1.1,0.4c0.3,0.3,0.4,0.6,0.4,1c0,0.4-0.1,0.7-0.4,1S129.6,2.9,129.2,2.9z M130.4,15H128V4.8h2.3V15z"/>
				<path class="st2" d="M141.5,15h-2.2v-1.6h0c-0.3,0.6-0.8,1-1.3,1.3s-1.1,0.5-1.8,0.5c-0.9,0-1.7-0.3-2.3-0.8
					c-0.6-0.6-0.9-1.3-0.9-2.2c0-0.9,0.3-1.7,0.9-2.3c0.6-0.6,1.5-1,2.7-1.1l2.7-0.4V8.2c0-0.7-0.2-1.2-0.5-1.5
					c-0.4-0.3-0.9-0.5-1.5-0.5c-0.5,0-1,0.1-1.5,0.3c-0.5,0.2-1,0.4-1.5,0.8l-1-1.4c0.6-0.5,1.3-0.8,1.9-1.1
					c0.7-0.2,1.4-0.3,2.2-0.3c1.4,0,2.4,0.3,3,1c0.7,0.7,1,1.7,1,3.1V15z M139.2,10.8V10l-2.2,0.3c-0.7,0.1-1.1,0.3-1.5,0.5
					c-0.3,0.3-0.5,0.6-0.5,1.1c0,0.5,0.2,0.9,0.5,1.2c0.3,0.3,0.7,0.4,1.2,0.4c0.7,0,1.4-0.3,1.8-0.8
					C139,12.2,139.2,11.6,139.2,10.8z"/>
				<path class="st2" d="M143.5,14.2l1-1.6c0.4,0.3,0.8,0.5,1.3,0.7c0.4,0.2,0.9,0.3,1.5,0.3c0.6,0,1-0.1,1.3-0.3
					c0.3-0.2,0.5-0.5,0.5-0.9c0-0.3-0.1-0.6-0.4-0.8c-0.3-0.2-0.7-0.4-1.3-0.6c-1.3-0.3-2.2-0.7-2.7-1.2c-0.5-0.5-0.8-1.1-0.8-2
					c0-0.9,0.4-1.7,1.1-2.3c0.7-0.6,1.7-0.9,2.8-0.9c0.6,0,1.1,0.1,1.6,0.2s1,0.4,1.5,0.7L150,7c-0.4-0.3-0.8-0.5-1.2-0.6
					s-0.7-0.2-1.1-0.2c-0.6,0-1,0.1-1.3,0.3c-0.3,0.2-0.5,0.5-0.5,0.9s0.1,0.6,0.4,0.8s0.8,0.4,1.5,0.5c1.1,0.3,1.9,0.7,2.4,1.2
					c0.5,0.5,0.8,1.2,0.8,2c0,1-0.4,1.8-1.1,2.4c-0.7,0.6-1.7,0.9-2.9,0.9c-0.7,0-1.3-0.1-1.9-0.3S144.1,14.5,143.5,14.2z"/>
			</g>
		</g>
	</g>
	<g>
		<g>
			<path class="st3" d="M46.3,31.8c-1.3,0-2.3-0.4-3.1-1.3s-1.2-2-1.2-3.3c0-1.5,0.4-2.6,1.2-3.5c0.8-0.9,1.9-1.3,3.2-1.3
				c1.3,0,2.3,0.4,3,1.3c0.8,0.8,1.1,2,1.1,3.3c0,0.9-0.2,1.7-0.5,2.4c-0.3,0.7-0.8,1.2-1.3,1.6l1.8,1.3l-0.6,0.9l-2.2-1.6
				c-0.2,0.1-0.5,0.1-0.7,0.2S46.5,31.8,46.3,31.8z M46.3,23.4c-1,0-1.7,0.3-2.3,1c-0.6,0.7-0.9,1.6-0.9,2.7c0,1.1,0.3,2,0.9,2.7
				s1.3,1,2.3,1c1,0,1.8-0.3,2.3-1c0.6-0.7,0.8-1.6,0.8-2.7c0-1.2-0.3-2.1-0.8-2.8C48.1,23.7,47.3,23.4,46.3,23.4z"/>
			<path class="st3" d="M57.5,31.7h-1v-1h0c-0.2,0.4-0.5,0.7-0.8,0.9c-0.3,0.2-0.7,0.3-1.2,0.3c-0.8,0-1.4-0.2-1.7-0.7
				c-0.4-0.5-0.6-1.2-0.6-2.1v-3.9h1v3.7c0,0.7,0.1,1.2,0.4,1.5c0.3,0.3,0.7,0.5,1.2,0.5c0.5,0,0.9-0.2,1.3-0.6
				c0.3-0.4,0.5-0.9,0.5-1.5v-3.7h1V31.7z"/>
			<path class="st3" d="M64.8,28.6h-4.6c0,0.7,0.2,1.3,0.6,1.7s0.9,0.6,1.6,0.6c0.3,0,0.6,0,0.9-0.1s0.6-0.2,0.9-0.4l0.5,0.7
				c-0.4,0.2-0.7,0.4-1.1,0.5s-0.8,0.2-1.2,0.2c-1,0-1.7-0.3-2.3-0.9c-0.6-0.6-0.8-1.4-0.8-2.4c0-1,0.3-1.9,0.8-2.5
				c0.6-0.6,1.3-1,2.2-1c0.8,0,1.5,0.3,2,0.8c0.5,0.6,0.7,1.3,0.7,2.3V28.6z M63.8,27.8c0-0.6-0.1-1.1-0.4-1.4
				c-0.3-0.3-0.7-0.5-1.2-0.5c-0.5,0-0.9,0.2-1.3,0.5s-0.6,0.8-0.6,1.4H63.8z"/>
			<path class="st3" d="M75.2,31.7h-1v-1h0c-0.2,0.4-0.5,0.7-0.8,0.9c-0.3,0.2-0.7,0.3-1.2,0.3c-0.8,0-1.4-0.2-1.7-0.7
				C70,30.7,69.8,30,69.8,29v-3.9h1v3.7c0,0.7,0.1,1.2,0.4,1.5c0.3,0.3,0.7,0.5,1.2,0.5c0.5,0,0.9-0.2,1.3-0.6
				c0.3-0.4,0.5-0.9,0.5-1.5v-3.7h1V31.7z"/>
			<path class="st3" d="M76.7,31.2l0.5-0.8c0.3,0.2,0.6,0.3,0.8,0.4c0.3,0.1,0.6,0.1,0.9,0.1c0.4,0,0.8-0.1,1-0.2
				c0.2-0.2,0.3-0.4,0.3-0.7c0-0.3-0.1-0.5-0.3-0.7c-0.2-0.2-0.5-0.3-1-0.4c-0.8-0.2-1.4-0.5-1.7-0.8c-0.3-0.3-0.5-0.7-0.5-1.2
				c0-0.5,0.2-1,0.6-1.3c0.4-0.4,1-0.5,1.7-0.5c0.3,0,0.7,0,1,0.1c0.3,0.1,0.6,0.2,1,0.5l-0.5,0.8c-0.3-0.2-0.6-0.3-0.8-0.4
				c-0.2-0.1-0.5-0.1-0.7-0.1c-0.4,0-0.7,0.1-1,0.2c-0.2,0.2-0.3,0.4-0.3,0.7s0.1,0.5,0.3,0.7c0.2,0.1,0.6,0.3,1.1,0.4
				c0.7,0.2,1.2,0.4,1.5,0.7s0.5,0.7,0.5,1.3c0,0.6-0.2,1.1-0.6,1.4c-0.4,0.3-1,0.5-1.7,0.5c-0.4,0-0.8-0.1-1.1-0.2
				S77,31.4,76.7,31.2z"/>
			<path class="st3" d="M85.5,31.8c-1,0-1.7-0.3-2.3-0.9s-0.9-1.4-0.9-2.4c0-1.1,0.3-1.9,0.9-2.6c0.6-0.6,1.4-0.9,2.4-0.9
				c1,0,1.7,0.3,2.3,0.9c0.5,0.6,0.8,1.4,0.8,2.5c0,1-0.3,1.9-0.9,2.5C87.3,31.5,86.5,31.8,85.5,31.8z M85.6,30.9
				c0.7,0,1.2-0.2,1.6-0.7c0.4-0.4,0.5-1.1,0.5-1.9c0-0.8-0.2-1.4-0.5-1.9c-0.4-0.4-0.9-0.7-1.5-0.7s-1.2,0.2-1.6,0.7
				s-0.6,1.1-0.6,1.9c0,0.8,0.2,1.4,0.6,1.8C84.4,30.7,85,30.9,85.6,30.9z"/>
			<path class="st3" d="M99.4,31.7h-1V28c0-0.7-0.1-1.2-0.4-1.6s-0.6-0.5-1.1-0.5c-0.5,0-1,0.2-1.3,0.6C95.2,26.9,95,27.4,95,28v3.7
				h-1v-6.5h1v1.1h0c0.2-0.4,0.5-0.7,0.9-0.9c0.4-0.2,0.8-0.3,1.2-0.3c0.7,0,1.3,0.2,1.6,0.7c0.4,0.5,0.6,1.1,0.6,2V31.7z"/>
			<path class="st3" d="M104.1,31.8c-1,0-1.7-0.3-2.3-0.9s-0.9-1.4-0.9-2.4c0-1.1,0.3-1.9,0.9-2.6c0.6-0.6,1.4-0.9,2.4-0.9
				c1,0,1.7,0.3,2.3,0.9c0.5,0.6,0.8,1.4,0.8,2.5c0,1-0.3,1.9-0.9,2.5C105.9,31.5,105.1,31.8,104.1,31.8z M104.2,30.9
				c0.7,0,1.2-0.2,1.6-0.7c0.4-0.4,0.5-1.1,0.5-1.9c0-0.8-0.2-1.4-0.5-1.9c-0.4-0.4-0.9-0.7-1.5-0.7s-1.2,0.2-1.6,0.7
				s-0.6,1.1-0.6,1.9c0,0.8,0.2,1.4,0.6,1.8C103,30.7,103.5,30.9,104.2,30.9z"/>
			<path class="st3" d="M121.8,31.7h-1v-3.7c0-0.7-0.1-1.2-0.3-1.6c-0.2-0.3-0.6-0.5-1.1-0.5c-0.4,0-0.8,0.2-1.1,0.6
				c-0.3,0.4-0.5,0.9-0.5,1.5v3.7h-1v-3.9c0-0.6-0.1-1.1-0.4-1.4c-0.2-0.3-0.6-0.5-1.1-0.5c-0.5,0-0.8,0.2-1.1,0.6
				c-0.3,0.4-0.4,0.9-0.4,1.5v3.7h-1v-6.5h1v1h0c0.2-0.4,0.5-0.7,0.9-0.9c0.3-0.2,0.7-0.3,1.2-0.3c0.4,0,0.8,0.1,1.2,0.4
				c0.3,0.2,0.6,0.6,0.7,1c0.2-0.4,0.5-0.8,0.9-1c0.4-0.2,0.8-0.3,1.3-0.3c0.7,0,1.3,0.2,1.6,0.7c0.4,0.4,0.5,1.1,0.5,2V31.7z"/>
			<path class="st3" d="M129,28.6h-4.6c0,0.7,0.2,1.3,0.6,1.7s0.9,0.6,1.6,0.6c0.3,0,0.6,0,0.9-0.1s0.6-0.2,0.9-0.4l0.5,0.7
				c-0.4,0.2-0.7,0.4-1.1,0.5s-0.8,0.2-1.2,0.2c-1,0-1.7-0.3-2.3-0.9c-0.6-0.6-0.8-1.4-0.8-2.4c0-1,0.3-1.9,0.8-2.5
				c0.6-0.6,1.3-1,2.2-1c0.8,0,1.5,0.3,2,0.8c0.5,0.6,0.7,1.3,0.7,2.3V28.6z M127.9,27.8c0-0.6-0.1-1.1-0.4-1.4
				c-0.3-0.3-0.7-0.5-1.2-0.5c-0.5,0-0.9,0.2-1.3,0.5s-0.6,0.8-0.6,1.4H127.9z"/>
			<path class="st3" d="M135.8,31.7h-1v-1h0c-0.2,0.4-0.5,0.7-0.8,0.9c-0.3,0.2-0.7,0.3-1.2,0.3c-0.8,0-1.4-0.2-1.7-0.7
				c-0.4-0.5-0.6-1.2-0.6-2.1v-3.9h1v3.7c0,0.7,0.1,1.2,0.4,1.5c0.3,0.3,0.7,0.5,1.2,0.5c0.5,0,0.9-0.2,1.3-0.6
				c0.3-0.4,0.5-0.9,0.5-1.5v-3.7h1V31.7z"/>
			<path class="st3" d="M145.9,30.6c-0.2,0.4-0.5,0.7-0.9,0.9c-0.4,0.2-0.8,0.3-1.3,0.3c-0.8,0-1.5-0.3-2-0.9
				c-0.5-0.6-0.7-1.4-0.7-2.4c0-1.1,0.3-1.9,0.8-2.6s1.3-1,2.2-1c0.4,0,0.8,0.1,1.2,0.3c0.3,0.2,0.6,0.4,0.8,0.8h0v-4h1v9.6h-1
				L145.9,30.6L145.9,30.6z M142.1,28.5c0,0.7,0.2,1.3,0.5,1.8c0.3,0.4,0.8,0.7,1.4,0.7c0.6,0,1.1-0.2,1.4-0.6
				c0.4-0.4,0.5-0.9,0.5-1.6v-1c0-0.5-0.2-1-0.5-1.3c-0.3-0.4-0.8-0.5-1.3-0.5c-0.6,0-1.1,0.2-1.5,0.7
				C142.3,27.1,142.1,27.7,142.1,28.5z"/>
			<path class="st3" d="M149.6,23.6c-0.2,0-0.4-0.1-0.5-0.2s-0.2-0.3-0.2-0.5c0-0.2,0.1-0.4,0.2-0.5c0.1-0.1,0.3-0.2,0.5-0.2
				s0.4,0.1,0.5,0.2c0.1,0.1,0.2,0.3,0.2,0.5c0,0.2-0.1,0.4-0.2,0.5S149.9,23.6,149.6,23.6z M150.2,31.7h-1v-6.5h1V31.7z"/>
			<path class="st3" d="M156.9,31.7h-1v-1h0c-0.2,0.4-0.5,0.7-0.8,0.9s-0.7,0.3-1.1,0.3c-0.6,0-1.1-0.2-1.5-0.5
				c-0.4-0.4-0.6-0.8-0.6-1.4c0-0.6,0.2-1,0.6-1.4c0.4-0.4,0.9-0.6,1.6-0.7l1.9-0.2v-0.1c0-0.5-0.1-0.9-0.4-1.2
				c-0.3-0.2-0.6-0.3-1-0.3c-0.3,0-0.7,0.1-1,0.2c-0.3,0.1-0.6,0.3-0.9,0.6L152,26c0.4-0.4,0.8-0.6,1.2-0.8c0.4-0.2,0.9-0.2,1.4-0.2
				c0.8,0,1.4,0.2,1.8,0.6c0.4,0.4,0.6,1,0.6,1.8V31.7z M155.8,29v-0.6l-1.6,0.2c-0.5,0.1-0.8,0.2-1.1,0.4c-0.2,0.2-0.4,0.4-0.4,0.8
				c0,0.4,0.1,0.7,0.3,0.9s0.5,0.3,0.8,0.3c0.6,0,1-0.2,1.3-0.6S155.8,29.6,155.8,29z"/>
			<path class="st3" d="M167,31.7h-1v-1h0c-0.2,0.4-0.5,0.7-0.8,0.9s-0.7,0.3-1.1,0.3c-0.6,0-1.1-0.2-1.5-0.5
				c-0.4-0.4-0.6-0.8-0.6-1.4c0-0.6,0.2-1,0.6-1.4c0.4-0.4,0.9-0.6,1.6-0.7l1.9-0.2v-0.1c0-0.5-0.1-0.9-0.4-1.2
				c-0.3-0.2-0.6-0.3-1-0.3c-0.3,0-0.7,0.1-1,0.2c-0.3,0.1-0.6,0.3-0.9,0.6l-0.6-0.6c0.4-0.4,0.8-0.6,1.2-0.8
				c0.4-0.2,0.9-0.2,1.4-0.2c0.8,0,1.4,0.2,1.8,0.6c0.4,0.4,0.6,1,0.6,1.8V31.7z M166,29v-0.6l-1.6,0.2c-0.5,0.1-0.8,0.2-1.1,0.4
				c-0.2,0.2-0.4,0.4-0.4,0.8c0,0.4,0.1,0.7,0.3,0.9s0.5,0.3,0.8,0.3c0.6,0,1-0.2,1.3-0.6S166,29.6,166,29z"/>
			<path class="st3" d="M177.1,30.6c-0.2,0.4-0.5,0.7-0.9,0.9c-0.4,0.2-0.8,0.3-1.3,0.3c-0.8,0-1.5-0.3-2-0.9
				c-0.5-0.6-0.7-1.4-0.7-2.4c0-1.1,0.3-1.9,0.8-2.6s1.3-1,2.2-1c0.4,0,0.8,0.1,1.2,0.3c0.3,0.2,0.6,0.4,0.8,0.8h0v-4h1v9.6h-1
				L177.1,30.6L177.1,30.6z M173.2,28.5c0,0.7,0.2,1.3,0.5,1.8c0.3,0.4,0.8,0.7,1.4,0.7c0.6,0,1.1-0.2,1.4-0.6
				c0.4-0.4,0.5-0.9,0.5-1.6v-1c0-0.5-0.2-1-0.5-1.3c-0.3-0.4-0.8-0.5-1.3-0.5c-0.6,0-1.1,0.2-1.5,0.7
				C173.4,27.1,173.2,27.7,173.2,28.5z"/>
			<path class="st3" d="M180.8,23.6c-0.2,0-0.4-0.1-0.5-0.2s-0.2-0.3-0.2-0.5c0-0.2,0.1-0.4,0.2-0.5c0.1-0.1,0.3-0.2,0.5-0.2
				s0.4,0.1,0.5,0.2c0.1,0.1,0.2,0.3,0.2,0.5c0,0.2-0.1,0.4-0.2,0.5S181,23.6,180.8,23.6z M181.3,31.7h-1v-6.5h1V31.7z"/>
			<path class="st3" d="M188,31.7h-1v-1h0c-0.2,0.4-0.5,0.7-0.8,0.9s-0.7,0.3-1.1,0.3c-0.6,0-1.1-0.2-1.5-0.5
				c-0.4-0.4-0.6-0.8-0.6-1.4c0-0.6,0.2-1,0.6-1.4c0.4-0.4,0.9-0.6,1.6-0.7l1.9-0.2v-0.1c0-0.5-0.1-0.9-0.4-1.2
				c-0.3-0.2-0.6-0.3-1-0.3c-0.3,0-0.7,0.1-1,0.2c-0.3,0.1-0.6,0.3-0.9,0.6l-0.6-0.6c0.4-0.4,0.8-0.6,1.2-0.8
				c0.4-0.2,0.9-0.2,1.4-0.2c0.8,0,1.4,0.2,1.8,0.6c0.4,0.4,0.6,1,0.6,1.8V31.7z M187,29v-0.6l-1.6,0.2c-0.5,0.1-0.8,0.2-1.1,0.4
				c-0.2,0.2-0.4,0.4-0.4,0.8c0,0.4,0.1,0.7,0.3,0.9s0.5,0.3,0.8,0.3c0.6,0,1-0.2,1.3-0.6S187,29.6,187,29z"/>
			<path class="st3" d="M190.4,31.8c-0.2,0-0.4-0.1-0.5-0.2s-0.2-0.3-0.2-0.5c0-0.2,0.1-0.4,0.2-0.5s0.3-0.2,0.5-0.2
				s0.4,0.1,0.5,0.2s0.2,0.3,0.2,0.5c0,0.2-0.1,0.4-0.2,0.5S190.6,31.8,190.4,31.8z"/>
		</g>
	</g>
</g>
</svg>
