<?xml version="1.0" encoding="utf-8"?>
<!-- Generator: Adobe Illustrator 26.3.0, SVG Export Plug-In . SVG Version: 6.00 Build 0)  -->
<svg version="1.1" id="Camada_1" xmlns="http://www.w3.org/2000/svg" xmlns:xlink="http://www.w3.org/1999/xlink" x="0px" y="0px"
	 width="168.44px" height="79.51px" viewBox="0 0 168.44 79.51" style="enable-background:new 0 0 168.44 79.51;"
	 xml:space="preserve">
<style type="text/css">
	.st0{fill:url(#SVGID_1_);}
	.st1{opacity:0.24;fill:#31271C;}
	.st2{opacity:0.34;}
	.st3{fill:url(#SVGID_00000165203652584913330240000007299212195302775221_);}
	.st4{fill:#FFFFFF;}
	.st5{font-family:'Poppins-ExtraBold';}
	.st6{font-size:17.5595px;}
	.st7{opacity:0.6;}
	.st8{fill:#020202;}
</style>
<g>
	<g>
		<linearGradient id="SVGID_1_" gradientUnits="userSpaceOnUse" x1="84.22" y1="2.232812e-05" x2="84.22" y2="79.5082">
			<stop  offset="0" style="stop-color:#FCAB68"/>
			<stop  offset="1" style="stop-color:#DD802C"/>
		</linearGradient>
		<path class="st0" d="M168.44,8.63v62.24c0,4.75-4.45,8.63-9.88,8.63H9.88C4.45,79.51,0,75.62,0,70.87V8.63C0,3.89,4.45,0,9.88,0
			h148.67c0.17,0,0.34,0.01,0.5,0.01C164.26,0.24,168.44,4.03,168.44,8.63z"/>
		<path class="st1" d="M168.44,8.63v62.24c0,4.75-4.45,8.63-9.88,8.63H72.28L59.01,13.32C58.06,8.58,58.93,3.9,61.12,0h97.43
			c0.17,0,0.34,0.01,0.5,0.01C164.26,0.24,168.44,4.03,168.44,8.63z"/>
		<g class="st2">
			
				<linearGradient id="SVGID_00000131367734907692543080000010746960115203464325_" gradientUnits="userSpaceOnUse" x1="-76.5917" y1="733.0886" x2="-52.3362" y2="645.121" gradientTransform="matrix(0.7755 -0.6313 0.6313 0.7755 -259.1076 -535.4619)">
				<stop  offset="0" style="stop-color:#FFB578"/>
				<stop  offset="1" style="stop-color:#FF9F2D"/>
			</linearGradient>
			<path style="fill:url(#SVGID_00000131367734907692543080000010746960115203464325_);" d="M152.25,20.19
				c-1.54-1.41-3.49-1.43-5.24-0.01c-6.27,5.09-12.53,10.19-18.8,15.29c-0.27,0.22-0.54,0.44-0.89,0.72
				c-0.29-0.35-0.51-0.62-0.73-0.89c-5.01-6.16-10.03-12.33-15.04-18.49c-0.12-0.15-0.25-0.29-0.37-0.45
				c-0.12-0.15-0.26-0.29-0.39-0.43c-0.72-0.74-1.69-1.1-2.66-1.1c-0.12,0-0.25,0.01-0.37,0.02c-0.12,0.01-0.23,0.02-0.34,0.04
				c-0.04,0.01-0.07,0.01-0.11,0.02c-0.1,0.02-0.2,0.05-0.3,0.08c-0.01,0.01-0.04,0.01-0.06,0.01c-0.1,0.04-0.2,0.07-0.31,0.12
				c-0.12,0.05-0.23,0.11-0.35,0.17c-0.22,0.12-0.43,0.28-0.63,0.45c-0.1,0.09-0.2,0.18-0.29,0.29c-1.4,1.55-1.39,3.48,0.04,5.25
				c6.01,7.38,12.02,14.77,18.04,22.15c1.89,2.33,3.89,2.53,6.21,0.64c7.3-5.95,14.6-11.89,21.9-17.84c0.28-0.22,0.56-0.45,0.81-0.7
				C153.83,24.1,153.77,21.58,152.25,20.19z M164.29,15.57c-0.14-0.19-0.22-0.42-0.32-0.63l-3.61-4.43
				c-1.24-1.16-2.43-2.36-3.72-3.45c-3.47-2.93-7.1-5.28-10.9-7.06H107.6c-2.37,1.1-4.65,2.43-6.84,3.96
				c-0.19,0.13-0.42,0.21-0.62,0.32l-4.43,3.6c-1.13,1.21-2.3,2.39-3.38,3.64c-7.11,8.2-10.81,17.77-11.16,28.61
				c-0.31,9.58,2.18,18.43,7.48,26.41c3.52,5.31,7.76,9.64,12.72,12.96h50.8c0.16-0.1,0.33-0.2,0.5-0.31
				c0.25-0.15,0.51-0.28,0.77-0.42l4.43-3.6c1.17-1.25,2.39-2.46,3.5-3.77c2.96-3.49,5.32-7.18,7.08-11.05V22.85
				C167.3,20.33,165.92,17.91,164.29,15.57z"/>
			<path class="st4" d="M127.95,36.25c0.34-0.3,0.6-0.53,0.86-0.76c6.05-5.35,12.1-10.7,18.16-16.05c1.69-1.49,3.64-1.55,5.24-0.2
				c1.57,1.33,1.74,3.84,0.34,5.35c-0.24,0.26-0.51,0.5-0.78,0.73c-7.05,6.24-14.11,12.47-21.16,18.71
				c-2.25,1.99-4.24,1.86-6.23-0.39c-6.31-7.13-12.62-14.27-18.92-21.41c-1.51-1.71-1.59-3.63-0.26-5.24
				c1.34-1.62,3.88-1.77,5.41-0.32c0.28,0.27,0.53,0.56,0.79,0.85c5.26,5.95,10.53,11.9,15.79,17.86
				C127.41,35.64,127.65,35.91,127.95,36.25z"/>
		</g>
	</g>
	<g>
		<g>
			<text transform="matrix(1 0 0 1 25.1146 20.3155)" class="st4 st5 st6">Aguardando</text>
		</g>
		<g class="st7">
			<g>
				<g>
					<path class="st8" d="M14.3,37.07h-0.85v-6.66h0.85V37.07z"/>
					<path class="st8" d="M20.1,37.07h-0.83V34.3c0-0.51-0.09-0.89-0.28-1.14c-0.19-0.25-0.46-0.38-0.83-0.38
						c-0.38,0-0.7,0.14-0.95,0.43s-0.38,0.65-0.38,1.09v2.78h-0.83V32.2h0.83v0.81h0.02c0.18-0.31,0.41-0.54,0.67-0.69
						c0.27-0.15,0.57-0.23,0.92-0.23c0.53,0,0.94,0.17,1.22,0.52s0.42,0.84,0.42,1.49V37.07z"/>
					<path class="st8" d="M24.97,36.26c-0.18,0.31-0.41,0.54-0.69,0.7c-0.28,0.16-0.6,0.23-0.98,0.23c-0.61,0-1.1-0.22-1.47-0.66
						c-0.37-0.44-0.55-1.03-0.55-1.78c0-0.81,0.2-1.45,0.61-1.94c0.41-0.49,0.95-0.73,1.62-0.73c0.33,0,0.62,0.07,0.86,0.2
						c0.24,0.13,0.44,0.33,0.59,0.59h0.02v-2.84h0.83v7.04h-0.83v-0.82H24.97z M22.13,34.71c0,0.56,0.13,1,0.39,1.31
						c0.26,0.32,0.6,0.48,1.03,0.48c0.43,0,0.78-0.15,1.04-0.46c0.26-0.31,0.4-0.7,0.4-1.17v-0.7c0-0.39-0.13-0.72-0.38-0.99
						s-0.58-0.4-0.97-0.4c-0.47,0-0.84,0.17-1.1,0.52C22.27,33.63,22.13,34.1,22.13,34.71z"/>
					<path class="st8" d="M27.85,31.17c-0.16,0-0.3-0.05-0.41-0.16s-0.16-0.24-0.16-0.39c0-0.16,0.05-0.29,0.16-0.4
						c0.11-0.11,0.24-0.16,0.41-0.16s0.3,0.05,0.41,0.16c0.11,0.11,0.16,0.24,0.16,0.4c0,0.15-0.05,0.29-0.16,0.39
						S28.01,31.17,27.85,31.17z M28.25,37.07h-0.83V32.2h0.83V37.07z"/>
					<path class="st8" d="M33.4,36.77c-0.23,0.15-0.46,0.26-0.7,0.32c-0.23,0.07-0.48,0.1-0.75,0.1c-0.7,0-1.27-0.21-1.7-0.64
						c-0.44-0.43-0.66-1.03-0.66-1.8c0-0.8,0.22-1.44,0.67-1.93c0.45-0.49,1.06-0.73,1.84-0.73c0.25,0,0.49,0.03,0.72,0.09
						s0.45,0.16,0.68,0.29l-0.35,0.6c-0.18-0.11-0.35-0.18-0.52-0.23c-0.17-0.04-0.35-0.07-0.55-0.07c-0.53,0-0.94,0.18-1.22,0.53
						c-0.28,0.35-0.43,0.8-0.43,1.35c0,0.59,0.15,1.05,0.44,1.37c0.3,0.32,0.68,0.47,1.14,0.47c0.16,0,0.32-0.02,0.49-0.07
						c0.17-0.05,0.34-0.13,0.52-0.24L33.4,36.77z"/>
					<path class="st8" d="M38.04,37.07h-0.82v-0.77H37.2c-0.17,0.29-0.37,0.51-0.62,0.66c-0.25,0.15-0.54,0.22-0.86,0.22
						c-0.46,0-0.83-0.13-1.11-0.4s-0.42-0.62-0.42-1.05c0-0.42,0.14-0.77,0.43-1.04c0.28-0.27,0.69-0.45,1.23-0.52l1.38-0.19v-0.11
						c0-0.39-0.09-0.68-0.28-0.85c-0.19-0.17-0.44-0.26-0.75-0.26c-0.25,0-0.5,0.05-0.73,0.14c-0.24,0.1-0.46,0.24-0.68,0.43
						l-0.45-0.5c0.28-0.25,0.57-0.44,0.88-0.56c0.31-0.12,0.66-0.18,1.03-0.18c0.59,0,1.04,0.15,1.34,0.46s0.45,0.77,0.45,1.38
						V37.07z M37.22,35.09v-0.47l-1.16,0.16c-0.36,0.05-0.62,0.14-0.8,0.27c-0.18,0.13-0.26,0.33-0.26,0.61
						c0,0.28,0.08,0.49,0.25,0.64c0.17,0.15,0.37,0.23,0.62,0.23c0.41,0,0.74-0.14,0.98-0.41C37.09,35.85,37.22,35.5,37.22,35.09z"
						/>
					<path class="st8" d="M46.53,39.26h-0.83v-3.01h-0.02c-0.17,0.32-0.39,0.55-0.67,0.71c-0.28,0.16-0.61,0.23-0.99,0.23
						c-0.61,0-1.1-0.22-1.47-0.66s-0.55-1.03-0.55-1.78c0-0.81,0.2-1.46,0.61-1.94c0.41-0.48,0.95-0.72,1.63-0.72
						c0.33,0,0.62,0.07,0.86,0.2c0.24,0.13,0.43,0.33,0.58,0.59h0.02V32.2h0.83V39.26z M45.7,34.87v-0.69c0-0.4-0.13-0.73-0.39-1
						s-0.58-0.41-0.98-0.41c-0.46,0-0.82,0.17-1.09,0.51c-0.27,0.34-0.4,0.82-0.4,1.45c0,0.55,0.13,0.98,0.39,1.3
						c0.26,0.31,0.59,0.47,1,0.47c0.45,0,0.81-0.15,1.07-0.46C45.57,35.73,45.7,35.34,45.7,34.87z"/>
					<path class="st8" d="M51.98,37.07h-0.83V36.3h-0.02c-0.16,0.3-0.37,0.52-0.62,0.67c-0.25,0.15-0.55,0.22-0.88,0.22
						c-0.58,0-1.01-0.17-1.3-0.52c-0.29-0.35-0.43-0.87-0.43-1.56V32.2h0.83v2.79c0,0.5,0.1,0.88,0.29,1.13
						c0.19,0.25,0.48,0.38,0.87,0.38c0.37,0,0.68-0.14,0.92-0.41c0.24-0.28,0.36-0.64,0.36-1.09v-2.8h0.83V37.07z"/>
					<path class="st8" d="M57.53,34.82H54.1c0.02,0.54,0.16,0.95,0.43,1.24c0.27,0.29,0.65,0.43,1.15,0.43
						c0.21,0,0.43-0.03,0.66-0.1s0.45-0.18,0.68-0.33l0.38,0.58c-0.28,0.19-0.56,0.32-0.85,0.41c-0.29,0.09-0.6,0.13-0.94,0.13
						c-0.74,0-1.31-0.22-1.72-0.66c-0.41-0.44-0.62-1.05-0.62-1.84c0-0.78,0.21-1.41,0.62-1.89c0.42-0.48,0.96-0.72,1.63-0.72
						c0.64,0,1.13,0.21,1.49,0.62c0.35,0.41,0.53,0.99,0.53,1.73V34.82z M56.7,34.17c0-0.45-0.11-0.8-0.32-1.04
						c-0.21-0.25-0.5-0.37-0.88-0.37c-0.37,0-0.67,0.13-0.93,0.38c-0.25,0.26-0.41,0.6-0.46,1.03H56.7z"/>
					<path class="st8" d="M64.87,37.07h-0.82v-0.77h-0.02c-0.17,0.29-0.37,0.51-0.62,0.66c-0.25,0.15-0.54,0.22-0.86,0.22
						c-0.46,0-0.83-0.13-1.11-0.4s-0.42-0.62-0.42-1.05c0-0.42,0.14-0.77,0.43-1.04c0.28-0.27,0.69-0.45,1.23-0.52l1.38-0.19v-0.11
						c0-0.39-0.09-0.68-0.28-0.85c-0.19-0.17-0.44-0.26-0.75-0.26c-0.25,0-0.5,0.05-0.73,0.14c-0.24,0.1-0.46,0.24-0.68,0.43
						l-0.45-0.5c0.28-0.25,0.57-0.44,0.88-0.56c0.31-0.12,0.66-0.18,1.03-0.18c0.59,0,1.04,0.15,1.34,0.46s0.45,0.77,0.45,1.38
						V37.07z M64.05,35.09v-0.47l-1.16,0.16c-0.36,0.05-0.62,0.14-0.8,0.27c-0.18,0.13-0.26,0.33-0.26,0.61
						c0,0.28,0.08,0.49,0.25,0.64c0.17,0.15,0.37,0.23,0.62,0.23c0.41,0,0.74-0.14,0.98-0.41C63.92,35.85,64.05,35.5,64.05,35.09z"
						/>
					<path class="st8" d="M71.35,30.69c-0.09-0.03-0.17-0.05-0.24-0.07c-0.07-0.01-0.15-0.02-0.22-0.02c-0.26,0-0.45,0.07-0.57,0.2
						c-0.12,0.14-0.19,0.34-0.19,0.6v0.79h1.12v0.69h-1.12v4.18h-0.82v-4.18h-0.82V32.2h0.82v-0.83c0-0.46,0.14-0.81,0.42-1.07
						s0.67-0.39,1.16-0.39c0.12,0,0.24,0.01,0.34,0.03c0.1,0.02,0.21,0.04,0.32,0.08L71.35,30.69z"/>
					<path class="st8" d="M76.15,37.07h-0.83V36.3h-0.02c-0.16,0.3-0.37,0.52-0.62,0.67c-0.25,0.15-0.55,0.22-0.88,0.22
						c-0.58,0-1.01-0.17-1.3-0.52c-0.29-0.35-0.43-0.87-0.43-1.56V32.2h0.83v2.79c0,0.5,0.1,0.88,0.29,1.13
						c0.19,0.25,0.48,0.38,0.87,0.38c0.37,0,0.68-0.14,0.92-0.41c0.24-0.28,0.36-0.64,0.36-1.09v-2.8h0.83V37.07z"/>
					<path class="st8" d="M81.84,37.07h-0.83V34.3c0-0.51-0.09-0.89-0.28-1.14c-0.19-0.25-0.46-0.38-0.83-0.38
						c-0.38,0-0.7,0.14-0.95,0.43s-0.38,0.65-0.38,1.09v2.78h-0.83V32.2h0.83v0.81h0.02c0.18-0.31,0.41-0.54,0.67-0.69
						c0.27-0.15,0.57-0.23,0.92-0.23c0.53,0,0.94,0.17,1.22,0.52s0.42,0.84,0.42,1.49V37.07z"/>
					<path class="st8" d="M86.83,36.77c-0.23,0.15-0.46,0.26-0.7,0.32c-0.23,0.07-0.48,0.1-0.75,0.1c-0.7,0-1.26-0.21-1.7-0.64
						c-0.44-0.43-0.66-1.03-0.66-1.8c0-0.8,0.22-1.44,0.67-1.93c0.45-0.49,1.06-0.73,1.84-0.73c0.25,0,0.49,0.03,0.72,0.09
						c0.23,0.06,0.45,0.16,0.68,0.29l-0.35,0.6c-0.18-0.11-0.35-0.18-0.52-0.23c-0.17-0.04-0.35-0.07-0.55-0.07
						c-0.53,0-0.94,0.18-1.22,0.53c-0.28,0.35-0.43,0.8-0.43,1.35c0,0.59,0.15,1.05,0.44,1.37c0.3,0.32,0.68,0.47,1.14,0.47
						c0.16,0,0.32-0.02,0.49-0.07c0.17-0.05,0.34-0.13,0.52-0.24L86.83,36.77z"/>
					<path class="st8" d="M88.38,31.17c-0.16,0-0.3-0.05-0.41-0.16s-0.16-0.24-0.16-0.39c0-0.16,0.05-0.29,0.16-0.4
						c0.11-0.11,0.24-0.16,0.41-0.16s0.3,0.05,0.41,0.16c0.11,0.11,0.17,0.24,0.17,0.4c0,0.15-0.05,0.29-0.17,0.39
						C88.68,31.12,88.55,31.17,88.38,31.17z M88.79,37.07h-0.83V32.2h0.83V37.07z"/>
					<path class="st8" d="M92.52,37.19c-0.73,0-1.31-0.23-1.74-0.69c-0.43-0.46-0.65-1.06-0.65-1.82c0-0.81,0.22-1.45,0.67-1.91
						c0.45-0.46,1.05-0.69,1.83-0.69c0.73,0,1.3,0.22,1.72,0.67c0.41,0.45,0.62,1.07,0.62,1.85c0,0.78-0.22,1.41-0.66,1.88
						C93.85,36.96,93.26,37.19,92.52,37.19z M92.57,36.5c0.5,0,0.88-0.16,1.14-0.49s0.4-0.78,0.4-1.38c0-0.6-0.13-1.06-0.4-1.38
						c-0.27-0.32-0.65-0.48-1.14-0.48s-0.88,0.17-1.17,0.5c-0.29,0.34-0.43,0.8-0.43,1.39c0,0.57,0.14,1.02,0.43,1.35
						C91.7,36.34,92.08,36.5,92.57,36.5z"/>
					<path class="st8" d="M100.33,37.07H99.5V34.3c0-0.51-0.09-0.89-0.28-1.14s-0.46-0.38-0.83-0.38c-0.38,0-0.7,0.14-0.95,0.43
						s-0.38,0.65-0.38,1.09v2.78h-0.83V32.2h0.83v0.81h0.02c0.18-0.31,0.41-0.54,0.67-0.69c0.27-0.15,0.57-0.23,0.92-0.23
						c0.53,0,0.94,0.17,1.22,0.52c0.28,0.34,0.42,0.84,0.42,1.49V37.07z"/>
					<path class="st8" d="M105.34,37.07h-0.82v-0.77h-0.02c-0.17,0.29-0.38,0.51-0.62,0.66c-0.25,0.15-0.54,0.22-0.86,0.22
						c-0.46,0-0.83-0.13-1.11-0.4c-0.28-0.27-0.42-0.62-0.42-1.05c0-0.42,0.14-0.77,0.43-1.04s0.7-0.45,1.23-0.52l1.38-0.19v-0.11
						c0-0.39-0.09-0.68-0.28-0.85c-0.19-0.17-0.44-0.26-0.75-0.26c-0.25,0-0.5,0.05-0.73,0.14c-0.24,0.1-0.46,0.24-0.68,0.43
						l-0.45-0.5c0.28-0.25,0.57-0.44,0.88-0.56s0.66-0.18,1.03-0.18c0.59,0,1.04,0.15,1.34,0.46s0.45,0.77,0.45,1.38V37.07z
						 M104.52,35.09v-0.47l-1.16,0.16c-0.36,0.05-0.62,0.14-0.8,0.27c-0.18,0.13-0.26,0.33-0.26,0.61c0,0.28,0.08,0.49,0.25,0.64
						c0.17,0.15,0.37,0.23,0.62,0.23c0.41,0,0.74-0.14,0.98-0.41C104.4,35.85,104.52,35.5,104.52,35.09z"/>
					<path class="st8" d="M106.87,37.07v-7.04h0.83v7.04H106.87z"/>
					<path class="st8" d="M109.73,31.17c-0.16,0-0.3-0.05-0.41-0.16s-0.16-0.24-0.16-0.39c0-0.16,0.05-0.29,0.16-0.4
						c0.11-0.11,0.25-0.16,0.41-0.16s0.3,0.05,0.41,0.16c0.11,0.11,0.16,0.24,0.16,0.4c0,0.15-0.05,0.29-0.16,0.39
						C110.03,31.12,109.89,31.17,109.73,31.17z M110.13,37.07h-0.83V32.2h0.83V37.07z"/>
					<path class="st8" d="M115.16,36.26c-0.18,0.31-0.41,0.54-0.68,0.7c-0.28,0.16-0.6,0.23-0.98,0.23c-0.61,0-1.1-0.22-1.47-0.66
						c-0.37-0.44-0.55-1.03-0.55-1.78c0-0.81,0.2-1.45,0.61-1.94c0.41-0.49,0.95-0.73,1.62-0.73c0.33,0,0.62,0.07,0.86,0.2
						s0.44,0.33,0.59,0.59h0.02v-2.84H116v7.04h-0.83v-0.82H115.16z M112.32,34.71c0,0.56,0.13,1,0.39,1.31
						c0.26,0.32,0.6,0.48,1.03,0.48c0.43,0,0.78-0.15,1.04-0.46c0.26-0.31,0.39-0.7,0.39-1.17v-0.7c0-0.39-0.13-0.72-0.38-0.99
						c-0.26-0.27-0.58-0.4-0.97-0.4c-0.47,0-0.83,0.17-1.1,0.52C112.45,33.63,112.32,34.1,112.32,34.71z"/>
					<path class="st8" d="M121.12,37.07h-0.82v-0.77h-0.02c-0.17,0.29-0.38,0.51-0.62,0.66c-0.25,0.15-0.54,0.22-0.86,0.22
						c-0.46,0-0.83-0.13-1.11-0.4c-0.28-0.27-0.42-0.62-0.42-1.05c0-0.42,0.14-0.77,0.43-1.04s0.7-0.45,1.23-0.52l1.38-0.19v-0.11
						c0-0.39-0.09-0.68-0.28-0.85c-0.19-0.17-0.44-0.26-0.75-0.26c-0.25,0-0.5,0.05-0.73,0.14c-0.24,0.1-0.46,0.24-0.68,0.43
						l-0.45-0.5c0.28-0.25,0.57-0.44,0.88-0.56s0.66-0.18,1.03-0.18c0.59,0,1.04,0.15,1.34,0.46s0.45,0.77,0.45,1.38V37.07z
						 M120.3,35.09v-0.47l-1.16,0.16c-0.36,0.05-0.62,0.14-0.8,0.27c-0.18,0.13-0.26,0.33-0.26,0.61c0,0.28,0.08,0.49,0.25,0.64
						c0.17,0.15,0.37,0.23,0.62,0.23c0.41,0,0.74-0.14,0.98-0.41C120.18,35.85,120.3,35.5,120.3,35.09z"/>
					<path class="st8" d="M126.01,36.26c-0.18,0.31-0.41,0.54-0.68,0.7c-0.28,0.16-0.6,0.23-0.98,0.23c-0.61,0-1.1-0.22-1.47-0.66
						c-0.37-0.44-0.55-1.03-0.55-1.78c0-0.81,0.2-1.45,0.61-1.94c0.41-0.49,0.95-0.73,1.62-0.73c0.33,0,0.62,0.07,0.86,0.2
						s0.44,0.33,0.59,0.59h0.02v-2.84h0.83v7.04h-0.83v-0.82H126.01z M123.17,34.71c0,0.56,0.13,1,0.39,1.31
						c0.26,0.32,0.6,0.48,1.03,0.48c0.43,0,0.78-0.15,1.04-0.46c0.26-0.31,0.39-0.7,0.39-1.17v-0.7c0-0.39-0.13-0.72-0.38-0.99
						c-0.26-0.27-0.58-0.4-0.97-0.4c-0.47,0-0.83,0.17-1.1,0.52C123.31,33.63,123.17,34.1,123.17,34.71z"/>
					<path class="st8" d="M132.42,34.82h-3.43c0.02,0.54,0.16,0.95,0.43,1.24c0.27,0.29,0.65,0.43,1.15,0.43
						c0.21,0,0.43-0.03,0.66-0.1s0.45-0.18,0.68-0.33l0.38,0.58c-0.28,0.19-0.56,0.32-0.85,0.41c-0.29,0.09-0.6,0.13-0.94,0.13
						c-0.74,0-1.31-0.22-1.72-0.66s-0.62-1.05-0.62-1.84c0-0.78,0.21-1.41,0.62-1.89c0.42-0.48,0.96-0.72,1.63-0.72
						c0.64,0,1.13,0.21,1.49,0.62c0.35,0.41,0.53,0.99,0.53,1.73V34.82z M131.58,34.17c0-0.45-0.11-0.8-0.32-1.04
						c-0.21-0.25-0.5-0.37-0.88-0.37c-0.37,0-0.67,0.13-0.93,0.38c-0.25,0.26-0.41,0.6-0.46,1.03H131.58z"/>
					<path class="st8" d="M140.19,34.82h-3.43c0.02,0.54,0.16,0.95,0.43,1.24c0.27,0.29,0.65,0.43,1.15,0.43
						c0.21,0,0.43-0.03,0.66-0.1s0.45-0.18,0.68-0.33l0.38,0.58c-0.28,0.19-0.56,0.32-0.85,0.41c-0.29,0.09-0.6,0.13-0.94,0.13
						c-0.74,0-1.31-0.22-1.72-0.66s-0.62-1.05-0.62-1.84c0-0.78,0.21-1.41,0.62-1.89c0.42-0.48,0.96-0.72,1.63-0.72
						c0.64,0,1.13,0.21,1.49,0.62c0.35,0.41,0.53,0.99,0.53,1.73V34.82z M139.36,34.17c0-0.45-0.11-0.8-0.32-1.04
						c-0.21-0.25-0.5-0.37-0.88-0.37c-0.37,0-0.67,0.13-0.93,0.38c-0.25,0.26-0.41,0.6-0.46,1.03H139.36z"/>
					<path class="st8" d="M140.98,36.71l0.38-0.62c0.21,0.14,0.41,0.24,0.61,0.31c0.2,0.07,0.42,0.11,0.66,0.11
						c0.33,0,0.57-0.06,0.74-0.18c0.17-0.12,0.26-0.3,0.26-0.54c0-0.2-0.08-0.36-0.23-0.49c-0.15-0.13-0.39-0.24-0.71-0.32
						c-0.6-0.15-1.02-0.35-1.24-0.58c-0.23-0.24-0.34-0.53-0.34-0.88c0-0.41,0.16-0.75,0.47-1.02c0.31-0.27,0.74-0.4,1.28-0.4
						c0.26,0,0.51,0.03,0.74,0.1c0.23,0.07,0.47,0.18,0.71,0.33l-0.36,0.61c-0.22-0.14-0.41-0.23-0.58-0.29
						c-0.17-0.05-0.35-0.08-0.53-0.08c-0.31,0-0.54,0.06-0.71,0.17c-0.16,0.11-0.25,0.28-0.25,0.5c0,0.21,0.08,0.37,0.24,0.48
						c0.16,0.11,0.43,0.21,0.8,0.31c0.5,0.13,0.87,0.32,1.12,0.55c0.25,0.24,0.37,0.55,0.37,0.95c0,0.45-0.16,0.81-0.49,1.07
						s-0.76,0.4-1.32,0.4c-0.3,0-0.59-0.04-0.87-0.12S141.22,36.87,140.98,36.71z"/>
					<path class="st8" d="M148.02,37.01c-0.13,0.06-0.26,0.1-0.4,0.12s-0.28,0.04-0.44,0.04c-0.4,0-0.71-0.12-0.94-0.34
						c-0.22-0.23-0.34-0.57-0.34-1.02v-2.93h-0.83V32.2h0.83v-1.11l0.83-0.26v1.38h1.22v0.69h-1.22v2.83c0,0.28,0.05,0.47,0.15,0.6
						s0.25,0.18,0.45,0.18c0.09,0,0.18-0.01,0.27-0.03c0.09-0.02,0.16-0.05,0.22-0.08L148.02,37.01z"/>
					<path class="st8" d="M152.56,37.07h-0.82v-0.77h-0.02c-0.17,0.29-0.38,0.51-0.62,0.66c-0.25,0.15-0.54,0.22-0.86,0.22
						c-0.46,0-0.83-0.13-1.11-0.4c-0.28-0.27-0.42-0.62-0.42-1.05c0-0.42,0.14-0.77,0.43-1.04s0.7-0.45,1.23-0.52l1.38-0.19v-0.11
						c0-0.39-0.09-0.68-0.28-0.85c-0.19-0.17-0.44-0.26-0.75-0.26c-0.25,0-0.5,0.05-0.73,0.14c-0.24,0.1-0.46,0.24-0.68,0.43
						l-0.45-0.5c0.28-0.25,0.57-0.44,0.88-0.56s0.66-0.18,1.03-0.18c0.59,0,1.04,0.15,1.34,0.46s0.45,0.77,0.45,1.38V37.07z
						 M151.75,35.09v-0.47l-1.16,0.16c-0.36,0.05-0.62,0.14-0.8,0.27c-0.18,0.13-0.26,0.33-0.26,0.61c0,0.28,0.08,0.49,0.25,0.64
						c0.17,0.15,0.37,0.23,0.62,0.23c0.41,0,0.74-0.14,0.98-0.41C151.62,35.85,151.75,35.5,151.75,35.09z M150.77,31.33h-0.64
						l1.05-1.52h0.82L150.77,31.33z"/>
					<path class="st8" d="M35.04,48.49h-0.82v-0.77H34.2c-0.17,0.29-0.37,0.51-0.62,0.66c-0.25,0.15-0.54,0.22-0.86,0.22
						c-0.46,0-0.83-0.13-1.11-0.4s-0.42-0.62-0.42-1.05c0-0.42,0.14-0.77,0.43-1.04c0.28-0.27,0.69-0.45,1.23-0.52l1.38-0.19v-0.11
						c0-0.39-0.09-0.68-0.28-0.85c-0.19-0.17-0.44-0.26-0.75-0.26c-0.25,0-0.5,0.05-0.73,0.14c-0.24,0.1-0.46,0.24-0.68,0.43
						l-0.45-0.5c0.28-0.25,0.57-0.44,0.88-0.56c0.31-0.12,0.66-0.18,1.03-0.18c0.59,0,1.04,0.15,1.34,0.46s0.45,0.77,0.45,1.38
						V48.49z M34.23,46.5v-0.47l-1.16,0.16c-0.36,0.05-0.62,0.14-0.8,0.27C32.09,46.59,32,46.79,32,47.07
						c0,0.28,0.08,0.49,0.25,0.64c0.17,0.15,0.37,0.23,0.62,0.23c0.41,0,0.74-0.14,0.98-0.41C34.1,47.26,34.23,46.92,34.23,46.5z"/>
					<path class="st8" d="M40.78,48.13c0,0.86-0.22,1.5-0.66,1.94c-0.44,0.43-1.05,0.65-1.84,0.65c-0.34,0-0.65-0.03-0.94-0.1
						s-0.58-0.17-0.87-0.31l0.3-0.63c0.25,0.12,0.5,0.21,0.74,0.26c0.24,0.05,0.5,0.08,0.77,0.08c0.53,0,0.94-0.15,1.24-0.45
						c0.3-0.3,0.45-0.75,0.45-1.34v-0.57h-0.02c-0.18,0.31-0.41,0.54-0.69,0.7c-0.28,0.16-0.6,0.23-0.97,0.23
						c-0.61,0-1.1-0.22-1.47-0.65c-0.37-0.44-0.56-1.02-0.56-1.75c0-0.8,0.2-1.45,0.61-1.95s0.95-0.75,1.62-0.75
						c0.33,0,0.61,0.07,0.85,0.2c0.24,0.13,0.44,0.33,0.6,0.59h0.02v-0.67h0.83V48.13z M39.96,46.28v-0.7
						c0-0.38-0.13-0.71-0.38-0.98s-0.58-0.41-0.96-0.41c-0.47,0-0.84,0.16-1.11,0.49c-0.27,0.33-0.4,0.82-0.4,1.47
						c0,0.56,0.13,1,0.38,1.3c0.25,0.31,0.59,0.46,1.03,0.46c0.43,0,0.78-0.15,1.05-0.46S39.96,46.76,39.96,46.28z"/>
					<path class="st8" d="M46.38,48.49h-0.83v-0.78h-0.02c-0.16,0.3-0.37,0.52-0.62,0.67c-0.25,0.15-0.55,0.22-0.88,0.22
						c-0.58,0-1.01-0.17-1.3-0.52c-0.29-0.35-0.43-0.87-0.43-1.56v-2.91h0.83v2.79c0,0.5,0.1,0.88,0.29,1.13
						c0.19,0.25,0.48,0.38,0.87,0.38c0.37,0,0.68-0.14,0.92-0.41c0.24-0.28,0.36-0.64,0.36-1.09v-2.8h0.83V48.49z"/>
					<path class="st8" d="M51.49,48.49h-0.82v-0.77h-0.02c-0.17,0.29-0.37,0.51-0.62,0.66c-0.25,0.15-0.54,0.22-0.86,0.22
						c-0.46,0-0.83-0.13-1.11-0.4s-0.42-0.62-0.42-1.05c0-0.42,0.14-0.77,0.43-1.04c0.28-0.27,0.69-0.45,1.23-0.52l1.38-0.19v-0.11
						c0-0.39-0.09-0.68-0.28-0.85c-0.19-0.17-0.44-0.26-0.75-0.26c-0.25,0-0.5,0.05-0.73,0.14c-0.24,0.1-0.46,0.24-0.68,0.43
						l-0.45-0.5c0.28-0.25,0.57-0.44,0.88-0.56c0.31-0.12,0.66-0.18,1.03-0.18c0.59,0,1.04,0.15,1.34,0.46s0.45,0.77,0.45,1.38
						V48.49z M50.67,46.5v-0.47l-1.16,0.16c-0.36,0.05-0.62,0.14-0.8,0.27c-0.18,0.13-0.26,0.33-0.26,0.61
						c0,0.28,0.08,0.49,0.25,0.64c0.17,0.15,0.37,0.23,0.62,0.23c0.41,0,0.74-0.14,0.98-0.41C50.55,47.26,50.67,46.92,50.67,46.5z"
						/>
					<path class="st8" d="M55.48,44.32c-0.06-0.02-0.12-0.03-0.17-0.04c-0.05-0.01-0.12-0.01-0.19-0.01c-0.39,0-0.7,0.17-0.93,0.5
						c-0.23,0.33-0.34,0.75-0.34,1.26v2.46h-0.83v-4.87h0.83v0.97h0.02c0.11-0.34,0.28-0.6,0.51-0.78s0.49-0.27,0.79-0.27
						c0.1,0,0.18,0,0.25,0.01c0.07,0.01,0.13,0.02,0.19,0.04L55.48,44.32z"/>
					<path class="st8" d="M59.88,47.67c-0.18,0.31-0.41,0.54-0.69,0.7c-0.28,0.16-0.6,0.23-0.98,0.23c-0.61,0-1.1-0.22-1.47-0.66
						c-0.37-0.44-0.55-1.03-0.55-1.78c0-0.81,0.2-1.45,0.61-1.94c0.41-0.49,0.95-0.73,1.62-0.73c0.33,0,0.62,0.07,0.86,0.2
						c0.24,0.13,0.44,0.33,0.59,0.59h0.02v-2.84h0.83v7.04H59.9v-0.82H59.88z M57.04,46.12c0,0.56,0.13,1,0.39,1.31
						c0.26,0.32,0.6,0.48,1.03,0.48c0.43,0,0.78-0.15,1.04-0.46c0.26-0.31,0.4-0.7,0.4-1.17v-0.7c0-0.39-0.13-0.72-0.38-0.99
						s-0.58-0.4-0.97-0.4c-0.47,0-0.84,0.17-1.1,0.52C57.18,45.05,57.04,45.52,57.04,46.12z"/>
					<path class="st8" d="M65.84,48.49h-0.82v-0.77H65c-0.17,0.29-0.37,0.51-0.62,0.66c-0.25,0.15-0.54,0.22-0.86,0.22
						c-0.46,0-0.83-0.13-1.11-0.4s-0.42-0.62-0.42-1.05c0-0.42,0.14-0.77,0.43-1.04c0.28-0.27,0.69-0.45,1.23-0.52l1.38-0.19v-0.11
						c0-0.39-0.09-0.68-0.28-0.85c-0.19-0.17-0.44-0.26-0.75-0.26c-0.25,0-0.5,0.05-0.73,0.14c-0.24,0.1-0.46,0.24-0.68,0.43
						l-0.45-0.5c0.28-0.25,0.57-0.44,0.88-0.56c0.31-0.12,0.66-0.18,1.03-0.18c0.59,0,1.04,0.15,1.34,0.46s0.45,0.77,0.45,1.38
						V48.49z M65.02,46.5v-0.47l-1.16,0.16c-0.36,0.05-0.62,0.14-0.8,0.27c-0.18,0.13-0.26,0.33-0.26,0.61
						c0,0.28,0.08,0.49,0.25,0.64c0.17,0.15,0.37,0.23,0.62,0.23c0.41,0,0.74-0.14,0.98-0.41C64.9,47.26,65.02,46.92,65.02,46.5z"/>
					<path class="st8" d="M71.46,48.49h-0.83v-2.78c0-0.51-0.09-0.89-0.28-1.14c-0.19-0.25-0.46-0.38-0.83-0.38
						c-0.38,0-0.7,0.14-0.95,0.43s-0.38,0.65-0.38,1.09v2.78h-0.83v-4.87h0.83v0.81h0.02c0.18-0.31,0.41-0.54,0.67-0.69
						c0.27-0.15,0.57-0.23,0.92-0.23c0.53,0,0.94,0.17,1.22,0.52s0.42,0.84,0.42,1.49V48.49z"/>
					<path class="st8" d="M76.33,47.67c-0.18,0.31-0.41,0.54-0.69,0.7c-0.28,0.16-0.6,0.23-0.98,0.23c-0.61,0-1.1-0.22-1.47-0.66
						c-0.37-0.44-0.55-1.03-0.55-1.78c0-0.81,0.2-1.45,0.61-1.94c0.41-0.49,0.95-0.73,1.62-0.73c0.33,0,0.62,0.07,0.86,0.2
						c0.24,0.13,0.44,0.33,0.59,0.59h0.02v-2.84h0.83v7.04h-0.83v-0.82H76.33z M73.49,46.12c0,0.56,0.13,1,0.39,1.31
						c0.26,0.32,0.6,0.48,1.03,0.48c0.43,0,0.78-0.15,1.04-0.46c0.26-0.31,0.4-0.7,0.4-1.17v-0.7c0-0.39-0.13-0.72-0.38-0.99
						s-0.58-0.4-0.97-0.4c-0.47,0-0.84,0.17-1.1,0.52C73.62,45.05,73.49,45.52,73.49,46.12z"/>
					<path class="st8" d="M80.85,48.6c-0.73,0-1.31-0.23-1.74-0.69c-0.43-0.46-0.65-1.06-0.65-1.82c0-0.81,0.22-1.45,0.67-1.91
						s1.05-0.69,1.83-0.69c0.73,0,1.3,0.22,1.72,0.67c0.41,0.45,0.62,1.07,0.62,1.85c0,0.78-0.22,1.41-0.66,1.88
						S81.59,48.6,80.85,48.6z M80.9,47.92c0.5,0,0.88-0.16,1.14-0.49s0.4-0.78,0.4-1.38c0-0.6-0.13-1.06-0.4-1.38
						c-0.27-0.32-0.65-0.48-1.14-0.48s-0.88,0.17-1.17,0.5s-0.43,0.8-0.43,1.39c0,0.57,0.14,1.02,0.43,1.35
						C80.02,47.75,80.41,47.92,80.9,47.92z"/>
					<path class="st8" d="M90.68,48.49h-0.82v-0.77h-0.02c-0.17,0.29-0.38,0.51-0.62,0.66c-0.25,0.15-0.54,0.22-0.86,0.22
						c-0.46,0-0.83-0.13-1.11-0.4c-0.28-0.27-0.42-0.62-0.42-1.05c0-0.42,0.14-0.77,0.43-1.04s0.7-0.45,1.23-0.52l1.38-0.19v-0.11
						c0-0.39-0.09-0.68-0.28-0.85c-0.19-0.17-0.44-0.26-0.75-0.26c-0.25,0-0.5,0.05-0.73,0.14c-0.24,0.1-0.46,0.24-0.68,0.43
						l-0.45-0.5c0.28-0.25,0.57-0.44,0.88-0.56s0.66-0.18,1.03-0.18c0.59,0,1.04,0.15,1.34,0.46s0.45,0.77,0.45,1.38V48.49z
						 M89.87,46.5v-0.47l-1.16,0.16c-0.36,0.05-0.62,0.14-0.8,0.27c-0.18,0.13-0.26,0.33-0.26,0.61c0,0.28,0.08,0.49,0.25,0.64
						c0.17,0.15,0.37,0.23,0.62,0.23c0.41,0,0.74-0.14,0.98-0.41C89.74,47.26,89.87,46.92,89.87,46.5z"/>
					<path class="st8" d="M98.31,48.18c-0.23,0.15-0.46,0.26-0.7,0.32s-0.48,0.1-0.75,0.1c-0.7,0-1.27-0.21-1.71-0.64
						s-0.66-1.03-0.66-1.8c0-0.8,0.22-1.44,0.67-1.93c0.45-0.49,1.06-0.73,1.84-0.73c0.25,0,0.49,0.03,0.71,0.09
						c0.23,0.06,0.45,0.16,0.68,0.29l-0.35,0.6c-0.18-0.11-0.35-0.18-0.52-0.23s-0.35-0.07-0.55-0.07c-0.53,0-0.94,0.18-1.22,0.53
						c-0.28,0.35-0.43,0.8-0.43,1.35c0,0.59,0.15,1.05,0.44,1.37c0.29,0.32,0.68,0.47,1.14,0.47c0.16,0,0.32-0.02,0.49-0.07
						c0.17-0.05,0.34-0.13,0.52-0.24L98.31,48.18z"/>
					<path class="st8" d="M101.5,48.6c-0.73,0-1.31-0.23-1.74-0.69c-0.43-0.46-0.65-1.06-0.65-1.82c0-0.81,0.22-1.45,0.67-1.91
						c0.45-0.46,1.05-0.69,1.83-0.69c0.73,0,1.3,0.22,1.72,0.67c0.41,0.45,0.62,1.07,0.62,1.85c0,0.78-0.22,1.41-0.66,1.88
						C102.84,48.37,102.25,48.6,101.5,48.6z M101.56,47.92c0.5,0,0.88-0.16,1.14-0.49s0.4-0.78,0.4-1.38c0-0.6-0.13-1.06-0.4-1.38
						c-0.27-0.32-0.65-0.48-1.14-0.48s-0.88,0.17-1.17,0.5c-0.29,0.34-0.43,0.8-0.43,1.39c0,0.57,0.14,1.02,0.43,1.35
						C100.68,47.75,101.07,47.92,101.56,47.92z"/>
					<path class="st8" d="M109.32,48.49h-0.83v-2.78c0-0.51-0.09-0.89-0.28-1.14c-0.19-0.25-0.46-0.38-0.83-0.38
						c-0.38,0-0.7,0.14-0.95,0.43s-0.38,0.65-0.38,1.09v2.78h-0.83v-4.87h0.83v0.81h0.02c0.18-0.31,0.41-0.54,0.67-0.69
						c0.27-0.15,0.57-0.23,0.92-0.23c0.53,0,0.94,0.17,1.22,0.52c0.28,0.34,0.42,0.84,0.42,1.49V48.49z"/>
					<path class="st8" d="M114.31,48.18c-0.23,0.15-0.46,0.26-0.7,0.32s-0.48,0.1-0.75,0.1c-0.7,0-1.27-0.21-1.71-0.64
						s-0.66-1.03-0.66-1.8c0-0.8,0.22-1.44,0.67-1.93c0.45-0.49,1.06-0.73,1.84-0.73c0.25,0,0.49,0.03,0.71,0.09
						c0.23,0.06,0.45,0.16,0.68,0.29l-0.35,0.6c-0.18-0.11-0.35-0.18-0.52-0.23s-0.35-0.07-0.55-0.07c-0.53,0-0.94,0.18-1.22,0.53
						c-0.28,0.35-0.43,0.8-0.43,1.35c0,0.59,0.15,1.05,0.44,1.37c0.29,0.32,0.68,0.47,1.14,0.47c0.16,0,0.32-0.02,0.49-0.07
						c0.17-0.05,0.34-0.13,0.52-0.24L114.31,48.18z"/>
					<path class="st8" d="M115.44,48.49v-7.04h0.83v7.04H115.44z"/>
					<path class="st8" d="M121.86,48.49h-0.83v-0.78h-0.02c-0.16,0.3-0.37,0.52-0.62,0.67c-0.25,0.15-0.55,0.22-0.88,0.22
						c-0.58,0-1.01-0.17-1.3-0.52c-0.29-0.35-0.43-0.87-0.43-1.56v-2.91h0.83v2.79c0,0.5,0.1,0.88,0.29,1.13
						c0.19,0.25,0.48,0.38,0.87,0.38c0.37,0,0.68-0.14,0.92-0.41c0.24-0.28,0.36-0.64,0.36-1.09v-2.8h0.83V48.49z"/>
					<path class="st8" d="M123.03,48.12l0.38-0.62c0.21,0.14,0.41,0.24,0.61,0.31c0.2,0.07,0.42,0.11,0.66,0.11
						c0.33,0,0.57-0.06,0.74-0.18c0.17-0.12,0.26-0.3,0.26-0.54c0-0.2-0.08-0.36-0.23-0.49c-0.15-0.13-0.39-0.24-0.71-0.32
						c-0.6-0.15-1.02-0.35-1.24-0.58c-0.23-0.24-0.34-0.53-0.34-0.88c0-0.41,0.16-0.75,0.47-1.02c0.31-0.27,0.74-0.4,1.28-0.4
						c0.26,0,0.51,0.03,0.74,0.1c0.23,0.07,0.47,0.18,0.71,0.33L126,44.54c-0.22-0.14-0.41-0.23-0.58-0.29
						c-0.17-0.05-0.35-0.08-0.53-0.08c-0.31,0-0.54,0.06-0.71,0.17c-0.16,0.11-0.25,0.28-0.25,0.5c0,0.21,0.08,0.37,0.24,0.48
						c0.16,0.11,0.43,0.21,0.8,0.31c0.5,0.13,0.87,0.32,1.12,0.55c0.25,0.24,0.37,0.55,0.37,0.95c0,0.45-0.16,0.81-0.49,1.07
						s-0.76,0.4-1.32,0.4c-0.3,0-0.59-0.04-0.87-0.12S123.26,48.28,123.03,48.12z"/>
					<path class="st8" d="M131.18,48.49h-0.82v-0.77h-0.02c-0.17,0.29-0.37,0.51-0.62,0.66c-0.25,0.15-0.54,0.22-0.86,0.22
						c-0.46,0-0.83-0.13-1.11-0.4c-0.28-0.27-0.42-0.62-0.42-1.05c0-0.42,0.14-0.77,0.43-1.04c0.28-0.27,0.69-0.45,1.23-0.52
						l1.38-0.19v-0.11c0-0.39-0.09-0.68-0.28-0.85c-0.19-0.17-0.44-0.26-0.75-0.26c-0.25,0-0.5,0.05-0.73,0.14
						c-0.24,0.1-0.46,0.24-0.68,0.43l-0.45-0.5c0.28-0.25,0.57-0.44,0.88-0.56c0.31-0.12,0.66-0.18,1.03-0.18
						c0.59,0,1.04,0.15,1.34,0.46s0.45,0.77,0.45,1.38V48.49z M130.92,41.6c0,0.34-0.08,0.61-0.23,0.82s-0.36,0.31-0.61,0.31
						c-0.11,0-0.23-0.02-0.36-0.06s-0.26-0.1-0.4-0.18c-0.12-0.07-0.23-0.12-0.32-0.16s-0.17-0.05-0.23-0.05
						c-0.14,0-0.24,0.04-0.31,0.13s-0.1,0.22-0.1,0.39h-0.46c0-0.34,0.07-0.62,0.22-0.82s0.36-0.3,0.63-0.3
						c0.1,0,0.21,0.02,0.33,0.06c0.12,0.04,0.24,0.1,0.37,0.18c0.12,0.07,0.22,0.12,0.32,0.15s0.19,0.05,0.27,0.05
						c0.13,0,0.23-0.04,0.29-0.13c0.07-0.09,0.1-0.22,0.1-0.4H130.92z M130.37,46.5v-0.47l-1.16,0.16c-0.36,0.05-0.62,0.14-0.8,0.27
						s-0.26,0.33-0.26,0.61c0,0.28,0.08,0.49,0.25,0.64c0.17,0.15,0.37,0.23,0.62,0.23c0.41,0,0.74-0.14,0.99-0.41
						C130.24,47.26,130.37,46.92,130.37,46.5z"/>
					<path class="st8" d="M134.78,48.6c-0.73,0-1.31-0.23-1.74-0.69c-0.43-0.46-0.65-1.06-0.65-1.82c0-0.81,0.22-1.45,0.67-1.91
						c0.45-0.46,1.05-0.69,1.83-0.69c0.73,0,1.3,0.22,1.72,0.67c0.41,0.45,0.62,1.07,0.62,1.85c0,0.78-0.22,1.41-0.66,1.88
						C136.12,48.37,135.53,48.6,134.78,48.6z M134.84,47.92c0.5,0,0.88-0.16,1.14-0.49s0.4-0.78,0.4-1.38c0-0.6-0.13-1.06-0.4-1.38
						s-0.65-0.48-1.14-0.48s-0.88,0.17-1.17,0.5c-0.29,0.34-0.43,0.8-0.43,1.39c0,0.57,0.14,1.02,0.43,1.35
						C133.96,47.75,134.35,47.92,134.84,47.92z"/>
					<path class="st8" d="M32.08,59.08c-0.18,0.31-0.41,0.54-0.69,0.7c-0.28,0.16-0.6,0.23-0.98,0.23c-0.61,0-1.1-0.22-1.47-0.66
						c-0.37-0.44-0.55-1.03-0.55-1.78c0-0.81,0.2-1.45,0.61-1.94c0.41-0.49,0.95-0.73,1.62-0.73c0.33,0,0.62,0.07,0.86,0.2
						c0.24,0.13,0.44,0.33,0.59,0.59h0.02v-2.84h0.83v7.04H32.1v-0.82H32.08z M29.24,57.54c0,0.56,0.13,1,0.39,1.31
						c0.26,0.32,0.6,0.48,1.03,0.48c0.43,0,0.78-0.15,1.04-0.46c0.26-0.31,0.4-0.7,0.4-1.17v-0.7c0-0.39-0.13-0.72-0.38-0.99
						s-0.58-0.4-0.97-0.4c-0.47,0-0.84,0.17-1.1,0.52C29.38,56.46,29.24,56.93,29.24,57.54z"/>
					<path class="st8" d="M38.49,57.65h-3.43c0.02,0.54,0.16,0.95,0.43,1.24c0.27,0.29,0.65,0.43,1.15,0.43
						c0.21,0,0.43-0.03,0.66-0.1s0.45-0.18,0.68-0.33l0.38,0.58c-0.28,0.19-0.56,0.32-0.85,0.41c-0.29,0.09-0.6,0.13-0.94,0.13
						c-0.74,0-1.31-0.22-1.72-0.66c-0.41-0.44-0.62-1.05-0.62-1.84c0-0.78,0.21-1.41,0.62-1.89c0.42-0.48,0.96-0.72,1.63-0.72
						c0.64,0,1.13,0.21,1.49,0.62c0.35,0.41,0.53,0.99,0.53,1.73V57.65z M37.65,57c0-0.45-0.11-0.8-0.32-1.04
						c-0.21-0.25-0.5-0.37-0.88-0.37c-0.37,0-0.67,0.13-0.93,0.38c-0.25,0.26-0.41,0.6-0.46,1.03H37.65z"/>
					<path class="st8" d="M44.38,60.02c-0.73,0-1.31-0.23-1.74-0.69c-0.43-0.46-0.65-1.06-0.65-1.82c0-0.81,0.22-1.45,0.67-1.91
						s1.05-0.69,1.83-0.69c0.73,0,1.3,0.22,1.72,0.67c0.41,0.45,0.62,1.07,0.62,1.85c0,0.78-0.22,1.41-0.66,1.88
						S45.12,60.02,44.38,60.02z M44.43,59.33c0.5,0,0.88-0.16,1.14-0.49s0.4-0.78,0.4-1.38c0-0.6-0.13-1.06-0.4-1.38
						c-0.27-0.32-0.65-0.48-1.14-0.48s-0.88,0.17-1.17,0.5s-0.43,0.8-0.43,1.39c0,0.57,0.14,1.02,0.43,1.35
						C43.56,59.17,43.95,59.33,44.43,59.33z"/>
					<path class="st8" d="M52.09,59.9h-0.83v-0.78h-0.02c-0.16,0.3-0.37,0.52-0.62,0.67c-0.25,0.15-0.55,0.22-0.88,0.22
						c-0.58,0-1.01-0.17-1.3-0.52C48.15,59.15,48,58.63,48,57.94v-2.91h0.83v2.79c0,0.5,0.1,0.88,0.29,1.13
						c0.19,0.25,0.48,0.38,0.87,0.38c0.37,0,0.68-0.14,0.92-0.41c0.24-0.28,0.36-0.64,0.36-1.09v-2.8h0.83V59.9z"/>
					<path class="st8" d="M56.08,59.84c-0.13,0.06-0.27,0.1-0.4,0.12C55.55,59.99,55.41,60,55.24,60c-0.4,0-0.71-0.12-0.94-0.34
						c-0.22-0.23-0.34-0.57-0.34-1.02v-2.93h-0.83v-0.69h0.83v-1.11l0.83-0.26v1.38h1.22v0.69H54.8v2.83c0,0.28,0.05,0.47,0.15,0.6
						c0.1,0.12,0.25,0.18,0.45,0.18c0.09,0,0.18-0.01,0.27-0.03c0.09-0.02,0.16-0.05,0.22-0.08L56.08,59.84z"/>
					<path class="st8" d="M59.57,55.73c-0.06-0.02-0.12-0.03-0.17-0.04c-0.05-0.01-0.12-0.01-0.19-0.01c-0.39,0-0.7,0.17-0.93,0.5
						c-0.23,0.33-0.34,0.75-0.34,1.26v2.46h-0.83v-4.87h0.83v0.97h0.02c0.11-0.34,0.28-0.6,0.51-0.78s0.49-0.27,0.79-0.27
						c0.1,0,0.18,0,0.25,0.01c0.07,0.01,0.13,0.02,0.19,0.04L59.57,55.73z"/>
					<path class="st8" d="M64.12,59.9H63.3v-0.77h-0.02c-0.17,0.29-0.37,0.51-0.62,0.66c-0.25,0.15-0.54,0.22-0.86,0.22
						c-0.46,0-0.83-0.13-1.11-0.4s-0.42-0.62-0.42-1.05c0-0.42,0.14-0.77,0.43-1.04c0.28-0.27,0.69-0.45,1.23-0.52l1.38-0.19V56.7
						c0-0.39-0.09-0.68-0.28-0.85c-0.19-0.17-0.44-0.26-0.75-0.26c-0.25,0-0.5,0.05-0.73,0.14c-0.24,0.1-0.46,0.24-0.68,0.43
						l-0.45-0.5c0.28-0.25,0.57-0.44,0.88-0.56c0.31-0.12,0.66-0.18,1.03-0.18c0.59,0,1.04,0.15,1.34,0.46s0.45,0.77,0.45,1.38V59.9
						z M63.3,57.91v-0.47l-1.16,0.16c-0.36,0.05-0.62,0.14-0.8,0.27c-0.18,0.13-0.26,0.33-0.26,0.61c0,0.28,0.08,0.49,0.25,0.64
						c0.17,0.15,0.37,0.23,0.62,0.23c0.41,0,0.74-0.14,0.98-0.41C63.18,58.67,63.3,58.33,63.3,57.91z"/>
					<path class="st8" d="M65.22,59.54l0.39-0.62c0.2,0.14,0.41,0.24,0.61,0.31c0.2,0.07,0.42,0.11,0.66,0.11
						c0.33,0,0.57-0.06,0.74-0.18c0.17-0.12,0.26-0.3,0.26-0.54c0-0.2-0.07-0.36-0.23-0.49c-0.15-0.13-0.39-0.24-0.71-0.32
						c-0.6-0.15-1.02-0.35-1.24-0.58c-0.23-0.24-0.34-0.53-0.34-0.88c0-0.41,0.16-0.75,0.47-1.02s0.74-0.4,1.27-0.4
						c0.26,0,0.51,0.03,0.74,0.1c0.23,0.07,0.47,0.18,0.71,0.33l-0.36,0.61c-0.22-0.14-0.41-0.23-0.58-0.29
						c-0.17-0.05-0.35-0.08-0.53-0.08c-0.31,0-0.54,0.06-0.71,0.17c-0.16,0.11-0.25,0.28-0.25,0.5c0,0.21,0.08,0.37,0.24,0.48
						c0.16,0.11,0.43,0.21,0.8,0.31c0.5,0.13,0.87,0.32,1.12,0.55c0.25,0.24,0.37,0.55,0.37,0.95c0,0.45-0.16,0.81-0.49,1.07
						c-0.32,0.26-0.76,0.4-1.32,0.4c-0.3,0-0.59-0.04-0.87-0.12C65.71,59.81,65.46,59.69,65.22,59.54z"/>
					<path class="st8" d="M74.82,53.52c-0.09-0.03-0.17-0.05-0.24-0.07c-0.07-0.01-0.15-0.02-0.22-0.02c-0.26,0-0.45,0.07-0.57,0.2
						c-0.12,0.14-0.19,0.34-0.19,0.6v0.79h1.12v0.69H73.6v4.18h-0.82v-4.18h-0.82v-0.69h0.82V54.2c0-0.46,0.14-0.81,0.42-1.07
						s0.67-0.39,1.16-0.39c0.12,0,0.24,0.01,0.34,0.03c0.1,0.02,0.21,0.04,0.32,0.08L74.82,53.52z"/>
					<path class="st8" d="M79.62,59.9H78.8v-0.78h-0.02c-0.16,0.3-0.37,0.52-0.62,0.67c-0.25,0.15-0.55,0.22-0.88,0.22
						c-0.58,0-1.01-0.17-1.3-0.52c-0.29-0.35-0.43-0.87-0.43-1.56v-2.91h0.83v2.79c0,0.5,0.1,0.88,0.29,1.13
						c0.19,0.25,0.48,0.38,0.87,0.38c0.37,0,0.68-0.14,0.92-0.41c0.24-0.28,0.36-0.64,0.36-1.09v-2.8h0.83V59.9z"/>
					<path class="st8" d="M85.31,59.9h-0.83v-2.78c0-0.51-0.09-0.89-0.28-1.14c-0.19-0.25-0.46-0.38-0.83-0.38
						c-0.38,0-0.7,0.14-0.95,0.43s-0.38,0.65-0.38,1.09v2.78h-0.83v-4.87h0.83v0.81h0.02c0.18-0.31,0.41-0.54,0.67-0.69
						c0.27-0.15,0.57-0.23,0.92-0.23c0.53,0,0.94,0.17,1.22,0.52s0.42,0.84,0.42,1.49V59.9z"/>
					<path class="st8" d="M90.31,59.59c-0.23,0.15-0.46,0.26-0.7,0.32c-0.23,0.07-0.48,0.1-0.75,0.1c-0.7,0-1.26-0.21-1.7-0.64
						c-0.44-0.43-0.66-1.03-0.66-1.8c0-0.8,0.22-1.44,0.67-1.93c0.45-0.49,1.06-0.73,1.84-0.73c0.25,0,0.49,0.03,0.72,0.09
						c0.23,0.06,0.45,0.16,0.68,0.29l-0.35,0.6c-0.18-0.11-0.35-0.18-0.52-0.23c-0.17-0.04-0.35-0.07-0.55-0.07
						c-0.53,0-0.94,0.18-1.22,0.53s-0.42,0.8-0.42,1.35c0,0.59,0.15,1.05,0.44,1.37c0.3,0.32,0.68,0.47,1.14,0.47
						c0.16,0,0.32-0.02,0.49-0.07c0.17-0.05,0.34-0.13,0.52-0.24L90.31,59.59z"/>
					<path class="st8" d="M91.86,54c-0.16,0-0.3-0.05-0.41-0.16s-0.16-0.24-0.16-0.39c0-0.16,0.05-0.29,0.16-0.4
						c0.11-0.11,0.24-0.16,0.41-0.16s0.3,0.05,0.41,0.16c0.11,0.11,0.17,0.24,0.17,0.4c0,0.15-0.05,0.29-0.17,0.39
						C92.16,53.94,92.02,54,91.86,54z M92.26,59.9h-0.83v-4.87h0.83V59.9z"/>
					<path class="st8" d="M95.99,60.02c-0.73,0-1.31-0.23-1.74-0.69c-0.43-0.46-0.65-1.06-0.65-1.82c0-0.81,0.22-1.45,0.67-1.91
						c0.45-0.46,1.05-0.69,1.83-0.69c0.73,0,1.3,0.22,1.72,0.67c0.41,0.45,0.62,1.07,0.62,1.85c0,0.78-0.22,1.41-0.66,1.88
						C97.33,59.78,96.73,60.02,95.99,60.02z M96.05,59.33c0.5,0,0.88-0.16,1.14-0.49s0.4-0.78,0.4-1.38c0-0.6-0.13-1.06-0.4-1.38
						s-0.65-0.48-1.14-0.48s-0.88,0.17-1.17,0.5c-0.29,0.34-0.43,0.8-0.43,1.39c0,0.57,0.14,1.02,0.43,1.35
						C95.17,59.17,95.56,59.33,96.05,59.33z"/>
					<path class="st8" d="M103.8,59.9h-0.83v-2.78c0-0.51-0.09-0.89-0.28-1.14s-0.46-0.38-0.83-0.38c-0.38,0-0.7,0.14-0.95,0.43
						s-0.38,0.65-0.38,1.09v2.78h-0.83v-4.87h0.83v0.81h0.02c0.18-0.31,0.41-0.54,0.67-0.69c0.27-0.15,0.57-0.23,0.92-0.23
						c0.53,0,0.94,0.17,1.22,0.52c0.28,0.34,0.42,0.84,0.42,1.49V59.9z"/>
					<path class="st8" d="M108.81,59.9h-0.82v-0.77h-0.02c-0.17,0.29-0.38,0.51-0.62,0.66c-0.25,0.15-0.54,0.22-0.86,0.22
						c-0.46,0-0.83-0.13-1.11-0.4c-0.28-0.27-0.42-0.62-0.42-1.05c0-0.42,0.14-0.77,0.43-1.04s0.7-0.45,1.23-0.52l1.38-0.19V56.7
						c0-0.39-0.09-0.68-0.28-0.85c-0.19-0.17-0.44-0.26-0.75-0.26c-0.25,0-0.5,0.05-0.73,0.14c-0.24,0.1-0.46,0.24-0.68,0.43
						l-0.45-0.5c0.28-0.25,0.57-0.44,0.88-0.56s0.66-0.18,1.03-0.18c0.59,0,1.04,0.15,1.34,0.46s0.45,0.77,0.45,1.38V59.9z
						 M108,57.91v-0.47l-1.16,0.16c-0.36,0.05-0.62,0.14-0.8,0.27c-0.18,0.13-0.26,0.33-0.26,0.61c0,0.28,0.08,0.49,0.25,0.64
						c0.17,0.15,0.37,0.23,0.62,0.23c0.41,0,0.74-0.14,0.98-0.41C107.87,58.67,108,58.33,108,57.91z"/>
					<path class="st8" d="M110.35,59.9v-7.04h0.83v7.04H110.35z"/>
					<path class="st8" d="M113.2,54c-0.16,0-0.3-0.05-0.41-0.16s-0.16-0.24-0.16-0.39c0-0.16,0.05-0.29,0.16-0.4
						c0.11-0.11,0.25-0.16,0.41-0.16s0.3,0.05,0.41,0.16c0.11,0.11,0.16,0.24,0.16,0.4c0,0.15-0.05,0.29-0.16,0.39
						C113.5,53.94,113.37,54,113.2,54z M113.61,59.9h-0.83v-4.87h0.83V59.9z"/>
					<path class="st8" d="M118.63,59.08c-0.18,0.31-0.41,0.54-0.68,0.7c-0.28,0.16-0.6,0.23-0.98,0.23c-0.61,0-1.1-0.22-1.47-0.66
						c-0.37-0.44-0.55-1.03-0.55-1.78c0-0.81,0.2-1.45,0.61-1.94c0.41-0.49,0.95-0.73,1.62-0.73c0.33,0,0.62,0.07,0.86,0.2
						s0.44,0.33,0.59,0.59h0.02v-2.84h0.83v7.04h-0.83v-0.82H118.63z M115.79,57.54c0,0.56,0.13,1,0.39,1.31
						c0.26,0.32,0.6,0.48,1.03,0.48c0.43,0,0.78-0.15,1.04-0.46c0.26-0.31,0.39-0.7,0.39-1.17v-0.7c0-0.39-0.13-0.72-0.38-0.99
						c-0.26-0.27-0.58-0.4-0.97-0.4c-0.47,0-0.83,0.17-1.1,0.52C115.93,56.46,115.79,56.93,115.79,57.54z"/>
					<path class="st8" d="M124.59,59.9h-0.82v-0.77h-0.02c-0.17,0.29-0.38,0.51-0.62,0.66c-0.25,0.15-0.54,0.22-0.86,0.22
						c-0.46,0-0.83-0.13-1.11-0.4c-0.28-0.27-0.42-0.62-0.42-1.05c0-0.42,0.14-0.77,0.43-1.04s0.7-0.45,1.23-0.52l1.38-0.19V56.7
						c0-0.39-0.09-0.68-0.28-0.85c-0.19-0.17-0.44-0.26-0.75-0.26c-0.25,0-0.5,0.05-0.73,0.14c-0.24,0.1-0.46,0.24-0.68,0.43
						l-0.45-0.5c0.28-0.25,0.57-0.44,0.88-0.56s0.66-0.18,1.03-0.18c0.59,0,1.04,0.15,1.34,0.46s0.45,0.77,0.45,1.38V59.9z
						 M123.77,57.91v-0.47l-1.16,0.16c-0.36,0.05-0.62,0.14-0.8,0.27c-0.18,0.13-0.26,0.33-0.26,0.61c0,0.28,0.08,0.49,0.25,0.64
						c0.17,0.15,0.37,0.23,0.62,0.23c0.41,0,0.74-0.14,0.98-0.41C123.65,58.67,123.77,58.33,123.77,57.91z"/>
					<path class="st8" d="M129.48,59.08c-0.18,0.31-0.41,0.54-0.68,0.7c-0.28,0.16-0.6,0.23-0.98,0.23c-0.61,0-1.1-0.22-1.47-0.66
						c-0.37-0.44-0.55-1.03-0.55-1.78c0-0.81,0.2-1.45,0.61-1.94c0.41-0.49,0.95-0.73,1.62-0.73c0.33,0,0.62,0.07,0.86,0.2
						s0.44,0.33,0.59,0.59h0.02v-2.84h0.83v7.04h-0.83v-0.82H129.48z M126.65,57.54c0,0.56,0.13,1,0.39,1.31
						c0.26,0.32,0.6,0.48,1.03,0.48c0.43,0,0.78-0.15,1.04-0.46c0.26-0.31,0.39-0.7,0.39-1.17v-0.7c0-0.39-0.13-0.72-0.38-0.99
						c-0.26-0.27-0.58-0.4-0.97-0.4c-0.47,0-0.83,0.17-1.1,0.52C126.78,56.46,126.65,56.93,126.65,57.54z"/>
					<path class="st8" d="M135.89,57.65h-3.43c0.02,0.54,0.16,0.95,0.43,1.24c0.27,0.29,0.65,0.43,1.15,0.43
						c0.21,0,0.43-0.03,0.66-0.1s0.45-0.18,0.68-0.33l0.38,0.58c-0.28,0.19-0.56,0.32-0.85,0.41c-0.29,0.09-0.6,0.13-0.94,0.13
						c-0.74,0-1.31-0.22-1.72-0.66s-0.62-1.05-0.62-1.84c0-0.78,0.21-1.41,0.62-1.89c0.42-0.48,0.96-0.72,1.63-0.72
						c0.64,0,1.13,0.21,1.49,0.62c0.35,0.41,0.53,0.99,0.53,1.73V57.65z M135.06,57c0-0.45-0.11-0.8-0.32-1.04
						c-0.21-0.25-0.5-0.37-0.88-0.37c-0.37,0-0.67,0.13-0.93,0.38c-0.25,0.26-0.41,0.6-0.46,1.03H135.06z"/>
					<path class="st8" d="M136.68,59.54l0.38-0.62c0.21,0.14,0.41,0.24,0.61,0.31c0.2,0.07,0.42,0.11,0.66,0.11
						c0.33,0,0.57-0.06,0.74-0.18c0.17-0.12,0.26-0.3,0.26-0.54c0-0.2-0.08-0.36-0.23-0.49c-0.15-0.13-0.39-0.24-0.71-0.32
						c-0.6-0.15-1.02-0.35-1.24-0.58c-0.23-0.24-0.34-0.53-0.34-0.88c0-0.41,0.16-0.75,0.47-1.02c0.31-0.27,0.74-0.4,1.28-0.4
						c0.26,0,0.51,0.03,0.74,0.1c0.23,0.07,0.47,0.18,0.71,0.33l-0.36,0.61c-0.22-0.14-0.41-0.23-0.58-0.29
						c-0.17-0.05-0.35-0.08-0.53-0.08c-0.31,0-0.54,0.06-0.71,0.17c-0.16,0.11-0.25,0.28-0.25,0.5c0,0.21,0.08,0.37,0.24,0.48
						c0.16,0.11,0.43,0.21,0.8,0.31c0.5,0.13,0.87,0.32,1.12,0.55c0.25,0.24,0.37,0.55,0.37,0.95c0,0.45-0.16,0.81-0.49,1.07
						s-0.76,0.4-1.32,0.4c-0.3,0-0.59-0.04-0.87-0.12S136.91,59.69,136.68,59.54z"/>
					<path class="st8" d="M59.01,67.15c-0.06-0.02-0.12-0.03-0.17-0.04c-0.05-0.01-0.12-0.01-0.19-0.01c-0.39,0-0.7,0.17-0.93,0.5
						c-0.23,0.33-0.34,0.75-0.34,1.26v2.46h-0.83v-4.87h0.83v0.97h0.02c0.11-0.34,0.28-0.6,0.51-0.78s0.49-0.27,0.79-0.27
						c0.1,0,0.18,0,0.25,0.01c0.07,0.01,0.13,0.02,0.19,0.04L59.01,67.15z"/>
					<path class="st8" d="M64,69.07h-3.43c0.02,0.54,0.16,0.95,0.43,1.24c0.27,0.29,0.65,0.43,1.15,0.43c0.21,0,0.43-0.03,0.66-0.1
						s0.45-0.18,0.68-0.33l0.38,0.58c-0.28,0.19-0.56,0.32-0.85,0.41c-0.29,0.09-0.6,0.13-0.94,0.13c-0.74,0-1.31-0.22-1.72-0.66
						c-0.41-0.44-0.62-1.05-0.62-1.84c0-0.78,0.21-1.41,0.62-1.89c0.42-0.48,0.96-0.72,1.63-0.72c0.64,0,1.13,0.21,1.49,0.62
						c0.35,0.41,0.53,0.99,0.53,1.73V69.07z M63.17,68.42c0-0.45-0.11-0.8-0.32-1.04c-0.21-0.25-0.5-0.37-0.88-0.37
						c-0.37,0-0.67,0.13-0.93,0.38c-0.25,0.26-0.41,0.6-0.46,1.03H63.17z"/>
					<path class="st8" d="M65.22,71.31v-7.04h0.83v7.04H65.22z"/>
					<path class="st8" d="M71.16,71.31h-0.82v-0.77h-0.02c-0.17,0.29-0.37,0.51-0.62,0.66c-0.25,0.15-0.54,0.22-0.86,0.22
						c-0.46,0-0.83-0.13-1.11-0.4s-0.42-0.62-0.42-1.05c0-0.42,0.14-0.77,0.43-1.04c0.28-0.27,0.69-0.45,1.23-0.52l1.38-0.19v-0.11
						c0-0.39-0.09-0.68-0.28-0.85C69.87,67.09,69.62,67,69.31,67c-0.25,0-0.5,0.05-0.73,0.14c-0.24,0.1-0.46,0.24-0.68,0.43
						l-0.45-0.5c0.28-0.25,0.57-0.44,0.88-0.56c0.31-0.12,0.66-0.18,1.03-0.18c0.59,0,1.04,0.15,1.34,0.46s0.45,0.77,0.45,1.38
						V71.31z M70.34,69.33v-0.47l-1.16,0.16c-0.36,0.05-0.62,0.14-0.8,0.27c-0.18,0.13-0.26,0.33-0.26,0.61
						c0,0.28,0.08,0.49,0.25,0.64c0.17,0.15,0.37,0.23,0.62,0.23c0.41,0,0.74-0.14,0.98-0.41C70.22,70.09,70.34,69.74,70.34,69.33z"
						/>
					<path class="st8" d="M76.18,71.01c-0.23,0.15-0.46,0.26-0.7,0.32c-0.23,0.07-0.48,0.1-0.75,0.1c-0.7,0-1.27-0.21-1.7-0.64
						c-0.44-0.43-0.66-1.03-0.66-1.8c0-0.8,0.22-1.44,0.67-1.93c0.45-0.49,1.06-0.73,1.84-0.73c0.25,0,0.49,0.03,0.72,0.09
						s0.45,0.16,0.68,0.29l-0.35,0.6c-0.18-0.11-0.35-0.18-0.52-0.23c-0.17-0.04-0.35-0.07-0.55-0.07c-0.53,0-0.94,0.18-1.22,0.53
						c-0.28,0.35-0.43,0.8-0.43,1.35c0,0.59,0.15,1.05,0.44,1.37c0.3,0.32,0.68,0.47,1.14,0.47c0.16,0,0.32-0.02,0.49-0.07
						c0.17-0.05,0.34-0.13,0.52-0.24L76.18,71.01z"/>
					<path class="st8" d="M77.73,65.41c-0.16,0-0.3-0.05-0.41-0.16s-0.16-0.24-0.16-0.39c0-0.16,0.05-0.29,0.16-0.4
						c0.11-0.11,0.24-0.16,0.41-0.16s0.3,0.05,0.41,0.16c0.11,0.11,0.16,0.24,0.16,0.4c0,0.15-0.05,0.29-0.16,0.39
						S77.9,65.41,77.73,65.41z M78.14,71.31h-0.83v-4.87h0.83V71.31z"/>
					<path class="st8" d="M81.87,71.43c-0.73,0-1.31-0.23-1.74-0.69c-0.43-0.46-0.65-1.06-0.65-1.82c0-0.81,0.22-1.45,0.67-1.91
						s1.05-0.69,1.83-0.69c0.73,0,1.3,0.22,1.72,0.67c0.41,0.45,0.62,1.07,0.62,1.85c0,0.78-0.22,1.41-0.66,1.88
						S82.61,71.43,81.87,71.43z M81.92,70.74c0.5,0,0.88-0.16,1.14-0.49s0.4-0.78,0.4-1.38c0-0.6-0.13-1.06-0.4-1.38
						c-0.27-0.32-0.65-0.48-1.14-0.48s-0.88,0.17-1.17,0.5s-0.43,0.8-0.43,1.39c0,0.57,0.14,1.02,0.43,1.35
						C81.04,70.58,81.43,70.74,81.92,70.74z"/>
					<path class="st8" d="M89.68,71.31h-0.83v-2.78c0-0.51-0.09-0.89-0.28-1.14s-0.46-0.38-0.83-0.38c-0.38,0-0.7,0.14-0.95,0.43
						s-0.38,0.65-0.38,1.09v2.78h-0.83v-4.87h0.83v0.81h0.02c0.18-0.31,0.41-0.54,0.67-0.69c0.27-0.15,0.57-0.23,0.92-0.23
						c0.53,0,0.94,0.17,1.22,0.52c0.28,0.34,0.42,0.84,0.42,1.49V71.31z"/>
					<path class="st8" d="M94.69,71.31h-0.82v-0.77h-0.02c-0.17,0.29-0.38,0.51-0.62,0.66c-0.25,0.15-0.54,0.22-0.86,0.22
						c-0.46,0-0.83-0.13-1.11-0.4c-0.28-0.27-0.42-0.62-0.42-1.05c0-0.42,0.14-0.77,0.43-1.04s0.7-0.45,1.23-0.52l1.38-0.19v-0.11
						c0-0.39-0.09-0.68-0.28-0.85C93.4,67.09,93.15,67,92.84,67c-0.25,0-0.5,0.05-0.73,0.14c-0.24,0.1-0.46,0.24-0.68,0.43
						l-0.45-0.5c0.28-0.25,0.57-0.44,0.88-0.56s0.66-0.18,1.03-0.18c0.59,0,1.04,0.15,1.34,0.46s0.45,0.77,0.45,1.38V71.31z
						 M93.87,69.33v-0.47l-1.16,0.16c-0.36,0.05-0.62,0.14-0.8,0.27c-0.18,0.13-0.26,0.33-0.26,0.61c0,0.28,0.08,0.49,0.25,0.64
						c0.17,0.15,0.37,0.23,0.62,0.23c0.41,0,0.74-0.14,0.98-0.41C93.75,70.09,93.87,69.74,93.87,69.33z"/>
					<path class="st8" d="M99.58,70.5c-0.18,0.31-0.41,0.54-0.68,0.7c-0.28,0.16-0.6,0.23-0.98,0.23c-0.61,0-1.1-0.22-1.47-0.66
						c-0.37-0.44-0.55-1.03-0.55-1.78c0-0.81,0.2-1.45,0.61-1.94c0.41-0.49,0.95-0.73,1.62-0.73c0.33,0,0.62,0.07,0.86,0.2
						s0.44,0.33,0.59,0.59h0.02v-2.84h0.83v7.04H99.6V70.5H99.58z M96.75,68.95c0,0.56,0.13,1,0.39,1.31
						c0.26,0.32,0.6,0.48,1.03,0.48c0.43,0,0.78-0.15,1.04-0.46c0.26-0.31,0.39-0.7,0.39-1.17v-0.7c0-0.39-0.13-0.72-0.38-0.99
						c-0.26-0.27-0.58-0.4-0.97-0.4c-0.47,0-0.83,0.17-1.1,0.52C96.88,67.87,96.75,68.35,96.75,68.95z"/>
					<path class="st8" d="M105.54,71.31h-0.82v-0.77h-0.02c-0.17,0.29-0.38,0.51-0.62,0.66c-0.25,0.15-0.54,0.22-0.86,0.22
						c-0.46,0-0.83-0.13-1.11-0.4c-0.28-0.27-0.42-0.62-0.42-1.05c0-0.42,0.14-0.77,0.43-1.04s0.7-0.45,1.23-0.52l1.38-0.19v-0.11
						c0-0.39-0.09-0.68-0.28-0.85C104.26,67.09,104,67,103.69,67c-0.25,0-0.5,0.05-0.73,0.14c-0.24,0.1-0.46,0.24-0.68,0.43
						l-0.45-0.5c0.28-0.25,0.57-0.44,0.88-0.56s0.66-0.18,1.03-0.18c0.59,0,1.04,0.15,1.34,0.46s0.45,0.77,0.45,1.38V71.31z
						 M104.72,69.33v-0.47l-1.16,0.16c-0.36,0.05-0.62,0.14-0.8,0.27c-0.18,0.13-0.26,0.33-0.26,0.61c0,0.28,0.08,0.49,0.25,0.64
						c0.17,0.15,0.37,0.23,0.62,0.23c0.41,0,0.74-0.14,0.98-0.41C104.6,70.09,104.72,69.74,104.72,69.33z"/>
					<path class="st8" d="M106.64,70.95l0.38-0.62c0.21,0.14,0.41,0.24,0.61,0.31c0.2,0.07,0.42,0.11,0.66,0.11
						c0.33,0,0.57-0.06,0.74-0.18c0.17-0.12,0.26-0.3,0.26-0.54c0-0.2-0.08-0.36-0.23-0.49c-0.15-0.13-0.39-0.24-0.71-0.32
						c-0.6-0.15-1.02-0.35-1.24-0.58c-0.23-0.24-0.34-0.53-0.34-0.88c0-0.41,0.16-0.75,0.47-1.02c0.31-0.27,0.74-0.4,1.28-0.4
						c0.26,0,0.51,0.03,0.74,0.1c0.23,0.07,0.47,0.18,0.71,0.33l-0.36,0.61c-0.22-0.14-0.41-0.23-0.58-0.29
						c-0.17-0.05-0.35-0.08-0.53-0.08c-0.31,0-0.54,0.06-0.71,0.17c-0.16,0.11-0.25,0.28-0.25,0.5c0,0.21,0.08,0.37,0.24,0.48
						c0.16,0.11,0.43,0.21,0.8,0.31c0.5,0.13,0.87,0.32,1.12,0.55c0.25,0.24,0.37,0.55,0.37,0.95c0,0.45-0.16,0.81-0.49,1.07
						s-0.76,0.4-1.32,0.4c-0.3,0-0.59-0.04-0.87-0.12S106.88,71.11,106.64,70.95z"/>
					<path class="st8" d="M111.59,71.42c-0.16,0-0.29-0.05-0.4-0.16s-0.17-0.24-0.17-0.39c0-0.15,0.06-0.28,0.17-0.39
						s0.25-0.16,0.4-0.16s0.29,0.05,0.4,0.16c0.11,0.11,0.17,0.24,0.17,0.39c0,0.15-0.05,0.28-0.17,0.39
						C111.89,71.36,111.75,71.42,111.59,71.42z"/>
				</g>
			</g>
		</g>
	</g>
</g>
</svg>
