<?xml version="1.0" encoding="utf-8"?>
<!-- Generator: Adobe Illustrator 26.3.0, SVG Export Plug-In . SVG Version: 6.00 Build 0)  -->
<svg version="1.1" id="Camada_1" xmlns="http://www.w3.org/2000/svg" xmlns:xlink="http://www.w3.org/1999/xlink" x="0px" y="0px"
	 width="25px" height="25px" viewBox="0 0 25 25" style="enable-background:new 0 0 25 25;" xml:space="preserve">
<style type="text/css">
	.st0{fill:#31271C;}
	.st1{fill:url(#SVGID_1_);}
	.st2{fill:#FFFFFF;}
</style>
<g>
	<g>
		<path class="st0" d="M21,0L4,0C1.8,0,0,1.8,0,4l0,17c0,2.2,1.8,4,4,4h17c2.2,0,4-1.8,4-4V4C25,1.8,23.2,0,21,0z"/>
	</g>
</g>
<g>
	<linearGradient id="SVGID_1_" gradientUnits="userSpaceOnUse" x1="3.1045" y1="12.5" x2="21.8955" y2="12.5">
		<stop  offset="0" style="stop-color:#FFA750"/>
		<stop  offset="1" style="stop-color:#EF8D2B"/>
	</linearGradient>
	<path class="st1" d="M21.75,10.88c-0.54-2.87-2.07-5.05-4.57-6.54c-1.22-0.72-2.54-1.12-3.95-1.23c-0.05,0-0.09-0.02-0.14-0.03
		h-1.17c-0.34,0.05-0.68,0.08-1.01,0.14C8.7,3.61,6.86,4.66,5.4,6.35C4.1,7.84,3.35,9.57,3.16,11.54c-0.24,2.44,0.37,4.67,1.85,6.63
		c1.41,1.86,3.27,3.05,5.55,3.54c0.39,0.08,0.78,0.12,1.18,0.17c0.06,0.01,0.12,0.02,0.18,0.03h1.17c0.35-0.05,0.7-0.08,1.05-0.15
		c2.64-0.49,4.71-1.87,6.21-4.09c0.9-1.34,1.4-2.83,1.52-4.45c0-0.05,0.02-0.09,0.03-0.14v-1.18
		C21.85,11.57,21.82,11.22,21.75,10.88z M18.66,13.27c-0.07,0.01-0.15,0.01-0.22,0.01c-1.94,0-3.88,0-5.82,0
		c-0.62,0-0.91-0.29-0.91-0.91c0-1.96,0-3.92,0-5.88c0-0.47,0.25-0.78,0.68-0.84c0.43-0.07,0.84,0.26,0.88,0.69
		c0.01,0.08,0.01,0.16,0.01,0.24c0,1.64,0,3.27,0,4.91v0.24h0.24c1.66,0,3.33,0,4.99,0c0.46,0,0.77,0.26,0.84,0.68
		C19.4,12.82,19.09,13.23,18.66,13.27z"/>
	<path class="st2" d="M13.28,11.72c0.09,0,0.17,0,0.24,0c1.66,0,3.33,0,4.99,0c0.46,0,0.77,0.26,0.84,0.68
		c0.06,0.42-0.26,0.83-0.68,0.87c-0.07,0.01-0.15,0.01-0.22,0.01c-1.94,0-3.88,0-5.82,0c-0.62,0-0.91-0.29-0.91-0.91
		c0-1.96,0-3.92,0-5.88c0-0.47,0.25-0.78,0.68-0.84c0.43-0.07,0.84,0.26,0.88,0.69c0.01,0.08,0.01,0.16,0.01,0.24
		c0,1.64,0,3.27,0,4.91C13.28,11.55,13.28,11.62,13.28,11.72z"/>
</g>
</svg>
