<svg width="54" height="22" viewBox="0 0 54 22" fill="none" xmlns="http://www.w3.org/2000/svg">
<g id="Group 32">
<g id="Group 22">
<rect id="Surface" opacity="0.2" width="54" height="22" rx="10" fill="#FF7020"/>
</g>
<path id="Array" d="M11.9191 16H9.77708L13.0409 6.54545H15.6169L18.8762 16H16.7341L14.3659 8.70597H14.292L11.9191 16ZM11.7852 12.2837H16.8449V13.8441H11.7852V12.2837ZM19.9772 16V8.90909H21.8838V10.1463H21.9577C22.0869 9.7062 22.3039 9.37382 22.6086 9.14915C22.9133 8.9214 23.2641 8.80753 23.6611 8.80753C23.7596 8.80753 23.8658 8.81368 23.9797 8.82599C24.0935 8.8383 24.1936 8.85523 24.2797 8.87678V10.6218C24.1874 10.5941 24.0597 10.5695 23.8966 10.5479C23.7335 10.5264 23.5842 10.5156 23.4488 10.5156C23.1595 10.5156 22.901 10.5787 22.6732 10.7049C22.4485 10.828 22.27 11.0004 22.1377 11.2219C22.0084 11.4435 21.9438 11.699 21.9438 11.9883V16H19.9772ZM25.2965 16V8.90909H27.2031V10.1463H27.277C27.4063 9.7062 27.6232 9.37382 27.9279 9.14915C28.2326 8.9214 28.5835 8.80753 28.9805 8.80753C29.079 8.80753 29.1851 8.81368 29.299 8.82599C29.4129 8.8383 29.5129 8.85523 29.5991 8.87678V10.6218C29.5067 10.5941 29.379 10.5695 29.2159 10.5479C29.0528 10.5264 28.9035 10.5156 28.7681 10.5156C28.4788 10.5156 28.2203 10.5787 27.9925 10.7049C27.7679 10.828 27.5894 11.0004 27.457 11.2219C27.3278 11.4435 27.2631 11.699 27.2631 11.9883V16H25.2965ZM32.4347 16.1339C31.9823 16.1339 31.5792 16.0554 31.2252 15.8984C30.8713 15.7384 30.5912 15.503 30.385 15.1921C30.1819 14.8782 30.0803 14.4873 30.0803 14.0195C30.0803 13.6256 30.1527 13.2947 30.2973 13.027C30.442 12.7592 30.6389 12.5438 30.8882 12.3807C31.1375 12.2176 31.4207 12.0945 31.7377 12.0114C32.0577 11.9283 32.3932 11.8698 32.7441 11.8359C33.1565 11.7929 33.4888 11.7528 33.7412 11.7159C33.9936 11.6759 34.1767 11.6174 34.2906 11.5405C34.4044 11.4635 34.4614 11.3497 34.4614 11.1989V11.1712C34.4614 10.8788 34.3691 10.6526 34.1844 10.4925C34.0028 10.3325 33.7443 10.2525 33.4088 10.2525C33.0549 10.2525 32.7733 10.331 32.564 10.4879C32.3547 10.6418 32.2162 10.8357 32.1485 11.0696L30.3296 10.9219C30.422 10.491 30.6035 10.1186 30.8744 9.80469C31.1452 9.48769 31.4945 9.24455 31.9223 9.07528C32.3532 8.90294 32.8518 8.81676 33.4181 8.81676C33.812 8.81676 34.189 8.86293 34.5491 8.95526C34.9123 9.04759 35.2339 9.1907 35.5139 9.38459C35.7971 9.57848 36.0202 9.82777 36.1833 10.1325C36.3464 10.4341 36.428 10.7957 36.428 11.2173V16H34.5629V15.0167H34.5075C34.3937 15.2383 34.2413 15.4337 34.0505 15.603C33.8597 15.7692 33.6304 15.9 33.3627 15.9954C33.0949 16.0877 32.7856 16.1339 32.4347 16.1339ZM32.998 14.7766C33.2873 14.7766 33.5427 14.7197 33.7643 14.6058C33.9859 14.4889 34.1598 14.3319 34.286 14.1349C34.4121 13.938 34.4752 13.7148 34.4752 13.4656V12.7131C34.4137 12.7531 34.329 12.79 34.2213 12.8239C34.1167 12.8546 33.9982 12.8839 33.8659 12.9116C33.7335 12.9362 33.6012 12.9593 33.4688 12.9808C33.3365 12.9993 33.2165 13.0162 33.1088 13.0316C32.8779 13.0655 32.6763 13.1193 32.504 13.1932C32.3316 13.267 32.1978 13.3671 32.1024 13.4933C32.007 13.6164 31.9593 13.7702 31.9593 13.9549C31.9593 14.2227 32.0562 14.4273 32.2501 14.5689C32.4471 14.7074 32.6963 14.7766 32.998 14.7766ZM38.914 18.6591C38.6647 18.6591 38.4308 18.6391 38.2123 18.5991C37.9968 18.5621 37.8183 18.5144 37.6768 18.456L38.1199 16.9879C38.3508 17.0587 38.5585 17.0972 38.7432 17.1033C38.9309 17.1095 39.0925 17.0664 39.2279 16.9741C39.3664 16.8817 39.4787 16.7248 39.5649 16.5032L39.6803 16.2031L37.1366 8.90909H39.2048L40.6729 14.1165H40.7467L42.2286 8.90909H44.3106L41.5546 16.7663C41.4223 17.148 41.2422 17.4804 41.0145 17.7635C40.7898 18.0497 40.5051 18.2698 40.1604 18.4237C39.8157 18.5806 39.4002 18.6591 38.914 18.6591Z" fill="#FF7020"/>
</g>
</svg>
