<svg width="71" height="22" viewBox="0 0 71 22" fill="none" xmlns="http://www.w3.org/2000/svg">
<rect opacity="0.2" width="70.125" height="22" rx="11" fill="#FFAB00"/>
<path d="M21.5792 15H19.6019L22.6147 6.27273H24.9925L28.0011 15H26.0238L23.8377 8.26705H23.7695L21.5792 15ZM21.4556 11.5696H26.1261V13.0099H21.4556V11.5696ZM29.0174 15V8.45455H30.7773V9.59659H30.8455C30.9648 9.19034 31.1651 8.88352 31.4464 8.67614C31.7276 8.46591 32.0515 8.3608 32.418 8.3608C32.5089 8.3608 32.6069 8.36648 32.712 8.37784C32.8171 8.3892 32.9094 8.40483 32.989 8.42472V10.0355C32.9038 10.0099 32.7859 9.98722 32.6353 9.96733C32.4847 9.94744 32.3469 9.9375 32.2219 9.9375C31.9549 9.9375 31.7163 9.99574 31.506 10.1122C31.2987 10.2259 31.1339 10.3849 31.0117 10.5895C30.8924 10.794 30.8327 11.0298 30.8327 11.2969V15H29.0174ZM33.9276 15V8.45455H35.6875V9.59659H35.7557C35.875 9.19034 36.0753 8.88352 36.3565 8.67614C36.6378 8.46591 36.9616 8.3608 37.3281 8.3608C37.419 8.3608 37.517 8.36648 37.6222 8.37784C37.7273 8.3892 37.8196 8.40483 37.8991 8.42472V10.0355C37.8139 10.0099 37.696 9.98722 37.5455 9.96733C37.3949 9.94744 37.2571 9.9375 37.1321 9.9375C36.8651 9.9375 36.6264 9.99574 36.4162 10.1122C36.2088 10.2259 36.044 10.3849 35.9219 10.5895C35.8026 10.794 35.7429 11.0298 35.7429 11.2969V15H33.9276ZM40.5167 15.1236C40.0991 15.1236 39.7269 15.0511 39.4002 14.9062C39.0735 14.7585 38.815 14.5412 38.6246 14.2543C38.4371 13.9645 38.3434 13.6037 38.3434 13.1719C38.3434 12.8082 38.4102 12.5028 38.5437 12.2557C38.6772 12.0085 38.859 11.8097 39.0891 11.6591C39.3192 11.5085 39.5806 11.3949 39.8732 11.3182C40.1687 11.2415 40.4783 11.1875 40.8022 11.1562C41.1829 11.1165 41.4897 11.0795 41.7227 11.0455C41.9556 11.0085 42.1246 10.9545 42.2298 10.8835C42.3349 10.8125 42.3874 10.7074 42.3874 10.5682V10.5426C42.3874 10.2727 42.3022 10.0639 42.1317 9.91619C41.9641 9.76847 41.7255 9.6946 41.4158 9.6946C41.0891 9.6946 40.8292 9.76705 40.636 9.91193C40.4428 10.054 40.315 10.233 40.2525 10.4489L38.5735 10.3125C38.6587 9.91477 38.8263 9.57102 39.0763 9.28125C39.3263 8.98864 39.6488 8.7642 40.0437 8.60795C40.4414 8.44886 40.9016 8.36932 41.4244 8.36932C41.788 8.36932 42.136 8.41193 42.4684 8.49716C42.8036 8.58239 43.1005 8.71449 43.359 8.89347C43.6204 9.07244 43.8263 9.30256 43.9769 9.58381C44.1275 9.86222 44.2028 10.196 44.2028 10.5852V15H42.4812V14.0923H42.43C42.3249 14.2969 42.1843 14.4773 42.0082 14.6335C41.832 14.7869 41.6204 14.9077 41.3732 14.9957C41.1261 15.081 40.8406 15.1236 40.5167 15.1236ZM41.0366 13.8707C41.3036 13.8707 41.5394 13.8182 41.744 13.7131C41.9485 13.6051 42.109 13.4602 42.2255 13.2784C42.342 13.0966 42.4002 12.8906 42.4002 12.6605V11.9659C42.3434 12.0028 42.2653 12.0369 42.1658 12.0682C42.0692 12.0966 41.9599 12.1236 41.8377 12.1491C41.7156 12.1719 41.5934 12.1932 41.4712 12.2131C41.3491 12.2301 41.2383 12.2457 41.1388 12.2599C40.9258 12.2912 40.7397 12.3409 40.5806 12.4091C40.4215 12.4773 40.2979 12.5696 40.2099 12.6861C40.1218 12.7997 40.0778 12.9418 40.0778 13.1122C40.0778 13.3594 40.1673 13.5483 40.3462 13.679C40.5281 13.8068 40.7582 13.8707 41.0366 13.8707ZM46.4975 17.4545C46.2674 17.4545 46.0515 17.4361 45.8498 17.3991C45.6509 17.3651 45.4862 17.321 45.3555 17.267L45.7646 15.9119C45.9776 15.9773 46.1694 16.0128 46.3398 16.0185C46.5131 16.0241 46.6623 15.9844 46.7873 15.8991C46.9151 15.8139 47.0188 15.669 47.0984 15.4645L47.2049 15.1875L44.8569 8.45455H46.766L48.1211 13.2614H48.1893L49.5572 8.45455H51.479L48.935 15.7074C48.8129 16.0597 48.6467 16.3665 48.4364 16.6278C48.229 16.892 47.9663 17.0952 47.6481 17.2372C47.3299 17.3821 46.9464 17.4545 46.4975 17.4545Z" fill="#FFAB00"/>
</svg>
