<svg width="60" height="60" viewBox="0 0 60 60" fill="none" xmlns="http://www.w3.org/2000/svg">
<circle opacity="0.15" cx="30" cy="30" r="30" fill="#056DFA"/>
<path d="M44.9993 32.0905C43.5994 33.4485 41.6434 33.278 39.9699 31.6309C37.0334 28.7414 34.1076 25.8413 31.1743 22.9486C30.8214 22.6004 30.4498 22.2702 29.9572 21.8107C26.5995 25.1349 23.3783 28.3301 20.1499 31.5182C18.3547 33.2911 16.3646 33.479 14.9399 32.0267C13.5096 30.5682 13.7149 28.7804 15.5341 26.9813C19.4498 23.1092 23.365 19.2368 27.2903 15.3746C29.1436 13.5517 30.8487 13.5411 32.6855 15.3473C36.6722 19.2676 40.6492 23.1971 44.6208 27.1316C46.3212 28.8166 46.4516 30.6821 44.9993 32.0905Z" fill="#056DFA"/>
<path opacity="0.5" d="M45.0795 45.1047C43.7343 46.3791 41.7971 46.2959 40.2186 44.8344C37.193 42.0326 34.1974 39.2023 31.1845 36.3886C30.832 36.0591 30.4496 35.7577 29.9992 35.3741C29.5493 35.7597 29.1686 36.0632 28.8154 36.3927C25.8029 39.2067 22.8076 42.0373 19.7813 44.8384C18.2042 46.2979 16.2678 46.3777 14.919 45.1023C13.5781 43.8344 13.7063 42.043 15.2921 40.5508C19.3136 36.7655 23.3435 32.988 27.3857 29.222C29.134 27.5931 30.8681 27.5924 32.6171 29.2217C36.6593 32.9877 40.6892 36.7648 44.7104 40.5508C46.2951 42.0427 46.4207 43.8337 45.0795 45.1047Z" fill="#056DFA"/>
</svg>
