<svg width="71" height="22" viewBox="0 0 71 22" fill="none" xmlns="http://www.w3.org/2000/svg">
<rect opacity="0.2" width="70.125" height="22" rx="11" fill="#EB51F8"/>
<path d="M11.9988 15V6.27273H15.4931C16.1351 6.27273 16.6706 6.3679 17.0996 6.55824C17.5286 6.74858 17.851 7.01278 18.0669 7.35085C18.2828 7.68608 18.3908 8.07244 18.3908 8.50994C18.3908 8.85085 18.3226 9.15057 18.1863 9.40909C18.0499 9.66477 17.8624 9.875 17.6238 10.0398C17.388 10.2017 17.1181 10.3168 16.8141 10.3849V10.4702C17.1465 10.4844 17.4576 10.5781 17.7473 10.7514C18.04 10.9247 18.2772 11.1676 18.459 11.4801C18.6408 11.7898 18.7317 12.1591 18.7317 12.5881C18.7317 13.0511 18.6167 13.4645 18.3865 13.8281C18.1593 14.1889 17.8226 14.4744 17.3766 14.6847C16.9306 14.8949 16.3809 15 15.7275 15H11.9988ZM13.8439 13.4915H15.3482C15.8624 13.4915 16.2374 13.3935 16.4732 13.1974C16.709 12.9986 16.8269 12.7344 16.8269 12.4048C16.8269 12.1634 16.7686 11.9503 16.6522 11.7656C16.5357 11.581 16.3695 11.4361 16.1536 11.331C15.9405 11.2259 15.6863 11.1733 15.3908 11.1733H13.8439V13.4915ZM13.8439 9.92472H15.2118C15.4647 9.92472 15.6891 9.88068 15.8851 9.79261C16.084 9.7017 16.2402 9.57386 16.3539 9.40909C16.4703 9.24432 16.5286 9.04688 16.5286 8.81676C16.5286 8.50142 16.4164 8.24716 16.1919 8.05398C15.9703 7.8608 15.655 7.7642 15.2459 7.7642H13.8439V9.92472ZM22.8556 15.1278C22.1937 15.1278 21.6213 14.9872 21.1383 14.706C20.6582 14.4219 20.2875 14.027 20.0261 13.5213C19.7647 13.0128 19.6341 12.4233 19.6341 11.7528C19.6341 11.0767 19.7647 10.4858 20.0261 9.98011C20.2875 9.47159 20.6582 9.0767 21.1383 8.79545C21.6213 8.51136 22.1937 8.36932 22.8556 8.36932C23.5176 8.36932 24.0886 8.51136 24.5687 8.79545C25.0517 9.0767 25.4238 9.47159 25.6852 9.98011C25.9466 10.4858 26.0772 11.0767 26.0772 11.7528C26.0772 12.4233 25.9466 13.0128 25.6852 13.5213C25.4238 14.027 25.0517 14.4219 24.5687 14.706C24.0886 14.9872 23.5176 15.1278 22.8556 15.1278ZM22.8642 13.7216C23.1653 13.7216 23.4167 13.6364 23.6184 13.4659C23.8201 13.2926 23.9721 13.0568 24.0744 12.7585C24.1795 12.4602 24.2321 12.1207 24.2321 11.7401C24.2321 11.3594 24.1795 11.0199 24.0744 10.7216C23.9721 10.4233 23.8201 10.1875 23.6184 10.0142C23.4167 9.84091 23.1653 9.75426 22.8642 9.75426C22.5602 9.75426 22.3045 9.84091 22.0971 10.0142C21.8926 10.1875 21.7377 10.4233 21.6326 10.7216C21.5304 11.0199 21.4792 11.3594 21.4792 11.7401C21.4792 12.1207 21.5304 12.4602 21.6326 12.7585C21.7377 13.0568 21.8926 13.2926 22.0971 13.4659C22.3045 13.6364 22.5602 13.7216 22.8642 13.7216ZM30.215 15.1278C29.5531 15.1278 28.9806 14.9872 28.4977 14.706C28.0176 14.4219 27.6468 14.027 27.3855 13.5213C27.1241 13.0128 26.9934 12.4233 26.9934 11.7528C26.9934 11.0767 27.1241 10.4858 27.3855 9.98011C27.6468 9.47159 28.0176 9.0767 28.4977 8.79545C28.9806 8.51136 29.5531 8.36932 30.215 8.36932C30.877 8.36932 31.448 8.51136 31.9281 8.79545C32.411 9.0767 32.7832 9.47159 33.0446 9.98011C33.3059 10.4858 33.4366 11.0767 33.4366 11.7528C33.4366 12.4233 33.3059 13.0128 33.0446 13.5213C32.7832 14.027 32.411 14.4219 31.9281 14.706C31.448 14.9872 30.877 15.1278 30.215 15.1278ZM30.2235 13.7216C30.5247 13.7216 30.7761 13.6364 30.9778 13.4659C31.1795 13.2926 31.3315 13.0568 31.4338 12.7585C31.5389 12.4602 31.5914 12.1207 31.5914 11.7401C31.5914 11.3594 31.5389 11.0199 31.4338 10.7216C31.3315 10.4233 31.1795 10.1875 30.9778 10.0142C30.7761 9.84091 30.5247 9.75426 30.2235 9.75426C29.9196 9.75426 29.6639 9.84091 29.4565 10.0142C29.252 10.1875 29.0971 10.4233 28.992 10.7216C28.8897 11.0199 28.8386 11.3594 28.8386 11.7401C28.8386 12.1207 28.8897 12.4602 28.992 12.7585C29.0971 13.0568 29.252 13.2926 29.4565 13.4659C29.6639 13.6364 29.9196 13.7216 30.2235 13.7216ZM36.4324 6.27273V15H34.617V6.27273H36.4324ZM40.8695 15.1278C40.1962 15.1278 39.6167 14.9915 39.1309 14.7188C38.6479 14.4432 38.2757 14.054 38.0144 13.5511C37.753 13.0455 37.6223 12.4474 37.6223 11.7571C37.6223 11.0838 37.753 10.4929 38.0144 9.98438C38.2757 9.47585 38.6436 9.07955 39.1181 8.79545C39.5953 8.51136 40.155 8.36932 40.7971 8.36932C41.2289 8.36932 41.6309 8.43892 42.003 8.57812C42.378 8.71449 42.7047 8.92045 42.9831 9.19602C43.2644 9.47159 43.4831 9.81818 43.6394 10.2358C43.7956 10.6506 43.8738 11.1364 43.8738 11.6932V12.1918H38.3468V11.0668H42.165C42.165 10.8054 42.1081 10.5739 41.9945 10.3722C41.8809 10.1705 41.7232 10.0128 41.5215 9.89915C41.3226 9.78267 41.0911 9.72443 40.8269 9.72443C40.5513 9.72443 40.307 9.78835 40.0939 9.91619C39.8837 10.0412 39.7189 10.2102 39.5996 10.4233C39.4803 10.6335 39.4192 10.8679 39.4164 11.1264V12.196C39.4164 12.5199 39.476 12.7997 39.5953 13.0355C39.7175 13.2713 39.8894 13.4531 40.111 13.581C40.3326 13.7088 40.5953 13.7727 40.8993 13.7727C41.101 13.7727 41.2857 13.7443 41.4533 13.6875C41.6209 13.6307 41.7644 13.5455 41.8837 13.4318C42.003 13.3182 42.0939 13.179 42.1564 13.0142L43.8354 13.125C43.7502 13.5284 43.5755 13.8807 43.3113 14.1818C43.0499 14.4801 42.7118 14.7131 42.2971 14.8807C41.8851 15.0455 41.4093 15.1278 40.8695 15.1278ZM46.9249 15.1236C46.5073 15.1236 46.1351 15.0511 45.8084 14.9062C45.4817 14.7585 45.2232 14.5412 45.0328 14.2543C44.8453 13.9645 44.7516 13.6037 44.7516 13.1719C44.7516 12.8082 44.8184 12.5028 44.9519 12.2557C45.0854 12.0085 45.2672 11.8097 45.4973 11.6591C45.7275 11.5085 45.9888 11.3949 46.2814 11.3182C46.5769 11.2415 46.8865 11.1875 47.2104 11.1562C47.5911 11.1165 47.8979 11.0795 48.1309 11.0455C48.3638 11.0085 48.5328 10.9545 48.638 10.8835C48.7431 10.8125 48.7956 10.7074 48.7956 10.5682V10.5426C48.7956 10.2727 48.7104 10.0639 48.54 9.91619C48.3723 9.76847 48.1337 9.6946 47.824 9.6946C47.4973 9.6946 47.2374 9.76705 47.0442 9.91193C46.851 10.054 46.7232 10.233 46.6607 10.4489L44.9817 10.3125C45.0669 9.91477 45.2346 9.57102 45.4846 9.28125C45.7346 8.98864 46.057 8.7642 46.4519 8.60795C46.8496 8.44886 47.3098 8.36932 47.8326 8.36932C48.1962 8.36932 48.5442 8.41193 48.8766 8.49716C49.2118 8.58239 49.5087 8.71449 49.7672 8.89347C50.0286 9.07244 50.2346 9.30256 50.3851 9.58381C50.5357 9.86222 50.611 10.196 50.611 10.5852V15H48.8894V14.0923H48.8382C48.7331 14.2969 48.5925 14.4773 48.4164 14.6335C48.2402 14.7869 48.0286 14.9077 47.7814 14.9957C47.5343 15.081 47.2488 15.1236 46.9249 15.1236ZM47.4448 13.8707C47.7118 13.8707 47.9476 13.8182 48.1522 13.7131C48.3567 13.6051 48.5172 13.4602 48.6337 13.2784C48.7502 13.0966 48.8084 12.8906 48.8084 12.6605V11.9659C48.7516 12.0028 48.6735 12.0369 48.574 12.0682C48.4775 12.0966 48.3681 12.1236 48.2459 12.1491C48.1238 12.1719 48.0016 12.1932 47.8794 12.2131C47.7573 12.2301 47.6465 12.2457 47.5471 12.2599C47.334 12.2912 47.1479 12.3409 46.9888 12.4091C46.8297 12.4773 46.7061 12.5696 46.6181 12.6861C46.53 12.7997 46.486 12.9418 46.486 13.1122C46.486 13.3594 46.5755 13.5483 46.7544 13.679C46.9363 13.8068 47.1664 13.8707 47.4448 13.8707ZM53.8347 11.2159V15H52.0194V8.45455H53.7495V9.60938H53.8262C53.9711 9.22869 54.214 8.92756 54.5549 8.70597C54.8958 8.48153 55.3091 8.36932 55.7949 8.36932C56.2495 8.36932 56.6458 8.46875 56.9838 8.66761C57.3219 8.86648 57.5847 9.15057 57.7722 9.51989C57.9597 9.88636 58.0534 10.3239 58.0534 10.8324V15H56.2381V11.1562C56.2409 10.7557 56.1387 10.4432 55.9313 10.2188C55.7239 9.99148 55.4384 9.87784 55.0748 9.87784C54.8304 9.87784 54.6145 9.9304 54.427 10.0355C54.2424 10.1406 54.0975 10.294 53.9924 10.4957C53.8901 10.6946 53.8375 10.9347 53.8347 11.2159Z" fill="#EB51F8"/>
</svg>
