<svg width="70" height="22" viewBox="0 0 70 22" fill="none" xmlns="http://www.w3.org/2000/svg">
<g id="Group 33">
<g id="Group 22">
<rect id="Surface" opacity="0.2" width="70" height="22" rx="10" fill="#EB51F8"/>
</g>
<path id="Boolean" d="M10.082 16V6.54545H13.8675C14.563 6.54545 15.1432 6.64856 15.6079 6.85476C16.0726 7.06096 16.4219 7.34718 16.6559 7.71342C16.8898 8.07659 17.0067 8.49515 17.0067 8.96911C17.0067 9.33842 16.9328 9.66312 16.7851 9.94318C16.6374 10.2202 16.4343 10.4479 16.1757 10.6264C15.9203 10.8018 15.6279 10.9265 15.2986 11.0004V11.0927C15.6587 11.1081 15.9957 11.2096 16.3096 11.3974C16.6266 11.5851 16.8836 11.8482 17.0806 12.1868C17.2775 12.5223 17.376 12.9223 17.376 13.3871C17.376 13.8887 17.2514 14.3365 17.0021 14.7305C16.7559 15.1213 16.3912 15.4306 15.908 15.6584C15.4248 15.8861 14.8293 16 14.1214 16H10.082ZM12.0809 14.3658H13.7105C14.2676 14.3658 14.6738 14.2596 14.9293 14.0472C15.1847 13.8318 15.3125 13.5456 15.3125 13.1886C15.3125 12.927 15.2494 12.6961 15.1232 12.4961C14.997 12.296 14.817 12.1391 14.5831 12.0252C14.3522 11.9113 14.0768 11.8544 13.7567 11.8544H12.0809V14.3658ZM12.0809 10.5018H13.5628C13.8367 10.5018 14.0799 10.4541 14.2922 10.3587C14.5076 10.2602 14.6769 10.1217 14.8 9.94318C14.9262 9.76468 14.9893 9.55078 14.9893 9.30149C14.9893 8.95987 14.8677 8.68442 14.6246 8.47514C14.3845 8.26586 14.0429 8.16122 13.5997 8.16122H12.0809V10.5018ZM21.8436 16.1385C21.1265 16.1385 20.5064 15.9862 19.9832 15.6815C19.4631 15.3737 19.0614 14.9459 18.7783 14.3981C18.4951 13.8472 18.3536 13.2086 18.3536 12.4822C18.3536 11.7498 18.4951 11.1096 18.7783 10.5618C19.0614 10.0109 19.4631 9.5831 19.9832 9.27841C20.5064 8.97064 21.1265 8.81676 21.8436 8.81676C22.5607 8.81676 23.1793 8.97064 23.6994 9.27841C24.2226 9.5831 24.6258 10.0109 24.909 10.5618C25.1921 11.1096 25.3337 11.7498 25.3337 12.4822C25.3337 13.2086 25.1921 13.8472 24.909 14.3981C24.6258 14.9459 24.2226 15.3737 23.6994 15.6815C23.1793 15.9862 22.5607 16.1385 21.8436 16.1385ZM21.8528 14.6151C22.1791 14.6151 22.4515 14.5227 22.67 14.3381C22.8885 14.1503 23.0531 13.8949 23.1639 13.5717C23.2778 13.2486 23.3347 12.8808 23.3347 12.4684C23.3347 12.056 23.2778 11.6882 23.1639 11.3651C23.0531 11.0419 22.8885 10.7865 22.67 10.5987C22.4515 10.411 22.1791 10.3171 21.8528 10.3171C21.5235 10.3171 21.2466 10.411 21.0219 10.5987C20.8003 10.7865 20.6326 11.0419 20.5187 11.3651C20.4079 11.6882 20.3525 12.056 20.3525 12.4684C20.3525 12.8808 20.4079 13.2486 20.5187 13.5717C20.6326 13.8949 20.8003 14.1503 21.0219 14.3381C21.2466 14.5227 21.5235 14.6151 21.8528 14.6151ZM29.8163 16.1385C29.0992 16.1385 28.479 15.9862 27.9558 15.6815C27.4357 15.3737 27.0341 14.9459 26.7509 14.3981C26.4678 13.8472 26.3262 13.2086 26.3262 12.4822C26.3262 11.7498 26.4678 11.1096 26.7509 10.5618C27.0341 10.0109 27.4357 9.5831 27.9558 9.27841C28.479 8.97064 29.0992 8.81676 29.8163 8.81676C30.5334 8.81676 31.152 8.97064 31.6721 9.27841C32.1953 9.5831 32.5985 10.0109 32.8816 10.5618C33.1648 11.1096 33.3063 11.7498 33.3063 12.4822C33.3063 13.2086 33.1648 13.8472 32.8816 14.3981C32.5985 14.9459 32.1953 15.3737 31.6721 15.6815C31.152 15.9862 30.5334 16.1385 29.8163 16.1385ZM29.8255 14.6151C30.1517 14.6151 30.4241 14.5227 30.6426 14.3381C30.8611 14.1503 31.0258 13.8949 31.1366 13.5717C31.2505 13.2486 31.3074 12.8808 31.3074 12.4684C31.3074 12.056 31.2505 11.6882 31.1366 11.3651C31.0258 11.0419 30.8611 10.7865 30.6426 10.5987C30.4241 10.411 30.1517 10.3171 29.8255 10.3171C29.4962 10.3171 29.2192 10.411 28.9945 10.5987C28.7729 10.7865 28.6052 11.0419 28.4913 11.3651C28.3805 11.6882 28.3252 12.056 28.3252 12.4684C28.3252 12.8808 28.3805 13.2486 28.4913 13.5717C28.6052 13.8949 28.7729 14.1503 28.9945 14.3381C29.2192 14.5227 29.4962 14.6151 29.8255 14.6151ZM36.5517 6.54545V16H34.5851V6.54545H36.5517ZM41.3586 16.1385C40.6292 16.1385 40.0014 15.9908 39.4751 15.6953C38.9519 15.3968 38.5487 14.9751 38.2656 14.4304C37.9824 13.8826 37.8409 13.2347 37.8409 12.4869C37.8409 11.7575 37.9824 11.1173 38.2656 10.5664C38.5487 10.0155 38.9473 9.58617 39.4612 9.27841C39.9783 8.97064 40.5846 8.81676 41.2801 8.81676C41.7479 8.81676 42.1834 8.89216 42.5866 9.04297C42.9929 9.1907 43.3468 9.41383 43.6484 9.71236C43.9531 10.0109 44.1901 10.3864 44.3593 10.8388C44.5286 11.2881 44.6132 11.8144 44.6132 12.4176V12.9577H38.6257V11.739H42.762C42.762 11.4558 42.7005 11.205 42.5774 10.9865C42.4543 10.768 42.2835 10.5972 42.0649 10.4741C41.8495 10.3479 41.5987 10.2848 41.3125 10.2848C41.0139 10.2848 40.7492 10.354 40.5184 10.4925C40.2907 10.628 40.1122 10.8111 39.9829 11.0419C39.8536 11.2696 39.7875 11.5236 39.7844 11.8036V12.9624C39.7844 13.3132 39.849 13.6164 39.9783 13.8718C40.1106 14.1272 40.2968 14.3242 40.5369 14.4627C40.7769 14.6012 41.0616 14.6705 41.3909 14.6705C41.6094 14.6705 41.8095 14.6397 41.9911 14.5781C42.1727 14.5166 42.3281 14.4242 42.4573 14.3011C42.5866 14.178 42.6851 14.0272 42.7528 13.8487L44.5717 13.9688C44.4794 14.4058 44.2901 14.7874 44.0039 15.1136C43.7207 15.4368 43.3545 15.6892 42.9051 15.8707C42.4589 16.0492 41.9434 16.1385 41.3586 16.1385ZM47.9186 16.1339C47.4662 16.1339 47.063 16.0554 46.7091 15.8984C46.3552 15.7384 46.0751 15.503 45.8689 15.1921C45.6658 14.8782 45.5642 14.4873 45.5642 14.0195C45.5642 13.6256 45.6366 13.2947 45.7812 13.027C45.9259 12.7592 46.1228 12.5438 46.3721 12.3807C46.6214 12.2176 46.9045 12.0945 47.2215 12.0114C47.5416 11.9283 47.8771 11.8698 48.2279 11.8359C48.6403 11.7929 48.9727 11.7528 49.2251 11.7159C49.4775 11.6759 49.6606 11.6174 49.7745 11.5405C49.8883 11.4635 49.9453 11.3497 49.9453 11.1989V11.1712C49.9453 10.8788 49.8529 10.6526 49.6683 10.4925C49.4867 10.3325 49.2282 10.2525 48.8927 10.2525C48.5388 10.2525 48.2572 10.331 48.0479 10.4879C47.8386 10.6418 47.7001 10.8357 47.6324 11.0696L45.8135 10.9219C45.9059 10.491 46.0874 10.1186 46.3583 9.80469C46.6291 9.48769 46.9784 9.24455 47.4062 9.07528C47.8371 8.90294 48.3357 8.81676 48.9019 8.81676C49.2959 8.81676 49.6729 8.86293 50.033 8.95526C50.3961 9.04759 50.7178 9.1907 50.9978 9.38459C51.281 9.57848 51.5041 9.82777 51.6672 10.1325C51.8303 10.4341 51.9119 10.7957 51.9119 11.2173V16H50.0468V15.0167H49.9914C49.8776 15.2383 49.7252 15.4337 49.5344 15.603C49.3436 15.7692 49.1143 15.9 48.8465 15.9954C48.5788 16.0877 48.2695 16.1339 47.9186 16.1339ZM48.4818 14.7766C48.7711 14.7766 49.0266 14.7197 49.2482 14.6058C49.4698 14.4889 49.6437 14.3319 49.7698 14.1349C49.896 13.938 49.9591 13.7148 49.9591 13.4656V12.7131C49.8976 12.7531 49.8129 12.79 49.7052 12.8239C49.6006 12.8546 49.4821 12.8839 49.3497 12.9116C49.2174 12.9362 49.0851 12.9593 48.9527 12.9808C48.8204 12.9993 48.7004 13.0162 48.5926 13.0316C48.3618 13.0655 48.1602 13.1193 47.9879 13.1932C47.8155 13.267 47.6817 13.3671 47.5862 13.4933C47.4908 13.6164 47.4431 13.7702 47.4431 13.9549C47.4431 14.2227 47.5401 14.4273 47.734 14.5689C47.9309 14.7074 48.1802 14.7766 48.4818 14.7766ZM55.4043 11.9006V16H53.4376V8.90909H55.3119V10.1602H55.395C55.552 9.74775 55.8151 9.42152 56.1844 9.18146C56.5538 8.93833 57.0016 8.81676 57.5278 8.81676C58.0203 8.81676 58.4496 8.92448 58.8158 9.13991C59.1821 9.35535 59.4668 9.66312 59.6699 10.0632C59.873 10.4602 59.9746 10.9342 59.9746 11.4851V16H58.0079V11.8359C58.011 11.402 57.9002 11.0634 57.6756 10.8203C57.4509 10.5741 57.1416 10.451 56.7476 10.451C56.483 10.451 56.2491 10.5079 56.0459 10.6218C55.8459 10.7357 55.6889 10.9019 55.5751 11.1204C55.4643 11.3358 55.4073 11.5959 55.4043 11.9006Z" fill="#EB51F8"/>
</g>
</svg>
