<svg width="137" height="58" viewBox="0 0 137 58" fill="none" xmlns="http://www.w3.org/2000/svg">
<rect opacity="0.15" x="6" y="6" width="125" height="46" rx="10" fill="#35BB58"/>
<rect x="12" y="12" width="34" height="34" rx="10" fill="#35BB58"/>
<path d="M61.4588 27.3281H59.5923C59.5582 27.0866 59.4886 26.8722 59.3835 26.6847C59.2784 26.4943 59.1435 26.3324 58.9787 26.1989C58.8139 26.0653 58.6236 25.9631 58.4077 25.892C58.1946 25.821 57.9631 25.7855 57.7131 25.7855C57.2614 25.7855 56.8679 25.8977 56.5327 26.1222C56.1974 26.3437 55.9375 26.6676 55.7528 27.0938C55.5682 27.517 55.4759 28.0312 55.4759 28.6364C55.4759 29.2585 55.5682 29.7812 55.7528 30.2045C55.9403 30.6278 56.2017 30.9474 56.5369 31.1634C56.8722 31.3793 57.2599 31.4872 57.7003 31.4872C57.9474 31.4872 58.1761 31.4545 58.3864 31.3892C58.5994 31.3239 58.7884 31.2287 58.9531 31.1037C59.1179 30.9759 59.2543 30.821 59.3622 30.6392C59.473 30.4574 59.5497 30.25 59.5923 30.017L61.4588 30.0256C61.4105 30.4261 61.2898 30.8125 61.0966 31.1847C60.9063 31.554 60.6491 31.8849 60.3253 32.1776C60.0043 32.4673 59.6207 32.6974 59.1747 32.8679C58.7315 33.0355 58.2301 33.1193 57.6705 33.1193C56.892 33.1193 56.196 32.9432 55.5824 32.5909C54.9716 32.2386 54.4886 31.7287 54.1335 31.0611C53.7812 30.3935 53.6051 29.5852 53.6051 28.6364C53.6051 27.6847 53.7841 26.875 54.142 26.2074C54.5 25.5398 54.9858 25.0312 55.5994 24.6818C56.2131 24.3295 56.9034 24.1534 57.6705 24.1534C58.1761 24.1534 58.6449 24.2244 59.0767 24.3665C59.5114 24.5085 59.8963 24.7159 60.2315 24.9886C60.5668 25.2585 60.8395 25.5895 61.0497 25.9815C61.2628 26.3736 61.3991 26.8224 61.4588 27.3281ZM65.7053 33.1278C65.0433 33.1278 64.4709 32.9872 63.9879 32.706C63.5078 32.4219 63.1371 32.027 62.8757 31.5213C62.6143 31.0128 62.4837 30.4233 62.4837 29.7528C62.4837 29.0767 62.6143 28.4858 62.8757 27.9801C63.1371 27.4716 63.5078 27.0767 63.9879 26.7955C64.4709 26.5114 65.0433 26.3693 65.7053 26.3693C66.3672 26.3693 66.9382 26.5114 67.4183 26.7955C67.9013 27.0767 68.2734 27.4716 68.5348 27.9801C68.7962 28.4858 68.9268 29.0767 68.9268 29.7528C68.9268 30.4233 68.7962 31.0128 68.5348 31.5213C68.2734 32.027 67.9013 32.4219 67.4183 32.706C66.9382 32.9872 66.3672 33.1278 65.7053 33.1278ZM65.7138 31.7216C66.0149 31.7216 66.2663 31.6364 66.468 31.4659C66.6697 31.2926 66.8217 31.0568 66.924 30.7585C67.0291 30.4602 67.0817 30.1207 67.0817 29.7401C67.0817 29.3594 67.0291 29.0199 66.924 28.7216C66.8217 28.4233 66.6697 28.1875 66.468 28.0142C66.2663 27.8409 66.0149 27.7543 65.7138 27.7543C65.4098 27.7543 65.1541 27.8409 64.9467 28.0142C64.7422 28.1875 64.5874 28.4233 64.4822 28.7216C64.38 29.0199 64.3288 29.3594 64.3288 29.7401C64.3288 30.1207 64.38 30.4602 64.4822 30.7585C64.5874 31.0568 64.7422 31.2926 64.9467 31.4659C65.1541 31.6364 65.4098 31.7216 65.7138 31.7216ZM70.1072 33V26.4545H71.8374V27.6094H71.9141C72.0504 27.2259 72.2777 26.9233 72.5959 26.7017C72.9141 26.4801 73.2947 26.3693 73.7379 26.3693C74.1868 26.3693 74.5689 26.4815 74.8842 26.706C75.1996 26.9276 75.4098 27.2287 75.5149 27.6094H75.5831C75.7166 27.2344 75.9581 26.9347 76.3075 26.7102C76.6598 26.483 77.076 26.3693 77.5561 26.3693C78.1669 26.3693 78.6626 26.5639 79.0433 26.9531C79.4268 27.3395 79.6186 27.8878 79.6186 28.598V33H77.8075V28.956C77.8075 28.5923 77.7109 28.3196 77.5178 28.1378C77.3246 27.956 77.0831 27.8651 76.7933 27.8651C76.4638 27.8651 76.2067 27.9702 76.022 28.1804C75.8374 28.3878 75.745 28.6619 75.745 29.0028V33H73.9851V28.9176C73.9851 28.5966 73.8928 28.3409 73.7081 28.1506C73.5263 27.9602 73.2862 27.8651 72.9879 27.8651C72.7862 27.8651 72.6044 27.9162 72.4425 28.0185C72.2834 28.1179 72.157 28.2585 72.0632 28.4403C71.9695 28.6193 71.9226 28.8295 71.9226 29.071V33H70.1072ZM84.0355 33.1278C83.3622 33.1278 82.7827 32.9915 82.2969 32.7188C81.8139 32.4432 81.4418 32.054 81.1804 31.5511C80.919 31.0455 80.7884 30.4474 80.7884 29.7571C80.7884 29.0838 80.919 28.4929 81.1804 27.9844C81.4418 27.4759 81.8097 27.0795 82.2841 26.7955C82.7614 26.5114 83.321 26.3693 83.9631 26.3693C84.3949 26.3693 84.7969 26.4389 85.169 26.5781C85.544 26.7145 85.8707 26.9205 86.1491 27.196C86.4304 27.4716 86.6491 27.8182 86.8054 28.2358C86.9616 28.6506 87.0398 29.1364 87.0398 29.6932V30.1918H81.5128V29.0668H85.331C85.331 28.8054 85.2741 28.5739 85.1605 28.3722C85.0469 28.1705 84.8892 28.0128 84.6875 27.8991C84.4886 27.7827 84.2571 27.7244 83.9929 27.7244C83.7173 27.7244 83.473 27.7884 83.2599 27.9162C83.0497 28.0412 82.8849 28.2102 82.7656 28.4233C82.6463 28.6335 82.5852 28.8679 82.5824 29.1264V30.196C82.5824 30.5199 82.642 30.7997 82.7614 31.0355C82.8835 31.2713 83.0554 31.4531 83.277 31.581C83.4986 31.7088 83.7614 31.7727 84.0653 31.7727C84.267 31.7727 84.4517 31.7443 84.6193 31.6875C84.7869 31.6307 84.9304 31.5455 85.0497 31.4318C85.169 31.3182 85.2599 31.179 85.3224 31.0142L87.0014 31.125C86.9162 31.5284 86.7415 31.8807 86.4773 32.1818C86.2159 32.4801 85.8778 32.7131 85.4631 32.8807C85.0511 33.0455 84.5753 33.1278 84.0355 33.1278ZM91.1818 33.1278C90.5114 33.1278 89.9347 32.9858 89.4517 32.7017C88.9716 32.4148 88.6023 32.017 88.3438 31.5085C88.0881 31 87.9602 30.4148 87.9602 29.7528C87.9602 29.0824 88.0895 28.4943 88.348 27.9886C88.6094 27.4801 88.9801 27.0838 89.4602 26.7997C89.9403 26.5128 90.5114 26.3693 91.1733 26.3693C91.7443 26.3693 92.2443 26.473 92.6733 26.6804C93.1023 26.8878 93.4418 27.179 93.6918 27.554C93.9418 27.929 94.0795 28.3693 94.1051 28.875H92.392C92.3438 28.5483 92.2159 28.2855 92.0085 28.0866C91.804 27.8849 91.5355 27.7841 91.2031 27.7841C90.9219 27.7841 90.6761 27.8608 90.4659 28.0142C90.2585 28.1648 90.0966 28.3849 89.9801 28.6747C89.8636 28.9645 89.8054 29.3153 89.8054 29.7273C89.8054 30.1449 89.8622 30.5 89.9759 30.7926C90.0923 31.0852 90.2557 31.3082 90.4659 31.4616C90.6761 31.6151 90.9219 31.6918 91.2031 31.6918C91.4105 31.6918 91.5966 31.6491 91.7614 31.5639C91.929 31.4787 92.0668 31.3551 92.1747 31.1932C92.2855 31.0284 92.358 30.831 92.392 30.6009H94.1051C94.0767 31.1009 93.9403 31.5412 93.696 31.9219C93.4545 32.2997 93.1207 32.5952 92.6946 32.8082C92.2685 33.0213 91.7642 33.1278 91.1818 33.1278ZM90.7557 32.9659H91.5909L91.5227 33.3366C91.8153 33.3821 92.054 33.4915 92.2386 33.6648C92.4261 33.8381 92.5213 34.0739 92.5241 34.3722C92.527 34.7955 92.331 35.1321 91.9361 35.3821C91.5412 35.6349 90.9872 35.7614 90.2741 35.7614L90.2571 34.9517C90.6151 34.9517 90.8949 34.9077 91.0966 34.8196C91.3011 34.7344 91.4077 34.6009 91.4162 34.419C91.4219 34.2457 91.3551 34.1136 91.2159 34.0227C91.0767 33.9318 90.8594 33.8679 90.5639 33.831L90.7557 32.9659ZM97.1339 33.1236C96.7163 33.1236 96.3441 33.0511 96.0174 32.9062C95.6907 32.7585 95.4322 32.5412 95.2418 32.2543C95.0543 31.9645 94.9606 31.6037 94.9606 31.1719C94.9606 30.8082 95.0273 30.5028 95.1609 30.2557C95.2944 30.0085 95.4762 29.8097 95.7063 29.6591C95.9364 29.5085 96.1978 29.3949 96.4904 29.3182C96.7859 29.2415 97.0955 29.1875 97.4194 29.1562C97.8001 29.1165 98.1069 29.0795 98.3398 29.0455C98.5728 29.0085 98.7418 28.9545 98.8469 28.8835C98.9521 28.8125 99.0046 28.7074 99.0046 28.5682V28.5426C99.0046 28.2727 98.9194 28.0639 98.7489 27.9162C98.5813 27.7685 98.3427 27.6946 98.033 27.6946C97.7063 27.6946 97.4464 27.767 97.2532 27.9119C97.06 28.054 96.9322 28.233 96.8697 28.4489L95.1907 28.3125C95.2759 27.9148 95.4435 27.571 95.6935 27.2812C95.9435 26.9886 96.266 26.7642 96.6609 26.608C97.0586 26.4489 97.5188 26.3693 98.0415 26.3693C98.4052 26.3693 98.7532 26.4119 99.0856 26.4972C99.4208 26.5824 99.7177 26.7145 99.9762 26.8935C100.238 27.0724 100.444 27.3026 100.594 27.5838C100.745 27.8622 100.82 28.196 100.82 28.5852V33H99.0984V32.0923H99.0472C98.9421 32.2969 98.8015 32.4773 98.6254 32.6335C98.4492 32.7869 98.2376 32.9077 97.9904 32.9957C97.7433 33.081 97.4577 33.1236 97.1339 33.1236ZM97.6538 31.8707C97.9208 31.8707 98.1566 31.8182 98.3612 31.7131C98.5657 31.6051 98.7262 31.4602 98.8427 31.2784C98.9592 31.0966 99.0174 30.8906 99.0174 30.6605V29.9659C98.9606 30.0028 98.8825 30.0369 98.783 30.0682C98.6864 30.0966 98.5771 30.1236 98.4549 30.1491C98.3327 30.1719 98.2106 30.1932 98.0884 30.2131C97.9663 30.2301 97.8555 30.2457 97.756 30.2599C97.543 30.2912 97.3569 30.3409 97.1978 30.4091C97.0387 30.4773 96.9151 30.5696 96.8271 30.6861C96.739 30.7997 96.695 30.9418 96.695 31.1122C96.695 31.3594 96.7844 31.5483 96.9634 31.679C97.1452 31.8068 97.3754 31.8707 97.6538 31.8707ZM104.044 29.2159V33H102.228V26.4545H103.958V27.6094H104.035C104.18 27.2287 104.423 26.9276 104.764 26.706C105.105 26.4815 105.518 26.3693 106.004 26.3693C106.458 26.3693 106.855 26.4688 107.193 26.6676C107.531 26.8665 107.794 27.1506 107.981 27.5199C108.169 27.8864 108.262 28.3239 108.262 28.8324V33H106.447V29.1562C106.45 28.7557 106.348 28.4432 106.14 28.2188C105.933 27.9915 105.647 27.8778 105.284 27.8778C105.039 27.8778 104.824 27.9304 104.636 28.0355C104.451 28.1406 104.306 28.294 104.201 28.4957C104.099 28.6946 104.047 28.9347 104.044 29.2159ZM112.105 33.1065C111.608 33.1065 111.158 32.9787 110.754 32.723C110.354 32.4645 110.036 32.0852 109.8 31.5852C109.567 31.0824 109.45 30.4659 109.45 29.7358C109.45 28.9858 109.571 28.3622 109.812 27.8651C110.054 27.3651 110.375 26.9915 110.776 26.7443C111.179 26.4943 111.621 26.3693 112.101 26.3693C112.467 26.3693 112.773 26.4318 113.017 26.5568C113.264 26.679 113.463 26.8324 113.614 27.017C113.767 27.1989 113.884 27.3778 113.963 27.554H114.018V24.2727H115.83V33H114.04V31.9517H113.963C113.878 32.1335 113.757 32.3139 113.601 32.4929C113.447 32.669 113.247 32.8153 113 32.9318C112.756 33.0483 112.457 33.1065 112.105 33.1065ZM112.68 31.6619C112.973 31.6619 113.22 31.5824 113.422 31.4233C113.626 31.2614 113.783 31.0355 113.891 30.7457C114.001 30.456 114.057 30.1165 114.057 29.7273C114.057 29.3381 114.003 29 113.895 28.7131C113.787 28.4261 113.631 28.2045 113.426 28.0483C113.222 27.892 112.973 27.8139 112.68 27.8139C112.382 27.8139 112.131 27.8949 111.926 28.0568C111.722 28.2187 111.567 28.4432 111.462 28.7301C111.357 29.017 111.304 29.3494 111.304 29.7273C111.304 30.108 111.357 30.4446 111.462 30.7372C111.57 31.027 111.724 31.2543 111.926 31.419C112.131 31.581 112.382 31.6619 112.68 31.6619ZM120.279 33.1278C119.618 33.1278 119.045 32.9872 118.562 32.706C118.082 32.4219 117.711 32.027 117.45 31.5213C117.189 31.0128 117.058 30.4233 117.058 29.7528C117.058 29.0767 117.189 28.4858 117.45 27.9801C117.711 27.4716 118.082 27.0767 118.562 26.7955C119.045 26.5114 119.618 26.3693 120.279 26.3693C120.941 26.3693 121.512 26.5114 121.993 26.7955C122.475 27.0767 122.848 27.4716 123.109 27.9801C123.37 28.4858 123.501 29.0767 123.501 29.7528C123.501 30.4233 123.37 31.0128 123.109 31.5213C122.848 32.027 122.475 32.4219 121.993 32.706C121.512 32.9872 120.941 33.1278 120.279 33.1278ZM120.288 31.7216C120.589 31.7216 120.841 31.6364 121.042 31.4659C121.244 31.2926 121.396 31.0568 121.498 30.7585C121.603 30.4602 121.656 30.1207 121.656 29.7401C121.656 29.3594 121.603 29.0199 121.498 28.7216C121.396 28.4233 121.244 28.1875 121.042 28.0142C120.841 27.8409 120.589 27.7543 120.288 27.7543C119.984 27.7543 119.728 27.8409 119.521 28.0142C119.316 28.1875 119.162 28.4233 119.056 28.7216C118.954 29.0199 118.903 29.3594 118.903 29.7401C118.903 30.1207 118.954 30.4602 119.056 30.7585C119.162 31.0568 119.316 31.2926 119.521 31.4659C119.728 31.6364 119.984 31.7216 120.288 31.7216Z" fill="white"/>
<path d="M36.1142 20.0079C36.4292 20.0079 36.745 19.9948 37.0592 20.0109C37.5813 20.0377 37.9603 20.4084 37.9829 20.9297C38.2277 26.5714 35.8301 30.7518 30.9819 33.5766C30.7981 33.6837 30.6718 33.6628 30.523 33.5134C28.5129 31.4967 26.4993 29.4834 24.4827 27.4732C24.3352 27.3262 24.3058 27.2003 24.4145 27.0148C26.6218 23.2437 29.7229 20.7426 34.1629 20.1384C34.4862 20.0945 34.8094 20.0425 35.1344 20.0226C35.4599 20.0026 35.7875 20.0182 36.1142 20.0182C36.1142 20.0148 36.1142 20.0115 36.1142 20.0081V20.0079ZM34.8804 25.6961C34.8866 24.2323 33.7871 23.1187 32.3302 23.1137C30.8695 23.1085 29.7183 24.2493 29.7225 25.6977C29.7264 27.0877 30.8901 28.2506 32.2964 28.2698C33.7159 28.2893 34.8743 27.1356 34.8804 25.6961Z" fill="white"/>
<path d="M27.4698 34.7715C27.1819 34.7867 26.9378 34.6838 26.7395 34.4864C25.6639 33.4162 24.5926 32.3419 23.5192 31.2696C23.2253 30.9758 23.1785 30.6165 23.2504 30.2313C23.3511 29.6918 23.4895 29.1615 23.6845 28.6474C23.8449 28.2248 23.8639 28.2192 24.1756 28.5303C25.0843 29.4371 25.9916 30.3456 26.8993 31.2534C27.7659 32.12 28.6336 32.9853 29.4981 33.8537C29.7611 34.1177 29.7526 34.1563 29.3965 34.2871C28.7714 34.5167 28.136 34.7077 27.4696 34.7716L27.4698 34.7715Z" fill="white"/>
<path d="M20.0024 28.8179C19.9879 28.6033 20.0836 28.4054 20.2076 28.2173C20.7727 27.3598 21.3376 26.5019 21.9041 25.6452C22.163 25.2538 22.5205 25.0103 22.9918 24.9595C23.4088 24.9146 23.8272 24.8808 24.2454 24.8508C24.3424 24.8438 24.4753 24.7976 24.5289 24.9149C24.5789 25.0238 24.4725 25.1075 24.4145 25.1906C23.5323 26.4558 22.8593 27.8195 22.4667 29.3156C22.3367 29.8113 22.014 30.0199 21.4987 29.9414C21.2797 29.9081 21.0583 29.8873 20.8415 29.8437C20.308 29.7365 19.9964 29.3571 20.0024 28.8179Z" fill="white"/>
<path d="M33.1459 33.7438C33.1073 34.1731 33.0753 34.6032 33.0271 35.0316C32.9755 35.4906 32.7303 35.8353 32.3512 36.0864C31.4854 36.6601 30.6229 37.2392 29.7482 37.7991C29.0417 38.2513 28.2808 37.9082 28.1381 37.0875C28.0742 36.7201 28.0336 36.3485 27.9635 35.9823C27.9234 35.7726 27.9989 35.6789 28.1955 35.6372C29.8884 35.2789 31.4145 34.5472 32.8266 33.561C32.9008 33.5092 32.9713 33.4325 33.0756 33.4593C33.1406 33.476 33.1494 33.5267 33.1459 33.7438Z" fill="white"/>
<path d="M23.8454 33.5976C24.2763 33.5942 24.537 34.0224 24.3301 34.4123C24.2662 34.5328 24.1639 34.6365 24.0659 34.7348C23.0942 35.7104 22.1199 36.6833 21.1462 37.6568C21.0968 37.7063 21.0484 37.7574 20.9955 37.8031C20.7158 38.0444 20.3624 38.0522 20.1474 37.8236C19.9415 37.6048 19.9473 37.2589 20.1901 37.0024C20.5511 36.6212 20.9285 36.2559 21.2996 35.8842C21.9677 35.2155 22.6365 34.5476 23.3043 33.879C23.4552 33.7278 23.6113 33.5887 23.8453 33.5976H23.8454Z" fill="white"/>
<path d="M22.8423 32.5487C22.8403 32.7463 22.7566 32.896 22.6288 33.0239C22.0932 33.5603 21.562 34.1014 21.0183 34.6298C20.7415 34.8988 20.4082 34.906 20.1758 34.6787C19.941 34.449 19.9393 34.1117 20.2055 33.8379C20.7419 33.286 21.2888 32.7439 21.8404 32.2072C22.0252 32.0274 22.2515 31.9363 22.5116 32.0606C22.7201 32.1603 22.8214 32.3338 22.8423 32.5489V32.5487Z" fill="white"/>
<path d="M25.9915 35.6979C25.9687 35.9072 25.8859 36.0596 25.7597 36.1867C25.2337 36.7163 24.7105 37.2488 24.176 37.7698C23.8865 38.0519 23.543 38.0578 23.3091 37.8119C23.0867 37.5783 23.0993 37.2458 23.3688 36.9695C23.8979 36.4267 24.4372 35.8936 24.9757 35.36C25.1629 35.1744 25.3819 35.0874 25.6434 35.2019C25.8709 35.3015 25.9701 35.4869 25.9913 35.6979H25.9915Z" fill="white"/>
<path d="M32.3032 27.2831C31.4126 27.2824 30.7068 26.5766 30.702 25.6818C30.697 24.7794 31.4193 24.0627 32.3271 24.0691C33.2191 24.0753 33.921 24.7802 33.9246 25.6734C33.9282 26.5846 33.2239 27.2839 32.3032 27.2832V27.2831Z" fill="white"/>
</svg>
