<svg width="125" height="46" viewBox="0 0 125 46" fill="none" xmlns="http://www.w3.org/2000/svg">
<rect opacity="0.15" width="125" height="46" rx="10" fill="#35BB58"/>
<rect x="6" y="6" width="34" height="34" rx="10" fill="#35BB58"/>
<path d="M55.4588 21.3281H53.5923C53.5582 21.0866 53.4886 20.8722 53.3835 20.6847C53.2784 20.4943 53.1435 20.3324 52.9787 20.1989C52.8139 20.0653 52.6236 19.9631 52.4077 19.892C52.1946 19.821 51.9631 19.7855 51.7131 19.7855C51.2614 19.7855 50.8679 19.8977 50.5327 20.1222C50.1974 20.3437 49.9375 20.6676 49.7528 21.0938C49.5682 21.517 49.4759 22.0312 49.4759 22.6364C49.4759 23.2585 49.5682 23.7812 49.7528 24.2045C49.9403 24.6278 50.2017 24.9474 50.5369 25.1634C50.8722 25.3793 51.2599 25.4872 51.7003 25.4872C51.9474 25.4872 52.1761 25.4545 52.3864 25.3892C52.5994 25.3239 52.7884 25.2287 52.9531 25.1037C53.1179 24.9759 53.2543 24.821 53.3622 24.6392C53.473 24.4574 53.5497 24.25 53.5923 24.017L55.4588 24.0256C55.4105 24.4261 55.2898 24.8125 55.0966 25.1847C54.9063 25.554 54.6491 25.8849 54.3253 26.1776C54.0043 26.4673 53.6207 26.6974 53.1747 26.8679C52.7315 27.0355 52.2301 27.1193 51.6705 27.1193C50.892 27.1193 50.196 26.9432 49.5824 26.5909C48.9716 26.2386 48.4886 25.7287 48.1335 25.0611C47.7812 24.3935 47.6051 23.5852 47.6051 22.6364C47.6051 21.6847 47.7841 20.875 48.142 20.2074C48.5 19.5398 48.9858 19.0312 49.5994 18.6818C50.2131 18.3295 50.9034 18.1534 51.6705 18.1534C52.1761 18.1534 52.6449 18.2244 53.0767 18.3665C53.5114 18.5085 53.8963 18.7159 54.2315 18.9886C54.5668 19.2585 54.8395 19.5895 55.0497 19.9815C55.2628 20.3736 55.3991 20.8224 55.4588 21.3281ZM59.7053 27.1278C59.0433 27.1278 58.4709 26.9872 57.9879 26.706C57.5078 26.4219 57.1371 26.027 56.8757 25.5213C56.6143 25.0128 56.4837 24.4233 56.4837 23.7528C56.4837 23.0767 56.6143 22.4858 56.8757 21.9801C57.1371 21.4716 57.5078 21.0767 57.9879 20.7955C58.4709 20.5114 59.0433 20.3693 59.7053 20.3693C60.3672 20.3693 60.9382 20.5114 61.4183 20.7955C61.9013 21.0767 62.2734 21.4716 62.5348 21.9801C62.7962 22.4858 62.9268 23.0767 62.9268 23.7528C62.9268 24.4233 62.7962 25.0128 62.5348 25.5213C62.2734 26.027 61.9013 26.4219 61.4183 26.706C60.9382 26.9872 60.3672 27.1278 59.7053 27.1278ZM59.7138 25.7216C60.0149 25.7216 60.2663 25.6364 60.468 25.4659C60.6697 25.2926 60.8217 25.0568 60.924 24.7585C61.0291 24.4602 61.0817 24.1207 61.0817 23.7401C61.0817 23.3594 61.0291 23.0199 60.924 22.7216C60.8217 22.4233 60.6697 22.1875 60.468 22.0142C60.2663 21.8409 60.0149 21.7543 59.7138 21.7543C59.4098 21.7543 59.1541 21.8409 58.9467 22.0142C58.7422 22.1875 58.5874 22.4233 58.4822 22.7216C58.38 23.0199 58.3288 23.3594 58.3288 23.7401C58.3288 24.1207 58.38 24.4602 58.4822 24.7585C58.5874 25.0568 58.7422 25.2926 58.9467 25.4659C59.1541 25.6364 59.4098 25.7216 59.7138 25.7216ZM64.1072 27V20.4545H65.8374V21.6094H65.9141C66.0504 21.2259 66.2777 20.9233 66.5959 20.7017C66.9141 20.4801 67.2947 20.3693 67.7379 20.3693C68.1868 20.3693 68.5689 20.4815 68.8842 20.706C69.1996 20.9276 69.4098 21.2287 69.5149 21.6094H69.5831C69.7166 21.2344 69.9581 20.9347 70.3075 20.7102C70.6598 20.483 71.076 20.3693 71.5561 20.3693C72.1669 20.3693 72.6626 20.5639 73.0433 20.9531C73.4268 21.3395 73.6186 21.8878 73.6186 22.598V27H71.8075V22.956C71.8075 22.5923 71.7109 22.3196 71.5178 22.1378C71.3246 21.956 71.0831 21.8651 70.7933 21.8651C70.4638 21.8651 70.2067 21.9702 70.022 22.1804C69.8374 22.3878 69.745 22.6619 69.745 23.0028V27H67.9851V22.9176C67.9851 22.5966 67.8928 22.3409 67.7081 22.1506C67.5263 21.9602 67.2862 21.8651 66.9879 21.8651C66.7862 21.8651 66.6044 21.9162 66.4425 22.0185C66.2834 22.1179 66.157 22.2585 66.0632 22.4403C65.9695 22.6193 65.9226 22.8295 65.9226 23.071V27H64.1072ZM78.0355 27.1278C77.3622 27.1278 76.7827 26.9915 76.2969 26.7188C75.8139 26.4432 75.4418 26.054 75.1804 25.5511C74.919 25.0455 74.7884 24.4474 74.7884 23.7571C74.7884 23.0838 74.919 22.4929 75.1804 21.9844C75.4418 21.4759 75.8097 21.0795 76.2841 20.7955C76.7614 20.5114 77.321 20.3693 77.9631 20.3693C78.3949 20.3693 78.7969 20.4389 79.169 20.5781C79.544 20.7145 79.8707 20.9205 80.1491 21.196C80.4304 21.4716 80.6491 21.8182 80.8054 22.2358C80.9616 22.6506 81.0398 23.1364 81.0398 23.6932V24.1918H75.5128V23.0668H79.331C79.331 22.8054 79.2741 22.5739 79.1605 22.3722C79.0469 22.1705 78.8892 22.0128 78.6875 21.8991C78.4886 21.7827 78.2571 21.7244 77.9929 21.7244C77.7173 21.7244 77.473 21.7884 77.2599 21.9162C77.0497 22.0412 76.8849 22.2102 76.7656 22.4233C76.6463 22.6335 76.5852 22.8679 76.5824 23.1264V24.196C76.5824 24.5199 76.642 24.7997 76.7614 25.0355C76.8835 25.2713 77.0554 25.4531 77.277 25.581C77.4986 25.7088 77.7614 25.7727 78.0653 25.7727C78.267 25.7727 78.4517 25.7443 78.6193 25.6875C78.7869 25.6307 78.9304 25.5455 79.0497 25.4318C79.169 25.3182 79.2599 25.179 79.3224 25.0142L81.0014 25.125C80.9162 25.5284 80.7415 25.8807 80.4773 26.1818C80.2159 26.4801 79.8778 26.7131 79.4631 26.8807C79.0511 27.0455 78.5753 27.1278 78.0355 27.1278ZM85.1818 27.1278C84.5114 27.1278 83.9347 26.9858 83.4517 26.7017C82.9716 26.4148 82.6023 26.017 82.3438 25.5085C82.0881 25 81.9602 24.4148 81.9602 23.7528C81.9602 23.0824 82.0895 22.4943 82.348 21.9886C82.6094 21.4801 82.9801 21.0838 83.4602 20.7997C83.9403 20.5128 84.5114 20.3693 85.1733 20.3693C85.7443 20.3693 86.2443 20.473 86.6733 20.6804C87.1023 20.8878 87.4418 21.179 87.6918 21.554C87.9418 21.929 88.0795 22.3693 88.1051 22.875H86.392C86.3438 22.5483 86.2159 22.2855 86.0085 22.0866C85.804 21.8849 85.5355 21.7841 85.2031 21.7841C84.9219 21.7841 84.6761 21.8608 84.4659 22.0142C84.2585 22.1648 84.0966 22.3849 83.9801 22.6747C83.8636 22.9645 83.8054 23.3153 83.8054 23.7273C83.8054 24.1449 83.8622 24.5 83.9759 24.7926C84.0923 25.0852 84.2557 25.3082 84.4659 25.4616C84.6761 25.6151 84.9219 25.6918 85.2031 25.6918C85.4105 25.6918 85.5966 25.6491 85.7614 25.5639C85.929 25.4787 86.0668 25.3551 86.1747 25.1932C86.2855 25.0284 86.358 24.831 86.392 24.6009H88.1051C88.0767 25.1009 87.9403 25.5412 87.696 25.9219C87.4545 26.2997 87.1207 26.5952 86.6946 26.8082C86.2685 27.0213 85.7642 27.1278 85.1818 27.1278ZM84.7557 26.9659H85.5909L85.5227 27.3366C85.8153 27.3821 86.054 27.4915 86.2386 27.6648C86.4261 27.8381 86.5213 28.0739 86.5241 28.3722C86.527 28.7955 86.331 29.1321 85.9361 29.3821C85.5412 29.6349 84.9872 29.7614 84.2741 29.7614L84.2571 28.9517C84.6151 28.9517 84.8949 28.9077 85.0966 28.8196C85.3011 28.7344 85.4077 28.6009 85.4162 28.419C85.4219 28.2457 85.3551 28.1136 85.2159 28.0227C85.0767 27.9318 84.8594 27.8679 84.5639 27.831L84.7557 26.9659ZM91.1339 27.1236C90.7163 27.1236 90.3441 27.0511 90.0174 26.9062C89.6907 26.7585 89.4322 26.5412 89.2418 26.2543C89.0543 25.9645 88.9606 25.6037 88.9606 25.1719C88.9606 24.8082 89.0273 24.5028 89.1609 24.2557C89.2944 24.0085 89.4762 23.8097 89.7063 23.6591C89.9364 23.5085 90.1978 23.3949 90.4904 23.3182C90.7859 23.2415 91.0955 23.1875 91.4194 23.1562C91.8001 23.1165 92.1069 23.0795 92.3398 23.0455C92.5728 23.0085 92.7418 22.9545 92.8469 22.8835C92.9521 22.8125 93.0046 22.7074 93.0046 22.5682V22.5426C93.0046 22.2727 92.9194 22.0639 92.7489 21.9162C92.5813 21.7685 92.3427 21.6946 92.033 21.6946C91.7063 21.6946 91.4464 21.767 91.2532 21.9119C91.06 22.054 90.9322 22.233 90.8697 22.4489L89.1907 22.3125C89.2759 21.9148 89.4435 21.571 89.6935 21.2812C89.9435 20.9886 90.266 20.7642 90.6609 20.608C91.0586 20.4489 91.5188 20.3693 92.0415 20.3693C92.4052 20.3693 92.7532 20.4119 93.0856 20.4972C93.4208 20.5824 93.7177 20.7145 93.9762 20.8935C94.2376 21.0724 94.4435 21.3026 94.5941 21.5838C94.7447 21.8622 94.82 22.196 94.82 22.5852V27H93.0984V26.0923H93.0472C92.9421 26.2969 92.8015 26.4773 92.6254 26.6335C92.4492 26.7869 92.2376 26.9077 91.9904 26.9957C91.7433 27.081 91.4577 27.1236 91.1339 27.1236ZM91.6538 25.8707C91.9208 25.8707 92.1566 25.8182 92.3612 25.7131C92.5657 25.6051 92.7262 25.4602 92.8427 25.2784C92.9592 25.0966 93.0174 24.8906 93.0174 24.6605V23.9659C92.9606 24.0028 92.8825 24.0369 92.783 24.0682C92.6864 24.0966 92.5771 24.1236 92.4549 24.1491C92.3327 24.1719 92.2106 24.1932 92.0884 24.2131C91.9663 24.2301 91.8555 24.2457 91.756 24.2599C91.543 24.2912 91.3569 24.3409 91.1978 24.4091C91.0387 24.4773 90.9151 24.5696 90.8271 24.6861C90.739 24.7997 90.695 24.9418 90.695 25.1122C90.695 25.3594 90.7844 25.5483 90.9634 25.679C91.1452 25.8068 91.3754 25.8707 91.6538 25.8707ZM98.0437 23.2159V27H96.2283V20.4545H97.9585V21.6094H98.0352C98.18 21.2287 98.4229 20.9276 98.7638 20.706C99.1048 20.4815 99.5181 20.3693 100.004 20.3693C100.458 20.3693 100.855 20.4688 101.193 20.6676C101.531 20.8665 101.794 21.1506 101.981 21.5199C102.169 21.8864 102.262 22.3239 102.262 22.8324V27H100.447V23.1562C100.45 22.7557 100.348 22.4432 100.14 22.2188C99.9329 21.9915 99.6474 21.8778 99.2837 21.8778C99.0394 21.8778 98.8235 21.9304 98.636 22.0355C98.4513 22.1406 98.3065 22.294 98.2013 22.4957C98.0991 22.6946 98.0465 22.9347 98.0437 23.2159ZM106.105 27.1065C105.608 27.1065 105.158 26.9787 104.754 26.723C104.354 26.4645 104.036 26.0852 103.8 25.5852C103.567 25.0824 103.45 24.4659 103.45 23.7358C103.45 22.9858 103.571 22.3622 103.812 21.8651C104.054 21.3651 104.375 20.9915 104.776 20.7443C105.179 20.4943 105.621 20.3693 106.101 20.3693C106.467 20.3693 106.773 20.4318 107.017 20.5568C107.264 20.679 107.463 20.8324 107.614 21.017C107.767 21.1989 107.884 21.3778 107.963 21.554H108.018V18.2727H109.83V27H108.04V25.9517H107.963C107.878 26.1335 107.757 26.3139 107.601 26.4929C107.447 26.669 107.247 26.8153 107 26.9318C106.756 27.0483 106.457 27.1065 106.105 27.1065ZM106.68 25.6619C106.973 25.6619 107.22 25.5824 107.422 25.4233C107.626 25.2614 107.783 25.0355 107.891 24.7457C108.001 24.456 108.057 24.1165 108.057 23.7273C108.057 23.3381 108.003 23 107.895 22.7131C107.787 22.4261 107.631 22.2045 107.426 22.0483C107.222 21.892 106.973 21.8139 106.68 21.8139C106.382 21.8139 106.131 21.8949 105.926 22.0568C105.722 22.2187 105.567 22.4432 105.462 22.7301C105.357 23.017 105.304 23.3494 105.304 23.7273C105.304 24.108 105.357 24.4446 105.462 24.7372C105.57 25.027 105.724 25.2543 105.926 25.419C106.131 25.581 106.382 25.6619 106.68 25.6619ZM114.279 27.1278C113.618 27.1278 113.045 26.9872 112.562 26.706C112.082 26.4219 111.711 26.027 111.45 25.5213C111.189 25.0128 111.058 24.4233 111.058 23.7528C111.058 23.0767 111.189 22.4858 111.45 21.9801C111.711 21.4716 112.082 21.0767 112.562 20.7955C113.045 20.5114 113.618 20.3693 114.279 20.3693C114.941 20.3693 115.512 20.5114 115.993 20.7955C116.475 21.0767 116.848 21.4716 117.109 21.9801C117.37 22.4858 117.501 23.0767 117.501 23.7528C117.501 24.4233 117.37 25.0128 117.109 25.5213C116.848 26.027 116.475 26.4219 115.993 26.706C115.512 26.9872 114.941 27.1278 114.279 27.1278ZM114.288 25.7216C114.589 25.7216 114.841 25.6364 115.042 25.4659C115.244 25.2926 115.396 25.0568 115.498 24.7585C115.603 24.4602 115.656 24.1207 115.656 23.7401C115.656 23.3594 115.603 23.0199 115.498 22.7216C115.396 22.4233 115.244 22.1875 115.042 22.0142C114.841 21.8409 114.589 21.7543 114.288 21.7543C113.984 21.7543 113.728 21.8409 113.521 22.0142C113.316 22.1875 113.162 22.4233 113.056 22.7216C112.954 23.0199 112.903 23.3594 112.903 23.7401C112.903 24.1207 112.954 24.4602 113.056 24.7585C113.162 25.0568 113.316 25.2926 113.521 25.4659C113.728 25.6364 113.984 25.7216 114.288 25.7216Z" fill="white"/>
<path d="M30.1142 14.0078C30.4292 14.0078 30.745 13.9947 31.0592 14.0108C31.5813 14.0376 31.9603 14.4083 31.9829 14.9296C32.2277 20.5714 29.8301 24.7517 24.9819 27.5765C24.7981 27.6836 24.6718 27.6627 24.523 27.5133C22.5129 25.4967 20.4993 23.4833 18.4827 21.4732C18.3352 21.3261 18.3058 21.2003 18.4145 21.0147C20.6218 17.2437 23.7229 14.7425 28.1629 14.1384C28.4862 14.0944 28.8094 14.0425 29.1344 14.0225C29.4599 14.0025 29.7875 14.0181 30.1142 14.0181C30.1142 14.0147 30.1142 14.0114 30.1142 14.008V14.0078ZM28.8804 19.696C28.8866 18.2322 27.7871 17.1186 26.3302 17.1136C24.8695 17.1085 23.7183 18.2492 23.7225 19.6976C23.7264 21.0877 24.8901 22.2506 26.2964 22.2697C27.7159 22.2892 28.8743 21.1356 28.8804 19.696Z" fill="white"/>
<path d="M21.4698 28.7715C21.1819 28.7867 20.9378 28.6838 20.7395 28.4864C19.6639 27.4162 18.5926 26.3419 17.5192 25.2696C17.2253 24.9758 17.1785 24.6165 17.2504 24.2313C17.3511 23.6918 17.4895 23.1615 17.6845 22.6474C17.8449 22.2248 17.8639 22.2192 18.1756 22.5303C19.0843 23.4371 19.9916 24.3456 20.8993 25.2534C21.7659 26.12 22.6336 26.9853 23.4981 27.8537C23.7611 28.1177 23.7526 28.1563 23.3965 28.2871C22.7714 28.5167 22.136 28.7077 21.4696 28.7716L21.4698 28.7715Z" fill="white"/>
<path d="M14.0024 22.8179C13.9879 22.6033 14.0836 22.4055 14.2076 22.2174C14.7727 21.3599 15.3376 20.502 15.9041 19.6453C16.163 19.2538 16.5205 19.0104 16.9918 18.9596C17.4088 18.9147 17.8272 18.8808 18.2454 18.8509C18.3424 18.8439 18.4753 18.7977 18.5289 18.915C18.5789 19.0238 18.4725 19.1076 18.4145 19.1907C17.5323 20.4558 16.8593 21.8196 16.4667 23.3157C16.3367 23.8114 16.014 24.02 15.4987 23.9415C15.2797 23.9081 15.0583 23.8874 14.8415 23.8437C14.308 23.7366 13.9964 23.3572 14.0024 22.8179Z" fill="white"/>
<path d="M27.1459 27.7438C27.1073 28.1731 27.0753 28.6032 27.0271 29.0316C26.9755 29.4907 26.7303 29.8353 26.3512 30.0864C25.4854 30.6601 24.6229 31.2393 23.7482 31.7991C23.0417 32.2514 22.2808 31.9083 22.1381 31.0876C22.0742 30.7202 22.0336 30.3486 21.9635 29.9824C21.9234 29.7727 21.9989 29.6789 22.1955 29.6373C23.8884 29.2789 25.4145 28.5473 26.8266 27.5611C26.9008 27.5093 26.9713 27.4326 27.0756 27.4594C27.1406 27.4761 27.1494 27.5268 27.1459 27.7438Z" fill="white"/>
<path d="M17.8454 27.5976C18.2763 27.5941 18.537 28.0224 18.3301 28.4122C18.2662 28.5328 18.1639 28.6365 18.0659 28.7347C17.0942 29.7103 16.1199 30.6832 15.1462 31.6568C15.0968 31.7062 15.0484 31.7574 14.9955 31.8031C14.7158 32.0443 14.3624 32.0521 14.1474 31.8235C13.9415 31.6047 13.9473 31.2588 14.1901 31.0023C14.5511 30.6212 14.9285 30.2558 15.2996 29.8842C15.9677 29.2155 16.6365 28.5476 17.3043 27.8789C17.4552 27.7278 17.6113 27.5887 17.8453 27.5976H17.8454Z" fill="white"/>
<path d="M16.8423 26.5487C16.8403 26.7463 16.7566 26.896 16.6288 27.0239C16.0932 27.5603 15.562 28.1014 15.0183 28.6298C14.7415 28.8988 14.4082 28.906 14.1758 28.6787C13.941 28.449 13.9393 28.1117 14.2055 27.8379C14.7419 27.286 15.2888 26.7439 15.8404 26.2072C16.0252 26.0274 16.2515 25.9363 16.5116 26.0606C16.7201 26.1603 16.8214 26.3338 16.8423 26.5489V26.5487Z" fill="white"/>
<path d="M19.9915 29.698C19.9687 29.9073 19.8859 30.0596 19.7597 30.1867C19.2337 30.7163 18.7105 31.2489 18.176 31.7699C17.8865 32.052 17.543 32.0579 17.3091 31.812C17.0867 31.5784 17.0993 31.2459 17.3688 30.9696C17.8979 30.4267 18.4372 29.8937 18.9757 29.3601C19.1629 29.1745 19.3819 29.0875 19.6434 29.2019C19.8709 29.3016 19.9701 29.487 19.9913 29.698H19.9915Z" fill="white"/>
<path d="M26.3032 21.283C25.4126 21.2824 24.7068 20.5766 24.702 19.6818C24.697 18.7793 25.4193 18.0626 26.3271 18.069C27.2191 18.0752 27.921 18.7801 27.9246 19.6734C27.9282 20.5845 27.2239 21.2838 26.3032 21.2832V21.283Z" fill="white"/>
</svg>
