<svg width="34" height="34" viewBox="0 0 34 34" fill="none" xmlns="http://www.w3.org/2000/svg">
<rect opacity="0.15" width="34" height="34" rx="10" fill="#35BB58"/>
<path d="M24.1142 8.00784C24.4292 8.00784 24.745 7.99474 25.0592 8.0108C25.5813 8.03763 25.9603 8.40831 25.9829 8.92962C26.2277 14.5714 23.8301 18.7517 18.9819 21.5765C18.7981 21.6836 18.6718 21.6627 18.523 21.5133C16.5129 19.4967 14.4993 17.4833 12.4827 15.4732C12.3352 15.3261 12.3058 15.2003 12.4145 15.0147C14.6218 11.2437 17.7229 8.74249 22.1629 8.13837C22.4862 8.09439 22.8094 8.04246 23.1344 8.0225C23.4599 8.00254 23.7875 8.01813 24.1142 8.01813C24.1142 8.0147 24.1142 8.01143 24.1142 8.008V8.00784ZM22.8804 13.696C22.8866 12.2322 21.7871 11.1186 20.3302 11.1136C18.8695 11.1085 17.7183 12.2492 17.7225 13.6976C17.7264 15.0877 18.8901 16.2506 20.2964 16.2697C21.7159 16.2892 22.8743 15.1356 22.8804 13.696Z" fill="#35BB58"/>
<path d="M15.4698 22.7715C15.1819 22.7867 14.9378 22.6838 14.7395 22.4864C13.6639 21.4162 12.5926 20.3419 11.5192 19.2696C11.2253 18.9758 11.1785 18.6165 11.2504 18.2313C11.3511 17.6918 11.4895 17.1615 11.6845 16.6474C11.8449 16.2248 11.8639 16.2192 12.1756 16.5303C13.0843 17.4371 13.9916 18.3456 14.8993 19.2534C15.7659 20.12 16.6336 20.9853 17.4981 21.8537C17.7611 22.1177 17.7526 22.1563 17.3965 22.2871C16.7714 22.5167 16.136 22.7077 15.4696 22.7716L15.4698 22.7715Z" fill="#35BB58"/>
<path d="M8.00237 16.8179C7.98787 16.6033 8.08362 16.4055 8.20759 16.2174C8.77273 15.3599 9.33756 14.502 9.9041 13.6453C10.163 13.2538 10.5205 13.0104 10.9918 12.9596C11.4088 12.9147 11.8272 12.8808 12.2454 12.8509C12.3424 12.8439 12.4753 12.7977 12.5289 12.915C12.5789 13.0238 12.4725 13.1076 12.4145 13.1907C11.5323 14.4558 10.8593 15.8196 10.4667 17.3157C10.3367 17.8114 10.014 18.02 9.49865 17.9415C9.27971 17.9081 9.05827 17.8874 8.8415 17.8437C8.30802 17.7366 7.99644 17.3572 8.00237 16.8179Z" fill="#35BB58"/>
<path d="M21.1459 21.7438C21.1073 22.1731 21.0753 22.6032 21.0271 23.0316C20.9755 23.4907 20.7303 23.8353 20.3512 24.0864C19.4854 24.6601 18.6229 25.2393 17.7482 25.7991C17.0417 26.2514 16.2808 25.9083 16.1381 25.0876C16.0742 24.7202 16.0336 24.3486 15.9635 23.9824C15.9234 23.7727 15.9989 23.6789 16.1955 23.6373C17.8884 23.2789 19.4145 22.5473 20.8266 21.5611C20.9008 21.5093 20.9713 21.4326 21.0756 21.4594C21.1406 21.4761 21.1494 21.5268 21.1459 21.7438Z" fill="#35BB58"/>
<path d="M11.8454 21.5976C12.2763 21.5941 12.537 22.0224 12.3301 22.4122C12.2662 22.5328 12.1639 22.6365 12.0659 22.7347C11.0942 23.7103 10.1199 24.6832 9.14619 25.6568C9.09676 25.7062 9.04841 25.7574 8.99555 25.8031C8.71579 26.0443 8.36242 26.0521 8.14737 25.8235C7.94153 25.6047 7.9473 25.2588 8.1901 25.0023C8.55111 24.6212 8.92849 24.2558 9.29964 23.8842C9.9677 23.2155 10.6365 22.5476 11.3043 21.8789C11.4552 21.7278 11.6113 21.5887 11.8453 21.5976H11.8454Z" fill="#35BB58"/>
<path d="M10.8423 20.5487C10.8403 20.7463 10.7566 20.896 10.6288 21.0239C10.0932 21.5603 9.56203 22.1014 9.01826 22.6298C8.74146 22.8988 8.4082 22.906 8.17585 22.6787C7.941 22.449 7.93928 22.1117 8.20548 21.8379C8.74192 21.286 9.28882 20.7439 9.84039 20.2072C10.0252 20.0274 10.2515 19.9363 10.5116 20.0606C10.7201 20.1603 10.8214 20.3338 10.8423 20.5489V20.5487Z" fill="#35BB58"/>
<path d="M13.9915 23.698C13.9687 23.9073 13.8859 24.0596 13.7597 24.1867C13.2337 24.7163 12.7105 25.2489 12.176 25.7699C11.8865 26.052 11.543 26.0579 11.3091 25.812C11.0867 25.5784 11.0993 25.2459 11.3688 24.9696C11.8979 24.4267 12.4372 23.8937 12.9757 23.3601C13.1629 23.1745 13.3819 23.0875 13.6434 23.2019C13.8709 23.3016 13.9701 23.487 13.9913 23.698H13.9915Z" fill="#35BB58"/>
<path d="M20.3032 15.283C19.4126 15.2824 18.7068 14.5766 18.702 13.6818C18.697 12.7793 19.4193 12.0626 20.3271 12.069C21.2191 12.0752 21.921 12.7801 21.9246 13.6734C21.9282 14.5845 21.2239 15.2838 20.3032 15.2832V15.283Z" fill="#35BB58"/>
</svg>
