<?xml version="1.0" encoding="utf-8"?>
<!-- Generator: Adobe Illustrator 26.3.0, SVG Export Plug-In . SVG Version: 6.00 Build 0)  -->
<svg version="1.1" id="Camada_1" xmlns="http://www.w3.org/2000/svg" xmlns:xlink="http://www.w3.org/1999/xlink" x="0px" y="0px"
	 width="25px" height="25px" viewBox="0 0 25 25" style="enable-background:new 0 0 25 25;" xml:space="preserve">
<style type="text/css">
	.st0{fill:#1A2C1F;}
	.st1{fill:url(#SVGID_1_);}
	.st2{fill:#FFFFFF;}
</style>
<path class="st0" d="M21,0L4,0C1.79,0,0,1.79,0,4l0,17c0,2.21,1.79,4,4,4h17c2.21,0,4-1.79,4-4V4C25,1.79,23.21,0,21,0z"/>
<g>
	<linearGradient id="SVGID_1_" gradientUnits="userSpaceOnUse" x1="3.069" y1="12.5" x2="21.931" y2="12.5">
		<stop  offset="0" style="stop-color:#18A43F"/>
		<stop  offset="1" style="stop-color:#17CB49"/>
	</linearGradient>
	<path class="st1" d="M21.75,14.27c-0.4,2.19-1.49,4.01-3.19,5.44c-2.13,1.78-4.59,2.49-7.34,2.13c-1.88-0.24-3.54-1.01-4.96-2.27
		c-1.64-1.45-2.66-3.26-3.05-5.42c-0.06-0.35-0.1-0.7-0.15-1.05v-1.18c0.04-0.32,0.07-0.63,0.13-0.95C3.53,9,4.39,7.31,5.79,5.89
		c1.41-1.43,3.11-2.33,5.09-2.68c0.34-0.06,0.69-0.1,1.03-0.15h1.18c0.32,0.04,0.64,0.07,0.96,0.13c2.44,0.43,4.44,1.62,5.94,3.6
		C21.68,9.02,22.26,11.53,21.75,14.27z M16.86,9.18c-0.3-0.06-0.54,0.06-0.74,0.27c-1.44,1.45-2.89,2.89-4.33,4.34
		c-0.05,0.05-0.09,0.12-0.16,0.21c-0.07-0.09-0.1-0.13-0.13-0.17c-0.61-0.61-1.22-1.22-1.83-1.84c-0.23-0.23-0.5-0.33-0.82-0.24
		c-0.59,0.17-0.75,0.88-0.31,1.33c0.81,0.81,1.62,1.62,2.43,2.43c0.44,0.44,0.86,0.44,1.31,0c1.64-1.64,3.27-3.27,4.91-4.91
		c0.05-0.05,0.11-0.1,0.15-0.16C17.71,9.98,17.46,9.29,16.86,9.18z"/>
	<path class="st2" d="M11.62,13.99c0.07-0.1,0.11-0.16,0.16-0.21c1.44-1.45,2.89-2.89,4.33-4.34c0.21-0.21,0.45-0.32,0.74-0.27
		c0.6,0.11,0.85,0.8,0.47,1.27c-0.05,0.06-0.1,0.11-0.15,0.16c-1.64,1.64-3.27,3.27-4.91,4.91c-0.44,0.44-0.86,0.44-1.31,0
		c-0.81-0.81-1.63-1.62-2.43-2.43c-0.44-0.45-0.28-1.16,0.31-1.33c0.32-0.09,0.59,0,0.82,0.24c0.61,0.61,1.22,1.22,1.83,1.84
		C11.53,13.86,11.55,13.9,11.62,13.99z"/>
</g>
</svg>
