<?xml version="1.0" encoding="utf-8"?>
<!-- Generator: Adobe Illustrator 26.3.0, SVG Export Plug-In . SVG Version: 6.00 Build 0)  -->
<svg version="1.1" id="Camada_1" xmlns="http://www.w3.org/2000/svg" xmlns:xlink="http://www.w3.org/1999/xlink" x="0px" y="0px"
	 width="168.44px" height="79.51px" viewBox="0 0 168.44 79.51" style="enable-background:new 0 0 168.44 79.51;"
	 xml:space="preserve">
<style type="text/css">
	.st0{fill:url(#SVGID_1_);}
	.st1{opacity:0.23;fill:#1A2C1F;}
	.st2{opacity:0.34;}
	.st3{opacity:0.36;fill:#59EA9E;}
	.st4{fill:#FFFFFF;}
	.st5{font-family:'Poppins-ExtraBold';}
	.st6{font-size:17.5595px;}
	.st7{opacity:0.6;}
	.st8{fill:#020202;}
</style>
<g>
	<g>
		<linearGradient id="SVGID_1_" gradientUnits="userSpaceOnUse" x1="84.22" y1="0" x2="84.22" y2="79.5082">
			<stop  offset="0" style="stop-color:#3FEF92"/>
			<stop  offset="1" style="stop-color:#1D9F5F"/>
		</linearGradient>
		<path class="st0" d="M168.44,8.63v62.24c0,4.75-4.45,8.63-9.88,8.63H9.88C4.45,79.51,0,75.62,0,70.87V8.63C0,3.89,4.45,0,9.88,0
			h148.67c0.17,0,0.34,0.01,0.5,0.01C164.26,0.24,168.44,4.03,168.44,8.63z"/>
		<path class="st1" d="M168.44,8.63v62.24c0,4.75-4.45,8.63-9.88,8.63H72.28L59.01,13.32C58.06,8.58,58.93,3.9,61.12,0h97.43
			c0.17,0,0.34,0.01,0.5,0.01C164.26,0.24,168.44,4.03,168.44,8.63z"/>
		<g class="st2">
			<path class="st3" d="M146.7,22.75c-0.18-0.16-0.39-0.3-0.61-0.42c-0.55-0.29-1.19-0.45-1.89-0.44c-1.49,0-2.52,0.8-3.26,1.99
				c-5.47,8.27-11,16.51-16.47,24.78c-0.19,0.29-0.31,0.66-0.56,1.16c-0.01-0.01-0.04-0.03-0.05-0.04
				c-0.08-0.07-0.15-0.13-0.21-0.18c-0.1-0.09-0.18-0.16-0.26-0.23c-0.1-0.1-0.18-0.16-0.26-0.23c-3.48-2.32-6.97-4.64-10.46-7.01
				c-0.8-0.53-1.61-0.82-2.44-0.8c-0.22,0-0.44,0.01-0.66,0.07c-0.34,0.07-0.68,0.19-1.03,0.37c-2.64,1.38-2.73,4.91-0.2,6.63
				c4.62,3.08,9.26,6.17,13.88,9.25c1.2,0.8,2.28,1.13,3.27,0.97c0.07-0.01,0.15-0.02,0.23-0.04c0.2-0.05,0.42-0.12,0.62-0.22
				c0.75-0.34,1.46-1,2.11-1.96c6.25-9.37,12.45-18.68,18.69-28.05c0.2-0.29,0.43-0.58,0.56-0.9
				C148.57,25.74,148.03,23.82,146.7,22.75z M156.81,7.54c-3.59-3.18-7.43-5.68-11.52-7.54h-37.18c-8.19,3.6-14.77,9.23-19.73,16.79
				c-5.31,8.09-7.79,16.96-7.53,26.66c0.01,1.58,0.17,3.08,0.29,4.65l1.13,5.61c0.57,1.62,1.09,3.25,1.71,4.86
				c3.46,8.76,9.01,15.75,16.61,20.94h52.17c3.5-2.48,6.69-5.52,9.58-9.12c2.49-3.12,4.54-6.42,6.11-9.89V23.09
				C165.86,17.31,161.99,12.12,156.81,7.54z"/>
			<path class="st4" d="M123.85,49.79c0.24-0.54,0.37-0.87,0.56-1.15c5.47-8.27,11-16.51,16.47-24.78c0.8-1.2,1.84-1.95,3.26-1.99
				c2.96-0.05,4.81,3,3.45,5.6c-0.18,0.33-0.37,0.62-0.56,0.9c-6.24,9.37-12.45,18.68-18.69,28.05c-1.67,2.51-3.67,2.91-6.23,1.25
				c-4.63-3.08-9.3-6.16-13.88-9.25c-2.52-1.72-2.44-5.25,0.21-6.63c1.44-0.73,2.81-0.56,4.13,0.36c3.48,2.32,6.97,4.64,10.46,7.01
				C123.29,49.25,123.43,49.42,123.85,49.79z"/>
		</g>
	</g>
	<g>
		<g>
			<text transform="matrix(1 0 0 1 35.265 20.5239)" class="st4 st5 st6">Concluída</text>
		</g>
		<g class="st7">
			<g>
				<g>
					<path class="st8" d="M14.3,37.28h-0.85v-6.66h0.85V37.28z"/>
					<path class="st8" d="M20.1,37.28h-0.83V34.5c0-0.51-0.09-0.89-0.28-1.14c-0.19-0.25-0.46-0.38-0.83-0.38
						c-0.38,0-0.7,0.14-0.95,0.43s-0.38,0.65-0.38,1.09v2.78h-0.83v-4.87h0.83v0.81h0.02c0.18-0.31,0.41-0.54,0.67-0.69
						c0.27-0.15,0.57-0.23,0.92-0.23c0.53,0,0.94,0.17,1.22,0.52s0.42,0.84,0.42,1.49V37.28z"/>
					<path class="st8" d="M24.97,36.46c-0.18,0.31-0.41,0.54-0.69,0.7c-0.28,0.16-0.6,0.23-0.98,0.23c-0.61,0-1.1-0.22-1.47-0.66
						c-0.37-0.44-0.55-1.03-0.55-1.78c0-0.81,0.2-1.45,0.61-1.94c0.41-0.49,0.95-0.73,1.62-0.73c0.33,0,0.62,0.07,0.86,0.2
						c0.24,0.13,0.44,0.33,0.59,0.59h0.02v-2.84h0.83v7.04h-0.83v-0.82H24.97z M22.13,34.92c0,0.56,0.13,1,0.39,1.31
						c0.26,0.32,0.6,0.48,1.03,0.48c0.43,0,0.78-0.15,1.04-0.46c0.26-0.31,0.4-0.7,0.4-1.17v-0.7c0-0.39-0.13-0.72-0.38-0.99
						s-0.58-0.4-0.97-0.4c-0.47,0-0.84,0.17-1.1,0.52C22.27,33.84,22.13,34.31,22.13,34.92z"/>
					<path class="st8" d="M27.85,31.38c-0.16,0-0.3-0.05-0.41-0.16s-0.16-0.24-0.16-0.39c0-0.16,0.05-0.29,0.16-0.4
						c0.11-0.11,0.24-0.16,0.41-0.16s0.3,0.05,0.41,0.16c0.11,0.11,0.16,0.24,0.16,0.4c0,0.15-0.05,0.29-0.16,0.39
						S28.01,31.38,27.85,31.38z M28.25,37.28h-0.83v-4.87h0.83V37.28z"/>
					<path class="st8" d="M33.4,36.97c-0.23,0.15-0.46,0.26-0.7,0.32c-0.23,0.07-0.48,0.1-0.75,0.1c-0.7,0-1.27-0.21-1.7-0.64
						c-0.44-0.43-0.66-1.03-0.66-1.8c0-0.8,0.22-1.44,0.67-1.93c0.45-0.49,1.06-0.73,1.84-0.73c0.25,0,0.49,0.03,0.72,0.09
						s0.45,0.16,0.68,0.29l-0.35,0.6c-0.18-0.11-0.35-0.18-0.52-0.23c-0.17-0.04-0.35-0.07-0.55-0.07c-0.53,0-0.94,0.18-1.22,0.53
						c-0.28,0.35-0.43,0.8-0.43,1.35c0,0.59,0.15,1.05,0.44,1.37c0.3,0.32,0.68,0.47,1.14,0.47c0.16,0,0.32-0.02,0.49-0.07
						c0.17-0.05,0.34-0.13,0.52-0.24L33.4,36.97z"/>
					<path class="st8" d="M38.04,37.28h-0.82v-0.77H37.2c-0.17,0.29-0.37,0.51-0.62,0.66c-0.25,0.15-0.54,0.22-0.86,0.22
						c-0.46,0-0.83-0.13-1.11-0.4s-0.42-0.62-0.42-1.05c0-0.42,0.14-0.77,0.43-1.04c0.28-0.27,0.69-0.45,1.23-0.52l1.38-0.19v-0.11
						c0-0.39-0.09-0.68-0.28-0.85c-0.19-0.17-0.44-0.26-0.75-0.26c-0.25,0-0.5,0.05-0.73,0.14c-0.24,0.1-0.46,0.24-0.68,0.43
						l-0.45-0.5c0.28-0.25,0.57-0.44,0.88-0.56c0.31-0.12,0.66-0.18,1.03-0.18c0.59,0,1.04,0.15,1.34,0.46s0.45,0.77,0.45,1.38
						V37.28z M37.22,35.29v-0.47l-1.16,0.16c-0.36,0.05-0.62,0.14-0.8,0.27c-0.18,0.13-0.26,0.33-0.26,0.61
						c0,0.28,0.08,0.49,0.25,0.64c0.17,0.15,0.37,0.23,0.62,0.23c0.41,0,0.74-0.14,0.98-0.41C37.09,36.05,37.22,35.71,37.22,35.29z"
						/>
					<path class="st8" d="M46.53,39.47h-0.83v-3.01h-0.02c-0.17,0.32-0.39,0.55-0.67,0.71c-0.28,0.16-0.61,0.23-0.99,0.23
						c-0.61,0-1.1-0.22-1.47-0.66s-0.55-1.03-0.55-1.78c0-0.81,0.2-1.46,0.61-1.94c0.41-0.48,0.95-0.72,1.63-0.72
						c0.33,0,0.62,0.07,0.86,0.2c0.24,0.13,0.43,0.33,0.58,0.59h0.02v-0.67h0.83V39.47z M45.7,35.08v-0.69c0-0.4-0.13-0.73-0.39-1
						s-0.58-0.41-0.98-0.41c-0.46,0-0.82,0.17-1.09,0.51c-0.27,0.34-0.4,0.82-0.4,1.45c0,0.55,0.13,0.98,0.39,1.3
						c0.26,0.31,0.59,0.47,1,0.47c0.45,0,0.81-0.15,1.07-0.46C45.57,35.94,45.7,35.55,45.7,35.08z"/>
					<path class="st8" d="M51.98,37.28h-0.83V36.5h-0.02c-0.16,0.3-0.37,0.52-0.62,0.67c-0.25,0.15-0.55,0.22-0.88,0.22
						c-0.58,0-1.01-0.17-1.3-0.52c-0.29-0.35-0.43-0.87-0.43-1.56v-2.91h0.83v2.79c0,0.5,0.1,0.88,0.29,1.13
						c0.19,0.25,0.48,0.38,0.87,0.38c0.37,0,0.68-0.14,0.92-0.41c0.24-0.28,0.36-0.64,0.36-1.09v-2.8h0.83V37.28z"/>
					<path class="st8" d="M57.53,35.03H54.1c0.02,0.54,0.16,0.95,0.43,1.24c0.27,0.29,0.65,0.43,1.15,0.43
						c0.21,0,0.43-0.03,0.66-0.1s0.45-0.18,0.68-0.33l0.38,0.58c-0.28,0.19-0.56,0.32-0.85,0.41c-0.29,0.09-0.6,0.13-0.94,0.13
						c-0.74,0-1.31-0.22-1.72-0.66c-0.41-0.44-0.62-1.05-0.62-1.84c0-0.78,0.21-1.41,0.62-1.89c0.42-0.48,0.96-0.72,1.63-0.72
						c0.64,0,1.13,0.21,1.49,0.62c0.35,0.41,0.53,0.99,0.53,1.73V35.03z M56.7,34.38c0-0.45-0.11-0.8-0.32-1.04
						c-0.21-0.25-0.5-0.37-0.88-0.37c-0.37,0-0.67,0.13-0.93,0.38c-0.25,0.26-0.41,0.6-0.46,1.03H56.7z"/>
					<path class="st8" d="M64.87,37.28h-0.82v-0.77h-0.02c-0.17,0.29-0.37,0.51-0.62,0.66c-0.25,0.15-0.54,0.22-0.86,0.22
						c-0.46,0-0.83-0.13-1.11-0.4s-0.42-0.62-0.42-1.05c0-0.42,0.14-0.77,0.43-1.04c0.28-0.27,0.69-0.45,1.23-0.52l1.38-0.19v-0.11
						c0-0.39-0.09-0.68-0.28-0.85c-0.19-0.17-0.44-0.26-0.75-0.26c-0.25,0-0.5,0.05-0.73,0.14c-0.24,0.1-0.46,0.24-0.68,0.43
						l-0.45-0.5c0.28-0.25,0.57-0.44,0.88-0.56c0.31-0.12,0.66-0.18,1.03-0.18c0.59,0,1.04,0.15,1.34,0.46s0.45,0.77,0.45,1.38
						V37.28z M64.05,35.29v-0.47l-1.16,0.16c-0.36,0.05-0.62,0.14-0.8,0.27c-0.18,0.13-0.26,0.33-0.26,0.61
						c0,0.28,0.08,0.49,0.25,0.64c0.17,0.15,0.37,0.23,0.62,0.23c0.41,0,0.74-0.14,0.98-0.41C63.92,36.05,64.05,35.71,64.05,35.29z"
						/>
					<path class="st8" d="M71.35,30.9c-0.09-0.03-0.17-0.05-0.24-0.07c-0.07-0.01-0.15-0.02-0.22-0.02c-0.26,0-0.45,0.07-0.57,0.2
						c-0.12,0.14-0.19,0.34-0.19,0.6v0.79h1.12v0.69h-1.12v4.18h-0.82V33.1h-0.82v-0.69h0.82v-0.83c0-0.46,0.14-0.81,0.42-1.07
						s0.67-0.39,1.16-0.39c0.12,0,0.24,0.01,0.34,0.03c0.1,0.02,0.21,0.04,0.32,0.08L71.35,30.9z"/>
					<path class="st8" d="M76.15,37.28h-0.83V36.5h-0.02c-0.16,0.3-0.37,0.52-0.62,0.67c-0.25,0.15-0.55,0.22-0.88,0.22
						c-0.58,0-1.01-0.17-1.3-0.52c-0.29-0.35-0.43-0.87-0.43-1.56v-2.91h0.83v2.79c0,0.5,0.1,0.88,0.29,1.13
						c0.19,0.25,0.48,0.38,0.87,0.38c0.37,0,0.68-0.14,0.92-0.41c0.24-0.28,0.36-0.64,0.36-1.09v-2.8h0.83V37.28z"/>
					<path class="st8" d="M81.84,37.28h-0.83V34.5c0-0.51-0.09-0.89-0.28-1.14c-0.19-0.25-0.46-0.38-0.83-0.38
						c-0.38,0-0.7,0.14-0.95,0.43s-0.38,0.65-0.38,1.09v2.78h-0.83v-4.87h0.83v0.81h0.02c0.18-0.31,0.41-0.54,0.67-0.69
						c0.27-0.15,0.57-0.23,0.92-0.23c0.53,0,0.94,0.17,1.22,0.52s0.42,0.84,0.42,1.49V37.28z"/>
					<path class="st8" d="M86.83,36.97c-0.23,0.15-0.46,0.26-0.7,0.32c-0.23,0.07-0.48,0.1-0.75,0.1c-0.7,0-1.26-0.21-1.7-0.64
						c-0.44-0.43-0.66-1.03-0.66-1.8c0-0.8,0.22-1.44,0.67-1.93c0.45-0.49,1.06-0.73,1.84-0.73c0.25,0,0.49,0.03,0.72,0.09
						c0.23,0.06,0.45,0.16,0.68,0.29l-0.35,0.6c-0.18-0.11-0.35-0.18-0.52-0.23c-0.17-0.04-0.35-0.07-0.55-0.07
						c-0.53,0-0.94,0.18-1.22,0.53c-0.28,0.35-0.43,0.8-0.43,1.35c0,0.59,0.15,1.05,0.44,1.37c0.3,0.32,0.68,0.47,1.14,0.47
						c0.16,0,0.32-0.02,0.49-0.07c0.17-0.05,0.34-0.13,0.52-0.24L86.83,36.97z"/>
					<path class="st8" d="M88.38,31.38c-0.16,0-0.3-0.05-0.41-0.16s-0.16-0.24-0.16-0.39c0-0.16,0.05-0.29,0.16-0.4
						c0.11-0.11,0.24-0.16,0.41-0.16s0.3,0.05,0.41,0.16c0.11,0.11,0.17,0.24,0.17,0.4c0,0.15-0.05,0.29-0.17,0.39
						C88.68,31.32,88.55,31.38,88.38,31.38z M88.79,37.28h-0.83v-4.87h0.83V37.28z"/>
					<path class="st8" d="M92.52,37.4c-0.73,0-1.31-0.23-1.74-0.69c-0.43-0.46-0.65-1.06-0.65-1.82c0-0.81,0.22-1.45,0.67-1.91
						c0.45-0.46,1.05-0.69,1.83-0.69c0.73,0,1.3,0.22,1.72,0.67c0.41,0.45,0.62,1.07,0.62,1.85c0,0.78-0.22,1.41-0.66,1.88
						C93.85,37.16,93.26,37.4,92.52,37.4z M92.57,36.71c0.5,0,0.88-0.16,1.14-0.49s0.4-0.78,0.4-1.38c0-0.6-0.13-1.06-0.4-1.38
						c-0.27-0.32-0.65-0.48-1.14-0.48s-0.88,0.17-1.17,0.5c-0.29,0.34-0.43,0.8-0.43,1.39c0,0.57,0.14,1.02,0.43,1.35
						C91.7,36.55,92.08,36.71,92.57,36.71z"/>
					<path class="st8" d="M100.33,37.28H99.5V34.5c0-0.51-0.09-0.89-0.28-1.14s-0.46-0.38-0.83-0.38c-0.38,0-0.7,0.14-0.95,0.43
						s-0.38,0.65-0.38,1.09v2.78h-0.83v-4.87h0.83v0.81h0.02c0.18-0.31,0.41-0.54,0.67-0.69c0.27-0.15,0.57-0.23,0.92-0.23
						c0.53,0,0.94,0.17,1.22,0.52c0.28,0.34,0.42,0.84,0.42,1.49V37.28z"/>
					<path class="st8" d="M105.34,37.28h-0.82v-0.77h-0.02c-0.17,0.29-0.38,0.51-0.62,0.66c-0.25,0.15-0.54,0.22-0.86,0.22
						c-0.46,0-0.83-0.13-1.11-0.4c-0.28-0.27-0.42-0.62-0.42-1.05c0-0.42,0.14-0.77,0.43-1.04s0.7-0.45,1.23-0.52l1.38-0.19v-0.11
						c0-0.39-0.09-0.68-0.28-0.85c-0.19-0.17-0.44-0.26-0.75-0.26c-0.25,0-0.5,0.05-0.73,0.14c-0.24,0.1-0.46,0.24-0.68,0.43
						l-0.45-0.5c0.28-0.25,0.57-0.44,0.88-0.56s0.66-0.18,1.03-0.18c0.59,0,1.04,0.15,1.34,0.46s0.45,0.77,0.45,1.38V37.28z
						 M104.52,35.29v-0.47l-1.16,0.16c-0.36,0.05-0.62,0.14-0.8,0.27c-0.18,0.13-0.26,0.33-0.26,0.61c0,0.28,0.08,0.49,0.25,0.64
						c0.17,0.15,0.37,0.23,0.62,0.23c0.41,0,0.74-0.14,0.98-0.41C104.4,36.05,104.52,35.71,104.52,35.29z"/>
					<path class="st8" d="M106.87,37.28v-7.04h0.83v7.04H106.87z"/>
					<path class="st8" d="M109.73,31.38c-0.16,0-0.3-0.05-0.41-0.16s-0.16-0.24-0.16-0.39c0-0.16,0.05-0.29,0.16-0.4
						c0.11-0.11,0.25-0.16,0.41-0.16s0.3,0.05,0.41,0.16c0.11,0.11,0.16,0.24,0.16,0.4c0,0.15-0.05,0.29-0.16,0.39
						C110.03,31.32,109.89,31.38,109.73,31.38z M110.13,37.28h-0.83v-4.87h0.83V37.28z"/>
					<path class="st8" d="M115.16,36.46c-0.18,0.31-0.41,0.54-0.68,0.7c-0.28,0.16-0.6,0.23-0.98,0.23c-0.61,0-1.1-0.22-1.47-0.66
						c-0.37-0.44-0.55-1.03-0.55-1.78c0-0.81,0.2-1.45,0.61-1.94c0.41-0.49,0.95-0.73,1.62-0.73c0.33,0,0.62,0.07,0.86,0.2
						s0.44,0.33,0.59,0.59h0.02v-2.84H116v7.04h-0.83v-0.82H115.16z M112.32,34.92c0,0.56,0.13,1,0.39,1.31
						c0.26,0.32,0.6,0.48,1.03,0.48c0.43,0,0.78-0.15,1.04-0.46c0.26-0.31,0.39-0.7,0.39-1.17v-0.7c0-0.39-0.13-0.72-0.38-0.99
						c-0.26-0.27-0.58-0.4-0.97-0.4c-0.47,0-0.83,0.17-1.1,0.52C112.45,33.84,112.32,34.31,112.32,34.92z"/>
					<path class="st8" d="M121.12,37.28h-0.82v-0.77h-0.02c-0.17,0.29-0.38,0.51-0.62,0.66c-0.25,0.15-0.54,0.22-0.86,0.22
						c-0.46,0-0.83-0.13-1.11-0.4c-0.28-0.27-0.42-0.62-0.42-1.05c0-0.42,0.14-0.77,0.43-1.04s0.7-0.45,1.23-0.52l1.38-0.19v-0.11
						c0-0.39-0.09-0.68-0.28-0.85c-0.19-0.17-0.44-0.26-0.75-0.26c-0.25,0-0.5,0.05-0.73,0.14c-0.24,0.1-0.46,0.24-0.68,0.43
						l-0.45-0.5c0.28-0.25,0.57-0.44,0.88-0.56s0.66-0.18,1.03-0.18c0.59,0,1.04,0.15,1.34,0.46s0.45,0.77,0.45,1.38V37.28z
						 M120.3,35.29v-0.47l-1.16,0.16c-0.36,0.05-0.62,0.14-0.8,0.27c-0.18,0.13-0.26,0.33-0.26,0.61c0,0.28,0.08,0.49,0.25,0.64
						c0.17,0.15,0.37,0.23,0.62,0.23c0.41,0,0.74-0.14,0.98-0.41C120.18,36.05,120.3,35.71,120.3,35.29z"/>
					<path class="st8" d="M126.01,36.46c-0.18,0.31-0.41,0.54-0.68,0.7c-0.28,0.16-0.6,0.23-0.98,0.23c-0.61,0-1.1-0.22-1.47-0.66
						c-0.37-0.44-0.55-1.03-0.55-1.78c0-0.81,0.2-1.45,0.61-1.94c0.41-0.49,0.95-0.73,1.62-0.73c0.33,0,0.62,0.07,0.86,0.2
						s0.44,0.33,0.59,0.59h0.02v-2.84h0.83v7.04h-0.83v-0.82H126.01z M123.17,34.92c0,0.56,0.13,1,0.39,1.31
						c0.26,0.32,0.6,0.48,1.03,0.48c0.43,0,0.78-0.15,1.04-0.46c0.26-0.31,0.39-0.7,0.39-1.17v-0.7c0-0.39-0.13-0.72-0.38-0.99
						c-0.26-0.27-0.58-0.4-0.97-0.4c-0.47,0-0.83,0.17-1.1,0.52C123.31,33.84,123.17,34.31,123.17,34.92z"/>
					<path class="st8" d="M132.42,35.03h-3.43c0.02,0.54,0.16,0.95,0.43,1.24c0.27,0.29,0.65,0.43,1.15,0.43
						c0.21,0,0.43-0.03,0.66-0.1s0.45-0.18,0.68-0.33l0.38,0.58c-0.28,0.19-0.56,0.32-0.85,0.41c-0.29,0.09-0.6,0.13-0.94,0.13
						c-0.74,0-1.31-0.22-1.72-0.66s-0.62-1.05-0.62-1.84c0-0.78,0.21-1.41,0.62-1.89c0.42-0.48,0.96-0.72,1.63-0.72
						c0.64,0,1.13,0.21,1.49,0.62c0.35,0.41,0.53,0.99,0.53,1.73V35.03z M131.58,34.38c0-0.45-0.11-0.8-0.32-1.04
						c-0.21-0.25-0.5-0.37-0.88-0.37c-0.37,0-0.67,0.13-0.93,0.38c-0.25,0.26-0.41,0.6-0.46,1.03H131.58z"/>
					<path class="st8" d="M140.19,35.03h-3.43c0.02,0.54,0.16,0.95,0.43,1.24c0.27,0.29,0.65,0.43,1.15,0.43
						c0.21,0,0.43-0.03,0.66-0.1s0.45-0.18,0.68-0.33l0.38,0.58c-0.28,0.19-0.56,0.32-0.85,0.41c-0.29,0.09-0.6,0.13-0.94,0.13
						c-0.74,0-1.31-0.22-1.72-0.66s-0.62-1.05-0.62-1.84c0-0.78,0.21-1.41,0.62-1.89c0.42-0.48,0.96-0.72,1.63-0.72
						c0.64,0,1.13,0.21,1.49,0.62c0.35,0.41,0.53,0.99,0.53,1.73V35.03z M139.36,34.38c0-0.45-0.11-0.8-0.32-1.04
						c-0.21-0.25-0.5-0.37-0.88-0.37c-0.37,0-0.67,0.13-0.93,0.38c-0.25,0.26-0.41,0.6-0.46,1.03H139.36z"/>
					<path class="st8" d="M140.98,36.92l0.38-0.62c0.21,0.14,0.41,0.24,0.61,0.31c0.2,0.07,0.42,0.11,0.66,0.11
						c0.33,0,0.57-0.06,0.74-0.18c0.17-0.12,0.26-0.3,0.26-0.54c0-0.2-0.08-0.36-0.23-0.49c-0.15-0.13-0.39-0.24-0.71-0.32
						c-0.6-0.15-1.02-0.35-1.24-0.58c-0.23-0.24-0.34-0.53-0.34-0.88c0-0.41,0.16-0.75,0.47-1.02c0.31-0.27,0.74-0.4,1.28-0.4
						c0.26,0,0.51,0.03,0.74,0.1c0.23,0.07,0.47,0.18,0.71,0.33l-0.36,0.61c-0.22-0.14-0.41-0.23-0.58-0.29
						c-0.17-0.05-0.35-0.08-0.53-0.08c-0.31,0-0.54,0.06-0.71,0.17c-0.16,0.11-0.25,0.28-0.25,0.5c0,0.21,0.08,0.37,0.24,0.48
						c0.16,0.11,0.43,0.21,0.8,0.31c0.5,0.13,0.87,0.32,1.12,0.55c0.25,0.24,0.37,0.55,0.37,0.95c0,0.45-0.16,0.81-0.49,1.07
						s-0.76,0.4-1.32,0.4c-0.3,0-0.59-0.04-0.87-0.12S141.22,37.07,140.98,36.92z"/>
					<path class="st8" d="M148.02,37.22c-0.13,0.06-0.26,0.1-0.4,0.12s-0.28,0.04-0.44,0.04c-0.4,0-0.71-0.12-0.94-0.34
						c-0.22-0.23-0.34-0.57-0.34-1.02V33.1h-0.83v-0.69h0.83v-1.11l0.83-0.26v1.38h1.22v0.69h-1.22v2.83c0,0.28,0.05,0.47,0.15,0.6
						s0.25,0.18,0.45,0.18c0.09,0,0.18-0.01,0.27-0.03c0.09-0.02,0.16-0.05,0.22-0.08L148.02,37.22z"/>
					<path class="st8" d="M152.56,37.28h-0.82v-0.77h-0.02c-0.17,0.29-0.38,0.51-0.62,0.66c-0.25,0.15-0.54,0.22-0.86,0.22
						c-0.46,0-0.83-0.13-1.11-0.4c-0.28-0.27-0.42-0.62-0.42-1.05c0-0.42,0.14-0.77,0.43-1.04s0.7-0.45,1.23-0.52l1.38-0.19v-0.11
						c0-0.39-0.09-0.68-0.28-0.85c-0.19-0.17-0.44-0.26-0.75-0.26c-0.25,0-0.5,0.05-0.73,0.14c-0.24,0.1-0.46,0.24-0.68,0.43
						l-0.45-0.5c0.28-0.25,0.57-0.44,0.88-0.56s0.66-0.18,1.03-0.18c0.59,0,1.04,0.15,1.34,0.46s0.45,0.77,0.45,1.38V37.28z
						 M151.75,35.29v-0.47l-1.16,0.16c-0.36,0.05-0.62,0.14-0.8,0.27c-0.18,0.13-0.26,0.33-0.26,0.61c0,0.28,0.08,0.49,0.25,0.64
						c0.17,0.15,0.37,0.23,0.62,0.23c0.41,0,0.74-0.14,0.98-0.41C151.62,36.05,151.75,35.71,151.75,35.29z M150.77,31.54h-0.64
						l1.05-1.52h0.82L150.77,31.54z"/>
					<path class="st8" d="M26.81,42.31c-0.09-0.03-0.17-0.05-0.24-0.07c-0.07-0.01-0.15-0.02-0.22-0.02c-0.26,0-0.45,0.07-0.57,0.2
						c-0.12,0.14-0.19,0.34-0.19,0.6v0.79h1.12v0.69h-1.12v4.18h-0.82v-4.18h-0.82v-0.69h0.82v-0.83c0-0.46,0.14-0.81,0.42-1.07
						s0.67-0.39,1.16-0.39c0.12,0,0.24,0.01,0.34,0.03c0.1,0.02,0.21,0.04,0.32,0.08L26.81,42.31z"/>
					<path class="st8" d="M28.04,42.79c-0.16,0-0.3-0.05-0.41-0.16s-0.16-0.24-0.16-0.39c0-0.16,0.05-0.29,0.16-0.4
						c0.11-0.11,0.24-0.16,0.41-0.16s0.3,0.05,0.41,0.16c0.11,0.11,0.16,0.24,0.16,0.4c0,0.15-0.05,0.29-0.16,0.39
						S28.2,42.79,28.04,42.79z M28.45,48.69h-0.83v-4.87h0.83V48.69z"/>
					<path class="st8" d="M34.19,48.69h-0.83v-2.78c0-0.51-0.09-0.89-0.28-1.14c-0.19-0.25-0.46-0.38-0.83-0.38
						c-0.38,0-0.7,0.14-0.95,0.43s-0.38,0.65-0.38,1.09v2.78h-0.83v-4.87h0.83v0.81h0.02c0.18-0.31,0.41-0.54,0.67-0.69
						c0.27-0.15,0.57-0.23,0.92-0.23c0.53,0,0.94,0.17,1.22,0.52s0.42,0.84,0.42,1.49V48.69z"/>
					<path class="st8" d="M39.21,48.69h-0.82v-0.77h-0.02c-0.17,0.29-0.37,0.51-0.62,0.66c-0.25,0.15-0.54,0.22-0.86,0.22
						c-0.46,0-0.83-0.13-1.11-0.4s-0.42-0.62-0.42-1.05c0-0.42,0.14-0.77,0.43-1.04c0.28-0.27,0.69-0.45,1.23-0.52l1.38-0.19v-0.11
						c0-0.39-0.09-0.68-0.28-0.85c-0.19-0.17-0.44-0.26-0.75-0.26c-0.25,0-0.5,0.05-0.73,0.14c-0.24,0.1-0.46,0.24-0.68,0.43
						l-0.45-0.5c0.28-0.25,0.57-0.44,0.88-0.56c0.31-0.12,0.66-0.18,1.03-0.18c0.59,0,1.04,0.15,1.34,0.46s0.45,0.77,0.45,1.38
						V48.69z M38.39,46.71v-0.47l-1.16,0.16c-0.36,0.05-0.62,0.14-0.8,0.27c-0.18,0.13-0.26,0.33-0.26,0.61
						c0,0.28,0.08,0.49,0.25,0.64c0.17,0.15,0.37,0.23,0.62,0.23c0.41,0,0.74-0.14,0.98-0.41C38.26,47.47,38.39,47.12,38.39,46.71z"
						/>
					<path class="st8" d="M40.74,48.69v-7.04h0.83v7.04H40.74z"/>
					<path class="st8" d="M43.59,42.79c-0.16,0-0.3-0.05-0.41-0.16s-0.16-0.24-0.16-0.39c0-0.16,0.05-0.29,0.16-0.4
						c0.11-0.11,0.24-0.16,0.41-0.16s0.3,0.05,0.41,0.16c0.11,0.11,0.16,0.24,0.16,0.4c0,0.15-0.05,0.29-0.16,0.39
						S43.76,42.79,43.59,42.79z M44,48.69h-0.83v-4.87H44V48.69z"/>
					<path class="st8" d="M49.11,44.09L46.26,48h2.82v0.69h-4.03v-0.27l2.87-3.91h-2.6v-0.69h3.79V44.09z"/>
					<path class="st8" d="M53.68,48.69h-0.82v-0.77h-0.02c-0.17,0.29-0.37,0.51-0.62,0.66c-0.25,0.15-0.54,0.22-0.86,0.22
						c-0.46,0-0.83-0.13-1.11-0.4s-0.42-0.62-0.42-1.05c0-0.42,0.14-0.77,0.43-1.04c0.28-0.27,0.69-0.45,1.23-0.52l1.38-0.19v-0.11
						c0-0.39-0.09-0.68-0.28-0.85c-0.19-0.17-0.44-0.26-0.75-0.26c-0.25,0-0.5,0.05-0.73,0.14c-0.24,0.1-0.46,0.24-0.68,0.43
						l-0.45-0.5c0.28-0.25,0.57-0.44,0.88-0.56c0.31-0.12,0.66-0.18,1.03-0.18c0.59,0,1.04,0.15,1.34,0.46s0.45,0.77,0.45,1.38
						V48.69z M52.86,46.71v-0.47l-1.16,0.16c-0.36,0.05-0.62,0.14-0.8,0.27c-0.18,0.13-0.26,0.33-0.26,0.61
						c0,0.28,0.08,0.49,0.25,0.64c0.17,0.15,0.37,0.23,0.62,0.23c0.41,0,0.74-0.14,0.98-0.41C52.74,47.47,52.86,47.12,52.86,46.71z"
						/>
					<path class="st8" d="M58.57,47.88c-0.18,0.31-0.41,0.54-0.69,0.7c-0.28,0.16-0.6,0.23-0.98,0.23c-0.61,0-1.1-0.22-1.47-0.66
						c-0.37-0.44-0.55-1.03-0.55-1.78c0-0.81,0.2-1.45,0.61-1.94c0.41-0.49,0.95-0.73,1.62-0.73c0.33,0,0.62,0.07,0.86,0.2
						c0.24,0.13,0.44,0.33,0.59,0.59h0.02v-2.84h0.83v7.04h-0.83v-0.82H58.57z M55.73,46.33c0,0.56,0.13,1,0.39,1.31
						c0.26,0.32,0.6,0.48,1.03,0.48c0.43,0,0.78-0.15,1.04-0.46c0.26-0.31,0.4-0.7,0.4-1.17v-0.7c0-0.39-0.13-0.72-0.38-0.99
						s-0.58-0.4-0.97-0.4c-0.47,0-0.84,0.17-1.1,0.52C55.87,45.25,55.73,45.73,55.73,46.33z"/>
					<path class="st8" d="M64.53,48.69h-0.82v-0.77h-0.02c-0.17,0.29-0.37,0.51-0.62,0.66c-0.25,0.15-0.54,0.22-0.86,0.22
						c-0.46,0-0.83-0.13-1.11-0.4s-0.42-0.62-0.42-1.05c0-0.42,0.14-0.77,0.43-1.04c0.28-0.27,0.69-0.45,1.23-0.52l1.38-0.19v-0.11
						c0-0.39-0.09-0.68-0.28-0.85c-0.19-0.17-0.44-0.26-0.75-0.26c-0.25,0-0.5,0.05-0.73,0.14c-0.24,0.1-0.46,0.24-0.68,0.43
						l-0.45-0.5c0.28-0.25,0.57-0.44,0.88-0.56c0.31-0.12,0.66-0.18,1.03-0.18c0.59,0,1.04,0.15,1.34,0.46
						c0.3,0.31,0.45,0.77,0.45,1.38V48.69z M63.71,46.71v-0.47l-1.16,0.16c-0.36,0.05-0.62,0.14-0.8,0.27
						c-0.18,0.13-0.26,0.33-0.26,0.61c0,0.28,0.08,0.49,0.25,0.64c0.17,0.15,0.37,0.23,0.62,0.23c0.41,0,0.74-0.14,0.98-0.41
						C63.59,47.47,63.71,47.12,63.71,46.71z"/>
					<path class="st8" d="M72.62,46.45h-3.43c0.02,0.54,0.16,0.95,0.43,1.24c0.27,0.29,0.65,0.43,1.15,0.43
						c0.21,0,0.43-0.03,0.66-0.1s0.45-0.18,0.68-0.33l0.38,0.58c-0.28,0.19-0.56,0.32-0.85,0.41c-0.29,0.09-0.6,0.13-0.94,0.13
						c-0.74,0-1.31-0.22-1.72-0.66c-0.41-0.44-0.62-1.05-0.62-1.84c0-0.78,0.21-1.41,0.62-1.89c0.42-0.48,0.96-0.72,1.63-0.72
						c0.64,0,1.13,0.21,1.49,0.62c0.35,0.41,0.53,0.99,0.53,1.73V46.45z M71.79,45.8c0-0.45-0.11-0.8-0.32-1.04
						c-0.21-0.25-0.5-0.37-0.88-0.37c-0.37,0-0.67,0.13-0.93,0.38c-0.25,0.26-0.41,0.6-0.46,1.03H71.79z"/>
					<path class="st8" d="M79.81,47.88c-0.18,0.31-0.41,0.54-0.69,0.7c-0.28,0.16-0.6,0.23-0.98,0.23c-0.61,0-1.1-0.22-1.47-0.66
						c-0.37-0.44-0.55-1.03-0.55-1.78c0-0.81,0.2-1.45,0.61-1.94c0.41-0.49,0.95-0.73,1.62-0.73c0.33,0,0.62,0.07,0.86,0.2
						c0.24,0.13,0.44,0.33,0.59,0.59h0.02v-2.84h0.83v7.04h-0.83v-0.82H79.81z M76.97,46.33c0,0.56,0.13,1,0.39,1.31
						c0.26,0.32,0.6,0.48,1.03,0.48c0.43,0,0.78-0.15,1.04-0.46c0.26-0.31,0.4-0.7,0.4-1.17v-0.7c0-0.39-0.13-0.72-0.38-0.99
						s-0.58-0.4-0.97-0.4c-0.47,0-0.84,0.17-1.1,0.52C77.11,45.25,76.97,45.73,76.97,46.33z"/>
					<path class="st8" d="M82.68,42.79c-0.16,0-0.3-0.05-0.41-0.16s-0.16-0.24-0.16-0.39c0-0.16,0.05-0.29,0.16-0.4
						c0.11-0.11,0.24-0.16,0.41-0.16s0.3,0.05,0.41,0.16c0.11,0.11,0.16,0.24,0.16,0.4c0,0.15-0.05,0.29-0.16,0.39
						S82.85,42.79,82.68,42.79z M83.09,48.69h-0.83v-4.87h0.83V48.69z"/>
					<path class="st8" d="M84.32,48.33l0.39-0.62c0.2,0.14,0.41,0.24,0.61,0.31c0.2,0.07,0.42,0.11,0.66,0.11
						c0.33,0,0.57-0.06,0.74-0.18c0.17-0.12,0.26-0.3,0.26-0.54c0-0.2-0.08-0.36-0.23-0.49c-0.15-0.13-0.39-0.24-0.71-0.32
						c-0.6-0.15-1.02-0.35-1.24-0.58c-0.23-0.24-0.34-0.53-0.34-0.88c0-0.41,0.16-0.75,0.47-1.02s0.74-0.4,1.27-0.4
						c0.26,0,0.51,0.03,0.74,0.1c0.23,0.07,0.47,0.18,0.71,0.33l-0.36,0.61c-0.22-0.14-0.41-0.23-0.58-0.29
						c-0.17-0.05-0.35-0.08-0.53-0.08c-0.31,0-0.54,0.06-0.71,0.17c-0.16,0.11-0.25,0.28-0.25,0.5c0,0.21,0.08,0.37,0.24,0.48
						c0.16,0.11,0.43,0.21,0.8,0.31c0.5,0.13,0.87,0.32,1.12,0.55c0.25,0.24,0.37,0.55,0.37,0.95c0,0.45-0.16,0.81-0.49,1.07
						s-0.76,0.4-1.32,0.4c-0.3,0-0.59-0.04-0.87-0.12C84.81,48.6,84.55,48.49,84.32,48.33z"/>
					<path class="st8" d="M89.81,47.99H89.8v2.89h-0.83v-7.06h0.83v0.85h0.02c0.19-0.32,0.43-0.56,0.71-0.72
						c0.28-0.16,0.6-0.24,0.97-0.24c0.63,0,1.12,0.22,1.47,0.66s0.53,1.02,0.53,1.76c0,0.81-0.2,1.47-0.6,1.96
						c-0.4,0.49-0.94,0.74-1.62,0.74c-0.32,0-0.59-0.07-0.84-0.2C90.19,48.47,89.98,48.26,89.81,47.99z M89.79,46.03v0.65
						c0,0.4,0.13,0.74,0.39,1.02s0.58,0.42,0.98,0.42c0.46,0,0.82-0.18,1.09-0.53c0.26-0.36,0.39-0.85,0.39-1.49
						c0-0.54-0.12-0.95-0.37-1.26c-0.25-0.3-0.58-0.45-1-0.45c-0.45,0-0.81,0.16-1.08,0.47C89.93,45.17,89.79,45.56,89.79,46.03z"/>
					<path class="st8" d="M96.84,48.81c-0.73,0-1.31-0.23-1.74-0.69c-0.43-0.46-0.65-1.06-0.65-1.82c0-0.81,0.22-1.45,0.67-1.91
						c0.45-0.46,1.05-0.69,1.83-0.69c0.73,0,1.3,0.22,1.72,0.67c0.41,0.45,0.62,1.07,0.62,1.85c0,0.78-0.22,1.41-0.66,1.88
						C98.18,48.58,97.58,48.81,96.84,48.81z M96.9,48.12c0.5,0,0.88-0.16,1.14-0.49s0.4-0.78,0.4-1.38c0-0.6-0.13-1.06-0.4-1.38
						c-0.27-0.32-0.65-0.48-1.14-0.48s-0.88,0.17-1.17,0.5c-0.29,0.34-0.43,0.8-0.43,1.39c0,0.57,0.14,1.02,0.43,1.35
						C96.02,47.96,96.41,48.12,96.9,48.12z"/>
					<path class="st8" d="M104.65,48.69h-0.83v-2.78c0-0.51-0.09-0.89-0.28-1.14c-0.19-0.25-0.46-0.38-0.83-0.38
						c-0.38,0-0.7,0.14-0.95,0.43s-0.38,0.65-0.38,1.09v2.78h-0.83v-4.87h0.83v0.81h0.02c0.18-0.31,0.41-0.54,0.67-0.69
						c0.27-0.15,0.57-0.23,0.92-0.23c0.53,0,0.94,0.17,1.22,0.52c0.28,0.34,0.42,0.84,0.42,1.49V48.69z"/>
					<path class="st8" d="M106.57,42.95h-0.64l1.05-1.52h0.82L106.57,42.95z M106.16,48.69v-4.87h0.83v4.87H106.16z"/>
					<path class="st8" d="M112.5,43.82l-1.93,4.87h-0.83l-1.84-4.87h0.91l1.21,3.51c0.04,0.13,0.08,0.26,0.11,0.37
						c0.03,0.12,0.05,0.22,0.06,0.32h0.02c0.02-0.12,0.04-0.24,0.06-0.35c0.02-0.11,0.06-0.22,0.09-0.32l1.27-3.53H112.5z"/>
					<path class="st8" d="M117.34,46.45h-3.43c0.02,0.54,0.16,0.95,0.43,1.24c0.27,0.29,0.65,0.43,1.15,0.43
						c0.21,0,0.43-0.03,0.66-0.1s0.45-0.18,0.68-0.33l0.38,0.58c-0.28,0.19-0.56,0.32-0.85,0.41c-0.29,0.09-0.6,0.13-0.94,0.13
						c-0.74,0-1.31-0.22-1.72-0.66s-0.62-1.05-0.62-1.84c0-0.78,0.21-1.41,0.62-1.89c0.42-0.48,0.96-0.72,1.63-0.72
						c0.64,0,1.13,0.21,1.49,0.62c0.35,0.41,0.53,0.99,0.53,1.73V46.45z M116.51,45.8c0-0.45-0.11-0.8-0.32-1.04
						c-0.21-0.25-0.5-0.37-0.88-0.37c-0.37,0-0.67,0.13-0.93,0.38c-0.25,0.26-0.41,0.6-0.46,1.03H116.51z"/>
					<path class="st8" d="M118.56,48.69v-7.04h0.83v7.04H118.56z"/>
					<path class="st8" d="M124.45,47.99h-0.02v2.89h-0.83v-7.06h0.83v0.85h0.02c0.19-0.32,0.43-0.56,0.71-0.72
						c0.28-0.16,0.6-0.24,0.97-0.24c0.63,0,1.12,0.22,1.47,0.66s0.53,1.02,0.53,1.76c0,0.81-0.2,1.47-0.6,1.96
						c-0.4,0.49-0.94,0.74-1.62,0.74c-0.32,0-0.59-0.07-0.84-0.2C124.82,48.47,124.62,48.26,124.45,47.99z M124.42,46.03v0.65
						c0,0.4,0.13,0.74,0.39,1.02s0.58,0.42,0.98,0.42c0.46,0,0.82-0.18,1.09-0.53c0.26-0.36,0.39-0.85,0.39-1.49
						c0-0.54-0.12-0.95-0.37-1.26c-0.25-0.3-0.58-0.45-1-0.45c-0.45,0-0.81,0.16-1.08,0.47C124.56,45.17,124.42,45.56,124.42,46.03z
						"/>
					<path class="st8" d="M132.91,48.69h-0.82v-0.77h-0.02c-0.17,0.29-0.38,0.51-0.62,0.66c-0.25,0.15-0.54,0.22-0.86,0.22
						c-0.46,0-0.83-0.13-1.11-0.4c-0.28-0.27-0.42-0.62-0.42-1.05c0-0.42,0.14-0.77,0.43-1.04s0.7-0.45,1.23-0.52l1.38-0.19v-0.11
						c0-0.39-0.09-0.68-0.28-0.85c-0.19-0.17-0.44-0.26-0.75-0.26c-0.25,0-0.5,0.05-0.73,0.14c-0.24,0.1-0.46,0.24-0.68,0.43
						l-0.45-0.5c0.28-0.25,0.57-0.44,0.88-0.56s0.66-0.18,1.03-0.18c0.59,0,1.04,0.15,1.34,0.46s0.45,0.77,0.45,1.38V48.69z
						 M132.1,46.71v-0.47l-1.16,0.16c-0.36,0.05-0.62,0.14-0.8,0.27c-0.18,0.13-0.26,0.33-0.26,0.61c0,0.28,0.08,0.49,0.25,0.64
						c0.17,0.15,0.37,0.23,0.62,0.23c0.41,0,0.74-0.14,0.98-0.41C131.97,47.47,132.1,47.12,132.1,46.71z"/>
					<path class="st8" d="M136.9,44.53c-0.06-0.02-0.12-0.03-0.17-0.04c-0.05-0.01-0.12-0.01-0.19-0.01c-0.39,0-0.7,0.17-0.93,0.5
						c-0.23,0.33-0.34,0.75-0.34,1.26v2.46h-0.83v-4.87h0.83v0.97h0.02c0.11-0.34,0.28-0.6,0.51-0.78s0.49-0.27,0.79-0.27
						c0.1,0,0.18,0,0.25,0.01c0.07,0.01,0.13,0.02,0.19,0.04L136.9,44.53z"/>
					<path class="st8" d="M141.45,48.69h-0.82v-0.77h-0.02c-0.17,0.29-0.38,0.51-0.62,0.66c-0.25,0.15-0.54,0.22-0.86,0.22
						c-0.46,0-0.83-0.13-1.11-0.4c-0.28-0.27-0.42-0.62-0.42-1.05c0-0.42,0.14-0.77,0.43-1.04s0.7-0.45,1.23-0.52l1.38-0.19v-0.11
						c0-0.39-0.09-0.68-0.28-0.85c-0.19-0.17-0.44-0.26-0.75-0.26c-0.25,0-0.5,0.05-0.73,0.14c-0.24,0.1-0.46,0.24-0.68,0.43
						l-0.45-0.5c0.28-0.25,0.57-0.44,0.88-0.56s0.66-0.18,1.03-0.18c0.59,0,1.04,0.15,1.34,0.46s0.45,0.77,0.45,1.38V48.69z
						 M140.63,46.71v-0.47l-1.16,0.16c-0.36,0.05-0.62,0.14-0.8,0.27c-0.18,0.13-0.26,0.33-0.26,0.61c0,0.28,0.08,0.49,0.25,0.64
						c0.17,0.15,0.37,0.23,0.62,0.23c0.41,0,0.74-0.14,0.98-0.41C140.51,47.47,140.63,47.12,140.63,46.71z"/>
					<path class="st8" d="M59.46,60.11h-0.83v-0.78h-0.02c-0.16,0.3-0.37,0.52-0.62,0.67c-0.25,0.15-0.55,0.22-0.88,0.22
						c-0.58,0-1.01-0.17-1.3-0.52c-0.29-0.35-0.43-0.87-0.43-1.56v-2.91h0.83v2.79c0,0.5,0.1,0.88,0.29,1.13
						c0.19,0.25,0.48,0.38,0.87,0.38c0.37,0,0.68-0.14,0.92-0.41c0.24-0.28,0.36-0.64,0.36-1.09v-2.8h0.83V60.11z"/>
					<path class="st8" d="M60.63,59.74l0.39-0.62c0.2,0.14,0.41,0.24,0.61,0.31c0.2,0.07,0.42,0.11,0.66,0.11
						c0.33,0,0.57-0.06,0.74-0.18c0.17-0.12,0.26-0.3,0.26-0.54c0-0.2-0.07-0.36-0.23-0.49c-0.15-0.13-0.39-0.24-0.71-0.32
						c-0.6-0.15-1.02-0.35-1.24-0.58c-0.23-0.24-0.34-0.53-0.34-0.88c0-0.41,0.16-0.75,0.47-1.02s0.74-0.4,1.27-0.4
						c0.26,0,0.51,0.03,0.74,0.1c0.23,0.07,0.47,0.18,0.71,0.33l-0.36,0.61c-0.22-0.14-0.41-0.23-0.58-0.29
						c-0.17-0.05-0.35-0.08-0.53-0.08c-0.31,0-0.54,0.06-0.71,0.17c-0.16,0.11-0.25,0.28-0.25,0.5c0,0.21,0.08,0.37,0.24,0.48
						c0.16,0.11,0.43,0.21,0.8,0.31c0.5,0.13,0.87,0.32,1.12,0.55c0.25,0.24,0.37,0.55,0.37,0.95c0,0.45-0.16,0.81-0.49,1.07
						c-0.32,0.26-0.76,0.4-1.32,0.4c-0.3,0-0.59-0.04-0.87-0.12C61.12,60.02,60.86,59.9,60.63,59.74z"/>
					<path class="st8" d="M67.34,60.22c-0.73,0-1.31-0.23-1.74-0.69c-0.43-0.46-0.65-1.06-0.65-1.82c0-0.81,0.22-1.45,0.67-1.91
						s1.05-0.69,1.83-0.69c0.73,0,1.3,0.22,1.72,0.67c0.41,0.45,0.62,1.07,0.62,1.85c0,0.78-0.22,1.41-0.66,1.88
						S68.09,60.22,67.34,60.22z M67.4,59.54c0.5,0,0.88-0.16,1.14-0.49s0.4-0.78,0.4-1.38c0-0.6-0.13-1.06-0.4-1.38
						c-0.27-0.32-0.65-0.48-1.14-0.48s-0.88,0.17-1.17,0.5s-0.43,0.8-0.43,1.39c0,0.57,0.14,1.02,0.43,1.35
						C66.52,59.37,66.91,59.54,67.4,59.54z"/>
					<path class="st8" d="M74.1,54.2c-0.16,0-0.3-0.05-0.41-0.16s-0.16-0.24-0.16-0.39c0-0.16,0.05-0.29,0.16-0.4
						c0.11-0.11,0.24-0.16,0.41-0.16s0.3,0.05,0.41,0.16c0.11,0.11,0.16,0.24,0.16,0.4c0,0.15-0.05,0.29-0.16,0.39
						S74.26,54.2,74.1,54.2z M74.5,60.11h-0.83v-4.87h0.83V60.11z"/>
					<path class="st8" d="M83.14,60.11h-0.83v-2.8c0-0.53-0.08-0.91-0.25-1.15s-0.44-0.35-0.82-0.35c-0.33,0-0.61,0.15-0.83,0.45
						c-0.23,0.3-0.34,0.66-0.34,1.08v2.78h-0.83v-2.89c0-0.47-0.09-0.82-0.27-1.06s-0.45-0.35-0.82-0.35
						c-0.34,0-0.62,0.14-0.83,0.42c-0.22,0.28-0.33,0.65-0.33,1.11v2.77h-0.83v-4.87h0.83v0.77h0.02c0.17-0.29,0.39-0.52,0.64-0.66
						c0.25-0.15,0.55-0.22,0.88-0.22c0.33,0,0.62,0.09,0.87,0.27s0.42,0.43,0.51,0.73c0.18-0.33,0.4-0.59,0.68-0.75
						s0.58-0.25,0.94-0.25c0.54,0,0.94,0.17,1.21,0.5s0.4,0.83,0.4,1.49V60.11z"/>
					<path class="st8" d="M88.6,57.86h-3.43c0.02,0.54,0.16,0.95,0.43,1.24c0.27,0.29,0.66,0.43,1.15,0.43
						c0.21,0,0.43-0.03,0.66-0.1s0.45-0.18,0.68-0.33l0.38,0.58c-0.28,0.19-0.57,0.32-0.85,0.41c-0.29,0.09-0.6,0.13-0.94,0.13
						c-0.74,0-1.31-0.22-1.72-0.66c-0.41-0.44-0.62-1.05-0.62-1.84c0-0.78,0.21-1.41,0.62-1.89c0.42-0.48,0.96-0.72,1.63-0.72
						c0.64,0,1.13,0.21,1.49,0.62c0.35,0.41,0.53,0.99,0.53,1.73V57.86z M87.76,57.21c0-0.45-0.11-0.8-0.32-1.04
						c-0.21-0.25-0.5-0.37-0.88-0.37c-0.37,0-0.67,0.13-0.93,0.38c-0.25,0.26-0.41,0.6-0.46,1.03H87.76z"/>
					<path class="st8" d="M93.18,59.29c-0.18,0.31-0.41,0.54-0.68,0.7c-0.28,0.16-0.6,0.23-0.98,0.23c-0.61,0-1.1-0.22-1.47-0.66
						c-0.37-0.44-0.55-1.03-0.55-1.78c0-0.81,0.2-1.45,0.61-1.94c0.41-0.49,0.95-0.73,1.62-0.73c0.33,0,0.62,0.07,0.86,0.2
						s0.44,0.33,0.59,0.59h0.02v-2.84h0.83v7.04H93.2v-0.82H93.18z M90.34,57.74c0,0.56,0.13,1,0.39,1.31
						c0.26,0.32,0.6,0.48,1.03,0.48c0.43,0,0.78-0.15,1.04-0.46c0.26-0.31,0.39-0.7,0.39-1.17v-0.7c0-0.39-0.13-0.72-0.38-0.99
						c-0.26-0.27-0.58-0.4-0.97-0.4c-0.47,0-0.83,0.17-1.1,0.52C90.47,56.67,90.34,57.14,90.34,57.74z"/>
					<path class="st8" d="M96.05,54.2c-0.16,0-0.3-0.05-0.41-0.16s-0.16-0.24-0.16-0.39c0-0.16,0.05-0.29,0.16-0.4
						c0.11-0.11,0.24-0.16,0.41-0.16s0.3,0.05,0.41,0.16c0.11,0.11,0.17,0.24,0.17,0.4c0,0.15-0.05,0.29-0.17,0.39
						C96.35,54.15,96.22,54.2,96.05,54.2z M96.46,60.11h-0.83v-4.87h0.83V60.11z"/>
					<path class="st8" d="M101.63,60.11h-0.82v-0.77h-0.02c-0.17,0.29-0.37,0.51-0.62,0.66c-0.25,0.15-0.54,0.22-0.86,0.22
						c-0.46,0-0.83-0.13-1.11-0.4c-0.28-0.27-0.42-0.62-0.42-1.05c0-0.42,0.14-0.77,0.43-1.04c0.28-0.27,0.69-0.45,1.23-0.52
						l1.38-0.19V56.9c0-0.39-0.09-0.68-0.28-0.85c-0.19-0.17-0.44-0.26-0.75-0.26c-0.25,0-0.5,0.05-0.73,0.14
						c-0.24,0.1-0.46,0.24-0.68,0.43l-0.45-0.5c0.28-0.25,0.57-0.44,0.88-0.56c0.31-0.12,0.66-0.18,1.03-0.18
						c0.59,0,1.04,0.15,1.34,0.46s0.45,0.77,0.45,1.38V60.11z M100.81,58.12v-0.47l-1.16,0.16c-0.36,0.05-0.62,0.14-0.8,0.27
						s-0.26,0.33-0.26,0.61c0,0.28,0.08,0.49,0.25,0.64c0.17,0.15,0.37,0.23,0.62,0.23c0.41,0,0.74-0.14,0.99-0.41
						C100.68,58.88,100.81,58.54,100.81,58.12z"/>
					<path class="st8" d="M105.55,60.05c-0.13,0.06-0.27,0.1-0.4,0.12c-0.13,0.03-0.28,0.04-0.44,0.04c-0.4,0-0.71-0.12-0.94-0.34
						c-0.22-0.23-0.34-0.57-0.34-1.02v-2.93h-0.83v-0.69h0.83v-1.11l0.83-0.26v1.38h1.22v0.69h-1.22v2.83c0,0.28,0.05,0.47,0.15,0.6
						c0.1,0.12,0.25,0.18,0.45,0.18c0.09,0,0.18-0.01,0.27-0.03s0.16-0.05,0.22-0.08L105.55,60.05z"/>
					<path class="st8" d="M108.65,60.22c-0.73,0-1.31-0.23-1.74-0.69c-0.43-0.46-0.65-1.06-0.65-1.82c0-0.81,0.22-1.45,0.67-1.91
						c0.45-0.46,1.05-0.69,1.83-0.69c0.73,0,1.3,0.22,1.72,0.67c0.41,0.45,0.62,1.07,0.62,1.85c0,0.78-0.22,1.41-0.66,1.88
						C109.98,59.99,109.39,60.22,108.65,60.22z M108.7,59.54c0.5,0,0.88-0.16,1.14-0.49s0.4-0.78,0.4-1.38c0-0.6-0.13-1.06-0.4-1.38
						s-0.65-0.48-1.14-0.48s-0.88,0.17-1.17,0.5c-0.29,0.34-0.43,0.8-0.43,1.39c0,0.57,0.14,1.02,0.43,1.35
						C107.83,59.37,108.22,59.54,108.7,59.54z"/>
					<path class="st8" d="M112.68,60.21c-0.16,0-0.29-0.05-0.4-0.16s-0.17-0.24-0.17-0.39c0-0.15,0.06-0.28,0.17-0.39
						s0.25-0.16,0.4-0.16c0.16,0,0.29,0.05,0.4,0.16c0.11,0.11,0.17,0.24,0.17,0.39c0,0.15-0.06,0.28-0.17,0.39
						C112.97,60.15,112.83,60.21,112.68,60.21z"/>
				</g>
			</g>
		</g>
	</g>
</g>
</svg>
