<svg width="256" height="256" viewBox="0 0 256 256" fill="none" xmlns="http://www.w3.org/2000/svg">
<path opacity="0.1" d="M52.736 0H202.752C232.448 0 256 23.552 256 52.736V202.752C256 232.448 232.448 256 203.264 256H52.736C23.552 256 0 232.448 0 203.264V52.736C0 23.552 23.552 0 52.736 0Z" fill="#BF5AF2"/>
<path opacity="0.989" fill-rule="evenodd" clip-rule="evenodd" d="M80.7149 49.0742C84.1813 48.3182 86.7009 49.49 88.2734 52.5898C88.4492 57.0414 88.5079 61.4945 88.4492 65.9492C92.1993 65.9492 95.9491 65.9492 99.6992 65.9492C99.6405 61.4945 99.6992 57.0414 99.875 52.5898C100.862 50.1334 102.678 48.9615 105.324 49.0742C107.97 48.9615 109.787 50.1334 110.773 52.5898C110.949 57.0414 111.008 61.4945 110.949 65.9492C114.699 65.9492 118.449 65.9492 122.199 65.9492C122.141 61.4945 122.199 57.0414 122.375 52.5898C123.362 50.1334 125.178 48.9615 127.824 49.0742C130.47 48.9615 132.287 50.1334 133.273 52.5898C133.449 57.0414 133.508 61.4945 133.449 65.9492C137.199 65.9492 140.949 65.9492 144.699 65.9492C144.641 61.4945 144.699 57.0414 144.875 52.5898C145.862 50.1334 147.678 48.9615 150.324 49.0742C152.97 48.9615 154.787 50.1334 155.773 52.5898C155.949 57.0414 156.008 61.4945 155.949 65.9492C159.699 65.9492 163.449 65.9492 167.199 65.9492C167.141 61.4945 167.199 57.0414 167.375 52.5898C168.948 49.432 171.467 48.3187 174.934 49.2499C176.516 49.8945 177.629 51.0077 178.273 52.5898C178.665 57.3868 178.841 62.1915 178.801 67.0038C183.634 68.849 187.033 72.1889 188.996 77.0234C193.683 77.1404 198.371 77.2579 203.059 77.3749C206.216 78.9475 207.33 81.4671 206.398 84.9335C205.754 86.5156 204.641 87.629 203.059 88.2734C198.607 88.4492 194.154 88.5079 189.699 88.4492C189.699 92.1993 189.699 95.949 189.699 99.6992C194.154 99.6404 198.607 99.6992 203.059 99.8749C205.515 100.862 206.687 102.678 206.574 105.324C206.687 107.97 205.515 109.787 203.059 110.773C198.607 110.949 194.154 111.008 189.699 110.949C189.699 114.699 189.699 118.449 189.699 122.199C194.154 122.14 198.607 122.199 203.059 122.375C205.515 123.362 206.687 125.178 206.574 127.824C206.687 130.47 205.515 132.287 203.059 133.273C198.607 133.449 194.154 133.508 189.699 133.449C189.699 137.199 189.699 140.949 189.699 144.699C194.154 144.64 198.607 144.699 203.059 144.875C205.515 145.862 206.687 147.678 206.574 150.324C206.687 152.97 205.515 154.787 203.059 155.773C198.607 155.949 194.154 156.008 189.699 155.949C189.699 159.699 189.699 163.449 189.699 167.199C194.154 167.14 198.607 167.199 203.059 167.375C206.216 168.947 207.33 171.467 206.398 174.934C205.754 176.516 204.641 177.629 203.059 178.273C198.371 178.39 193.683 178.508 188.996 178.625C187.033 183.459 183.634 186.799 178.801 188.644C178.841 193.457 178.665 198.261 178.273 203.059C176.701 206.216 174.181 207.33 170.715 206.398C169.133 205.754 168.019 204.641 167.375 203.059C167.199 198.607 167.141 194.154 167.199 189.699C163.449 189.699 159.699 189.699 155.949 189.699C156.008 194.154 155.949 198.607 155.773 203.059C154.787 205.515 152.97 206.687 150.324 206.574C147.678 206.687 145.862 205.515 144.875 203.059C144.699 198.607 144.641 194.154 144.699 189.699C140.949 189.699 137.199 189.699 133.449 189.699C133.508 194.154 133.449 198.607 133.273 203.059C132.287 205.515 130.47 206.687 127.824 206.574C125.178 206.687 123.362 205.515 122.375 203.059C122.199 198.607 122.141 194.154 122.199 189.699C118.449 189.699 114.699 189.699 110.949 189.699C111.008 194.154 110.949 198.607 110.773 203.059C109.787 205.515 107.97 206.687 105.324 206.574C102.678 206.687 100.862 205.515 99.875 203.059C99.6992 198.607 99.6405 194.154 99.6992 189.699C95.9491 189.699 92.1993 189.699 88.4492 189.699C88.5079 194.154 88.4492 198.607 88.2734 203.059C86.7009 206.216 84.1813 207.33 80.7149 206.398C79.1328 205.754 78.0194 204.641 77.375 203.059C77.2579 198.371 77.1405 193.683 77.0234 188.996C72.1602 186.945 68.7031 183.488 66.6524 178.625C61.9649 178.508 57.2773 178.39 52.5899 178.273C49.4321 176.701 48.3188 174.181 49.25 170.715C49.8945 169.133 51.0078 168.019 52.5899 167.375C57.0414 167.199 61.4945 167.14 65.9492 167.199C65.9492 163.449 65.9492 159.699 65.9492 155.949C61.4945 156.008 57.0414 155.949 52.5899 155.773C50.1335 154.787 48.9616 152.97 49.0742 150.324C48.9616 147.678 50.1335 145.862 52.5899 144.875C57.0414 144.699 61.4945 144.64 65.9492 144.699C65.9492 140.949 65.9492 137.199 65.9492 133.449C61.4945 133.508 57.0414 133.449 52.5899 133.273C50.1335 132.287 48.9616 130.47 49.0742 127.824C48.9616 125.178 50.1335 123.362 52.5899 122.375C57.0414 122.199 61.4945 122.14 65.9492 122.199C65.9492 118.449 65.9492 114.699 65.9492 110.949C61.4945 111.008 57.0414 110.949 52.5899 110.773C50.1335 109.787 48.9616 107.97 49.0742 105.324C48.9616 102.678 50.1335 100.862 52.5899 99.8749C57.0414 99.6992 61.4945 99.6404 65.9492 99.6992C65.9492 95.949 65.9492 92.1993 65.9492 88.4492C61.4945 88.5079 57.0414 88.4492 52.5899 88.2734C49.4321 86.7008 48.3188 84.1812 49.25 80.7148C49.8945 79.1327 51.0078 78.0193 52.5899 77.3749C57.2773 77.2579 61.9649 77.1404 66.6524 77.0234C68.7031 72.1601 72.1602 68.703 77.0234 66.6523C77.1405 61.9648 77.2579 57.2773 77.375 52.5898C78.0859 51.0007 79.1993 49.8289 80.7149 49.0742ZM82.8242 77.1992C112.824 77.1404 142.824 77.1992 172.824 77.3749C176.037 77.7754 177.854 79.5919 178.273 82.8242C178.508 112.824 178.508 142.824 178.273 172.824C177.873 176.037 176.057 177.854 172.824 178.273C142.824 178.508 112.824 178.508 82.8242 178.273C79.6113 177.873 77.7948 176.056 77.375 172.824C77.1405 142.824 77.1405 112.824 77.375 82.8242C77.8482 79.5975 79.6647 77.7226 82.8242 77.1992Z" fill="#BF5AF2"/>
<path opacity="0.996" fill-rule="evenodd" clip-rule="evenodd" d="M101.809 88.4493C119.153 88.3906 136.497 88.4493 153.84 88.625C160.812 90.4416 165.207 94.8361 167.024 101.809C167.258 119.152 167.258 136.496 167.024 153.84C165.207 160.812 160.812 165.207 153.84 167.023C136.496 167.258 119.152 167.258 101.809 167.023C94.8361 165.207 90.4416 160.812 88.6251 153.84C88.3906 136.496 88.3906 119.152 88.6251 101.809C90.5056 94.8308 94.9001 90.3776 101.809 88.4493Z" fill="#BF5AF2"/>
</svg>
