<?xml version="1.0" encoding="utf-8"?>
<!-- Generator: Adobe Illustrator 26.3.0, SVG Export Plug-In . SVG Version: 6.00 Build 0)  -->
<svg version="1.1" id="Camada_1" xmlns="http://www.w3.org/2000/svg" xmlns:xlink="http://www.w3.org/1999/xlink" x="0px" y="0px"
	 width="58.77px" height="15.86px" viewBox="0 0 58.77 15.86" style="enable-background:new 0 0 58.77 15.86;" xml:space="preserve"
	>
<style type="text/css">
	.st0{fill:#301E1E;stroke:url(#SVGID_1_);stroke-width:0.25;stroke-miterlimit:10;}
	.st1{fill:#F74141;}
	.st2{fill:url(#SVGID_00000004516539543201240610000013248392775485020850_);}
	.st3{fill:url(#SVGID_00000183225054336807687340000002216462933095662758_);}
	.st4{fill:url(#SVGID_00000021095925164941665650000005706425775484582042_);}
	.st5{fill:url(#SVGID_00000075131232896584446350000008848691274362835335_);}
</style>
<linearGradient id="SVGID_1_" gradientUnits="userSpaceOnUse" x1="0.0103" y1="7.9319" x2="58.7609" y2="7.9319">
	<stop  offset="0" style="stop-color:#EA3D3D"/>
	<stop  offset="1" style="stop-color:#FC5454"/>
</linearGradient>
<path class="st0" d="M56.66,15.73H2.11c-1.09,0-1.98-0.89-1.98-1.98V2.11c0-1.09,0.89-1.98,1.98-1.98h54.55
	c1.09,0,1.98,0.89,1.98,1.98v11.64C58.64,14.84,57.75,15.73,56.66,15.73z"/>
<g>
	<g>
		<path class="st1" d="M21.32,11.6v-7h1.98c1.24,0,2.16,0.28,2.78,0.85c0.62,0.57,0.92,1.42,0.92,2.56c0,1.08-0.34,1.95-1.03,2.6
			c-0.68,0.66-1.6,0.98-2.75,0.98H21.32z M22.21,5.39v5.42h1.02c0.9,0,1.59-0.24,2.09-0.72c0.5-0.48,0.75-1.17,0.75-2.05
			c0-0.88-0.23-1.53-0.7-1.98c-0.47-0.44-1.17-0.66-2.1-0.66H22.21z"/>
		<path class="st1" d="M32.22,11.6h-3.75v-7h3.6v0.79h-2.71v2.26h2.51v0.79h-2.51v2.37h2.87V11.6z"/>
		<path class="st1" d="M37.32,11.6h-3.68v-7h0.89v6.21h2.79V11.6z"/>
		<path class="st1" d="M42.24,11.6h-3.75v-7h3.6v0.79h-2.71v2.26h2.51v0.79h-2.51v2.37h2.87V11.6z"/>
		<path class="st1" d="M47.87,5.39h-2.02v6.21h-0.89V5.39h-2.02V4.6h4.93V5.39z"/>
		<path class="st1" d="M52.82,11.6h-3.75v-7h3.6v0.79h-2.71v2.26h2.51v0.79h-2.51v2.37h2.87V11.6z"/>
	</g>
</g>
<g>
	
		<linearGradient id="SVGID_00000158707202029784744180000005319343871525511099_" gradientUnits="userSpaceOnUse" x1="16.2049" y1="8.0491" x2="6.111" y2="8.0491">
		<stop  offset="0" style="stop-color:#EA3D3D"/>
		<stop  offset="1" style="stop-color:#FC5454"/>
	</linearGradient>
	<path style="fill:url(#SVGID_00000158707202029784744180000005319343871525511099_);" d="M11.16,3C8.37,3,6.11,5.26,6.11,8.05
		c0,2.79,2.26,5.05,5.05,5.05c2.79,0,5.05-2.26,5.05-5.05C16.21,5.26,13.95,3,11.16,3z M13.09,6.97c-0.05,0.64-0.11,1.27-0.17,1.91
		c-0.05,0.57-0.1,1.15-0.15,1.72c-0.02,0.2-0.12,0.31-0.33,0.31c-0.86,0-1.71,0-2.57,0c-0.19,0-0.3-0.1-0.32-0.29
		C9.45,9.6,9.36,8.57,9.26,7.55C9.25,7.36,9.23,7.18,9.21,7C9.18,6.73,9.29,6.61,9.57,6.61c0.53,0,1.06,0,1.59,0
		c0.53,0,1.06,0,1.6,0C13,6.61,13.11,6.72,13.09,6.97z M13.06,6.4c-0.03,0-0.05,0-0.08,0h-1.83c-0.63,0-1.25,0-1.88,0
		c-0.19,0-0.33-0.11-0.35-0.27c-0.03-0.2,0.11-0.37,0.33-0.37c0.33,0,0.66,0,0.99,0c0.07,0,0.1-0.02,0.11-0.09
		c0.07-0.25,0.23-0.43,0.49-0.46c0.2-0.03,0.41-0.03,0.62,0c0.27,0.04,0.44,0.21,0.51,0.48c0.02,0.07,0.04,0.08,0.1,0.08
		c0.33,0,0.66,0,1,0c0.2,0,0.33,0.14,0.33,0.32C13.4,6.26,13.26,6.39,13.06,6.4z"/>
	
		<linearGradient id="SVGID_00000106116287252101304470000016697003553799380614_" gradientUnits="userSpaceOnUse" x1="12.3953" y1="8.7251" x2="11.8479" y2="8.7251">
		<stop  offset="0" style="stop-color:#EA3D3D"/>
		<stop  offset="1" style="stop-color:#FC5454"/>
	</linearGradient>
	<path style="fill:url(#SVGID_00000106116287252101304470000016697003553799380614_);" d="M12.39,7.7
		c-0.06,0.68-0.12,1.37-0.17,2.05c-0.01,0.13-0.09,0.23-0.21,0.23c-0.12-0.01-0.18-0.1-0.17-0.26c0.06-0.68,0.11-1.36,0.17-2.04
		c0.01-0.13,0.09-0.21,0.2-0.21C12.33,7.48,12.41,7.57,12.39,7.7z"/>
	
		<linearGradient id="SVGID_00000048463311263333642440000006914686519862572693_" gradientUnits="userSpaceOnUse" x1="10.4707" y1="8.7258" x2="9.921" y2="8.7258">
		<stop  offset="0" style="stop-color:#EA3D3D"/>
		<stop  offset="1" style="stop-color:#FC5454"/>
	</linearGradient>
	<path style="fill:url(#SVGID_00000048463311263333642440000006914686519862572693_);" d="M10.47,9.79c0,0.11-0.07,0.18-0.17,0.19
		c-0.1,0.01-0.19-0.06-0.2-0.17c-0.02-0.22-0.04-0.45-0.06-0.67C10,8.67,9.96,8.2,9.92,7.73c0-0.04-0.01-0.08,0-0.11
		c0.02-0.09,0.1-0.15,0.19-0.15c0.09,0,0.17,0.06,0.18,0.16c0.02,0.16,0.03,0.32,0.04,0.48c0.03,0.34,0.06,0.67,0.08,1.02
		c0.01,0.07,0.01,0.14,0.02,0.21c0.01,0.14,0.02,0.28,0.03,0.42C10.47,9.75,10.47,9.77,10.47,9.79z"/>
	
		<linearGradient id="SVGID_00000029016632398117108970000015694460754647203481_" gradientUnits="userSpaceOnUse" x1="11.3447" y1="8.7238" x2="10.9713" y2="8.7238">
		<stop  offset="0" style="stop-color:#EA3D3D"/>
		<stop  offset="1" style="stop-color:#FC5454"/>
	</linearGradient>
	<path style="fill:url(#SVGID_00000029016632398117108970000015694460754647203481_);" d="M11.34,9.78c0,0.13-0.07,0.21-0.19,0.21
		c-0.11,0-0.19-0.08-0.19-0.21c0-0.35,0-0.7,0-1.05V7.66c0-0.09,0.04-0.16,0.13-0.19c0.08-0.03,0.15-0.01,0.2,0.06
		c0.03,0.04,0.04,0.09,0.04,0.14C11.35,8.37,11.35,9.08,11.34,9.78z"/>
</g>
<g>
</g>
<g>
</g>
<g>
</g>
<g>
</g>
<g>
</g>
<g>
</g>
<g>
</g>
<g>
</g>
<g>
</g>
<g>
</g>
<g>
</g>
<g>
</g>
<g>
</g>
<g>
</g>
<g>
</g>
</svg>
