<?xml version="1.0" encoding="utf-8"?>
<!-- Generator: Adobe Illustrator 26.3.0, SVG Export Plug-In . SVG Version: 6.00 Build 0)  -->
<svg version="1.1" id="Camada_1" xmlns="http://www.w3.org/2000/svg" xmlns:xlink="http://www.w3.org/1999/xlink" x="0px" y="0px"
	 width="97.38px" height="26.15px" viewBox="0 0 97.38 26.15" style="enable-background:new 0 0 97.38 26.15;" xml:space="preserve"
	>
<style type="text/css">
	.st0{fill:#301E1E;stroke:url(#SVGID_1_);stroke-width:0.25;stroke-miterlimit:10;}
	.st1{fill:#F74141;}
	.st2{fill:url(#SVGID_00000116202000337463576410000017159190818401139081_);}
	.st3{fill:url(#SVGID_00000181807077200824618740000013491696912863475097_);}
	.st4{fill:url(#SVGID_00000004530680264860456750000004176812659748087956_);}
	.st5{fill:url(#SVGID_00000123422757386463040950000007967066066846604704_);}
</style>
<linearGradient id="SVGID_1_" gradientUnits="userSpaceOnUse" x1="4.944557e-03" y1="14.9224" x2="97.3815" y2="14.9224" gradientTransform="matrix(1 0 0 -1 0 27.9972)">
	<stop  offset="0" style="stop-color:#EA3D3D"/>
	<stop  offset="1" style="stop-color:#FC5454"/>
</linearGradient>
<path class="st0" d="M95.28,26.02H2.11c-1.09,0-1.98-0.89-1.98-1.98V2.11c0-1.09,0.89-1.98,1.98-1.98h93.17
	c1.09,0,1.98,0.89,1.98,1.98v21.94C97.26,25.13,96.37,26.02,95.28,26.02z"/>
<g>
	<g>
		<path class="st1" d="M35.3,19.17V7.55h3.29c2.05,0,3.59,0.47,4.61,1.41c1.02,0.94,1.54,2.36,1.54,4.25c0,1.79-0.57,3.23-1.71,4.32
			c-1.14,1.09-2.66,1.63-4.56,1.63H35.3V19.17z M36.77,8.86v8.99h1.69c1.49,0,2.64-0.4,3.47-1.2c0.83-0.8,1.24-1.94,1.24-3.41
			c0-1.45-0.39-2.55-1.16-3.28c-0.78-0.73-1.94-1.1-3.48-1.1C38.53,8.86,36.77,8.86,36.77,8.86z"/>
		<path class="st1" d="M53.39,19.17h-6.23V7.55h5.97v1.31h-4.5v3.74h4.17v1.31h-4.17v3.94h4.76C53.39,17.85,53.39,19.17,53.39,19.17
			z"/>
		<path class="st1" d="M61.87,19.17h-6.11V7.55h1.48v10.31h4.63V19.17z"/>
		<path class="st1" d="M70.04,19.17H63.8V7.55h5.97v1.31h-4.5v3.74h4.17v1.31h-4.17v3.94h4.76V19.17z"/>
		<path class="st1" d="M79.38,8.86h-3.36v10.31h-1.47V8.86H71.2V7.55h8.18V8.86z"/>
		<path class="st1" d="M87.59,19.17h-6.23V7.55h5.97v1.31h-4.5v3.74H87v1.31h-4.17v3.94h4.76V19.17z"/>
	</g>
</g>
<g>
	
		<linearGradient id="SVGID_00000103955822938565210010000005791207528125196954_" gradientUnits="userSpaceOnUse" x1="26.81" y1="14.7223" x2="10.0537" y2="14.7223" gradientTransform="matrix(1 0 0 -1 0 27.9972)">
		<stop  offset="0" style="stop-color:#EA3D3D"/>
		<stop  offset="1" style="stop-color:#FC5454"/>
	</linearGradient>
	<path style="fill:url(#SVGID_00000103955822938565210010000005791207528125196954_);" d="M18.44,4.9c-4.63,0-8.38,3.74-8.38,8.37
		s3.74,8.37,8.37,8.38c4.63,0,8.38-3.74,8.38-8.37C26.81,8.64,23.07,4.9,18.44,4.9z M21.64,11.49c-0.09,1.06-0.19,2.12-0.28,3.17
		c-0.09,0.95-0.17,1.9-0.26,2.85c-0.03,0.34-0.2,0.51-0.54,0.51c-1.42,0-2.84,0-4.27,0c-0.32,0-0.5-0.16-0.53-0.49
		c-0.16-1.7-0.31-3.4-0.47-5.1c-0.03-0.3-0.06-0.6-0.09-0.91c-0.04-0.45,0.13-0.65,0.59-0.65c0.88,0,1.75,0,2.63,0
		c0.88,0,1.77,0,2.65,0C21.49,10.88,21.67,11.07,21.64,11.49z M21.6,10.53c-0.05,0-0.09,0-0.14,0h-3.04c-1.04,0-2.08,0-3.12,0
		c-0.32,0-0.54-0.18-0.58-0.45c-0.05-0.34,0.19-0.61,0.55-0.62c0.55,0,1.09,0,1.64,0c0.11,0,0.16-0.03,0.19-0.15
		c0.11-0.42,0.39-0.71,0.82-0.77c0.34-0.05,0.69-0.05,1.02,0c0.45,0.06,0.73,0.35,0.84,0.79c0.03,0.11,0.07,0.13,0.17,0.13
		c0.55,0,1.1,0,1.65,0c0.32,0,0.55,0.23,0.55,0.53C22.15,10.3,21.93,10.52,21.6,10.53z"/>
	
		<linearGradient id="SVGID_00000145046471371545880080000010442362741539053705_" gradientUnits="userSpaceOnUse" x1="20.4875" y1="13.6063" x2="19.5787" y2="13.6063" gradientTransform="matrix(1 0 0 -1 0 27.9972)">
		<stop  offset="0" style="stop-color:#EA3D3D"/>
		<stop  offset="1" style="stop-color:#FC5454"/>
	</linearGradient>
	<path style="fill:url(#SVGID_00000145046471371545880080000010442362741539053705_);" d="M20.49,12.69
		c-0.09,1.14-0.2,2.27-0.28,3.41c-0.02,0.22-0.16,0.39-0.34,0.37c-0.2-0.01-0.3-0.16-0.28-0.43c0.09-1.13,0.18-2.26,0.28-3.39
		c0.02-0.22,0.15-0.35,0.34-0.34C20.39,12.32,20.51,12.48,20.49,12.69z"/>
	
		<linearGradient id="SVGID_00000115498218528139350510000009741139798673833148_" gradientUnits="userSpaceOnUse" x1="17.2923" y1="13.5919" x2="16.3798" y2="13.5919" gradientTransform="matrix(1 0 0 -1 0 27.9972)">
		<stop  offset="0" style="stop-color:#EA3D3D"/>
		<stop  offset="1" style="stop-color:#FC5454"/>
	</linearGradient>
	<path style="fill:url(#SVGID_00000115498218528139350510000009741139798673833148_);" d="M17.3,16.16c0,0.18-0.12,0.31-0.28,0.32
		c-0.17,0.01-0.31-0.1-0.33-0.28c-0.04-0.37-0.07-0.74-0.1-1.11c-0.07-0.78-0.13-1.56-0.19-2.33c0-0.06-0.01-0.12,0-0.18
		c0.03-0.15,0.16-0.26,0.31-0.25c0.15,0,0.28,0.1,0.3,0.27c0.03,0.26,0.05,0.53,0.07,0.79c0.05,0.56,0.09,1.12,0.14,1.69
		c0.01,0.11,0.02,0.23,0.03,0.34c0.02,0.23,0.04,0.46,0.06,0.69C17.3,16.09,17.3,16.13,17.3,16.16z"/>
	
		<linearGradient id="SVGID_00000182508776736415082330000014998319694902774965_" gradientUnits="userSpaceOnUse" x1="18.7434" y1="13.6075" x2="18.1231" y2="13.6075" gradientTransform="matrix(1 0 0 -1 0 27.9972)">
		<stop  offset="0" style="stop-color:#EA3D3D"/>
		<stop  offset="1" style="stop-color:#FC5454"/>
	</linearGradient>
	<path style="fill:url(#SVGID_00000182508776736415082330000014998319694902774965_);" d="M18.75,16.14c0,0.21-0.12,0.34-0.31,0.34
		c-0.19,0-0.31-0.13-0.31-0.34c0-0.58,0-1.16,0-1.74v-1.77c0-0.15,0.07-0.26,0.21-0.31c0.13-0.05,0.25-0.01,0.33,0.1
		c0.05,0.06,0.07,0.15,0.07,0.23C18.75,13.81,18.75,14.98,18.75,16.14z"/>
</g>
</svg>
