<svg width="124" height="33" viewBox="0 0 124 33" fill="none" xmlns="http://www.w3.org/2000/svg">
<g clip-path="url(#clip0_1_77)">
<path d="M119.761 33H4.23932C1.90769 33 0 31.0962 0 28.7692V4.23077C0 1.90385 1.90769 0 4.23932 0H119.761C122.092 0 124 1.90385 124 4.23077V28.7692C124 31.0962 122.092 33 119.761 33Z" fill="#301E1E"/>
<path d="M44.7248 24.3269V9.51923H48.9641C54.4752 9.51923 57.2308 11.8461 57.2308 16.7115C57.2308 19.0385 56.3829 20.7308 54.8991 22.2115C53.4154 23.6923 51.2957 24.3269 48.7521 24.3269H44.7248ZM47.0564 11.6346V22.2115H48.9641C50.6598 22.2115 52.1436 21.7885 52.9915 20.7308C54.0513 19.8846 54.4752 18.4038 54.4752 16.7115C54.4752 13.3269 52.7795 11.4231 49.1761 11.4231H47.0564V11.6346Z" fill="#F74141"/>
<path d="M68.253 24.3269H59.9863V9.51923H67.8291V11.6346H62.318V15.8654H67.4051V17.9808H62.318V22.4231H68.253V24.3269Z" fill="#F74141"/>
<path d="M79.0632 24.3269H70.7966V9.51923H73.3402V22.2115H79.0632V24.3269Z" fill="#F74141"/>
<path d="M89.6616 24.3269H81.3949V9.51923H89.4496V11.6346H83.9385V15.8654H89.0257V17.9808H83.9385V22.4231H89.8735V24.3269H89.6616Z" fill="#F74141"/>
<path d="M101.744 11.6346H97.5043V24.3269H94.9607V11.6346H90.7214V9.51923H101.744V11.6346Z" fill="#F74141"/>
<path d="M112.342 24.3269H104.075V9.51923H112.13V11.6346H106.619V15.8654H111.706V17.9808H106.619V22.4231H112.342V24.3269Z" fill="#F74141"/>
<path opacity="0.8" d="M22.8923 24.75C26.5213 24.75 29.4632 21.151 29.4632 16.7115C29.4632 12.272 26.5213 8.67307 22.8923 8.67307C19.2633 8.67307 16.3214 12.272 16.3214 16.7115C16.3214 21.151 19.2633 24.75 22.8923 24.75Z" fill="white"/>
<path d="M23.3162 6.13461C17.3812 6.13461 12.718 11 12.718 16.7115C12.718 22.6346 17.3812 27.2885 23.3162 27.2885C29.2513 27.2885 33.9145 22.4231 33.9145 16.7115C34.1265 10.7885 29.2513 6.13461 23.3162 6.13461ZM26.0718 22.8462H20.5607C20.1368 22.8462 19.9248 22.6346 19.9248 22.2115C19.7128 20.0962 19.5009 17.7692 19.2889 15.6538C19.2889 15.2308 19.2889 14.8077 19.0769 14.5962C19.0769 13.9615 19.2889 13.75 19.9248 13.75H26.7077C27.1316 13.75 27.5556 13.9615 27.3436 14.5962C27.3436 15.8654 27.1316 17.3462 26.9197 18.6154C26.9197 19.8846 26.7077 20.9423 26.4957 22.2115C26.7077 22.6346 26.4957 22.8462 26.0718 22.8462ZM27.3436 13.3269H19.2889C18.865 13.3269 18.653 13.1154 18.653 12.6923C18.653 12.2692 18.865 11.8462 19.2889 11.8462C19.9248 11.8462 20.7727 11.8462 21.4086 11.8462C21.6205 11.8462 21.6205 11.8462 21.6205 11.6346C21.8325 11.2115 22.0445 10.7885 22.6803 10.5769C23.1043 10.5769 23.5282 10.5769 23.9521 10.5769C24.588 10.5769 24.8 11 25.012 11.6346C25.012 11.8462 25.012 11.8462 25.2239 11.8462C25.8598 11.8462 26.7077 11.8462 27.3436 11.8462C27.7675 11.8462 27.9795 12.0577 27.9795 12.4808C27.9795 12.9038 27.7675 13.3269 27.3436 13.3269Z" fill="url(#paint0_linear_1_77)"/>
<path d="M26.0718 16.0769C25.8598 17.5577 25.8598 19.0385 25.6479 20.5192C25.6479 20.7308 25.4359 20.9423 25.2239 20.9423C25.012 20.9423 24.8 20.7308 24.8 20.3077C25.012 18.8269 25.012 17.3462 25.2239 16.0769C25.2239 15.8654 25.4359 15.6538 25.6479 15.6538C25.8598 15.4423 26.0718 15.6538 26.0718 16.0769Z" fill="url(#paint1_linear_1_77)"/>
<path d="M21.8325 20.5192C21.8325 20.7308 21.6205 20.9423 21.4085 20.9423C21.1966 20.9423 20.9846 20.7308 20.9846 20.5192C20.9846 20.0961 20.9846 19.6731 20.7726 19.0384C20.7726 17.9808 20.5607 17.1346 20.5607 16.0769V15.8654C20.5607 15.6538 20.7726 15.4423 20.9846 15.4423C21.1966 15.4423 21.4085 15.6538 21.4085 15.8654C21.4085 16.2884 21.4085 16.5 21.4085 16.9231C21.4085 17.5577 21.6205 18.4038 21.6205 19.0384C21.6205 19.25 21.6205 19.25 21.6205 19.4615C21.8325 19.6731 21.8325 20.0961 21.8325 20.5192C21.8325 20.3077 21.8325 20.3077 21.8325 20.5192Z" fill="url(#paint2_linear_1_77)"/>
<path d="M23.7402 20.3077C23.7402 20.5192 23.5282 20.7308 23.3163 20.7308C23.1043 20.7308 22.8923 20.5192 22.8923 20.3077C22.8923 19.6731 22.8923 18.8269 22.8923 18.1923V15.8654C22.8923 15.6538 22.8923 15.4423 23.1043 15.4423C23.3163 15.4423 23.5282 15.4423 23.5282 15.6538V15.8654C23.7402 17.3461 23.7402 18.8269 23.7402 20.3077Z" fill="url(#paint3_linear_1_77)"/>
</g>
<defs>
<linearGradient id="paint0_linear_1_77" x1="34.0629" y1="16.7437" x2="12.6756" y2="16.7437" gradientUnits="userSpaceOnUse">
<stop stop-color="#EA3D3D"/>
<stop offset="1" stop-color="#FC5454"/>
</linearGradient>
<linearGradient id="paint1_linear_1_77" x1="25.987" y1="18.1737" x2="24.8267" y2="18.1737" gradientUnits="userSpaceOnUse">
<stop stop-color="#EA3D3D"/>
<stop offset="1" stop-color="#FC5454"/>
</linearGradient>
<linearGradient id="paint2_linear_1_77" x1="21.9075" y1="18.1754" x2="20.7423" y2="18.1754" gradientUnits="userSpaceOnUse">
<stop stop-color="#EA3D3D"/>
<stop offset="1" stop-color="#FC5454"/>
</linearGradient>
<linearGradient id="paint3_linear_1_77" x1="23.7601" y1="18.1711" x2="22.9686" y2="18.1711" gradientUnits="userSpaceOnUse">
<stop stop-color="#EA3D3D"/>
<stop offset="1" stop-color="#FC5454"/>
</linearGradient>
<clipPath id="clip0_1_77">
<rect width="124" height="33" fill="white"/>
</clipPath>
</defs>
</svg>
