<svg width="256" height="256" viewBox="0 0 256 256" fill="none" xmlns="http://www.w3.org/2000/svg">
<path opacity="0.1" d="M52.736 0H202.752C232.448 0 256 23.552 256 52.736V202.752C256 232.448 232.448 256 203.264 256H52.736C23.552 256 0 232.448 0 203.264V52.736C0 23.552 23.552 0 52.736 0Z" fill="#30C04F"/>
<path opacity="0.981" fill-rule="evenodd" clip-rule="evenodd" d="M39.4565 55.074C42.3524 54.926 45.2161 55.1128 48.0475 55.6342C51.1959 56.9152 53.1258 59.2185 53.8371 62.5444C54.0238 68.3949 54.0861 74.2468 54.0239 80.0999C105.943 80.0375 157.863 80.0999 209.782 80.2867C214.023 81.1939 216.7 83.7466 217.813 87.9439C218.062 114.34 218.062 140.735 217.813 167.13C216.7 171.328 214.023 173.88 209.782 174.788C189.115 174.974 168.446 175.037 147.778 174.974C147.84 178.463 147.778 181.949 147.591 185.433C146.927 186.969 145.868 188.152 144.416 188.981C133.918 189.413 123.397 189.6 112.854 189.542C102.31 189.6 91.7895 189.413 81.291 188.981C79.6785 188.117 78.6203 186.809 78.116 185.059C77.9293 181.7 77.8673 178.338 77.9293 174.974C69.9609 174.974 61.9923 174.974 54.0239 174.974C54.0861 182.819 54.0239 190.663 53.8371 198.506C52.7498 199.917 51.318 200.353 49.5416 199.814C48.9631 199.36 48.5273 198.8 48.2343 198.133C48.1098 153.186 47.9853 108.238 47.8608 63.2914C47.425 62.3576 46.7402 61.6728 45.8064 61.2371C43.5762 60.8377 41.3351 60.5265 39.083 60.3033C37.5237 58.4054 37.6482 56.6623 39.4565 55.074ZM93.6172 96.5349C110.451 96.1352 121.594 103.854 127.047 119.693C130.046 135.493 124.63 147.384 110.799 155.365C96.1889 161.382 83.5515 158.581 72.8867 146.96C63.6732 134.011 63.6732 121.063 72.8867 108.114C78.3835 101.663 85.2936 97.8033 93.6172 96.5349ZM168.322 96.5349C185.627 96.2316 196.77 104.324 201.752 120.814C204.139 135.45 199.097 146.718 186.624 154.617C172.073 161.469 159.187 159.165 147.965 147.707C139.552 136.6 138.432 124.772 144.603 112.223C150.14 103.386 158.046 98.1571 168.322 96.5349Z" fill="#30C04F"/>
<path opacity="0.948" fill-rule="evenodd" clip-rule="evenodd" d="M92.8701 103.632C94.521 103.849 95.7036 104.72 96.4185 106.246C97.8797 108.701 98.9379 111.316 99.5935 114.09C100.919 114.38 102.164 114.877 103.329 115.585C104.07 114.854 104.63 113.982 105.01 112.97C105.508 111.472 106.006 109.978 106.504 108.488C108.375 106.555 110.118 106.679 111.733 108.861C111.678 112.887 110.495 116.559 108.184 119.88C109.051 120.927 109.673 122.11 110.052 123.428C112.341 123.289 114.457 122.479 116.402 121.001C119.947 120.436 121.255 121.868 120.324 125.296C117.534 127.594 114.359 129.15 110.799 129.965C110.176 131.335 109.554 132.704 108.931 134.074C111.294 135.36 113.784 136.356 116.402 137.062C118.011 139.087 117.762 140.829 115.655 142.291C111.729 142.124 108.118 140.941 104.823 138.743C103.453 139.49 102.084 140.237 100.714 140.984C101.926 143.404 102.922 145.895 103.702 148.454C103.616 150.222 102.682 151.219 100.901 151.443C99.4836 151.272 98.4875 150.525 97.9126 149.201C96.426 146.608 95.3054 143.869 94.5509 140.984C93.2103 140.599 91.903 140.101 90.6289 139.49C90.1437 139.71 89.8326 140.084 89.6951 140.61C88.8827 142.8 88.0733 144.978 87.2672 147.147C84.7202 148.559 82.977 147.875 82.0379 145.093C82.6613 141.607 83.9063 138.37 85.7732 135.381C85.0967 134.091 84.474 132.783 83.9055 131.459C81.2707 132.121 78.7184 133.055 76.2483 134.261C75.0254 134.335 74.154 133.837 73.6337 132.767C73.3386 131.596 73.463 130.475 74.0072 129.405C76.8721 127.327 80.0471 125.896 83.532 125.109C83.9171 123.769 84.415 122.461 85.0261 121.187C84.2951 120.446 83.4237 119.886 82.4115 119.507C80.9133 119.008 79.4192 118.51 77.9292 118.012C76.8482 116.926 76.5371 115.619 76.9954 114.09C78.0065 112.77 79.3138 112.334 80.9174 112.783C83.9261 113.51 86.7275 114.693 89.3216 116.332C90.431 115.622 91.6135 115.061 92.8701 114.651C93.065 114.441 93.1894 114.192 93.2436 113.904C92.2343 111.516 91.2385 109.15 90.2554 106.807C90.2629 104.997 91.1347 103.938 92.8701 103.632Z" fill="#30C04F"/>
<path opacity="0.949" fill-rule="evenodd" clip-rule="evenodd" d="M167.574 103.632C168.998 103.875 170.056 104.622 170.749 105.873C172.235 108.462 173.355 111.201 174.111 114.09C175.452 114.476 176.759 114.973 178.033 115.585C179.461 112.976 180.706 110.299 181.768 107.554C184.245 106.617 185.863 107.426 186.624 109.982C185.855 113.472 184.61 116.772 182.889 119.88C183.717 121.057 184.215 122.364 184.383 123.802C187.079 122.858 189.756 121.862 192.414 120.814C195.197 121.422 195.944 123.041 194.655 125.67C191.737 127.657 188.562 129.089 185.13 129.965C184.597 131.252 184.099 132.559 183.636 133.887C184.367 134.629 185.238 135.189 186.25 135.568C187.749 136.067 189.243 136.565 190.733 137.062C191.814 138.149 192.125 139.456 191.666 140.984C191.015 141.87 190.144 142.368 189.052 142.478C185.583 141.82 182.346 140.575 179.34 138.743C178.231 139.453 177.048 140.013 175.792 140.424C175.597 140.633 175.472 140.882 175.418 141.171C176.47 143.585 177.467 146.013 178.406 148.454C178.145 150.272 177.086 151.268 175.232 151.443C174.16 151.121 173.288 150.498 172.617 149.575C171.063 146.842 169.818 143.979 168.882 140.984C167.563 140.544 166.256 140.046 164.96 139.49C163.626 141.684 162.692 144.05 162.158 146.587C160.652 148.403 159.033 148.528 157.302 146.96C156.817 142.681 157.875 138.759 160.477 135.194C159.501 134.051 158.878 132.743 158.61 131.272C155.94 132.173 153.326 133.17 150.766 134.261C148.107 133.8 147.298 132.306 148.338 129.778C151.198 127.321 154.497 125.827 158.236 125.296C158.363 123.733 158.86 122.301 159.73 121.001C157.368 119.714 154.878 118.718 152.26 118.012C150.766 116.394 150.766 114.775 152.26 113.157C152.833 112.812 153.456 112.625 154.128 112.596C157.667 113.216 160.967 114.461 164.026 116.332C165.198 115.403 166.505 114.718 167.948 114.277C166.927 111.737 165.806 109.247 164.586 106.807C164.911 105.051 165.907 103.993 167.574 103.632Z" fill="#30C04F"/>
</svg>
