<svg width="144" height="38" viewBox="0 0 144 38" fill="none" xmlns="http://www.w3.org/2000/svg">
<rect opacity="0.15" width="144" height="38" rx="10" fill="#5179F8"/>
<path d="M16.374 24H13.0224V14.5455H16.4017C17.3527 14.5455 18.1713 14.7347 18.8576 15.1133C19.544 15.4888 20.0718 16.0289 20.4411 16.7337C20.8135 17.4384 20.9997 18.2817 20.9997 19.2635C20.9997 20.2483 20.8135 21.0947 20.4411 21.8026C20.0718 22.5104 19.5409 23.0536 18.8484 23.4322C18.159 23.8107 17.3342 24 16.374 24ZM15.0214 22.2873H16.2909C16.8818 22.2873 17.3788 22.1826 17.782 21.9734C18.1883 21.761 18.4929 21.4332 18.6961 20.9901C18.9023 20.5438 19.0054 19.9683 19.0054 19.2635C19.0054 18.5649 18.9023 17.994 18.6961 17.5508C18.4929 17.1076 18.1898 16.7814 17.7866 16.5721C17.3834 16.3628 16.8864 16.2582 16.2955 16.2582H15.0214V22.2873ZM25.6473 24.1385C24.9302 24.1385 24.3101 23.9862 23.7869 23.6815C23.2668 23.3737 22.8651 22.9459 22.582 22.3981C22.2988 21.8472 22.1573 21.2086 22.1573 20.4822C22.1573 19.7498 22.2988 19.1096 22.582 18.5618C22.8651 18.0109 23.2668 17.5831 23.7869 17.2784C24.3101 16.9706 24.9302 16.8168 25.6473 16.8168C26.3644 16.8168 26.983 16.9706 27.5032 17.2784C28.0264 17.5831 28.4295 18.0109 28.7127 18.5618C28.9958 19.1096 29.1374 19.7498 29.1374 20.4822C29.1374 21.2086 28.9958 21.8472 28.7127 22.3981C28.4295 22.9459 28.0264 23.3737 27.5032 23.6815C26.983 23.9862 26.3644 24.1385 25.6473 24.1385ZM25.6566 22.6151C25.9828 22.6151 26.2552 22.5227 26.4737 22.3381C26.6922 22.1503 26.8568 21.8949 26.9676 21.5717C27.0815 21.2486 27.1385 20.8808 27.1385 20.4684C27.1385 20.056 27.0815 19.6882 26.9676 19.3651C26.8568 19.0419 26.6922 18.7865 26.4737 18.5987C26.2552 18.411 25.9828 18.3171 25.6566 18.3171C25.3273 18.3171 25.0503 18.411 24.8256 18.5987C24.604 18.7865 24.4363 19.0419 24.3224 19.3651C24.2116 19.6882 24.1562 20.056 24.1562 20.4684C24.1562 20.8808 24.2116 21.2486 24.3224 21.5717C24.4363 21.8949 24.604 22.1503 24.8256 22.3381C25.0503 22.5227 25.3273 22.6151 25.6566 22.6151ZM33.62 24.1385C32.8937 24.1385 32.2689 23.9846 31.7457 23.6768C31.2256 23.366 30.8255 22.9351 30.5454 22.3842C30.2684 21.8333 30.1299 21.1993 30.1299 20.4822C30.1299 19.7559 30.27 19.1188 30.55 18.571C30.8332 18.0201 31.2348 17.5908 31.7549 17.283C32.2751 16.9722 32.8937 16.8168 33.6108 16.8168C34.2294 16.8168 34.771 16.9291 35.2358 17.1538C35.7005 17.3784 36.0683 17.6939 36.3391 18.1001C36.6099 18.5064 36.7592 18.9834 36.7869 19.5312H34.9311C34.8787 19.1773 34.7402 18.8926 34.5156 18.6772C34.294 18.4587 34.0032 18.3494 33.6431 18.3494C33.3384 18.3494 33.0722 18.4325 32.8444 18.5987C32.6197 18.7618 32.4443 19.0004 32.3181 19.3143C32.192 19.6282 32.1289 20.0083 32.1289 20.4545C32.1289 20.907 32.1904 21.2917 32.3135 21.6087C32.4397 21.9257 32.6167 22.1673 32.8444 22.3335C33.0722 22.4996 33.3384 22.5827 33.6431 22.5827C33.8677 22.5827 34.0693 22.5366 34.2478 22.4442C34.4294 22.3519 34.5787 22.218 34.6956 22.0426C34.8157 21.8641 34.8941 21.6502 34.9311 21.4009H36.7869C36.7561 21.9426 36.6084 22.4196 36.3437 22.832C36.0821 23.2414 35.7205 23.5614 35.2588 23.7923C34.7972 24.0231 34.2509 24.1385 33.62 24.1385ZM42.5933 20.9808V16.9091H44.5599V24H42.6717V22.712H42.5979C42.4378 23.1275 42.1716 23.4614 41.7992 23.7138C41.4299 23.9661 40.979 24.0923 40.4466 24.0923C39.9726 24.0923 39.5556 23.9846 39.1955 23.7692C38.8354 23.5537 38.5538 23.2475 38.3507 22.8505C38.1507 22.4535 38.0491 21.978 38.046 21.424V16.9091H40.0127V21.0732C40.0157 21.4917 40.1281 21.8226 40.3497 22.0657C40.5712 22.3088 40.8682 22.4304 41.2406 22.4304C41.4776 22.4304 41.6992 22.3765 41.9054 22.2688C42.1116 22.158 42.2778 21.9949 42.404 21.7795C42.5332 21.564 42.5963 21.2978 42.5933 20.9808ZM46.1329 24V16.9091H48.0072V18.1602H48.0903C48.2381 17.7447 48.4843 17.4169 48.829 17.1768C49.1737 16.9368 49.5861 16.8168 50.0662 16.8168C50.5525 16.8168 50.9664 16.9383 51.308 17.1815C51.6496 17.4215 51.8774 17.7478 51.9913 18.1602H52.0651C52.2098 17.7539 52.4714 17.4292 52.8499 17.1861C53.2315 16.9399 53.6824 16.8168 54.2025 16.8168C54.8642 16.8168 55.4013 17.0276 55.8137 17.4492C56.2292 17.8678 56.4369 18.4618 56.4369 19.2312V24H54.4749V19.619C54.4749 19.225 54.3703 18.9296 54.161 18.7326C53.9517 18.5356 53.6901 18.4371 53.3762 18.4371C53.0192 18.4371 52.7407 18.551 52.5406 18.7788C52.3406 19.0034 52.2405 19.3004 52.2405 19.6697V24H50.3339V19.5774C50.3339 19.2296 50.2339 18.9527 50.0339 18.7464C49.8369 18.5402 49.5768 18.4371 49.2537 18.4371C49.0352 18.4371 48.8382 18.4925 48.6628 18.6033C48.4904 18.7111 48.3535 18.8634 48.2519 19.0604C48.1503 19.2543 48.0996 19.482 48.0996 19.7436V24H46.1329ZM61.2219 24.1385C60.4925 24.1385 59.8647 23.9908 59.3384 23.6953C58.8152 23.3968 58.412 22.9751 58.1289 22.4304C57.8457 21.8826 57.7041 21.2347 57.7041 20.4869C57.7041 19.7575 57.8457 19.1173 58.1289 18.5664C58.412 18.0155 58.8106 17.5862 59.3245 17.2784C59.8416 16.9706 60.4479 16.8168 61.1434 16.8168C61.6112 16.8168 62.0467 16.8922 62.4499 17.043C62.8561 17.1907 63.2101 17.4138 63.5117 17.7124C63.8164 18.0109 64.0533 18.3864 64.2226 18.8388C64.3919 19.2881 64.4765 19.8144 64.4765 20.4176V20.9577H58.4889V19.739H62.6253C62.6253 19.4558 62.5638 19.205 62.4407 18.9865C62.3175 18.768 62.1467 18.5972 61.9282 18.4741C61.7128 18.3479 61.462 18.2848 61.1757 18.2848C60.8772 18.2848 60.6125 18.354 60.3817 18.4925C60.154 18.628 59.9755 18.8111 59.8462 19.0419C59.7169 19.2696 59.6508 19.5236 59.6477 19.8036V20.9624C59.6477 21.3132 59.7123 21.6164 59.8416 21.8718C59.9739 22.1272 60.1601 22.3242 60.4002 22.4627C60.6402 22.6012 60.9249 22.6705 61.2542 22.6705C61.4727 22.6705 61.6728 22.6397 61.8544 22.5781C62.0359 22.5166 62.1914 22.4242 62.3206 22.3011C62.4499 22.178 62.5484 22.0272 62.6161 21.8487L64.435 21.9688C64.3426 22.4058 64.1534 22.7874 63.8671 23.1136C63.584 23.4368 63.2178 23.6892 62.7684 23.8707C62.3222 24.0492 61.8067 24.1385 61.2219 24.1385ZM67.7265 19.9006V24H65.7599V16.9091H67.6342V18.1602H67.7173C67.8742 17.7478 68.1374 17.4215 68.5067 17.1815C68.876 16.9383 69.3238 16.8168 69.8501 16.8168C70.3425 16.8168 70.7719 16.9245 71.1381 17.1399C71.5043 17.3554 71.789 17.6631 71.9921 18.0632C72.1953 18.4602 72.2968 18.9342 72.2968 19.4851V24H70.3302V19.8359C70.3333 19.402 70.2225 19.0634 69.9978 18.8203C69.7732 18.5741 69.4639 18.451 69.0699 18.451C68.8052 18.451 68.5713 18.5079 68.3682 18.6218C68.1682 18.7357 68.0112 18.9019 67.8973 19.1204C67.7865 19.3358 67.7296 19.5959 67.7265 19.9006ZM77.6185 16.9091V18.3864H73.3482V16.9091H77.6185ZM74.3177 15.2102H76.2843V21.821C76.2843 22.0026 76.312 22.1442 76.3674 22.2457C76.4228 22.3442 76.4997 22.4135 76.5982 22.4535C76.6998 22.4935 76.8167 22.5135 76.9491 22.5135C77.0414 22.5135 77.1337 22.5058 77.2261 22.4904C77.3184 22.4719 77.3892 22.4581 77.4384 22.4489L77.7477 23.9123C77.6493 23.9431 77.5108 23.9785 77.3323 24.0185C77.1537 24.0616 76.9368 24.0877 76.6813 24.0969C76.2074 24.1154 75.7919 24.0523 75.4349 23.9077C75.081 23.763 74.8055 23.5384 74.6085 23.2337C74.4116 22.929 74.3146 22.5443 74.3177 22.0795V15.2102ZM80.9216 24.1339C80.4691 24.1339 80.066 24.0554 79.712 23.8984C79.3581 23.7384 79.0781 23.503 78.8718 23.1921C78.6687 22.8782 78.5672 22.4873 78.5672 22.0195C78.5672 21.6256 78.6395 21.2947 78.7841 21.027C78.9288 20.7592 79.1258 20.5438 79.375 20.3807C79.6243 20.2176 79.9075 20.0945 80.2245 20.0114C80.5446 19.9283 80.88 19.8698 81.2309 19.8359C81.6433 19.7929 81.9757 19.7528 82.228 19.7159C82.4804 19.6759 82.6635 19.6174 82.7774 19.5405C82.8913 19.4635 82.9482 19.3497 82.9482 19.1989V19.1712C82.9482 18.8788 82.8559 18.6526 82.6712 18.4925C82.4896 18.3325 82.2311 18.2525 81.8956 18.2525C81.5417 18.2525 81.2601 18.331 81.0508 18.4879C80.8415 18.6418 80.7031 18.8357 80.6353 19.0696L78.8165 18.9219C78.9088 18.491 79.0904 18.1186 79.3612 17.8047C79.632 17.4877 79.9813 17.2446 80.4091 17.0753C80.84 16.9029 81.3386 16.8168 81.9049 16.8168C82.2988 16.8168 82.6758 16.8629 83.0359 16.9553C83.3991 17.0476 83.7207 17.1907 84.0008 17.3846C84.2839 17.5785 84.507 17.8278 84.6701 18.1325C84.8333 18.4341 84.9148 18.7957 84.9148 19.2173V24H83.0498V23.0167H82.9944C82.8805 23.2383 82.7281 23.4337 82.5373 23.603C82.3465 23.7692 82.1172 23.9 81.8495 23.9954C81.5817 24.0877 81.2724 24.1339 80.9216 24.1339ZM81.4848 22.7766C81.7741 22.7766 82.0295 22.7197 82.2511 22.6058C82.4727 22.4889 82.6466 22.3319 82.7728 22.1349C82.899 21.938 82.962 21.7148 82.962 21.4656V20.7131C82.9005 20.7531 82.8159 20.79 82.7081 20.8239C82.6035 20.8546 82.485 20.8839 82.3527 20.9116C82.2203 20.9362 82.088 20.9593 81.9557 20.9808C81.8233 20.9993 81.7033 21.0162 81.5956 21.0316C81.3647 21.0655 81.1632 21.1193 80.9908 21.1932C80.8185 21.267 80.6846 21.3671 80.5892 21.4933C80.4938 21.6164 80.4461 21.7702 80.4461 21.9549C80.4461 22.2227 80.543 22.4273 80.7369 22.5689C80.9339 22.7074 81.1832 22.7766 81.4848 22.7766ZM89.6444 24.1385C88.9181 24.1385 88.2933 23.9846 87.7701 23.6768C87.25 23.366 86.8499 22.9351 86.5698 22.3842C86.2928 21.8333 86.1543 21.1993 86.1543 20.4822C86.1543 19.7559 86.2944 19.1188 86.5744 18.571C86.8576 18.0201 87.2592 17.5908 87.7793 17.283C88.2995 16.9722 88.9181 16.8168 89.6352 16.8168C90.2538 16.8168 90.7954 16.9291 91.2602 17.1538C91.7249 17.3784 92.0927 17.6939 92.3635 18.1001C92.6343 18.5064 92.7836 18.9834 92.8113 19.5312H90.9555C90.9032 19.1773 90.7647 18.8926 90.54 18.6772C90.3184 18.4587 90.0276 18.3494 89.6675 18.3494C89.3628 18.3494 89.0966 18.4325 88.8688 18.5987C88.6442 18.7618 88.4687 19.0004 88.3426 19.3143C88.2164 19.6282 88.1533 20.0083 88.1533 20.4545C88.1533 20.907 88.2148 21.2917 88.3379 21.6087C88.4641 21.9257 88.6411 22.1673 88.8688 22.3335C89.0966 22.4996 89.3628 22.5827 89.6675 22.5827C89.8921 22.5827 90.0937 22.5366 90.2722 22.4442C90.4538 22.3519 90.6031 22.218 90.72 22.0426C90.8401 21.8641 90.9185 21.6502 90.9555 21.4009H92.8113C92.7805 21.9426 92.6328 22.4196 92.3681 22.832C92.1065 23.2414 91.7449 23.5614 91.2832 23.7923C90.8216 24.0231 90.2753 24.1385 89.6444 24.1385ZM89.1828 23.9631H90.0876L90.0137 24.3647C90.3307 24.4139 90.5892 24.5324 90.7893 24.7202C90.9924 24.9079 91.0955 25.1634 91.0986 25.4865C91.1017 25.9451 90.8893 26.3098 90.4615 26.5806C90.0337 26.8545 89.4336 26.9915 88.6611 26.9915L88.6426 26.1143C89.0304 26.1143 89.3336 26.0666 89.5521 25.9712C89.7737 25.8789 89.8891 25.7343 89.8983 25.5373C89.9045 25.3496 89.8321 25.2064 89.6813 25.108C89.5305 25.0095 89.2951 24.9402 88.975 24.9002L89.1828 23.9631ZM96.0925 24.1339C95.64 24.1339 95.2369 24.0554 94.8829 23.8984C94.529 23.7384 94.2489 23.503 94.0427 23.1921C93.8396 22.8782 93.7381 22.4873 93.7381 22.0195C93.7381 21.6256 93.8104 21.2947 93.955 21.027C94.0997 20.7592 94.2967 20.5438 94.5459 20.3807C94.7952 20.2176 95.0784 20.0945 95.3954 20.0114C95.7155 19.9283 96.0509 19.8698 96.4018 19.8359C96.8142 19.7929 97.1466 19.7528 97.3989 19.7159C97.6513 19.6759 97.8344 19.6174 97.9483 19.5405C98.0622 19.4635 98.1191 19.3497 98.1191 19.1989V19.1712C98.1191 18.8788 98.0268 18.6526 97.8421 18.4925C97.6605 18.3325 97.402 18.2525 97.0665 18.2525C96.7126 18.2525 96.431 18.331 96.2217 18.4879C96.0124 18.6418 95.8739 18.8357 95.8062 19.0696L93.9873 18.9219C94.0797 18.491 94.2613 18.1186 94.5321 17.8047C94.8029 17.4877 95.1522 17.2446 95.58 17.0753C96.0109 16.9029 96.5095 16.8168 97.0758 16.8168C97.4697 16.8168 97.8467 16.8629 98.2068 16.9553C98.57 17.0476 98.8916 17.1907 99.1717 17.3846C99.4548 17.5785 99.6779 17.8278 99.841 18.1325C100.004 18.4341 100.086 18.7957 100.086 19.2173V24H98.2207V23.0167H98.1653C98.0514 23.2383 97.899 23.4337 97.7082 23.603C97.5174 23.7692 97.2881 23.9 97.0204 23.9954C96.7526 24.0877 96.4433 24.1339 96.0925 24.1339ZM96.6557 22.7766C96.945 22.7766 97.2004 22.7197 97.422 22.6058C97.6436 22.4889 97.8175 22.3319 97.9437 22.1349C98.0699 21.938 98.1329 21.7148 98.1329 21.4656V20.7131C98.0714 20.7531 97.9868 20.79 97.879 20.8239C97.7744 20.8546 97.6559 20.8839 97.5236 20.9116C97.3912 20.9362 97.2589 20.9593 97.1266 20.9808C96.9942 20.9993 96.8742 21.0162 96.7665 21.0316C96.5356 21.0655 96.3341 21.1193 96.1617 21.1932C95.9894 21.267 95.8555 21.3671 95.7601 21.4933C95.6647 21.6164 95.617 21.7702 95.617 21.9549C95.617 22.2227 95.7139 22.4273 95.9078 22.5689C96.1048 22.7074 96.3541 22.7766 96.6557 22.7766ZM95.8293 16.0366L94.7352 16.0227C94.7352 15.4349 94.8799 14.984 95.1692 14.6701C95.4615 14.3562 95.817 14.1977 96.2356 14.1946C96.451 14.1946 96.6357 14.23 96.7896 14.3008C96.9465 14.3685 97.0865 14.4485 97.2097 14.5408C97.3358 14.6332 97.4559 14.7147 97.5697 14.7855C97.6836 14.8532 97.8067 14.8871 97.9391 14.8871C98.1176 14.884 98.253 14.8178 98.3453 14.6886C98.4407 14.5562 98.4884 14.3839 98.4884 14.1715L99.5641 14.2038C99.5579 14.7855 99.4102 15.2348 99.1209 15.5518C98.8316 15.8658 98.4792 16.0243 98.0637 16.0273C97.8329 16.0273 97.639 15.9935 97.482 15.9258C97.3281 15.855 97.1927 15.775 97.0758 15.6857C96.9588 15.5934 96.8449 15.5118 96.7342 15.4411C96.6234 15.3703 96.4987 15.3349 96.3602 15.3349C96.2002 15.3349 96.0709 15.398 95.9724 15.5241C95.877 15.6503 95.8293 15.8211 95.8293 16.0366ZM104.815 24.1385C104.098 24.1385 103.478 23.9862 102.955 23.6815C102.435 23.3737 102.033 22.9459 101.75 22.3981C101.467 21.8472 101.325 21.2086 101.325 20.4822C101.325 19.7498 101.467 19.1096 101.75 18.5618C102.033 18.0109 102.435 17.5831 102.955 17.2784C103.478 16.9706 104.098 16.8168 104.815 16.8168C105.532 16.8168 106.151 16.9706 106.671 17.2784C107.194 17.5831 107.597 18.0109 107.881 18.5618C108.164 19.1096 108.305 19.7498 108.305 20.4822C108.305 21.2086 108.164 21.8472 107.881 22.3981C107.597 22.9459 107.194 23.3737 106.671 23.6815C106.151 23.9862 105.532 24.1385 104.815 24.1385ZM104.825 22.6151C105.151 22.6151 105.423 22.5227 105.642 22.3381C105.86 22.1503 106.025 21.8949 106.136 21.5717C106.249 21.2486 106.306 20.8808 106.306 20.4684C106.306 20.056 106.249 19.6882 106.136 19.3651C106.025 19.0419 105.86 18.7865 105.642 18.5987C105.423 18.411 105.151 18.3171 104.825 18.3171C104.495 18.3171 104.218 18.411 103.994 18.5987C103.772 18.7865 103.604 19.0419 103.49 19.3651C103.38 19.6882 103.324 20.056 103.324 20.4684C103.324 20.8808 103.38 21.2486 103.49 21.5717C103.604 21.8949 103.772 22.1503 103.994 22.3381C104.218 22.5227 104.495 22.6151 104.825 22.6151Z" fill="#5179F8"/>
<path d="M122.955 26.4996C122.276 25.7997 122.361 24.8217 123.185 23.985C124.629 22.5167 126.079 21.0538 127.526 19.5872C127.7 19.4107 127.865 19.2249 128.095 18.9786C126.433 17.2998 124.835 15.6891 123.241 14.0749C122.354 13.1774 122.26 12.1823 122.987 11.47C123.716 10.7548 124.61 10.8575 125.509 11.7671C127.445 13.7249 129.382 15.6825 131.313 17.6452C132.224 18.5718 132.229 19.4243 131.326 20.3428C129.366 22.3361 127.401 24.3246 125.434 26.3104C124.592 27.1606 123.659 27.2258 122.955 26.4996Z" fill="#5179F8"/>
<path opacity="0.5" d="M116.448 26.5397C115.81 25.8671 115.852 24.8986 116.583 24.1093C117.984 22.5965 119.399 21.0987 120.806 19.5922C120.97 19.416 121.121 19.2248 121.313 18.9996C121.12 18.7746 120.968 18.5843 120.804 18.4077C119.397 16.9014 117.981 15.4038 116.581 13.8907C115.851 13.1021 115.811 12.1339 116.449 11.4595C117.083 10.7891 117.978 10.8532 118.725 11.646C120.617 13.6568 122.506 15.6718 124.389 17.6929C125.203 18.567 125.204 19.4341 124.389 20.3086C122.506 22.3296 120.618 24.3446 118.725 26.3552C117.979 27.1475 117.083 27.2104 116.448 26.5397Z" fill="#5179F8"/>
</svg>
