<svg width="269" height="49" viewBox="0 0 269 49" fill="none" xmlns="http://www.w3.org/2000/svg">
<rect opacity="0.2" y="8" width="269" height="32" rx="5" fill="#F51770"/>
<path d="M19.4602 32H13.5305V15.2727H19.5092C21.1917 15.2727 22.6401 15.6076 23.8544 16.2773C25.0686 16.9416 26.0024 17.8973 26.6559 19.1442C27.3147 20.3911 27.6441 21.883 27.6441 23.62C27.6441 25.3625 27.3147 26.8598 26.6559 28.1122C26.0024 29.3646 25.0632 30.3256 23.838 30.9954C22.6183 31.6651 21.159 32 19.4602 32ZM17.0671 28.9698H19.3132C20.3586 28.9698 21.238 28.7847 21.9513 28.4144C22.6701 28.0387 23.2091 27.4588 23.5685 26.6747C23.9333 25.8852 24.1157 24.867 24.1157 23.62C24.1157 22.384 23.9333 21.3739 23.5685 20.5898C23.2091 19.8058 22.6728 19.2286 21.9595 18.8583C21.2462 18.488 20.3668 18.3029 19.3213 18.3029H17.0671V28.9698ZM35.8669 32.245C34.5982 32.245 33.501 31.9755 32.5753 31.4364C31.6551 30.8919 30.9445 30.1351 30.4436 29.1658C29.9426 28.1912 29.6922 27.0613 29.6922 25.7763C29.6922 24.4804 29.9426 23.3478 30.4436 22.3786C30.9445 21.4039 31.6551 20.647 32.5753 20.108C33.501 19.5634 34.5982 19.2912 35.8669 19.2912C37.1356 19.2912 38.23 19.5634 39.1503 20.108C40.0759 20.647 40.7892 21.4039 41.2902 22.3786C41.7911 23.3478 42.0416 24.4804 42.0416 25.7763C42.0416 27.0613 41.7911 28.1912 41.2902 29.1658C40.7892 30.1351 40.0759 30.8919 39.1503 31.4364C38.23 31.9755 37.1356 32.245 35.8669 32.245ZM35.8832 29.5497C36.4604 29.5497 36.9423 29.3864 37.3289 29.0597C37.7155 28.7275 38.0068 28.2756 38.2028 27.7038C38.4043 27.1321 38.505 26.4814 38.505 25.7518C38.505 25.0221 38.4043 24.3714 38.2028 23.7997C38.0068 23.228 37.7155 22.776 37.3289 22.4439C36.9423 22.1117 36.4604 21.9457 35.8832 21.9457C35.3006 21.9457 34.8105 22.1117 34.413 22.4439C34.021 22.776 33.7242 23.228 33.5228 23.7997C33.3267 24.3714 33.2287 25.0221 33.2287 25.7518C33.2287 26.4814 33.3267 27.1321 33.5228 27.7038C33.7242 28.2756 34.021 28.7275 34.413 29.0597C34.8105 29.3864 35.3006 29.5497 35.8832 29.5497ZM49.9723 32.245C48.6873 32.245 47.582 31.9728 46.6563 31.4283C45.7361 30.8783 45.0282 30.116 44.5327 29.1413C44.0427 28.1667 43.7976 27.045 43.7976 25.7763C43.7976 24.4912 44.0454 23.3641 44.5409 22.3949C45.0418 21.4202 45.7524 20.6606 46.6726 20.1161C47.5928 19.5662 48.6873 19.2912 49.956 19.2912C51.0505 19.2912 52.0088 19.4899 52.831 19.8874C53.6532 20.2849 54.3039 20.843 54.7831 21.5618C55.2622 22.2805 55.5263 23.1245 55.5753 24.0938H52.2919C52.1994 23.4676 51.9544 22.9639 51.5569 22.5827C51.1648 22.1961 50.6503 22.0028 50.0132 22.0028C49.4741 22.0028 49.0031 22.1499 48.6002 22.4439C48.2027 22.7325 47.8923 23.1545 47.6691 23.7099C47.4458 24.2653 47.3342 24.9377 47.3342 25.7273C47.3342 26.5277 47.4431 27.2083 47.6609 27.7692C47.8842 28.33 48.1973 28.7575 48.6002 29.0515C49.0031 29.3455 49.4741 29.4925 50.0132 29.4925C50.4107 29.4925 50.7673 29.4109 51.0831 29.2475C51.4044 29.0842 51.6685 28.8473 51.8754 28.5369C52.0878 28.2211 52.2266 27.8427 52.2919 27.4016H55.5753C55.5209 28.36 55.2595 29.204 54.7912 29.9336C54.3284 30.6578 53.6886 31.2241 52.8718 31.6325C52.0551 32.0408 51.0886 32.245 49.9723 32.245ZM65.8481 26.6584V19.4545H69.3275V32H65.987V29.7212H65.8563C65.5732 30.4563 65.1022 31.0471 64.4433 31.4936C63.7899 31.9401 62.9922 32.1634 62.0502 32.1634C61.2117 32.1634 60.4739 31.9728 59.8368 31.5916C59.1997 31.2105 58.7015 30.6687 58.3421 29.9663C57.9882 29.2638 57.8085 28.4226 57.803 27.4425V19.4545H61.2824V26.8217C61.2879 27.5623 61.4866 28.1476 61.8787 28.5778C62.2707 29.0079 62.7962 29.223 63.455 29.223C63.8743 29.223 64.2664 29.1277 64.6312 28.9371C64.996 28.7411 65.29 28.4525 65.5133 28.0714C65.742 27.6902 65.8536 27.2192 65.8481 26.6584ZM72.1107 32V19.4545H75.4267V21.668H75.5737C75.8351 20.9329 76.2707 20.353 76.8805 19.9283C77.4904 19.5036 78.22 19.2912 79.0695 19.2912C79.9298 19.2912 80.6622 19.5063 81.2666 19.9364C81.871 20.3611 82.2739 20.9383 82.4754 21.668H82.606C82.862 20.9492 83.3248 20.3748 83.9945 19.9446C84.6697 19.509 85.4674 19.2912 86.3877 19.2912C87.5583 19.2912 88.5085 19.6642 89.2381 20.4102C89.9732 21.1507 90.3408 22.2016 90.3408 23.5629V32H86.8695V24.2489C86.8695 23.552 86.6844 23.0292 86.3141 22.6808C85.9439 22.3323 85.481 22.158 84.9256 22.158C84.294 22.158 83.8012 22.3595 83.4473 22.7624C83.0934 23.1599 82.9164 23.6854 82.9164 24.3388V32H79.5432V24.1754C79.5432 23.5601 79.3662 23.0701 79.0123 22.7053C78.6638 22.3404 78.2037 22.158 77.632 22.158C77.2454 22.158 76.8969 22.256 76.5865 22.4521C76.2816 22.6426 76.0393 22.9122 75.8596 23.2607C75.6799 23.6037 75.5901 24.0066 75.5901 24.4695V32H72.1107ZM98.8065 32.245C97.516 32.245 96.4052 31.9837 95.4741 31.4609C94.5485 30.9328 93.8352 30.1868 93.3342 29.223C92.8333 28.2538 92.5828 27.1076 92.5828 25.7844C92.5828 24.494 92.8333 23.3614 93.3342 22.3867C93.8352 21.4121 94.5403 20.6525 95.4496 20.108C96.3644 19.5634 97.4371 19.2912 98.6677 19.2912C99.4953 19.2912 100.266 19.4246 100.979 19.6914C101.698 19.9528 102.324 20.3475 102.858 20.8757C103.397 21.4039 103.816 22.0682 104.115 22.8686C104.415 23.6636 104.565 24.5947 104.565 25.6619V26.6175H93.9713V24.4613H101.289C101.289 23.9603 101.181 23.5166 100.963 23.13C100.745 22.7434 100.443 22.4412 100.056 22.2234C99.675 22.0001 99.2312 21.8885 98.7248 21.8885C98.1967 21.8885 97.7284 22.011 97.32 22.256C96.9171 22.4956 96.6013 22.8196 96.3726 23.228C96.1439 23.6309 96.0268 24.0801 96.0214 24.5756V26.6257C96.0214 27.2464 96.1357 27.7828 96.3644 28.2347C96.5985 28.6867 96.928 29.0352 97.3527 29.2802C97.7774 29.5252 98.2811 29.6477 98.8637 29.6477C99.2503 29.6477 99.6042 29.5933 99.9255 29.4844C100.247 29.3755 100.522 29.2121 100.75 28.9943C100.979 28.7765 101.153 28.5097 101.273 28.1939L104.491 28.4062C104.328 29.1795 103.993 29.8546 103.487 30.4318C102.986 31.0036 102.338 31.45 101.543 31.7713C100.753 32.0871 99.8411 32.245 98.8065 32.245ZM110.315 24.7472V32H106.835V19.4545H110.151V21.668H110.298C110.576 20.9383 111.042 20.3611 111.695 19.9364C112.348 19.5063 113.141 19.2912 114.072 19.2912C114.943 19.2912 115.703 19.4818 116.351 19.8629C116.999 20.2441 117.502 20.7886 117.862 21.4964C118.221 22.1989 118.401 23.0374 118.401 24.0121V32H114.921V24.6328C114.927 23.8651 114.731 23.2661 114.333 22.8359C113.936 22.4003 113.388 22.1825 112.691 22.1825C112.223 22.1825 111.809 22.2833 111.45 22.4847C111.096 22.6862 110.818 22.9802 110.617 23.3668C110.421 23.748 110.32 24.2081 110.315 24.7472ZM127.816 19.4545V22.0682H120.261V19.4545H127.816ZM121.976 16.4489H125.455V28.1449C125.455 28.4661 125.504 28.7166 125.602 28.8963C125.7 29.0705 125.837 29.1931 126.011 29.2638C126.19 29.3346 126.397 29.37 126.632 29.37C126.795 29.37 126.958 29.3564 127.122 29.3292C127.285 29.2965 127.41 29.272 127.497 29.2557L128.045 31.8448C127.87 31.8993 127.625 31.9619 127.309 32.0327C126.994 32.1089 126.61 32.1552 126.158 32.1715C125.319 32.2042 124.584 32.0926 123.953 31.8366C123.326 31.5807 122.839 31.1832 122.491 30.6442C122.142 30.1051 121.971 29.4245 121.976 28.6023V16.4489ZM133.66 32.2369C132.859 32.2369 132.146 32.098 131.52 31.8203C130.894 31.5372 130.398 31.1206 130.033 30.5707C129.674 30.0153 129.494 29.3237 129.494 28.4961C129.494 27.7991 129.622 27.2138 129.878 26.7401C130.134 26.2663 130.483 25.8852 130.924 25.5966C131.365 25.308 131.866 25.0902 132.426 24.9432C132.993 24.7962 133.586 24.6927 134.207 24.6328C134.937 24.5566 135.525 24.4858 135.971 24.4205C136.418 24.3497 136.742 24.2462 136.943 24.1101C137.145 23.974 137.245 23.7725 137.245 23.5057V23.4567C137.245 22.9394 137.082 22.5392 136.755 22.256C136.434 21.9729 135.977 21.8313 135.383 21.8313C134.757 21.8313 134.259 21.9702 133.888 22.2479C133.518 22.5201 133.273 22.8632 133.153 23.277L129.935 23.0156C130.099 22.2533 130.42 21.5945 130.899 21.0391C131.378 20.4782 131.996 20.0481 132.753 19.7486C133.515 19.4437 134.398 19.2912 135.399 19.2912C136.096 19.2912 136.763 19.3729 137.401 19.5362C138.043 19.6996 138.612 19.9528 139.108 20.2958C139.609 20.6388 140.003 21.0799 140.292 21.619C140.58 22.1526 140.725 22.7924 140.725 23.5384V32H137.425V30.2603H137.327C137.126 30.6523 136.856 30.9981 136.518 31.2976C136.181 31.5916 135.775 31.823 135.301 31.9918C134.828 32.1552 134.28 32.2369 133.66 32.2369ZM134.656 29.8356C135.168 29.8356 135.62 29.7348 136.012 29.5334C136.404 29.3265 136.712 29.0488 136.935 28.7003C137.158 28.3518 137.27 27.957 137.27 27.516V26.1847C137.161 26.2554 137.011 26.3208 136.821 26.3807C136.635 26.4351 136.426 26.4869 136.192 26.5359C135.958 26.5794 135.723 26.6203 135.489 26.6584C135.255 26.6911 135.043 26.721 134.852 26.7482C134.444 26.8081 134.087 26.9034 133.782 27.0341C133.477 27.1648 133.24 27.3417 133.072 27.565C132.903 27.7828 132.818 28.055 132.818 28.3817C132.818 28.8555 132.99 29.2176 133.333 29.468C133.682 29.7131 134.123 29.8356 134.656 29.8356ZM149.092 32.245C147.807 32.245 146.702 31.9728 145.776 31.4283C144.856 30.8783 144.148 30.116 143.653 29.1413C143.163 28.1667 142.918 27.045 142.918 25.7763C142.918 24.4912 143.165 23.3641 143.661 22.3949C144.162 21.4202 144.873 20.6606 145.793 20.1161C146.713 19.5662 147.807 19.2912 149.076 19.2912C150.171 19.2912 151.129 19.4899 151.951 19.8874C152.773 20.2849 153.424 20.843 153.903 21.5618C154.382 22.2805 154.646 23.1245 154.695 24.0938H151.412C151.319 23.4676 151.074 22.9639 150.677 22.5827C150.285 22.1961 149.77 22.0028 149.133 22.0028C148.594 22.0028 148.123 22.1499 147.72 22.4439C147.323 22.7325 147.012 23.1545 146.789 23.7099C146.566 24.2653 146.454 24.9377 146.454 25.7273C146.454 26.5277 146.563 27.2083 146.781 27.7692C147.004 28.33 147.317 28.7575 147.72 29.0515C148.123 29.3455 148.594 29.4925 149.133 29.4925C149.531 29.4925 149.887 29.4109 150.203 29.2475C150.525 29.0842 150.789 28.8473 150.996 28.5369C151.208 28.2211 151.347 27.8427 151.412 27.4016H154.695C154.641 28.36 154.38 29.204 153.911 29.9336C153.449 30.6578 152.809 31.2241 151.992 31.6325C151.175 32.0408 150.209 32.245 149.092 32.245ZM148.276 31.9347H149.877L149.746 32.6452C150.307 32.7324 150.764 32.942 151.118 33.2741C151.477 33.6063 151.66 34.0582 151.665 34.63C151.671 35.4413 151.295 36.0865 150.538 36.5657C149.781 37.0503 148.719 37.2926 147.353 37.2926L147.32 35.7408C148.006 35.7408 148.543 35.6564 148.929 35.4876C149.321 35.3242 149.525 35.0683 149.542 34.7198C149.553 34.3877 149.425 34.1345 149.158 33.9602C148.891 33.786 148.474 33.6635 147.908 33.5927L148.276 31.9347ZM160.501 32.2369C159.7 32.2369 158.987 32.098 158.361 31.8203C157.734 31.5372 157.239 31.1206 156.874 30.5707C156.515 30.0153 156.335 29.3237 156.335 28.4961C156.335 27.7991 156.463 27.2138 156.719 26.7401C156.975 26.2663 157.323 25.8852 157.764 25.5966C158.205 25.308 158.706 25.0902 159.267 24.9432C159.834 24.7962 160.427 24.6927 161.048 24.6328C161.777 24.5566 162.366 24.4858 162.812 24.4205C163.259 24.3497 163.582 24.2462 163.784 24.1101C163.985 23.974 164.086 23.7725 164.086 23.5057V23.4567C164.086 22.9394 163.923 22.5392 163.596 22.256C163.275 21.9729 162.817 21.8313 162.224 21.8313C161.598 21.8313 161.1 21.9702 160.729 22.2479C160.359 22.5201 160.114 22.8632 159.994 23.277L156.776 23.0156C156.939 22.2533 157.261 21.5945 157.74 21.0391C158.219 20.4782 158.837 20.0481 159.594 19.7486C160.356 19.4437 161.238 19.2912 162.24 19.2912C162.937 19.2912 163.604 19.3729 164.241 19.5362C164.884 19.6996 165.453 19.9528 165.948 20.2958C166.449 20.6388 166.844 21.0799 167.133 21.619C167.421 22.1526 167.566 22.7924 167.566 23.5384V32H164.266V30.2603H164.168C163.966 30.6523 163.697 30.9981 163.359 31.2976C163.022 31.5916 162.616 31.823 162.142 31.9918C161.669 32.1552 161.121 32.2369 160.501 32.2369ZM161.497 29.8356C162.009 29.8356 162.461 29.7348 162.853 29.5334C163.245 29.3265 163.553 29.0488 163.776 28.7003C163.999 28.3518 164.111 27.957 164.111 27.516V26.1847C164.002 26.2554 163.852 26.3208 163.661 26.3807C163.476 26.4351 163.267 26.4869 163.033 26.5359C162.798 26.5794 162.564 26.6203 162.33 26.6584C162.096 26.6911 161.884 26.721 161.693 26.7482C161.285 26.8081 160.928 26.9034 160.623 27.0341C160.318 27.1648 160.081 27.3417 159.913 27.565C159.744 27.7828 159.659 28.055 159.659 28.3817C159.659 28.8555 159.831 29.2176 160.174 29.468C160.522 29.7131 160.963 29.8356 161.497 29.8356ZM160.035 17.9109L158.099 17.8864C158.099 16.8464 158.355 16.0487 158.867 15.4933C159.384 14.9379 160.013 14.6574 160.754 14.652C161.135 14.652 161.462 14.7146 161.734 14.8398C162.012 14.9596 162.259 15.1012 162.477 15.2646C162.7 15.4279 162.913 15.5722 163.114 15.6974C163.316 15.8172 163.533 15.8771 163.768 15.8771C164.083 15.8717 164.323 15.7546 164.486 15.5259C164.655 15.2918 164.74 14.9869 164.74 14.6112L166.643 14.6683C166.632 15.6974 166.37 16.4924 165.859 17.0533C165.347 17.6087 164.723 17.8891 163.988 17.8945C163.58 17.8945 163.237 17.8346 162.959 17.7148C162.687 17.5896 162.447 17.448 162.24 17.2901C162.033 17.1268 161.832 16.9825 161.636 16.8572C161.44 16.732 161.219 16.6694 160.974 16.6694C160.691 16.6694 160.462 16.781 160.288 17.0043C160.119 17.2275 160.035 17.5297 160.035 17.9109ZM175.933 32.245C174.665 32.245 173.567 31.9755 172.642 31.4364C171.722 30.8919 171.011 30.1351 170.51 29.1658C170.009 28.1912 169.759 27.0613 169.759 25.7763C169.759 24.4804 170.009 23.3478 170.51 22.3786C171.011 21.4039 171.722 20.647 172.642 20.108C173.567 19.5634 174.665 19.2912 175.933 19.2912C177.202 19.2912 178.296 19.5634 179.217 20.108C180.142 20.647 180.856 21.4039 181.357 22.3786C181.858 23.3478 182.108 24.4804 182.108 25.7763C182.108 27.0613 181.858 28.1912 181.357 29.1658C180.856 30.1351 180.142 30.8919 179.217 31.4364C178.296 31.9755 177.202 32.245 175.933 32.245ZM175.95 29.5497C176.527 29.5497 177.009 29.3864 177.395 29.0597C177.782 28.7275 178.073 28.2756 178.269 27.7038C178.471 27.1321 178.571 26.4814 178.571 25.7518C178.571 25.0221 178.471 24.3714 178.269 23.7997C178.073 23.228 177.782 22.776 177.395 22.4439C177.009 22.1117 176.527 21.9457 175.95 21.9457C175.367 21.9457 174.877 22.1117 174.479 22.4439C174.087 22.776 173.791 23.228 173.589 23.7997C173.393 24.3714 173.295 25.0221 173.295 25.7518C173.295 26.4814 173.393 27.1321 173.589 27.7038C173.791 28.2756 174.087 28.7275 174.479 29.0597C174.877 29.3864 175.367 29.5497 175.95 29.5497ZM195.362 32.245C194.093 32.245 192.996 31.9755 192.07 31.4364C191.15 30.8919 190.44 30.1351 189.939 29.1658C189.438 28.1912 189.187 27.0613 189.187 25.7763C189.187 24.4804 189.438 23.3478 189.939 22.3786C190.44 21.4039 191.15 20.647 192.07 20.108C192.996 19.5634 194.093 19.2912 195.362 19.2912C196.631 19.2912 197.725 19.5634 198.645 20.108C199.571 20.647 200.284 21.4039 200.785 22.3786C201.286 23.3478 201.537 24.4804 201.537 25.7763C201.537 27.0613 201.286 28.1912 200.785 29.1658C200.284 30.1351 199.571 30.8919 198.645 31.4364C197.725 31.9755 196.631 32.245 195.362 32.245ZM195.378 29.5497C195.956 29.5497 196.437 29.3864 196.824 29.0597C197.211 28.7275 197.502 28.2756 197.698 27.7038C197.899 27.1321 198 26.4814 198 25.7518C198 25.0221 197.899 24.3714 197.698 23.7997C197.502 23.228 197.211 22.776 196.824 22.4439C196.437 22.1117 195.956 21.9457 195.378 21.9457C194.796 21.9457 194.306 22.1117 193.908 22.4439C193.516 22.776 193.219 23.228 193.018 23.7997C192.822 24.3714 192.724 25.0221 192.724 25.7518C192.724 26.4814 192.822 27.1321 193.018 27.7038C193.219 28.2756 193.516 28.7275 193.908 29.0597C194.306 29.3864 194.796 29.5497 195.378 29.5497ZM210.546 19.4545V22.0682H202.803V19.4545H210.546ZM204.575 32V18.5479C204.575 17.6386 204.752 16.8845 205.106 16.2855C205.465 15.6866 205.955 15.2373 206.576 14.9379C207.197 14.6384 207.902 14.4886 208.692 14.4886C209.225 14.4886 209.712 14.5295 210.154 14.6112C210.6 14.6928 210.932 14.7663 211.15 14.8317L210.529 17.4453C210.393 17.4018 210.224 17.3609 210.023 17.3228C209.827 17.2847 209.625 17.2656 209.418 17.2656C208.907 17.2656 208.55 17.3854 208.348 17.625C208.147 17.8591 208.046 18.1886 208.046 18.6133V32H204.575ZM212.671 32V19.4545H216.151V32H212.671ZM214.419 17.8374C213.902 17.8374 213.458 17.6658 213.088 17.3228C212.723 16.9743 212.541 16.5578 212.541 16.0732C212.541 15.594 212.723 15.1829 213.088 14.8398C213.458 14.4914 213.902 14.3171 214.419 14.3171C214.936 14.3171 215.377 14.4914 215.742 14.8398C216.112 15.1829 216.298 15.594 216.298 16.0732C216.298 16.5578 216.112 16.9743 215.742 17.3228C215.377 17.6658 214.936 17.8374 214.419 17.8374ZM224.606 32.245C223.321 32.245 222.216 31.9728 221.29 31.4283C220.37 30.8783 219.662 30.116 219.167 29.1413C218.676 28.1667 218.431 27.045 218.431 25.7763C218.431 24.4912 218.679 23.3641 219.175 22.3949C219.676 21.4202 220.386 20.6606 221.306 20.1161C222.227 19.5662 223.321 19.2912 224.59 19.2912C225.684 19.2912 226.643 19.4899 227.465 19.8874C228.287 20.2849 228.938 20.843 229.417 21.5618C229.896 22.2805 230.16 23.1245 230.209 24.0938H226.926C226.833 23.4676 226.588 22.9639 226.191 22.5827C225.799 22.1961 225.284 22.0028 224.647 22.0028C224.108 22.0028 223.637 22.1499 223.234 22.4439C222.836 22.7325 222.526 23.1545 222.303 23.7099C222.08 24.2653 221.968 24.9377 221.968 25.7273C221.968 26.5277 222.077 27.2083 222.295 27.7692C222.518 28.33 222.831 28.7575 223.234 29.0515C223.637 29.3455 224.108 29.4925 224.647 29.4925C225.044 29.4925 225.401 29.4109 225.717 29.2475C226.038 29.0842 226.302 28.8473 226.509 28.5369C226.722 28.2211 226.86 27.8427 226.926 27.4016H230.209C230.155 28.36 229.893 29.204 229.425 29.9336C228.962 30.6578 228.322 31.2241 227.506 31.6325C226.689 32.0408 225.722 32.245 224.606 32.245ZM232.437 32V19.4545H235.916V32H232.437ZM234.185 17.8374C233.667 17.8374 233.224 17.6658 232.853 17.3228C232.489 16.9743 232.306 16.5578 232.306 16.0732C232.306 15.594 232.489 15.1829 232.853 14.8398C233.224 14.4914 233.667 14.3171 234.185 14.3171C234.702 14.3171 235.143 14.4914 235.508 14.8398C235.878 15.1829 236.063 15.594 236.063 16.0732C236.063 16.5578 235.878 16.9743 235.508 17.3228C235.143 17.6658 234.702 17.8374 234.185 17.8374ZM242.281 32.2369C241.48 32.2369 240.767 32.098 240.141 31.8203C239.515 31.5372 239.019 31.1206 238.654 30.5707C238.295 30.0153 238.115 29.3237 238.115 28.4961C238.115 27.7991 238.243 27.2138 238.499 26.7401C238.755 26.2663 239.104 25.8852 239.545 25.5966C239.986 25.308 240.487 25.0902 241.048 24.9432C241.614 24.7962 242.207 24.6927 242.828 24.6328C243.558 24.5566 244.146 24.4858 244.592 24.4205C245.039 24.3497 245.363 24.2462 245.564 24.1101C245.766 23.974 245.866 23.7725 245.866 23.5057V23.4567C245.866 22.9394 245.703 22.5392 245.376 22.256C245.055 21.9729 244.598 21.8313 244.004 21.8313C243.378 21.8313 242.88 21.9702 242.51 22.2479C242.139 22.5201 241.894 22.8632 241.774 23.277L238.556 23.0156C238.72 22.2533 239.041 21.5945 239.52 21.0391C239.999 20.4782 240.617 20.0481 241.374 19.7486C242.137 19.4437 243.019 19.2912 244.021 19.2912C244.718 19.2912 245.385 19.3729 246.022 19.5362C246.664 19.6996 247.233 19.9528 247.729 20.2958C248.23 20.6388 248.624 21.0799 248.913 21.619C249.202 22.1526 249.346 22.7924 249.346 23.5384V32H246.046V30.2603H245.948C245.747 30.6523 245.477 30.9981 245.14 31.2976C244.802 31.5916 244.396 31.823 243.923 31.9918C243.449 32.1552 242.902 32.2369 242.281 32.2369ZM243.277 29.8356C243.789 29.8356 244.241 29.7348 244.633 29.5334C245.025 29.3265 245.333 29.0488 245.556 28.7003C245.779 28.3518 245.891 27.957 245.891 27.516V26.1847C245.782 26.2554 245.632 26.3208 245.442 26.3807C245.257 26.4351 245.047 26.4869 244.813 26.5359C244.579 26.5794 244.345 26.6203 244.11 26.6584C243.876 26.6911 243.664 26.721 243.473 26.7482C243.065 26.8081 242.708 26.9034 242.403 27.0341C242.098 27.1648 241.862 27.3417 241.693 27.565C241.524 27.7828 241.44 28.055 241.44 28.3817C241.44 28.8555 241.611 29.2176 241.954 29.468C242.303 29.7131 242.744 29.8356 243.277 29.8356ZM255.525 15.2727V32H252.045V15.2727H255.525Z" fill="#F51770"/>
</svg>
