<svg width="269" height="32" viewBox="0 0 269 32" fill="none" xmlns="http://www.w3.org/2000/svg">
<rect opacity="0.2" width="269" height="32" rx="5" fill="#F51770"/>
<path d="M19.4602 24H13.5305V7.27273H19.5092C21.1917 7.27273 22.6401 7.6076 23.8544 8.27734C25.0686 8.94164 26.0024 9.89725 26.6559 11.1442C27.3147 12.3911 27.6441 13.883 27.6441 15.62C27.6441 17.3625 27.3147 18.8598 26.6559 20.1122C26.0024 21.3646 25.0632 22.3256 23.838 22.9954C22.6183 23.6651 21.159 24 19.4602 24ZM17.0671 20.9698H19.3132C20.3586 20.9698 21.238 20.7847 21.9513 20.4144C22.6701 20.0387 23.2091 19.4588 23.5685 18.6747C23.9333 17.8852 24.1157 16.867 24.1157 15.62C24.1157 14.384 23.9333 13.3739 23.5685 12.5898C23.2091 11.8058 22.6728 11.2286 21.9595 10.8583C21.2462 10.488 20.3668 10.3029 19.3213 10.3029H17.0671V20.9698ZM35.8669 24.245C34.5982 24.245 33.501 23.9755 32.5753 23.4364C31.6551 22.8919 30.9445 22.1351 30.4436 21.1658C29.9426 20.1912 29.6922 19.0613 29.6922 17.7763C29.6922 16.4804 29.9426 15.3478 30.4436 14.3786C30.9445 13.4039 31.6551 12.647 32.5753 12.108C33.501 11.5634 34.5982 11.2912 35.8669 11.2912C37.1356 11.2912 38.23 11.5634 39.1503 12.108C40.0759 12.647 40.7892 13.4039 41.2902 14.3786C41.7911 15.3478 42.0416 16.4804 42.0416 17.7763C42.0416 19.0613 41.7911 20.1912 41.2902 21.1658C40.7892 22.1351 40.0759 22.8919 39.1503 23.4364C38.23 23.9755 37.1356 24.245 35.8669 24.245ZM35.8832 21.5497C36.4604 21.5497 36.9423 21.3864 37.3289 21.0597C37.7155 20.7275 38.0068 20.2756 38.2028 19.7038C38.4043 19.1321 38.505 18.4814 38.505 17.7518C38.505 17.0221 38.4043 16.3714 38.2028 15.7997C38.0068 15.228 37.7155 14.776 37.3289 14.4439C36.9423 14.1117 36.4604 13.9457 35.8832 13.9457C35.3006 13.9457 34.8105 14.1117 34.413 14.4439C34.021 14.776 33.7242 15.228 33.5228 15.7997C33.3267 16.3714 33.2287 17.0221 33.2287 17.7518C33.2287 18.4814 33.3267 19.1321 33.5228 19.7038C33.7242 20.2756 34.021 20.7275 34.413 21.0597C34.8105 21.3864 35.3006 21.5497 35.8832 21.5497ZM49.9723 24.245C48.6873 24.245 47.582 23.9728 46.6563 23.4283C45.7361 22.8783 45.0282 22.116 44.5327 21.1413C44.0427 20.1667 43.7976 19.045 43.7976 17.7763C43.7976 16.4912 44.0454 15.3641 44.5409 14.3949C45.0418 13.4202 45.7524 12.6606 46.6726 12.1161C47.5928 11.5662 48.6873 11.2912 49.956 11.2912C51.0505 11.2912 52.0088 11.4899 52.831 11.8874C53.6532 12.2849 54.3039 12.843 54.7831 13.5618C55.2622 14.2805 55.5263 15.1245 55.5753 16.0938H52.2919C52.1994 15.4676 51.9544 14.9639 51.5569 14.5827C51.1648 14.1961 50.6503 14.0028 50.0132 14.0028C49.4741 14.0028 49.0031 14.1499 48.6002 14.4439C48.2027 14.7325 47.8923 15.1545 47.6691 15.7099C47.4458 16.2653 47.3342 16.9377 47.3342 17.7273C47.3342 18.5277 47.4431 19.2083 47.6609 19.7692C47.8842 20.33 48.1973 20.7575 48.6002 21.0515C49.0031 21.3455 49.4741 21.4925 50.0132 21.4925C50.4107 21.4925 50.7673 21.4109 51.0831 21.2475C51.4044 21.0842 51.6685 20.8473 51.8754 20.5369C52.0878 20.2211 52.2266 19.8427 52.2919 19.4016H55.5753C55.5209 20.36 55.2595 21.204 54.7912 21.9336C54.3284 22.6578 53.6886 23.2241 52.8718 23.6325C52.0551 24.0408 51.0886 24.245 49.9723 24.245ZM65.8481 18.6584V11.4545H69.3275V24H65.987V21.7212H65.8563C65.5732 22.4563 65.1022 23.0471 64.4433 23.4936C63.7899 23.9401 62.9922 24.1634 62.0502 24.1634C61.2117 24.1634 60.4739 23.9728 59.8368 23.5916C59.1997 23.2105 58.7015 22.6687 58.3421 21.9663C57.9882 21.2638 57.8085 20.4226 57.803 19.4425V11.4545H61.2824V18.8217C61.2879 19.5623 61.4866 20.1476 61.8787 20.5778C62.2707 21.0079 62.7962 21.223 63.455 21.223C63.8743 21.223 64.2664 21.1277 64.6312 20.9371C64.996 20.7411 65.29 20.4525 65.5133 20.0714C65.742 19.6902 65.8536 19.2192 65.8481 18.6584ZM72.1107 24V11.4545H75.4267V13.668H75.5737C75.8351 12.9329 76.2707 12.353 76.8805 11.9283C77.4904 11.5036 78.22 11.2912 79.0695 11.2912C79.9298 11.2912 80.6622 11.5063 81.2666 11.9364C81.871 12.3611 82.2739 12.9383 82.4754 13.668H82.606C82.862 12.9492 83.3248 12.3748 83.9945 11.9446C84.6697 11.509 85.4674 11.2912 86.3877 11.2912C87.5583 11.2912 88.5085 11.6642 89.2381 12.4102C89.9732 13.1507 90.3408 14.2016 90.3408 15.5629V24H86.8695V16.2489C86.8695 15.552 86.6844 15.0292 86.3141 14.6808C85.9439 14.3323 85.481 14.158 84.9256 14.158C84.294 14.158 83.8012 14.3595 83.4473 14.7624C83.0934 15.1599 82.9164 15.6854 82.9164 16.3388V24H79.5432V16.1754C79.5432 15.5601 79.3662 15.0701 79.0123 14.7053C78.6638 14.3404 78.2037 14.158 77.632 14.158C77.2454 14.158 76.8969 14.256 76.5865 14.4521C76.2816 14.6426 76.0393 14.9122 75.8596 15.2607C75.6799 15.6037 75.5901 16.0066 75.5901 16.4695V24H72.1107ZM98.8065 24.245C97.516 24.245 96.4052 23.9837 95.4741 23.4609C94.5485 22.9328 93.8352 22.1868 93.3342 21.223C92.8333 20.2538 92.5828 19.1076 92.5828 17.7844C92.5828 16.494 92.8333 15.3614 93.3342 14.3867C93.8352 13.4121 94.5403 12.6525 95.4496 12.108C96.3644 11.5634 97.4371 11.2912 98.6677 11.2912C99.4953 11.2912 100.266 11.4246 100.979 11.6914C101.698 11.9528 102.324 12.3475 102.858 12.8757C103.397 13.4039 103.816 14.0682 104.115 14.8686C104.415 15.6636 104.565 16.5947 104.565 17.6619V18.6175H93.9713V16.4613H101.289C101.289 15.9603 101.181 15.5166 100.963 15.13C100.745 14.7434 100.443 14.4412 100.056 14.2234C99.675 14.0001 99.2312 13.8885 98.7248 13.8885C98.1967 13.8885 97.7284 14.011 97.32 14.256C96.9171 14.4956 96.6013 14.8196 96.3726 15.228C96.1439 15.6309 96.0268 16.0801 96.0214 16.5756V18.6257C96.0214 19.2464 96.1357 19.7828 96.3644 20.2347C96.5985 20.6867 96.928 21.0352 97.3527 21.2802C97.7774 21.5252 98.2811 21.6477 98.8637 21.6477C99.2503 21.6477 99.6042 21.5933 99.9255 21.4844C100.247 21.3755 100.522 21.2121 100.75 20.9943C100.979 20.7765 101.153 20.5097 101.273 20.1939L104.491 20.4062C104.328 21.1795 103.993 21.8546 103.487 22.4318C102.986 23.0036 102.338 23.45 101.543 23.7713C100.753 24.0871 99.8411 24.245 98.8065 24.245ZM110.315 16.7472V24H106.835V11.4545H110.151V13.668H110.298C110.576 12.9383 111.042 12.3611 111.695 11.9364C112.348 11.5063 113.141 11.2912 114.072 11.2912C114.943 11.2912 115.703 11.4818 116.351 11.8629C116.999 12.2441 117.502 12.7886 117.862 13.4964C118.221 14.1989 118.401 15.0374 118.401 16.0121V24H114.921V16.6328C114.927 15.8651 114.731 15.2661 114.333 14.8359C113.936 14.4003 113.388 14.1825 112.691 14.1825C112.223 14.1825 111.809 14.2833 111.45 14.4847C111.096 14.6862 110.818 14.9802 110.617 15.3668C110.421 15.748 110.32 16.2081 110.315 16.7472ZM127.816 11.4545V14.0682H120.261V11.4545H127.816ZM121.976 8.44886H125.455V20.1449C125.455 20.4661 125.504 20.7166 125.602 20.8963C125.7 21.0705 125.837 21.1931 126.011 21.2638C126.19 21.3346 126.397 21.37 126.632 21.37C126.795 21.37 126.958 21.3564 127.122 21.3292C127.285 21.2965 127.41 21.272 127.497 21.2557L128.045 23.8448C127.87 23.8993 127.625 23.9619 127.309 24.0327C126.994 24.1089 126.61 24.1552 126.158 24.1715C125.319 24.2042 124.584 24.0926 123.953 23.8366C123.326 23.5807 122.839 23.1832 122.491 22.6442C122.142 22.1051 121.971 21.4245 121.976 20.6023V8.44886ZM133.66 24.2369C132.859 24.2369 132.146 24.098 131.52 23.8203C130.894 23.5372 130.398 23.1206 130.033 22.5707C129.674 22.0153 129.494 21.3237 129.494 20.4961C129.494 19.7991 129.622 19.2138 129.878 18.7401C130.134 18.2663 130.483 17.8852 130.924 17.5966C131.365 17.308 131.866 17.0902 132.426 16.9432C132.993 16.7962 133.586 16.6927 134.207 16.6328C134.937 16.5566 135.525 16.4858 135.971 16.4205C136.418 16.3497 136.742 16.2462 136.943 16.1101C137.145 15.974 137.245 15.7725 137.245 15.5057V15.4567C137.245 14.9394 137.082 14.5392 136.755 14.256C136.434 13.9729 135.977 13.8313 135.383 13.8313C134.757 13.8313 134.259 13.9702 133.888 14.2479C133.518 14.5201 133.273 14.8632 133.153 15.277L129.935 15.0156C130.099 14.2533 130.42 13.5945 130.899 13.0391C131.378 12.4782 131.996 12.0481 132.753 11.7486C133.515 11.4437 134.398 11.2912 135.399 11.2912C136.096 11.2912 136.763 11.3729 137.401 11.5362C138.043 11.6996 138.612 11.9528 139.108 12.2958C139.609 12.6388 140.003 13.0799 140.292 13.619C140.58 14.1526 140.725 14.7924 140.725 15.5384V24H137.425V22.2603H137.327C137.126 22.6523 136.856 22.9981 136.518 23.2976C136.181 23.5916 135.775 23.823 135.301 23.9918C134.828 24.1552 134.28 24.2369 133.66 24.2369ZM134.656 21.8356C135.168 21.8356 135.62 21.7348 136.012 21.5334C136.404 21.3265 136.712 21.0488 136.935 20.7003C137.158 20.3518 137.27 19.957 137.27 19.516V18.1847C137.161 18.2554 137.011 18.3208 136.821 18.3807C136.635 18.4351 136.426 18.4869 136.192 18.5359C135.958 18.5794 135.723 18.6203 135.489 18.6584C135.255 18.6911 135.043 18.721 134.852 18.7482C134.444 18.8081 134.087 18.9034 133.782 19.0341C133.477 19.1648 133.24 19.3417 133.072 19.565C132.903 19.7828 132.818 20.055 132.818 20.3817C132.818 20.8555 132.99 21.2176 133.333 21.468C133.682 21.7131 134.123 21.8356 134.656 21.8356ZM149.092 24.245C147.807 24.245 146.702 23.9728 145.776 23.4283C144.856 22.8783 144.148 22.116 143.653 21.1413C143.163 20.1667 142.918 19.045 142.918 17.7763C142.918 16.4912 143.165 15.3641 143.661 14.3949C144.162 13.4202 144.873 12.6606 145.793 12.1161C146.713 11.5662 147.807 11.2912 149.076 11.2912C150.171 11.2912 151.129 11.4899 151.951 11.8874C152.773 12.2849 153.424 12.843 153.903 13.5618C154.382 14.2805 154.646 15.1245 154.695 16.0938H151.412C151.319 15.4676 151.074 14.9639 150.677 14.5827C150.285 14.1961 149.77 14.0028 149.133 14.0028C148.594 14.0028 148.123 14.1499 147.72 14.4439C147.323 14.7325 147.012 15.1545 146.789 15.7099C146.566 16.2653 146.454 16.9377 146.454 17.7273C146.454 18.5277 146.563 19.2083 146.781 19.7692C147.004 20.33 147.317 20.7575 147.72 21.0515C148.123 21.3455 148.594 21.4925 149.133 21.4925C149.531 21.4925 149.887 21.4109 150.203 21.2475C150.525 21.0842 150.789 20.8473 150.996 20.5369C151.208 20.2211 151.347 19.8427 151.412 19.4016H154.695C154.641 20.36 154.38 21.204 153.911 21.9336C153.449 22.6578 152.809 23.2241 151.992 23.6325C151.175 24.0408 150.209 24.245 149.092 24.245ZM148.276 23.9347H149.877L149.746 24.6452C150.307 24.7324 150.764 24.942 151.118 25.2741C151.477 25.6063 151.66 26.0582 151.665 26.63C151.671 27.4413 151.295 28.0865 150.538 28.5657C149.781 29.0503 148.719 29.2926 147.353 29.2926L147.32 27.7408C148.006 27.7408 148.543 27.6564 148.929 27.4876C149.321 27.3242 149.525 27.0683 149.542 26.7198C149.553 26.3877 149.425 26.1345 149.158 25.9602C148.891 25.786 148.474 25.6635 147.908 25.5927L148.276 23.9347ZM160.501 24.2369C159.7 24.2369 158.987 24.098 158.361 23.8203C157.734 23.5372 157.239 23.1206 156.874 22.5707C156.515 22.0153 156.335 21.3237 156.335 20.4961C156.335 19.7991 156.463 19.2138 156.719 18.7401C156.975 18.2663 157.323 17.8852 157.764 17.5966C158.205 17.308 158.706 17.0902 159.267 16.9432C159.834 16.7962 160.427 16.6927 161.048 16.6328C161.777 16.5566 162.366 16.4858 162.812 16.4205C163.259 16.3497 163.582 16.2462 163.784 16.1101C163.985 15.974 164.086 15.7725 164.086 15.5057V15.4567C164.086 14.9394 163.923 14.5392 163.596 14.256C163.275 13.9729 162.817 13.8313 162.224 13.8313C161.598 13.8313 161.1 13.9702 160.729 14.2479C160.359 14.5201 160.114 14.8632 159.994 15.277L156.776 15.0156C156.939 14.2533 157.261 13.5945 157.74 13.0391C158.219 12.4782 158.837 12.0481 159.594 11.7486C160.356 11.4437 161.238 11.2912 162.24 11.2912C162.937 11.2912 163.604 11.3729 164.241 11.5362C164.884 11.6996 165.453 11.9528 165.948 12.2958C166.449 12.6388 166.844 13.0799 167.133 13.619C167.421 14.1526 167.566 14.7924 167.566 15.5384V24H164.266V22.2603H164.168C163.966 22.6523 163.697 22.9981 163.359 23.2976C163.022 23.5916 162.616 23.823 162.142 23.9918C161.669 24.1552 161.121 24.2369 160.501 24.2369ZM161.497 21.8356C162.009 21.8356 162.461 21.7348 162.853 21.5334C163.245 21.3265 163.553 21.0488 163.776 20.7003C163.999 20.3518 164.111 19.957 164.111 19.516V18.1847C164.002 18.2554 163.852 18.3208 163.661 18.3807C163.476 18.4351 163.267 18.4869 163.033 18.5359C162.798 18.5794 162.564 18.6203 162.33 18.6584C162.096 18.6911 161.884 18.721 161.693 18.7482C161.285 18.8081 160.928 18.9034 160.623 19.0341C160.318 19.1648 160.081 19.3417 159.913 19.565C159.744 19.7828 159.659 20.055 159.659 20.3817C159.659 20.8555 159.831 21.2176 160.174 21.468C160.522 21.7131 160.963 21.8356 161.497 21.8356ZM160.035 9.91087L158.099 9.88636C158.099 8.84635 158.355 8.04865 158.867 7.49325C159.384 6.93785 160.013 6.65743 160.754 6.65199C161.135 6.65199 161.462 6.71461 161.734 6.83984C162.012 6.95964 162.259 7.10121 162.477 7.26456C162.7 7.42791 162.913 7.57221 163.114 7.69744C163.316 7.81723 163.533 7.87713 163.768 7.87713C164.083 7.87169 164.323 7.75462 164.486 7.52592C164.655 7.29178 164.74 6.98686 164.74 6.61115L166.643 6.66832C166.632 7.69744 166.37 8.49242 165.859 9.05327C165.347 9.60866 164.723 9.88909 163.988 9.89453C163.58 9.89453 163.237 9.83464 162.959 9.71484C162.687 9.58961 162.447 9.44803 162.24 9.29013C162.033 9.12678 161.832 8.98248 161.636 8.85724C161.44 8.73201 161.219 8.66939 160.974 8.66939C160.691 8.66939 160.462 8.78101 160.288 9.00426C160.119 9.22751 160.035 9.52971 160.035 9.91087ZM175.933 24.245C174.665 24.245 173.567 23.9755 172.642 23.4364C171.722 22.8919 171.011 22.1351 170.51 21.1658C170.009 20.1912 169.759 19.0613 169.759 17.7763C169.759 16.4804 170.009 15.3478 170.51 14.3786C171.011 13.4039 171.722 12.647 172.642 12.108C173.567 11.5634 174.665 11.2912 175.933 11.2912C177.202 11.2912 178.296 11.5634 179.217 12.108C180.142 12.647 180.856 13.4039 181.357 14.3786C181.858 15.3478 182.108 16.4804 182.108 17.7763C182.108 19.0613 181.858 20.1912 181.357 21.1658C180.856 22.1351 180.142 22.8919 179.217 23.4364C178.296 23.9755 177.202 24.245 175.933 24.245ZM175.95 21.5497C176.527 21.5497 177.009 21.3864 177.395 21.0597C177.782 20.7275 178.073 20.2756 178.269 19.7038C178.471 19.1321 178.571 18.4814 178.571 17.7518C178.571 17.0221 178.471 16.3714 178.269 15.7997C178.073 15.228 177.782 14.776 177.395 14.4439C177.009 14.1117 176.527 13.9457 175.95 13.9457C175.367 13.9457 174.877 14.1117 174.479 14.4439C174.087 14.776 173.791 15.228 173.589 15.7997C173.393 16.3714 173.295 17.0221 173.295 17.7518C173.295 18.4814 173.393 19.1321 173.589 19.7038C173.791 20.2756 174.087 20.7275 174.479 21.0597C174.877 21.3864 175.367 21.5497 175.95 21.5497ZM195.362 24.245C194.093 24.245 192.996 23.9755 192.07 23.4364C191.15 22.8919 190.44 22.1351 189.939 21.1658C189.438 20.1912 189.187 19.0613 189.187 17.7763C189.187 16.4804 189.438 15.3478 189.939 14.3786C190.44 13.4039 191.15 12.647 192.07 12.108C192.996 11.5634 194.093 11.2912 195.362 11.2912C196.631 11.2912 197.725 11.5634 198.645 12.108C199.571 12.647 200.284 13.4039 200.785 14.3786C201.286 15.3478 201.537 16.4804 201.537 17.7763C201.537 19.0613 201.286 20.1912 200.785 21.1658C200.284 22.1351 199.571 22.8919 198.645 23.4364C197.725 23.9755 196.631 24.245 195.362 24.245ZM195.378 21.5497C195.956 21.5497 196.437 21.3864 196.824 21.0597C197.211 20.7275 197.502 20.2756 197.698 19.7038C197.899 19.1321 198 18.4814 198 17.7518C198 17.0221 197.899 16.3714 197.698 15.7997C197.502 15.228 197.211 14.776 196.824 14.4439C196.437 14.1117 195.956 13.9457 195.378 13.9457C194.796 13.9457 194.306 14.1117 193.908 14.4439C193.516 14.776 193.219 15.228 193.018 15.7997C192.822 16.3714 192.724 17.0221 192.724 17.7518C192.724 18.4814 192.822 19.1321 193.018 19.7038C193.219 20.2756 193.516 20.7275 193.908 21.0597C194.306 21.3864 194.796 21.5497 195.378 21.5497ZM210.546 11.4545V14.0682H202.803V11.4545H210.546ZM204.575 24V10.5479C204.575 9.63861 204.752 8.88447 205.106 8.28551C205.465 7.68655 205.955 7.23733 206.576 6.93785C207.197 6.63837 207.902 6.48864 208.692 6.48864C209.225 6.48864 209.712 6.52947 210.154 6.61115C210.6 6.69283 210.932 6.76633 211.15 6.83168L210.529 9.44531C210.393 9.40175 210.224 9.36091 210.023 9.3228C209.827 9.28468 209.625 9.26562 209.418 9.26562C208.907 9.26562 208.55 9.38542 208.348 9.625C208.147 9.85914 208.046 10.1886 208.046 10.6133V24H204.575ZM212.671 24V11.4545H216.151V24H212.671ZM214.419 9.83736C213.902 9.83736 213.458 9.66584 213.088 9.3228C212.723 8.97431 212.541 8.55776 212.541 8.07315C212.541 7.59399 212.723 7.18288 213.088 6.83984C213.458 6.49136 213.902 6.31712 214.419 6.31712C214.936 6.31712 215.377 6.49136 215.742 6.83984C216.112 7.18288 216.298 7.59399 216.298 8.07315C216.298 8.55776 216.112 8.97431 215.742 9.3228C215.377 9.66584 214.936 9.83736 214.419 9.83736ZM224.606 24.245C223.321 24.245 222.216 23.9728 221.29 23.4283C220.37 22.8783 219.662 22.116 219.167 21.1413C218.676 20.1667 218.431 19.045 218.431 17.7763C218.431 16.4912 218.679 15.3641 219.175 14.3949C219.676 13.4202 220.386 12.6606 221.306 12.1161C222.227 11.5662 223.321 11.2912 224.59 11.2912C225.684 11.2912 226.643 11.4899 227.465 11.8874C228.287 12.2849 228.938 12.843 229.417 13.5618C229.896 14.2805 230.16 15.1245 230.209 16.0938H226.926C226.833 15.4676 226.588 14.9639 226.191 14.5827C225.799 14.1961 225.284 14.0028 224.647 14.0028C224.108 14.0028 223.637 14.1499 223.234 14.4439C222.836 14.7325 222.526 15.1545 222.303 15.7099C222.08 16.2653 221.968 16.9377 221.968 17.7273C221.968 18.5277 222.077 19.2083 222.295 19.7692C222.518 20.33 222.831 20.7575 223.234 21.0515C223.637 21.3455 224.108 21.4925 224.647 21.4925C225.044 21.4925 225.401 21.4109 225.717 21.2475C226.038 21.0842 226.302 20.8473 226.509 20.5369C226.722 20.2211 226.86 19.8427 226.926 19.4016H230.209C230.155 20.36 229.893 21.204 229.425 21.9336C228.962 22.6578 228.322 23.2241 227.506 23.6325C226.689 24.0408 225.722 24.245 224.606 24.245ZM232.437 24V11.4545H235.916V24H232.437ZM234.185 9.83736C233.667 9.83736 233.224 9.66584 232.853 9.3228C232.489 8.97431 232.306 8.55776 232.306 8.07315C232.306 7.59399 232.489 7.18288 232.853 6.83984C233.224 6.49136 233.667 6.31712 234.185 6.31712C234.702 6.31712 235.143 6.49136 235.508 6.83984C235.878 7.18288 236.063 7.59399 236.063 8.07315C236.063 8.55776 235.878 8.97431 235.508 9.3228C235.143 9.66584 234.702 9.83736 234.185 9.83736ZM242.281 24.2369C241.48 24.2369 240.767 24.098 240.141 23.8203C239.515 23.5372 239.019 23.1206 238.654 22.5707C238.295 22.0153 238.115 21.3237 238.115 20.4961C238.115 19.7991 238.243 19.2138 238.499 18.7401C238.755 18.2663 239.104 17.8852 239.545 17.5966C239.986 17.308 240.487 17.0902 241.048 16.9432C241.614 16.7962 242.207 16.6927 242.828 16.6328C243.558 16.5566 244.146 16.4858 244.592 16.4205C245.039 16.3497 245.363 16.2462 245.564 16.1101C245.766 15.974 245.866 15.7725 245.866 15.5057V15.4567C245.866 14.9394 245.703 14.5392 245.376 14.256C245.055 13.9729 244.598 13.8313 244.004 13.8313C243.378 13.8313 242.88 13.9702 242.51 14.2479C242.139 14.5201 241.894 14.8632 241.774 15.277L238.556 15.0156C238.72 14.2533 239.041 13.5945 239.52 13.0391C239.999 12.4782 240.617 12.0481 241.374 11.7486C242.137 11.4437 243.019 11.2912 244.021 11.2912C244.718 11.2912 245.385 11.3729 246.022 11.5362C246.664 11.6996 247.233 11.9528 247.729 12.2958C248.23 12.6388 248.624 13.0799 248.913 13.619C249.202 14.1526 249.346 14.7924 249.346 15.5384V24H246.046V22.2603H245.948C245.747 22.6523 245.477 22.9981 245.14 23.2976C244.802 23.5916 244.396 23.823 243.923 23.9918C243.449 24.1552 242.902 24.2369 242.281 24.2369ZM243.277 21.8356C243.789 21.8356 244.241 21.7348 244.633 21.5334C245.025 21.3265 245.333 21.0488 245.556 20.7003C245.779 20.3518 245.891 19.957 245.891 19.516V18.1847C245.782 18.2554 245.632 18.3208 245.442 18.3807C245.257 18.4351 245.047 18.4869 244.813 18.5359C244.579 18.5794 244.345 18.6203 244.11 18.6584C243.876 18.6911 243.664 18.721 243.473 18.7482C243.065 18.8081 242.708 18.9034 242.403 19.0341C242.098 19.1648 241.862 19.3417 241.693 19.565C241.524 19.7828 241.44 20.055 241.44 20.3817C241.44 20.8555 241.611 21.2176 241.954 21.468C242.303 21.7131 242.744 21.8356 243.277 21.8356ZM255.525 7.27273V24H252.045V7.27273H255.525Z" fill="#F51770"/>
</svg>
