<svg width="121" height="38" viewBox="0 0 121 38" fill="none" xmlns="http://www.w3.org/2000/svg">
<rect opacity="0.15" width="121" height="38" rx="10" fill="#566B88"/>
<path d="M16.3144 24H12.9628V14.5455H16.3421C17.2931 14.5455 18.1118 14.7347 18.7981 15.1133C19.4844 15.4888 20.0122 16.0289 20.3815 16.7337C20.7539 17.4384 20.9401 18.2817 20.9401 19.2635C20.9401 20.2483 20.7539 21.0947 20.3815 21.8026C20.0122 22.5104 19.4813 23.0536 18.7888 23.4322C18.0994 23.8107 17.2746 24 16.3144 24ZM14.9618 22.2873H16.2313C16.8222 22.2873 17.3193 22.1826 17.7224 21.9734C18.1287 21.761 18.4334 21.4332 18.6365 20.9901C18.8427 20.5438 18.9458 19.9683 18.9458 19.2635C18.9458 18.5649 18.8427 17.994 18.6365 17.5508C18.4334 17.1076 18.1302 16.7814 17.7271 16.5721C17.3239 16.3628 16.8268 16.2582 16.2359 16.2582H14.9618V22.2873ZM25.5878 24.1385C24.8707 24.1385 24.2505 23.9862 23.7273 23.6815C23.2072 23.3737 22.8056 22.9459 22.5224 22.3981C22.2393 21.8472 22.0977 21.2086 22.0977 20.4822C22.0977 19.7498 22.2393 19.1096 22.5224 18.5618C22.8056 18.0109 23.2072 17.5831 23.7273 17.2784C24.2505 16.9706 24.8707 16.8168 25.5878 16.8168C26.3049 16.8168 26.9235 16.9706 27.4436 17.2784C27.9668 17.5831 28.37 18.0109 28.6531 18.5618C28.9362 19.1096 29.0778 19.7498 29.0778 20.4822C29.0778 21.2086 28.9362 21.8472 28.6531 22.3981C28.37 22.9459 27.9668 23.3737 27.4436 23.6815C26.9235 23.9862 26.3049 24.1385 25.5878 24.1385ZM25.597 22.6151C25.9232 22.6151 26.1956 22.5227 26.4141 22.3381C26.6326 22.1503 26.7973 21.8949 26.9081 21.5717C27.0219 21.2486 27.0789 20.8808 27.0789 20.4684C27.0789 20.056 27.0219 19.6882 26.9081 19.3651C26.7973 19.0419 26.6326 18.7865 26.4141 18.5987C26.1956 18.411 25.9232 18.3171 25.597 18.3171C25.2677 18.3171 24.9907 18.411 24.766 18.5987C24.5444 18.7865 24.3767 19.0419 24.2628 19.3651C24.152 19.6882 24.0966 20.056 24.0966 20.4684C24.0966 20.8808 24.152 21.2486 24.2628 21.5717C24.3767 21.8949 24.5444 22.1503 24.766 22.3381C24.9907 22.5227 25.2677 22.6151 25.597 22.6151ZM31.5776 24L29.6479 16.9091H31.6377L32.7364 21.6733H32.801L33.9459 16.9091H35.8987L37.062 21.6456H37.122L38.2023 16.9091H40.1874L38.2623 24H36.1803L34.9615 19.5405H34.8738L33.6551 24H31.5776ZM43.2031 19.9006V24H41.2365V16.9091H43.1108V18.1602H43.1938C43.3508 17.7478 43.6139 17.4215 43.9833 17.1815C44.3526 16.9383 44.8004 16.8168 45.3267 16.8168C45.8191 16.8168 46.2484 16.9245 46.6147 17.1399C46.9809 17.3554 47.2656 17.6631 47.4687 18.0632C47.6718 18.4602 47.7734 18.9342 47.7734 19.4851V24H45.8068V19.8359C45.8099 19.402 45.6991 19.0634 45.4744 18.8203C45.2497 18.5741 44.9404 18.451 44.5465 18.451C44.2818 18.451 44.0479 18.5079 43.8448 18.6218C43.6447 18.7357 43.4878 18.9019 43.3739 19.1204C43.2631 19.3358 43.2062 19.5959 43.2031 19.9006ZM51.29 14.5455V24H49.3234V14.5455H51.29ZM56.0692 24.1385C55.3521 24.1385 54.732 23.9862 54.2088 23.6815C53.6886 23.3737 53.287 22.9459 53.0039 22.3981C52.7207 21.8472 52.5791 21.2086 52.5791 20.4822C52.5791 19.7498 52.7207 19.1096 53.0039 18.5618C53.287 18.0109 53.6886 17.5831 54.2088 17.2784C54.732 16.9706 55.3521 16.8168 56.0692 16.8168C56.7863 16.8168 57.4049 16.9706 57.925 17.2784C58.4482 17.5831 58.8514 18.0109 59.1345 18.5618C59.4177 19.1096 59.5593 19.7498 59.5593 20.4822C59.5593 21.2086 59.4177 21.8472 59.1345 22.3981C58.8514 22.9459 58.4482 23.3737 57.925 23.6815C57.4049 23.9862 56.7863 24.1385 56.0692 24.1385ZM56.0784 22.6151C56.4047 22.6151 56.677 22.5227 56.8956 22.3381C57.1141 22.1503 57.2787 21.8949 57.3895 21.5717C57.5034 21.2486 57.5603 20.8808 57.5603 20.4684C57.5603 20.056 57.5034 19.6882 57.3895 19.3651C57.2787 19.0419 57.1141 18.7865 56.8956 18.5987C56.677 18.411 56.4047 18.3171 56.0784 18.3171C55.7491 18.3171 55.4721 18.411 55.2475 18.5987C55.0259 18.7865 54.8581 19.0419 54.7443 19.3651C54.6335 19.6882 54.5781 20.056 54.5781 20.4684C54.5781 20.8808 54.6335 21.2486 54.7443 21.5717C54.8581 21.8949 55.0259 22.1503 55.2475 22.3381C55.4721 22.5227 55.7491 22.6151 56.0784 22.6151ZM62.86 24.1339C62.4076 24.1339 62.0045 24.0554 61.6505 23.8984C61.2966 23.7384 61.0165 23.503 60.8103 23.1921C60.6072 22.8782 60.5056 22.4873 60.5056 22.0195C60.5056 21.6256 60.578 21.2947 60.7226 21.027C60.8673 20.7592 61.0642 20.5438 61.3135 20.3807C61.5628 20.2176 61.846 20.0945 62.163 20.0114C62.483 19.9283 62.8185 19.8698 63.1693 19.8359C63.5818 19.7929 63.9141 19.7528 64.1665 19.7159C64.4189 19.6759 64.602 19.6174 64.7159 19.5405C64.8297 19.4635 64.8867 19.3497 64.8867 19.1989V19.1712C64.8867 18.8788 64.7943 18.6526 64.6097 18.4925C64.4281 18.3325 64.1696 18.2525 63.8341 18.2525C63.4802 18.2525 63.1986 18.331 62.9893 18.4879C62.78 18.6418 62.6415 18.8357 62.5738 19.0696L60.7549 18.9219C60.8473 18.491 61.0288 18.1186 61.2997 17.8047C61.5705 17.4877 61.9198 17.2446 62.3476 17.0753C62.7785 16.9029 63.2771 16.8168 63.8434 16.8168C64.2373 16.8168 64.6143 16.8629 64.9744 16.9553C65.3376 17.0476 65.6592 17.1907 65.9392 17.3846C66.2224 17.5785 66.4455 17.8278 66.6086 18.1325C66.7717 18.4341 66.8533 18.7957 66.8533 19.2173V24H64.9882V23.0167H64.9328C64.819 23.2383 64.6666 23.4337 64.4758 23.603C64.285 23.7692 64.0557 23.9 63.788 23.9954C63.5202 24.0877 63.2109 24.1339 62.86 24.1339ZM63.4233 22.7766C63.7126 22.7766 63.968 22.7197 64.1896 22.6058C64.4112 22.4889 64.5851 22.3319 64.7112 22.1349C64.8374 21.938 64.9005 21.7148 64.9005 21.4656V20.7131C64.839 20.7531 64.7543 20.79 64.6466 20.8239C64.542 20.8546 64.4235 20.8839 64.2911 20.9116C64.1588 20.9362 64.0265 20.9593 63.8941 20.9808C63.7618 20.9993 63.6418 21.0162 63.534 21.0316C63.3032 21.0655 63.1016 21.1193 62.9293 21.1932C62.7569 21.267 62.6231 21.3671 62.5277 21.4933C62.4322 21.6164 62.3845 21.7702 62.3845 21.9549C62.3845 22.2227 62.4815 22.4273 62.6754 22.5689C62.8724 22.7074 63.1216 22.7766 63.4233 22.7766ZM70.992 24.1154C70.4534 24.1154 69.9656 23.9769 69.5285 23.6999C69.0946 23.4199 68.7499 23.009 68.4945 22.4673C68.2421 21.9226 68.1159 21.2547 68.1159 20.4638C68.1159 19.6513 68.2467 18.9757 68.5083 18.4371C68.7699 17.8955 69.1177 17.4908 69.5516 17.223C69.9887 16.9522 70.4672 16.8168 70.9873 16.8168C71.3844 16.8168 71.7152 16.8845 71.9799 17.0199C72.2476 17.1522 72.4631 17.3184 72.6262 17.5185C72.7924 17.7154 72.9186 17.9093 73.0047 18.1001H73.0648V14.5455H75.0268V24H73.0878V22.8643H73.0047C72.9124 23.0613 72.7816 23.2567 72.6123 23.4506C72.4462 23.6415 72.2292 23.8 71.9614 23.9261C71.6967 24.0523 71.3736 24.1154 70.992 24.1154ZM71.6152 22.5504C71.9322 22.5504 72.1999 22.4643 72.4185 22.2919C72.64 22.1165 72.8093 21.8718 72.9263 21.5579C73.0463 21.244 73.1063 20.8762 73.1063 20.4545C73.1063 20.0329 73.0478 19.6667 72.9309 19.3558C72.8139 19.045 72.6447 18.8049 72.4231 18.6357C72.2015 18.4664 71.9322 18.3817 71.6152 18.3817C71.292 18.3817 71.0197 18.4695 70.7981 18.6449C70.5765 18.8203 70.4088 19.0634 70.2949 19.3743C70.181 19.6851 70.1241 20.0452 70.1241 20.4545C70.1241 20.867 70.181 21.2317 70.2949 21.5487C70.4118 21.8626 70.5796 22.1088 70.7981 22.2873C71.0197 22.4627 71.292 22.5504 71.6152 22.5504Z" fill="#566B88"/>
<path d="M95.5248 8.00007C92.5057 8.00007 89.4867 9.69104 88.4832 13.073C88.1232 14.286 88.0825 14.3489 87.5961 14.4402C87.3487 14.4866 86.7007 14.7494 86.1561 15.0244C80.6482 17.8051 80.6056 25.7806 86.0833 28.659C87.4481 29.3762 88.1139 29.4903 91.0083 29.5023L93.5459 29.5129L91.1672 27.1222C88.9304 24.8742 88.7884 24.703 88.7884 24.2561C88.7884 23.0544 89.267 22.7765 91.3364 22.7765H92.8557L92.8584 19.6943C92.8609 16.9656 92.8883 16.5538 93.0967 16.1037C94.0623 14.018 96.8865 13.9965 97.9514 16.0668C98.1706 16.4931 98.1939 16.8378 98.1939 19.6575V22.7765H99.7132C101.783 22.7765 102.261 23.0544 102.261 24.2561C102.261 24.703 102.119 24.8742 99.8825 27.1222L97.5037 29.5129L99.9778 29.511C104.116 29.5078 106.133 28.6322 107.806 26.1127C110.619 21.8745 108.177 15.3263 103.454 14.4401C102.967 14.3488 102.926 14.2859 102.566 13.0729C101.563 9.69097 98.5438 8.00007 95.5248 8.00007Z" fill="#566B88"/>
</svg>
