<svg width="169" height="206" viewBox="0 0 169 206" fill="none" xmlns="http://www.w3.org/2000/svg">
<g clip-path="url(#clip0_520_457)">
<path d="M168.44 14.61V190.45C168.44 198.49 163.04 205.06 156.44 205.06H12C5.4 205.06 0 198.49 0 190.45V14.61C0 6.57 5.4 0 12 0H156.44C163.04 0 168.44 6.57 168.44 14.61Z" fill="url(#paint0_linear_520_457)"/>
<mask id="mask0_520_457" style="mask-type:alpha" maskUnits="userSpaceOnUse" x="0" y="0" width="169" height="206">
<path d="M168.44 14.61V190.45C168.44 198.49 163.04 205.06 156.44 205.06H12C5.4 205.06 0 198.49 0 190.45V14.61C0 6.57 5.4 0 12 0H156.44C163.04 0 168.44 6.57 168.44 14.61Z" fill="url(#paint1_linear_520_457)"/>
</mask>
<g mask="url(#mask0_520_457)">
<g opacity="0.8">
<g opacity="0.15">
<circle cx="94.2338" cy="55.6399" r="93.937" transform="rotate(-10.7881 94.2338 55.6399)" fill="white"/>
<circle cx="94.2338" cy="55.6399" r="93.937" transform="rotate(-10.7881 94.2338 55.6399)" fill="white"/>
</g>
<g opacity="0.3">
<circle cx="94.0746" cy="54.8049" r="75.2346" transform="rotate(-10.7881 94.0746 54.8049)" fill="white"/>
<circle cx="94.0746" cy="54.8049" r="75.2346" transform="rotate(-10.7881 94.0746 54.8049)" fill="white"/>
</g>
<g opacity="0.4">
<circle cx="94.0749" cy="54.8049" r="59.9327" transform="rotate(-10.7881 94.0749 54.8049)" fill="white"/>
<circle cx="94.0749" cy="54.8049" r="59.9327" transform="rotate(-10.7881 94.0749 54.8049)" fill="white"/>
</g>
<circle cx="93.2813" cy="54.992" r="46.773" transform="rotate(-10.7881 93.2813 54.992)" fill="#00CAFF"/>
<path opacity="0.964" fill-rule="evenodd" clip-rule="evenodd" d="M85.6731 22.4896C88.1303 21.748 90.4855 21.9835 92.7389 23.1963C94.2266 24.1298 95.8194 24.8174 97.517 25.2592C98.2176 25.2591 98.9131 25.1974 99.6035 25.074C101.754 24.4157 103.951 24.0679 106.194 24.0305C108.315 24.3239 109.995 25.3488 111.236 27.1051C112.214 28.7916 113.152 30.5006 114.052 32.2321C114.527 32.9522 115.168 33.4673 115.973 33.7775C118.26 34.5218 120.413 35.5511 122.431 36.8653C124.16 38.5772 124.886 40.657 124.611 43.1047C124.38 44.717 124.12 46.324 123.832 47.9255C123.715 48.7973 123.871 49.6171 124.3 50.3848C125.402 52.068 126.394 53.8139 127.279 55.6224C128.27 58.2487 127.849 60.6179 126.016 62.73C124.79 64.0105 123.516 65.2443 122.195 66.4315C121.56 67.0159 121.154 67.7305 120.977 68.575C120.777 70.516 120.533 72.4504 120.244 74.3782C119.256 77.8725 116.932 79.7785 113.27 80.0962C111.82 80.2781 110.382 80.5284 108.958 80.8471C108.547 80.9744 108.155 81.1434 107.781 81.3545C106.276 82.8134 104.818 84.3182 103.408 85.8691C100.973 87.9377 98.2431 88.4579 95.2181 87.4296C93.9337 86.8938 92.6856 86.2821 91.4736 85.5945C90.6937 85.2446 89.8877 84.9734 89.0553 84.781C88.3548 84.7812 87.6593 84.8429 86.9689 84.9662C84.8188 85.6245 82.6218 85.9724 80.378 86.0097C78.2576 85.7163 76.5771 84.6914 75.3364 82.9351C74.3586 81.2486 73.4201 79.5397 72.5206 77.8081C72.045 77.088 71.4046 76.5729 70.5994 76.2627C68.3123 75.5184 66.1594 74.4891 64.1408 73.175C62.4122 71.4631 61.6858 69.3832 61.9618 66.9355C62.1925 65.3232 62.4521 63.7163 62.7406 62.1147C62.8574 61.2429 62.7012 60.4232 62.272 59.6554C61.1708 57.9722 60.178 56.2263 59.2937 54.4178C58.3022 51.7916 58.723 49.4223 60.5562 47.3102C61.7828 46.0298 63.0565 44.7959 64.3774 43.6088C65.0121 43.0243 65.4181 42.3098 65.5956 41.4652C65.7953 39.5242 66.0397 37.5898 66.3287 35.662C67.3162 32.1677 69.6406 30.2617 73.302 29.9441C74.7525 29.7621 76.1901 29.5118 77.6146 29.1931C78.0255 29.0659 78.4176 28.8967 78.791 28.6858C80.2967 27.2268 81.7546 25.7219 83.1645 24.1711C83.944 23.4962 84.7801 22.9357 85.6731 22.4896ZM87.2147 26.8683C88.025 26.6201 88.8289 26.6321 89.6263 26.9043C91.3182 27.7493 93.0279 28.5562 94.7554 29.3251C96.1145 29.8193 97.5121 29.9777 98.9481 29.8005C100.438 29.5756 101.912 29.2711 103.371 28.8869C104.317 28.6667 105.272 28.6028 106.234 28.6953C106.639 28.9305 106.999 29.2157 107.317 29.5509C108.209 31.1168 109.076 32.6979 109.918 34.2941C110.849 35.8786 112.138 37.0724 113.783 37.876C115.384 38.4796 116.968 39.1217 118.535 39.8023C118.888 40.042 119.24 40.2816 119.592 40.5213C119.911 41.0567 120.069 41.6401 120.067 42.2714C119.836 43.8838 119.576 45.4907 119.288 47.0922C119.015 49.1264 119.38 51.0392 120.381 52.8306C121.239 54.2138 122.071 55.6127 122.878 57.0272C123.065 57.5109 123.16 58.0117 123.165 58.5301C122.956 59.0131 122.688 59.4652 122.362 59.8865C121.155 61.0957 119.918 62.2754 118.652 63.4253C117.555 64.6773 116.816 66.116 116.433 67.7418C116.214 69.4288 116.017 71.118 115.843 72.8098C115.731 74.0244 115.106 74.8279 113.968 75.2201C111.922 75.6216 109.875 76.0117 107.826 76.3905C106.425 76.7537 105.184 77.4151 104.102 78.3743C102.778 79.7246 101.485 81.1037 100.222 82.5117C99.2515 83.3574 98.1595 83.5655 96.9461 83.1359C95.2541 82.2909 93.5444 81.484 91.8169 80.7151C89.942 80.0903 88.0397 80.0044 86.1097 80.4575C84.5868 80.8736 83.0442 81.191 81.4819 81.4101C80.5703 81.5079 79.8282 81.2009 79.2554 80.4893C78.2917 78.7955 77.3531 77.0864 76.4396 75.3623C75.4858 73.9913 74.269 72.9253 72.789 72.1642C70.7696 71.4635 68.8334 70.5816 66.9805 69.5189C66.6615 68.9835 66.5032 68.4002 66.5056 67.7688C66.7363 66.1565 66.9959 64.5495 67.2844 62.948C67.5569 60.9138 67.1924 59.001 66.191 57.2096C65.3338 55.8264 64.5014 54.4275 63.6939 53.013C63.4595 52.4268 63.3922 51.8261 63.492 51.2109C64.8243 49.5413 66.3005 48.0092 67.9207 46.6149C69.0171 45.3629 69.7566 43.9242 70.1394 42.2985C70.355 40.3593 70.5993 38.4248 70.8725 36.4953C71.1435 35.6228 71.7207 35.0645 72.6044 34.8202C74.6499 34.4186 76.6974 34.0285 78.7467 33.6498C80.1473 33.2865 81.3887 32.6252 82.4708 31.6659C83.5742 30.5663 84.6291 29.4214 85.6355 28.2311C86.1161 27.7082 86.6425 27.254 87.2147 26.8683Z" fill="white" stroke="white" stroke-width="0.5"/>
</g>
</g>
<path d="M70.4304 112.455V127H67.7741L61.446 117.845H61.3395V127H58.2642V112.455H60.9631L67.2415 121.602H67.3693V112.455H70.4304ZM78.8434 127.213C77.7402 127.213 76.7861 126.979 75.9812 126.51C75.181 126.036 74.5631 125.378 74.1275 124.536C73.6919 123.688 73.4741 122.705 73.4741 121.588C73.4741 120.461 73.6919 119.476 74.1275 118.634C74.5631 117.786 75.181 117.128 75.9812 116.659C76.7861 116.186 77.7402 115.949 78.8434 115.949C79.9466 115.949 80.8983 116.186 81.6985 116.659C82.5034 117.128 83.1237 117.786 83.5593 118.634C83.9949 119.476 84.2127 120.461 84.2127 121.588C84.2127 122.705 83.9949 123.688 83.5593 124.536C83.1237 125.378 82.5034 126.036 81.6985 126.51C80.8983 126.979 79.9466 127.213 78.8434 127.213ZM78.8576 124.869C79.3595 124.869 79.7785 124.727 80.1147 124.443C80.4509 124.154 80.7042 123.761 80.8746 123.264C81.0498 122.767 81.1374 122.201 81.1374 121.567C81.1374 120.932 81.0498 120.366 80.8746 119.869C80.7042 119.372 80.4509 118.979 80.1147 118.69C79.7785 118.402 79.3595 118.257 78.8576 118.257C78.351 118.257 77.9248 118.402 77.5792 118.69C77.2383 118.979 76.9802 119.372 76.805 119.869C76.6346 120.366 76.5494 120.932 76.5494 121.567C76.5494 122.201 76.6346 122.767 76.805 123.264C76.9802 123.761 77.2383 124.154 77.5792 124.443C77.9248 124.727 78.351 124.869 78.8576 124.869ZM96.9989 116.091L93.185 127H89.7759L85.962 116.091H89.158L91.4237 123.896H91.5373L93.7958 116.091H96.9989ZM104.125 127.213C103.021 127.213 102.067 126.979 101.262 126.51C100.462 126.036 99.8443 125.378 99.4087 124.536C98.9731 123.688 98.7553 122.705 98.7553 121.588C98.7553 120.461 98.9731 119.476 99.4087 118.634C99.8443 117.786 100.462 117.128 101.262 116.659C102.067 116.186 103.021 115.949 104.125 115.949C105.228 115.949 106.18 116.186 106.98 116.659C107.785 117.128 108.405 117.786 108.841 118.634C109.276 119.476 109.494 120.461 109.494 121.588C109.494 122.705 109.276 123.688 108.841 124.536C108.405 125.378 107.785 126.036 106.98 126.51C106.18 126.979 105.228 127.213 104.125 127.213ZM104.139 124.869C104.641 124.869 105.06 124.727 105.396 124.443C105.732 124.154 105.985 123.761 106.156 123.264C106.331 122.767 106.419 122.201 106.419 121.567C106.419 120.932 106.331 120.366 106.156 119.869C105.985 119.372 105.732 118.979 105.396 118.69C105.06 118.402 104.641 118.257 104.139 118.257C103.632 118.257 103.206 118.402 102.86 118.69C102.52 118.979 102.261 119.372 102.086 119.869C101.916 120.366 101.831 120.932 101.831 121.567C101.831 122.201 101.916 122.767 102.086 123.264C102.261 123.761 102.52 124.154 102.86 124.443C103.206 124.727 103.632 124.869 104.139 124.869Z" fill="white"/>
<path d="M20.2308 138.273V147H19.174V138.273H20.2308ZM23.2191 143.062V147H22.2134V140.455H23.185V141.477H23.2702C23.4237 141.145 23.6566 140.878 23.9691 140.676C24.2816 140.472 24.685 140.369 25.1793 140.369C25.6225 140.369 26.0103 140.46 26.3427 140.642C26.6751 140.821 26.9336 141.094 27.1183 141.46C27.3029 141.824 27.3952 142.284 27.3952 142.841V147H26.3896V142.909C26.3896 142.395 26.256 141.994 25.989 141.707C25.7219 141.418 25.3555 141.273 24.8896 141.273C24.5685 141.273 24.2816 141.342 24.0288 141.482C23.7788 141.621 23.5813 141.824 23.4364 142.091C23.2915 142.358 23.2191 142.682 23.2191 143.062ZM31.7045 147.136C31.1591 147.136 30.6776 146.999 30.2599 146.723C29.8423 146.445 29.5156 146.053 29.2798 145.547C29.044 145.038 28.9261 144.438 28.9261 143.744C28.9261 143.057 29.044 142.46 29.2798 141.955C29.5156 141.449 29.8438 141.058 30.2642 140.783C30.6847 140.507 31.1705 140.369 31.7216 140.369C32.1477 140.369 32.4844 140.44 32.7315 140.582C32.9815 140.722 33.1719 140.881 33.3026 141.06C33.4361 141.236 33.5398 141.381 33.6136 141.494H33.6989V138.273H34.7045V147H33.733V145.994H33.6136C33.5398 146.114 33.4347 146.264 33.2983 146.446C33.1619 146.625 32.9673 146.786 32.7145 146.928C32.4616 147.067 32.125 147.136 31.7045 147.136ZM31.8409 146.233C32.2443 146.233 32.5852 146.128 32.8636 145.918C33.142 145.705 33.3537 145.411 33.4986 145.036C33.6435 144.658 33.7159 144.222 33.7159 143.727C33.7159 143.239 33.6449 142.811 33.5028 142.445C33.3608 142.075 33.1506 141.788 32.8722 141.584C32.5938 141.376 32.25 141.273 31.8409 141.273C31.4148 141.273 31.0597 141.382 30.7756 141.601C30.4943 141.817 30.2827 142.111 30.1406 142.483C30.0014 142.852 29.9318 143.267 29.9318 143.727C29.9318 144.193 30.0028 144.616 30.1449 144.997C30.2898 145.375 30.5028 145.676 30.7841 145.901C31.0682 146.122 31.4205 146.233 31.8409 146.233ZM36.6861 147V140.455H37.6918V147H36.6861ZM37.1974 139.364C37.0014 139.364 36.8324 139.297 36.6903 139.163C36.5511 139.03 36.4815 138.869 36.4815 138.682C36.4815 138.494 36.5511 138.334 36.6903 138.2C36.8324 138.067 37.0014 138 37.1974 138C37.3935 138 37.5611 138.067 37.7003 138.2C37.8423 138.334 37.9134 138.494 37.9134 138.682C37.9134 138.869 37.8423 139.03 37.7003 139.163C37.5611 139.297 37.3935 139.364 37.1974 139.364ZM42.1928 147.136C41.5792 147.136 41.0508 146.991 40.6076 146.702C40.1644 146.412 39.8235 146.013 39.5849 145.504C39.3462 144.996 39.2269 144.415 39.2269 143.761C39.2269 143.097 39.3491 142.51 39.5934 142.001C39.8406 141.49 40.1843 141.091 40.6246 140.804C41.0678 140.514 41.5849 140.369 42.1758 140.369C42.636 140.369 43.0508 140.455 43.4201 140.625C43.7894 140.795 44.092 141.034 44.3278 141.341C44.5636 141.648 44.7099 142.006 44.7667 142.415H43.761C43.6843 142.116 43.5138 141.852 43.2496 141.622C42.9883 141.389 42.636 141.273 42.1928 141.273C41.8008 141.273 41.457 141.375 41.1616 141.58C40.869 141.781 40.6403 142.067 40.4755 142.436C40.3136 142.803 40.2326 143.233 40.2326 143.727C40.2326 144.233 40.3121 144.673 40.4712 145.048C40.6332 145.423 40.8604 145.714 41.1531 145.922C41.4485 146.129 41.7951 146.233 42.1928 146.233C42.4542 146.233 42.6914 146.188 42.9045 146.097C43.1175 146.006 43.2979 145.875 43.4457 145.705C43.5934 145.534 43.6985 145.33 43.761 145.091H44.7667C44.7099 145.477 44.5692 145.825 44.3448 146.135C44.1232 146.442 43.8292 146.686 43.4627 146.868C43.0991 147.047 42.6758 147.136 42.1928 147.136ZM48.163 147.153C47.7482 147.153 47.3718 147.075 47.0337 146.919C46.6957 146.76 46.4272 146.531 46.2283 146.233C46.0295 145.932 45.93 145.568 45.93 145.142C45.93 144.767 46.0039 144.463 46.1516 144.23C46.2994 143.994 46.4968 143.81 46.744 143.676C46.9911 143.543 47.2638 143.443 47.5621 143.378C47.8633 143.31 48.1658 143.256 48.4698 143.216C48.8675 143.165 49.19 143.126 49.4371 143.101C49.6871 143.072 49.869 143.026 49.9826 142.96C50.0991 142.895 50.1573 142.781 50.1573 142.619V142.585C50.1573 142.165 50.0423 141.838 49.8121 141.605C49.5849 141.372 49.2397 141.256 48.7766 141.256C48.2965 141.256 47.9201 141.361 47.6474 141.571C47.3746 141.781 47.1829 142.006 47.0721 142.244L46.1175 141.903C46.288 141.506 46.5153 141.196 46.7994 140.974C47.0863 140.75 47.3988 140.594 47.7369 140.506C48.0778 140.415 48.413 140.369 48.7425 140.369C48.9528 140.369 49.1942 140.395 49.467 140.446C49.7425 140.494 50.0082 140.595 50.2638 140.749C50.5224 140.902 50.7369 141.134 50.9073 141.443C51.0778 141.753 51.163 142.168 51.163 142.688V147H50.1573V146.114H50.1062C50.038 146.256 49.9244 146.408 49.7653 146.57C49.6062 146.732 49.3945 146.869 49.1303 146.983C48.8661 147.097 48.5437 147.153 48.163 147.153ZM48.3164 146.25C48.7141 146.25 49.0494 146.172 49.3221 146.016C49.5977 145.859 49.805 145.658 49.9442 145.411C50.0863 145.163 50.1573 144.903 50.1573 144.631V143.71C50.1147 143.761 50.021 143.808 49.8761 143.851C49.734 143.891 49.5692 143.926 49.3817 143.957C49.1971 143.986 49.0167 144.011 48.8406 144.034C48.6673 144.054 48.5266 144.071 48.4187 144.085C48.1573 144.119 47.913 144.175 47.6857 144.251C47.4613 144.325 47.2795 144.437 47.1403 144.588C47.0039 144.736 46.9357 144.937 46.9357 145.193C46.9357 145.543 47.065 145.807 47.3235 145.986C47.5849 146.162 47.9158 146.25 48.3164 146.25ZM58.2997 147.153C57.8849 147.153 57.5085 147.075 57.1705 146.919C56.8324 146.76 56.5639 146.531 56.3651 146.233C56.1662 145.932 56.0668 145.568 56.0668 145.142C56.0668 144.767 56.1406 144.463 56.2884 144.23C56.4361 143.994 56.6335 143.81 56.8807 143.676C57.1278 143.543 57.4006 143.443 57.6989 143.378C58 143.31 58.3026 143.256 58.6065 143.216C59.0043 143.165 59.3267 143.126 59.5739 143.101C59.8239 143.072 60.0057 143.026 60.1193 142.96C60.2358 142.895 60.294 142.781 60.294 142.619V142.585C60.294 142.165 60.179 141.838 59.9489 141.605C59.7216 141.372 59.3764 141.256 58.9134 141.256C58.4332 141.256 58.0568 141.361 57.7841 141.571C57.5114 141.781 57.3196 142.006 57.2088 142.244L56.2543 141.903C56.4247 141.506 56.652 141.196 56.9361 140.974C57.223 140.75 57.5355 140.594 57.8736 140.506C58.2145 140.415 58.5497 140.369 58.8793 140.369C59.0895 140.369 59.331 140.395 59.6037 140.446C59.8793 140.494 60.1449 140.595 60.4006 140.749C60.6591 140.902 60.8736 141.134 61.044 141.443C61.2145 141.753 61.2997 142.168 61.2997 142.688V147H60.294V146.114H60.2429C60.1747 146.256 60.0611 146.408 59.902 146.57C59.7429 146.732 59.5313 146.869 59.267 146.983C59.0028 147.097 58.6804 147.153 58.2997 147.153ZM58.4531 146.25C58.8509 146.25 59.1861 146.172 59.4588 146.016C59.7344 145.859 59.9418 145.658 60.081 145.411C60.223 145.163 60.294 144.903 60.294 144.631V143.71C60.2514 143.761 60.1577 143.808 60.0128 143.851C59.8707 143.891 59.706 143.926 59.5185 143.957C59.3338 143.986 59.1534 144.011 58.9773 144.034C58.804 144.054 58.6634 144.071 58.5554 144.085C58.294 144.119 58.0497 144.175 57.8224 144.251C57.598 144.325 57.4162 144.437 57.277 144.588C57.1406 144.736 57.0724 144.937 57.0724 145.193C57.0724 145.543 57.2017 145.807 57.4602 145.986C57.7216 146.162 58.0526 146.25 58.4531 146.25ZM68.4364 147.153C68.0217 147.153 67.6452 147.075 67.3072 146.919C66.9691 146.76 66.7006 146.531 66.5018 146.233C66.3029 145.932 66.2035 145.568 66.2035 145.142C66.2035 144.767 66.2773 144.463 66.4251 144.23C66.5728 143.994 66.7702 143.81 67.0174 143.676C67.2646 143.543 67.5373 143.443 67.8356 143.378C68.1367 143.31 68.4393 143.256 68.7433 143.216C69.141 143.165 69.4634 143.126 69.7106 143.101C69.9606 143.072 70.1424 143.026 70.256 142.96C70.3725 142.895 70.4308 142.781 70.4308 142.619V142.585C70.4308 142.165 70.3157 141.838 70.0856 141.605C69.8583 141.372 69.5131 141.256 69.0501 141.256C68.57 141.256 68.1935 141.361 67.9208 141.571C67.6481 141.781 67.4563 142.006 67.3455 142.244L66.391 141.903C66.5614 141.506 66.7887 141.196 67.0728 140.974C67.3597 140.75 67.6722 140.594 68.0103 140.506C68.3512 140.415 68.6864 140.369 69.016 140.369C69.2262 140.369 69.4677 140.395 69.7404 140.446C70.016 140.494 70.2816 140.595 70.5373 140.749C70.7958 140.902 71.0103 141.134 71.1808 141.443C71.3512 141.753 71.4364 142.168 71.4364 142.688V147H70.4308V146.114H70.3796C70.3114 146.256 70.1978 146.408 70.0387 146.57C69.8796 146.732 69.668 146.869 69.4038 146.983C69.1396 147.097 68.8171 147.153 68.4364 147.153ZM68.5898 146.25C68.9876 146.25 69.3228 146.172 69.5955 146.016C69.8711 145.859 70.0785 145.658 70.2177 145.411C70.3597 145.163 70.4308 144.903 70.4308 144.631V143.71C70.3881 143.761 70.2944 143.808 70.1495 143.851C70.0075 143.891 69.8427 143.926 69.6552 143.957C69.4705 143.986 69.2901 144.011 69.114 144.034C68.9407 144.054 68.8001 144.071 68.6921 144.085C68.4308 144.119 68.1864 144.175 67.9592 144.251C67.7347 144.325 67.5529 144.437 67.4137 144.588C67.2773 144.736 67.2092 144.937 67.2092 145.193C67.2092 145.543 67.3384 145.807 67.5969 145.986C67.8583 146.162 68.1893 146.25 68.5898 146.25ZM75.7436 147.136C75.1982 147.136 74.7166 146.999 74.299 146.723C73.8814 146.445 73.5547 146.053 73.3189 145.547C73.0831 145.038 72.9652 144.438 72.9652 143.744C72.9652 143.057 73.0831 142.46 73.3189 141.955C73.5547 141.449 73.8828 141.058 74.3033 140.783C74.7237 140.507 75.2095 140.369 75.7607 140.369C76.1868 140.369 76.5234 140.44 76.7706 140.582C77.0206 140.722 77.2109 140.881 77.3416 141.06C77.4751 141.236 77.5788 141.381 77.6527 141.494H77.7379V138.273H78.7436V147H77.772V145.994H77.6527C77.5788 146.114 77.4737 146.264 77.3374 146.446C77.201 146.625 77.0064 146.786 76.7536 146.928C76.5007 147.067 76.1641 147.136 75.7436 147.136ZM75.88 146.233C76.2834 146.233 76.6243 146.128 76.9027 145.918C77.1811 145.705 77.3928 145.411 77.5376 145.036C77.6825 144.658 77.755 144.222 77.755 143.727C77.755 143.239 77.6839 142.811 77.5419 142.445C77.3999 142.075 77.1896 141.788 76.9112 141.584C76.6328 141.376 76.2891 141.273 75.88 141.273C75.4538 141.273 75.0987 141.382 74.8146 141.601C74.5334 141.817 74.3217 142.111 74.1797 142.483C74.0405 142.852 73.9709 143.267 73.9709 143.727C73.9709 144.193 74.0419 144.616 74.1839 144.997C74.3288 145.375 74.5419 145.676 74.8232 145.901C75.1072 146.122 75.4595 146.233 75.88 146.233ZM80.7251 147V140.455H81.7308V147H80.7251ZM81.2365 139.364C81.0405 139.364 80.8714 139.297 80.7294 139.163C80.5902 139.03 80.5206 138.869 80.5206 138.682C80.5206 138.494 80.5902 138.334 80.7294 138.2C80.8714 138.067 81.0405 138 81.2365 138C81.4325 138 81.6001 138.067 81.7393 138.2C81.8814 138.334 81.9524 138.494 81.9524 138.682C81.9524 138.869 81.8814 139.03 81.7393 139.163C81.6001 139.297 81.4325 139.364 81.2365 139.364ZM86.2319 147.136C85.6183 147.136 85.0898 146.991 84.6467 146.702C84.2035 146.412 83.8626 146.013 83.6239 145.504C83.3853 144.996 83.266 144.415 83.266 143.761C83.266 143.097 83.3881 142.51 83.6325 142.001C83.8796 141.49 84.2234 141.091 84.6637 140.804C85.1069 140.514 85.6239 140.369 86.2148 140.369C86.6751 140.369 87.0898 140.455 87.4592 140.625C87.8285 140.795 88.131 141.034 88.3668 141.341C88.6026 141.648 88.7489 142.006 88.8058 142.415H87.8001C87.7234 142.116 87.5529 141.852 87.2887 141.622C87.0273 141.389 86.6751 141.273 86.2319 141.273C85.8398 141.273 85.4961 141.375 85.2006 141.58C84.908 141.781 84.6793 142.067 84.5146 142.436C84.3526 142.803 84.2717 143.233 84.2717 143.727C84.2717 144.233 84.3512 144.673 84.5103 145.048C84.6722 145.423 84.8995 145.714 85.1921 145.922C85.4876 146.129 85.8342 146.233 86.2319 146.233C86.4933 146.233 86.7305 146.188 86.9435 146.097C87.1566 146.006 87.337 145.875 87.4847 145.705C87.6325 145.534 87.7376 145.33 87.8001 145.091H88.8058C88.7489 145.477 88.6083 145.825 88.3839 146.135C88.1623 146.442 87.8683 146.686 87.5018 146.868C87.1381 147.047 86.7148 147.136 86.2319 147.136ZM85.7546 146.966H86.5898L86.5217 147.307C86.7433 147.341 86.9464 147.433 87.131 147.584C87.3157 147.737 87.408 147.98 87.408 148.312C87.408 148.679 87.256 148.977 86.9521 149.207C86.6509 149.44 86.2063 149.557 85.6183 149.557L85.5842 148.892C85.8484 148.892 86.0671 148.849 86.2404 148.764C86.4165 148.682 86.5046 148.543 86.5046 148.347C86.5046 148.151 86.4322 148.017 86.2873 147.946C86.1424 147.875 85.908 147.827 85.5842 147.801L85.7546 146.966ZM92.2021 147.153C91.7873 147.153 91.4109 147.075 91.0728 146.919C90.7347 146.76 90.4663 146.531 90.2674 146.233C90.0685 145.932 89.9691 145.568 89.9691 145.142C89.9691 144.767 90.043 144.463 90.1907 144.23C90.3384 143.994 90.5359 143.81 90.783 143.676C91.0302 143.543 91.3029 143.443 91.6012 143.378C91.9023 143.31 92.2049 143.256 92.5089 143.216C92.9066 143.165 93.229 143.126 93.4762 143.101C93.7262 143.072 93.908 143.026 94.0217 142.96C94.1381 142.895 94.1964 142.781 94.1964 142.619V142.585C94.1964 142.165 94.0813 141.838 93.8512 141.605C93.6239 141.372 93.2788 141.256 92.8157 141.256C92.3356 141.256 91.9592 141.361 91.6864 141.571C91.4137 141.781 91.2219 142.006 91.1112 142.244L90.1566 141.903C90.3271 141.506 90.5543 141.196 90.8384 140.974C91.1254 140.75 91.4379 140.594 91.7759 140.506C92.1168 140.415 92.4521 140.369 92.7816 140.369C92.9918 140.369 93.2333 140.395 93.506 140.446C93.7816 140.494 94.0472 140.595 94.3029 140.749C94.5614 140.902 94.7759 141.134 94.9464 141.443C95.1168 141.753 95.2021 142.168 95.2021 142.688V147H94.1964V146.114H94.1452C94.0771 146.256 93.9634 146.408 93.8043 146.57C93.6452 146.732 93.4336 146.869 93.1694 146.983C92.9052 147.097 92.5827 147.153 92.2021 147.153ZM92.3555 146.25C92.7532 146.25 93.0884 146.172 93.3612 146.016C93.6367 145.859 93.8441 145.658 93.9833 145.411C94.1254 145.163 94.1964 144.903 94.1964 144.631V143.71C94.1538 143.761 94.06 143.808 93.9151 143.851C93.7731 143.891 93.6083 143.926 93.4208 143.957C93.2362 143.986 93.0558 144.011 92.8796 144.034C92.7063 144.054 92.5657 144.071 92.4577 144.085C92.1964 144.119 91.9521 144.175 91.7248 144.251C91.5004 144.325 91.3185 144.437 91.1793 144.588C91.043 144.736 90.9748 144.937 90.9748 145.193C90.9748 145.543 91.104 145.807 91.3626 145.986C91.6239 146.162 91.9549 146.25 92.3555 146.25ZM91.5373 139.67L90.7532 139.636C90.7532 139.202 90.8768 138.847 91.1239 138.571C91.3739 138.293 91.6822 138.153 92.0487 138.153C92.2106 138.153 92.354 138.182 92.479 138.239C92.604 138.293 92.7234 138.355 92.837 138.426C92.9506 138.497 93.0671 138.561 93.1864 138.618C93.3086 138.672 93.4464 138.699 93.5998 138.699C93.7617 138.699 93.8981 138.636 94.0089 138.511C94.1225 138.384 94.1793 138.23 94.1793 138.051L94.9464 138.119C94.9464 138.562 94.8214 138.915 94.5714 139.176C94.3242 139.437 94.0174 139.568 93.6509 139.568C93.4549 139.568 93.293 139.541 93.1651 139.487C93.0373 139.43 92.9237 139.366 92.8242 139.295C92.7248 139.224 92.6197 139.162 92.5089 139.108C92.3981 139.051 92.2617 139.023 92.0998 139.023C91.9379 139.023 91.8029 139.087 91.695 139.214C91.5898 139.339 91.5373 139.491 91.5373 139.67ZM99.6967 147.136C99.1058 147.136 98.5874 146.996 98.1413 146.714C97.6982 146.433 97.3516 146.04 97.1016 145.534C96.8544 145.028 96.7308 144.437 96.7308 143.761C96.7308 143.08 96.8544 142.484 97.1016 141.976C97.3516 141.467 97.6982 141.072 98.1413 140.791C98.5874 140.51 99.1058 140.369 99.6967 140.369C100.288 140.369 100.805 140.51 101.248 140.791C101.694 141.072 102.04 141.467 102.288 141.976C102.538 142.484 102.663 143.08 102.663 143.761C102.663 144.437 102.538 145.028 102.288 145.534C102.04 146.04 101.694 146.433 101.248 146.714C100.805 146.996 100.288 147.136 99.6967 147.136ZM99.6967 146.233C100.146 146.233 100.515 146.118 100.805 145.888C101.094 145.658 101.309 145.355 101.448 144.98C101.587 144.605 101.657 144.199 101.657 143.761C101.657 143.324 101.587 142.916 101.448 142.538C101.309 142.161 101.094 141.855 100.805 141.622C100.515 141.389 100.146 141.273 99.6967 141.273C99.2479 141.273 98.8786 141.389 98.5888 141.622C98.299 141.855 98.0845 142.161 97.9453 142.538C97.8061 142.916 97.7365 143.324 97.7365 143.761C97.7365 144.199 97.8061 144.605 97.9453 144.98C98.0845 145.355 98.299 145.658 98.5888 145.888C98.8786 146.118 99.2479 146.233 99.6967 146.233ZM107.573 147V140.455H108.544V141.443H108.613C108.732 141.119 108.948 140.857 109.26 140.655C109.573 140.453 109.925 140.352 110.317 140.352C110.391 140.352 110.483 140.354 110.594 140.357C110.705 140.359 110.789 140.364 110.846 140.369V141.392C110.811 141.384 110.733 141.371 110.611 141.354C110.492 141.334 110.365 141.324 110.232 141.324C109.914 141.324 109.63 141.391 109.38 141.524C109.132 141.655 108.936 141.837 108.792 142.07C108.65 142.3 108.578 142.562 108.578 142.858V147H107.573ZM114.583 147.136C113.952 147.136 113.408 146.997 112.951 146.719C112.496 146.438 112.145 146.045 111.898 145.543C111.654 145.037 111.532 144.449 111.532 143.778C111.532 143.108 111.654 142.517 111.898 142.006C112.145 141.491 112.489 141.091 112.929 140.804C113.373 140.514 113.89 140.369 114.48 140.369C114.821 140.369 115.158 140.426 115.49 140.54C115.823 140.653 116.125 140.838 116.398 141.094C116.671 141.347 116.888 141.682 117.05 142.099C117.212 142.517 117.293 143.031 117.293 143.642V144.068H112.248V143.199H116.27C116.27 142.83 116.196 142.5 116.049 142.21C115.904 141.92 115.696 141.692 115.426 141.524C115.159 141.357 114.844 141.273 114.48 141.273C114.08 141.273 113.733 141.372 113.441 141.571C113.151 141.767 112.928 142.023 112.772 142.338C112.615 142.653 112.537 142.991 112.537 143.352V143.932C112.537 144.426 112.623 144.845 112.793 145.189C112.966 145.53 113.206 145.79 113.513 145.969C113.82 146.145 114.176 146.233 114.583 146.233C114.847 146.233 115.086 146.196 115.299 146.122C115.515 146.045 115.701 145.932 115.857 145.781C116.013 145.628 116.134 145.437 116.219 145.21L117.191 145.483C117.088 145.812 116.917 146.102 116.675 146.352C116.434 146.599 116.135 146.793 115.78 146.932C115.425 147.068 115.026 147.136 114.583 147.136ZM121.482 147.136C120.868 147.136 120.34 146.991 119.897 146.702C119.453 146.412 119.113 146.013 118.874 145.504C118.635 144.996 118.516 144.415 118.516 143.761C118.516 143.097 118.638 142.51 118.882 142.001C119.13 141.49 119.473 141.091 119.914 140.804C120.357 140.514 120.874 140.369 121.465 140.369C121.925 140.369 122.34 140.455 122.709 140.625C123.078 140.795 123.381 141.034 123.617 141.341C123.853 141.648 123.999 142.006 124.056 142.415H123.05C122.973 142.116 122.803 141.852 122.539 141.622C122.277 141.389 121.925 141.273 121.482 141.273C121.09 141.273 120.746 141.375 120.451 141.58C120.158 141.781 119.929 142.067 119.765 142.436C119.603 142.803 119.522 143.233 119.522 143.727C119.522 144.233 119.601 144.673 119.76 145.048C119.922 145.423 120.15 145.714 120.442 145.922C120.738 146.129 121.084 146.233 121.482 146.233C121.743 146.233 121.98 146.188 122.194 146.097C122.407 146.006 122.587 145.875 122.735 145.705C122.882 145.534 122.988 145.33 123.05 145.091H124.056C123.999 145.477 123.858 145.825 123.634 146.135C123.412 146.442 123.118 146.686 122.752 146.868C122.388 147.047 121.965 147.136 121.482 147.136ZM128.27 147.136C127.64 147.136 127.096 146.997 126.638 146.719C126.184 146.438 125.833 146.045 125.586 145.543C125.341 145.037 125.219 144.449 125.219 143.778C125.219 143.108 125.341 142.517 125.586 142.006C125.833 141.491 126.176 141.091 126.617 140.804C127.06 140.514 127.577 140.369 128.168 140.369C128.509 140.369 128.846 140.426 129.178 140.54C129.51 140.653 129.813 140.838 130.086 141.094C130.358 141.347 130.576 141.682 130.738 142.099C130.9 142.517 130.98 143.031 130.98 143.642V144.068H125.935V143.199H129.958C129.958 142.83 129.884 142.5 129.736 142.21C129.591 141.92 129.384 141.692 129.114 141.524C128.847 141.357 128.532 141.273 128.168 141.273C127.767 141.273 127.421 141.372 127.128 141.571C126.838 141.767 126.615 142.023 126.459 142.338C126.303 142.653 126.225 142.991 126.225 143.352V143.932C126.225 144.426 126.31 144.845 126.48 145.189C126.654 145.53 126.894 145.79 127.201 145.969C127.507 146.145 127.864 146.233 128.27 146.233C128.534 146.233 128.773 146.196 128.986 146.122C129.202 146.045 129.388 145.932 129.544 145.781C129.701 145.628 129.821 145.437 129.907 145.21L130.878 145.483C130.776 145.812 130.604 146.102 130.363 146.352C130.121 146.599 129.823 146.793 129.468 146.932C129.113 147.068 128.713 147.136 128.27 147.136ZM133.516 143.062V147H132.51V140.455H133.482V141.477H133.567C133.721 141.145 133.953 140.878 134.266 140.676C134.578 140.472 134.982 140.369 135.476 140.369C135.919 140.369 136.307 140.46 136.64 140.642C136.972 140.821 137.23 141.094 137.415 141.46C137.6 141.824 137.692 142.284 137.692 142.841V147H136.686V142.909C136.686 142.395 136.553 141.994 136.286 141.707C136.019 141.418 135.652 141.273 135.186 141.273C134.865 141.273 134.578 141.342 134.326 141.482C134.076 141.621 133.878 141.824 133.733 142.091C133.588 142.358 133.516 142.682 133.516 143.062ZM142.376 140.455V141.307H138.984V140.455H142.376ZM139.973 138.886H140.979V145.125C140.979 145.409 141.02 145.622 141.102 145.764C141.188 145.903 141.295 145.997 141.426 146.045C141.56 146.091 141.7 146.114 141.848 146.114C141.959 146.114 142.05 146.108 142.121 146.097C142.192 146.082 142.249 146.071 142.291 146.062L142.496 146.966C142.428 146.991 142.332 147.017 142.21 147.043C142.088 147.071 141.933 147.085 141.746 147.085C141.462 147.085 141.183 147.024 140.911 146.902C140.641 146.78 140.416 146.594 140.237 146.344C140.061 146.094 139.973 145.778 139.973 145.398V138.886ZM146.563 147.136C145.933 147.136 145.388 146.997 144.931 146.719C144.477 146.438 144.126 146.045 143.879 145.543C143.634 145.037 143.512 144.449 143.512 143.778C143.512 143.108 143.634 142.517 143.879 142.006C144.126 141.491 144.469 141.091 144.91 140.804C145.353 140.514 145.87 140.369 146.461 140.369C146.802 140.369 147.138 140.426 147.471 140.54C147.803 140.653 148.106 140.838 148.379 141.094C148.651 141.347 148.869 141.682 149.031 142.099C149.192 142.517 149.273 143.031 149.273 143.642V144.068H144.228V143.199H148.251C148.251 142.83 148.177 142.5 148.029 142.21C147.884 141.92 147.677 141.692 147.407 141.524C147.14 141.357 146.825 141.273 146.461 141.273C146.06 141.273 145.714 141.372 145.421 141.571C145.131 141.767 144.908 142.023 144.752 142.338C144.596 142.653 144.518 142.991 144.518 143.352V143.932C144.518 144.426 144.603 144.845 144.773 145.189C144.947 145.53 145.187 145.79 145.494 145.969C145.8 146.145 146.157 146.233 146.563 146.233C146.827 146.233 147.066 146.196 147.279 146.122C147.495 146.045 147.681 145.932 147.837 145.781C147.994 145.628 148.114 145.437 148.2 145.21L149.171 145.483C149.069 145.812 148.897 146.102 148.656 146.352C148.414 146.599 148.116 146.793 147.761 146.932C147.406 147.068 147.006 147.136 146.563 147.136ZM42.5795 162.136C42.0341 162.136 41.5526 161.999 41.1349 161.723C40.7173 161.445 40.3906 161.053 40.1548 160.547C39.919 160.038 39.8011 159.438 39.8011 158.744C39.8011 158.057 39.919 157.46 40.1548 156.955C40.3906 156.449 40.7188 156.058 41.1392 155.783C41.5597 155.507 42.0455 155.369 42.5966 155.369C43.0227 155.369 43.3594 155.44 43.6065 155.582C43.8565 155.722 44.0469 155.881 44.1776 156.06C44.3111 156.236 44.4148 156.381 44.4886 156.494H44.5739V153.273H45.5795V162H44.608V160.994H44.4886C44.4148 161.114 44.3097 161.264 44.1733 161.446C44.0369 161.625 43.8423 161.786 43.5895 161.928C43.3366 162.067 43 162.136 42.5795 162.136ZM42.7159 161.233C43.1193 161.233 43.4602 161.128 43.7386 160.918C44.017 160.705 44.2287 160.411 44.3736 160.036C44.5185 159.658 44.5909 159.222 44.5909 158.727C44.5909 158.239 44.5199 157.811 44.3778 157.445C44.2358 157.075 44.0256 156.788 43.7472 156.584C43.4688 156.376 43.125 156.273 42.7159 156.273C42.2898 156.273 41.9347 156.382 41.6506 156.601C41.3693 156.817 41.1577 157.111 41.0156 157.483C40.8764 157.852 40.8068 158.267 40.8068 158.727C40.8068 159.193 40.8778 159.616 41.0199 159.997C41.1648 160.375 41.3778 160.676 41.6591 160.901C41.9432 161.122 42.2955 161.233 42.7159 161.233ZM50.3054 162.136C49.6747 162.136 49.1307 161.997 48.6733 161.719C48.2188 161.438 47.8679 161.045 47.6207 160.543C47.3764 160.037 47.2543 159.449 47.2543 158.778C47.2543 158.108 47.3764 157.517 47.6207 157.006C47.8679 156.491 48.2116 156.091 48.652 155.804C49.0952 155.514 49.6122 155.369 50.2031 155.369C50.544 155.369 50.8807 155.426 51.2131 155.54C51.5455 155.653 51.848 155.838 52.1207 156.094C52.3935 156.347 52.6108 156.682 52.7727 157.099C52.9347 157.517 53.0156 158.031 53.0156 158.642V159.068H47.9702V158.199H51.9929C51.9929 157.83 51.919 157.5 51.7713 157.21C51.6264 156.92 51.419 156.692 51.1491 156.524C50.8821 156.357 50.5668 156.273 50.2031 156.273C49.8026 156.273 49.456 156.372 49.1634 156.571C48.8736 156.767 48.6506 157.023 48.4943 157.338C48.3381 157.653 48.2599 157.991 48.2599 158.352V158.932C48.2599 159.426 48.3452 159.845 48.5156 160.189C48.6889 160.53 48.929 160.79 49.2358 160.969C49.5426 161.145 49.8991 161.233 50.3054 161.233C50.5696 161.233 50.8082 161.196 51.0213 161.122C51.2372 161.045 51.4233 160.932 51.5795 160.781C51.7358 160.628 51.8565 160.437 51.9418 160.21L52.9134 160.483C52.8111 160.812 52.6392 161.102 52.3977 161.352C52.1563 161.599 51.858 161.793 51.5028 161.932C51.1477 162.068 50.7486 162.136 50.3054 162.136ZM62.0455 159.324V155.455H63.0511V162H62.0455V160.892H61.9773C61.8239 161.224 61.5852 161.507 61.2614 161.74C60.9375 161.97 60.5284 162.085 60.0341 162.085C59.625 162.085 59.2614 161.996 58.9432 161.817C58.625 161.635 58.375 161.362 58.1932 160.999C58.0114 160.632 57.9205 160.17 57.9205 159.614V155.455H58.9261V159.545C58.9261 160.023 59.0597 160.403 59.3267 160.688C59.5966 160.972 59.9403 161.114 60.358 161.114C60.608 161.114 60.8622 161.05 61.1207 160.922C61.3821 160.794 61.6009 160.598 61.777 160.334C61.956 160.07 62.0455 159.733 62.0455 159.324ZM64.8931 162V155.455H65.8647V156.477H65.9499C66.0863 156.128 66.3065 155.857 66.6104 155.663C66.9144 155.467 67.2795 155.369 67.7056 155.369C68.1374 155.369 68.4968 155.467 68.7837 155.663C69.0735 155.857 69.2994 156.128 69.4613 156.477H69.5295C69.6971 156.139 69.9485 155.871 70.2837 155.672C70.619 155.47 71.021 155.369 71.4897 155.369C72.0749 155.369 72.5536 155.553 72.9258 155.919C73.2979 156.283 73.484 156.849 73.484 157.619V162H72.4783V157.619C72.4783 157.136 72.3462 156.791 72.082 156.584C71.8178 156.376 71.5067 156.273 71.1488 156.273C70.6886 156.273 70.332 156.412 70.0792 156.69C69.8263 156.966 69.6999 157.315 69.6999 157.739V162H68.6772V157.517C68.6772 157.145 68.5565 156.845 68.315 156.618C68.0735 156.388 67.7624 156.273 67.3817 156.273C67.1204 156.273 66.8761 156.342 66.6488 156.482C66.4244 156.621 66.2425 156.814 66.1033 157.061C65.967 157.305 65.8988 157.588 65.8988 157.909V162H64.8931ZM81.3398 164.591C80.854 164.591 80.4364 164.528 80.087 164.403C79.7376 164.281 79.4464 164.119 79.2134 163.918C78.9833 163.719 78.8001 163.506 78.6637 163.278L79.4648 162.716C79.5558 162.835 79.6708 162.972 79.81 163.125C79.9492 163.281 80.1396 163.416 80.381 163.53C80.6254 163.646 80.945 163.705 81.3398 163.705C81.8683 163.705 82.3043 163.577 82.6481 163.321C82.9918 163.065 83.1637 162.665 83.1637 162.119V160.79H83.0785C83.0046 160.909 82.8995 161.057 82.7631 161.233C82.6296 161.406 82.4364 161.561 82.1836 161.697C81.9336 161.831 81.5955 161.898 81.1694 161.898C80.641 161.898 80.1665 161.773 79.7461 161.523C79.3285 161.273 78.9975 160.909 78.7532 160.432C78.5117 159.955 78.391 159.375 78.391 158.693C78.391 158.023 78.5089 157.439 78.7447 156.942C78.9805 156.442 79.3086 156.055 79.729 155.783C80.1495 155.507 80.6353 155.369 81.1864 155.369C81.6126 155.369 81.9506 155.44 82.2006 155.582C82.4535 155.722 82.6467 155.881 82.7802 156.06C82.9165 156.236 83.0217 156.381 83.0955 156.494H83.1978V155.455H84.1694V162.188C84.1694 162.75 84.0415 163.207 83.7859 163.56C83.533 163.915 83.1921 164.175 82.7631 164.339C82.337 164.507 81.8626 164.591 81.3398 164.591ZM81.3058 160.994C81.7092 160.994 82.0501 160.902 82.3285 160.717C82.6069 160.533 82.8185 160.267 82.9634 159.92C83.1083 159.574 83.1808 159.159 83.1808 158.676C83.1808 158.205 83.1097 157.788 82.9677 157.428C82.8256 157.067 82.6154 156.784 82.337 156.58C82.0586 156.375 81.7148 156.273 81.3058 156.273C80.8796 156.273 80.5245 156.381 80.2404 156.597C79.9592 156.812 79.7475 157.102 79.6055 157.466C79.4663 157.83 79.3967 158.233 79.3967 158.676C79.3967 159.131 79.4677 159.533 79.6097 159.882C79.7546 160.229 79.9677 160.501 80.2489 160.7C80.533 160.896 80.8853 160.994 81.3058 160.994ZM86.0103 162V155.455H86.9819V156.443H87.0501C87.1694 156.119 87.3853 155.857 87.6978 155.655C88.0103 155.453 88.3626 155.352 88.7546 155.352C88.8285 155.352 88.9208 155.354 89.0316 155.357C89.1424 155.359 89.2262 155.364 89.283 155.369V156.392C89.2489 156.384 89.1708 156.371 89.0487 156.354C88.9293 156.334 88.8029 156.324 88.6694 156.324C88.3512 156.324 88.0671 156.391 87.8171 156.524C87.57 156.655 87.3739 156.837 87.229 157.07C87.087 157.3 87.016 157.562 87.016 157.858V162H86.0103ZM94.6001 159.324V155.455H95.6058V162H94.6001V160.892H94.532C94.3786 161.224 94.1399 161.507 93.8161 161.74C93.4922 161.97 93.0831 162.085 92.5888 162.085C92.1797 162.085 91.8161 161.996 91.4979 161.817C91.1797 161.635 90.9297 161.362 90.7479 160.999C90.5661 160.632 90.4751 160.17 90.4751 159.614V155.455H91.4808V159.545C91.4808 160.023 91.6143 160.403 91.8814 160.688C92.1513 160.972 92.495 161.114 92.9126 161.114C93.1626 161.114 93.4169 161.05 93.6754 160.922C93.9368 160.794 94.1555 160.598 94.3317 160.334C94.5107 160.07 94.6001 159.733 94.6001 159.324ZM97.4478 164.455V155.455H98.4194V156.494H98.5387C98.6126 156.381 98.7148 156.236 98.8455 156.06C98.979 155.881 99.1694 155.722 99.4165 155.582C99.6665 155.44 100.005 155.369 100.431 155.369C100.982 155.369 101.468 155.507 101.888 155.783C102.309 156.058 102.637 156.449 102.873 156.955C103.108 157.46 103.226 158.057 103.226 158.744C103.226 159.438 103.108 160.038 102.873 160.547C102.637 161.053 102.31 161.445 101.892 161.723C101.475 161.999 100.993 162.136 100.448 162.136C100.027 162.136 99.6907 162.067 99.4379 161.928C99.185 161.786 98.9904 161.625 98.854 161.446C98.7177 161.264 98.6126 161.114 98.5387 160.994H98.4535V164.455H97.4478ZM98.4364 158.727C98.4364 159.222 98.5089 159.658 98.6538 160.036C98.7987 160.411 99.0103 160.705 99.2887 160.918C99.5671 161.128 99.908 161.233 100.311 161.233C100.732 161.233 101.083 161.122 101.364 160.901C101.648 160.676 101.861 160.375 102.003 159.997C102.148 159.616 102.221 159.193 102.221 158.727C102.221 158.267 102.15 157.852 102.007 157.483C101.868 157.111 101.657 156.817 101.373 156.601C101.091 156.382 100.738 156.273 100.311 156.273C99.9023 156.273 99.5586 156.376 99.2802 156.584C99.0018 156.788 98.7915 157.075 98.6495 157.445C98.5075 157.811 98.4364 158.239 98.4364 158.727ZM107.419 162.136C106.828 162.136 106.31 161.996 105.864 161.714C105.421 161.433 105.074 161.04 104.824 160.534C104.577 160.028 104.453 159.437 104.453 158.761C104.453 158.08 104.577 157.484 104.824 156.976C105.074 156.467 105.421 156.072 105.864 155.791C106.31 155.51 106.828 155.369 107.419 155.369C108.01 155.369 108.527 155.51 108.971 155.791C109.417 156.072 109.763 156.467 110.01 156.976C110.26 157.484 110.385 158.08 110.385 158.761C110.385 159.437 110.26 160.028 110.01 160.534C109.763 161.04 109.417 161.433 108.971 161.714C108.527 161.996 108.01 162.136 107.419 162.136ZM107.419 161.233C107.868 161.233 108.238 161.118 108.527 160.888C108.817 160.658 109.032 160.355 109.171 159.98C109.31 159.605 109.38 159.199 109.38 158.761C109.38 158.324 109.31 157.916 109.171 157.538C109.032 157.161 108.817 156.855 108.527 156.622C108.238 156.389 107.868 156.273 107.419 156.273C106.971 156.273 106.601 156.389 106.311 156.622C106.022 156.855 105.807 157.161 105.668 157.538C105.529 157.916 105.459 158.324 105.459 158.761C105.459 159.199 105.529 159.605 105.668 159.98C105.807 160.355 106.022 160.658 106.311 160.888C106.601 161.118 106.971 161.233 107.419 161.233ZM117.767 162.136C117.222 162.136 116.74 161.999 116.322 161.723C115.905 161.445 115.578 161.053 115.342 160.547C115.107 160.038 114.989 159.438 114.989 158.744C114.989 158.057 115.107 157.46 115.342 156.955C115.578 156.449 115.906 156.058 116.327 155.783C116.747 155.507 117.233 155.369 117.784 155.369C118.21 155.369 118.547 155.44 118.794 155.582C119.044 155.722 119.234 155.881 119.365 156.06C119.499 156.236 119.602 156.381 119.676 156.494H119.761V153.273H120.767V162H119.795V160.994H119.676C119.602 161.114 119.497 161.264 119.361 161.446C119.224 161.625 119.03 161.786 118.777 161.928C118.524 162.067 118.188 162.136 117.767 162.136ZM117.903 161.233C118.307 161.233 118.648 161.128 118.926 160.918C119.205 160.705 119.416 160.411 119.561 160.036C119.706 159.658 119.778 159.222 119.778 158.727C119.778 158.239 119.707 157.811 119.565 157.445C119.423 157.075 119.213 156.788 118.935 156.584C118.656 156.376 118.313 156.273 117.903 156.273C117.477 156.273 117.122 156.382 116.838 156.601C116.557 156.817 116.345 157.111 116.203 157.483C116.064 157.852 115.994 158.267 115.994 158.727C115.994 159.193 116.065 159.616 116.207 159.997C116.352 160.375 116.565 160.676 116.847 160.901C117.131 161.122 117.483 161.233 117.903 161.233ZM125.493 162.136C124.862 162.136 124.318 161.997 123.861 161.719C123.406 161.438 123.055 161.045 122.808 160.543C122.564 160.037 122.442 159.449 122.442 158.778C122.442 158.108 122.564 157.517 122.808 157.006C123.055 156.491 123.399 156.091 123.839 155.804C124.283 155.514 124.8 155.369 125.391 155.369C125.732 155.369 126.068 155.426 126.401 155.54C126.733 155.653 127.036 155.838 127.308 156.094C127.581 156.347 127.798 156.682 127.96 157.099C128.122 157.517 128.203 158.031 128.203 158.642V159.068H123.158V158.199H127.18C127.18 157.83 127.107 157.5 126.959 157.21C126.814 156.92 126.607 156.692 126.337 156.524C126.07 156.357 125.754 156.273 125.391 156.273C124.99 156.273 124.643 156.372 124.351 156.571C124.061 156.767 123.838 157.023 123.682 157.338C123.526 157.653 123.447 157.991 123.447 158.352V158.932C123.447 159.426 123.533 159.845 123.703 160.189C123.876 160.53 124.116 160.79 124.423 160.969C124.73 161.145 125.087 161.233 125.493 161.233C125.757 161.233 125.996 161.196 126.209 161.122C126.425 161.045 126.611 160.932 126.767 160.781C126.923 160.628 127.044 160.437 127.129 160.21L128.101 160.483C127.999 160.812 127.827 161.102 127.585 161.352C127.344 161.599 127.045 161.793 126.69 161.932C126.335 162.068 125.936 162.136 125.493 162.136ZM15.9988 177.136C15.3681 177.136 14.824 176.997 14.3667 176.719C13.9121 176.438 13.5613 176.045 13.3141 175.543C13.0698 175.037 12.9476 174.449 12.9476 173.778C12.9476 173.108 13.0698 172.517 13.3141 172.006C13.5613 171.491 13.905 171.091 14.3453 170.804C14.7885 170.514 15.3056 170.369 15.8965 170.369C16.2374 170.369 16.574 170.426 16.9064 170.54C17.2388 170.653 17.5414 170.838 17.8141 171.094C18.0868 171.347 18.3042 171.682 18.4661 172.099C18.628 172.517 18.709 173.031 18.709 173.642V174.068H13.6635V173.199H17.6863C17.6863 172.83 17.6124 172.5 17.4647 172.21C17.3198 171.92 17.1124 171.692 16.8425 171.524C16.5755 171.357 16.2601 171.273 15.8965 171.273C15.4959 171.273 15.1493 171.372 14.8567 171.571C14.5669 171.767 14.3439 172.023 14.1877 172.338C14.0314 172.653 13.9533 172.991 13.9533 173.352V173.932C13.9533 174.426 14.0385 174.845 14.209 175.189C14.3823 175.53 14.6223 175.79 14.9292 175.969C15.236 176.145 15.5925 176.233 15.9988 176.233C16.263 176.233 16.5016 176.196 16.7147 176.122C16.9306 176.045 17.1167 175.932 17.2729 175.781C17.4292 175.628 17.5499 175.437 17.6351 175.21L18.6067 175.483C18.5044 175.812 18.3326 176.102 18.0911 176.352C17.8496 176.599 17.5513 176.793 17.1962 176.932C16.8411 177.068 16.4419 177.136 15.9988 177.136ZM21.2445 173.062V177H20.2388V170.455H21.2104V171.477H21.2956C21.449 171.145 21.682 170.878 21.9945 170.676C22.307 170.472 22.7104 170.369 23.2047 170.369C23.6479 170.369 24.0357 170.46 24.3681 170.642C24.7005 170.821 24.959 171.094 25.1436 171.46C25.3283 171.824 25.4206 172.284 25.4206 172.841V177H24.415V172.909C24.415 172.395 24.2814 171.994 24.0144 171.707C23.7473 171.418 23.3809 171.273 22.915 171.273C22.5939 171.273 22.307 171.342 22.0542 171.482C21.8042 171.621 21.6067 171.824 21.4618 172.091C21.3169 172.358 21.2445 172.682 21.2445 173.062ZM29.7299 177.136C29.1845 177.136 28.7029 176.999 28.2853 176.723C27.8677 176.445 27.541 176.053 27.3052 175.547C27.0694 175.038 26.9515 174.438 26.9515 173.744C26.9515 173.057 27.0694 172.46 27.3052 171.955C27.541 171.449 27.8691 171.058 28.2896 170.783C28.71 170.507 29.1958 170.369 29.747 170.369C30.1731 170.369 30.5098 170.44 30.7569 170.582C31.0069 170.722 31.1973 170.881 31.3279 171.06C31.4615 171.236 31.5652 171.381 31.639 171.494H31.7243V168.273H32.7299V177H31.7583V175.994H31.639C31.5652 176.114 31.46 176.264 31.3237 176.446C31.1873 176.625 30.9927 176.786 30.7399 176.928C30.487 177.067 30.1504 177.136 29.7299 177.136ZM29.8663 176.233C30.2697 176.233 30.6106 176.128 30.889 175.918C31.1674 175.705 31.3791 175.411 31.524 175.036C31.6689 174.658 31.7413 174.222 31.7413 173.727C31.7413 173.239 31.6703 172.811 31.5282 172.445C31.3862 172.075 31.176 171.788 30.8975 171.584C30.6191 171.376 30.2754 171.273 29.8663 171.273C29.4402 171.273 29.085 171.382 28.801 171.601C28.5197 171.817 28.3081 172.111 28.166 172.483C28.0268 172.852 27.9572 173.267 27.9572 173.727C27.9572 174.193 28.0282 174.616 28.1703 174.997C28.3152 175.375 28.5282 175.676 28.8095 175.901C29.0936 176.122 29.4458 176.233 29.8663 176.233ZM34.7115 179.455V170.455H35.6831V171.494H35.8024C35.8762 171.381 35.9785 171.236 36.1092 171.06C36.2427 170.881 36.4331 170.722 36.6802 170.582C36.9302 170.44 37.2683 170.369 37.6944 170.369C38.2456 170.369 38.7314 170.507 39.1518 170.783C39.5723 171.058 39.9004 171.449 40.1362 171.955C40.372 172.46 40.4899 173.057 40.4899 173.744C40.4899 174.438 40.372 175.038 40.1362 175.547C39.9004 176.053 39.5737 176.445 39.1561 176.723C38.7385 176.999 38.2569 177.136 37.7115 177.136C37.291 177.136 36.9544 177.067 36.7015 176.928C36.4487 176.786 36.2541 176.625 36.1177 176.446C35.9814 176.264 35.8762 176.114 35.8024 175.994H35.7172V179.455H34.7115ZM35.7001 173.727C35.7001 174.222 35.7725 174.658 35.9174 175.036C36.0623 175.411 36.274 175.705 36.5524 175.918C36.8308 176.128 37.1717 176.233 37.5751 176.233C37.9956 176.233 38.3464 176.122 38.6277 175.901C38.9118 175.676 39.1248 175.375 39.2669 174.997C39.4118 174.616 39.4842 174.193 39.4842 173.727C39.4842 173.267 39.4132 172.852 39.2711 172.483C39.1319 172.111 38.9203 171.817 38.6362 171.601C38.3549 171.382 38.0012 171.273 37.5751 171.273C37.166 171.273 36.8223 171.376 36.5439 171.584C36.2654 171.788 36.0552 172.075 35.9132 172.445C35.7711 172.811 35.7001 173.239 35.7001 173.727ZM44.6831 177.136C44.0922 177.136 43.5737 176.996 43.1277 176.714C42.6845 176.433 42.3379 176.04 42.0879 175.534C41.8407 175.028 41.7172 174.437 41.7172 173.761C41.7172 173.08 41.8407 172.484 42.0879 171.976C42.3379 171.467 42.6845 171.072 43.1277 170.791C43.5737 170.51 44.0922 170.369 44.6831 170.369C45.274 170.369 45.791 170.51 46.2342 170.791C46.6802 171.072 47.0268 171.467 47.274 171.976C47.524 172.484 47.649 173.08 47.649 173.761C47.649 174.437 47.524 175.028 47.274 175.534C47.0268 176.04 46.6802 176.433 46.2342 176.714C45.791 176.996 45.274 177.136 44.6831 177.136ZM44.6831 176.233C45.1319 176.233 45.5012 176.118 45.791 175.888C46.0808 175.658 46.2953 175.355 46.4345 174.98C46.5737 174.605 46.6433 174.199 46.6433 173.761C46.6433 173.324 46.5737 172.916 46.4345 172.538C46.2953 172.161 46.0808 171.855 45.791 171.622C45.5012 171.389 45.1319 171.273 44.6831 171.273C44.2342 171.273 43.8649 171.389 43.5751 171.622C43.2853 171.855 43.0708 172.161 42.9316 172.538C42.7924 172.916 42.7228 173.324 42.7228 173.761C42.7228 174.199 42.7924 174.605 42.9316 174.98C43.0708 175.355 43.2853 175.658 43.5751 175.888C43.8649 176.118 44.2342 176.233 44.6831 176.233ZM49.1841 177V170.455H50.1898V177H49.1841ZM49.6955 169.364C49.4995 169.364 49.3304 169.297 49.1884 169.163C49.0492 169.03 48.9796 168.869 48.9796 168.682C48.9796 168.494 49.0492 168.334 49.1884 168.2C49.3304 168.067 49.4995 168 49.6955 168C49.8915 168 50.0591 168.067 50.1983 168.2C50.3404 168.334 50.4114 168.494 50.4114 168.682C50.4114 168.869 50.3404 169.03 50.1983 169.163C50.0591 169.297 49.8915 169.364 49.6955 169.364ZM53.0375 173.062V177H52.0318V170.455H53.0034V171.477H53.0886C53.242 171.145 53.475 170.878 53.7875 170.676C54.1 170.472 54.5034 170.369 54.9977 170.369C55.4409 170.369 55.8287 170.46 56.161 170.642C56.4934 170.821 56.752 171.094 56.9366 171.46C57.1213 171.824 57.2136 172.284 57.2136 172.841V177H56.2079V172.909C56.2079 172.395 56.0744 171.994 55.8074 171.707C55.5403 171.418 55.1738 171.273 54.7079 171.273C54.3869 171.273 54.1 171.342 53.8471 171.482C53.5971 171.621 53.3997 171.824 53.2548 172.091C53.1099 172.358 53.0375 172.682 53.0375 173.062ZM61.8979 170.455V171.307H58.5059V170.455H61.8979ZM59.4945 168.886H60.5002V175.125C60.5002 175.409 60.5414 175.622 60.6238 175.764C60.709 175.903 60.8169 175.997 60.9476 176.045C61.0811 176.091 61.2218 176.114 61.3695 176.114C61.4803 176.114 61.5712 176.108 61.6422 176.097C61.7132 176.082 61.7701 176.071 61.8127 176.062L62.0172 176.966C61.949 176.991 61.8539 177.017 61.7317 177.043C61.6096 177.071 61.4547 177.085 61.2672 177.085C60.9831 177.085 60.7047 177.024 60.432 176.902C60.1621 176.78 59.9377 176.594 59.7587 176.344C59.5826 176.094 59.4945 175.778 59.4945 175.398V168.886ZM67.9299 171.92L67.0265 172.176C66.9696 172.026 66.8858 171.879 66.775 171.737C66.6671 171.592 66.5194 171.473 66.3319 171.379C66.1444 171.286 65.9043 171.239 65.6117 171.239C65.2111 171.239 64.8773 171.331 64.6103 171.516C64.3461 171.697 64.214 171.929 64.214 172.21C64.214 172.46 64.3049 172.658 64.4867 172.803C64.6685 172.947 64.9526 173.068 65.339 173.165L66.3105 173.403C66.8958 173.545 67.3319 173.763 67.6188 174.055C67.9057 174.345 68.0492 174.719 68.0492 175.176C68.0492 175.551 67.9412 175.886 67.7253 176.182C67.5123 176.477 67.214 176.71 66.8304 176.881C66.4469 177.051 66.0009 177.136 65.4924 177.136C64.8248 177.136 64.2722 176.991 63.8347 176.702C63.3972 176.412 63.1202 175.989 63.0037 175.432L63.9583 175.193C64.0492 175.545 64.2211 175.81 64.4739 175.986C64.7296 176.162 65.0634 176.25 65.4753 176.25C65.9441 176.25 66.3162 176.151 66.5918 175.952C66.8702 175.75 67.0094 175.509 67.0094 175.227C67.0094 175 66.9299 174.81 66.7708 174.656C66.6117 174.5 66.3674 174.384 66.0378 174.307L64.9469 174.051C64.3475 173.909 63.9071 173.689 63.6259 173.391C63.3475 173.089 63.2083 172.713 63.2083 172.261C63.2083 171.892 63.312 171.565 63.5194 171.281C63.7296 170.997 64.0151 170.774 64.3759 170.612C64.7395 170.45 65.1515 170.369 65.6117 170.369C66.2594 170.369 66.7679 170.511 67.1373 170.795C67.5094 171.08 67.7736 171.455 67.9299 171.92ZM75.5971 177.136C75.0062 177.136 74.4877 176.996 74.0417 176.714C73.5985 176.433 73.252 176.04 73.002 175.534C72.7548 175.028 72.6312 174.437 72.6312 173.761C72.6312 173.08 72.7548 172.484 73.002 171.976C73.252 171.467 73.5985 171.072 74.0417 170.791C74.4877 170.51 75.0062 170.369 75.5971 170.369C76.188 170.369 76.7051 170.51 77.1483 170.791C77.5943 171.072 77.9409 171.467 78.188 171.976C78.438 172.484 78.563 173.08 78.563 173.761C78.563 174.437 78.438 175.028 78.188 175.534C77.9409 176.04 77.5943 176.433 77.1483 176.714C76.7051 176.996 76.188 177.136 75.5971 177.136ZM75.5971 176.233C76.046 176.233 76.4153 176.118 76.7051 175.888C76.9949 175.658 77.2093 175.355 77.3485 174.98C77.4877 174.605 77.5574 174.199 77.5574 173.761C77.5574 173.324 77.4877 172.916 77.3485 172.538C77.2093 172.161 76.9949 171.855 76.7051 171.622C76.4153 171.389 76.046 171.273 75.5971 171.273C75.1483 171.273 74.7789 171.389 74.4892 171.622C74.1994 171.855 73.9849 172.161 73.8457 172.538C73.7065 172.916 73.6369 173.324 73.6369 173.761C73.6369 174.199 73.7065 174.605 73.8457 174.98C73.9849 175.355 74.1994 175.658 74.4892 175.888C74.7789 176.118 75.1483 176.233 75.5971 176.233ZM84.2232 174.324V170.455H85.2289V177H84.2232V175.892H84.155C84.0016 176.224 83.763 176.507 83.4391 176.74C83.1152 176.97 82.7061 177.085 82.2118 177.085C81.8027 177.085 81.4391 176.996 81.1209 176.817C80.8027 176.635 80.5527 176.362 80.3709 175.999C80.1891 175.632 80.0982 175.17 80.0982 174.614V170.455H81.1039V174.545C81.1039 175.023 81.2374 175.403 81.5044 175.688C81.7743 175.972 82.1181 176.114 82.5357 176.114C82.7857 176.114 83.04 176.05 83.2985 175.922C83.5598 175.794 83.7786 175.598 83.9547 175.334C84.1337 175.07 84.2232 174.733 84.2232 174.324ZM92.9174 177.136C92.372 177.136 91.8904 176.999 91.4728 176.723C91.0552 176.445 90.7285 176.053 90.4927 175.547C90.2569 175.038 90.139 174.438 90.139 173.744C90.139 173.057 90.2569 172.46 90.4927 171.955C90.7285 171.449 91.0566 171.058 91.4771 170.783C91.8975 170.507 92.3833 170.369 92.9345 170.369C93.3606 170.369 93.6973 170.44 93.9444 170.582C94.1944 170.722 94.3848 170.881 94.5154 171.06C94.649 171.236 94.7527 171.381 94.8265 171.494H94.9118V168.273H95.9174V177H94.9458V175.994H94.8265C94.7527 176.114 94.6475 176.264 94.5112 176.446C94.3748 176.625 94.1802 176.786 93.9274 176.928C93.6745 177.067 93.3379 177.136 92.9174 177.136ZM93.0538 176.233C93.4572 176.233 93.7981 176.128 94.0765 175.918C94.3549 175.705 94.5666 175.411 94.7115 175.036C94.8564 174.658 94.9288 174.222 94.9288 173.727C94.9288 173.239 94.8578 172.811 94.7157 172.445C94.5737 172.075 94.3635 171.788 94.085 171.584C93.8066 171.376 93.4629 171.273 93.0538 171.273C92.6277 171.273 92.2725 171.382 91.9885 171.601C91.7072 171.817 91.4956 172.111 91.3535 172.483C91.2143 172.852 91.1447 173.267 91.1447 173.727C91.1447 174.193 91.2157 174.616 91.3578 174.997C91.5027 175.375 91.7157 175.676 91.997 175.901C92.2811 176.122 92.6333 176.233 93.0538 176.233ZM100.643 177.136C100.013 177.136 99.4686 176.997 99.0112 176.719C98.5566 176.438 98.2058 176.045 97.9586 175.543C97.7143 175.037 97.5922 174.449 97.5922 173.778C97.5922 173.108 97.7143 172.517 97.9586 172.006C98.2058 171.491 98.5495 171.091 98.9899 170.804C99.4331 170.514 99.9501 170.369 100.541 170.369C100.882 170.369 101.219 170.426 101.551 170.54C101.883 170.653 102.186 170.838 102.459 171.094C102.731 171.347 102.949 171.682 103.111 172.099C103.273 172.517 103.354 173.031 103.354 173.642V174.068H98.3081V173.199H102.331C102.331 172.83 102.257 172.5 102.109 172.21C101.964 171.92 101.757 171.692 101.487 171.524C101.22 171.357 100.905 171.273 100.541 171.273C100.14 171.273 99.7939 171.372 99.5012 171.571C99.2115 171.767 98.9885 172.023 98.8322 172.338C98.676 172.653 98.5978 172.991 98.5978 173.352V173.932C98.5978 174.426 98.6831 174.845 98.8535 175.189C99.0268 175.53 99.2669 175.79 99.5737 175.969C99.8805 176.145 100.237 176.233 100.643 176.233C100.907 176.233 101.146 176.196 101.359 176.122C101.575 176.045 101.761 175.932 101.917 175.781C102.074 175.628 102.194 175.437 102.28 175.21L103.251 175.483C103.149 175.812 102.977 176.102 102.736 176.352C102.494 176.599 102.196 176.793 101.841 176.932C101.486 177.068 101.086 177.136 100.643 177.136ZM112.383 174.324V170.455H113.389V177H112.383V175.892H112.315C112.162 176.224 111.923 176.507 111.599 176.74C111.275 176.97 110.866 177.085 110.372 177.085C109.963 177.085 109.599 176.996 109.281 176.817C108.963 176.635 108.713 176.362 108.531 175.999C108.349 175.632 108.258 175.17 108.258 174.614V170.455H109.264V174.545C109.264 175.023 109.398 175.403 109.665 175.688C109.934 175.972 110.278 176.114 110.696 176.114C110.946 176.114 111.2 176.05 111.459 175.922C111.72 175.794 111.939 175.598 112.115 175.334C112.294 175.07 112.383 174.733 112.383 174.324ZM115.231 177V170.455H116.203V171.477H116.288C116.424 171.128 116.644 170.857 116.948 170.663C117.252 170.467 117.617 170.369 118.044 170.369C118.475 170.369 118.835 170.467 119.122 170.663C119.411 170.857 119.637 171.128 119.799 171.477H119.867C120.035 171.139 120.286 170.871 120.622 170.672C120.957 170.47 121.359 170.369 121.828 170.369C122.413 170.369 122.892 170.553 123.264 170.919C123.636 171.283 123.822 171.849 123.822 172.619V177H122.816V172.619C122.816 172.136 122.684 171.791 122.42 171.584C122.156 171.376 121.845 171.273 121.487 171.273C121.026 171.273 120.67 171.412 120.417 171.69C120.164 171.966 120.038 172.315 120.038 172.739V177H119.015V172.517C119.015 172.145 118.894 171.845 118.653 171.618C118.411 171.388 118.1 171.273 117.72 171.273C117.458 171.273 117.214 171.342 116.987 171.482C116.762 171.621 116.58 171.814 116.441 172.061C116.305 172.305 116.237 172.588 116.237 172.909V177H115.231ZM130.041 173.062V177H129.036V170.455H130.007V171.477H130.093C130.246 171.145 130.479 170.878 130.791 170.676C131.104 170.472 131.507 170.369 132.002 170.369C132.445 170.369 132.833 170.46 133.165 170.642C133.497 170.821 133.756 171.094 133.941 171.46C134.125 171.824 134.218 172.284 134.218 172.841V177H133.212V172.909C133.212 172.395 133.078 171.994 132.811 171.707C132.544 171.418 132.178 171.273 131.712 171.273C131.391 171.273 131.104 171.342 130.851 171.482C130.601 171.621 130.404 171.824 130.259 172.091C130.114 172.358 130.041 172.682 130.041 173.062ZM138.714 177.136C138.123 177.136 137.605 176.996 137.159 176.714C136.716 176.433 136.369 176.04 136.119 175.534C135.872 175.028 135.748 174.437 135.748 173.761C135.748 173.08 135.872 172.484 136.119 171.976C136.369 171.467 136.716 171.072 137.159 170.791C137.605 170.51 138.123 170.369 138.714 170.369C139.305 170.369 139.822 170.51 140.265 170.791C140.711 171.072 141.058 171.467 141.305 171.976C141.555 172.484 141.68 173.08 141.68 173.761C141.68 174.437 141.555 175.028 141.305 175.534C141.058 176.04 140.711 176.433 140.265 176.714C139.822 176.996 139.305 177.136 138.714 177.136ZM138.714 176.233C139.163 176.233 139.532 176.118 139.822 175.888C140.112 175.658 140.327 175.355 140.466 174.98C140.605 174.605 140.675 174.199 140.675 173.761C140.675 173.324 140.605 172.916 140.466 172.538C140.327 172.161 140.112 171.855 139.822 171.622C139.532 171.389 139.163 171.273 138.714 171.273C138.265 171.273 137.896 171.389 137.606 171.622C137.317 171.855 137.102 172.161 136.963 172.538C136.824 172.916 136.754 173.324 136.754 173.761C136.754 174.199 136.824 174.605 136.963 174.98C137.102 175.355 137.317 175.658 137.606 175.888C137.896 176.118 138.265 176.233 138.714 176.233ZM148.333 170.455L145.913 177H144.89L142.47 170.455H143.561L145.367 175.67H145.436L147.242 170.455H148.333ZM152.085 177.136C151.494 177.136 150.976 176.996 150.53 176.714C150.087 176.433 149.74 176.04 149.49 175.534C149.243 175.028 149.119 174.437 149.119 173.761C149.119 173.08 149.243 172.484 149.49 171.976C149.74 171.467 150.087 171.072 150.53 170.791C150.976 170.51 151.494 170.369 152.085 170.369C152.676 170.369 153.193 170.51 153.637 170.791C154.083 171.072 154.429 171.467 154.676 171.976C154.926 172.484 155.051 173.08 155.051 173.761C155.051 174.437 154.926 175.028 154.676 175.534C154.429 176.04 154.083 176.433 153.637 176.714C153.193 176.996 152.676 177.136 152.085 177.136ZM152.085 176.233C152.534 176.233 152.904 176.118 153.193 175.888C153.483 175.658 153.698 175.355 153.837 174.98C153.976 174.605 154.046 174.199 154.046 173.761C154.046 173.324 153.976 172.916 153.837 172.538C153.698 172.161 153.483 171.855 153.193 171.622C152.904 171.389 152.534 171.273 152.085 171.273C151.637 171.273 151.267 171.389 150.977 171.622C150.688 171.855 150.473 172.161 150.334 172.538C150.195 172.916 150.125 173.324 150.125 173.761C150.125 174.199 150.195 174.605 150.334 174.98C150.473 175.355 150.688 175.658 150.977 175.888C151.267 176.118 151.637 176.233 152.085 176.233ZM60.9343 192.136C60.3036 192.136 59.7596 191.997 59.3022 191.719C58.8477 191.438 58.4968 191.045 58.2496 190.543C58.0053 190.037 57.8832 189.449 57.8832 188.778C57.8832 188.108 58.0053 187.517 58.2496 187.006C58.4968 186.491 58.8406 186.091 59.2809 185.804C59.7241 185.514 60.2411 185.369 60.832 185.369C61.1729 185.369 61.5096 185.426 61.842 185.54C62.1744 185.653 62.4769 185.838 62.7496 186.094C63.0224 186.347 63.2397 186.682 63.4016 187.099C63.5636 187.517 63.6445 188.031 63.6445 188.642V189.068H58.5991V188.199H62.6218C62.6218 187.83 62.5479 187.5 62.4002 187.21C62.2553 186.92 62.0479 186.692 61.7781 186.524C61.511 186.357 61.1957 186.273 60.832 186.273C60.4315 186.273 60.0849 186.372 59.7923 186.571C59.5025 186.767 59.2795 187.023 59.1232 187.338C58.967 187.653 58.8888 187.991 58.8888 188.352V188.932C58.8888 189.426 58.9741 189.845 59.1445 190.189C59.3178 190.53 59.5579 190.79 59.8647 190.969C60.1715 191.145 60.5281 191.233 60.9343 191.233C61.1985 191.233 61.4371 191.196 61.6502 191.122C61.8661 191.045 62.0522 190.932 62.2085 190.781C62.3647 190.628 62.4854 190.437 62.5707 190.21L63.5423 190.483C63.44 190.812 63.2681 191.102 63.0266 191.352C62.7852 191.599 62.4869 191.793 62.1317 191.932C61.7766 192.068 61.3775 192.136 60.9343 192.136ZM66.18 188.062V192H65.1744V185.455H66.146V186.477H66.2312C66.3846 186.145 66.6175 185.878 66.93 185.676C67.2425 185.472 67.646 185.369 68.1403 185.369C68.5835 185.369 68.9712 185.46 69.3036 185.642C69.636 185.821 69.8945 186.094 70.0792 186.46C70.2638 186.824 70.3562 187.284 70.3562 187.841V192H69.3505V187.909C69.3505 187.395 69.217 186.994 68.9499 186.707C68.6829 186.418 68.3164 186.273 67.8505 186.273C67.5295 186.273 67.2425 186.342 66.9897 186.482C66.7397 186.621 66.5423 186.824 66.3974 187.091C66.2525 187.358 66.18 187.682 66.18 188.062ZM74.6655 192.136C74.12 192.136 73.6385 191.999 73.2209 191.723C72.8033 191.445 72.4766 191.053 72.2408 190.547C72.005 190.038 71.8871 189.438 71.8871 188.744C71.8871 188.057 72.005 187.46 72.2408 186.955C72.4766 186.449 72.8047 186.058 73.2251 185.783C73.6456 185.507 74.1314 185.369 74.6825 185.369C75.1087 185.369 75.4453 185.44 75.6925 185.582C75.9425 185.722 76.1328 185.881 76.2635 186.06C76.397 186.236 76.5007 186.381 76.5746 186.494H76.6598V183.273H77.6655V192H76.6939V190.994H76.5746C76.5007 191.114 76.3956 191.264 76.2592 191.446C76.1229 191.625 75.9283 191.786 75.6754 191.928C75.4226 192.067 75.0859 192.136 74.6655 192.136ZM74.8018 191.233C75.2053 191.233 75.5462 191.128 75.8246 190.918C76.103 190.705 76.3146 190.411 76.4595 190.036C76.6044 189.658 76.6768 189.222 76.6768 188.727C76.6768 188.239 76.6058 187.811 76.4638 187.445C76.3217 187.075 76.1115 186.788 75.8331 186.584C75.5547 186.376 75.2109 186.273 74.8018 186.273C74.3757 186.273 74.0206 186.382 73.7365 186.601C73.4553 186.817 73.2436 187.111 73.1016 187.483C72.9624 187.852 72.8928 188.267 72.8928 188.727C72.8928 189.193 72.9638 189.616 73.1058 189.997C73.2507 190.375 73.4638 190.676 73.745 190.901C74.0291 191.122 74.3814 191.233 74.8018 191.233ZM79.647 194.455V185.455H80.6186V186.494H80.7379C80.8118 186.381 80.9141 186.236 81.0447 186.06C81.1783 185.881 81.3686 185.722 81.6158 185.582C81.8658 185.44 82.2038 185.369 82.63 185.369C83.1811 185.369 83.6669 185.507 84.0874 185.783C84.5078 186.058 84.8359 186.449 85.0717 186.955C85.3075 187.46 85.4254 188.057 85.4254 188.744C85.4254 189.438 85.3075 190.038 85.0717 190.547C84.8359 191.053 84.5092 191.445 84.0916 191.723C83.674 191.999 83.1925 192.136 82.647 192.136C82.2266 192.136 81.8899 192.067 81.6371 191.928C81.3842 191.786 81.1896 191.625 81.0533 191.446C80.9169 191.264 80.8118 191.114 80.7379 190.994H80.6527V194.455H79.647ZM80.6357 188.727C80.6357 189.222 80.7081 189.658 80.853 190.036C80.9979 190.411 81.2095 190.705 81.4879 190.918C81.7663 191.128 82.1072 191.233 82.5107 191.233C82.9311 191.233 83.282 191.122 83.5632 190.901C83.8473 190.676 84.0604 190.375 84.2024 189.997C84.3473 189.616 84.4197 189.193 84.4197 188.727C84.4197 188.267 84.3487 187.852 84.2067 187.483C84.0675 187.111 83.8558 186.817 83.5717 186.601C83.2905 186.382 82.9368 186.273 82.5107 186.273C82.1016 186.273 81.7578 186.376 81.4794 186.584C81.201 186.788 80.9908 187.075 80.8487 187.445C80.7067 187.811 80.6357 188.239 80.6357 188.727ZM89.6186 192.136C89.0277 192.136 88.5092 191.996 88.0632 191.714C87.62 191.433 87.2734 191.04 87.0234 190.534C86.7763 190.028 86.6527 189.437 86.6527 188.761C86.6527 188.08 86.7763 187.484 87.0234 186.976C87.2734 186.467 87.62 186.072 88.0632 185.791C88.5092 185.51 89.0277 185.369 89.6186 185.369C90.2095 185.369 90.7266 185.51 91.1697 185.791C91.6158 186.072 91.9624 186.467 92.2095 186.976C92.4595 187.484 92.5845 188.08 92.5845 188.761C92.5845 189.437 92.4595 190.028 92.2095 190.534C91.9624 191.04 91.6158 191.433 91.1697 191.714C90.7266 191.996 90.2095 192.136 89.6186 192.136ZM89.6186 191.233C90.0675 191.233 90.4368 191.118 90.7266 190.888C91.0163 190.658 91.2308 190.355 91.37 189.98C91.5092 189.605 91.5788 189.199 91.5788 188.761C91.5788 188.324 91.5092 187.916 91.37 187.538C91.2308 187.161 91.0163 186.855 90.7266 186.622C90.4368 186.389 90.0675 186.273 89.6186 186.273C89.1697 186.273 88.8004 186.389 88.5107 186.622C88.2209 186.855 88.0064 187.161 87.8672 187.538C87.728 187.916 87.6584 188.324 87.6584 188.761C87.6584 189.199 87.728 189.605 87.8672 189.98C88.0064 190.355 88.2209 190.658 88.5107 190.888C88.8004 191.118 89.1697 191.233 89.6186 191.233ZM94.1197 192V185.455H95.1254V192H94.1197ZM94.631 184.364C94.435 184.364 94.266 184.297 94.1239 184.163C93.9847 184.03 93.9151 183.869 93.9151 183.682C93.9151 183.494 93.9847 183.334 94.1239 183.2C94.266 183.067 94.435 183 94.631 183C94.8271 183 94.9947 183.067 95.1339 183.2C95.2759 183.334 95.3469 183.494 95.3469 183.682C95.3469 183.869 95.2759 184.03 95.1339 184.163C94.9947 184.297 94.8271 184.364 94.631 184.364ZM97.973 188.062V192H96.9673V185.455H97.9389V186.477H98.0241C98.1776 186.145 98.4105 185.878 98.723 185.676C99.0355 185.472 99.4389 185.369 99.9332 185.369C100.376 185.369 100.764 185.46 101.097 185.642C101.429 185.821 101.688 186.094 101.872 186.46C102.057 186.824 102.149 187.284 102.149 187.841V192H101.143V187.909C101.143 187.395 101.01 186.994 100.743 186.707C100.476 186.418 100.109 186.273 99.6435 186.273C99.3224 186.273 99.0355 186.342 98.7827 186.482C98.5327 186.621 98.3352 186.824 98.1903 187.091C98.0455 187.358 97.973 187.682 97.973 188.062ZM106.833 185.455V186.307H103.441V185.455H106.833ZM104.43 183.886H105.436V190.125C105.436 190.409 105.477 190.622 105.559 190.764C105.645 190.903 105.752 190.997 105.883 191.045C106.017 191.091 106.157 191.114 106.305 191.114C106.416 191.114 106.507 191.108 106.578 191.097C106.649 191.082 106.706 191.071 106.748 191.062L106.953 191.966C106.885 191.991 106.789 192.017 106.667 192.043C106.545 192.071 106.39 192.085 106.203 192.085C105.919 192.085 105.64 192.024 105.368 191.902C105.098 191.78 104.873 191.594 104.694 191.344C104.518 191.094 104.43 190.778 104.43 190.398V183.886ZM109.079 192.068C108.869 192.068 108.689 191.993 108.538 191.842C108.387 191.692 108.312 191.511 108.312 191.301C108.312 191.091 108.387 190.911 108.538 190.76C108.689 190.609 108.869 190.534 109.079 190.534C109.289 190.534 109.47 190.609 109.62 190.76C109.771 190.911 109.846 191.091 109.846 191.301C109.846 191.44 109.811 191.568 109.74 191.685C109.672 191.801 109.579 191.895 109.463 191.966C109.349 192.034 109.221 192.068 109.079 192.068Z" fill="white"/>
</g>
<defs>
<linearGradient id="paint0_linear_520_457" x1="84.22" y1="0" x2="84.22" y2="205.06" gradientUnits="userSpaceOnUse">
<stop stop-color="#2BD3FF"/>
<stop offset="1" stop-color="#00ACD9"/>
</linearGradient>
<linearGradient id="paint1_linear_520_457" x1="84.22" y1="0" x2="84.22" y2="205.06" gradientUnits="userSpaceOnUse">
<stop stop-color="#2BD3FF"/>
<stop offset="1" stop-color="#00ACD9"/>
</linearGradient>
<clipPath id="clip0_520_457">
<rect width="168.44" height="205.06" fill="white"/>
</clipPath>
</defs>
</svg>
