<svg width="169" height="206" viewBox="0 0 169 206" fill="none" xmlns="http://www.w3.org/2000/svg">
<g clip-path="url(#clip0_520_576)">
<path d="M168.44 14.61V190.45C168.44 198.49 163.04 205.06 156.44 205.06H12C5.4 205.06 0 198.49 0 190.45V14.61C0 6.57 5.4 0 12 0H156.44C163.04 0 168.44 6.57 168.44 14.61Z" fill="url(#paint0_linear_520_576)"/>
<path d="M30.7713 127H27.4759L32.4972 112.455H36.4602L41.4744 127H38.179L34.5355 115.778H34.4219L30.7713 127ZM30.5653 121.283H38.3494V123.683H30.5653V121.283ZM49.2873 116.091V118.364H42.7177V116.091H49.2873ZM44.2092 113.477H47.2347V123.648C47.2347 123.927 47.2773 124.145 47.3626 124.301C47.4478 124.453 47.5662 124.559 47.7177 124.621C47.8739 124.682 48.0539 124.713 48.2575 124.713C48.3995 124.713 48.5415 124.701 48.6836 124.678C48.8256 124.649 48.9345 124.628 49.0103 124.614L49.4862 126.865C49.3346 126.912 49.1216 126.967 48.8469 127.028C48.5723 127.095 48.2385 127.135 47.8455 127.149C47.1164 127.178 46.4772 127.08 45.9279 126.858C45.3834 126.635 44.9596 126.29 44.6566 125.821C44.3536 125.352 44.2044 124.76 44.2092 124.045V113.477ZM59.2539 122.355V116.091H62.2795V127H59.3746V125.018H59.261C59.0148 125.658 58.6052 126.171 58.0323 126.56C57.4641 126.948 56.7705 127.142 55.9513 127.142C55.2222 127.142 54.5806 126.976 54.0266 126.645C53.4727 126.313 53.0394 125.842 52.7269 125.232C52.4192 124.621 52.2629 123.889 52.2582 123.037V116.091H55.2837V122.497C55.2885 123.141 55.4613 123.65 55.8022 124.024C56.1431 124.398 56.6 124.585 57.1729 124.585C57.5375 124.585 57.8784 124.502 58.1957 124.337C58.5129 124.166 58.7686 123.915 58.9627 123.584C59.1616 123.252 59.2586 122.843 59.2539 122.355ZM68.8104 127.206C68.1143 127.206 67.4941 127.085 66.9496 126.844C66.4051 126.598 65.9742 126.235 65.657 125.757C65.3445 125.274 65.1882 124.673 65.1882 123.953C65.1882 123.347 65.2995 122.838 65.522 122.426C65.7446 122.014 66.0476 121.683 66.4311 121.432C66.8146 121.181 67.2502 120.991 67.7379 120.864C68.2304 120.736 68.7464 120.646 69.2862 120.594C69.9207 120.527 70.4321 120.466 70.8203 120.409C71.2086 120.348 71.4903 120.258 71.6655 120.139C71.8407 120.021 71.9283 119.846 71.9283 119.614V119.571C71.9283 119.121 71.7862 118.773 71.5021 118.527C71.2228 118.281 70.825 118.158 70.3089 118.158C69.7644 118.158 69.3312 118.278 69.0092 118.52C68.6873 118.757 68.4742 119.055 68.37 119.415L65.5717 119.188C65.7138 118.525 65.9931 117.952 66.4098 117.469C66.8265 116.981 67.3639 116.607 68.022 116.347C68.6849 116.081 69.4519 115.949 70.3232 115.949C70.9292 115.949 71.5092 116.02 72.0632 116.162C72.6219 116.304 73.1167 116.524 73.5476 116.822C73.9832 117.121 74.3265 117.504 74.5774 117.973C74.8284 118.437 74.9538 118.993 74.9538 119.642V127H72.0845V125.487H71.9993C71.8241 125.828 71.5897 126.129 71.2962 126.389C71.0026 126.645 70.6499 126.846 70.2379 126.993C69.826 127.135 69.3501 127.206 68.8104 127.206ZM69.6768 125.118C70.1219 125.118 70.5149 125.03 70.8558 124.855C71.1967 124.675 71.4643 124.434 71.6584 124.131C71.8525 123.828 71.9496 123.484 71.9496 123.101V121.943C71.8549 122.005 71.7247 122.062 71.5589 122.114C71.398 122.161 71.2157 122.206 71.0121 122.249C70.8085 122.286 70.6049 122.322 70.4013 122.355C70.1977 122.384 70.013 122.41 69.8473 122.433C69.4922 122.485 69.1821 122.568 68.9169 122.682C68.6518 122.795 68.4458 122.949 68.299 123.143C68.1522 123.333 68.0788 123.57 68.0788 123.854C68.0788 124.266 68.228 124.58 68.5263 124.798C68.8293 125.011 69.2128 125.118 69.6768 125.118ZM81.3267 112.455V127H78.3011V112.455H81.3267ZM84.7504 127V116.091H87.7759V127H84.7504ZM86.2702 114.685C85.8204 114.685 85.4345 114.536 85.1126 114.237C84.7953 113.934 84.6367 113.572 84.6367 113.151C84.6367 112.734 84.7953 112.376 85.1126 112.078C85.4345 111.775 85.8204 111.624 86.2702 111.624C86.7201 111.624 87.1036 111.775 87.4208 112.078C87.7428 112.376 87.9038 112.734 87.9038 113.151C87.9038 113.572 87.7428 113.934 87.4208 114.237C87.1036 114.536 86.7201 114.685 86.2702 114.685ZM91.1428 127V125.196L96.4837 118.584V118.506H91.3274V116.091H100.127V118.058L95.1129 124.507V124.585H100.312V127H91.1428ZM106.736 127.206C106.04 127.206 105.42 127.085 104.875 126.844C104.331 126.598 103.9 126.235 103.583 125.757C103.27 125.274 103.114 124.673 103.114 123.953C103.114 123.347 103.225 122.838 103.448 122.426C103.67 122.014 103.973 121.683 104.357 121.432C104.74 121.181 105.176 120.991 105.664 120.864C106.156 120.736 106.672 120.646 107.212 120.594C107.846 120.527 108.358 120.466 108.746 120.409C109.134 120.348 109.416 120.258 109.591 120.139C109.766 120.021 109.854 119.846 109.854 119.614V119.571C109.854 119.121 109.712 118.773 109.428 118.527C109.149 118.281 108.751 118.158 108.235 118.158C107.69 118.158 107.257 118.278 106.935 118.52C106.613 118.757 106.4 119.055 106.296 119.415L103.498 119.188C103.64 118.525 103.919 117.952 104.336 117.469C104.752 116.981 105.29 116.607 105.948 116.347C106.611 116.081 107.378 115.949 108.249 115.949C108.855 115.949 109.435 116.02 109.989 116.162C110.548 116.304 111.042 116.524 111.473 116.822C111.909 117.121 112.252 117.504 112.503 117.973C112.754 118.437 112.88 118.993 112.88 119.642V127H110.01V125.487H109.925C109.75 125.828 109.516 126.129 109.222 126.389C108.928 126.645 108.576 126.846 108.164 126.993C107.752 127.135 107.276 127.206 106.736 127.206ZM107.603 125.118C108.048 125.118 108.441 125.03 108.782 124.855C109.123 124.675 109.39 124.434 109.584 124.131C109.778 123.828 109.875 123.484 109.875 123.101V121.943C109.781 122.005 109.65 122.062 109.485 122.114C109.324 122.161 109.141 122.206 108.938 122.249C108.734 122.286 108.531 122.322 108.327 122.355C108.123 122.384 107.939 122.41 107.773 122.433C107.418 122.485 107.108 122.568 106.843 122.682C106.578 122.795 106.372 122.949 106.225 123.143C106.078 123.333 106.005 123.57 106.005 123.854C106.005 124.266 106.154 124.58 106.452 124.798C106.755 125.011 107.139 125.118 107.603 125.118ZM120.247 127.178C119.418 127.178 118.668 126.964 117.995 126.538C117.328 126.107 116.797 125.475 116.404 124.642C116.016 123.804 115.822 122.777 115.822 121.56C115.822 120.31 116.023 119.27 116.426 118.442C116.828 117.608 117.363 116.986 118.031 116.574C118.703 116.157 119.44 115.949 120.24 115.949C120.85 115.949 121.359 116.053 121.767 116.261C122.179 116.465 122.51 116.721 122.761 117.028C123.017 117.331 123.211 117.63 123.343 117.923H123.436V112.455H126.454V127H123.471V125.253H123.343C123.201 125.556 123 125.857 122.74 126.155C122.484 126.448 122.15 126.692 121.738 126.886C121.331 127.08 120.834 127.178 120.247 127.178ZM121.206 124.77C121.693 124.77 122.105 124.637 122.441 124.372C122.782 124.102 123.043 123.726 123.223 123.243C123.407 122.76 123.5 122.194 123.5 121.545C123.5 120.897 123.41 120.333 123.23 119.855C123.05 119.377 122.789 119.008 122.449 118.747C122.108 118.487 121.693 118.357 121.206 118.357C120.708 118.357 120.289 118.491 119.949 118.761C119.608 119.031 119.35 119.405 119.174 119.884C118.999 120.362 118.912 120.916 118.912 121.545C118.912 122.18 118.999 122.741 119.174 123.229C119.354 123.712 119.612 124.09 119.949 124.365C120.289 124.635 120.708 124.77 121.206 124.77ZM134.871 127.213C133.768 127.213 132.813 126.979 132.009 126.51C131.208 126.036 130.59 125.378 130.155 124.536C129.719 123.688 129.501 122.705 129.501 121.588C129.501 120.461 129.719 119.476 130.155 118.634C130.59 117.786 131.208 117.128 132.009 116.659C132.813 116.186 133.768 115.949 134.871 115.949C135.974 115.949 136.926 116.186 137.726 116.659C138.531 117.128 139.151 117.786 139.587 118.634C140.022 119.476 140.24 120.461 140.24 121.588C140.24 122.705 140.022 123.688 139.587 124.536C139.151 125.378 138.531 126.036 137.726 126.51C136.926 126.979 135.974 127.213 134.871 127.213ZM134.885 124.869C135.387 124.869 135.806 124.727 136.142 124.443C136.478 124.154 136.732 123.761 136.902 123.264C137.077 122.767 137.165 122.201 137.165 121.567C137.165 120.932 137.077 120.366 136.902 119.869C136.732 119.372 136.478 118.979 136.142 118.69C135.806 118.402 135.387 118.257 134.885 118.257C134.378 118.257 133.952 118.402 133.607 118.69C133.266 118.979 133.008 119.372 132.832 119.869C132.662 120.366 132.577 120.932 132.577 121.567C132.577 122.201 132.662 122.767 132.832 123.264C133.008 123.761 133.266 124.154 133.607 124.443C133.952 124.727 134.378 124.869 134.885 124.869Z" fill="white"/>
<path d="M37.7972 138.273V147H36.7404V138.273H37.7972ZM40.7855 143.062V147H39.7798V140.455H40.7514V141.477H40.8366C40.9901 141.145 41.223 140.878 41.5355 140.676C41.848 140.472 42.2514 140.369 42.7457 140.369C43.1889 140.369 43.5767 140.46 43.9091 140.642C44.2415 140.821 44.5 141.094 44.6847 141.46C44.8693 141.824 44.9616 142.284 44.9616 142.841V147H43.956V142.909C43.956 142.395 43.8224 141.994 43.5554 141.707C43.2884 141.418 42.9219 141.273 42.456 141.273C42.1349 141.273 41.848 141.342 41.5952 141.482C41.3452 141.621 41.1477 141.824 41.0028 142.091C40.858 142.358 40.7855 142.682 40.7855 143.062ZM49.271 147.136C48.7255 147.136 48.244 146.999 47.8263 146.723C47.4087 146.445 47.082 146.053 46.8462 145.547C46.6104 145.038 46.4925 144.438 46.4925 143.744C46.4925 143.057 46.6104 142.46 46.8462 141.955C47.082 141.449 47.4102 141.058 47.8306 140.783C48.2511 140.507 48.7369 140.369 49.288 140.369C49.7141 140.369 50.0508 140.44 50.2979 140.582C50.5479 140.722 50.7383 140.881 50.869 141.06C51.0025 141.236 51.1062 141.381 51.18 141.494H51.2653V138.273H52.271V147H51.2994V145.994H51.18C51.1062 146.114 51.0011 146.264 50.8647 146.446C50.7283 146.625 50.5337 146.786 50.2809 146.928C50.0281 147.067 49.6914 147.136 49.271 147.136ZM49.4073 146.233C49.8107 146.233 50.1516 146.128 50.43 145.918C50.7085 145.705 50.9201 145.411 51.065 145.036C51.2099 144.658 51.2823 144.222 51.2823 143.727C51.2823 143.239 51.2113 142.811 51.0692 142.445C50.9272 142.075 50.717 141.788 50.4386 141.584C50.1602 141.376 49.8164 141.273 49.4073 141.273C48.9812 141.273 48.6261 141.382 48.342 141.601C48.0607 141.817 47.8491 142.111 47.707 142.483C47.5678 142.852 47.4982 143.267 47.4982 143.727C47.4982 144.193 47.5692 144.616 47.7113 144.997C47.8562 145.375 48.0692 145.676 48.3505 145.901C48.6346 146.122 48.9869 146.233 49.4073 146.233ZM54.2525 147V140.455H55.2582V147H54.2525ZM54.7638 139.364C54.5678 139.364 54.3988 139.297 54.2567 139.163C54.1175 139.03 54.0479 138.869 54.0479 138.682C54.0479 138.494 54.1175 138.334 54.2567 138.2C54.3988 138.067 54.5678 138 54.7638 138C54.9599 138 55.1275 138.067 55.2667 138.2C55.4087 138.334 55.4798 138.494 55.4798 138.682C55.4798 138.869 55.4087 139.03 55.2667 139.163C55.1275 139.297 54.9599 139.364 54.7638 139.364ZM59.7592 147.136C59.1456 147.136 58.6172 146.991 58.174 146.702C57.7308 146.412 57.3899 146.013 57.1513 145.504C56.9126 144.996 56.7933 144.415 56.7933 143.761C56.7933 143.097 56.9155 142.51 57.1598 142.001C57.407 141.49 57.7507 141.091 58.1911 140.804C58.6342 140.514 59.1513 140.369 59.7422 140.369C60.2024 140.369 60.6172 140.455 60.9865 140.625C61.3558 140.795 61.6584 141.034 61.8942 141.341C62.13 141.648 62.2763 142.006 62.3331 142.415H61.3274C61.2507 142.116 61.0803 141.852 60.8161 141.622C60.5547 141.389 60.2024 141.273 59.7592 141.273C59.3672 141.273 59.0234 141.375 58.728 141.58C58.4354 141.781 58.2067 142.067 58.0419 142.436C57.88 142.803 57.799 143.233 57.799 143.727C57.799 144.233 57.8786 144.673 58.0376 145.048C58.1996 145.423 58.4268 145.714 58.7195 145.922C59.0149 146.129 59.3615 146.233 59.7592 146.233C60.0206 146.233 60.2578 146.188 60.4709 146.097C60.6839 146.006 60.8643 145.875 61.0121 145.705C61.1598 145.534 61.2649 145.33 61.3274 145.091H62.3331C62.2763 145.477 62.1357 145.825 61.9112 146.135C61.6896 146.442 61.3956 146.686 61.0291 146.868C60.6655 147.047 60.2422 147.136 59.7592 147.136ZM65.7294 147.153C65.3146 147.153 64.9382 147.075 64.6001 146.919C64.2621 146.76 63.9936 146.531 63.7947 146.233C63.5959 145.932 63.4964 145.568 63.4964 145.142C63.4964 144.767 63.5703 144.463 63.718 144.23C63.8658 143.994 64.0632 143.81 64.3104 143.676C64.5575 143.543 64.8303 143.443 65.1286 143.378C65.4297 143.31 65.7322 143.256 66.0362 143.216C66.4339 143.165 66.7564 143.126 67.0036 143.101C67.2536 143.072 67.4354 143.026 67.549 142.96C67.6655 142.895 67.7237 142.781 67.7237 142.619V142.585C67.7237 142.165 67.6087 141.838 67.3786 141.605C67.1513 141.372 66.8061 141.256 66.343 141.256C65.8629 141.256 65.4865 141.361 65.2138 141.571C64.9411 141.781 64.7493 142.006 64.6385 142.244L63.6839 141.903C63.8544 141.506 64.0817 141.196 64.3658 140.974C64.6527 140.75 64.9652 140.594 65.3033 140.506C65.6442 140.415 65.9794 140.369 66.3089 140.369C66.5192 140.369 66.7607 140.395 67.0334 140.446C67.3089 140.494 67.5746 140.595 67.8303 140.749C68.0888 140.902 68.3033 141.134 68.4737 141.443C68.6442 141.753 68.7294 142.168 68.7294 142.688V147H67.7237V146.114H67.6726C67.6044 146.256 67.4908 146.408 67.3317 146.57C67.1726 146.732 66.9609 146.869 66.6967 146.983C66.4325 147.097 66.1101 147.153 65.7294 147.153ZM65.8828 146.25C66.2805 146.25 66.6158 146.172 66.8885 146.016C67.1641 145.859 67.3714 145.658 67.5107 145.411C67.6527 145.163 67.7237 144.903 67.7237 144.631V143.71C67.6811 143.761 67.5874 143.808 67.4425 143.851C67.3004 143.891 67.1357 143.926 66.9482 143.957C66.7635 143.986 66.5831 144.011 66.407 144.034C66.2337 144.054 66.093 144.071 65.9851 144.085C65.7237 144.119 65.4794 144.175 65.2521 144.251C65.0277 144.325 64.8459 144.437 64.7067 144.588C64.5703 144.736 64.5021 144.937 64.5021 145.193C64.5021 145.543 64.6314 145.807 64.8899 145.986C65.1513 146.162 65.4822 146.25 65.8828 146.25ZM78.4059 149.455V145.994H78.3207C78.2468 146.114 78.1417 146.264 78.0053 146.446C77.869 146.625 77.6744 146.786 77.4215 146.928C77.1687 147.067 76.832 147.136 76.4116 147.136C75.8661 147.136 75.3846 146.999 74.967 146.723C74.5494 146.445 74.2227 146.053 73.9869 145.547C73.7511 145.038 73.6332 144.438 73.6332 143.744C73.6332 143.057 73.7511 142.46 73.9869 141.955C74.2227 141.449 74.5508 141.058 74.9712 140.783C75.3917 140.507 75.8775 140.369 76.4286 140.369C76.8548 140.369 77.1914 140.44 77.4386 140.582C77.6886 140.722 77.8789 140.881 78.0096 141.06C78.1431 141.236 78.2468 141.381 78.3207 141.494H78.44V140.455H79.4116V149.455H78.4059ZM76.5479 146.233C76.9513 146.233 77.2923 146.128 77.5707 145.918C77.8491 145.705 78.0607 145.411 78.2056 145.036C78.3505 144.658 78.4229 144.222 78.4229 143.727C78.4229 143.239 78.3519 142.811 78.2099 142.445C78.0678 142.075 77.8576 141.788 77.5792 141.584C77.3008 141.376 76.957 141.273 76.5479 141.273C76.1218 141.273 75.7667 141.382 75.4826 141.601C75.2013 141.817 74.9897 142.111 74.8477 142.483C74.7085 142.852 74.6388 143.267 74.6388 143.727C74.6388 144.193 74.7099 144.616 74.8519 144.997C74.9968 145.375 75.2099 145.676 75.4911 145.901C75.7752 146.122 76.1275 146.233 76.5479 146.233ZM85.3775 144.324V140.455H86.3832V147H85.3775V145.892H85.3093C85.1559 146.224 84.9173 146.507 84.5934 146.74C84.2695 146.97 83.8604 147.085 83.3661 147.085C82.957 147.085 82.5934 146.996 82.2752 146.817C81.957 146.635 81.707 146.362 81.5252 145.999C81.3434 145.632 81.2525 145.17 81.2525 144.614V140.455H82.2582V144.545C82.2582 145.023 82.3917 145.403 82.6587 145.688C82.9286 145.972 83.2724 146.114 83.69 146.114C83.94 146.114 84.1942 146.05 84.4528 145.922C84.7141 145.794 84.9329 145.598 85.109 145.334C85.288 145.07 85.3775 144.733 85.3775 144.324ZM90.9695 147.136C90.3388 147.136 89.7947 146.997 89.3374 146.719C88.8828 146.438 88.532 146.045 88.2848 145.543C88.0405 145.037 87.9183 144.449 87.9183 143.778C87.9183 143.108 88.0405 142.517 88.2848 142.006C88.532 141.491 88.8757 141.091 89.3161 140.804C89.7592 140.514 90.2763 140.369 90.8672 140.369C91.2081 140.369 91.5447 140.426 91.8771 140.54C92.2095 140.653 92.5121 140.838 92.7848 141.094C93.0575 141.347 93.2749 141.682 93.4368 142.099C93.5987 142.517 93.6797 143.031 93.6797 143.642V144.068H88.6342V143.199H92.657C92.657 142.83 92.5831 142.5 92.4354 142.21C92.2905 141.92 92.0831 141.692 91.8132 141.524C91.5462 141.357 91.2308 141.273 90.8672 141.273C90.4666 141.273 90.12 141.372 89.8274 141.571C89.5376 141.767 89.3146 142.023 89.1584 142.338C89.0021 142.653 88.924 142.991 88.924 143.352V143.932C88.924 144.426 89.0092 144.845 89.1797 145.189C89.353 145.53 89.593 145.79 89.8999 145.969C90.2067 146.145 90.5632 146.233 90.9695 146.233C91.2337 146.233 91.4723 146.196 91.6854 146.122C91.9013 146.045 92.0874 145.932 92.2436 145.781C92.3999 145.628 92.5206 145.437 92.6058 145.21L93.5774 145.483C93.4751 145.812 93.3033 146.102 93.0618 146.352C92.8203 146.599 92.522 146.793 92.1669 146.932C91.8118 147.068 91.4126 147.136 90.9695 147.136ZM99.5902 143.062V147H98.5845V138.273H99.5902V141.477H99.6754C99.8288 141.139 100.059 140.871 100.366 140.672C100.675 140.47 101.087 140.369 101.602 140.369C102.048 140.369 102.438 140.459 102.773 140.638C103.109 140.814 103.369 141.085 103.553 141.452C103.741 141.815 103.835 142.278 103.835 142.841V147H102.829V142.909C102.829 142.389 102.694 141.987 102.424 141.703C102.157 141.416 101.786 141.273 101.312 141.273C100.982 141.273 100.687 141.342 100.425 141.482C100.167 141.621 99.9624 141.824 99.8118 142.091C99.6641 142.358 99.5902 142.682 99.5902 143.062ZM108.333 147.136C107.743 147.136 107.224 146.996 106.778 146.714C106.335 146.433 105.988 146.04 105.738 145.534C105.491 145.028 105.368 144.437 105.368 143.761C105.368 143.08 105.491 142.484 105.738 141.976C105.988 141.467 106.335 141.072 106.778 140.791C107.224 140.51 107.743 140.369 108.333 140.369C108.924 140.369 109.441 140.51 109.885 140.791C110.331 141.072 110.677 141.467 110.924 141.976C111.174 142.484 111.299 143.08 111.299 143.761C111.299 144.437 111.174 145.028 110.924 145.534C110.677 146.04 110.331 146.433 109.885 146.714C109.441 146.996 108.924 147.136 108.333 147.136ZM108.333 146.233C108.782 146.233 109.152 146.118 109.441 145.888C109.731 145.658 109.946 145.355 110.085 144.98C110.224 144.605 110.294 144.199 110.294 143.761C110.294 143.324 110.224 142.916 110.085 142.538C109.946 142.161 109.731 141.855 109.441 141.622C109.152 141.389 108.782 141.273 108.333 141.273C107.885 141.273 107.515 141.389 107.225 141.622C106.936 141.855 106.721 142.161 106.582 142.538C106.443 142.916 106.373 143.324 106.373 143.761C106.373 144.199 106.443 144.605 106.582 144.98C106.721 145.355 106.936 145.658 107.225 145.888C107.515 146.118 107.885 146.233 108.333 146.233ZM116.96 144.324V140.455H117.965V147H116.96V145.892H116.891C116.738 146.224 116.499 146.507 116.175 146.74C115.852 146.97 115.442 147.085 114.948 147.085C114.539 147.085 114.175 146.996 113.857 146.817C113.539 146.635 113.289 146.362 113.107 145.999C112.925 145.632 112.835 145.17 112.835 144.614V140.455H113.84V144.545C113.84 145.023 113.974 145.403 114.241 145.688C114.511 145.972 114.854 146.114 115.272 146.114C115.522 146.114 115.776 146.05 116.035 145.922C116.296 145.794 116.515 145.598 116.691 145.334C116.87 145.07 116.96 144.733 116.96 144.324ZM125.159 140.455L122.739 147H121.716L119.296 140.455H120.387L122.194 145.67H122.262L124.069 140.455H125.159ZM128.997 147.136C128.366 147.136 127.822 146.997 127.365 146.719C126.91 146.438 126.559 146.045 126.312 145.543C126.068 145.037 125.946 144.449 125.946 143.778C125.946 143.108 126.068 142.517 126.312 142.006C126.559 141.491 126.903 141.091 127.343 140.804C127.787 140.514 128.304 140.369 128.895 140.369C129.235 140.369 129.572 140.426 129.904 140.54C130.237 140.653 130.539 140.838 130.812 141.094C131.085 141.347 131.302 141.682 131.464 142.099C131.626 142.517 131.707 143.031 131.707 143.642V144.068H126.662V143.199H130.684C130.684 142.83 130.61 142.5 130.463 142.21C130.318 141.92 130.11 141.692 129.841 141.524C129.574 141.357 129.258 141.273 128.895 141.273C128.494 141.273 128.147 141.372 127.855 141.571C127.565 141.767 127.342 142.023 127.186 142.338C127.029 142.653 126.951 142.991 126.951 143.352V143.932C126.951 144.426 127.037 144.845 127.207 145.189C127.38 145.53 127.62 145.79 127.927 145.969C128.234 146.145 128.591 146.233 128.997 146.233C129.261 146.233 129.5 146.196 129.713 146.122C129.929 146.045 130.115 145.932 130.271 145.781C130.427 145.628 130.548 145.437 130.633 145.21L131.605 145.483C131.502 145.812 131.331 146.102 131.089 146.352C130.848 146.599 130.549 146.793 130.194 146.932C129.839 147.068 129.44 147.136 128.997 147.136ZM12.6275 162V155.455H13.5991V156.443H13.6673C13.7866 156.119 14.0025 155.857 14.315 155.655C14.6275 155.453 14.9798 155.352 15.3718 155.352C15.4457 155.352 15.538 155.354 15.6488 155.357C15.7596 155.359 15.8434 155.364 15.9002 155.369V156.392C15.8661 156.384 15.788 156.371 15.6658 156.354C15.5465 156.334 15.4201 156.324 15.2866 156.324C14.9684 156.324 14.6843 156.391 14.4343 156.524C14.1871 156.655 13.9911 156.837 13.8462 157.07C13.7042 157.3 13.6332 157.562 13.6332 157.858V162H12.6275ZM19.6374 162.136C19.0067 162.136 18.4627 161.997 18.0053 161.719C17.5508 161.438 17.1999 161.045 16.9528 160.543C16.7085 160.037 16.5863 159.449 16.5863 158.778C16.5863 158.108 16.7085 157.517 16.9528 157.006C17.1999 156.491 17.5437 156.091 17.984 155.804C18.4272 155.514 18.9442 155.369 19.5352 155.369C19.8761 155.369 20.2127 155.426 20.5451 155.54C20.8775 155.653 21.18 155.838 21.4528 156.094C21.7255 156.347 21.9428 156.682 22.1048 157.099C22.2667 157.517 22.3477 158.031 22.3477 158.642V159.068H17.3022V158.199H21.3249C21.3249 157.83 21.2511 157.5 21.1033 157.21C20.9585 156.92 20.7511 156.692 20.4812 156.524C20.2141 156.357 19.8988 156.273 19.5352 156.273C19.1346 156.273 18.788 156.372 18.4954 156.571C18.2056 156.767 17.9826 157.023 17.8263 157.338C17.6701 157.653 17.592 157.991 17.592 158.352V158.932C17.592 159.426 17.6772 159.845 17.8477 160.189C18.021 160.53 18.261 160.79 18.5678 160.969C18.8746 161.145 19.2312 161.233 19.6374 161.233C19.9016 161.233 20.1403 161.196 20.3533 161.122C20.5692 161.045 20.7553 160.932 20.9116 160.781C21.0678 160.628 21.1886 160.437 21.2738 160.21L22.2454 160.483C22.1431 160.812 21.9712 161.102 21.7298 161.352C21.4883 161.599 21.19 161.793 20.8349 161.932C20.4798 162.068 20.0806 162.136 19.6374 162.136ZM26.5366 162.136C25.9229 162.136 25.3945 161.991 24.9513 161.702C24.5082 161.412 24.1673 161.013 23.9286 160.504C23.69 159.996 23.5707 159.415 23.5707 158.761C23.5707 158.097 23.6928 157.51 23.9371 157.001C24.1843 156.49 24.5281 156.091 24.9684 155.804C25.4116 155.514 25.9286 155.369 26.5195 155.369C26.9798 155.369 27.3945 155.455 27.7638 155.625C28.1332 155.795 28.4357 156.034 28.6715 156.341C28.9073 156.648 29.0536 157.006 29.1104 157.415H28.1048C28.0281 157.116 27.8576 156.852 27.5934 156.622C27.332 156.389 26.9798 156.273 26.5366 156.273C26.1445 156.273 25.8008 156.375 25.5053 156.58C25.2127 156.781 24.984 157.067 24.8192 157.436C24.6573 157.803 24.5763 158.233 24.5763 158.727C24.5763 159.233 24.6559 159.673 24.815 160.048C24.9769 160.423 25.2042 160.714 25.4968 160.922C25.7923 161.129 26.1388 161.233 26.5366 161.233C26.7979 161.233 27.0352 161.188 27.2482 161.097C27.4613 161.006 27.6417 160.875 27.7894 160.705C27.9371 160.534 28.0423 160.33 28.1048 160.091H29.1104C29.0536 160.477 28.913 160.825 28.6886 161.135C28.467 161.442 28.1729 161.686 27.8065 161.868C27.4428 162.047 27.0195 162.136 26.5366 162.136ZM33.3249 162.136C32.6942 162.136 32.1502 161.997 31.6928 161.719C31.2383 161.438 30.8874 161.045 30.6403 160.543C30.396 160.037 30.2738 159.449 30.2738 158.778C30.2738 158.108 30.396 157.517 30.6403 157.006C30.8874 156.491 31.2312 156.091 31.6715 155.804C32.1147 155.514 32.6317 155.369 33.2227 155.369C33.5636 155.369 33.9002 155.426 34.2326 155.54C34.565 155.653 34.8675 155.838 35.1403 156.094C35.413 156.347 35.6303 156.682 35.7923 157.099C35.9542 157.517 36.0352 158.031 36.0352 158.642V159.068H30.9897V158.199H35.0124C35.0124 157.83 34.9386 157.5 34.7908 157.21C34.646 156.92 34.4386 156.692 34.1687 156.524C33.9016 156.357 33.5863 156.273 33.2227 156.273C32.8221 156.273 32.4755 156.372 32.1829 156.571C31.8931 156.767 31.6701 157.023 31.5138 157.338C31.3576 157.653 31.2795 157.991 31.2795 158.352V158.932C31.2795 159.426 31.3647 159.845 31.5352 160.189C31.7085 160.53 31.9485 160.79 32.2553 160.969C32.5621 161.145 32.9187 161.233 33.3249 161.233C33.5891 161.233 33.8278 161.196 34.0408 161.122C34.2567 161.045 34.4428 160.932 34.5991 160.781C34.7553 160.628 34.8761 160.437 34.9613 160.21L35.9329 160.483C35.8306 160.812 35.6587 161.102 35.4173 161.352C35.1758 161.599 34.8775 161.793 34.5224 161.932C34.1673 162.068 33.7681 162.136 33.3249 162.136ZM38.5707 158.062V162H37.565V155.455H38.5366V156.477H38.6218C38.7752 156.145 39.0082 155.878 39.3207 155.676C39.6332 155.472 40.0366 155.369 40.5309 155.369C40.9741 155.369 41.3619 155.46 41.6942 155.642C42.0266 155.821 42.2852 156.094 42.4698 156.46C42.6545 156.824 42.7468 157.284 42.7468 157.841V162H41.7411V157.909C41.7411 157.395 41.6076 156.994 41.3406 156.707C41.0735 156.418 40.707 156.273 40.2411 156.273C39.9201 156.273 39.6332 156.342 39.3803 156.482C39.1303 156.621 38.9329 156.824 38.788 157.091C38.6431 157.358 38.5707 157.682 38.5707 158.062ZM47.4311 155.455V156.307H44.0391V155.455H47.4311ZM45.0277 153.886H46.0334V160.125C46.0334 160.409 46.0746 160.622 46.157 160.764C46.2422 160.903 46.3501 160.997 46.4808 161.045C46.6143 161.091 46.755 161.114 46.9027 161.114C47.0135 161.114 47.1044 161.108 47.1754 161.097C47.2464 161.082 47.3033 161.071 47.3459 161.062L47.5504 161.966C47.4822 161.991 47.3871 162.017 47.2649 162.043C47.1428 162.071 46.9879 162.085 46.8004 162.085C46.5163 162.085 46.2379 162.024 45.9652 161.902C45.6953 161.78 45.4709 161.594 45.2919 161.344C45.1158 161.094 45.0277 160.778 45.0277 160.398V153.886ZM51.6179 162.136C50.9872 162.136 50.4432 161.997 49.9858 161.719C49.5312 161.438 49.1804 161.045 48.9332 160.543C48.6889 160.037 48.5668 159.449 48.5668 158.778C48.5668 158.108 48.6889 157.517 48.9332 157.006C49.1804 156.491 49.5241 156.091 49.9645 155.804C50.4077 155.514 50.9247 155.369 51.5156 155.369C51.8565 155.369 52.1932 155.426 52.5256 155.54C52.858 155.653 53.1605 155.838 53.4332 156.094C53.706 156.347 53.9233 156.682 54.0852 157.099C54.2472 157.517 54.3281 158.031 54.3281 158.642V159.068H49.2827V158.199H53.3054C53.3054 157.83 53.2315 157.5 53.0838 157.21C52.9389 156.92 52.7315 156.692 52.4616 156.524C52.1946 156.357 51.8793 156.273 51.5156 156.273C51.1151 156.273 50.7685 156.372 50.4759 156.571C50.1861 156.767 49.9631 157.023 49.8068 157.338C49.6506 157.653 49.5724 157.991 49.5724 158.352V158.932C49.5724 159.426 49.6577 159.845 49.8281 160.189C50.0014 160.53 50.2415 160.79 50.5483 160.969C50.8551 161.145 51.2116 161.233 51.6179 161.233C51.8821 161.233 52.1207 161.196 52.3338 161.122C52.5497 161.045 52.7358 160.932 52.892 160.781C53.0483 160.628 53.169 160.437 53.2543 160.21L54.2259 160.483C54.1236 160.812 53.9517 161.102 53.7102 161.352C53.4688 161.599 53.1705 161.793 52.8153 161.932C52.4602 162.068 52.0611 162.136 51.6179 162.136ZM60.4943 156.92L59.5909 157.176C59.5341 157.026 59.4503 156.879 59.3395 156.737C59.2315 156.592 59.0838 156.473 58.8963 156.379C58.7088 156.286 58.4688 156.239 58.1761 156.239C57.7756 156.239 57.4418 156.331 57.1747 156.516C56.9105 156.697 56.7784 156.929 56.7784 157.21C56.7784 157.46 56.8693 157.658 57.0511 157.803C57.233 157.947 57.517 158.068 57.9034 158.165L58.875 158.403C59.4602 158.545 59.8963 158.763 60.1832 159.055C60.4702 159.345 60.6136 159.719 60.6136 160.176C60.6136 160.551 60.5057 160.886 60.2898 161.182C60.0767 161.477 59.7784 161.71 59.3949 161.881C59.0114 162.051 58.5653 162.136 58.0568 162.136C57.3892 162.136 56.8366 161.991 56.3991 161.702C55.9616 161.412 55.6847 160.989 55.5682 160.432L56.5227 160.193C56.6136 160.545 56.7855 160.81 57.0384 160.986C57.294 161.162 57.6278 161.25 58.0398 161.25C58.5085 161.25 58.8807 161.151 59.1562 160.952C59.4347 160.75 59.5739 160.509 59.5739 160.227C59.5739 160 59.4943 159.81 59.3352 159.656C59.1761 159.5 58.9318 159.384 58.6023 159.307L57.5114 159.051C56.9119 158.909 56.4716 158.689 56.1903 158.391C55.9119 158.089 55.7727 157.713 55.7727 157.261C55.7727 156.892 55.8764 156.565 56.0838 156.281C56.294 155.997 56.5795 155.774 56.9403 155.612C57.304 155.45 57.7159 155.369 58.1761 155.369C58.8239 155.369 59.3324 155.511 59.7017 155.795C60.0739 156.08 60.3381 156.455 60.4943 156.92ZM67.4286 162.153C67.0138 162.153 66.6374 162.075 66.2994 161.919C65.9613 161.76 65.6928 161.531 65.494 161.233C65.2951 160.932 65.1957 160.568 65.1957 160.142C65.1957 159.767 65.2695 159.463 65.4173 159.23C65.565 158.994 65.7624 158.81 66.0096 158.676C66.2567 158.543 66.5295 158.443 66.8278 158.378C67.1289 158.31 67.4315 158.256 67.7354 158.216C68.1332 158.165 68.4556 158.126 68.7028 158.101C68.9528 158.072 69.1346 158.026 69.2482 157.96C69.3647 157.895 69.4229 157.781 69.4229 157.619V157.585C69.4229 157.165 69.3079 156.838 69.0778 156.605C68.8505 156.372 68.5053 156.256 68.0423 156.256C67.5621 156.256 67.1857 156.361 66.913 156.571C66.6403 156.781 66.4485 157.006 66.3377 157.244L65.3832 156.903C65.5536 156.506 65.7809 156.196 66.065 155.974C66.3519 155.75 66.6644 155.594 67.0025 155.506C67.3434 155.415 67.6786 155.369 68.0082 155.369C68.2184 155.369 68.4599 155.395 68.7326 155.446C69.0082 155.494 69.2738 155.595 69.5295 155.749C69.788 155.902 70.0025 156.134 70.1729 156.443C70.3434 156.753 70.4286 157.168 70.4286 157.688V162H69.4229V161.114H69.3718C69.3036 161.256 69.19 161.408 69.0309 161.57C68.8718 161.732 68.6602 161.869 68.396 161.983C68.1317 162.097 67.8093 162.153 67.4286 162.153ZM67.582 161.25C67.9798 161.25 68.315 161.172 68.5877 161.016C68.8633 160.859 69.0707 160.658 69.2099 160.411C69.3519 160.163 69.4229 159.903 69.4229 159.631V158.71C69.3803 158.761 69.2866 158.808 69.1417 158.851C68.9996 158.891 68.8349 158.926 68.6474 158.957C68.4627 158.986 68.2823 159.011 68.1062 159.034C67.9329 159.054 67.7923 159.071 67.6843 159.085C67.4229 159.119 67.1786 159.175 66.9513 159.251C66.7269 159.325 66.5451 159.437 66.4059 159.588C66.2695 159.736 66.2013 159.937 66.2013 160.193C66.2013 160.543 66.3306 160.807 66.5891 160.986C66.8505 161.162 67.1815 161.25 67.582 161.25ZM75.1108 155.455V156.307H71.7188V155.455H75.1108ZM72.7074 153.886H73.7131V160.125C73.7131 160.409 73.7543 160.622 73.8366 160.764C73.9219 160.903 74.0298 160.997 74.1605 161.045C74.294 161.091 74.4347 161.114 74.5824 161.114C74.6932 161.114 74.7841 161.108 74.8551 161.097C74.9261 161.082 74.983 161.071 75.0256 161.062L75.2301 161.966C75.1619 161.991 75.0668 162.017 74.9446 162.043C74.8224 162.071 74.6676 162.085 74.4801 162.085C74.196 162.085 73.9176 162.024 73.6449 161.902C73.375 161.78 73.1506 161.594 72.9716 161.344C72.7955 161.094 72.7074 160.778 72.7074 160.398V153.886ZM80.7486 159.324V155.455H81.7543V162H80.7486V160.892H80.6804C80.527 161.224 80.2884 161.507 79.9645 161.74C79.6406 161.97 79.2315 162.085 78.7372 162.085C78.3281 162.085 77.9645 161.996 77.6463 161.817C77.3281 161.635 77.0781 161.362 76.8963 160.999C76.7145 160.632 76.6236 160.17 76.6236 159.614V155.455H77.6293V159.545C77.6293 160.023 77.7628 160.403 78.0298 160.688C78.2997 160.972 78.6435 161.114 79.0611 161.114C79.3111 161.114 79.5653 161.05 79.8239 160.922C80.0852 160.794 80.304 160.598 80.4801 160.334C80.6591 160.07 80.7486 159.733 80.7486 159.324ZM85.5224 162.153C85.1076 162.153 84.7312 162.075 84.3931 161.919C84.055 161.76 83.7866 161.531 83.5877 161.233C83.3888 160.932 83.2894 160.568 83.2894 160.142C83.2894 159.767 83.3633 159.463 83.511 159.23C83.6587 158.994 83.8562 158.81 84.1033 158.676C84.3505 158.543 84.6232 158.443 84.9215 158.378C85.2227 158.31 85.5252 158.256 85.8292 158.216C86.2269 158.165 86.5494 158.126 86.7965 158.101C87.0465 158.072 87.2283 158.026 87.342 157.96C87.4585 157.895 87.5167 157.781 87.5167 157.619V157.585C87.5167 157.165 87.4016 156.838 87.1715 156.605C86.9442 156.372 86.5991 156.256 86.136 156.256C85.6559 156.256 85.2795 156.361 85.0067 156.571C84.734 156.781 84.5423 157.006 84.4315 157.244L83.4769 156.903C83.6474 156.506 83.8746 156.196 84.1587 155.974C84.4457 155.75 84.7582 155.594 85.0962 155.506C85.4371 155.415 85.7724 155.369 86.1019 155.369C86.3121 155.369 86.5536 155.395 86.8263 155.446C87.1019 155.494 87.3675 155.595 87.6232 155.749C87.8817 155.902 88.0962 156.134 88.2667 156.443C88.4371 156.753 88.5224 157.168 88.5224 157.688V162H87.5167V161.114H87.4656C87.3974 161.256 87.2837 161.408 87.1246 161.57C86.9656 161.732 86.7539 161.869 86.4897 161.983C86.2255 162.097 85.9031 162.153 85.5224 162.153ZM85.6758 161.25C86.0735 161.25 86.4087 161.172 86.6815 161.016C86.957 160.859 87.1644 160.658 87.3036 160.411C87.4457 160.163 87.5167 159.903 87.5167 159.631V158.71C87.4741 158.761 87.3803 158.808 87.2354 158.851C87.0934 158.891 86.9286 158.926 86.7411 158.957C86.5565 158.986 86.3761 159.011 86.1999 159.034C86.0266 159.054 85.886 159.071 85.7781 159.085C85.5167 159.119 85.2724 159.175 85.0451 159.251C84.8207 159.325 84.6388 159.437 84.4996 159.588C84.3633 159.736 84.2951 159.937 84.2951 160.193C84.2951 160.543 84.4244 160.807 84.6829 160.986C84.9442 161.162 85.2752 161.25 85.6758 161.25ZM91.3636 153.273V162H90.358V153.273H91.3636ZM93.2056 162V155.455H94.2113V162H93.2056ZM93.717 154.364C93.521 154.364 93.3519 154.297 93.2099 154.163C93.0707 154.03 93.0011 153.869 93.0011 153.682C93.0011 153.494 93.0707 153.334 93.2099 153.2C93.3519 153.067 93.521 153 93.717 153C93.913 153 94.0806 153.067 94.2198 153.2C94.3619 153.334 94.4329 153.494 94.4329 153.682C94.4329 153.869 94.3619 154.03 94.2198 154.163C94.0806 154.297 93.913 154.364 93.717 154.364ZM95.8658 162V161.233L99.5817 156.46V156.392H95.9851V155.455H100.877V156.256L97.2635 160.994V161.062H100.996V162H95.8658ZM104.472 162.153C104.057 162.153 103.68 162.075 103.342 161.919C103.004 161.76 102.736 161.531 102.537 161.233C102.338 160.932 102.239 160.568 102.239 160.142C102.239 159.767 102.313 159.463 102.46 159.23C102.608 158.994 102.805 158.81 103.053 158.676C103.3 158.543 103.572 158.443 103.871 158.378C104.172 158.31 104.474 158.256 104.778 158.216C105.176 158.165 105.499 158.126 105.746 158.101C105.996 158.072 106.178 158.026 106.291 157.96C106.408 157.895 106.466 157.781 106.466 157.619V157.585C106.466 157.165 106.351 156.838 106.121 156.605C105.893 156.372 105.548 156.256 105.085 156.256C104.605 156.256 104.229 156.361 103.956 156.571C103.683 156.781 103.491 157.006 103.381 157.244L102.426 156.903C102.597 156.506 102.824 156.196 103.108 155.974C103.395 155.75 103.707 155.594 104.045 155.506C104.386 155.415 104.722 155.369 105.051 155.369C105.261 155.369 105.503 155.395 105.776 155.446C106.051 155.494 106.317 155.595 106.572 155.749C106.831 155.902 107.045 156.134 107.216 156.443C107.386 156.753 107.472 157.168 107.472 157.688V162H106.466V161.114H106.415C106.347 161.256 106.233 161.408 106.074 161.57C105.915 161.732 105.703 161.869 105.439 161.983C105.175 162.097 104.852 162.153 104.472 162.153ZM104.625 161.25C105.023 161.25 105.358 161.172 105.631 161.016C105.906 160.859 106.114 160.658 106.253 160.411C106.395 160.163 106.466 159.903 106.466 159.631V158.71C106.423 158.761 106.33 158.808 106.185 158.851C106.043 158.891 105.878 158.926 105.69 158.957C105.506 158.986 105.325 159.011 105.149 159.034C104.976 159.054 104.835 159.071 104.727 159.085C104.466 159.119 104.222 159.175 103.994 159.251C103.77 159.325 103.588 159.437 103.449 159.588C103.313 159.736 103.244 159.937 103.244 160.193C103.244 160.543 103.374 160.807 103.632 160.986C103.893 161.162 104.224 161.25 104.625 161.25ZM111.966 162.136C111.353 162.136 110.824 161.991 110.381 161.702C109.938 161.412 109.597 161.013 109.358 160.504C109.12 159.996 109 159.415 109 158.761C109 158.097 109.123 157.51 109.367 157.001C109.614 156.49 109.958 156.091 110.398 155.804C110.841 155.514 111.358 155.369 111.949 155.369C112.409 155.369 112.824 155.455 113.194 155.625C113.563 155.795 113.865 156.034 114.101 156.341C114.337 156.648 114.483 157.006 114.54 157.415H113.534C113.458 157.116 113.287 156.852 113.023 156.622C112.762 156.389 112.409 156.273 111.966 156.273C111.574 156.273 111.23 156.375 110.935 156.58C110.642 156.781 110.414 157.067 110.249 157.436C110.087 157.803 110.006 158.233 110.006 158.727C110.006 159.233 110.086 159.673 110.245 160.048C110.407 160.423 110.634 160.714 110.926 160.922C111.222 161.129 111.569 161.233 111.966 161.233C112.228 161.233 112.465 161.188 112.678 161.097C112.891 161.006 113.071 160.875 113.219 160.705C113.367 160.534 113.472 160.33 113.534 160.091H114.54C114.483 160.477 114.343 160.825 114.118 161.135C113.897 161.442 113.603 161.686 113.236 161.868C112.873 162.047 112.449 162.136 111.966 162.136ZM111.489 161.966H112.324L112.256 162.307C112.478 162.341 112.681 162.433 112.865 162.584C113.05 162.737 113.142 162.98 113.142 163.312C113.142 163.679 112.99 163.977 112.686 164.207C112.385 164.44 111.941 164.557 111.353 164.557L111.319 163.892C111.583 163.892 111.801 163.849 111.975 163.764C112.151 163.682 112.239 163.543 112.239 163.347C112.239 163.151 112.167 163.017 112.022 162.946C111.877 162.875 111.642 162.827 111.319 162.801L111.489 161.966ZM118.669 162.136C118.078 162.136 117.56 161.996 117.114 161.714C116.671 161.433 116.324 161.04 116.074 160.534C115.827 160.028 115.703 159.437 115.703 158.761C115.703 158.08 115.827 157.484 116.074 156.976C116.324 156.467 116.671 156.072 117.114 155.791C117.56 155.51 118.078 155.369 118.669 155.369C119.26 155.369 119.777 155.51 120.221 155.791C120.667 156.072 121.013 156.467 121.26 156.976C121.51 157.484 121.635 158.08 121.635 158.761C121.635 159.437 121.51 160.028 121.26 160.534C121.013 161.04 120.667 161.433 120.221 161.714C119.777 161.996 119.26 162.136 118.669 162.136ZM118.669 161.233C119.118 161.233 119.488 161.118 119.777 160.888C120.067 160.658 120.282 160.355 120.421 159.98C120.56 159.605 120.63 159.199 120.63 158.761C120.63 158.324 120.56 157.916 120.421 157.538C120.282 157.161 120.067 156.855 119.777 156.622C119.488 156.389 119.118 156.273 118.669 156.273C118.221 156.273 117.851 156.389 117.561 156.622C117.272 156.855 117.057 157.161 116.918 157.538C116.779 157.916 116.709 158.324 116.709 158.761C116.709 159.199 116.779 159.605 116.918 159.98C117.057 160.355 117.272 160.658 117.561 160.888C117.851 161.118 118.221 161.233 118.669 161.233ZM117.357 154.67L116.573 154.636C116.573 154.202 116.696 153.847 116.944 153.571C117.194 153.293 117.502 153.153 117.868 153.153C118.03 153.153 118.174 153.182 118.299 153.239C118.424 153.293 118.543 153.355 118.657 153.426C118.77 153.497 118.887 153.561 119.006 153.618C119.128 153.672 119.266 153.699 119.419 153.699C119.581 153.699 119.718 153.636 119.828 153.511C119.942 153.384 119.999 153.23 119.999 153.051L120.766 153.119C120.766 153.562 120.641 153.915 120.391 154.176C120.144 154.437 119.837 154.568 119.471 154.568C119.275 154.568 119.113 154.541 118.985 154.487C118.857 154.43 118.743 154.366 118.644 154.295C118.544 154.224 118.439 154.162 118.328 154.108C118.218 154.051 118.081 154.023 117.919 154.023C117.757 154.023 117.623 154.087 117.515 154.214C117.409 154.339 117.357 154.491 117.357 154.67ZM125.915 162.136C125.284 162.136 124.74 161.997 124.283 161.719C123.828 161.438 123.477 161.045 123.23 160.543C122.986 160.037 122.864 159.449 122.864 158.778C122.864 158.108 122.986 157.517 123.23 157.006C123.477 156.491 123.821 156.091 124.261 155.804C124.705 155.514 125.222 155.369 125.812 155.369C126.153 155.369 126.49 155.426 126.822 155.54C127.155 155.653 127.457 155.838 127.73 156.094C128.003 156.347 128.22 156.682 128.382 157.099C128.544 157.517 128.625 158.031 128.625 158.642V159.068H123.58V158.199H127.602C127.602 157.83 127.528 157.5 127.381 157.21C127.236 156.92 127.028 156.692 126.759 156.524C126.491 156.357 126.176 156.273 125.812 156.273C125.412 156.273 125.065 156.372 124.773 156.571C124.483 156.767 124.26 157.023 124.104 157.338C123.947 157.653 123.869 157.991 123.869 158.352V158.932C123.869 159.426 123.955 159.845 124.125 160.189C124.298 160.53 124.538 160.79 124.845 160.969C125.152 161.145 125.509 161.233 125.915 161.233C126.179 161.233 126.418 161.196 126.631 161.122C126.847 161.045 127.033 160.932 127.189 160.781C127.345 160.628 127.466 160.437 127.551 160.21L128.523 160.483C128.42 160.812 128.249 161.102 128.007 161.352C127.766 161.599 127.467 161.793 127.112 161.932C126.757 162.068 126.358 162.136 125.915 162.136ZM134.791 156.92L133.888 157.176C133.831 157.026 133.747 156.879 133.636 156.737C133.528 156.592 133.381 156.473 133.193 156.379C133.006 156.286 132.766 156.239 132.473 156.239C132.072 156.239 131.739 156.331 131.472 156.516C131.207 156.697 131.075 156.929 131.075 157.21C131.075 157.46 131.166 157.658 131.348 157.803C131.53 157.947 131.814 158.068 132.2 158.165L133.172 158.403C133.757 158.545 134.193 158.763 134.48 159.055C134.767 159.345 134.911 159.719 134.911 160.176C134.911 160.551 134.803 160.886 134.587 161.182C134.374 161.477 134.075 161.71 133.692 161.881C133.308 162.051 132.862 162.136 132.354 162.136C131.686 162.136 131.134 161.991 130.696 161.702C130.259 161.412 129.982 160.989 129.865 160.432L130.82 160.193C130.911 160.545 131.082 160.81 131.335 160.986C131.591 161.162 131.925 161.25 132.337 161.25C132.805 161.25 133.178 161.151 133.453 160.952C133.732 160.75 133.871 160.509 133.871 160.227C133.871 160 133.791 159.81 133.632 159.656C133.473 159.5 133.229 159.384 132.899 159.307L131.808 159.051C131.209 158.909 130.768 158.689 130.487 158.391C130.209 158.089 130.07 157.713 130.07 157.261C130.07 156.892 130.173 156.565 130.381 156.281C130.591 155.997 130.876 155.774 131.237 155.612C131.601 155.45 132.013 155.369 132.473 155.369C133.121 155.369 133.629 155.511 133.999 155.795C134.371 156.08 134.635 156.455 134.791 156.92ZM142.544 162.136C141.913 162.136 141.369 161.997 140.912 161.719C140.457 161.438 140.106 161.045 139.859 160.543C139.615 160.037 139.493 159.449 139.493 158.778C139.493 158.108 139.615 157.517 139.859 157.006C140.106 156.491 140.45 156.091 140.89 155.804C141.333 155.514 141.85 155.369 142.441 155.369C142.782 155.369 143.119 155.426 143.451 155.54C143.784 155.653 144.086 155.838 144.359 156.094C144.632 156.347 144.849 156.682 145.011 157.099C145.173 157.517 145.254 158.031 145.254 158.642V159.068H140.208V158.199H144.231C144.231 157.83 144.157 157.5 144.01 157.21C143.865 156.92 143.657 156.692 143.387 156.524C143.12 156.357 142.805 156.273 142.441 156.273C142.041 156.273 141.694 156.372 141.402 156.571C141.112 156.767 140.889 157.023 140.733 157.338C140.576 157.653 140.498 157.991 140.498 158.352V158.932C140.498 159.426 140.583 159.845 140.754 160.189C140.927 160.53 141.167 160.79 141.474 160.969C141.781 161.145 142.137 161.233 142.544 161.233C142.808 161.233 143.047 161.196 143.26 161.122C143.475 161.045 143.662 160.932 143.818 160.781C143.974 160.628 144.095 160.437 144.18 160.21L145.152 160.483C145.049 160.812 144.877 161.102 144.636 161.352C144.395 161.599 144.096 161.793 143.741 161.932C143.386 162.068 142.987 162.136 142.544 162.136ZM146.784 162V155.455H147.755V156.477H147.841C147.977 156.128 148.197 155.857 148.501 155.663C148.805 155.467 149.17 155.369 149.596 155.369C150.028 155.369 150.387 155.467 150.674 155.663C150.964 155.857 151.19 156.128 151.352 156.477H151.42C151.588 156.139 151.839 155.871 152.174 155.672C152.51 155.47 152.912 155.369 153.38 155.369C153.966 155.369 154.444 155.553 154.816 155.919C155.189 156.283 155.375 156.849 155.375 157.619V162H154.369V157.619C154.369 157.136 154.237 156.791 153.973 156.584C153.708 156.376 153.397 156.273 153.039 156.273C152.579 156.273 152.223 156.412 151.97 156.69C151.717 156.966 151.591 157.315 151.591 157.739V162H150.568V157.517C150.568 157.145 150.447 156.845 150.206 156.618C149.964 156.388 149.653 156.273 149.272 156.273C149.011 156.273 148.767 156.342 148.539 156.482C148.315 156.621 148.133 156.814 147.994 157.061C147.858 157.305 147.789 157.588 147.789 157.909V162H146.784ZM27.7138 177.153C27.299 177.153 26.9226 177.075 26.5845 176.919C26.2464 176.76 25.978 176.531 25.7791 176.233C25.5803 175.932 25.4808 175.568 25.4808 175.142C25.4808 174.767 25.5547 174.463 25.7024 174.23C25.8501 173.994 26.0476 173.81 26.2947 173.676C26.5419 173.543 26.8146 173.443 27.1129 173.378C27.4141 173.31 27.7166 173.256 28.0206 173.216C28.4183 173.165 28.7408 173.126 28.9879 173.101C29.2379 173.072 29.4197 173.026 29.5334 172.96C29.6499 172.895 29.7081 172.781 29.7081 172.619V172.585C29.7081 172.165 29.593 171.838 29.3629 171.605C29.1357 171.372 28.7905 171.256 28.3274 171.256C27.8473 171.256 27.4709 171.361 27.1982 171.571C26.9254 171.781 26.7337 172.006 26.6229 172.244L25.6683 171.903C25.8388 171.506 26.0661 171.196 26.3501 170.974C26.6371 170.75 26.9496 170.594 27.2876 170.506C27.6286 170.415 27.9638 170.369 28.2933 170.369C28.5036 170.369 28.745 170.395 29.0178 170.446C29.2933 170.494 29.5589 170.595 29.8146 170.749C30.0732 170.902 30.2876 171.134 30.4581 171.443C30.6286 171.753 30.7138 172.168 30.7138 172.688V177H29.7081V176.114H29.657C29.5888 176.256 29.4751 176.408 29.3161 176.57C29.157 176.732 28.9453 176.869 28.6811 176.983C28.4169 177.097 28.0945 177.153 27.7138 177.153ZM27.8672 176.25C28.2649 176.25 28.6001 176.172 28.8729 176.016C29.1484 175.859 29.3558 175.658 29.495 175.411C29.6371 175.163 29.7081 174.903 29.7081 174.631V173.71C29.6655 173.761 29.5717 173.808 29.4268 173.851C29.2848 173.891 29.12 173.926 28.9325 173.957C28.7479 173.986 28.5675 174.011 28.3913 174.034C28.218 174.054 28.0774 174.071 27.9695 174.085C27.7081 174.119 27.4638 174.175 27.2365 174.251C27.0121 174.325 26.8303 174.437 26.6911 174.588C26.5547 174.736 26.4865 174.937 26.4865 175.193C26.4865 175.543 26.6158 175.807 26.8743 175.986C27.1357 176.162 27.4666 176.25 27.8672 176.25ZM33.555 168.273V177H32.5494V168.273H33.555ZM38.0391 179.591C37.5533 179.591 37.1357 179.528 36.7862 179.403C36.4368 179.281 36.1456 179.119 35.9126 178.918C35.6825 178.719 35.4993 178.506 35.3629 178.278L36.1641 177.716C36.255 177.835 36.37 177.972 36.5092 178.125C36.6484 178.281 36.8388 178.416 37.0803 178.53C37.3246 178.646 37.6442 178.705 38.0391 178.705C38.5675 178.705 39.0036 178.577 39.3473 178.321C39.6911 178.065 39.8629 177.665 39.8629 177.119V175.79H39.7777C39.7038 175.909 39.5987 176.057 39.4624 176.233C39.3288 176.406 39.1357 176.561 38.8828 176.697C38.6328 176.831 38.2947 176.898 37.8686 176.898C37.3402 176.898 36.8658 176.773 36.4453 176.523C36.0277 176.273 35.6967 175.909 35.4524 175.432C35.2109 174.955 35.0902 174.375 35.0902 173.693C35.0902 173.023 35.2081 172.439 35.4439 171.942C35.6797 171.442 36.0078 171.055 36.4283 170.783C36.8487 170.507 37.3345 170.369 37.8857 170.369C38.3118 170.369 38.6499 170.44 38.8999 170.582C39.1527 170.722 39.3459 170.881 39.4794 171.06C39.6158 171.236 39.7209 171.381 39.7947 171.494H39.897V170.455H40.8686V177.188C40.8686 177.75 40.7408 178.207 40.4851 178.56C40.2322 178.915 39.8913 179.175 39.4624 179.339C39.0362 179.507 38.5618 179.591 38.0391 179.591ZM38.005 175.994C38.4084 175.994 38.7493 175.902 39.0277 175.717C39.3061 175.533 39.5178 175.267 39.6626 174.92C39.8075 174.574 39.88 174.159 39.88 173.676C39.88 173.205 39.8089 172.788 39.6669 172.428C39.5249 172.067 39.3146 171.784 39.0362 171.58C38.7578 171.375 38.4141 171.273 38.005 171.273C37.5788 171.273 37.2237 171.381 36.9396 171.597C36.6584 171.812 36.4467 172.102 36.3047 172.466C36.1655 172.83 36.0959 173.233 36.0959 173.676C36.0959 174.131 36.1669 174.533 36.3089 174.882C36.4538 175.229 36.6669 175.501 36.9482 175.7C37.2322 175.896 37.5845 175.994 38.005 175.994ZM46.8345 174.324V170.455H47.8402V177H46.8345V175.892H46.7663C46.6129 176.224 46.3743 176.507 46.0504 176.74C45.7266 176.97 45.3175 177.085 44.8232 177.085C44.4141 177.085 44.0504 176.996 43.7322 176.817C43.4141 176.635 43.1641 176.362 42.9822 175.999C42.8004 175.632 42.7095 175.17 42.7095 174.614V170.455H43.7152V174.545C43.7152 175.023 43.8487 175.403 44.1158 175.688C44.3857 175.972 44.7294 176.114 45.147 176.114C45.397 176.114 45.6513 176.05 45.9098 175.922C46.1712 175.794 46.3899 175.598 46.5661 175.334C46.745 175.07 46.8345 174.733 46.8345 174.324ZM49.6822 177V170.455H50.6538V171.477H50.739C50.8754 171.128 51.0955 170.857 51.3995 170.663C51.7035 170.467 52.0685 170.369 52.4947 170.369C52.9265 170.369 53.2859 170.467 53.5728 170.663C53.8626 170.857 54.0884 171.128 54.2504 171.477H54.3185C54.4862 171.139 54.7376 170.871 55.0728 170.672C55.408 170.47 55.81 170.369 56.2788 170.369C56.864 170.369 57.3427 170.553 57.7148 170.919C58.087 171.283 58.2731 171.849 58.2731 172.619V177H57.2674V172.619C57.2674 172.136 57.1353 171.791 56.8711 171.584C56.6069 171.376 56.2958 171.273 55.9379 171.273C55.4776 171.273 55.1211 171.412 54.8683 171.69C54.6154 171.966 54.489 172.315 54.489 172.739V177H53.4663V172.517C53.4663 172.145 53.3455 171.845 53.104 171.618C52.8626 171.388 52.5515 171.273 52.1708 171.273C51.9094 171.273 51.6651 171.342 51.4379 171.482C51.2134 171.621 51.0316 171.814 50.8924 172.061C50.756 172.305 50.6879 172.588 50.6879 172.909V177H49.6822ZM65.9585 177.136C65.413 177.136 64.9315 176.999 64.5138 176.723C64.0962 176.445 63.7695 176.053 63.5337 175.547C63.2979 175.038 63.18 174.438 63.18 173.744C63.18 173.057 63.2979 172.46 63.5337 171.955C63.7695 171.449 64.0977 171.058 64.5181 170.783C64.9386 170.507 65.4244 170.369 65.9755 170.369C66.4016 170.369 66.7383 170.44 66.9854 170.582C67.2354 170.722 67.4258 170.881 67.5565 171.06C67.69 171.236 67.7937 171.381 67.8675 171.494H67.9528V168.273H68.9585V177H67.9869V175.994H67.8675C67.7937 176.114 67.6886 176.264 67.5522 176.446C67.4158 176.625 67.2212 176.786 66.9684 176.928C66.7156 177.067 66.3789 177.136 65.9585 177.136ZM66.0948 176.233C66.4982 176.233 66.8391 176.128 67.1175 175.918C67.396 175.705 67.6076 175.411 67.7525 175.036C67.8974 174.658 67.9698 174.222 67.9698 173.727C67.9698 173.239 67.8988 172.811 67.7567 172.445C67.6147 172.075 67.4045 171.788 67.1261 171.584C66.8477 171.376 66.5039 171.273 66.0948 171.273C65.6687 171.273 65.3136 171.382 65.0295 171.601C64.7482 171.817 64.5366 172.111 64.3945 172.483C64.2553 172.852 64.1857 173.267 64.1857 173.727C64.1857 174.193 64.2567 174.616 64.3988 174.997C64.5437 175.375 64.7567 175.676 65.038 175.901C65.3221 176.122 65.6744 176.233 66.0948 176.233ZM73.5991 177.136C73.0082 177.136 72.4897 176.996 72.0437 176.714C71.6005 176.433 71.2539 176.04 71.0039 175.534C70.7567 175.028 70.6332 174.437 70.6332 173.761C70.6332 173.08 70.7567 172.484 71.0039 171.976C71.2539 171.467 71.6005 171.072 72.0437 170.791C72.4897 170.51 73.0082 170.369 73.5991 170.369C74.19 170.369 74.707 170.51 75.1502 170.791C75.5962 171.072 75.9428 171.467 76.19 171.976C76.44 172.484 76.565 173.08 76.565 173.761C76.565 174.437 76.44 175.028 76.19 175.534C75.9428 176.04 75.5962 176.433 75.1502 176.714C74.707 176.996 74.19 177.136 73.5991 177.136ZM73.5991 176.233C74.0479 176.233 74.4173 176.118 74.707 175.888C74.9968 175.658 75.2113 175.355 75.3505 174.98C75.4897 174.605 75.5593 174.199 75.5593 173.761C75.5593 173.324 75.4897 172.916 75.3505 172.538C75.2113 172.161 74.9968 171.855 74.707 171.622C74.4173 171.389 74.0479 171.273 73.5991 171.273C73.1502 171.273 72.7809 171.389 72.4911 171.622C72.2013 171.855 71.9869 172.161 71.8477 172.538C71.7085 172.916 71.6388 173.324 71.6388 173.761C71.6388 174.199 71.7085 174.605 71.8477 174.98C71.9869 175.355 72.2013 175.658 72.4911 175.888C72.7809 176.118 73.1502 176.233 73.5991 176.233ZM82.7365 171.92L81.8331 172.176C81.7763 172.026 81.6925 171.879 81.5817 171.737C81.4737 171.592 81.326 171.473 81.1385 171.379C80.951 171.286 80.7109 171.239 80.4183 171.239C80.0178 171.239 79.6839 171.331 79.4169 171.516C79.1527 171.697 79.0206 171.929 79.0206 172.21C79.0206 172.46 79.1115 172.658 79.2933 172.803C79.4751 172.947 79.7592 173.068 80.1456 173.165L81.1172 173.403C81.7024 173.545 82.1385 173.763 82.4254 174.055C82.7124 174.345 82.8558 174.719 82.8558 175.176C82.8558 175.551 82.7479 175.886 82.532 176.182C82.3189 176.477 82.0206 176.71 81.6371 176.881C81.2536 177.051 80.8075 177.136 80.299 177.136C79.6314 177.136 79.0788 176.991 78.6413 176.702C78.2038 176.412 77.9268 175.989 77.8104 175.432L78.7649 175.193C78.8558 175.545 79.0277 175.81 79.2805 175.986C79.5362 176.162 79.87 176.25 80.282 176.25C80.7507 176.25 81.1229 176.151 81.3984 175.952C81.6768 175.75 81.8161 175.509 81.8161 175.227C81.8161 175 81.7365 174.81 81.5774 174.656C81.4183 174.5 81.174 174.384 80.8445 174.307L79.7536 174.051C79.1541 173.909 78.7138 173.689 78.4325 173.391C78.1541 173.089 78.0149 172.713 78.0149 172.261C78.0149 171.892 78.1186 171.565 78.326 171.281C78.5362 170.997 78.8217 170.774 79.1825 170.612C79.5462 170.45 79.9581 170.369 80.4183 170.369C81.0661 170.369 81.5746 170.511 81.9439 170.795C82.3161 171.08 82.5803 171.455 82.7365 171.92ZM90.489 177.136C89.8583 177.136 89.3143 176.997 88.8569 176.719C88.4023 176.438 88.0515 176.045 87.8043 175.543C87.56 175.037 87.4379 174.449 87.4379 173.778C87.4379 173.108 87.56 172.517 87.8043 172.006C88.0515 171.491 88.3952 171.091 88.8356 170.804C89.2788 170.514 89.7958 170.369 90.3867 170.369C90.7276 170.369 91.0643 170.426 91.3967 170.54C91.729 170.653 92.0316 170.838 92.3043 171.094C92.5771 171.347 92.7944 171.682 92.9563 172.099C93.1183 172.517 93.1992 173.031 93.1992 173.642V174.068H88.1538V173.199H92.1765C92.1765 172.83 92.1026 172.5 91.9549 172.21C91.81 171.92 91.6026 171.692 91.3327 171.524C91.0657 171.357 90.7504 171.273 90.3867 171.273C89.9862 171.273 89.6396 171.372 89.3469 171.571C89.0572 171.767 88.8342 172.023 88.6779 172.338C88.5217 172.653 88.4435 172.991 88.4435 173.352V173.932C88.4435 174.426 88.5288 174.845 88.6992 175.189C88.8725 175.53 89.1126 175.79 89.4194 175.969C89.7262 176.145 90.0827 176.233 90.489 176.233C90.7532 176.233 90.9918 176.196 91.2049 176.122C91.4208 176.045 91.6069 175.932 91.7631 175.781C91.9194 175.628 92.0401 175.437 92.1254 175.21L93.0969 175.483C92.9947 175.812 92.8228 176.102 92.5813 176.352C92.3398 176.599 92.0415 176.793 91.6864 176.932C91.3313 177.068 90.9322 177.136 90.489 177.136ZM95.7347 173.062V177H94.729V170.455H95.7006V171.477H95.7859C95.9393 171.145 96.1722 170.878 96.4847 170.676C96.7972 170.472 97.2006 170.369 97.695 170.369C98.1381 170.369 98.5259 170.46 98.8583 170.642C99.1907 170.821 99.4492 171.094 99.6339 171.46C99.8185 171.824 99.9109 172.284 99.9109 172.841V177H98.9052V172.909C98.9052 172.395 98.7717 171.994 98.5046 171.707C98.2376 171.418 97.8711 171.273 97.4052 171.273C97.0842 171.273 96.7972 171.342 96.5444 171.482C96.2944 171.621 96.0969 171.824 95.9521 172.091C95.8072 172.358 95.7347 172.682 95.7347 173.062ZM104.22 177.136C103.675 177.136 103.193 176.999 102.776 176.723C102.358 176.445 102.031 176.053 101.795 175.547C101.56 175.038 101.442 174.438 101.442 173.744C101.442 173.057 101.56 172.46 101.795 171.955C102.031 171.449 102.359 171.058 102.78 170.783C103.2 170.507 103.686 170.369 104.237 170.369C104.663 170.369 105 170.44 105.247 170.582C105.497 170.722 105.688 170.881 105.818 171.06C105.952 171.236 106.055 171.381 106.129 171.494H106.214V168.273H107.22V177H106.249V175.994H106.129C106.055 176.114 105.95 176.264 105.814 176.446C105.678 176.625 105.483 176.786 105.23 176.928C104.977 177.067 104.641 177.136 104.22 177.136ZM104.357 176.233C104.76 176.233 105.101 176.128 105.379 175.918C105.658 175.705 105.869 175.411 106.014 175.036C106.159 174.658 106.232 174.222 106.232 173.727C106.232 173.239 106.161 172.811 106.018 172.445C105.876 172.075 105.666 171.788 105.388 171.584C105.109 171.376 104.766 171.273 104.357 171.273C103.93 171.273 103.575 171.382 103.291 171.601C103.01 171.817 102.798 172.111 102.656 172.483C102.517 172.852 102.447 173.267 102.447 173.727C102.447 174.193 102.518 174.616 102.661 174.997C102.805 175.375 103.018 175.676 103.3 175.901C103.584 176.122 103.936 176.233 104.357 176.233ZM109.202 179.455V170.455H110.173V171.494H110.293C110.366 171.381 110.469 171.236 110.599 171.06C110.733 170.881 110.923 170.722 111.17 170.582C111.42 170.44 111.759 170.369 112.185 170.369C112.736 170.369 113.222 170.507 113.642 170.783C114.063 171.058 114.391 171.449 114.626 171.955C114.862 172.46 114.98 173.057 114.98 173.744C114.98 174.438 114.862 175.038 114.626 175.547C114.391 176.053 114.064 176.445 113.646 176.723C113.229 176.999 112.747 177.136 112.202 177.136C111.781 177.136 111.445 177.067 111.192 176.928C110.939 176.786 110.744 176.625 110.608 176.446C110.472 176.264 110.366 176.114 110.293 175.994H110.207V179.455H109.202ZM110.19 173.727C110.19 174.222 110.263 174.658 110.408 175.036C110.553 175.411 110.764 175.705 111.043 175.918C111.321 176.128 111.662 176.233 112.065 176.233C112.486 176.233 112.837 176.122 113.118 175.901C113.402 175.676 113.615 175.375 113.757 174.997C113.902 174.616 113.974 174.193 113.974 173.727C113.974 173.267 113.903 172.852 113.761 172.483C113.622 172.111 113.411 171.817 113.126 171.601C112.845 171.382 112.491 171.273 112.065 171.273C111.656 171.273 111.313 171.376 111.034 171.584C110.756 171.788 110.545 172.075 110.403 172.445C110.261 172.811 110.19 173.239 110.19 173.727ZM119.173 177.136C118.582 177.136 118.064 176.996 117.618 176.714C117.175 176.433 116.828 176.04 116.578 175.534C116.331 175.028 116.207 174.437 116.207 173.761C116.207 173.08 116.331 172.484 116.578 171.976C116.828 171.467 117.175 171.072 117.618 170.791C118.064 170.51 118.582 170.369 119.173 170.369C119.764 170.369 120.281 170.51 120.724 170.791C121.17 171.072 121.517 171.467 121.764 171.976C122.014 172.484 122.139 173.08 122.139 173.761C122.139 174.437 122.014 175.028 121.764 175.534C121.517 176.04 121.17 176.433 120.724 176.714C120.281 176.996 119.764 177.136 119.173 177.136ZM119.173 176.233C119.622 176.233 119.991 176.118 120.281 175.888C120.571 175.658 120.786 175.355 120.925 174.98C121.064 174.605 121.134 174.199 121.134 173.761C121.134 173.324 121.064 172.916 120.925 172.538C120.786 172.161 120.571 171.855 120.281 171.622C119.991 171.389 119.622 171.273 119.173 171.273C118.724 171.273 118.355 171.389 118.065 171.622C117.776 171.855 117.561 172.161 117.422 172.538C117.283 172.916 117.213 173.324 117.213 173.761C117.213 174.199 117.283 174.605 117.422 174.98C117.561 175.355 117.776 175.658 118.065 175.888C118.355 176.118 118.724 176.233 119.173 176.233ZM123.674 177V170.455H124.68V177H123.674ZM124.186 169.364C123.99 169.364 123.821 169.297 123.679 169.163C123.539 169.03 123.47 168.869 123.47 168.682C123.47 168.494 123.539 168.334 123.679 168.2C123.821 168.067 123.99 168 124.186 168C124.382 168 124.549 168.067 124.689 168.2C124.831 168.334 124.902 168.494 124.902 168.682C124.902 168.869 124.831 169.03 124.689 169.163C124.549 169.297 124.382 169.364 124.186 169.364ZM127.528 173.062V177H126.522V170.455H127.494V171.477H127.579C127.732 171.145 127.965 170.878 128.278 170.676C128.59 170.472 128.994 170.369 129.488 170.369C129.931 170.369 130.319 170.46 130.651 170.642C130.984 170.821 131.242 171.094 131.427 171.46C131.612 171.824 131.704 172.284 131.704 172.841V177H130.698V172.909C130.698 172.395 130.565 171.994 130.298 171.707C130.031 171.418 129.664 171.273 129.198 171.273C128.877 171.273 128.59 171.342 128.337 171.482C128.087 171.621 127.89 171.824 127.745 172.091C127.6 172.358 127.528 172.682 127.528 173.062ZM136.388 170.455V171.307H132.996V170.455H136.388ZM133.985 168.886H134.99V175.125C134.99 175.409 135.032 175.622 135.114 175.764C135.199 175.903 135.307 175.997 135.438 176.045C135.571 176.091 135.712 176.114 135.86 176.114C135.971 176.114 136.061 176.108 136.132 176.097C136.203 176.082 136.26 176.071 136.303 176.062L136.507 176.966C136.439 176.991 136.344 177.017 136.222 177.043C136.1 177.071 135.945 177.085 135.757 177.085C135.473 177.085 135.195 177.024 134.922 176.902C134.652 176.78 134.428 176.594 134.249 176.344C134.073 176.094 133.985 175.778 133.985 175.398V168.886ZM142.42 171.92L141.517 172.176C141.46 172.026 141.376 171.879 141.265 171.737C141.157 171.592 141.01 171.473 140.822 171.379C140.635 171.286 140.395 171.239 140.102 171.239C139.701 171.239 139.368 171.331 139.1 171.516C138.836 171.697 138.704 171.929 138.704 172.21C138.704 172.46 138.795 172.658 138.977 172.803C139.159 172.947 139.443 173.068 139.829 173.165L140.801 173.403C141.386 173.545 141.822 173.763 142.109 174.055C142.396 174.345 142.539 174.719 142.539 175.176C142.539 175.551 142.431 175.886 142.216 176.182C142.002 176.477 141.704 176.71 141.321 176.881C140.937 177.051 140.491 177.136 139.983 177.136C139.315 177.136 138.762 176.991 138.325 176.702C137.887 176.412 137.61 175.989 137.494 175.432L138.449 175.193C138.539 175.545 138.711 175.81 138.964 175.986C139.22 176.162 139.554 176.25 139.966 176.25C140.434 176.25 140.806 176.151 141.082 175.952C141.36 175.75 141.5 175.509 141.5 175.227C141.5 175 141.42 174.81 141.261 174.656C141.102 174.5 140.858 174.384 140.528 174.307L139.437 174.051C138.838 173.909 138.397 173.689 138.116 173.391C137.838 173.089 137.699 172.713 137.699 172.261C137.699 171.892 137.802 171.565 138.01 171.281C138.22 170.997 138.505 170.774 138.866 170.612C139.23 170.45 139.642 170.369 140.102 170.369C140.75 170.369 141.258 170.511 141.627 170.795C142 171.08 142.264 171.455 142.42 171.92ZM56.8913 192.136C56.2607 192.136 55.7166 191.997 55.2592 191.719C54.8047 191.438 54.4538 191.045 54.2067 190.543C53.9624 190.037 53.8402 189.449 53.8402 188.778C53.8402 188.108 53.9624 187.517 54.2067 187.006C54.4538 186.491 54.7976 186.091 55.2379 185.804C55.6811 185.514 56.1982 185.369 56.7891 185.369C57.13 185.369 57.4666 185.426 57.799 185.54C58.1314 185.653 58.4339 185.838 58.7067 186.094C58.9794 186.347 59.1967 186.682 59.3587 187.099C59.5206 187.517 59.6016 188.031 59.6016 188.642V189.068H54.5561V188.199H58.5788C58.5788 187.83 58.505 187.5 58.3572 187.21C58.2124 186.92 58.005 186.692 57.7351 186.524C57.468 186.357 57.1527 186.273 56.7891 186.273C56.3885 186.273 56.0419 186.372 55.7493 186.571C55.4595 186.767 55.2365 187.023 55.0803 187.338C54.924 187.653 54.8459 187.991 54.8459 188.352V188.932C54.8459 189.426 54.9311 189.845 55.1016 190.189C55.2749 190.53 55.5149 190.79 55.8217 190.969C56.1286 191.145 56.4851 191.233 56.8913 191.233C57.1555 191.233 57.3942 191.196 57.6072 191.122C57.8232 191.045 58.0092 190.932 58.1655 190.781C58.3217 190.628 58.4425 190.437 58.5277 190.21L59.4993 190.483C59.397 190.812 59.2251 191.102 58.9837 191.352C58.7422 191.599 58.4439 191.793 58.0888 191.932C57.7337 192.068 57.3345 192.136 56.8913 192.136ZM61.7056 185.455L63.2738 188.131L64.842 185.455H66.0011L63.8874 188.727L66.0011 192H64.842L63.2738 189.46L61.7056 192H60.5465L62.6261 188.727L60.5465 185.455H61.7056ZM67.4361 192V185.455H68.4418V192H67.4361ZM67.9474 184.364C67.7514 184.364 67.5824 184.297 67.4403 184.163C67.3011 184.03 67.2315 183.869 67.2315 183.682C67.2315 183.494 67.3011 183.334 67.4403 183.2C67.5824 183.067 67.7514 183 67.9474 183C68.1435 183 68.3111 183.067 68.4503 183.2C68.5923 183.334 68.6634 183.494 68.6634 183.682C68.6634 183.869 68.5923 184.03 68.4503 184.163C68.3111 184.297 68.1435 184.364 67.9474 184.364ZM74.9201 186.92L74.0167 187.176C73.9599 187.026 73.8761 186.879 73.7653 186.737C73.6573 186.592 73.5096 186.473 73.3221 186.379C73.1346 186.286 72.8945 186.239 72.6019 186.239C72.2013 186.239 71.8675 186.331 71.6005 186.516C71.3363 186.697 71.2042 186.929 71.2042 187.21C71.2042 187.46 71.2951 187.658 71.4769 187.803C71.6587 187.947 71.9428 188.068 72.3292 188.165L73.3008 188.403C73.886 188.545 74.3221 188.763 74.609 189.055C74.896 189.345 75.0394 189.719 75.0394 190.176C75.0394 190.551 74.9315 190.886 74.7156 191.182C74.5025 191.477 74.2042 191.71 73.8207 191.881C73.4371 192.051 72.9911 192.136 72.4826 192.136C71.815 192.136 71.2624 191.991 70.8249 191.702C70.3874 191.412 70.1104 190.989 69.994 190.432L70.9485 190.193C71.0394 190.545 71.2113 190.81 71.4641 190.986C71.7198 191.162 72.0536 191.25 72.4656 191.25C72.9343 191.25 73.3065 191.151 73.582 190.952C73.8604 190.75 73.9996 190.509 73.9996 190.227C73.9996 190 73.9201 189.81 73.761 189.656C73.6019 189.5 73.3576 189.384 73.0281 189.307L71.9371 189.051C71.3377 188.909 70.8974 188.689 70.6161 188.391C70.3377 188.089 70.1985 187.713 70.1985 187.261C70.1985 186.892 70.3022 186.565 70.5096 186.281C70.7198 185.997 71.0053 185.774 71.3661 185.612C71.7298 185.45 72.1417 185.369 72.6019 185.369C73.2496 185.369 73.7582 185.511 74.1275 185.795C74.4996 186.08 74.7638 186.455 74.9201 186.92ZM79.3999 185.455V186.307H76.0078V185.455H79.3999ZM76.9964 183.886H78.0021V190.125C78.0021 190.409 78.0433 190.622 78.1257 190.764C78.2109 190.903 78.3189 190.997 78.4496 191.045C78.5831 191.091 78.7237 191.114 78.8714 191.114C78.9822 191.114 79.0732 191.108 79.1442 191.097C79.2152 191.082 79.272 191.071 79.3146 191.062L79.5192 191.966C79.451 191.991 79.3558 192.017 79.2337 192.043C79.1115 192.071 78.9567 192.085 78.7692 192.085C78.4851 192.085 78.2067 192.024 77.9339 191.902C77.6641 191.78 77.4396 191.594 77.2607 191.344C77.0845 191.094 76.9964 190.778 76.9964 190.398V183.886ZM83.5866 192.136C82.956 192.136 82.4119 191.997 81.9545 191.719C81.5 191.438 81.1491 191.045 80.902 190.543C80.6577 190.037 80.5355 189.449 80.5355 188.778C80.5355 188.108 80.6577 187.517 80.902 187.006C81.1491 186.491 81.4929 186.091 81.9332 185.804C82.3764 185.514 82.8935 185.369 83.4844 185.369C83.8253 185.369 84.1619 185.426 84.4943 185.54C84.8267 185.653 85.1293 185.838 85.402 186.094C85.6747 186.347 85.892 186.682 86.054 187.099C86.2159 187.517 86.2969 188.031 86.2969 188.642V189.068H81.2514V188.199H85.2741C85.2741 187.83 85.2003 187.5 85.0526 187.21C84.9077 186.92 84.7003 186.692 84.4304 186.524C84.1634 186.357 83.848 186.273 83.4844 186.273C83.0838 186.273 82.7372 186.372 82.4446 186.571C82.1548 186.767 81.9318 187.023 81.7756 187.338C81.6193 187.653 81.5412 187.991 81.5412 188.352V188.932C81.5412 189.426 81.6264 189.845 81.7969 190.189C81.9702 190.53 82.2102 190.79 82.517 190.969C82.8239 191.145 83.1804 191.233 83.5866 191.233C83.8509 191.233 84.0895 191.196 84.3026 191.122C84.5185 191.045 84.7045 190.932 84.8608 190.781C85.017 190.628 85.1378 190.437 85.223 190.21L86.1946 190.483C86.0923 190.812 85.9205 191.102 85.679 191.352C85.4375 191.599 85.1392 191.793 84.7841 191.932C84.429 192.068 84.0298 192.136 83.5866 192.136ZM88.8324 188.062V192H87.8267V185.455H88.7983V186.477H88.8835C89.0369 186.145 89.2699 185.878 89.5824 185.676C89.8949 185.472 90.2983 185.369 90.7926 185.369C91.2358 185.369 91.6236 185.46 91.956 185.642C92.2884 185.821 92.5469 186.094 92.7315 186.46C92.9162 186.824 93.0085 187.284 93.0085 187.841V192H92.0028V187.909C92.0028 187.395 91.8693 186.994 91.6023 186.707C91.3352 186.418 90.9688 186.273 90.5028 186.273C90.1818 186.273 89.8949 186.342 89.642 186.482C89.392 186.621 89.1946 186.824 89.0497 187.091C88.9048 187.358 88.8324 187.682 88.8324 188.062ZM97.6928 185.455V186.307H94.3008V185.455H97.6928ZM95.2894 183.886H96.2951V190.125C96.2951 190.409 96.3363 190.622 96.4187 190.764C96.5039 190.903 96.6119 190.997 96.7425 191.045C96.8761 191.091 97.0167 191.114 97.1644 191.114C97.2752 191.114 97.3661 191.108 97.4371 191.097C97.5082 191.082 97.565 191.071 97.6076 191.062L97.8121 191.966C97.744 191.991 97.6488 192.017 97.5266 192.043C97.4045 192.071 97.2496 192.085 97.0621 192.085C96.7781 192.085 96.4996 192.024 96.2269 191.902C95.957 191.78 95.7326 191.594 95.5536 191.344C95.3775 191.094 95.2894 190.778 95.2894 190.398V183.886ZM101.88 192.136C101.249 192.136 100.705 191.997 100.248 191.719C99.793 191.438 99.4421 191.045 99.195 190.543C98.9506 190.037 98.8285 189.449 98.8285 188.778C98.8285 188.108 98.9506 187.517 99.195 187.006C99.4421 186.491 99.7859 186.091 100.226 185.804C100.669 185.514 101.186 185.369 101.777 185.369C102.118 185.369 102.455 185.426 102.787 185.54C103.12 185.653 103.422 185.838 103.695 186.094C103.968 186.347 104.185 186.682 104.347 187.099C104.509 187.517 104.59 188.031 104.59 188.642V189.068H99.5444V188.199H103.567C103.567 187.83 103.493 187.5 103.346 187.21C103.201 186.92 102.993 186.692 102.723 186.524C102.456 186.357 102.141 186.273 101.777 186.273C101.377 186.273 101.03 186.372 100.738 186.571C100.448 186.767 100.225 187.023 100.069 187.338C99.9123 187.653 99.8342 187.991 99.8342 188.352V188.932C99.8342 189.426 99.9194 189.845 100.09 190.189C100.263 190.53 100.503 190.79 100.81 190.969C101.117 191.145 101.473 191.233 101.88 191.233C102.144 191.233 102.382 191.196 102.596 191.122C102.811 191.045 102.998 190.932 103.154 190.781C103.31 190.628 103.431 190.437 103.516 190.21L104.488 190.483C104.385 190.812 104.213 191.102 103.972 191.352C103.73 191.599 103.432 191.793 103.077 191.932C102.722 192.068 102.323 192.136 101.88 192.136ZM110.756 186.92L109.853 187.176C109.796 187.026 109.712 186.879 109.601 186.737C109.493 186.592 109.346 186.473 109.158 186.379C108.971 186.286 108.73 186.239 108.438 186.239C108.037 186.239 107.703 186.331 107.436 186.516C107.172 186.697 107.04 186.929 107.04 187.21C107.04 187.46 107.131 187.658 107.313 187.803C107.495 187.947 107.779 188.068 108.165 188.165L109.137 188.403C109.722 188.545 110.158 188.763 110.445 189.055C110.732 189.345 110.875 189.719 110.875 190.176C110.875 190.551 110.767 190.886 110.551 191.182C110.338 191.477 110.04 191.71 109.657 191.881C109.273 192.051 108.827 192.136 108.319 192.136C107.651 192.136 107.098 191.991 106.661 191.702C106.223 191.412 105.946 190.989 105.83 190.432L106.784 190.193C106.875 190.545 107.047 190.81 107.3 190.986C107.556 191.162 107.89 191.25 108.301 191.25C108.77 191.25 109.142 191.151 109.418 190.952C109.696 190.75 109.836 190.509 109.836 190.227C109.836 190 109.756 189.81 109.597 189.656C109.438 189.5 109.194 189.384 108.864 189.307L107.773 189.051C107.174 188.909 106.733 188.689 106.452 188.391C106.174 188.089 106.034 187.713 106.034 187.261C106.034 186.892 106.138 186.565 106.346 186.281C106.556 185.997 106.841 185.774 107.202 185.612C107.566 185.45 107.978 185.369 108.438 185.369C109.086 185.369 109.594 185.511 109.963 185.795C110.336 186.08 110.6 186.455 110.756 186.92ZM113.122 192.068C112.912 192.068 112.732 191.993 112.581 191.842C112.43 191.692 112.355 191.511 112.355 191.301C112.355 191.091 112.43 190.911 112.581 190.76C112.732 190.609 112.912 190.534 113.122 190.534C113.332 190.534 113.513 190.609 113.663 190.76C113.814 190.911 113.889 191.091 113.889 191.301C113.889 191.44 113.854 191.568 113.783 191.685C113.714 191.801 113.622 191.895 113.506 191.966C113.392 192.034 113.264 192.068 113.122 192.068Z" fill="white"/>
<mask id="mask0_520_576" style="mask-type:alpha" maskUnits="userSpaceOnUse" x="0" y="0" width="169" height="206">
<path d="M168.44 14.61V190.45C168.44 198.49 163.04 205.06 156.44 205.06H12C5.4 205.06 0 198.49 0 190.45V14.61C0 6.57 5.4 0 12 0H156.44C163.04 0 168.44 6.57 168.44 14.61Z" fill="url(#paint1_linear_520_576)"/>
</mask>
<g mask="url(#mask0_520_576)">
<g opacity="0.8">
<g opacity="0.15">
<circle cx="94.2338" cy="55.6399" r="93.937" transform="rotate(-10.7881 94.2338 55.6399)" fill="white"/>
<circle cx="94.2338" cy="55.6399" r="93.937" transform="rotate(-10.7881 94.2338 55.6399)" fill="white"/>
</g>
<g opacity="0.3">
<circle cx="94.0749" cy="54.8049" r="75.2346" transform="rotate(-10.7881 94.0749 54.8049)" fill="white"/>
<circle cx="94.0749" cy="54.8049" r="75.2346" transform="rotate(-10.7881 94.0749 54.8049)" fill="white"/>
</g>
<g opacity="0.4">
<circle cx="94.0749" cy="54.8049" r="59.9327" transform="rotate(-10.7881 94.0749 54.8049)" fill="white"/>
<circle cx="94.0749" cy="54.8049" r="59.9327" transform="rotate(-10.7881 94.0749 54.8049)" fill="white"/>
</g>
<path opacity="0.964" fill-rule="evenodd" clip-rule="evenodd" d="M85.6731 22.4896C88.1303 21.748 90.4855 21.9835 92.7389 23.1963C94.2266 24.1298 95.8194 24.8174 97.517 25.2592C98.2176 25.2591 98.9131 25.1974 99.6035 25.074C101.754 24.4157 103.951 24.0679 106.194 24.0305C108.315 24.3239 109.995 25.3488 111.236 27.1051C112.214 28.7916 113.152 30.5006 114.052 32.2321C114.527 32.9522 115.168 33.4673 115.973 33.7775C118.26 34.5218 120.413 35.5511 122.431 36.8653C124.16 38.5772 124.886 40.657 124.611 43.1047C124.38 44.717 124.12 46.324 123.832 47.9255C123.715 48.7973 123.871 49.6171 124.3 50.3848C125.402 52.068 126.394 53.8139 127.279 55.6224C128.27 58.2487 127.849 60.6179 126.016 62.73C124.79 64.0105 123.516 65.2443 122.195 66.4315C121.56 67.0159 121.154 67.7305 120.977 68.575C120.777 70.516 120.533 72.4504 120.244 74.3782C119.256 77.8725 116.932 79.7785 113.27 80.0962C111.82 80.2781 110.382 80.5284 108.958 80.8471C108.547 80.9744 108.155 81.1434 107.781 81.3545C106.276 82.8134 104.818 84.3182 103.408 85.8691C100.973 87.9377 98.2431 88.4579 95.2181 87.4296C93.9337 86.8938 92.6856 86.2821 91.4736 85.5945C90.6937 85.2446 89.8877 84.9734 89.0553 84.781C88.3548 84.7812 87.6593 84.8429 86.9689 84.9662C84.8188 85.6245 82.6218 85.9724 80.378 86.0097C78.2576 85.7163 76.5771 84.6914 75.3364 82.9351C74.3586 81.2486 73.4201 79.5397 72.5206 77.8081C72.045 77.088 71.4046 76.5729 70.5994 76.2627C68.3123 75.5184 66.1594 74.4891 64.1408 73.175C62.4122 71.4631 61.6858 69.3832 61.9618 66.9355C62.1925 65.3232 62.4521 63.7163 62.7406 62.1147C62.8574 61.2429 62.7012 60.4232 62.272 59.6554C61.1708 57.9722 60.178 56.2263 59.2937 54.4178C58.3022 51.7916 58.723 49.4223 60.5562 47.3102C61.7828 46.0298 63.0565 44.7959 64.3774 43.6088C65.0121 43.0243 65.4181 42.3098 65.5956 41.4652C65.7953 39.5242 66.0397 37.5898 66.3287 35.662C67.3162 32.1677 69.6406 30.2617 73.302 29.9441C74.7525 29.7621 76.1901 29.5118 77.6146 29.1931C78.0255 29.0659 78.4176 28.8967 78.791 28.6858C80.2967 27.2268 81.7546 25.7219 83.1645 24.1711C83.944 23.4962 84.7801 22.9357 85.6731 22.4896ZM87.2147 26.8683C88.025 26.6201 88.8289 26.6321 89.6263 26.9043C91.3182 27.7493 93.0279 28.5562 94.7554 29.3251C96.1145 29.8193 97.5121 29.9777 98.9481 29.8005C100.438 29.5756 101.912 29.2711 103.371 28.8869C104.317 28.6667 105.272 28.6028 106.234 28.6953C106.639 28.9305 106.999 29.2157 107.317 29.5509C108.209 31.1168 109.076 32.6979 109.918 34.2941C110.849 35.8786 112.138 37.0724 113.783 37.876C115.384 38.4796 116.968 39.1217 118.535 39.8023C118.888 40.042 119.24 40.2816 119.592 40.5213C119.911 41.0567 120.069 41.6401 120.067 42.2714C119.836 43.8838 119.576 45.4907 119.288 47.0922C119.015 49.1264 119.38 51.0392 120.381 52.8306C121.239 54.2138 122.071 55.6127 122.878 57.0272C123.065 57.5109 123.16 58.0117 123.165 58.5301C122.956 59.0131 122.688 59.4652 122.362 59.8865C121.155 61.0957 119.918 62.2754 118.652 63.4253C117.555 64.6773 116.816 66.116 116.433 67.7418C116.214 69.4288 116.017 71.118 115.843 72.8098C115.731 74.0244 115.106 74.8279 113.968 75.2201C111.922 75.6216 109.875 76.0117 107.826 76.3905C106.425 76.7537 105.184 77.4151 104.102 78.3743C102.778 79.7246 101.485 81.1037 100.222 82.5117C99.2515 83.3574 98.1595 83.5655 96.9461 83.1359C95.2541 82.2909 93.5444 81.484 91.8169 80.7151C89.942 80.0903 88.0397 80.0044 86.1097 80.4575C84.5868 80.8736 83.0442 81.191 81.4819 81.4101C80.5703 81.5079 79.8282 81.2009 79.2554 80.4893C78.2917 78.7955 77.3531 77.0864 76.4396 75.3623C75.4858 73.9913 74.269 72.9253 72.789 72.1642C70.7696 71.4635 68.8334 70.5816 66.9805 69.5189C66.6615 68.9835 66.5032 68.4002 66.5056 67.7688C66.7363 66.1565 66.9959 64.5495 67.2844 62.948C67.5569 60.9138 67.1924 59.001 66.191 57.2096C65.3338 55.8264 64.5014 54.4275 63.6939 53.013C63.4595 52.4268 63.3922 51.8261 63.492 51.2109C64.8243 49.5413 66.3005 48.0092 67.9207 46.6149C69.0171 45.3629 69.7566 43.9242 70.1394 42.2985C70.355 40.3593 70.5993 38.4248 70.8725 36.4953C71.1435 35.6228 71.7207 35.0645 72.6044 34.8202C74.6499 34.4186 76.6974 34.0285 78.7467 33.6498C80.1473 33.2865 81.3887 32.6252 82.4708 31.6659C83.5742 30.5663 84.6291 29.4214 85.6355 28.2311C86.1161 27.7082 86.6425 27.254 87.2147 26.8683Z" fill="white" stroke="white" stroke-width="0.5"/>
</g>
<g opacity="0.8">
<ellipse cx="94.0559" cy="54.9" rx="47.0559" ry="46.9" fill="#FF7F21"/>
<g opacity="0.964">
<path fill-rule="evenodd" clip-rule="evenodd" d="M92.3624 21.4023C106.046 21.2673 116.429 26.9455 123.511 38.4369C126.591 43.8768 127.959 49.7003 127.615 55.9079C126.89 57.1045 125.84 57.5169 124.464 57.1456C123.746 56.8687 123.281 56.359 123.072 55.6166C122.798 44.2202 117.79 35.6061 108.047 29.7739C97.4854 24.538 87.2733 25.1204 77.411 31.521C67.9705 38.7759 64.0861 48.3126 65.758 60.1303C68.2358 71.0349 74.7587 78.3875 85.3266 82.1876C88.4325 83.1132 91.6089 83.5985 94.8547 83.6437C96.5115 84.4412 96.9268 85.679 96.1003 87.356C95.4133 88.159 94.5334 88.4984 93.4621 88.3754C81.5037 87.7867 72.22 82.5935 65.6114 72.7967C59.9009 63.263 58.9237 53.2656 62.6797 42.8043C67.1409 32.1621 74.9831 25.3435 86.206 22.3486C88.2621 21.915 90.3143 21.5996 92.3624 21.4023Z" fill="white"/>
<path fill-rule="evenodd" clip-rule="evenodd" d="M95.147 35.3797C96.541 35.2822 97.4939 35.8645 98.0055 37.1269C98.1494 42.9105 98.1005 48.6858 97.8586 54.4522C93.4901 58.9377 89.0681 63.3781 84.5931 67.7742C82.9278 68.5787 81.6821 68.1663 80.8552 66.537C80.7123 65.7747 80.8097 65.0466 81.1485 64.3528C85.1552 60.3735 89.1615 56.3937 93.1683 52.414C93.2173 47.3667 93.2662 42.3199 93.3147 37.2724C93.5615 36.2756 94.1721 35.6447 95.147 35.3797Z" fill="white"/>
<path fill-rule="evenodd" clip-rule="evenodd" d="M115.815 59.9849C117.013 59.905 118.185 60.0261 119.334 60.3492C121.387 61.5631 123.316 62.9463 125.124 64.4982C126.783 66.8263 126.783 69.1559 125.124 71.487C121.928 76.0628 118.679 80.6004 115.376 85.0998C112.078 86.3375 108.731 87.4294 105.335 88.3758C104.121 88.2602 103.34 87.6294 102.99 86.4829C102.869 83.5226 102.747 80.5622 102.623 77.6018C102.62 77.1035 102.694 76.6181 102.843 76.1457C106.116 71.4383 109.39 66.731 112.664 62.0232C113.521 61.0286 114.572 60.3492 115.815 59.9849ZM116.695 64.7895C117.06 64.7602 117.402 64.8332 117.721 65.0079C118.931 65.8397 120.128 66.6888 121.312 67.5558C121.41 67.8472 121.41 68.1385 121.312 68.4293C118.296 72.626 115.315 76.8484 112.371 81.0962C110.798 81.6009 109.234 82.1344 107.68 82.6977C107.614 81.0431 107.565 79.3929 107.534 77.7472C110.62 73.4458 113.673 69.1266 116.695 64.7895Z" fill="white"/>
<path fill-rule="evenodd" clip-rule="evenodd" d="M92.3624 21.4023C106.046 21.2673 116.429 26.9455 123.511 38.4369C126.591 43.8768 127.959 49.7003 127.615 55.9079C126.89 57.1045 125.84 57.5169 124.464 57.1456C123.746 56.8687 123.281 56.359 123.072 55.6166C122.798 44.2202 117.79 35.6061 108.047 29.7739C97.4854 24.538 87.2733 25.1204 77.411 31.521C67.9705 38.7759 64.0861 48.3126 65.758 60.1303C68.2358 71.0349 74.7587 78.3875 85.3266 82.1876C88.4325 83.1132 91.6089 83.5985 94.8547 83.6437C96.5115 84.4412 96.9268 85.679 96.1003 87.356C95.4133 88.159 94.5334 88.4984 93.4621 88.3754C81.5037 87.7867 72.22 82.5935 65.6114 72.7967C59.9009 63.263 58.9237 53.2656 62.6797 42.8043C67.1409 32.1621 74.9831 25.3435 86.206 22.3486C88.2621 21.915 90.3143 21.5996 92.3624 21.4023Z" stroke="white" stroke-width="0.5"/>
<path fill-rule="evenodd" clip-rule="evenodd" d="M95.147 35.3797C96.541 35.2822 97.4939 35.8645 98.0055 37.1269C98.1494 42.9105 98.1005 48.6858 97.8586 54.4522C93.4901 58.9377 89.0681 63.3781 84.5931 67.7742C82.9278 68.5787 81.6821 68.1663 80.8552 66.537C80.7123 65.7747 80.8097 65.0466 81.1485 64.3528C85.1552 60.3735 89.1615 56.3937 93.1683 52.414C93.2173 47.3667 93.2662 42.3199 93.3147 37.2724C93.5615 36.2756 94.1721 35.6447 95.147 35.3797Z" stroke="white" stroke-width="0.5"/>
<path fill-rule="evenodd" clip-rule="evenodd" d="M115.815 59.9849C117.013 59.905 118.185 60.0261 119.334 60.3492C121.387 61.5631 123.316 62.9463 125.124 64.4982C126.783 66.8263 126.783 69.1559 125.124 71.487C121.928 76.0628 118.679 80.6004 115.376 85.0998C112.078 86.3375 108.731 87.4294 105.335 88.3758C104.121 88.2602 103.34 87.6294 102.99 86.4829C102.869 83.5226 102.747 80.5622 102.623 77.6018C102.62 77.1035 102.694 76.6181 102.843 76.1457C106.116 71.4383 109.39 66.731 112.664 62.0232C113.521 61.0286 114.572 60.3492 115.815 59.9849ZM116.695 64.7895C117.06 64.7602 117.402 64.8332 117.721 65.0079C118.931 65.8397 120.128 66.6888 121.312 67.5558C121.41 67.8472 121.41 68.1385 121.312 68.4293C118.296 72.626 115.315 76.8484 112.371 81.0962C110.798 81.6009 109.234 82.1344 107.68 82.6977C107.614 81.0431 107.565 79.3929 107.534 77.7472C110.62 73.4458 113.673 69.1266 116.695 64.7895Z" stroke="white" stroke-width="0.5"/>
</g>
</g>
</g>
</g>
<defs>
<linearGradient id="paint0_linear_520_576" x1="84.22" y1="0" x2="84.22" y2="205.06" gradientUnits="userSpaceOnUse">
<stop stop-color="#FF9B52"/>
<stop offset="1" stop-color="#FF7F21"/>
</linearGradient>
<linearGradient id="paint1_linear_520_576" x1="84.22" y1="0" x2="84.22" y2="205.06" gradientUnits="userSpaceOnUse">
<stop stop-color="#FF9B52"/>
<stop offset="1" stop-color="#FF7F21"/>
</linearGradient>
<clipPath id="clip0_520_576">
<rect width="168.44" height="205.06" fill="white"/>
</clipPath>
</defs>
</svg>
