<svg width="34" height="34" viewBox="0 0 34 34" fill="none" xmlns="http://www.w3.org/2000/svg">
<rect opacity="0.15" width="34" height="34" rx="10" fill="#1472E7"/>
<path d="M12.3252 10.9092L15.2344 8H6.23438V17L9.14356 14.0908L14.6675 19.6147C14.8478 19.7941 14.9908 20.0074 15.0881 20.2424C15.1854 20.4773 15.2352 20.7293 15.2344 20.9836V26H19.7344V20.9836C19.7369 20.1381 19.5715 19.3005 19.2479 18.5194C18.9243 17.7383 18.4488 17.0291 17.8491 16.4331L12.3252 10.9092Z" fill="#1472E7"/>
<path d="M24.7956 8L18.4844 13.5463L19.1256 14.1875C20.0226 15.0713 20.634 16.2039 20.8806 17.4387L27.7656 11.3863L24.7956 8Z" fill="#1472E7"/>
</svg>
