<svg width="126" height="58" viewBox="0 0 126 58" fill="none" xmlns="http://www.w3.org/2000/svg">
<rect opacity="0.15" x="6" y="6" width="114" height="46" rx="10" fill="#1472E7"/>
<rect x="12" y="12" width="34" height="34" rx="10" fill="#1472E7"/>
<path d="M24.3252 22.9092L27.2344 20H18.2344V29L21.1436 26.0908L26.6675 31.6147C26.8478 31.7941 26.9908 32.0074 27.0881 32.2424C27.1854 32.4773 27.2352 32.7293 27.2344 32.9836V38H31.7344V32.9836C31.7369 32.1381 31.5715 31.3005 31.2479 30.5194C30.9243 29.7382 30.4488 29.0291 29.8491 28.4331L24.3252 22.9092Z" fill="white"/>
<path d="M36.7956 20L30.4843 25.5463L31.1256 26.1875C32.0226 27.0713 32.6339 28.2039 32.8806 29.4387L39.7656 23.3863L36.7956 20Z" fill="white"/>
<path d="M53.7585 33V24.2727H59.6392V25.794H55.6037V27.8736H59.3366V29.3949H55.6037V31.4787H59.6562V33H53.7585ZM62.8874 29.2159V33H61.0721V26.4545H62.8022V27.6094H62.8789C63.0238 27.2287 63.2667 26.9276 63.6076 26.706C63.9485 26.4815 64.3619 26.3693 64.8477 26.3693C65.3022 26.3693 65.6985 26.4688 66.0366 26.6676C66.3746 26.8665 66.6374 27.1506 66.8249 27.5199C67.0124 27.8864 67.1062 28.3239 67.1062 28.8324V33H65.2908V29.1562C65.2937 28.7557 65.1914 28.4432 64.984 28.2188C64.7766 27.9915 64.4911 27.8778 64.1275 27.8778C63.8832 27.8778 63.6673 27.9304 63.4798 28.0355C63.2951 28.1406 63.1502 28.294 63.0451 28.4957C62.9428 28.6946 62.8903 28.9347 62.8874 29.2159ZM70.9489 33.1065C70.4517 33.1065 70.0014 32.9787 69.598 32.723C69.1974 32.4645 68.8793 32.0852 68.6435 31.5852C68.4105 31.0824 68.294 30.4659 68.294 29.7358C68.294 28.9858 68.4148 28.3622 68.6562 27.8651C68.8977 27.3651 69.2188 26.9915 69.6193 26.7443C70.0227 26.4943 70.4645 26.3693 70.9446 26.3693C71.3111 26.3693 71.6165 26.4318 71.8608 26.5568C72.108 26.679 72.3068 26.8324 72.4574 27.017C72.6108 27.1989 72.7273 27.3778 72.8068 27.554H72.8622V24.2727H74.6733V33H72.8835V31.9517H72.8068C72.7216 32.1335 72.6009 32.3139 72.4446 32.4929C72.2912 32.669 72.0909 32.8153 71.8438 32.9318C71.5994 33.0483 71.3011 33.1065 70.9489 33.1065ZM71.5241 31.6619C71.8168 31.6619 72.0639 31.5824 72.2656 31.4233C72.4702 31.2614 72.6264 31.0355 72.7344 30.7457C72.8452 30.456 72.9006 30.1165 72.9006 29.7273C72.9006 29.3381 72.8466 29 72.7386 28.7131C72.6307 28.4261 72.4744 28.2045 72.2699 28.0483C72.0653 27.892 71.8168 27.8139 71.5241 27.8139C71.2259 27.8139 70.9744 27.8949 70.7699 28.0568C70.5653 28.2187 70.4105 28.4432 70.3054 28.7301C70.2003 29.017 70.1477 29.3494 70.1477 29.7273C70.1477 30.108 70.2003 30.4446 70.3054 30.7372C70.4134 31.027 70.5682 31.2543 70.7699 31.419C70.9744 31.581 71.2259 31.6619 71.5241 31.6619ZM76.1658 35.4545V26.4545H77.9556V27.554H78.0366C78.1161 27.3778 78.2312 27.1989 78.3817 27.017C78.5352 26.8324 78.734 26.679 78.9783 26.5568C79.2255 26.4318 79.5323 26.3693 79.8988 26.3693C80.3761 26.3693 80.8164 26.4943 81.2198 26.7443C81.6232 26.9915 81.9457 27.3651 82.1871 27.8651C82.4286 28.3622 82.5494 28.9858 82.5494 29.7358C82.5494 30.4659 82.4315 31.0824 82.1957 31.5852C81.9627 32.0852 81.6445 32.4645 81.2411 32.723C80.8406 32.9787 80.3917 33.1065 79.8945 33.1065C79.5423 33.1065 79.2425 33.0483 78.9954 32.9318C78.7511 32.8153 78.5508 32.669 78.3945 32.4929C78.2383 32.3139 78.119 32.1335 78.0366 31.9517H77.9812V35.4545H76.1658ZM77.9428 29.7273C77.9428 30.1165 77.9968 30.456 78.1048 30.7457C78.2127 31.0355 78.369 31.2614 78.5735 31.4233C78.7781 31.5824 79.0266 31.6619 79.3192 31.6619C79.6147 31.6619 79.8647 31.581 80.0692 31.419C80.2738 31.2543 80.4286 31.027 80.5337 30.7372C80.6417 30.4446 80.6957 30.108 80.6957 29.7273C80.6957 29.3494 80.6431 29.017 80.538 28.7301C80.4329 28.4432 80.2781 28.2187 80.0735 28.0568C79.869 27.8949 79.6175 27.8139 79.3192 27.8139C79.0238 27.8139 78.7738 27.892 78.5692 28.0483C78.3675 28.2045 78.2127 28.4261 78.1048 28.7131C77.9968 29 77.9428 29.3381 77.9428 29.7273ZM86.717 33.1278C86.055 33.1278 85.4826 32.9872 84.9996 32.706C84.5195 32.4219 84.1488 32.027 83.8874 31.5213C83.6261 31.0128 83.4954 30.4233 83.4954 29.7528C83.4954 29.0767 83.6261 28.4858 83.8874 27.9801C84.1488 27.4716 84.5195 27.0767 84.9996 26.7955C85.4826 26.5114 86.055 26.3693 86.717 26.3693C87.3789 26.3693 87.9499 26.5114 88.43 26.7955C88.913 27.0767 89.2852 27.4716 89.5465 27.9801C89.8079 28.4858 89.9386 29.0767 89.9386 29.7528C89.9386 30.4233 89.8079 31.0128 89.5465 31.5213C89.2852 32.027 88.913 32.4219 88.43 32.706C87.9499 32.9872 87.3789 33.1278 86.717 33.1278ZM86.7255 31.7216C87.0266 31.7216 87.2781 31.6364 87.4798 31.4659C87.6815 31.2926 87.8335 31.0568 87.9357 30.7585C88.0408 30.4602 88.0934 30.1207 88.0934 29.7401C88.0934 29.3594 88.0408 29.0199 87.9357 28.7216C87.8335 28.4233 87.6815 28.1875 87.4798 28.0142C87.2781 27.8409 87.0266 27.7543 86.7255 27.7543C86.4215 27.7543 86.1658 27.8409 85.9585 28.0142C85.7539 28.1875 85.5991 28.4233 85.494 28.7216C85.3917 29.0199 85.3406 29.3594 85.3406 29.7401C85.3406 30.1207 85.3917 30.4602 85.494 30.7585C85.5991 31.0568 85.7539 31.2926 85.9585 31.4659C86.1658 31.6364 86.4215 31.7216 86.7255 31.7216ZM91.119 33V26.4545H92.9343V33H91.119ZM92.0309 25.6108C91.761 25.6108 91.5295 25.5213 91.3363 25.3423C91.146 25.1605 91.0508 24.9432 91.0508 24.6903C91.0508 24.4403 91.146 24.2259 91.3363 24.0469C91.5295 23.8651 91.761 23.7741 92.0309 23.7741C92.3008 23.7741 92.5309 23.8651 92.7212 24.0469C92.9144 24.2259 93.011 24.4403 93.011 24.6903C93.011 24.9432 92.9144 25.1605 92.7212 25.3423C92.5309 25.5213 92.3008 25.6108 92.0309 25.6108ZM96.2038 29.2159V33H94.3885V26.4545H96.1186V27.6094H96.1953C96.3402 27.2287 96.5831 26.9276 96.924 26.706C97.2649 26.4815 97.6783 26.3693 98.1641 26.3693C98.6186 26.3693 99.0149 26.4688 99.353 26.6676C99.6911 26.8665 99.9538 27.1506 100.141 27.5199C100.329 27.8864 100.423 28.3239 100.423 28.8324V33H98.6072V29.1562C98.6101 28.7557 98.5078 28.4432 98.3004 28.2188C98.093 27.9915 97.8075 27.8778 97.4439 27.8778C97.1996 27.8778 96.9837 27.9304 96.7962 28.0355C96.6115 28.1406 96.4666 28.294 96.3615 28.4957C96.2592 28.6946 96.2067 28.9347 96.2038 29.2159ZM105.335 26.4545V27.8182H101.393V26.4545H105.335ZM102.288 24.8864H104.103V30.9886C104.103 31.1562 104.129 31.2869 104.18 31.3807C104.231 31.4716 104.302 31.5355 104.393 31.5724C104.487 31.6094 104.595 31.6278 104.717 31.6278C104.802 31.6278 104.887 31.6207 104.973 31.6065C105.058 31.5895 105.123 31.5767 105.169 31.5682L105.454 32.919C105.363 32.9474 105.235 32.9801 105.071 33.017C104.906 33.0568 104.706 33.081 104.47 33.0895C104.032 33.1065 103.649 33.0483 103.319 32.9148C102.993 32.7812 102.738 32.5739 102.556 32.2926C102.375 32.0114 102.285 31.6562 102.288 31.2273V24.8864ZM111.881 28.321L110.219 28.4233C110.191 28.2812 110.13 28.1534 110.036 28.0398C109.942 27.9233 109.819 27.831 109.665 27.7628C109.515 27.6918 109.335 27.6562 109.124 27.6562C108.843 27.6562 108.606 27.7159 108.413 27.8352C108.219 27.9517 108.123 28.108 108.123 28.304C108.123 28.4602 108.185 28.5923 108.31 28.7003C108.435 28.8082 108.65 28.8949 108.954 28.9602L110.138 29.1989C110.775 29.3295 111.249 29.5398 111.562 29.8295C111.874 30.1193 112.031 30.5 112.031 30.9716C112.031 31.4006 111.904 31.777 111.651 32.1009C111.401 32.4247 111.058 32.6776 110.62 32.8594C110.185 33.0384 109.684 33.1278 109.116 33.1278C108.249 33.1278 107.559 32.9474 107.045 32.5866C106.533 32.223 106.234 31.7287 106.146 31.1037L107.931 31.0099C107.985 31.2741 108.116 31.4759 108.323 31.6151C108.531 31.7514 108.796 31.8196 109.12 31.8196C109.438 31.8196 109.694 31.7585 109.887 31.6364C110.083 31.5114 110.183 31.3509 110.185 31.1548C110.183 30.9901 110.113 30.8551 109.977 30.75C109.84 30.642 109.63 30.5597 109.346 30.5028L108.212 30.277C107.573 30.1491 107.097 29.9276 106.785 29.6122C106.475 29.2969 106.32 28.8949 106.32 28.4062C106.32 27.9858 106.434 27.6236 106.661 27.3196C106.891 27.0156 107.214 26.7812 107.629 26.6165C108.046 26.4517 108.535 26.3693 109.094 26.3693C109.921 26.3693 110.572 26.544 111.046 26.8935C111.523 27.2429 111.802 27.7187 111.881 28.321Z" fill="white"/>
</svg>
