<svg width="114" height="46" viewBox="0 0 114 46" fill="none" xmlns="http://www.w3.org/2000/svg">
<rect opacity="0.15" width="114" height="46" rx="10" fill="#1472E7"/>
<rect x="6" y="6" width="34" height="34" rx="10" fill="#1472E7"/>
<path d="M18.3252 16.9092L21.2344 14H12.2344V23L15.1436 20.0908L20.6675 25.6147C20.8478 25.7941 20.9908 26.0074 21.0881 26.2424C21.1854 26.4773 21.2352 26.7293 21.2344 26.9836V32H25.7344V26.9836C25.7369 26.1381 25.5715 25.3005 25.2479 24.5194C24.9243 23.7383 24.4488 23.0291 23.8491 22.4331L18.3252 16.9092Z" fill="white"/>
<path d="M30.7956 14L24.4844 19.5463L25.1256 20.1875C26.0226 21.0713 26.634 22.2039 26.8806 23.4387L33.7656 17.3863L30.7956 14Z" fill="white"/>
<path d="M47.7585 27V18.2727H53.6392V19.794H49.6037V21.8736H53.3366V23.3949H49.6037V25.4787H53.6562V27H47.7585ZM56.8874 23.2159V27H55.0721V20.4545H56.8022V21.6094H56.8789C57.0238 21.2287 57.2667 20.9276 57.6076 20.706C57.9485 20.4815 58.3619 20.3693 58.8477 20.3693C59.3022 20.3693 59.6985 20.4688 60.0366 20.6676C60.3746 20.8665 60.6374 21.1506 60.8249 21.5199C61.0124 21.8864 61.1062 22.3239 61.1062 22.8324V27H59.2908V23.1562C59.2937 22.7557 59.1914 22.4432 58.984 22.2188C58.7766 21.9915 58.4911 21.8778 58.1275 21.8778C57.8832 21.8778 57.6673 21.9304 57.4798 22.0355C57.2951 22.1406 57.1502 22.294 57.0451 22.4957C56.9428 22.6946 56.8903 22.9347 56.8874 23.2159ZM64.9489 27.1065C64.4517 27.1065 64.0014 26.9787 63.598 26.723C63.1974 26.4645 62.8793 26.0852 62.6435 25.5852C62.4105 25.0824 62.294 24.4659 62.294 23.7358C62.294 22.9858 62.4148 22.3622 62.6562 21.8651C62.8977 21.3651 63.2188 20.9915 63.6193 20.7443C64.0227 20.4943 64.4645 20.3693 64.9446 20.3693C65.3111 20.3693 65.6165 20.4318 65.8608 20.5568C66.108 20.679 66.3068 20.8324 66.4574 21.017C66.6108 21.1989 66.7273 21.3778 66.8068 21.554H66.8622V18.2727H68.6733V27H66.8835V25.9517H66.8068C66.7216 26.1335 66.6009 26.3139 66.4446 26.4929C66.2912 26.669 66.0909 26.8153 65.8438 26.9318C65.5994 27.0483 65.3011 27.1065 64.9489 27.1065ZM65.5241 25.6619C65.8168 25.6619 66.0639 25.5824 66.2656 25.4233C66.4702 25.2614 66.6264 25.0355 66.7344 24.7457C66.8452 24.456 66.9006 24.1165 66.9006 23.7273C66.9006 23.3381 66.8466 23 66.7386 22.7131C66.6307 22.4261 66.4744 22.2045 66.2699 22.0483C66.0653 21.892 65.8168 21.8139 65.5241 21.8139C65.2259 21.8139 64.9744 21.8949 64.7699 22.0568C64.5653 22.2187 64.4105 22.4432 64.3054 22.7301C64.2003 23.017 64.1477 23.3494 64.1477 23.7273C64.1477 24.108 64.2003 24.4446 64.3054 24.7372C64.4134 25.027 64.5682 25.2543 64.7699 25.419C64.9744 25.581 65.2259 25.6619 65.5241 25.6619ZM70.1658 29.4545V20.4545H71.9556V21.554H72.0366C72.1161 21.3778 72.2312 21.1989 72.3817 21.017C72.5352 20.8324 72.734 20.679 72.9783 20.5568C73.2255 20.4318 73.5323 20.3693 73.8988 20.3693C74.3761 20.3693 74.8164 20.4943 75.2198 20.7443C75.6232 20.9915 75.9457 21.3651 76.1871 21.8651C76.4286 22.3622 76.5494 22.9858 76.5494 23.7358C76.5494 24.4659 76.4315 25.0824 76.1957 25.5852C75.9627 26.0852 75.6445 26.4645 75.2411 26.723C74.8406 26.9787 74.3917 27.1065 73.8945 27.1065C73.5423 27.1065 73.2425 27.0483 72.9954 26.9318C72.7511 26.8153 72.5508 26.669 72.3945 26.4929C72.2383 26.3139 72.119 26.1335 72.0366 25.9517H71.9812V29.4545H70.1658ZM71.9428 23.7273C71.9428 24.1165 71.9968 24.456 72.1048 24.7457C72.2127 25.0355 72.369 25.2614 72.5735 25.4233C72.7781 25.5824 73.0266 25.6619 73.3192 25.6619C73.6147 25.6619 73.8647 25.581 74.0692 25.419C74.2738 25.2543 74.4286 25.027 74.5337 24.7372C74.6417 24.4446 74.6957 24.108 74.6957 23.7273C74.6957 23.3494 74.6431 23.017 74.538 22.7301C74.4329 22.4432 74.2781 22.2187 74.0735 22.0568C73.869 21.8949 73.6175 21.8139 73.3192 21.8139C73.0238 21.8139 72.7738 21.892 72.5692 22.0483C72.3675 22.2045 72.2127 22.4261 72.1048 22.7131C71.9968 23 71.9428 23.3381 71.9428 23.7273ZM80.717 27.1278C80.055 27.1278 79.4826 26.9872 78.9996 26.706C78.5195 26.4219 78.1488 26.027 77.8874 25.5213C77.6261 25.0128 77.4954 24.4233 77.4954 23.7528C77.4954 23.0767 77.6261 22.4858 77.8874 21.9801C78.1488 21.4716 78.5195 21.0767 78.9996 20.7955C79.4826 20.5114 80.055 20.3693 80.717 20.3693C81.3789 20.3693 81.9499 20.5114 82.43 20.7955C82.913 21.0767 83.2852 21.4716 83.5465 21.9801C83.8079 22.4858 83.9386 23.0767 83.9386 23.7528C83.9386 24.4233 83.8079 25.0128 83.5465 25.5213C83.2852 26.027 82.913 26.4219 82.43 26.706C81.9499 26.9872 81.3789 27.1278 80.717 27.1278ZM80.7255 25.7216C81.0266 25.7216 81.2781 25.6364 81.4798 25.4659C81.6815 25.2926 81.8335 25.0568 81.9357 24.7585C82.0408 24.4602 82.0934 24.1207 82.0934 23.7401C82.0934 23.3594 82.0408 23.0199 81.9357 22.7216C81.8335 22.4233 81.6815 22.1875 81.4798 22.0142C81.2781 21.8409 81.0266 21.7543 80.7255 21.7543C80.4215 21.7543 80.1658 21.8409 79.9585 22.0142C79.7539 22.1875 79.5991 22.4233 79.494 22.7216C79.3917 23.0199 79.3406 23.3594 79.3406 23.7401C79.3406 24.1207 79.3917 24.4602 79.494 24.7585C79.5991 25.0568 79.7539 25.2926 79.9585 25.4659C80.1658 25.6364 80.4215 25.7216 80.7255 25.7216ZM85.119 27V20.4545H86.9343V27H85.119ZM86.0309 19.6108C85.761 19.6108 85.5295 19.5213 85.3363 19.3423C85.146 19.1605 85.0508 18.9432 85.0508 18.6903C85.0508 18.4403 85.146 18.2259 85.3363 18.0469C85.5295 17.8651 85.761 17.7741 86.0309 17.7741C86.3008 17.7741 86.5309 17.8651 86.7212 18.0469C86.9144 18.2259 87.011 18.4403 87.011 18.6903C87.011 18.9432 86.9144 19.1605 86.7212 19.3423C86.5309 19.5213 86.3008 19.6108 86.0309 19.6108ZM90.2038 23.2159V27H88.3885V20.4545H90.1186V21.6094H90.1953C90.3402 21.2287 90.5831 20.9276 90.924 20.706C91.2649 20.4815 91.6783 20.3693 92.1641 20.3693C92.6186 20.3693 93.0149 20.4688 93.353 20.6676C93.6911 20.8665 93.9538 21.1506 94.1413 21.5199C94.3288 21.8864 94.4226 22.3239 94.4226 22.8324V27H92.6072V23.1562C92.6101 22.7557 92.5078 22.4432 92.3004 22.2188C92.093 21.9915 91.8075 21.8778 91.4439 21.8778C91.1996 21.8778 90.9837 21.9304 90.7962 22.0355C90.6115 22.1406 90.4666 22.294 90.3615 22.4957C90.2592 22.6946 90.2067 22.9347 90.2038 23.2159ZM99.3349 20.4545V21.8182H95.3931V20.4545H99.3349ZM96.288 18.8864H98.1033V24.9886C98.1033 25.1562 98.1289 25.2869 98.18 25.3807C98.2312 25.4716 98.3022 25.5355 98.3931 25.5724C98.4869 25.6094 98.5948 25.6278 98.717 25.6278C98.8022 25.6278 98.8874 25.6207 98.9727 25.6065C99.0579 25.5895 99.1232 25.5767 99.1687 25.5682L99.4542 26.919C99.3633 26.9474 99.2354 26.9801 99.0707 27.017C98.9059 27.0568 98.7056 27.081 98.4698 27.0895C98.0323 27.1065 97.6488 27.0483 97.3192 26.9148C96.9925 26.7812 96.7383 26.5739 96.5565 26.2926C96.3746 26.0114 96.2852 25.6562 96.288 25.2273V18.8864ZM105.881 22.321L104.219 22.4233C104.191 22.2812 104.13 22.1534 104.036 22.0398C103.942 21.9233 103.819 21.831 103.665 21.7628C103.515 21.6918 103.335 21.6562 103.124 21.6562C102.843 21.6562 102.606 21.7159 102.413 21.8352C102.219 21.9517 102.123 22.108 102.123 22.304C102.123 22.4602 102.185 22.5923 102.31 22.7003C102.435 22.8082 102.65 22.8949 102.954 22.9602L104.138 23.1989C104.775 23.3295 105.249 23.5398 105.562 23.8295C105.874 24.1193 106.031 24.5 106.031 24.9716C106.031 25.4006 105.904 25.777 105.651 26.1009C105.401 26.4247 105.058 26.6776 104.62 26.8594C104.185 27.0384 103.684 27.1278 103.116 27.1278C102.249 27.1278 101.559 26.9474 101.045 26.5866C100.533 26.223 100.234 25.7287 100.146 25.1037L101.931 25.0099C101.985 25.2741 102.116 25.4759 102.323 25.6151C102.531 25.7514 102.796 25.8196 103.12 25.8196C103.438 25.8196 103.694 25.7585 103.887 25.6364C104.083 25.5114 104.183 25.3509 104.185 25.1548C104.183 24.9901 104.113 24.8551 103.977 24.75C103.84 24.642 103.63 24.5597 103.346 24.5028L102.212 24.277C101.573 24.1491 101.097 23.9276 100.785 23.6122C100.475 23.2969 100.32 22.8949 100.32 22.4062C100.32 21.9858 100.434 21.6236 100.661 21.3196C100.891 21.0156 101.214 20.7812 101.629 20.6165C102.046 20.4517 102.535 20.3693 103.094 20.3693C103.921 20.3693 104.572 20.544 105.046 20.8935C105.523 21.2429 105.802 21.7187 105.881 22.321Z" fill="white"/>
</svg>
