<svg width="256" height="256" viewBox="0 0 256 256" fill="none" xmlns="http://www.w3.org/2000/svg">
<path opacity="0.1" d="M52.736 0H202.752C232.448 0 256 23.552 256 52.736V202.752C256 232.448 232.448 256 203.264 256H52.736C23.552 256 0 232.448 0 203.264V52.736C0 23.552 23.552 0 52.736 0Z" fill="#FF453A"/>
<path opacity="0.962" fill-rule="evenodd" clip-rule="evenodd" d="M157.707 48.7227C161.647 47.9642 164.694 49.2533 166.848 52.5899C160.29 59.3233 153.669 66.003 146.984 72.629C143.863 77.5167 143.98 82.3212 147.336 87.043C154.915 94.8572 162.708 102.416 170.715 109.719C175.02 111.623 179.122 111.272 183.02 108.664C189.582 102.102 196.144 95.5392 202.707 88.9766C206.402 90.7738 207.75 93.7621 206.75 97.9415C206.553 98.7237 206.201 99.4268 205.695 100.051C194.68 111.066 183.664 122.082 172.648 133.098C155.949 116.398 139.25 99.6993 122.551 83.0001C133.566 71.9844 144.582 60.9688 155.598 49.9532C156.277 49.4404 156.98 49.0303 157.707 48.7227Z" fill="#FF453A"/>
<path opacity="0.939" fill-rule="evenodd" clip-rule="evenodd" d="M168.957 54.6992C171.365 56.693 173.416 58.9196 175.109 61.3789C167.009 69.5964 158.806 77.6823 150.5 85.6367C148.13 83.4472 147.31 80.7521 148.039 77.5508C148.411 76.4546 148.88 75.3999 149.445 74.3867C156.02 67.8706 162.524 61.3081 168.957 54.6992Z" fill="#FF453A"/>
<path opacity="0.935" fill-rule="evenodd" clip-rule="evenodd" d="M177.395 63.1367C179.803 65.1305 181.853 67.3571 183.547 69.8164C175.52 77.8436 167.492 85.8712 159.465 93.8984C159.113 94.1329 158.762 94.1329 158.41 93.8984C156.594 92.0819 154.778 90.2657 152.961 88.4492C152.727 88.2147 152.727 87.9806 152.961 87.7461C161.176 79.5895 169.321 71.3862 177.395 63.1367Z" fill="#FF453A"/>
<path opacity="0.935" fill-rule="evenodd" clip-rule="evenodd" d="M185.832 71.9258C188.203 73.7669 190.43 75.8179 192.512 78.0781C184.309 86.2811 176.105 94.4845 167.902 102.688C167.668 102.922 167.434 102.922 167.199 102.688C165.383 100.871 163.567 99.0548 161.75 97.2383C161.516 96.8867 161.516 96.5352 161.75 96.1836C169.848 88.1441 177.876 80.0581 185.832 71.9258Z" fill="#FF453A"/>
<path opacity="0.939" fill-rule="evenodd" clip-rule="evenodd" d="M194.27 80.3633C196.64 82.2044 198.867 84.2554 200.949 86.5156C194.26 93.3226 187.463 100.002 180.559 106.555C176.956 108.413 173.558 108.12 170.363 105.676C169.983 105.372 169.924 105.02 170.187 104.621C178.286 96.5816 186.313 88.4956 194.27 80.3633Z" fill="#FF453A"/>
<path opacity="0.969" fill-rule="evenodd" clip-rule="evenodd" d="M114.816 83.5273C116.837 83.5446 118.712 84.0719 120.441 85.1094C137.141 101.809 153.84 118.508 170.539 135.207C172.426 138.074 172.543 141.003 170.891 143.996C166.155 149.084 161.292 154.064 156.301 158.938C155.949 159.172 155.598 159.172 155.246 158.938C148.449 152.141 141.652 145.344 134.856 138.547C139.543 133.86 144.231 129.172 148.918 124.484C143 118.567 137.082 112.648 131.164 106.73C126.477 111.418 121.789 116.106 117.102 120.793C110.305 113.996 103.508 107.199 96.711 100.402C96.4765 100.051 96.4765 99.6992 96.711 99.3477C101.223 94.8361 105.735 90.3241 110.246 85.8125C111.617 84.6766 113.14 83.9148 114.816 83.5273Z" fill="#FF453A"/>
<path opacity="0.969" fill-rule="evenodd" clip-rule="evenodd" d="M94.0742 102.16C101.098 108.95 108.012 115.864 114.816 122.902C113.052 124.725 111.353 126.6 109.719 128.527C105.775 136.265 107.474 142.417 114.816 146.984C119.09 148.752 123.192 148.4 127.121 145.93C129.049 144.295 130.924 142.596 132.746 140.832C139.714 147.624 146.628 154.479 153.488 161.398C153.371 161.516 153.254 161.633 153.137 161.75C140.619 163.773 128.079 165.531 115.52 167.023C106.555 158.059 97.5898 149.094 88.625 140.129C90.097 127.422 91.9135 114.766 94.0742 102.16Z" fill="#FF453A"/>
<path opacity="0.969" fill-rule="evenodd" clip-rule="evenodd" d="M130.988 111.301C135.65 115.376 140.103 119.712 144.348 124.309C138.083 130.749 131.755 137.136 125.363 143.469C121.147 145.735 117.162 145.383 113.41 142.414C110.292 138.648 109.882 134.606 112.18 130.285C118.52 124.003 124.789 117.675 130.988 111.301Z" fill="#FF453A"/>
<path opacity="0.971" fill-rule="evenodd" clip-rule="evenodd" d="M87.3947 143.996C95.6901 151.705 103.776 159.674 111.652 167.902C108.904 170.827 106.091 173.698 103.215 176.516C98.0016 179.754 92.9627 179.519 88.0978 175.812C85.344 173.059 82.5898 170.305 79.8361 167.551C76.8717 164.038 76.0515 160.054 77.3751 155.598C77.8719 154.486 78.4579 153.432 79.1329 152.434C81.9581 149.667 84.7119 146.855 87.3947 143.996Z" fill="#FF453A"/>
<path opacity="0.956" fill-rule="evenodd" clip-rule="evenodd" d="M74.7383 166.848C79.3321 171.381 84.0195 175.893 88.8008 180.383C80.1875 189.465 71.3398 198.312 62.2578 206.926C57.5117 202.648 53 198.137 48.7227 193.391C57.3339 184.486 66.0058 175.639 74.7383 166.848Z" fill="#FF453A"/>
</svg>
