<svg width="93" height="22" viewBox="0 0 93 22" fill="none" xmlns="http://www.w3.org/2000/svg">
<g id="Group 34">
<rect id="Surface" opacity="0.2" width="93" height="22" rx="10" fill="#00E28D"/>
<path id="Form-data" d="M13.9585 16V6.54545H20.2184V8.19354H15.9574V10.4464H19.8029V12.0945H15.9574V16H13.9585ZM24.2093 16.1385C23.4922 16.1385 22.8721 15.9862 22.3489 15.6815C21.8288 15.3737 21.4271 14.9459 21.144 14.3981C20.8609 13.8472 20.7193 13.2086 20.7193 12.4822C20.7193 11.7498 20.8609 11.1096 21.144 10.5618C21.4271 10.0109 21.8288 9.5831 22.3489 9.27841C22.8721 8.97064 23.4922 8.81676 24.2093 8.81676C24.9264 8.81676 25.545 8.97064 26.0652 9.27841C26.5884 9.5831 26.9915 10.0109 27.2747 10.5618C27.5578 11.1096 27.6994 11.7498 27.6994 12.4822C27.6994 13.2086 27.5578 13.8472 27.2747 14.3981C26.9915 14.9459 26.5884 15.3737 26.0652 15.6815C25.545 15.9862 24.9264 16.1385 24.2093 16.1385ZM24.2186 14.6151C24.5448 14.6151 24.8172 14.5227 25.0357 14.3381C25.2542 14.1503 25.4189 13.8949 25.5297 13.5717C25.6435 13.2486 25.7005 12.8808 25.7005 12.4684C25.7005 12.056 25.6435 11.6882 25.5297 11.3651C25.4189 11.0419 25.2542 10.7865 25.0357 10.5987C24.8172 10.411 24.5448 10.3171 24.2186 10.3171C23.8893 10.3171 23.6123 10.411 23.3876 10.5987C23.166 10.7865 22.9983 11.0419 22.8844 11.3651C22.7736 11.6882 22.7182 12.056 22.7182 12.4684C22.7182 12.8808 22.7736 13.2486 22.8844 13.5717C22.9983 13.8949 23.166 14.1503 23.3876 14.3381C23.6123 14.5227 23.8893 14.6151 24.2186 14.6151ZM28.9782 16V8.90909H30.8848V10.1463H30.9586C31.0879 9.7062 31.3049 9.37382 31.6096 9.14915C31.9142 8.9214 32.2651 8.80753 32.6621 8.80753C32.7606 8.80753 32.8668 8.81368 32.9806 8.82599C33.0945 8.8383 33.1945 8.85523 33.2807 8.87678V10.6218C33.1884 10.5941 33.0607 10.5695 32.8975 10.5479C32.7344 10.5264 32.5852 10.5156 32.4498 10.5156C32.1605 10.5156 31.9019 10.5787 31.6742 10.7049C31.4495 10.828 31.271 11.0004 31.1387 11.2219C31.0094 11.4435 30.9448 11.699 30.9448 11.9883V16H28.9782ZM34.2975 16V8.90909H36.1718V10.1602H36.2549C36.4026 9.74467 36.6488 9.4169 36.9935 9.17685C37.3382 8.93679 37.7506 8.81676 38.2307 8.81676C38.717 8.81676 39.1309 8.93833 39.4726 9.18146C39.8142 9.42152 40.0419 9.74775 40.1558 10.1602H40.2297C40.3743 9.75391 40.6359 9.42921 41.0145 9.18608C41.3961 8.93987 41.847 8.81676 42.3671 8.81676C43.0288 8.81676 43.5658 9.02758 43.9782 9.44922C44.3937 9.86778 44.6015 10.4618 44.6015 11.2312V16H42.6395V11.619C42.6395 11.225 42.5348 10.9296 42.3256 10.7326C42.1163 10.5356 41.8547 10.4371 41.5407 10.4371C41.1837 10.4371 40.9052 10.551 40.7052 10.7788C40.5051 11.0034 40.4051 11.3004 40.4051 11.6697V16H38.4985V11.5774C38.4985 11.2296 38.3985 10.9527 38.1984 10.7464C38.0015 10.5402 37.7414 10.4371 37.4182 10.4371C37.1997 10.4371 37.0028 10.4925 36.8273 10.6033C36.655 10.7111 36.518 10.8634 36.4165 11.0604C36.3149 11.2543 36.2641 11.482 36.2641 11.7436V16H34.2975ZM50.5729 11.3374V12.8977H46.2611V11.3374H50.5729ZM54.8616 16.1154C54.323 16.1154 53.8352 15.9769 53.3982 15.6999C52.9642 15.4199 52.6195 15.009 52.3641 14.4673C52.1117 13.9226 51.9855 13.2547 51.9855 12.4638C51.9855 11.6513 52.1163 10.9757 52.3779 10.4371C52.6395 9.89548 52.9873 9.49077 53.4213 9.22301C53.8583 8.95218 54.3369 8.81676 54.857 8.81676C55.254 8.81676 55.5848 8.88447 55.8495 9.01989C56.1173 9.15223 56.3327 9.31842 56.4958 9.51847C56.662 9.71544 56.7882 9.90933 56.8744 10.1001H56.9344V6.54545H58.8964V16H56.9575V14.8643H56.8744C56.782 15.0613 56.6512 15.2567 56.482 15.4506C56.3158 15.6415 56.0988 15.8 55.8311 15.9261C55.5664 16.0523 55.2432 16.1154 54.8616 16.1154ZM55.4848 14.5504C55.8018 14.5504 56.0696 14.4643 56.2881 14.2919C56.5097 14.1165 56.6789 13.8718 56.7959 13.5579C56.9159 13.244 56.9759 12.8762 56.9759 12.4545C56.9759 12.0329 56.9175 11.6667 56.8005 11.3558C56.6836 11.045 56.5143 10.8049 56.2927 10.6357C56.0711 10.4664 55.8018 10.3817 55.4848 10.3817C55.1617 10.3817 54.8893 10.4695 54.6677 10.6449C54.4461 10.8203 54.2784 11.0634 54.1645 11.3743C54.0506 11.6851 53.9937 12.0452 53.9937 12.4545C53.9937 12.867 54.0506 13.2317 54.1645 13.5487C54.2815 13.8626 54.4492 14.1088 54.6677 14.2873C54.8893 14.4627 55.1617 14.5504 55.4848 14.5504ZM62.5353 16.1339C62.0829 16.1339 61.6797 16.0554 61.3258 15.8984C60.9719 15.7384 60.6918 15.503 60.4856 15.1921C60.2825 14.8782 60.1809 14.4873 60.1809 14.0195C60.1809 13.6256 60.2533 13.2947 60.3979 13.027C60.5426 12.7592 60.7395 12.5438 60.9888 12.3807C61.2381 12.2176 61.5212 12.0945 61.8382 12.0114C62.1583 11.9283 62.4938 11.8698 62.8446 11.8359C63.257 11.7929 63.5894 11.7528 63.8418 11.7159C64.0942 11.6759 64.2773 11.6174 64.3912 11.5405C64.505 11.4635 64.562 11.3497 64.562 11.1989V11.1712C64.562 10.8788 64.4696 10.6526 64.285 10.4925C64.1034 10.3325 63.8449 10.2525 63.5094 10.2525C63.1555 10.2525 62.8739 10.331 62.6646 10.4879C62.4553 10.6418 62.3168 10.8357 62.2491 11.0696L60.4302 10.9219C60.5225 10.491 60.7041 10.1186 60.975 9.80469C61.2458 9.48769 61.5951 9.24455 62.0229 9.07528C62.4538 8.90294 62.9524 8.81676 63.5186 8.81676C63.9126 8.81676 64.2896 8.86293 64.6497 8.95526C65.0128 9.04759 65.3345 9.1907 65.6145 9.38459C65.8977 9.57848 66.1208 9.82777 66.2839 10.1325C66.447 10.4341 66.5286 10.7957 66.5286 11.2173V16H64.6635V15.0167H64.6081C64.4943 15.2383 64.3419 15.4337 64.1511 15.603C63.9603 15.7692 63.731 15.9 63.4632 15.9954C63.1955 16.0877 62.8862 16.1339 62.5353 16.1339ZM63.0985 14.7766C63.3878 14.7766 63.6433 14.7197 63.8649 14.6058C64.0865 14.4889 64.2604 14.3319 64.3865 14.1349C64.5127 13.938 64.5758 13.7148 64.5758 13.4656V12.7131C64.5143 12.7531 64.4296 12.79 64.3219 12.8239C64.2173 12.8546 64.0988 12.8839 63.9664 12.9116C63.8341 12.9362 63.7018 12.9593 63.5694 12.9808C63.4371 12.9993 63.3171 13.0162 63.2093 13.0316C62.9785 13.0655 62.7769 13.1193 62.6046 13.1932C62.4322 13.267 62.2984 13.3671 62.2029 13.4933C62.1075 13.6164 62.0598 13.7702 62.0598 13.9549C62.0598 14.2227 62.1568 14.4273 62.3507 14.5689C62.5476 14.7074 62.7969 14.7766 63.0985 14.7766ZM71.826 8.90909V10.3864H67.5558V8.90909H71.826ZM68.5252 7.21023H70.4918V13.821C70.4918 14.0026 70.5195 14.1442 70.5749 14.2457C70.6303 14.3442 70.7073 14.4135 70.8058 14.4535C70.9073 14.4935 71.0243 14.5135 71.1566 14.5135C71.2489 14.5135 71.3413 14.5058 71.4336 14.4904C71.5259 14.4719 71.5967 14.4581 71.646 14.4489L71.9553 15.9123C71.8568 15.9431 71.7183 15.9785 71.5398 16.0185C71.3613 16.0616 71.1443 16.0877 70.8888 16.0969C70.4149 16.1154 69.9994 16.0523 69.6424 15.9077C69.2885 15.763 69.013 15.5384 68.8161 15.2337C68.6191 14.929 68.5221 14.5443 68.5252 14.0795V7.21023ZM75.1291 16.1339C74.6767 16.1339 74.2735 16.0554 73.9196 15.8984C73.5656 15.7384 73.2856 15.503 73.0794 15.1921C72.8762 14.8782 72.7747 14.4873 72.7747 14.0195C72.7747 13.6256 72.847 13.2947 72.9917 13.027C73.1363 12.7592 73.3333 12.5438 73.5826 12.3807C73.8319 12.2176 74.115 12.0945 74.432 12.0114C74.7521 11.9283 75.0875 11.8698 75.4384 11.8359C75.8508 11.7929 76.1832 11.7528 76.4355 11.7159C76.6879 11.6759 76.871 11.6174 76.9849 11.5405C77.0988 11.4635 77.1557 11.3497 77.1557 11.1989V11.1712C77.1557 10.8788 77.0634 10.6526 76.8787 10.4925C76.6971 10.3325 76.4386 10.2525 76.1032 10.2525C75.7492 10.2525 75.4676 10.331 75.2583 10.4879C75.0491 10.6418 74.9106 10.8357 74.8429 11.0696L73.024 10.9219C73.1163 10.491 73.2979 10.1186 73.5687 9.80469C73.8395 9.48769 74.1889 9.24455 74.6167 9.07528C75.0475 8.90294 75.5461 8.81676 76.1124 8.81676C76.5063 8.81676 76.8833 8.86293 77.2434 8.95526C77.6066 9.04759 77.9282 9.1907 78.2083 9.38459C78.4914 9.57848 78.7145 9.82777 78.8777 10.1325C79.0408 10.4341 79.1223 10.7957 79.1223 11.2173V16H77.2573V15.0167H77.2019C77.088 15.2383 76.9357 15.4337 76.7449 15.603C76.554 15.7692 76.3248 15.9 76.057 15.9954C75.7892 16.0877 75.4799 16.1339 75.1291 16.1339ZM75.6923 14.7766C75.9816 14.7766 76.237 14.7197 76.4586 14.6058C76.6802 14.4889 76.8541 14.3319 76.9803 14.1349C77.1065 13.938 77.1696 13.7148 77.1696 13.4656V12.7131C77.108 12.7531 77.0234 12.79 76.9157 12.8239C76.811 12.8546 76.6925 12.8839 76.5602 12.9116C76.4279 12.9362 76.2955 12.9593 76.1632 12.9808C76.0308 12.9993 75.9108 13.0162 75.8031 13.0316C75.5723 13.0655 75.3707 13.1193 75.1983 13.1932C75.026 13.267 74.8921 13.3671 74.7967 13.4933C74.7013 13.6164 74.6536 13.7702 74.6536 13.9549C74.6536 14.2227 74.7505 14.4273 74.9444 14.5689C75.1414 14.7074 75.3907 14.7766 75.6923 14.7766Z" fill="#00E28D"/>
</g>
</svg>
