<?xml version="1.0" encoding="utf-8"?>
<!-- Generator: Adobe Illustrator 26.3.0, SVG Export Plug-In . SVG Version: 6.00 Build 0)  -->
<svg version="1.1" id="Camada_1" xmlns="http://www.w3.org/2000/svg" xmlns:xlink="http://www.w3.org/1999/xlink" x="0px" y="0px"
	 width="72.38px" height="26.15px" viewBox="0 0 72.38 26.15" style="enable-background:new 0 0 72.38 26.15;" xml:space="preserve"
	>
<style type="text/css">
	.st0{fill:#1A2C1F;stroke:url(#SVGID_1_);stroke-width:0.25;stroke-miterlimit:10;}
	.st1{fill:#17CB49;}
	.st2{fill:url(#SVGID_00000127035614786960281140000005458971198478885046_);}
	.st3{fill:url(#SVGID_00000134939355454266962250000003021672181246516622_);}
</style>
<g>
	<linearGradient id="SVGID_1_" gradientUnits="userSpaceOnUse" x1="0.0121" y1="13.0719" x2="72.3715" y2="13.0719">
		<stop  offset="0" style="stop-color:#18A43F"/>
		<stop  offset="1" style="stop-color:#17CB49"/>
	</linearGradient>
	<path class="st0" d="M70.27,26.02H2.11c-1.09,0-1.98-0.89-1.98-1.98V2.1c0-1.09,0.89-1.98,1.98-1.98h68.16
		c1.09,0,1.98,0.89,1.98,1.98v21.94C72.25,25.13,71.36,26.02,70.27,26.02z"/>
	<g>
		<g>
			<path class="st1" d="M44,18.36c-0.58,0.33-1.2,0.58-1.86,0.75c-0.65,0.17-1.34,0.25-2.07,0.25c-1.72,0-3.08-0.51-4.09-1.53
				s-1.52-2.46-1.52-4.32c0-1.88,0.56-3.37,1.68-4.49c1.12-1.12,2.57-1.67,4.34-1.67c0.66,0,1.27,0.07,1.82,0.2
				c0.55,0.13,1.11,0.34,1.68,0.63L43.4,9.36c-0.48-0.25-0.94-0.43-1.4-0.54c-0.46-0.11-0.96-0.16-1.52-0.16
				c-1.3,0-2.37,0.41-3.21,1.24c-0.83,0.83-1.25,1.99-1.25,3.5c0,1.53,0.37,2.68,1.11,3.47c0.74,0.78,1.77,1.17,3.11,1.17
				c0.44,0,0.85-0.04,1.23-0.13c0.38-0.09,0.73-0.22,1.05-0.39v-3.16h-2.53v-1.31H44V18.36z"/>
			<path class="st1" d="M53.05,19.16h-6.23V7.54h5.97v1.31h-4.5v3.75h4.17v1.31H48.3v3.94h4.76V19.16z"/>
			<path class="st1" d="M62.4,8.85h-3.36v10.31h-1.48V8.85h-3.35V7.54h8.18V8.85z"/>
		</g>
	</g>
	<g>
		<g>
			
				<linearGradient id="SVGID_00000018195068610406876730000002204630985313517485_" gradientUnits="userSpaceOnUse" x1="22.5463" y1="20.5164" x2="14.1742" y2="6.0154">
				<stop  offset="0" style="stop-color:#18A43F"/>
				<stop  offset="1" style="stop-color:#17CB49"/>
			</linearGradient>
			<path style="fill:url(#SVGID_00000018195068610406876730000002204630985313517485_);" d="M9.98,13.26c0,4.61,3.77,8.38,8.37,8.38
				c4.61,0,8.39-3.77,8.38-8.38c0-4.61-3.77-8.37-8.38-8.37C13.75,4.89,9.98,8.66,9.98,13.26z M13.52,16.98
				c0.52-0.54,1.06-1.06,1.58-1.59c0.11-0.11,0.23-0.15,0.38-0.12c0.04,0.01,0.09,0,0.12-0.02c0.29-0.28,0.57-0.57,0.86-0.85
				c-1.31-1.81-0.85-4.15,0.72-5.38c1.5-1.18,3.68-1.07,5.07,0.27c1.4,1.35,1.59,3.51,0.43,5.08c-0.58,0.78-1.34,1.28-2.29,1.49
				c-1.14,0.24-2.2,0.01-3.15-0.68c-0.27,0.27-0.54,0.54-0.8,0.81c-0.06,0.06-0.08,0.12-0.08,0.21c0,0.11-0.04,0.25-0.11,0.33
				c-0.52,0.54-1.06,1.08-1.6,1.6c-0.31,0.31-0.81,0.29-1.11-0.01C13.22,17.8,13.21,17.3,13.52,16.98z"/>
			
				<linearGradient id="SVGID_00000065777371747537722630000008495109514418085000_" gradientUnits="userSpaceOnUse" x1="20.8764" y1="14.3496" x2="18.2455" y2="9.7929">
				<stop  offset="0" style="stop-color:#18A43F"/>
				<stop  offset="1" style="stop-color:#17CB49"/>
			</linearGradient>
			<path style="fill:url(#SVGID_00000065777371747537722630000008495109514418085000_);" d="M16.93,12.07
				c0,1.45,1.18,2.63,2.63,2.63c1.46,0,2.63-1.17,2.63-2.63c0-1.45-1.17-2.63-2.63-2.63C18.11,9.44,16.93,10.61,16.93,12.07z"/>
		</g>
	</g>
</g>
<g>
</g>
<g>
</g>
<g>
</g>
<g>
</g>
<g>
</g>
<g>
</g>
<g>
</g>
<g>
</g>
<g>
</g>
<g>
</g>
<g>
</g>
<g>
</g>
<g>
</g>
<g>
</g>
<g>
</g>
</svg>
