<svg width="256" height="256" viewBox="0 0 256 256" fill="none" xmlns="http://www.w3.org/2000/svg">
<path opacity="0.1" d="M52.736 0H202.752C232.448 0 256 23.552 256 52.736V202.752C256 232.448 232.448 256 203.264 256H52.736C23.552 256 0 232.448 0 203.264V52.736C0 23.552 23.552 0 52.736 0Z" fill="#0A84FF"/>
<g clip-path="url(#clip0_168_628)">
<path d="M199.063 71.975C196.678 70.6025 193.708 70.6625 191.383 72.1325C189.043 73.595 187.693 76.22 187.865 78.9725C187.955 80.3 188.008 81.65 188.008 83.0075C188.008 116.09 161.09 143.008 128.008 143.008C94.9253 143.008 68.0003 116.082 68.0003 83C68.0003 81.6425 68.0528 80.3 68.1428 78.965C68.3153 76.2125 66.9728 73.5875 64.6253 72.125C62.2853 70.6625 59.3303 70.6025 56.9453 71.9675C45.2603 78.6275 38.0078 91.115 38.0078 104.548V157.992C38.0078 178.67 54.8303 195.493 75.5078 195.493H120.508V202.993H98.0078C93.8603 202.993 90.5078 206.345 90.5078 210.493C90.5078 214.64 93.8603 217.993 98.0078 217.993H158.008C162.155 217.993 165.508 214.64 165.508 210.493C165.508 206.345 162.155 202.993 158.008 202.993H135.508V195.493H180.508C201.185 195.493 218.008 178.67 218.008 157.992V104.548C218.008 91.115 210.748 78.6275 199.07 71.9675L199.063 71.975ZM164.24 95.225L160.115 92.8475C161.083 89.7125 161.75 86.45 161.75 83C161.75 79.55 161.083 76.2875 160.115 73.1525L164.24 70.775C167.833 68.705 169.063 64.1225 166.993 60.5375C164.923 56.945 160.34 55.715 156.748 57.7775L152.668 60.1325C148.13 55.2425 142.22 51.695 135.5 50.1575V45.5C135.5 41.36 132.14 38 128 38C123.86 38 120.5 41.36 120.5 45.5V50.1575C113.78 51.695 107.863 55.2425 103.333 60.1325L99.2528 57.7775C95.6603 55.7075 91.0778 56.945 89.0078 60.5375C86.9378 64.13 88.1753 68.7125 91.7603 70.7825L95.8853 73.16C94.9178 76.295 94.2503 79.5575 94.2503 83.0075C94.2503 86.4575 94.9178 89.72 95.8853 92.855L91.7603 95.2325C88.1678 97.3025 86.9378 101.885 89.0078 105.477C91.0778 109.07 95.6603 110.3 99.2528 108.237L103.333 105.882C107.87 110.772 113.78 114.32 120.5 115.857V120.515C120.5 124.655 123.86 128.015 128 128.015C132.14 128.015 135.5 124.655 135.5 120.515V115.857C142.22 114.32 148.138 110.772 152.668 105.882L156.748 108.237C160.34 110.307 164.923 109.07 166.993 105.485C169.063 101.893 167.825 97.31 164.24 95.24V95.225ZM128 94.2575C121.798 94.2575 116.75 89.21 116.75 83.0075C116.75 76.805 121.798 71.7575 128 71.7575C134.203 71.7575 139.25 76.805 139.25 83.0075C139.25 89.21 134.203 94.2575 128 94.2575Z" fill="#0A84FF"/>
</g>
<defs>
<clipPath id="clip0_168_628">
<rect width="180" height="180" fill="white" transform="translate(38 38)"/>
</clipPath>
</defs>
</svg>
