<svg width="102" height="32" viewBox="0 0 102 32" fill="none" xmlns="http://www.w3.org/2000/svg">
<rect opacity="0.2" width="102" height="32" rx="5" fill="#51B863"/>
<path d="M13.529 24V7.27273H17.0656V14.1744H24.2449V7.27273H27.7733V24H24.2449V17.0902H17.0656V24H13.529ZM30.0521 10.1886V7.27273H43.79V10.1886H38.6689V24H35.1732V10.1886H30.0521ZM45.4154 10.1886V7.27273H59.1533V10.1886H54.0322V24H50.5365V10.1886H45.4154ZM61.4157 24V7.27273H68.0152C69.2839 7.27273 70.3647 7.51503 71.2577 7.99964C72.1507 8.47881 72.8314 9.14583 73.2996 10.0007C73.7733 10.8501 74.0102 11.8303 74.0102 12.9411C74.0102 14.0518 73.7706 15.032 73.2915 15.8814C72.8123 16.7308 72.118 17.3924 71.2087 17.8661C70.3048 18.3398 69.2104 18.5767 67.9253 18.5767H63.719V15.7425H67.3536C68.0342 15.7425 68.5951 15.6255 69.0361 15.3913C69.4826 15.1518 69.8148 14.8223 70.0326 14.4031C70.2558 13.9783 70.3675 13.491 70.3675 12.9411C70.3675 12.3857 70.2558 11.901 70.0326 11.4872C69.8148 11.0679 69.4826 10.744 69.0361 10.5153C68.5896 10.2811 68.0233 10.1641 67.3373 10.1641H64.9523V24H61.4157ZM85.3816 12.0835C85.3162 11.4246 85.0358 10.9128 84.5403 10.5479C84.0448 10.1831 83.3723 10.0007 82.5229 10.0007C81.9457 10.0007 81.4584 10.0824 81.0609 10.2457C80.6634 10.4036 80.3585 10.6242 80.1461 10.9073C79.9392 11.1905 79.8358 11.5117 79.8358 11.8711C79.8249 12.1706 79.8875 12.4319 80.0236 12.6552C80.1652 12.8784 80.3585 13.0717 80.6035 13.2351C80.8485 13.393 81.1317 13.5318 81.4529 13.6516C81.7742 13.766 82.1172 13.864 82.4821 13.9457L83.9849 14.305C84.7145 14.4684 85.3843 14.6862 85.9941 14.9585C86.604 15.2307 87.1322 15.5656 87.5787 15.9631C88.0252 16.3606 88.3709 16.8288 88.6159 17.3679C88.8664 17.907 88.9944 18.525 88.9998 19.2219C88.9944 20.2456 88.733 21.1332 88.2157 21.8846C87.7039 22.6306 86.9634 23.2105 85.9941 23.6243C85.0304 24.0327 83.8678 24.2369 82.5066 24.2369C81.1562 24.2369 79.9801 24.0299 78.9782 23.6161C77.9817 23.2023 77.2031 22.5897 76.6422 21.7784C76.0868 20.9616 75.7955 19.9516 75.7683 18.7482H79.1905C79.2286 19.3091 79.3893 19.7773 79.6724 20.1531C79.961 20.5233 80.3449 20.8037 80.824 20.9943C81.3087 21.1795 81.8559 21.272 82.4657 21.272C83.0647 21.272 83.5847 21.1849 84.0257 21.0107C84.4722 20.8364 84.818 20.5941 85.063 20.2837C85.3081 19.9734 85.4306 19.6167 85.4306 19.2138C85.4306 18.8381 85.319 18.5223 85.0957 18.2663C84.8779 18.0104 84.5566 17.7926 84.1319 17.6129C83.7127 17.4332 83.1981 17.2699 82.5882 17.1229L80.7669 16.6655C79.3566 16.3224 78.2431 15.7861 77.4263 15.0565C76.6096 14.3268 76.2039 13.344 76.2093 12.108C76.2039 11.0952 76.4734 10.2103 77.0179 9.45348C77.5679 8.69661 78.322 8.10582 79.2804 7.68111C80.2387 7.25639 81.3277 7.04403 82.5474 7.04403C83.7889 7.04403 84.8725 7.25639 85.7981 7.68111C86.7292 8.10582 87.4534 8.69661 87.9707 9.45348C88.488 10.2103 88.7548 11.087 88.7711 12.0835H85.3816Z" fill="#51B863"/>
</svg>
