<svg width="34" height="34" viewBox="0 0 34 34" fill="none" xmlns="http://www.w3.org/2000/svg">
<rect opacity="0.15" width="34" height="34" rx="10" fill="#8330F4"/>
<path d="M8.9952 16.9789C9.03266 16.9789 9.03266 16.9789 9.07071 16.9787C9.09837 16.9787 9.12583 16.9787 9.15348 16.9789C9.1829 16.9787 9.21251 16.9787 9.24193 16.9787C9.32313 16.9785 9.40452 16.9787 9.48592 16.9787C9.57417 16.9787 9.66263 16.9785 9.75088 16.9785C9.92622 16.9783 10.1016 16.9783 10.2771 16.9783C10.487 16.9783 10.697 16.9782 10.9071 16.978C11.4146 16.9778 11.9222 16.9776 12.43 16.9776C12.67 16.9774 12.9101 16.9774 13.1502 16.9774C13.9721 16.977 14.7939 16.9768 15.6157 16.9768C15.6673 16.9768 15.7188 16.9768 15.7704 16.9768C15.8222 16.9768 15.874 16.9768 15.9256 16.9768C16.0293 16.9768 16.1331 16.9768 16.2368 16.9768C16.2627 16.9768 16.2884 16.9768 16.3149 16.9768C17.1492 16.9767 17.9833 16.9765 18.8177 16.9759C19.6995 16.9755 20.5814 16.9754 21.4632 16.9752C21.5601 16.9752 21.6568 16.9752 21.7537 16.9752C21.7776 16.9752 21.8014 16.9752 21.8259 16.9752C22.2095 16.9752 22.5933 16.975 22.9769 16.9748C23.3625 16.9744 23.7481 16.9744 24.1337 16.9746C24.3628 16.9746 24.592 16.9746 24.8211 16.9742C24.9741 16.974 25.1273 16.974 25.2803 16.9742C25.3675 16.9744 25.4546 16.9744 25.5419 16.9742C25.6213 16.974 25.7008 16.974 25.7802 16.9742C25.8086 16.9742 25.8371 16.9742 25.8655 16.974C26.2346 16.9722 26.5896 17.0533 26.914 17.2244C26.914 17.2367 26.914 17.249 26.914 17.2618C26.9311 17.2651 26.9311 17.2651 26.9483 17.2687C26.9928 17.2805 27.0301 17.2971 27.0709 17.3178C27.0709 17.3302 27.0709 17.3425 27.0709 17.3552C27.0921 17.3621 27.0921 17.3621 27.1139 17.3693C27.1745 17.3949 27.2182 17.4248 27.267 17.4674C27.267 17.4797 27.267 17.4921 27.267 17.5048C27.2796 17.5098 27.2921 17.5147 27.3051 17.5199C27.3455 17.5422 27.3455 17.5422 27.3651 17.5983C27.3845 17.6044 27.4039 17.6106 27.4239 17.617C27.4239 17.6293 27.4239 17.6416 27.4239 17.6543C27.4369 17.6543 27.4498 17.6543 27.4632 17.6543C27.4632 17.6667 27.4632 17.679 27.4632 17.6917C27.4761 17.6917 27.4891 17.6917 27.5024 17.6917C27.5475 17.7396 27.5612 17.7568 27.5612 17.8226C27.5742 17.8226 27.5871 17.8226 27.6005 17.8226C27.6448 17.8819 27.6803 17.9464 27.7181 18.0096C27.7268 18.023 27.7354 18.0363 27.7442 18.0501C28.0366 18.5186 27.9988 19.0746 27.998 19.5984C27.9978 19.6841 27.998 19.7695 27.998 19.8551C27.998 19.9989 27.998 20.1424 27.9978 20.2862C27.9976 20.4509 27.9976 20.6158 27.9978 20.7805C27.998 20.9233 27.998 21.066 27.998 21.2088C27.998 21.2935 27.998 21.3782 27.998 21.4629C27.9994 22.4457 27.9994 22.4457 27.8946 22.8515C27.8884 22.8768 27.8823 22.9022 27.8762 22.9276C27.8399 23.0744 27.7962 23.2161 27.7377 23.3563C27.7289 23.3783 27.7199 23.4004 27.7107 23.4232C27.6287 23.6253 27.5336 23.8175 27.4139 24.0022C27.3916 24.0371 27.3704 24.0727 27.3494 24.1084C27.3002 24.191 27.2435 24.2682 27.186 24.346C27.1756 24.3604 27.165 24.375 27.1543 24.3901C27.1441 24.4038 27.1339 24.4176 27.1235 24.4316C27.1143 24.4441 27.1052 24.4567 27.0956 24.4696C27.0835 24.483 27.0835 24.483 27.0709 24.4967C27.058 24.4967 27.045 24.4967 27.0317 24.4967C27.024 24.5129 27.024 24.5129 27.0162 24.5294C26.9909 24.5743 26.9621 24.6073 26.9262 24.6451C26.8881 24.6855 26.8516 24.7253 26.8171 24.7689C26.77 24.822 26.7181 24.8651 26.6628 24.9102C26.6202 24.945 26.579 24.9807 26.5376 25.0166C26.4643 25.0788 26.3886 25.137 26.3109 25.1942C26.3003 25.202 26.2895 25.2099 26.2786 25.2179C26.114 25.3379 26.114 25.3379 26.051 25.3379C26.051 25.3503 26.051 25.3626 26.051 25.3753C25.994 25.4135 25.9647 25.4314 25.8941 25.4314C25.8941 25.4438 25.8941 25.4561 25.8941 25.4688C25.8837 25.4735 25.8732 25.4781 25.8624 25.483C25.8141 25.5047 25.7659 25.5264 25.7176 25.5483C25.7012 25.5555 25.6847 25.563 25.6678 25.5707C25.5903 25.6055 25.5135 25.6408 25.4374 25.678C25.3795 25.7059 25.3232 25.7262 25.2605 25.7421C25.1985 25.758 25.1642 25.7705 25.1096 25.8053C25.0247 25.83 24.9386 25.8502 24.8525 25.8709C24.8213 25.8786 24.7901 25.887 24.759 25.8954C24.3777 25.996 23.9874 26.0003 23.5947 25.9994C23.5398 25.9994 23.4849 25.9995 23.43 25.9995C23.3113 25.9997 23.1927 25.9997 23.074 25.9997C22.8977 25.9994 22.7212 25.9995 22.5447 25.9997C22.2295 26.0001 21.9141 25.9999 21.5988 25.9999C21.323 25.9997 21.047 25.9997 20.7711 25.9997C20.7527 25.9997 20.7344 25.9997 20.7156 25.9997C20.6411 25.9997 20.5665 25.9997 20.492 25.9997C19.7944 25.9999 19.0966 25.9997 18.3987 25.9995C17.7796 25.9992 17.1604 25.9992 16.5412 25.9995C15.8448 25.9997 15.1481 25.9999 14.4517 25.9997C14.3773 25.9997 14.303 25.9997 14.2287 25.9997C14.2104 25.9997 14.192 25.9997 14.1732 25.9997C13.8976 25.9995 13.6219 25.9997 13.3463 25.9999C13.0327 26.0001 12.7189 25.9999 12.4053 25.9997C12.2301 25.9995 12.0548 25.9995 11.8797 25.9997C11.7622 25.9999 11.6449 25.9997 11.5274 25.9995C11.4609 25.9994 11.3942 25.9994 11.3276 25.9995C10.8902 26.0007 10.4509 25.9794 10.0349 25.8391C9.97682 25.8203 9.91818 25.8042 9.85954 25.7877C9.77265 25.7625 9.69401 25.7339 9.61438 25.693C9.57202 25.6722 9.52887 25.6565 9.48435 25.6406C9.19035 25.5301 8.8991 25.3583 8.65708 25.165C8.61746 25.134 8.57686 25.1061 8.5343 25.0785C8.51587 25.0654 8.49724 25.0523 8.47802 25.0388C8.47802 25.0265 8.47802 25.0141 8.47802 25.0014C8.46154 24.9951 8.46154 24.9951 8.44487 24.9885C8.38662 24.9569 8.34759 24.9167 8.3015 24.8706C8.28699 24.8567 8.27228 24.8427 8.25737 24.8285C8.23952 24.8115 8.22168 24.7945 8.20344 24.7771C8.18912 24.7636 8.1748 24.7502 8.16009 24.7363C8.1444 24.7216 8.12891 24.707 8.11263 24.6918C8.09792 24.6778 8.08302 24.664 8.06791 24.6496C7.96808 24.5501 7.96808 24.5501 7.96808 24.4967C7.95514 24.4967 7.9422 24.4967 7.92886 24.4967C7.90474 24.4705 7.90474 24.4705 7.87767 24.4337C7.86276 24.4137 7.86276 24.4137 7.84766 24.3931C7.83727 24.3787 7.82687 24.3643 7.81609 24.3494C7.80549 24.3348 7.79471 24.3202 7.78372 24.305C7.70978 24.2032 7.64036 24.0996 7.57583 23.9919C7.56445 23.9738 7.55288 23.9558 7.54111 23.9373C7.47757 23.8367 7.42207 23.7384 7.37892 23.6285C7.35774 23.5748 7.33459 23.5223 7.31106 23.4696C7.2279 23.2791 7.16278 23.0897 7.11414 22.8887C7.10591 22.8547 7.09728 22.8209 7.08845 22.787C6.98215 22.3398 7.00098 21.8691 7.00176 21.4131C7.00196 21.3275 7.00176 21.2419 7.00176 21.1563C7.00157 21.0129 7.00176 20.8695 7.00196 20.7259C7.00216 20.561 7.00216 20.3963 7.00196 20.2314C7.00176 20.0886 7.00157 19.9458 7.00176 19.803C7.00176 19.7181 7.00176 19.6334 7.00176 19.5485C7.00078 18.8856 7.03158 18.3283 7.43854 17.7665C7.44874 17.7523 7.45894 17.7381 7.46933 17.7235C7.47855 17.7131 7.48777 17.7026 7.49738 17.6917C7.51032 17.6917 7.52327 17.6917 7.5366 17.6917C7.5366 17.6794 7.5366 17.6671 7.5366 17.6543C7.54955 17.6543 7.56249 17.6543 7.57583 17.6543C7.5823 17.6358 7.58877 17.6173 7.59544 17.5983C7.60839 17.5983 7.62133 17.5983 7.63467 17.5983C7.63996 17.5863 7.64526 17.5743 7.65055 17.562C7.67389 17.5235 7.67389 17.5235 7.73273 17.5048C7.73273 17.4925 7.73273 17.4801 7.73273 17.4674C7.76568 17.4392 7.76568 17.4392 7.80863 17.4089C7.82275 17.3988 7.83687 17.3887 7.85139 17.3784C7.88963 17.3552 7.88963 17.3552 7.92886 17.3552C7.92886 17.3429 7.92886 17.3306 7.92886 17.3178C7.98574 17.2797 8.01515 17.2618 8.08576 17.2618C8.08576 17.2494 8.08576 17.2371 8.08576 17.2244C8.11949 17.2109 8.15342 17.1976 8.18735 17.1842C8.22815 17.167 8.22815 17.167 8.28189 17.1309C8.50998 17.0546 8.75181 16.9791 8.9952 16.9789ZM14.8129 19.5238C14.8035 19.5339 14.7943 19.5442 14.7847 19.5547C14.6425 19.7263 14.6403 19.9318 14.656 20.1408C14.6811 20.3152 14.7861 20.4436 14.9234 20.5575C14.9655 20.593 14.9655 20.593 15.0091 20.5894C15.0091 20.6018 15.0091 20.6141 15.0091 20.6268C15.1611 20.7065 15.2995 20.7259 15.4696 20.7252C15.4968 20.7252 15.4968 20.7252 15.5245 20.7254C15.5849 20.7255 15.6451 20.7255 15.7055 20.7254C15.7489 20.7255 15.7924 20.7255 15.8357 20.7257C15.9534 20.7259 16.0711 20.7259 16.1888 20.7259C16.287 20.7259 16.3855 20.7259 16.4837 20.7261C16.7289 20.7263 16.9741 20.7263 17.2192 20.7261C17.432 20.7261 17.6446 20.7263 17.8574 20.7267C18.0761 20.727 18.2948 20.727 18.5135 20.727C18.636 20.727 18.7586 20.727 18.8814 20.7274C18.9967 20.7276 19.1121 20.7276 19.2274 20.7272C19.2697 20.7272 19.3119 20.7272 19.3543 20.7274C19.4121 20.7276 19.4698 20.7274 19.5276 20.7272C19.5526 20.7274 19.5526 20.7274 19.5781 20.7276C19.6924 20.7267 19.7865 20.704 19.8926 20.6642C19.9224 20.6532 19.9224 20.6532 19.9527 20.642C19.9652 20.6369 19.9778 20.6319 19.9907 20.6268C19.9907 20.6145 19.9907 20.6022 19.9907 20.5894C20.0052 20.5848 20.0197 20.5803 20.0348 20.5756C20.1639 20.5193 20.251 20.3894 20.3106 20.2701C20.3714 20.1092 20.3743 19.8712 20.3067 19.7123C20.2363 19.5861 20.1537 19.4752 20.0299 19.393C20.017 19.393 20.004 19.393 19.9907 19.393C19.9907 19.3806 19.9907 19.3683 19.9907 19.3556C19.8387 19.2758 19.7002 19.2565 19.5302 19.2572C19.5029 19.2571 19.5029 19.2571 19.4753 19.2571C19.4149 19.2569 19.3547 19.2569 19.2943 19.2569C19.2507 19.2569 19.2074 19.2567 19.164 19.2567C19.0463 19.2563 18.9287 19.2563 18.811 19.2565C18.7127 19.2565 18.6143 19.2563 18.516 19.2563C18.2709 19.2561 18.0257 19.2561 17.7805 19.2561C17.5677 19.2563 17.3551 19.2561 17.1423 19.2558C16.9237 19.2554 16.705 19.2552 16.4863 19.2552C16.3637 19.2554 16.2409 19.2552 16.1184 19.255C16.003 19.2548 15.8877 19.2548 15.7724 19.255C15.73 19.255 15.6879 19.255 15.6455 19.2548C15.5876 19.2546 15.53 19.2548 15.4721 19.255C15.4554 19.255 15.4388 19.2548 15.4217 19.2546C15.1819 19.2567 14.9692 19.3518 14.8129 19.5238Z" fill="#4000BF"/>
<path d="M11.5003 12.4874C11.5543 12.4874 11.6082 12.4872 11.6621 12.4872C11.779 12.487 11.8959 12.487 12.0126 12.487C12.1864 12.4872 12.3602 12.4872 12.5341 12.487C12.8444 12.4867 13.1549 12.4867 13.4653 12.4868C13.737 12.487 14.0088 12.487 14.2804 12.487C14.2985 12.487 14.3165 12.487 14.3352 12.487C14.4083 12.487 14.4815 12.487 14.5548 12.487C15.2415 12.4868 15.9281 12.487 16.6148 12.4872C17.2245 12.4876 17.8341 12.4874 18.4438 12.4872C19.1291 12.4868 19.8146 12.4868 20.5 12.487C20.5732 12.487 20.6462 12.487 20.7193 12.487C20.7374 12.487 20.7554 12.487 20.7738 12.487C21.0453 12.487 21.3169 12.487 21.5884 12.4868C21.8971 12.4867 22.2058 12.4868 22.5145 12.487C22.6873 12.4872 22.8598 12.4872 23.0326 12.487C23.148 12.4868 23.2635 12.487 23.379 12.4872C23.4447 12.4874 23.5104 12.4874 23.5761 12.4872C23.915 12.4865 24.2269 12.4908 24.5409 12.6254C24.574 12.6375 24.607 12.6497 24.6401 12.6616C24.736 12.6979 24.8247 12.7437 24.9135 12.7936C24.9135 12.806 24.9135 12.8183 24.9135 12.831C24.9292 12.8333 24.9292 12.8333 24.9453 12.8357C25.009 12.8549 25.0565 12.8865 25.1096 12.9245C25.1096 12.9368 25.1096 12.9492 25.1096 12.9619C25.1261 12.9686 25.1261 12.9686 25.143 12.9753C25.1983 13.0047 25.2367 13.0408 25.2812 13.0834C25.3048 13.1056 25.3048 13.1056 25.3287 13.1285C25.3646 13.1675 25.3646 13.1675 25.3646 13.2049C25.3775 13.2049 25.3905 13.2049 25.4038 13.2049C25.4372 13.2444 25.468 13.2838 25.4982 13.3253C25.507 13.3373 25.5158 13.3494 25.525 13.3618C25.7904 13.7265 25.9016 14.1346 25.8979 14.5751C25.8979 14.6022 25.8979 14.6291 25.8979 14.656C25.8977 14.7263 25.8973 14.7964 25.8969 14.8667C25.8965 14.9387 25.8963 15.0105 25.8961 15.0824C25.8957 15.2232 25.8949 15.3638 25.8941 15.5044C25.8416 15.5294 25.8018 15.5255 25.7429 15.5255C25.7068 15.5255 25.7068 15.5255 25.6702 15.5255C25.6431 15.5255 25.6162 15.5255 25.5892 15.5255C25.5607 15.5255 25.5321 15.5255 25.5036 15.5255C25.4246 15.5257 25.3456 15.5255 25.2665 15.5255C25.1808 15.5255 25.0951 15.5255 25.0092 15.5255C24.8588 15.5257 24.7084 15.5257 24.5577 15.5255C24.3339 15.5255 24.1102 15.5255 23.8864 15.5255C23.4869 15.5257 23.0874 15.5257 22.6876 15.5257C22.3381 15.5255 21.9885 15.5255 21.6388 15.5255C21.6156 15.5255 21.5925 15.5255 21.5685 15.5255C21.4746 15.5257 21.3807 15.5257 21.2865 15.5257C20.4041 15.5257 19.5216 15.5257 18.6392 15.5255C17.8545 15.5255 17.0698 15.5255 16.2849 15.5255C15.4041 15.5257 14.5233 15.5257 13.6424 15.5257C13.5487 15.5257 13.4547 15.5257 13.361 15.5255C13.3379 15.5255 13.3147 15.5255 13.291 15.5255C12.9415 15.5255 12.592 15.5255 12.2425 15.5257C11.8451 15.5257 11.448 15.5257 11.0506 15.5255C10.828 15.5255 10.6054 15.5255 10.383 15.5255C10.2345 15.5257 10.0861 15.5257 9.93759 15.5255C9.85287 15.5255 9.76814 15.5255 9.68341 15.5255C9.60653 15.5255 9.52965 15.5255 9.45277 15.5255C9.42492 15.5255 9.39707 15.5255 9.36922 15.5255C9.33176 15.5255 9.2943 15.5255 9.25683 15.5255C9.23605 15.5255 9.21506 15.5255 9.19368 15.5255C9.14485 15.5231 9.14485 15.5231 9.10562 15.5044C9.10425 15.3509 9.10327 15.1972 9.10248 15.0436C9.10229 14.9723 9.10189 14.9009 9.10111 14.8295C9.10052 14.7605 9.10013 14.6913 9.10013 14.6224C9.09993 14.5962 9.09974 14.57 9.09934 14.5438C9.09562 14.2245 9.1572 13.8981 9.32136 13.6162C9.32979 13.6005 9.33823 13.5848 9.34686 13.5687C9.41746 13.4399 9.49631 13.3154 9.59594 13.2049C9.60888 13.2049 9.62183 13.2049 9.63516 13.2049C9.63928 13.1948 9.64321 13.1849 9.64732 13.1746C9.68478 13.1129 9.73421 13.063 9.79207 13.018C9.80501 13.018 9.81796 13.018 9.83129 13.018C9.8409 12.9903 9.8409 12.9903 9.85091 12.9619C9.86385 12.9619 9.87679 12.9619 9.89013 12.9619C9.89013 12.9495 9.89013 12.9372 9.89013 12.9245C9.97721 12.8602 10.0682 12.8067 10.1647 12.7562C10.182 12.7469 10.1994 12.7375 10.2173 12.728C10.3095 12.6788 10.3961 12.6347 10.4981 12.6067C10.5199 12.5979 10.5419 12.5889 10.5642 12.5798C10.8666 12.4743 11.1834 12.4867 11.5003 12.4874Z" fill="#4000BF"/>
<path d="M13.4396 8.00064C13.4762 8.00064 13.5127 8.00045 13.5494 8.00045C13.6492 8.00008 13.7489 8.00026 13.8487 8.00045C13.9566 8.00064 14.0644 8.00045 14.1725 8.00026C14.3835 7.99989 14.5946 8.00008 14.8056 8.00026C14.9772 8.00026 15.1488 8.00026 15.3206 8.00026C15.3449 8.00026 15.3695 8.00026 15.3948 8.00026C15.4444 8.00026 15.4942 8.00026 15.5438 8.00026C15.9963 8.00008 16.4487 8.00026 16.901 8.00045C17.3135 8.00083 17.7259 8.00064 18.1384 8.00045C18.6024 8.00008 19.0665 8.00008 19.5307 8.00026C19.5801 8.00026 19.6297 8.00026 19.6792 8.00026C19.7158 8.00026 19.7158 8.00026 19.7531 8.00026C19.9243 8.00026 20.0957 8.00026 20.267 8.00008C20.4758 7.99989 20.6849 8.00008 20.8938 8.00026C21.0003 8.00045 21.1068 8.00045 21.2133 8.00026C21.3109 8.00008 21.4086 8.00026 21.5063 8.00045C21.5414 8.00064 21.5765 8.00064 21.6116 8.00045C22.1568 7.99839 22.6248 8.14926 23.0502 8.47511C23.0686 8.48839 23.0871 8.50147 23.1059 8.51512C23.1198 8.52671 23.134 8.53812 23.1483 8.54989C23.1483 8.56223 23.1483 8.57457 23.1483 8.58728C23.1612 8.58728 23.1742 8.58728 23.1875 8.58728C23.1875 8.59962 23.1875 8.61196 23.1875 8.62467C23.2069 8.63084 23.2263 8.63701 23.2463 8.64337C23.2791 8.67814 23.3089 8.71254 23.3383 8.74974C23.3513 8.76601 23.3513 8.76601 23.3644 8.78246C23.666 9.16963 23.8067 9.60204 23.802 10.0823C23.802 10.1094 23.802 10.1365 23.802 10.1638C23.8018 10.2201 23.8016 10.2762 23.8012 10.3324C23.8006 10.4046 23.8004 10.4768 23.8002 10.5489C23.8002 10.6048 23.8 10.6605 23.7998 10.7164C23.7996 10.743 23.7996 10.7697 23.7994 10.7963C23.7992 10.8333 23.799 10.8701 23.7988 10.9069C23.7986 10.9279 23.7984 10.949 23.7982 10.9705C23.7955 11.0176 23.7955 11.0176 23.7759 11.0363C23.7484 11.0382 23.7208 11.0387 23.6931 11.0387C23.666 11.0387 23.666 11.0387 23.6384 11.0387C23.6184 11.0387 23.5982 11.0387 23.5776 11.0387C23.5458 11.0387 23.5458 11.0387 23.5133 11.0387C23.4413 11.0387 23.3693 11.0387 23.2971 11.0387C23.2454 11.0387 23.1936 11.0387 23.1418 11.0387C23.0288 11.0389 22.9157 11.0389 22.8027 11.0387C22.6346 11.0387 22.4663 11.0387 22.2983 11.0387C21.998 11.0389 21.6977 11.0389 21.3976 11.0389C21.1348 11.0387 20.8722 11.0387 20.6094 11.0387C20.5833 11.0387 20.5833 11.0387 20.5566 11.0387C20.486 11.0389 20.4154 11.0389 20.3448 11.0389C19.6819 11.0389 19.0188 11.0389 18.3559 11.0387C17.7663 11.0387 17.1766 11.0387 16.587 11.0387C15.9253 11.0389 15.2635 11.0389 14.6018 11.0389C14.5312 11.0389 14.4608 11.0389 14.3904 11.0387C14.3729 11.0387 14.3557 11.0387 14.3376 11.0387C14.075 11.0387 13.8124 11.0387 13.5498 11.0389C13.2515 11.0389 12.953 11.0389 12.6545 11.0387C12.4872 11.0387 12.3201 11.0387 12.1528 11.0387C12.0412 11.0389 11.9298 11.0389 11.8182 11.0387C11.7546 11.0387 11.6909 11.0387 11.6271 11.0387C11.5589 11.0387 11.4904 11.0387 11.4222 11.0387C11.4022 11.0387 11.382 11.0387 11.3614 11.0387C11.3343 11.0387 11.3343 11.0387 11.3067 11.0387C11.2831 11.0387 11.2831 11.0387 11.2592 11.0387C11.2237 11.0363 11.2237 11.0363 11.2041 11.0176C11.2019 10.9808 11.2012 10.944 11.201 10.9069C11.2008 10.8832 11.2006 10.8595 11.2004 10.8352C11.2004 10.8088 11.2002 10.7826 11.2002 10.7564C11.2002 10.7295 11.2 10.7026 11.1998 10.6757C11.1996 10.6189 11.1996 10.5622 11.1994 10.5056C11.1994 10.4336 11.1988 10.3618 11.1984 10.29C11.198 10.2341 11.1978 10.1784 11.1978 10.1225C11.1978 10.0961 11.1976 10.0698 11.1974 10.0432C11.1927 9.54296 11.3663 9.10457 11.6944 8.71815C11.705 8.70543 11.7154 8.69291 11.7264 8.67982C12.1477 8.1889 12.7984 7.99821 13.4396 8.00064Z" fill="#4000BF"/>
</svg>
