<svg width="256" height="256" viewBox="0 0 256 256" fill="none" xmlns="http://www.w3.org/2000/svg">
<path opacity="0.1" d="M52.736 0H202.752C232.448 0 256 23.552 256 52.736V202.752C256 232.448 232.448 256 203.264 256H52.736C23.552 256 0 232.448 0 203.264V52.736C0 23.552 23.552 0 52.736 0Z" fill="#FF375F"/>
<path fill-rule="evenodd" clip-rule="evenodd" d="M122.771 38.1982C132.515 37.2887 141.394 39.5091 149.409 44.8575C150.698 49.1737 149.112 52.1866 144.652 53.8952C134.275 56.6493 123.81 56.9661 113.258 54.8465C104.931 51.6044 103.98 47.1645 110.404 41.5279C114.552 40.0219 118.675 38.9117 122.771 38.1982Z" fill="#FF375F"/>
<path fill-rule="evenodd" clip-rule="evenodd" d="M156.068 51.517C157.759 52.5634 159.661 53.3569 161.776 53.8953C167.801 54.2121 173.827 54.5299 179.851 54.8466C189.299 55.739 195.958 60.3377 199.829 68.641C199.195 70.2268 198.561 71.8117 197.927 73.3976C198.125 67.5717 196.539 67.096 193.17 71.9706C180.484 77.6301 167.8 77.6301 155.117 71.9706C153.039 70.0527 151.136 67.9912 149.409 65.787C147.569 71.0925 149.155 75.0567 154.166 77.6786C161.917 81.601 170.162 83.028 178.9 81.9596C170.912 83.124 162.984 84.2333 155.117 85.2893C156.299 87.0683 156.934 89.1288 157.02 91.4729C157.015 93.5621 156.698 95.4647 156.068 97.1809C156.225 94.3098 156.066 91.4558 155.593 88.6189C153.316 93.8208 149.353 97.1505 143.701 98.6079C130.081 102.79 117.08 101.522 104.696 94.8026C102.911 92.6611 101.484 90.2828 100.415 87.6676C99.9415 90.8232 99.7826 93.994 99.9396 97.1809C99.0796 96.5064 98.7628 95.5551 98.9883 94.3269C90.5642 94.1405 82.1611 94.4573 73.778 95.2783C72.351 95.1194 70.924 94.9615 69.497 94.8026C68.2288 94.1681 68.2288 93.5345 69.497 92.8999C66.9598 92.2654 64.4235 92.2654 61.8863 92.8999C63.1544 93.2167 64.4235 93.5345 65.6916 93.8513C61.2613 96.1592 56.6625 96.6349 51.8973 95.2783C49.9214 95.7701 48.0187 96.4046 46.1893 97.1809C45.4216 93.4241 44.9459 93.4241 44.7623 97.1809C45.0791 97.1809 44.4455 97.1809 44.7623 97.1809C44.9326 91.5643 43.3468 86.1731 41.9083 81.0083C41.6448 78.2037 41.9616 75.5086 42.8597 72.922C47.8599 70.8851 52.9343 69.1414 58.081 67.6896C57.9316 66.3834 58.0905 65.1144 58.5567 63.8843C61.8625 59.0078 66.4613 55.9959 72.351 54.8466C83.5986 55.5963 94.38 53.8525 104.696 49.6143C105.471 51.77 105.946 53.9904 106.123 56.2736C108.562 58.3923 111.258 60.137 114.21 61.506C121.442 62.9548 128.735 63.2716 136.09 62.4573C140.535 61.6601 144.657 60.0752 148.458 57.7006C150.875 55.9426 151.826 53.5642 151.312 50.5657C152.944 50.6884 154.53 51.0052 156.068 51.517Z" fill="#FF375F"/>
<path fill-rule="evenodd" clip-rule="evenodd" d="M199.83 68.6409C204.249 70.2134 208.688 71.7993 213.148 73.3975C214.032 74.5287 214.349 75.7968 214.1 77.2029C210.78 98.5213 208.561 120.085 207.44 141.893C206.442 147.121 205.173 152.353 203.635 157.59C178.414 177.74 153.204 197.876 128.004 218C101.987 197.85 76.301 177.237 50.9461 156.163C48.4022 136.589 46.3407 116.928 44.7625 97.1808C44.9461 93.424 45.4217 93.424 46.1894 97.1808C48.0189 96.4045 49.9215 95.77 51.8974 95.2782C56.6627 96.6348 61.2614 96.1591 65.6918 93.8512C64.4236 93.5344 63.1546 93.2166 61.8864 92.8998C64.4236 92.2653 66.9599 92.2653 69.4971 92.8998C68.229 93.5344 68.229 94.168 69.4971 94.8025C70.9241 94.9614 72.3511 95.1193 73.7781 95.2782C82.1612 94.4572 90.5643 94.1404 98.9884 94.3268C98.7629 95.555 99.0797 96.5063 99.9397 97.1808C101.398 98.9455 102.984 100.689 104.696 102.413C114.081 108.223 124.229 110.126 135.139 108.121C143.652 107.196 150.629 103.549 156.068 97.1808C156.698 95.4646 157.015 93.562 157.02 91.4728C156.934 89.1288 156.299 87.0682 155.117 85.2892C162.984 84.2332 170.912 83.1239 178.9 81.9595C186.673 82.0223 193.014 79.1683 197.927 73.3975C198.561 71.8117 199.195 70.2267 199.83 68.6409Z" fill="#FF375F"/>
<path fill-rule="evenodd" clip-rule="evenodd" d="M58.0808 67.6894C63.0382 73.4706 69.3807 76.3246 77.1075 76.2514C86.0785 75.8318 94.6405 73.7703 102.793 70.0677C104.562 68.5855 105.989 66.8417 107.074 64.8354C108.842 70.6204 107.098 74.9014 101.842 77.6784C91.4107 81.6007 80.6293 82.8698 69.4968 81.4837C61.9661 79.8303 58.1607 75.2325 58.0808 67.6894Z" fill="#342024"/>
</svg>
