<svg width="25" height="25" viewBox="0 0 25 25" fill="none" xmlns="http://www.w3.org/2000/svg">
<rect opacity="0.15" width="25" height="25" rx="6" fill="#F68D08"/>
<circle cx="12.5" cy="12.5" r="10.5" fill="#F68D08"/>
<g opacity="0.964">
<path fill-rule="evenodd" clip-rule="evenodd" d="M12.1221 5.00053C15.1754 4.97032 17.4922 6.24155 19.0727 8.81425C19.7598 10.0321 20.0651 11.3359 19.9885 12.7257C19.8267 12.9936 19.5922 13.0859 19.2853 13.0028C19.125 12.9408 19.0214 12.8267 18.9746 12.6604C18.9136 10.109 17.7961 8.18049 15.6219 6.87478C13.2653 5.70256 10.9866 5.83295 8.78592 7.26592C6.67938 8.89014 5.81262 11.0252 6.18568 13.671C6.73857 16.1123 8.19408 17.7584 10.5522 18.6092C11.2452 18.8164 11.954 18.9251 12.6783 18.9352C13.048 19.1137 13.1406 19.3908 12.9562 19.7663C12.8029 19.9461 12.6066 20.0221 12.3675 19.9945C9.69917 19.8627 7.62761 18.7001 6.15297 16.5068C4.87875 14.3723 4.6607 12.1341 5.49881 9.79202C6.49427 7.40945 8.24416 5.88289 10.7484 5.2124C11.2072 5.11533 11.6651 5.0447 12.1221 5.00053Z" fill="white"/>
<path fill-rule="evenodd" clip-rule="evenodd" d="M12.7435 8.12981C13.0546 8.10798 13.2672 8.23835 13.3814 8.52096C13.4135 9.8158 13.4025 11.1088 13.3486 12.3998C12.3738 13.404 11.3871 14.3981 10.3885 15.3823C10.0169 15.5624 9.73897 15.4701 9.55445 15.1053C9.52256 14.9346 9.5443 14.7716 9.61989 14.6163C10.514 13.7254 11.4079 12.8344 12.302 11.9434C12.3129 10.8135 12.3238 9.68358 12.3347 8.55355C12.3897 8.33037 12.526 8.18913 12.7435 8.12981Z" fill="white"/>
<path fill-rule="evenodd" clip-rule="evenodd" d="M17.3554 13.6384C17.6227 13.6205 17.8842 13.6477 18.1405 13.72C18.5986 13.9918 19.0292 14.3014 19.4324 14.6489C19.8028 15.1701 19.8028 15.6916 19.4324 16.2135C18.7194 17.238 17.9944 18.2538 17.2573 19.2612C16.5215 19.5383 15.7747 19.7827 15.0168 19.9946C14.746 19.9687 14.5717 19.8275 14.4935 19.5708C14.4666 18.9081 14.4393 18.2453 14.4118 17.5825C14.4111 17.471 14.4275 17.3623 14.4608 17.2565C15.1912 16.2026 15.9217 15.1488 16.6522 14.0948C16.8436 13.8721 17.0779 13.72 17.3554 13.6384ZM17.5518 14.7141C17.6332 14.7075 17.7094 14.7239 17.7807 14.763C18.0507 14.9492 18.3177 15.1393 18.582 15.3334C18.6038 15.3986 18.6038 15.4639 18.582 15.529C17.9089 16.4685 17.2438 17.4138 16.5868 18.3648C16.2359 18.4778 15.8869 18.5973 15.5402 18.7234C15.5255 18.353 15.5146 17.9835 15.5074 17.6151C16.1961 16.6521 16.8775 15.6851 17.5518 14.7141Z" fill="white"/>
<path fill-rule="evenodd" clip-rule="evenodd" d="M12.1221 5.00053C15.1754 4.97032 17.4922 6.24155 19.0727 8.81425C19.7598 10.0321 20.0651 11.3359 19.9885 12.7257C19.8267 12.9936 19.5922 13.0859 19.2853 13.0028C19.125 12.9408 19.0214 12.8267 18.9746 12.6604C18.9136 10.109 17.7961 8.18049 15.6219 6.87478C13.2653 5.70256 10.9866 5.83295 8.78592 7.26592C6.67938 8.89014 5.81262 11.0252 6.18568 13.671C6.73857 16.1123 8.19408 17.7584 10.5522 18.6092C11.2452 18.8164 11.954 18.9251 12.6783 18.9352C13.048 19.1137 13.1406 19.3908 12.9562 19.7663C12.8029 19.9461 12.6066 20.0221 12.3675 19.9945C9.69917 19.8627 7.62761 18.7001 6.15297 16.5068C4.87875 14.3723 4.6607 12.1341 5.49881 9.79202C6.49427 7.40945 8.24416 5.88289 10.7484 5.2124C11.2072 5.11533 11.6651 5.0447 12.1221 5.00053Z" stroke="white" stroke-width="0.5"/>
<path fill-rule="evenodd" clip-rule="evenodd" d="M12.7435 8.12981C13.0546 8.10798 13.2672 8.23835 13.3814 8.52096C13.4135 9.8158 13.4025 11.1088 13.3486 12.3998C12.3738 13.404 11.3871 14.3981 10.3885 15.3823C10.0169 15.5624 9.73897 15.4701 9.55445 15.1053C9.52256 14.9346 9.5443 14.7716 9.61989 14.6163C10.514 13.7254 11.4079 12.8344 12.302 11.9434C12.3129 10.8135 12.3238 9.68358 12.3347 8.55355C12.3897 8.33037 12.526 8.18913 12.7435 8.12981Z" stroke="white" stroke-width="0.5"/>
<path fill-rule="evenodd" clip-rule="evenodd" d="M17.3554 13.6384C17.6227 13.6205 17.8842 13.6477 18.1405 13.72C18.5986 13.9918 19.0292 14.3014 19.4324 14.6489C19.8028 15.1701 19.8028 15.6916 19.4324 16.2135C18.7194 17.238 17.9944 18.2538 17.2573 19.2612C16.5215 19.5383 15.7747 19.7827 15.0168 19.9946C14.746 19.9687 14.5717 19.8275 14.4935 19.5708C14.4666 18.9081 14.4393 18.2453 14.4118 17.5825C14.4111 17.471 14.4275 17.3623 14.4608 17.2565C15.1912 16.2026 15.9217 15.1488 16.6522 14.0948C16.8436 13.8721 17.0779 13.72 17.3554 13.6384ZM17.5518 14.7141C17.6332 14.7075 17.7094 14.7239 17.7807 14.763C18.0507 14.9492 18.3177 15.1393 18.582 15.3334C18.6038 15.3986 18.6038 15.4639 18.582 15.529C17.9089 16.4685 17.2438 17.4138 16.5868 18.3648C16.2359 18.4778 15.8869 18.5973 15.5402 18.7234C15.5255 18.353 15.5146 17.9835 15.5074 17.6151C16.1961 16.6521 16.8775 15.6851 17.5518 14.7141Z" stroke="white" stroke-width="0.5"/>
</g>
</svg>
