<svg width="27" height="27" viewBox="0 0 27 27" fill="none" xmlns="http://www.w3.org/2000/svg">
<g clip-path="url(#clip0_520_72)">
<path opacity="0.15" d="M0 13.5C0 6.04416 6.04416 0 13.5 0C20.9558 0 27 6.04416 27 13.5C27 20.9558 20.9558 27 13.5 27C6.04416 27 0 20.9558 0 13.5Z" fill="#F68D08"/>
<path d="M3.30688 13.4999C3.30688 7.87037 7.87049 3.30676 13.5 3.30676C19.1295 3.30676 23.6931 7.87037 23.6931 13.4999C23.6931 19.1294 19.1295 23.693 13.5 23.693C7.87049 23.693 3.30688 19.1294 3.30688 13.4999Z" fill="url(#paint0_linear_520_72)"/>
<path opacity="0.963" fill-rule="evenodd" clip-rule="evenodd" d="M13.1611 6.75035C15.8996 6.72316 17.9776 7.86728 19.3951 10.1827C20.0114 11.2788 20.2852 12.4522 20.2165 13.703C20.0714 13.9441 19.8611 14.0272 19.5858 13.9524C19.442 13.8966 19.3491 13.7939 19.3071 13.6443C19.2524 11.348 18.2501 9.61234 16.3001 8.43719C14.1864 7.38219 12.1426 7.49954 10.1688 8.78922C8.27945 10.251 7.50204 12.1726 7.83664 14.5538C8.33254 16.751 9.638 18.2325 11.753 18.9982C12.3746 19.1847 13.0103 19.2825 13.6599 19.2916C13.9915 19.4523 14.0746 19.7017 13.9092 20.0396C13.7717 20.2014 13.5956 20.2698 13.3812 20.245C10.9879 20.1264 9.12993 19.08 7.80731 17.106C6.66444 15.185 6.46887 13.1706 7.22058 11.0627C8.11342 8.9184 9.68292 7.54448 11.929 6.94104C12.3405 6.85367 12.7512 6.79011 13.1611 6.75035Z" fill="url(#paint1_linear_520_72)"/>
<path opacity="0.962" fill-rule="evenodd" clip-rule="evenodd" d="M13.7185 9.56669C13.9975 9.54704 14.1882 9.66438 14.2906 9.91873C14.3194 11.0841 14.3096 12.2478 14.2612 13.4097C13.3869 14.3135 12.5019 15.2082 11.6063 16.094C11.273 16.2561 11.0237 16.173 10.8582 15.8447C10.8296 15.6911 10.8491 15.5444 10.9169 15.4046C11.7188 14.6028 12.5206 13.8009 13.3225 12.999C13.3323 11.982 13.3421 10.9651 13.3518 9.94806C13.4012 9.7472 13.5234 9.62008 13.7185 9.56669Z" fill="url(#paint2_linear_520_72)"/>
<path opacity="0.964" fill-rule="evenodd" clip-rule="evenodd" d="M17.8549 14.5245C18.0946 14.5084 18.3292 14.5328 18.559 14.5979C18.9699 14.8425 19.3561 15.1212 19.7178 15.4339C20.05 15.903 20.05 16.3724 19.7178 16.8421C19.0783 17.7641 18.428 18.6784 17.7669 19.585C17.1069 19.8344 16.4371 20.0544 15.7574 20.2451C15.5145 20.2218 15.3581 20.0947 15.288 19.8637C15.2639 19.2672 15.2394 18.6707 15.2147 18.0742C15.2141 17.9738 15.2288 17.876 15.2587 17.7808C15.9138 16.8323 16.569 15.8838 17.2242 14.9352C17.3958 14.7348 17.606 14.5979 17.8549 14.5245ZM18.031 15.4926C18.104 15.4867 18.1724 15.5014 18.2363 15.5366C18.4785 15.7042 18.718 15.8753 18.955 16.05C18.9746 16.1087 18.9746 16.1674 18.955 16.226C18.3513 17.0716 17.7548 17.9224 17.1655 18.7783C16.8508 18.88 16.5378 18.9875 16.2268 19.101C16.2136 18.7676 16.2038 18.4351 16.1974 18.1035C16.8151 17.2368 17.4262 16.3665 18.031 15.4926Z" fill="url(#paint3_linear_520_72)"/>
</g>
<defs>
<linearGradient id="paint0_linear_520_72" x1="13.5" y1="3.30676" x2="13.5" y2="23.693" gradientUnits="userSpaceOnUse">
<stop stop-color="#F6B562"/>
<stop offset="1" stop-color="#F68D08"/>
</linearGradient>
<linearGradient id="paint1_linear_520_72" x1="13.5" y1="6.74988" x2="13.5" y2="20.25" gradientUnits="userSpaceOnUse">
<stop stop-color="white"/>
<stop offset="1" stop-color="white" stop-opacity="0.7"/>
</linearGradient>
<linearGradient id="paint2_linear_520_72" x1="12.5761" y1="6.5" x2="12.5761" y2="20" gradientUnits="userSpaceOnUse">
<stop stop-color="white"/>
<stop offset="1" stop-color="white" stop-opacity="0.7"/>
</linearGradient>
<linearGradient id="paint3_linear_520_72" x1="17.5909" y1="7" x2="17.5909" y2="20.2451" gradientUnits="userSpaceOnUse">
<stop stop-color="white"/>
<stop offset="1" stop-color="white" stop-opacity="0.7"/>
</linearGradient>
<clipPath id="clip0_520_72">
<rect width="27" height="27" fill="white"/>
</clipPath>
</defs>
</svg>
