<svg width="256" height="256" viewBox="0 0 256 256" fill="none" xmlns="http://www.w3.org/2000/svg">
<path opacity="0.991" fill-rule="evenodd" clip-rule="evenodd" d="M44.5943 81.0716C100.603 80.8796 156.59 81.0736 212.555 81.6535C215.134 82.939 216.879 84.9433 217.791 87.6659C218.05 95.2947 218.05 102.923 217.791 110.552C217.597 111.263 217.145 111.716 216.434 111.91C210.282 112.18 206.79 115.348 205.96 121.413C206.79 127.479 210.282 130.647 216.434 130.917C217.145 131.111 217.597 131.563 217.791 132.274C218.166 140.316 218.036 148.333 217.403 156.324C216.118 158.903 214.114 160.649 211.391 161.561C155.383 161.947 99.3959 161.818 43.4306 161.173C40.8516 159.887 39.106 157.883 38.194 155.16C37.9353 147.532 37.9353 139.903 38.194 132.274C38.3879 131.563 38.8405 131.111 39.5516 130.917C43.2531 130.794 46.7442 129.889 50.0249 128.201C54.5659 123.786 54.5659 119.39 50.0249 115.013C46.8216 113.08 43.3305 112.045 39.5516 111.91C38.8405 111.716 38.3879 111.263 38.194 110.552C37.9353 102.923 37.9353 95.2947 38.194 87.6659C39.3651 84.4914 41.4985 82.2931 44.5943 81.0716ZM76.402 103.57C84.0316 103.505 91.6604 103.57 99.2881 103.764C102.173 104.062 104.177 105.549 105.301 108.225C105.559 117.017 105.559 125.809 105.301 134.602C104.177 137.277 102.173 138.764 99.2881 139.063C91.6593 139.321 84.0308 139.321 76.402 139.063C73.0238 138.658 71.0199 136.784 70.3896 133.438C70.1309 125.421 70.1309 117.405 70.3896 109.388C71.0874 106.039 73.0917 104.099 76.402 103.57ZM117.131 103.57C124.761 103.505 132.39 103.57 140.018 103.764C142.901 104.061 144.905 105.548 146.03 108.225C146.289 117.017 146.289 125.809 146.03 134.602C144.905 137.278 142.901 138.765 140.018 139.063C132.389 139.321 124.76 139.321 117.131 139.063C113.927 138.703 111.923 136.957 111.119 133.826C110.86 125.551 110.86 117.275 111.119 109C111.989 105.865 113.993 104.055 117.131 103.57ZM157.861 103.57C165.49 103.505 173.119 103.57 180.747 103.764C183.794 104.097 185.798 105.713 186.759 108.612C187.018 117.146 187.018 125.68 186.759 134.214C185.798 137.113 183.794 138.73 180.747 139.063C173.118 139.321 165.49 139.321 157.861 139.063C154.814 138.73 152.81 137.113 151.848 134.214C151.59 125.68 151.59 117.146 151.848 108.612C152.874 105.709 154.878 104.028 157.861 103.57Z" fill="#0A84FF"/>
<path opacity="0.98" fill-rule="evenodd" clip-rule="evenodd" d="M76.0139 109.776C83.9011 109.776 91.7886 109.776 99.6758 109.776C99.6758 117.534 99.6758 125.292 99.6758 133.05C91.7886 133.05 83.9011 133.05 76.0139 133.05C76.0139 125.292 76.0139 117.534 76.0139 109.776Z" fill="#0A84FF"/>
<path opacity="0.982" fill-rule="evenodd" clip-rule="evenodd" d="M116.743 109.776C124.631 109.776 132.518 109.776 140.405 109.776C140.405 117.534 140.405 125.292 140.405 133.05C132.518 133.05 124.631 133.05 116.743 133.05C116.743 125.292 116.743 117.534 116.743 109.776Z" fill="#0A84FF"/>
<path opacity="0.982" fill-rule="evenodd" clip-rule="evenodd" d="M157.473 109.776C165.36 109.776 173.248 109.776 181.135 109.776C181.135 117.534 181.135 125.292 181.135 133.05C173.248 133.05 165.36 133.05 157.473 133.05C157.473 125.292 157.473 117.534 157.473 109.776Z" fill="#0A84FF"/>
<path opacity="0.988" fill-rule="evenodd" clip-rule="evenodd" d="M50.4128 165.634C77.4366 165.634 104.46 165.634 131.484 165.634C131.716 168.307 131.393 170.893 130.514 173.392C130.223 173.634 129.9 173.828 129.544 173.973C103.684 174.232 77.8245 174.232 51.9644 173.973C51.2533 173.779 50.8007 173.327 50.6068 172.616C50.413 170.292 50.3483 167.964 50.4128 165.634Z" fill="#0A84FF"/>
<path opacity="0.985" fill-rule="evenodd" clip-rule="evenodd" d="M149.327 165.634C168.075 165.634 186.824 165.634 205.572 165.634C205.637 167.964 205.572 170.292 205.378 172.616C205.185 173.327 204.732 173.779 204.021 173.973C186.436 174.232 168.851 174.232 151.267 173.973C150.26 173.454 149.678 172.613 149.521 171.452C149.327 169.517 149.263 167.577 149.327 165.634Z" fill="#0A84FF"/>
</svg>
