<svg width="256" height="256" viewBox="0 0 256 256" fill="none" xmlns="http://www.w3.org/2000/svg">
<path opacity="0.988" fill-rule="evenodd" clip-rule="evenodd" d="M49.6239 51.1096C101.807 51.1096 153.99 51.1096 206.173 51.1096C208.041 52.1197 209.327 53.6199 210.03 55.61C210.03 107.257 210.03 158.904 210.03 210.552C209.262 212.767 207.762 214.321 205.53 215.213C153.883 215.427 102.236 215.427 50.5883 215.213C48.4988 214.409 47.0523 212.963 46.2486 210.873C46.0343 159.012 46.0343 107.15 46.2486 55.2885C46.9653 53.5551 48.0904 52.1621 49.6239 51.1096ZM57.0174 58.1816C61.1869 58.1183 63.0621 60.1542 62.6429 64.2893C61.0684 67.2485 58.7647 68.0521 55.7316 66.7002C52.4519 63.2876 52.8805 60.4481 57.0174 58.1816ZM196.851 58.1816C200.128 58.1348 202.057 59.7421 202.637 63.0035C201.528 66.9866 199.064 68.2189 195.243 66.7002C193.305 64.9567 192.823 62.8673 193.797 60.4318C194.61 59.3437 195.628 58.5937 196.851 58.1816ZM78.2335 74.2544C90.235 74.2009 102.236 74.2544 114.237 74.4152C116.217 75.2145 117.342 76.6611 117.612 78.7548C117.826 90.0058 117.826 101.257 117.612 112.508C117.371 114.654 116.246 116.101 114.237 116.847C102.128 117.062 90.0203 117.062 77.912 116.847C76.1961 116.202 75.1782 114.97 74.8582 113.151C74.6439 101.471 74.6439 89.7914 74.8582 78.1119C75.3705 76.2619 76.4956 74.9761 78.2335 74.2544ZM136.738 74.2544C153.347 74.2009 169.956 74.2544 186.564 74.4152C188.324 74.8888 189.449 76.0139 189.939 77.7905C190.154 95.5776 190.154 113.365 189.939 131.152C189.42 132.889 188.295 134.014 186.564 134.527C169.955 134.742 153.347 134.742 136.738 134.527C134.939 133.907 133.814 132.675 133.363 130.831C133.149 113.258 133.149 95.6849 133.363 78.1119C133.826 76.2062 134.951 74.9204 136.738 74.2544ZM69.8756 135.01C87.449 134.956 105.022 135.01 122.594 135.17C124.469 135.76 125.702 136.992 126.291 138.867C126.506 150.011 126.506 161.155 126.291 172.298C125.702 174.174 124.469 175.406 122.594 175.995C105.021 176.21 87.4486 176.21 69.8756 175.995C67.9186 175.645 66.6864 174.52 66.1789 172.62C65.9646 161.262 65.9646 149.904 66.1789 138.546C66.8306 136.749 68.0629 135.57 69.8756 135.01ZM144.132 154.618C147.777 154.565 151.42 154.618 155.061 154.779C157.654 155.946 158.672 157.928 158.115 160.726C157.496 162.31 156.371 163.328 154.74 163.78C150.86 164.081 147.002 163.974 143.168 163.458C140.546 161.698 139.957 159.394 141.4 156.547C142.146 155.617 143.057 154.974 144.132 154.618ZM168.241 154.618C174.35 154.565 180.457 154.618 186.564 154.779C189.125 155.773 190.25 157.648 189.939 160.405C189.35 162.066 188.225 163.191 186.564 163.78C180.563 163.994 174.563 163.994 168.563 163.78C165.093 162.356 164.182 159.945 165.83 156.547C166.51 155.705 167.313 155.062 168.241 154.618ZM144.775 168.441C147.884 168.388 150.991 168.441 154.097 168.602C157.815 169.553 159.047 171.857 157.794 175.513C156.908 176.824 155.676 177.627 154.097 177.924C151.097 178.138 148.096 178.138 145.096 177.924C141.791 177.297 140.344 175.315 140.757 171.977C141.572 170.14 142.912 168.961 144.775 168.441ZM169.205 168.441C175.224 168.297 181.224 168.458 187.207 168.923C190.613 171.249 190.935 173.928 188.171 176.96C187.382 177.462 186.524 177.783 185.6 177.924C179.689 178.228 173.796 178.121 167.92 177.602C164.719 175.621 164.183 173.05 166.312 169.888C167.22 169.219 168.185 168.737 169.205 168.441ZM69.5542 182.585C87.3416 182.531 105.129 182.585 122.916 182.746C126.437 184.38 127.241 186.898 125.327 190.3C124.601 190.92 123.797 191.403 122.916 191.747C105.129 191.961 87.3413 191.961 69.5542 191.747C66.0842 190.322 65.1735 187.912 66.8218 184.514C67.5681 183.583 68.479 182.94 69.5542 182.585ZM144.132 182.585C147.777 182.531 151.42 182.585 155.061 182.746C158.296 184.34 159.099 186.751 157.472 189.979C156.849 190.816 156.046 191.405 155.061 191.747C151.074 192.048 147.109 191.941 143.168 191.425C140.394 189.482 139.912 187.071 141.721 184.192C142.501 183.565 143.304 183.029 144.132 182.585ZM168.563 182.585C171.838 182.537 173.767 184.144 174.349 187.407C173.238 191.391 170.774 192.623 166.955 191.104C164.875 189.206 164.5 187.009 165.83 184.514C166.577 183.583 167.487 182.94 168.563 182.585ZM184.314 182.585C188.213 182.573 190.088 184.501 189.939 188.371C188.009 192.243 185.33 192.886 181.903 190.3C179.85 186.804 180.654 184.232 184.314 182.585ZM57.9818 197.051C62.1951 197.978 63.5345 200.442 62 204.444C59.6255 207.241 57.161 207.348 54.6065 204.765C52.6485 200.859 53.7736 198.287 57.9818 197.051ZM197.815 197.051C200.665 197.49 202.272 199.151 202.637 202.033C202.134 204.733 200.527 206.286 197.815 206.694C193.403 205.406 192.278 202.728 194.44 198.658C195.451 197.803 196.576 197.267 197.815 197.051Z" fill="#6AC4DC"/>
<path opacity="0.978" fill-rule="evenodd" clip-rule="evenodd" d="M84.0198 83.5767C92.0562 83.5767 100.093 83.5767 108.129 83.5767C108.129 91.6131 108.129 99.6495 108.129 107.686C100.093 107.686 92.0562 107.686 84.0198 107.686C84.0198 99.6495 84.0198 91.6131 84.0198 83.5767Z" fill="#6AC4DC"/>
<path opacity="0.949" fill-rule="evenodd" clip-rule="evenodd" d="M142.525 83.5767C144.668 83.5767 146.811 83.5767 148.954 83.5767C148.954 97.5063 148.954 111.436 148.954 125.366C146.811 125.366 144.668 125.366 142.525 125.366C142.525 111.436 142.525 97.5063 142.525 83.5767Z" fill="#6AC4DC"/>
<path opacity="0.904" fill-rule="evenodd" clip-rule="evenodd" d="M158.276 83.5767C160.526 83.5767 162.776 83.5767 165.026 83.5767C165.026 97.5063 165.026 111.436 165.026 125.366C162.776 125.366 160.526 125.366 158.276 125.366C158.276 111.436 158.276 97.5063 158.276 83.5767Z" fill="#6AC4DC"/>
<path opacity="0.949" fill-rule="evenodd" clip-rule="evenodd" d="M174.349 83.5767C176.492 83.5767 178.635 83.5767 180.778 83.5767C180.778 97.5063 180.778 111.436 180.778 125.366C178.635 125.366 176.492 125.366 174.349 125.366C174.349 111.436 174.349 97.5063 174.349 83.5767Z" fill="#6AC4DC"/>
<path opacity="0.949" fill-rule="evenodd" clip-rule="evenodd" d="M75.3401 144.332C89.2697 144.332 103.2 144.332 117.129 144.332C117.129 146.475 117.129 148.618 117.129 150.761C103.2 150.761 89.2697 150.761 75.3401 150.761C75.3401 148.618 75.3401 146.475 75.3401 144.332Z" fill="#6AC4DC"/>
<path opacity="0.949" fill-rule="evenodd" clip-rule="evenodd" d="M75.3401 160.405C89.2697 160.405 103.2 160.405 117.129 160.405C117.129 162.548 117.129 164.691 117.129 166.834C103.2 166.834 89.2697 166.834 75.3401 166.834C75.3401 164.691 75.3401 162.548 75.3401 160.405Z" fill="#6AC4DC"/>
</svg>
