<?xml version="1.0" encoding="utf-8"?>
<!-- Generator: Adobe Illustrator 26.3.0, SVG Export Plug-In . SVG Version: 6.00 Build 0)  -->
<svg version="1.1" id="Camada_1" xmlns="http://www.w3.org/2000/svg" xmlns:xlink="http://www.w3.org/1999/xlink" x="0px" y="0px"
	 width="25px" height="25px" viewBox="0 0 25 25" style="enable-background:new 0 0 25 25;" xml:space="preserve">
<style type="text/css">
	.st0{fill:#333333;}
	.st1{fill:url(#SVGID_1_);}
	.st2{fill:#FFFFFF;}
</style>
<g>
	<path class="st0" d="M21,0L4,0C1.8,0,0,1.8,0,4l0,17c0,2.2,1.8,4,4,4h17c2.2,0,4-1.8,4-4V4C25,1.8,23.2,0,21,0z"/>
	<g>
		<g>
			<linearGradient id="SVGID_1_" gradientUnits="userSpaceOnUse" x1="17.2232" y1="20.669" x2="7.7944" y2="4.3378">
				<stop  offset="0" style="stop-color:#7F7F7F"/>
				<stop  offset="1" style="stop-color:#B2B2B2"/>
			</linearGradient>
			<path class="st1" d="M21.93,11.91v1.18c-0.01,0.05-0.03,0.09-0.03,0.14c-0.11,1.47-0.54,2.84-1.31,4.09
				c-1.5,2.43-3.65,3.93-6.47,4.46c-0.34,0.06-0.69,0.1-1.04,0.14h-1.18c-0.06-0.01-0.12-0.02-0.18-0.03
				c-0.39-0.06-0.79-0.09-1.18-0.18c-2.26-0.49-4.11-1.64-5.51-3.48c-1.75-2.29-2.34-4.88-1.75-7.71C3.8,8.07,5.15,6.11,7.23,4.7
				c2.06-1.4,4.36-1.89,6.82-1.49c1.78,0.28,3.35,1.04,4.7,2.24c1.63,1.46,2.66,3.27,3.04,5.43C21.85,11.22,21.88,11.57,21.93,11.91
				z"/>
		</g>
		<g>
			<g>
				<path class="st2" d="M12.51,5.22c-4.03-0.01-7.26,3.22-7.28,7.26c-0.01,4.04,3.22,7.29,7.26,7.3c4.03,0.01,7.26-3.22,7.28-7.26
					C19.79,8.48,16.55,5.23,12.51,5.22z M12.49,18.16c-3.16-0.02-5.64-2.52-5.63-5.67c0.01-3.16,2.51-5.65,5.65-5.65
					c3.16,0.01,5.66,2.52,5.64,5.68C18.13,15.68,15.63,18.17,12.49,18.16z"/>
			</g>
		</g>
	</g>
</g>
</svg>
