<?xml version="1.0" encoding="utf-8"?>
<!-- Generator: Adobe Illustrator 26.3.0, SVG Export Plug-In . SVG Version: 6.00 Build 0)  -->
<svg version="1.1" id="Camada_1" xmlns="http://www.w3.org/2000/svg" xmlns:xlink="http://www.w3.org/1999/xlink" x="0px" y="0px"
	 width="168.44px" height="79.51px" viewBox="0 0 168.44 79.51" style="enable-background:new 0 0 168.44 79.51;"
	 xml:space="preserve">
<style type="text/css">
	.st0{fill:url(#SVGID_1_);}
	.st1{opacity:0.24;fill:#020202;}
	.st2{opacity:0.34;fill:url(#SVGID_00000164509364012720449160000013063222792364080043_);}
	.st3{opacity:0.34;fill:#FFFFFF;}
	.st4{fill:#FFFFFF;}
	.st5{font-family:'Poppins-ExtraBold';}
	.st6{font-size:17.5595px;}
	.st7{opacity:0.6;}
	.st8{fill:#020202;}
</style>
<g>
	<g>
		<linearGradient id="SVGID_1_" gradientUnits="userSpaceOnUse" x1="84.22" y1="2.232812e-05" x2="84.22" y2="79.5082">
			<stop  offset="0" style="stop-color:#BFBFBF"/>
			<stop  offset="1" style="stop-color:#838383"/>
		</linearGradient>
		<path class="st0" d="M168.44,8.63v62.24c0,4.75-4.45,8.63-9.88,8.63H9.88C4.45,79.51,0,75.62,0,70.87V8.63C0,3.89,4.45,0,9.88,0
			h148.67c0.17,0,0.34,0.01,0.5,0.01C164.26,0.24,168.44,4.03,168.44,8.63z"/>
		<path class="st1" d="M168.44,8.63v62.24c0,4.75-4.45,8.63-9.88,8.63H72.28L59.01,13.32C58.06,8.58,58.93,3.9,61.12,0h97.43
			c0.17,0,0.34,0.01,0.5,0.01C164.26,0.24,168.44,4.03,168.44,8.63z"/>
		
			<linearGradient id="SVGID_00000008120627673849800650000006791831153374909580_" gradientUnits="userSpaceOnUse" x1="149.2866" y1="81.345" x2="103.7817" y2="2.5282">
			<stop  offset="0" style="stop-color:#7F7F7F"/>
			<stop  offset="1" style="stop-color:#B2B2B2"/>
		</linearGradient>
		<path style="opacity:0.34;fill:url(#SVGID_00000008120627673849800650000006791831153374909580_);" d="M168.44,24.03V59.9
			c-3.64,8.28-8.96,14.84-15.97,19.61h-51.7c-1.86-1.3-3.65-2.77-5.37-4.4C85.3,65.5,80.5,53.59,81.15,39.67
			c0.57-12.2,5.49-22.53,14.35-30.88C99.56,4.96,104,2.03,108.8,0h35.46c2.32,0.99,4.57,2.19,6.75,3.59
			C158.96,8.69,164.8,15.5,168.44,24.03z"/>
		<path class="st3" d="M121.11,7.26c-19.23,3.04-32.19,20.89-29.18,40.19c3.01,19.28,20.92,32.33,40.19,29.29
			c19.22-3.04,32.18-20.89,29.18-40.19C158.28,17.26,140.39,4.22,121.11,7.26z M130.85,69.01c-15.08,2.34-28.83-7.7-31.2-22.75
			C97.29,31.18,107.3,17.38,122.32,15c15.08-2.38,28.92,7.71,31.25,22.79C155.9,52.89,145.86,66.68,130.85,69.01z"/>
	</g>
	<g>
		<g>
			<text transform="matrix(1 0 0 1 15.7559 20.3154)" class="st4 st5 st6">Não Concluída</text>
		</g>
		<g class="st7">
			<g>
				<g>
					<path class="st8" d="M11.24,37.07h-0.85v-6.66h0.85V37.07z"/>
					<path class="st8" d="M17.04,37.07h-0.83V34.3c0-0.51-0.09-0.89-0.28-1.14c-0.19-0.25-0.46-0.38-0.83-0.38
						c-0.38,0-0.7,0.14-0.95,0.43s-0.38,0.65-0.38,1.09v2.78h-0.83V32.2h0.83v0.81h0.02c0.18-0.31,0.41-0.54,0.67-0.69
						c0.27-0.15,0.57-0.23,0.92-0.23c0.53,0,0.94,0.17,1.22,0.52s0.42,0.84,0.42,1.49V37.07z"/>
					<path class="st8" d="M21.91,36.26c-0.18,0.31-0.41,0.54-0.69,0.7c-0.28,0.16-0.6,0.23-0.98,0.23c-0.61,0-1.1-0.22-1.47-0.66
						c-0.37-0.44-0.55-1.03-0.55-1.78c0-0.81,0.2-1.45,0.61-1.94c0.41-0.49,0.95-0.73,1.62-0.73c0.33,0,0.62,0.07,0.86,0.2
						c0.24,0.13,0.44,0.33,0.59,0.59h0.02v-2.84h0.83v7.04h-0.83v-0.82H21.91z M19.07,34.71c0,0.56,0.13,1,0.39,1.31
						c0.26,0.32,0.6,0.48,1.03,0.48c0.43,0,0.78-0.15,1.04-0.46c0.26-0.31,0.4-0.7,0.4-1.17v-0.7c0-0.39-0.13-0.72-0.38-0.99
						s-0.58-0.4-0.97-0.4c-0.47,0-0.84,0.17-1.1,0.52C19.21,33.63,19.07,34.1,19.07,34.71z"/>
					<path class="st8" d="M24.79,31.17c-0.16,0-0.3-0.05-0.41-0.16s-0.16-0.24-0.16-0.39c0-0.16,0.05-0.29,0.16-0.4
						c0.11-0.11,0.24-0.16,0.41-0.16s0.3,0.05,0.41,0.16c0.11,0.11,0.16,0.24,0.16,0.4c0,0.15-0.05,0.29-0.16,0.39
						S24.95,31.17,24.79,31.17z M25.19,37.07h-0.83V32.2h0.83V37.07z"/>
					<path class="st8" d="M30.34,36.77c-0.23,0.15-0.46,0.26-0.7,0.32c-0.23,0.07-0.48,0.1-0.75,0.1c-0.7,0-1.27-0.21-1.7-0.64
						c-0.44-0.43-0.66-1.03-0.66-1.8c0-0.8,0.22-1.44,0.67-1.93c0.45-0.49,1.06-0.73,1.84-0.73c0.25,0,0.49,0.03,0.72,0.09
						s0.45,0.16,0.68,0.29l-0.35,0.6c-0.18-0.11-0.35-0.18-0.52-0.23c-0.17-0.04-0.35-0.07-0.55-0.07c-0.53,0-0.94,0.18-1.22,0.53
						c-0.28,0.35-0.43,0.8-0.43,1.35c0,0.59,0.15,1.05,0.44,1.37c0.3,0.32,0.68,0.47,1.14,0.47c0.16,0,0.32-0.02,0.49-0.07
						c0.17-0.05,0.34-0.13,0.52-0.24L30.34,36.77z"/>
					<path class="st8" d="M34.98,37.07h-0.82v-0.77h-0.02c-0.17,0.29-0.37,0.51-0.62,0.66c-0.25,0.15-0.54,0.22-0.86,0.22
						c-0.46,0-0.83-0.13-1.11-0.4s-0.42-0.62-0.42-1.05c0-0.42,0.14-0.77,0.43-1.04c0.28-0.27,0.69-0.45,1.23-0.52l1.38-0.19v-0.11
						c0-0.39-0.09-0.68-0.28-0.85c-0.19-0.17-0.44-0.26-0.75-0.26c-0.25,0-0.5,0.05-0.73,0.14c-0.24,0.1-0.46,0.24-0.68,0.43
						l-0.45-0.5c0.28-0.25,0.57-0.44,0.88-0.56c0.31-0.12,0.66-0.18,1.03-0.18c0.59,0,1.04,0.15,1.34,0.46s0.45,0.77,0.45,1.38
						V37.07z M34.16,35.09v-0.47L33,34.77c-0.36,0.05-0.62,0.14-0.8,0.27c-0.18,0.13-0.26,0.33-0.26,0.61
						c0,0.28,0.08,0.49,0.25,0.64c0.17,0.15,0.37,0.23,0.62,0.23c0.41,0,0.74-0.14,0.98-0.41C34.03,35.85,34.16,35.5,34.16,35.09z"
						/>
					<path class="st8" d="M43.46,39.26h-0.83v-3.01h-0.02c-0.17,0.32-0.39,0.55-0.67,0.71c-0.28,0.16-0.61,0.23-0.99,0.23
						c-0.61,0-1.1-0.22-1.47-0.66s-0.55-1.03-0.55-1.78c0-0.81,0.2-1.46,0.61-1.94c0.41-0.48,0.95-0.72,1.63-0.72
						c0.33,0,0.62,0.07,0.86,0.2c0.24,0.13,0.43,0.33,0.58,0.59h0.02V32.2h0.83V39.26z M42.64,34.87v-0.69c0-0.4-0.13-0.73-0.39-1
						s-0.58-0.41-0.98-0.41c-0.46,0-0.82,0.17-1.09,0.51c-0.27,0.34-0.4,0.82-0.4,1.45c0,0.55,0.13,0.98,0.39,1.3
						c0.26,0.31,0.59,0.47,1,0.47c0.45,0,0.81-0.15,1.07-0.46C42.5,35.73,42.64,35.34,42.64,34.87z"/>
					<path class="st8" d="M48.92,37.07h-0.83V36.3h-0.02c-0.16,0.3-0.37,0.52-0.62,0.67c-0.25,0.15-0.55,0.22-0.88,0.22
						c-0.58,0-1.01-0.17-1.3-0.52c-0.29-0.35-0.43-0.87-0.43-1.56V32.2h0.83v2.79c0,0.5,0.1,0.88,0.29,1.13
						c0.19,0.25,0.48,0.38,0.87,0.38c0.37,0,0.68-0.14,0.92-0.41c0.24-0.28,0.36-0.64,0.36-1.09v-2.8h0.83V37.07z"/>
					<path class="st8" d="M54.47,34.82h-3.43c0.02,0.54,0.16,0.95,0.43,1.24c0.27,0.29,0.65,0.43,1.15,0.43
						c0.21,0,0.43-0.03,0.66-0.1s0.45-0.18,0.68-0.33l0.38,0.58c-0.28,0.19-0.56,0.32-0.85,0.41c-0.29,0.09-0.6,0.13-0.94,0.13
						c-0.74,0-1.31-0.22-1.72-0.66c-0.41-0.44-0.62-1.05-0.62-1.84c0-0.78,0.21-1.41,0.62-1.89c0.42-0.48,0.96-0.72,1.63-0.72
						c0.64,0,1.13,0.21,1.49,0.62c0.35,0.41,0.53,0.99,0.53,1.73V34.82z M53.64,34.17c0-0.45-0.11-0.8-0.32-1.04
						c-0.21-0.25-0.5-0.37-0.88-0.37c-0.37,0-0.67,0.13-0.93,0.38c-0.25,0.26-0.41,0.6-0.46,1.03H53.64z"/>
					<path class="st8" d="M61.8,37.07h-0.82v-0.77h-0.02c-0.17,0.29-0.37,0.51-0.62,0.66c-0.25,0.15-0.54,0.22-0.86,0.22
						c-0.46,0-0.83-0.13-1.11-0.4s-0.42-0.62-0.42-1.05c0-0.42,0.14-0.77,0.43-1.04c0.28-0.27,0.69-0.45,1.23-0.52l1.38-0.19v-0.11
						c0-0.39-0.09-0.68-0.28-0.85c-0.19-0.17-0.44-0.26-0.75-0.26c-0.25,0-0.5,0.05-0.73,0.14c-0.24,0.1-0.46,0.24-0.68,0.43
						l-0.45-0.5c0.28-0.25,0.57-0.44,0.88-0.56c0.31-0.12,0.66-0.18,1.03-0.18c0.59,0,1.04,0.15,1.34,0.46s0.45,0.77,0.45,1.38
						V37.07z M60.99,35.09v-0.47l-1.16,0.16c-0.36,0.05-0.62,0.14-0.8,0.27c-0.18,0.13-0.26,0.33-0.26,0.61
						c0,0.28,0.08,0.49,0.25,0.64c0.17,0.15,0.37,0.23,0.62,0.23c0.41,0,0.74-0.14,0.98-0.41C60.86,35.85,60.99,35.5,60.99,35.09z"
						/>
					<path class="st8" d="M68.29,30.69c-0.09-0.03-0.17-0.05-0.24-0.07c-0.07-0.01-0.15-0.02-0.22-0.02c-0.26,0-0.45,0.07-0.57,0.2
						c-0.12,0.14-0.19,0.34-0.19,0.6v0.79h1.12v0.69h-1.12v4.18h-0.82v-4.18h-0.82V32.2h0.82v-0.83c0-0.46,0.14-0.81,0.42-1.07
						s0.67-0.39,1.16-0.39c0.12,0,0.24,0.01,0.34,0.03c0.1,0.02,0.21,0.04,0.32,0.08L68.29,30.69z"/>
					<path class="st8" d="M73.09,37.07h-0.83V36.3h-0.02c-0.16,0.3-0.37,0.52-0.62,0.67c-0.25,0.15-0.55,0.22-0.88,0.22
						c-0.58,0-1.01-0.17-1.3-0.52C69.14,36.33,69,35.81,69,35.11V32.2h0.83v2.79c0,0.5,0.1,0.88,0.29,1.13
						c0.19,0.25,0.48,0.38,0.87,0.38c0.37,0,0.68-0.14,0.92-0.41c0.24-0.28,0.36-0.64,0.36-1.09v-2.8h0.83V37.07z"/>
					<path class="st8" d="M78.78,37.07h-0.83V34.3c0-0.51-0.09-0.89-0.28-1.14c-0.19-0.25-0.46-0.38-0.83-0.38
						c-0.38,0-0.7,0.14-0.95,0.43s-0.38,0.65-0.38,1.09v2.78h-0.83V32.2h0.83v0.81h0.02c0.18-0.31,0.41-0.54,0.67-0.69
						c0.27-0.15,0.57-0.23,0.92-0.23c0.53,0,0.94,0.17,1.22,0.52s0.42,0.84,0.42,1.49V37.07z"/>
					<path class="st8" d="M83.77,36.77c-0.23,0.15-0.46,0.26-0.7,0.32c-0.23,0.07-0.48,0.1-0.75,0.1c-0.7,0-1.27-0.21-1.7-0.64
						c-0.44-0.43-0.66-1.03-0.66-1.8c0-0.8,0.22-1.44,0.67-1.93c0.45-0.49,1.06-0.73,1.84-0.73c0.25,0,0.49,0.03,0.72,0.09
						s0.45,0.16,0.68,0.29l-0.35,0.6c-0.18-0.11-0.35-0.18-0.52-0.23c-0.17-0.04-0.35-0.07-0.55-0.07c-0.53,0-0.94,0.18-1.22,0.53
						c-0.28,0.35-0.43,0.8-0.43,1.35c0,0.59,0.15,1.05,0.44,1.37c0.3,0.32,0.68,0.47,1.14,0.47c0.16,0,0.32-0.02,0.49-0.07
						c0.17-0.05,0.34-0.13,0.52-0.24L83.77,36.77z"/>
					<path class="st8" d="M85.32,31.17c-0.16,0-0.3-0.05-0.41-0.16s-0.16-0.24-0.16-0.39c0-0.16,0.05-0.29,0.16-0.4
						c0.11-0.11,0.24-0.16,0.41-0.16c0.16,0,0.3,0.05,0.41,0.16c0.11,0.11,0.17,0.24,0.17,0.4c0,0.15-0.05,0.29-0.17,0.39
						C85.62,31.12,85.49,31.17,85.32,31.17z M85.73,37.07H84.9V32.2h0.83V37.07z"/>
					<path class="st8" d="M89.46,37.19c-0.73,0-1.31-0.23-1.74-0.69c-0.43-0.46-0.65-1.06-0.65-1.82c0-0.81,0.22-1.45,0.67-1.91
						c0.45-0.46,1.05-0.69,1.83-0.69c0.73,0,1.3,0.22,1.71,0.67c0.41,0.45,0.62,1.07,0.62,1.85c0,0.78-0.22,1.41-0.66,1.88
						C90.79,36.96,90.2,37.19,89.46,37.19z M89.51,36.5c0.5,0,0.88-0.16,1.14-0.49c0.27-0.32,0.4-0.78,0.4-1.38
						c0-0.6-0.13-1.06-0.4-1.38c-0.27-0.32-0.65-0.48-1.14-0.48s-0.88,0.17-1.17,0.5s-0.43,0.8-0.43,1.39
						c0,0.57,0.14,1.02,0.43,1.35C88.63,36.34,89.02,36.5,89.51,36.5z"/>
					<path class="st8" d="M97.27,37.07h-0.83V34.3c0-0.51-0.09-0.89-0.28-1.14c-0.19-0.25-0.46-0.38-0.83-0.38
						c-0.38,0-0.7,0.14-0.95,0.43s-0.38,0.65-0.38,1.09v2.78h-0.83V32.2h0.83v0.81h0.02c0.18-0.31,0.41-0.54,0.67-0.69
						c0.27-0.15,0.57-0.23,0.92-0.23c0.53,0,0.94,0.17,1.22,0.52c0.28,0.34,0.42,0.84,0.42,1.49V37.07z"/>
					<path class="st8" d="M102.28,37.07h-0.82v-0.77h-0.02c-0.17,0.29-0.38,0.51-0.62,0.66c-0.25,0.15-0.54,0.22-0.86,0.22
						c-0.46,0-0.83-0.13-1.11-0.4c-0.28-0.27-0.42-0.62-0.42-1.05c0-0.42,0.14-0.77,0.43-1.04s0.7-0.45,1.23-0.52l1.38-0.19v-0.11
						c0-0.39-0.09-0.68-0.28-0.85c-0.19-0.17-0.44-0.26-0.75-0.26c-0.25,0-0.5,0.05-0.73,0.14c-0.24,0.1-0.46,0.24-0.68,0.43
						l-0.45-0.5c0.28-0.25,0.57-0.44,0.88-0.56s0.66-0.18,1.03-0.18c0.59,0,1.04,0.15,1.34,0.46s0.45,0.77,0.45,1.38V37.07z
						 M101.46,35.09v-0.47l-1.16,0.16c-0.36,0.05-0.62,0.14-0.8,0.27s-0.26,0.33-0.26,0.61c0,0.28,0.08,0.49,0.25,0.64
						c0.17,0.15,0.37,0.23,0.62,0.23c0.41,0,0.74-0.14,0.99-0.41C101.34,35.85,101.46,35.5,101.46,35.09z"/>
					<path class="st8" d="M103.81,37.07v-7.04h0.83v7.04H103.81z"/>
					<path class="st8" d="M106.67,31.17c-0.16,0-0.3-0.05-0.41-0.16c-0.11-0.11-0.16-0.24-0.16-0.39c0-0.16,0.05-0.29,0.16-0.4
						c0.11-0.11,0.25-0.16,0.41-0.16s0.3,0.05,0.41,0.16c0.11,0.11,0.16,0.24,0.16,0.4c0,0.15-0.05,0.29-0.16,0.39
						S106.83,31.17,106.67,31.17z M107.07,37.07h-0.83V32.2h0.83V37.07z"/>
					<path class="st8" d="M112.1,36.26c-0.18,0.31-0.41,0.54-0.68,0.7c-0.28,0.16-0.6,0.23-0.98,0.23c-0.61,0-1.1-0.22-1.47-0.66
						c-0.37-0.44-0.55-1.03-0.55-1.78c0-0.81,0.2-1.45,0.61-1.94c0.41-0.49,0.95-0.73,1.62-0.73c0.33,0,0.62,0.07,0.86,0.2
						c0.24,0.13,0.44,0.33,0.59,0.59h0.02v-2.84h0.83v7.04h-0.83v-0.82H112.1z M109.26,34.71c0,0.56,0.13,1,0.39,1.31
						c0.26,0.32,0.6,0.48,1.03,0.48c0.43,0,0.78-0.15,1.04-0.46c0.26-0.31,0.4-0.7,0.4-1.17v-0.7c0-0.39-0.13-0.72-0.38-0.99
						s-0.58-0.4-0.97-0.4c-0.47,0-0.84,0.17-1.1,0.52S109.26,34.1,109.26,34.71z"/>
					<path class="st8" d="M118.06,37.07h-0.82v-0.77h-0.02c-0.17,0.29-0.37,0.51-0.62,0.66c-0.25,0.15-0.54,0.22-0.86,0.22
						c-0.46,0-0.83-0.13-1.11-0.4c-0.28-0.27-0.42-0.62-0.42-1.05c0-0.42,0.14-0.77,0.43-1.04c0.28-0.27,0.69-0.45,1.23-0.52
						l1.38-0.19v-0.11c0-0.39-0.09-0.68-0.28-0.85c-0.19-0.17-0.44-0.26-0.75-0.26c-0.25,0-0.5,0.05-0.73,0.14
						c-0.24,0.1-0.46,0.24-0.68,0.43l-0.45-0.5c0.28-0.25,0.57-0.44,0.88-0.56c0.31-0.12,0.66-0.18,1.03-0.18
						c0.59,0,1.04,0.15,1.34,0.46s0.45,0.77,0.45,1.38V37.07z M117.24,35.09v-0.47l-1.16,0.16c-0.36,0.05-0.62,0.14-0.8,0.27
						c-0.18,0.13-0.26,0.33-0.26,0.61c0,0.28,0.08,0.49,0.25,0.64c0.17,0.15,0.37,0.23,0.62,0.23c0.41,0,0.74-0.14,0.98-0.41
						C117.11,35.85,117.24,35.5,117.24,35.09z"/>
					<path class="st8" d="M122.95,36.26c-0.18,0.31-0.41,0.54-0.68,0.7c-0.28,0.16-0.6,0.23-0.98,0.23c-0.61,0-1.1-0.22-1.47-0.66
						c-0.37-0.44-0.55-1.03-0.55-1.78c0-0.81,0.2-1.45,0.61-1.94c0.41-0.49,0.95-0.73,1.62-0.73c0.33,0,0.62,0.07,0.86,0.2
						c0.24,0.13,0.44,0.33,0.59,0.59h0.02v-2.84h0.83v7.04h-0.83v-0.82H122.95z M120.11,34.71c0,0.56,0.13,1,0.39,1.31
						c0.26,0.32,0.6,0.48,1.03,0.48c0.43,0,0.78-0.15,1.04-0.46c0.26-0.31,0.4-0.7,0.4-1.17v-0.7c0-0.39-0.13-0.72-0.38-0.99
						s-0.58-0.4-0.97-0.4c-0.47,0-0.84,0.17-1.1,0.52S120.11,34.1,120.11,34.71z"/>
					<path class="st8" d="M129.35,34.82h-3.43c0.02,0.54,0.16,0.95,0.43,1.24c0.27,0.29,0.66,0.43,1.15,0.43
						c0.21,0,0.43-0.03,0.66-0.1s0.45-0.18,0.68-0.33l0.38,0.58c-0.28,0.19-0.57,0.32-0.85,0.41c-0.29,0.09-0.6,0.13-0.94,0.13
						c-0.74,0-1.31-0.22-1.72-0.66s-0.62-1.05-0.62-1.84c0-0.78,0.21-1.41,0.62-1.89c0.42-0.48,0.96-0.72,1.63-0.72
						c0.64,0,1.13,0.21,1.49,0.62c0.35,0.41,0.53,0.99,0.53,1.73V34.82z M128.52,34.17c0-0.45-0.11-0.8-0.32-1.04
						c-0.21-0.25-0.5-0.37-0.88-0.37c-0.37,0-0.67,0.13-0.93,0.38c-0.25,0.26-0.41,0.6-0.46,1.03H128.52z"/>
					<path class="st8" d="M136.69,37.07h-0.82v-0.77h-0.02c-0.17,0.29-0.37,0.51-0.62,0.66c-0.25,0.15-0.54,0.22-0.86,0.22
						c-0.46,0-0.83-0.13-1.11-0.4c-0.28-0.27-0.42-0.62-0.42-1.05c0-0.42,0.14-0.77,0.43-1.04c0.28-0.27,0.69-0.45,1.23-0.52
						l1.38-0.19v-0.11c0-0.39-0.09-0.68-0.28-0.85c-0.19-0.17-0.44-0.26-0.75-0.26c-0.25,0-0.5,0.05-0.73,0.14
						c-0.24,0.1-0.46,0.24-0.68,0.43l-0.45-0.5c0.28-0.25,0.57-0.44,0.88-0.56c0.31-0.12,0.66-0.18,1.03-0.18
						c0.59,0,1.04,0.15,1.34,0.46s0.45,0.77,0.45,1.38V37.07z M135.87,35.09v-0.47l-1.16,0.16c-0.36,0.05-0.62,0.14-0.8,0.27
						c-0.18,0.13-0.26,0.33-0.26,0.61c0,0.28,0.08,0.49,0.25,0.64c0.17,0.15,0.37,0.23,0.62,0.23c0.41,0,0.74-0.14,0.98-0.41
						C135.75,35.85,135.87,35.5,135.87,35.09z"/>
					<path class="st8" d="M138.64,31.17c-0.16,0-0.3-0.05-0.41-0.16c-0.11-0.11-0.16-0.24-0.16-0.39c0-0.16,0.05-0.29,0.16-0.4
						c0.11-0.11,0.24-0.16,0.41-0.16s0.3,0.05,0.41,0.16c0.11,0.11,0.17,0.24,0.17,0.4c0,0.15-0.05,0.29-0.17,0.39
						S138.81,31.17,138.64,31.17z M139.05,37.07h-0.83V32.2h0.83V37.07z"/>
					<path class="st8" d="M144.8,37.07h-0.83V34.3c0-0.51-0.09-0.89-0.28-1.14c-0.19-0.25-0.46-0.38-0.83-0.38
						c-0.38,0-0.7,0.14-0.95,0.43s-0.38,0.65-0.38,1.09v2.78h-0.83V32.2h0.83v0.81h0.02c0.18-0.31,0.41-0.54,0.67-0.69
						c0.27-0.15,0.57-0.23,0.92-0.23c0.53,0,0.94,0.17,1.22,0.52c0.28,0.34,0.42,0.84,0.42,1.49V37.07z"/>
					<path class="st8" d="M149.67,36.26c-0.18,0.31-0.41,0.54-0.69,0.7s-0.6,0.23-0.98,0.23c-0.61,0-1.1-0.22-1.47-0.66
						s-0.55-1.03-0.55-1.78c0-0.81,0.2-1.45,0.61-1.94c0.41-0.49,0.95-0.73,1.62-0.73c0.33,0,0.62,0.07,0.86,0.2
						c0.24,0.13,0.44,0.33,0.59,0.59h0.02v-2.84h0.83v7.04h-0.83v-0.82H149.67z M146.83,34.71c0,0.56,0.13,1,0.38,1.31
						c0.26,0.32,0.6,0.48,1.03,0.48c0.43,0,0.78-0.15,1.04-0.46c0.26-0.31,0.39-0.7,0.39-1.17v-0.7c0-0.39-0.13-0.72-0.38-0.99
						s-0.58-0.4-0.97-0.4c-0.47,0-0.83,0.17-1.1,0.52C146.96,33.63,146.83,34.1,146.83,34.71z"/>
					<path class="st8" d="M155.62,37.07h-0.82v-0.77h-0.02c-0.17,0.29-0.38,0.51-0.62,0.66c-0.25,0.15-0.54,0.22-0.86,0.22
						c-0.46,0-0.83-0.13-1.11-0.4c-0.28-0.27-0.42-0.62-0.42-1.05c0-0.42,0.14-0.77,0.43-1.04s0.7-0.45,1.23-0.52l1.38-0.19v-0.11
						c0-0.39-0.09-0.68-0.28-0.85c-0.19-0.17-0.44-0.26-0.75-0.26c-0.25,0-0.5,0.05-0.73,0.14c-0.24,0.1-0.46,0.24-0.68,0.43
						l-0.45-0.5c0.28-0.25,0.57-0.44,0.88-0.56s0.66-0.18,1.03-0.18c0.59,0,1.04,0.15,1.34,0.46s0.45,0.77,0.45,1.38V37.07z
						 M154.81,35.09v-0.47l-1.16,0.16c-0.36,0.05-0.62,0.14-0.8,0.27s-0.26,0.33-0.26,0.61c0,0.28,0.08,0.49,0.25,0.64
						c0.17,0.15,0.37,0.23,0.62,0.23c0.41,0,0.74-0.14,0.99-0.41C154.68,35.85,154.81,35.5,154.81,35.09z"/>
					<path class="st8" d="M20.84,48.49h-0.83v-2.78c0-0.51-0.09-0.89-0.28-1.14c-0.19-0.25-0.46-0.38-0.83-0.38
						c-0.38,0-0.7,0.14-0.95,0.43s-0.38,0.65-0.38,1.09v2.78h-0.83v-4.87h0.83v0.81h0.02c0.18-0.31,0.41-0.54,0.67-0.69
						c0.27-0.15,0.57-0.23,0.92-0.23c0.53,0,0.94,0.17,1.22,0.52s0.42,0.84,0.42,1.49V48.49z"/>
					<path class="st8" d="M25.85,48.49h-0.82v-0.77h-0.02c-0.17,0.29-0.37,0.51-0.62,0.66c-0.25,0.15-0.54,0.22-0.86,0.22
						c-0.46,0-0.83-0.13-1.11-0.4s-0.42-0.62-0.42-1.05c0-0.42,0.14-0.77,0.43-1.04c0.28-0.27,0.69-0.45,1.23-0.52l1.38-0.19v-0.11
						c0-0.39-0.09-0.68-0.28-0.85c-0.19-0.17-0.44-0.26-0.75-0.26c-0.25,0-0.5,0.05-0.73,0.14c-0.24,0.1-0.46,0.24-0.68,0.43
						l-0.45-0.5c0.28-0.25,0.57-0.44,0.88-0.56c0.31-0.12,0.66-0.18,1.03-0.18c0.59,0,1.04,0.15,1.34,0.46s0.45,0.77,0.45,1.38
						V48.49z M25.59,41.6c0,0.34-0.08,0.61-0.23,0.82c-0.15,0.21-0.36,0.31-0.61,0.31c-0.11,0-0.23-0.02-0.36-0.06
						c-0.13-0.04-0.26-0.1-0.4-0.18c-0.12-0.07-0.23-0.12-0.32-0.16s-0.17-0.05-0.23-0.05c-0.14,0-0.24,0.04-0.31,0.13
						c-0.07,0.09-0.1,0.22-0.1,0.39h-0.46c0-0.34,0.07-0.62,0.23-0.82c0.15-0.2,0.36-0.3,0.63-0.3c0.1,0,0.21,0.02,0.33,0.06
						c0.12,0.04,0.24,0.1,0.37,0.18c0.12,0.07,0.23,0.12,0.32,0.15s0.19,0.05,0.27,0.05c0.13,0,0.23-0.04,0.29-0.13
						s0.1-0.22,0.1-0.4H25.59z M25.03,46.5v-0.47l-1.16,0.16c-0.36,0.05-0.62,0.14-0.8,0.27c-0.18,0.13-0.26,0.33-0.26,0.61
						c0,0.28,0.08,0.49,0.25,0.64c0.17,0.15,0.37,0.23,0.62,0.23c0.41,0,0.74-0.14,0.98-0.41C24.91,47.26,25.03,46.92,25.03,46.5z"
						/>
					<path class="st8" d="M29.45,48.6c-0.73,0-1.31-0.23-1.74-0.69c-0.43-0.46-0.65-1.06-0.65-1.82c0-0.81,0.22-1.45,0.67-1.91
						s1.05-0.69,1.83-0.69c0.73,0,1.3,0.22,1.72,0.67c0.41,0.45,0.62,1.07,0.62,1.85c0,0.78-0.22,1.41-0.66,1.88
						S30.19,48.6,29.45,48.6z M29.51,47.92c0.5,0,0.88-0.16,1.14-0.49s0.4-0.78,0.4-1.38c0-0.6-0.13-1.06-0.4-1.38
						c-0.27-0.32-0.65-0.48-1.14-0.48s-0.88,0.17-1.17,0.5s-0.43,0.8-0.43,1.39c0,0.57,0.14,1.02,0.43,1.35
						C28.63,47.75,29.02,47.92,29.51,47.92z"/>
					<path class="st8" d="M38.13,42.11c-0.09-0.03-0.17-0.05-0.24-0.07c-0.07-0.01-0.15-0.02-0.22-0.02c-0.26,0-0.45,0.07-0.57,0.2
						c-0.12,0.14-0.19,0.34-0.19,0.6v0.79h1.12v0.69H36.9v4.18h-0.82V44.3h-0.82v-0.69h0.82v-0.83c0-0.46,0.14-0.81,0.42-1.07
						s0.67-0.39,1.16-0.39c0.12,0,0.24,0.01,0.34,0.03c0.1,0.02,0.21,0.04,0.32,0.08L38.13,42.11z"/>
					<path class="st8" d="M41.01,48.6c-0.73,0-1.31-0.23-1.74-0.69c-0.43-0.46-0.65-1.06-0.65-1.82c0-0.81,0.22-1.45,0.67-1.91
						s1.05-0.69,1.83-0.69c0.73,0,1.3,0.22,1.72,0.67c0.41,0.45,0.62,1.07,0.62,1.85c0,0.78-0.22,1.41-0.66,1.88
						S41.75,48.6,41.01,48.6z M41.06,47.92c0.5,0,0.88-0.16,1.14-0.49s0.4-0.78,0.4-1.38c0-0.6-0.13-1.06-0.4-1.38
						c-0.27-0.32-0.65-0.48-1.14-0.48s-0.88,0.17-1.17,0.5s-0.43,0.8-0.43,1.39c0,0.57,0.14,1.02,0.43,1.35
						C40.18,47.75,40.57,47.92,41.06,47.92z"/>
					<path class="st8" d="M45.15,42.58c-0.16,0-0.3-0.05-0.41-0.16s-0.16-0.24-0.16-0.39c0-0.16,0.05-0.29,0.16-0.4
						c0.11-0.11,0.24-0.16,0.41-0.16s0.3,0.05,0.41,0.16c0.11,0.11,0.16,0.24,0.16,0.4c0,0.15-0.05,0.29-0.16,0.39
						S45.32,42.58,45.15,42.58z M45.56,48.49h-0.83v-4.87h0.83V48.49z"/>
					<path class="st8" d="M53.31,48.18c-0.23,0.15-0.46,0.26-0.7,0.32c-0.23,0.07-0.48,0.1-0.75,0.1c-0.7,0-1.27-0.21-1.7-0.64
						c-0.44-0.43-0.66-1.03-0.66-1.8c0-0.8,0.22-1.44,0.67-1.93c0.45-0.49,1.06-0.73,1.84-0.73c0.25,0,0.49,0.03,0.72,0.09
						s0.45,0.16,0.68,0.29l-0.35,0.6c-0.18-0.11-0.35-0.18-0.52-0.23c-0.17-0.04-0.35-0.07-0.55-0.07c-0.53,0-0.94,0.18-1.22,0.53
						c-0.28,0.35-0.43,0.8-0.43,1.35c0,0.59,0.15,1.05,0.44,1.37c0.3,0.32,0.68,0.47,1.14,0.47c0.16,0,0.32-0.02,0.49-0.07
						c0.17-0.05,0.34-0.13,0.52-0.24L53.31,48.18z"/>
					<path class="st8" d="M56.51,48.6c-0.73,0-1.31-0.23-1.74-0.69c-0.43-0.46-0.65-1.06-0.65-1.82c0-0.81,0.22-1.45,0.67-1.91
						s1.05-0.69,1.83-0.69c0.73,0,1.3,0.22,1.72,0.67c0.41,0.45,0.62,1.07,0.62,1.85c0,0.78-0.22,1.41-0.66,1.88
						S57.25,48.6,56.51,48.6z M56.56,47.92c0.5,0,0.88-0.16,1.14-0.49s0.4-0.78,0.4-1.38c0-0.6-0.13-1.06-0.4-1.38
						c-0.27-0.32-0.65-0.48-1.14-0.48s-0.88,0.17-1.17,0.5s-0.43,0.8-0.43,1.39c0,0.57,0.14,1.02,0.43,1.35
						C55.69,47.75,56.07,47.92,56.56,47.92z"/>
					<path class="st8" d="M64.32,48.49h-0.83v-2.78c0-0.51-0.09-0.89-0.28-1.14c-0.19-0.25-0.46-0.38-0.83-0.38
						c-0.38,0-0.7,0.14-0.95,0.43s-0.38,0.65-0.38,1.09v2.78h-0.83v-4.87h0.83v0.81h0.02c0.18-0.31,0.41-0.54,0.67-0.69
						c0.27-0.15,0.57-0.23,0.92-0.23c0.53,0,0.94,0.17,1.22,0.52c0.28,0.34,0.42,0.84,0.42,1.49V48.49z"/>
					<path class="st8" d="M69.31,48.18c-0.23,0.15-0.46,0.26-0.7,0.32c-0.23,0.07-0.48,0.1-0.75,0.1c-0.7,0-1.27-0.21-1.7-0.64
						c-0.44-0.43-0.66-1.03-0.66-1.8c0-0.8,0.22-1.44,0.67-1.93c0.45-0.49,1.06-0.73,1.84-0.73c0.25,0,0.49,0.03,0.72,0.09
						s0.45,0.16,0.68,0.29l-0.35,0.6c-0.18-0.11-0.35-0.18-0.52-0.23c-0.17-0.04-0.35-0.07-0.55-0.07c-0.53,0-0.94,0.18-1.22,0.53
						c-0.28,0.35-0.43,0.8-0.43,1.35c0,0.59,0.15,1.05,0.44,1.37c0.3,0.32,0.68,0.47,1.14,0.47c0.16,0,0.32-0.02,0.49-0.07
						c0.17-0.05,0.34-0.13,0.52-0.24L69.31,48.18z"/>
					<path class="st8" d="M70.44,48.49v-7.04h0.83v7.04H70.44z"/>
					<path class="st8" d="M76.86,48.49h-0.83v-0.78h-0.02c-0.16,0.3-0.37,0.52-0.62,0.67c-0.25,0.15-0.55,0.22-0.88,0.22
						c-0.58,0-1.01-0.17-1.3-0.52c-0.29-0.35-0.43-0.87-0.43-1.56v-2.91h0.83v2.79c0,0.5,0.1,0.88,0.29,1.13
						c0.19,0.25,0.48,0.38,0.87,0.38c0.37,0,0.68-0.14,0.92-0.41c0.24-0.28,0.36-0.64,0.36-1.09v-2.8h0.83V48.49z"/>
					<path class="st8" d="M78.88,42.75h-0.64l1.05-1.52h0.82L78.88,42.75z M78.47,48.49v-4.87h0.83v4.87H78.47z"/>
					<path class="st8" d="M84.26,47.67c-0.18,0.31-0.41,0.54-0.69,0.7c-0.28,0.16-0.6,0.23-0.98,0.23c-0.61,0-1.1-0.22-1.47-0.66
						c-0.37-0.44-0.55-1.03-0.55-1.78c0-0.81,0.2-1.45,0.61-1.94c0.41-0.49,0.95-0.73,1.62-0.73c0.33,0,0.62,0.07,0.86,0.2
						c0.24,0.13,0.44,0.33,0.59,0.59h0.02v-2.84h0.83v7.04h-0.83v-0.82H84.26z M81.42,46.12c0,0.56,0.13,1,0.39,1.31
						c0.26,0.32,0.6,0.48,1.03,0.48c0.43,0,0.78-0.15,1.04-0.46c0.26-0.31,0.4-0.7,0.4-1.17v-0.7c0-0.39-0.13-0.72-0.38-0.99
						s-0.58-0.4-0.97-0.4c-0.47,0-0.84,0.17-1.1,0.52C81.56,45.05,81.42,45.52,81.42,46.12z"/>
					<path class="st8" d="M90.22,48.49H89.4v-0.77h-0.02c-0.17,0.29-0.38,0.51-0.62,0.66c-0.25,0.15-0.54,0.22-0.86,0.22
						c-0.46,0-0.83-0.13-1.11-0.4s-0.42-0.62-0.42-1.05c0-0.42,0.14-0.77,0.43-1.04s0.7-0.45,1.23-0.52l1.38-0.19v-0.11
						c0-0.39-0.09-0.68-0.28-0.85c-0.19-0.17-0.44-0.26-0.75-0.26c-0.25,0-0.5,0.05-0.73,0.14c-0.24,0.1-0.46,0.24-0.68,0.43
						l-0.45-0.5c0.28-0.25,0.57-0.44,0.88-0.56s0.66-0.18,1.03-0.18c0.59,0,1.04,0.15,1.34,0.46c0.3,0.31,0.45,0.77,0.45,1.38V48.49
						z M89.4,46.5v-0.47l-1.16,0.16c-0.36,0.05-0.62,0.14-0.8,0.27c-0.18,0.13-0.26,0.33-0.26,0.61c0,0.28,0.08,0.49,0.25,0.64
						c0.17,0.15,0.37,0.23,0.62,0.23c0.41,0,0.74-0.14,0.99-0.41C89.28,47.26,89.4,46.92,89.4,46.5z"/>
					<path class="st8" d="M98.31,46.24h-3.43c0.02,0.54,0.16,0.95,0.43,1.24c0.27,0.29,0.65,0.43,1.15,0.43
						c0.21,0,0.43-0.03,0.66-0.1s0.45-0.18,0.68-0.33l0.38,0.58c-0.28,0.19-0.56,0.32-0.85,0.41c-0.29,0.09-0.6,0.13-0.94,0.13
						c-0.74,0-1.31-0.22-1.72-0.66c-0.41-0.44-0.62-1.05-0.62-1.84c0-0.78,0.21-1.41,0.62-1.89c0.42-0.48,0.96-0.72,1.63-0.72
						c0.64,0,1.13,0.21,1.49,0.62c0.35,0.41,0.53,0.99,0.53,1.73V46.24z M97.48,45.59c0-0.45-0.11-0.8-0.32-1.04
						c-0.21-0.25-0.5-0.37-0.88-0.37c-0.37,0-0.67,0.13-0.93,0.38c-0.25,0.26-0.41,0.6-0.46,1.03H97.48z"/>
					<path class="st8" d="M102.98,47.79h-0.02v2.89h-0.83v-7.06h0.83v0.85h0.02c0.19-0.32,0.43-0.56,0.71-0.72
						c0.28-0.16,0.61-0.24,0.97-0.24c0.63,0,1.12,0.22,1.47,0.66s0.53,1.02,0.53,1.76c0,0.81-0.2,1.47-0.6,1.96
						c-0.4,0.49-0.94,0.74-1.62,0.74c-0.32,0-0.6-0.07-0.84-0.2C103.36,48.26,103.15,48.06,102.98,47.79z M102.96,45.83v0.65
						c0,0.4,0.13,0.74,0.39,1.02c0.26,0.28,0.58,0.42,0.98,0.42c0.46,0,0.82-0.18,1.09-0.53c0.26-0.36,0.39-0.85,0.39-1.49
						c0-0.54-0.12-0.95-0.37-1.26c-0.25-0.3-0.58-0.45-1-0.45c-0.45,0-0.81,0.16-1.08,0.47C103.1,44.96,102.96,45.35,102.96,45.83z"
						/>
					<path class="st8" d="M111.9,46.24h-3.43c0.02,0.54,0.16,0.95,0.43,1.24c0.27,0.29,0.65,0.43,1.15,0.43
						c0.21,0,0.43-0.03,0.66-0.1s0.45-0.18,0.68-0.33l0.38,0.58c-0.28,0.19-0.56,0.32-0.85,0.41c-0.29,0.09-0.6,0.13-0.94,0.13
						c-0.74,0-1.31-0.22-1.72-0.66c-0.41-0.44-0.62-1.05-0.62-1.84c0-0.78,0.21-1.41,0.62-1.89s0.96-0.72,1.63-0.72
						c0.64,0,1.13,0.21,1.49,0.62c0.35,0.41,0.53,0.99,0.53,1.73V46.24z M111.06,45.59c0-0.45-0.11-0.8-0.32-1.04
						c-0.21-0.25-0.5-0.37-0.88-0.37c-0.37,0-0.67,0.13-0.93,0.38c-0.25,0.26-0.41,0.6-0.46,1.03H111.06z"/>
					<path class="st8" d="M115.57,44.32c-0.06-0.02-0.12-0.03-0.17-0.04c-0.05-0.01-0.12-0.01-0.19-0.01c-0.39,0-0.7,0.17-0.93,0.5
						c-0.23,0.33-0.34,0.75-0.34,1.26v2.46h-0.83v-4.87h0.83v0.97h0.02c0.11-0.34,0.28-0.6,0.51-0.78s0.49-0.27,0.79-0.27
						c0.1,0,0.18,0,0.25,0.01c0.07,0.01,0.13,0.02,0.19,0.04L115.57,44.32z"/>
					<path class="st8" d="M123.59,48.49h-0.83v-2.8c0-0.53-0.08-0.91-0.25-1.15s-0.44-0.35-0.82-0.35c-0.33,0-0.61,0.15-0.83,0.45
						c-0.23,0.3-0.34,0.66-0.34,1.08v2.78h-0.83V45.6c0-0.47-0.09-0.82-0.27-1.06s-0.45-0.35-0.82-0.35c-0.34,0-0.62,0.14-0.83,0.42
						c-0.22,0.28-0.33,0.65-0.33,1.11v2.77h-0.83v-4.87h0.83v0.77h0.02c0.17-0.29,0.39-0.52,0.64-0.66
						c0.25-0.15,0.55-0.22,0.88-0.22c0.33,0,0.62,0.09,0.87,0.27s0.42,0.43,0.51,0.73c0.18-0.33,0.41-0.59,0.68-0.75
						c0.27-0.17,0.58-0.25,0.94-0.25c0.54,0,0.94,0.17,1.21,0.5s0.4,0.83,0.4,1.49V48.49z"/>
					<path class="st8" d="M128.6,48.49h-0.82v-0.77h-0.02c-0.17,0.29-0.37,0.51-0.62,0.66c-0.25,0.15-0.54,0.22-0.87,0.22
						c-0.46,0-0.83-0.13-1.11-0.4s-0.42-0.62-0.42-1.05c0-0.42,0.14-0.77,0.43-1.04c0.28-0.27,0.69-0.45,1.23-0.52l1.38-0.19v-0.11
						c0-0.39-0.09-0.68-0.28-0.85c-0.19-0.17-0.44-0.26-0.75-0.26c-0.25,0-0.5,0.05-0.73,0.14c-0.24,0.1-0.46,0.24-0.68,0.43
						l-0.45-0.5c0.28-0.25,0.57-0.44,0.88-0.56c0.31-0.12,0.66-0.18,1.03-0.18c0.59,0,1.04,0.15,1.34,0.46
						c0.3,0.31,0.45,0.77,0.45,1.38V48.49z M127.78,46.5v-0.47l-1.16,0.16c-0.36,0.05-0.62,0.14-0.8,0.27
						c-0.18,0.13-0.27,0.33-0.27,0.61c0,0.28,0.08,0.49,0.25,0.64c0.17,0.15,0.37,0.23,0.62,0.23c0.41,0,0.74-0.14,0.98-0.41
						C127.66,47.26,127.78,46.92,127.78,46.5z"/>
					<path class="st8" d="M134.22,48.49h-0.83v-2.78c0-0.51-0.09-0.89-0.28-1.14s-0.46-0.38-0.83-0.38c-0.38,0-0.7,0.14-0.95,0.43
						c-0.25,0.29-0.38,0.65-0.38,1.09v2.78h-0.83v-4.87h0.83v0.81h0.02c0.18-0.31,0.41-0.54,0.67-0.69
						c0.27-0.15,0.57-0.23,0.92-0.23c0.53,0,0.94,0.17,1.22,0.52s0.42,0.84,0.42,1.49V48.49z"/>
					<path class="st8" d="M139.68,46.24h-3.43c0.02,0.54,0.16,0.95,0.43,1.24c0.27,0.29,0.66,0.43,1.15,0.43
						c0.21,0,0.43-0.03,0.66-0.1s0.45-0.18,0.68-0.33l0.38,0.58c-0.28,0.19-0.57,0.32-0.85,0.41c-0.29,0.09-0.6,0.13-0.94,0.13
						c-0.74,0-1.31-0.22-1.72-0.66s-0.62-1.05-0.62-1.84c0-0.78,0.21-1.41,0.62-1.89s0.96-0.72,1.63-0.72
						c0.64,0,1.13,0.21,1.49,0.62c0.35,0.41,0.53,0.99,0.53,1.73V46.24z M138.85,45.59c0-0.45-0.11-0.8-0.32-1.04
						c-0.21-0.25-0.5-0.37-0.88-0.37c-0.37,0-0.67,0.13-0.93,0.38c-0.25,0.26-0.41,0.6-0.46,1.03H138.85z"/>
					<path class="st8" d="M144.39,48.18c-0.23,0.15-0.46,0.26-0.7,0.32c-0.23,0.07-0.48,0.1-0.75,0.1c-0.7,0-1.27-0.21-1.71-0.64
						s-0.66-1.03-0.66-1.8c0-0.8,0.22-1.44,0.67-1.93c0.45-0.49,1.06-0.73,1.84-0.73c0.25,0,0.49,0.03,0.72,0.09
						s0.45,0.16,0.68,0.29l-0.35,0.6c-0.18-0.11-0.35-0.18-0.52-0.23c-0.17-0.04-0.35-0.07-0.55-0.07c-0.53,0-0.94,0.18-1.22,0.53
						c-0.28,0.35-0.43,0.8-0.43,1.35c0,0.59,0.15,1.05,0.44,1.37c0.3,0.32,0.68,0.47,1.14,0.47c0.16,0,0.32-0.02,0.49-0.07
						c0.17-0.05,0.34-0.13,0.52-0.24L144.39,48.18z"/>
					<path class="st8" d="M149.47,46.24h-3.43c0.02,0.54,0.16,0.95,0.43,1.24c0.27,0.29,0.65,0.43,1.15,0.43
						c0.21,0,0.43-0.03,0.66-0.1s0.45-0.18,0.68-0.33l0.38,0.58c-0.28,0.19-0.56,0.32-0.85,0.41c-0.29,0.09-0.6,0.13-0.94,0.13
						c-0.74,0-1.31-0.22-1.72-0.66c-0.41-0.44-0.62-1.05-0.62-1.84c0-0.78,0.21-1.41,0.62-1.89c0.42-0.48,0.96-0.72,1.63-0.72
						c0.64,0,1.13,0.21,1.49,0.62c0.35,0.41,0.53,0.99,0.53,1.73V46.24z M148.64,45.59c0-0.45-0.11-0.8-0.32-1.04
						c-0.21-0.25-0.5-0.37-0.88-0.37c-0.37,0-0.67,0.13-0.93,0.38c-0.25,0.26-0.41,0.6-0.46,1.03H148.64z"/>
					<path class="st8" d="M15.05,55.03l-1.93,4.87h-0.83l-1.84-4.87h0.91l1.21,3.51c0.04,0.13,0.08,0.26,0.11,0.37
						c0.03,0.12,0.05,0.22,0.06,0.32h0.02c0.02-0.12,0.04-0.24,0.06-0.35c0.02-0.11,0.06-0.22,0.09-0.32l1.27-3.53H15.05z"/>
					<path class="st8" d="M19.45,59.9h-0.82v-0.77h-0.02c-0.17,0.29-0.37,0.51-0.62,0.66c-0.25,0.15-0.54,0.22-0.86,0.22
						c-0.46,0-0.83-0.13-1.11-0.4c-0.28-0.27-0.42-0.62-0.42-1.05c0-0.42,0.14-0.77,0.43-1.04c0.28-0.27,0.69-0.45,1.23-0.52
						l1.38-0.19V56.7c0-0.39-0.09-0.68-0.28-0.85c-0.19-0.17-0.44-0.26-0.75-0.26c-0.25,0-0.5,0.05-0.73,0.14
						c-0.24,0.1-0.46,0.24-0.68,0.43l-0.45-0.5c0.28-0.25,0.57-0.44,0.88-0.56c0.31-0.12,0.66-0.18,1.03-0.18
						c0.59,0,1.04,0.15,1.34,0.46s0.45,0.77,0.45,1.38V59.9z M18.63,57.91v-0.47l-1.16,0.16c-0.36,0.05-0.62,0.14-0.8,0.27
						c-0.18,0.13-0.26,0.33-0.26,0.61c0,0.28,0.08,0.49,0.25,0.64c0.17,0.15,0.37,0.23,0.62,0.23c0.41,0,0.74-0.14,0.98-0.41
						C18.51,58.67,18.63,58.33,18.63,57.91z"/>
					<path class="st8" d="M24.43,55.29l-2.85,3.92h2.82v0.69h-4.03v-0.27l2.87-3.91h-2.6v-0.69h3.79V55.29z"/>
					<path class="st8" d="M25.91,54c-0.16,0-0.3-0.05-0.41-0.16s-0.16-0.24-0.16-0.39c0-0.16,0.05-0.29,0.16-0.4
						c0.11-0.11,0.24-0.16,0.41-0.16s0.3,0.05,0.41,0.16c0.11,0.11,0.16,0.24,0.16,0.4c0,0.15-0.05,0.29-0.16,0.39
						S26.08,54,25.91,54z M26.32,59.9h-0.83v-4.87h0.83V59.9z"/>
					<path class="st8" d="M31.49,59.9h-0.82v-0.77h-0.02c-0.17,0.29-0.37,0.51-0.62,0.66c-0.25,0.15-0.54,0.22-0.86,0.22
						c-0.46,0-0.83-0.13-1.11-0.4s-0.42-0.62-0.42-1.05c0-0.42,0.14-0.77,0.43-1.04c0.28-0.27,0.69-0.45,1.23-0.52l1.38-0.19V56.7
						c0-0.39-0.09-0.68-0.28-0.85c-0.19-0.17-0.44-0.26-0.75-0.26c-0.25,0-0.5,0.05-0.73,0.14c-0.24,0.1-0.46,0.24-0.68,0.43
						l-0.45-0.5c0.28-0.25,0.57-0.44,0.88-0.56c0.31-0.12,0.66-0.18,1.03-0.18c0.59,0,1.04,0.15,1.34,0.46s0.45,0.77,0.45,1.38V59.9
						z M30.67,57.91v-0.47l-1.16,0.16c-0.36,0.05-0.62,0.14-0.8,0.27c-0.18,0.13-0.26,0.33-0.26,0.61c0,0.28,0.08,0.49,0.25,0.64
						c0.17,0.15,0.37,0.23,0.62,0.23c0.41,0,0.74-0.14,0.98-0.41C30.55,58.67,30.67,58.33,30.67,57.91z"/>
					<path class="st8" d="M37.69,60.02c-0.73,0-1.31-0.23-1.74-0.69c-0.43-0.46-0.65-1.06-0.65-1.82c0-0.81,0.22-1.45,0.67-1.91
						s1.05-0.69,1.83-0.69c0.73,0,1.3,0.22,1.72,0.67c0.41,0.45,0.62,1.07,0.62,1.85c0,0.78-0.22,1.41-0.66,1.88
						S38.43,60.02,37.69,60.02z M37.75,59.33c0.5,0,0.88-0.16,1.14-0.49s0.4-0.78,0.4-1.38c0-0.6-0.13-1.06-0.4-1.38
						c-0.27-0.32-0.65-0.48-1.14-0.48s-0.88,0.17-1.17,0.5s-0.43,0.8-0.43,1.39c0,0.57,0.14,1.02,0.43,1.35
						C36.87,59.17,37.26,59.33,37.75,59.33z"/>
					<path class="st8" d="M45.41,59.9h-0.83v-0.78h-0.02c-0.16,0.3-0.37,0.52-0.62,0.67c-0.25,0.15-0.55,0.22-0.88,0.22
						c-0.58,0-1.01-0.17-1.3-0.52c-0.29-0.35-0.43-0.87-0.43-1.56v-2.91h0.83v2.79c0,0.5,0.1,0.88,0.29,1.13
						c0.19,0.25,0.48,0.38,0.87,0.38c0.37,0,0.68-0.14,0.92-0.41c0.24-0.28,0.36-0.64,0.36-1.09v-2.8h0.83V59.9z"/>
					<path class="st8" d="M50.04,54c-0.16,0-0.3-0.05-0.41-0.16s-0.16-0.24-0.16-0.39c0-0.16,0.05-0.29,0.16-0.4
						c0.11-0.11,0.24-0.16,0.41-0.16s0.3,0.05,0.41,0.16c0.11,0.11,0.16,0.24,0.16,0.4c0,0.15-0.05,0.29-0.16,0.39S50.2,54,50.04,54
						z M50.44,59.9h-0.83v-4.87h0.83V59.9z"/>
					<path class="st8" d="M56.19,59.9h-0.83v-2.78c0-0.51-0.09-0.89-0.28-1.14c-0.19-0.25-0.46-0.38-0.83-0.38
						c-0.38,0-0.7,0.14-0.95,0.43s-0.38,0.65-0.38,1.09v2.78H52.1v-4.87h0.83v0.81h0.02c0.18-0.31,0.41-0.54,0.67-0.69
						c0.27-0.15,0.57-0.23,0.92-0.23c0.53,0,0.94,0.17,1.22,0.52s0.42,0.84,0.42,1.49V59.9z"/>
					<path class="st8" d="M61.18,59.59c-0.23,0.15-0.46,0.26-0.7,0.32c-0.23,0.07-0.48,0.1-0.75,0.1c-0.7,0-1.27-0.21-1.7-0.64
						c-0.44-0.43-0.66-1.03-0.66-1.8c0-0.8,0.22-1.44,0.67-1.93c0.45-0.49,1.06-0.73,1.84-0.73c0.25,0,0.49,0.03,0.72,0.09
						s0.45,0.16,0.68,0.29l-0.35,0.6c-0.18-0.11-0.35-0.18-0.52-0.23c-0.17-0.04-0.35-0.07-0.55-0.07c-0.53,0-0.94,0.18-1.22,0.53
						c-0.28,0.35-0.43,0.8-0.43,1.35c0,0.59,0.15,1.05,0.44,1.37c0.3,0.32,0.68,0.47,1.14,0.47c0.16,0,0.32-0.02,0.49-0.07
						c0.17-0.05,0.34-0.13,0.52-0.24L61.18,59.59z"/>
					<path class="st8" d="M64.38,60.02c-0.73,0-1.31-0.23-1.74-0.69c-0.43-0.46-0.65-1.06-0.65-1.82c0-0.81,0.22-1.45,0.67-1.91
						s1.05-0.69,1.83-0.69c0.73,0,1.3,0.22,1.72,0.67c0.41,0.45,0.62,1.07,0.62,1.85c0,0.78-0.22,1.41-0.66,1.88
						S65.12,60.02,64.38,60.02z M64.43,59.33c0.5,0,0.88-0.16,1.14-0.49s0.4-0.78,0.4-1.38c0-0.6-0.13-1.06-0.4-1.38
						c-0.27-0.32-0.65-0.48-1.14-0.48c-0.49,0-0.88,0.17-1.17,0.5s-0.43,0.8-0.43,1.39c0,0.57,0.14,1.02,0.43,1.35
						C63.56,59.17,63.94,59.33,64.43,59.33z"/>
					<path class="st8" d="M75.08,59.9h-0.83v-2.8c0-0.53-0.08-0.91-0.25-1.15s-0.44-0.35-0.82-0.35c-0.33,0-0.61,0.15-0.83,0.45
						C72.12,56.34,72,56.7,72,57.12v2.78h-0.83v-2.89c0-0.47-0.09-0.82-0.27-1.06s-0.45-0.35-0.82-0.35c-0.34,0-0.62,0.14-0.83,0.42
						c-0.22,0.28-0.33,0.65-0.33,1.11v2.77H68.1v-4.87h0.83v0.77h0.02c0.17-0.29,0.39-0.52,0.64-0.66c0.25-0.15,0.55-0.22,0.88-0.22
						c0.33,0,0.62,0.09,0.87,0.27s0.42,0.43,0.51,0.73c0.18-0.33,0.4-0.59,0.68-0.75s0.58-0.25,0.94-0.25c0.54,0,0.94,0.17,1.21,0.5
						s0.4,0.83,0.4,1.49V59.9z"/>
					<path class="st8" d="M77.43,59.2h-0.02v2.89h-0.83v-7.06h0.83v0.85h0.02c0.19-0.32,0.43-0.56,0.71-0.72s0.6-0.24,0.97-0.24
						c0.63,0,1.12,0.22,1.47,0.66s0.53,1.02,0.53,1.76c0,0.81-0.2,1.47-0.6,1.96c-0.4,0.49-0.94,0.74-1.62,0.74
						c-0.32,0-0.6-0.07-0.84-0.2C77.8,59.68,77.6,59.47,77.43,59.2z M77.4,57.24v0.65c0,0.4,0.13,0.74,0.39,1.02
						c0.26,0.28,0.59,0.42,0.98,0.42c0.46,0,0.82-0.18,1.09-0.53c0.26-0.36,0.39-0.85,0.39-1.49c0-0.54-0.12-0.95-0.37-1.26
						c-0.24-0.3-0.58-0.45-1-0.45c-0.45,0-0.81,0.16-1.08,0.47C77.54,56.38,77.4,56.77,77.4,57.24z"/>
					<path class="st8" d="M82.39,59.9v-7.04h0.83v7.04H82.39z"/>
					<path class="st8" d="M88.77,57.65h-3.43c0.02,0.54,0.16,0.95,0.43,1.24c0.27,0.29,0.65,0.43,1.15,0.43
						c0.21,0,0.43-0.03,0.66-0.1s0.45-0.18,0.68-0.33l0.38,0.58c-0.28,0.19-0.56,0.32-0.85,0.41c-0.29,0.09-0.6,0.13-0.94,0.13
						c-0.74,0-1.31-0.22-1.72-0.66c-0.41-0.44-0.62-1.05-0.62-1.84c0-0.78,0.21-1.41,0.62-1.89c0.42-0.48,0.96-0.72,1.63-0.72
						c0.64,0,1.13,0.21,1.49,0.62c0.35,0.41,0.53,0.99,0.53,1.73V57.65z M87.94,57c0-0.45-0.11-0.8-0.32-1.04
						c-0.21-0.25-0.5-0.37-0.88-0.37c-0.37,0-0.67,0.13-0.93,0.38c-0.25,0.26-0.41,0.6-0.46,1.03H87.94z"/>
					<path class="st8" d="M92.38,59.84c-0.13,0.06-0.27,0.1-0.4,0.12C91.85,59.99,91.71,60,91.54,60c-0.4,0-0.71-0.12-0.94-0.34
						c-0.22-0.23-0.34-0.57-0.34-1.02v-2.93h-0.83v-0.69h0.83v-1.11l0.83-0.26v1.38h1.22v0.69H91.1v2.83c0,0.28,0.05,0.47,0.15,0.6
						c0.1,0.12,0.25,0.18,0.45,0.18c0.09,0,0.18-0.01,0.27-0.03c0.09-0.02,0.16-0.05,0.22-0.08L92.38,59.84z"/>
					<path class="st8" d="M96.93,59.9H96.1v-0.77h-0.02c-0.17,0.29-0.37,0.51-0.62,0.66c-0.25,0.15-0.54,0.22-0.87,0.22
						c-0.46,0-0.83-0.13-1.11-0.4s-0.42-0.62-0.42-1.05c0-0.42,0.14-0.77,0.43-1.04c0.28-0.27,0.69-0.45,1.23-0.52l1.38-0.19V56.7
						c0-0.39-0.09-0.68-0.28-0.85c-0.19-0.17-0.44-0.26-0.75-0.26c-0.25,0-0.5,0.05-0.73,0.14c-0.24,0.1-0.46,0.24-0.68,0.43
						l-0.45-0.5c0.28-0.25,0.57-0.44,0.88-0.56c0.31-0.12,0.66-0.18,1.03-0.18c0.59,0,1.04,0.15,1.34,0.46
						c0.3,0.31,0.45,0.77,0.45,1.38V59.9z M96.11,57.91v-0.47l-1.16,0.16c-0.36,0.05-0.62,0.14-0.8,0.27
						c-0.18,0.13-0.27,0.33-0.27,0.61c0,0.28,0.08,0.49,0.25,0.64c0.17,0.15,0.37,0.23,0.62,0.23c0.41,0,0.74-0.14,0.98-0.41
						C95.98,58.67,96.11,58.33,96.11,57.91z"/>
					<path class="st8" d="M99.21,58.83l-0.73,2.29h-0.6l0.54-2.29H99.21z"/>
					<path class="st8" d="M106.77,59.9h-0.82v-0.77h-0.02c-0.17,0.29-0.37,0.51-0.62,0.66c-0.25,0.15-0.54,0.22-0.87,0.22
						c-0.46,0-0.83-0.13-1.11-0.4s-0.42-0.62-0.42-1.05c0-0.42,0.14-0.77,0.43-1.04c0.28-0.27,0.69-0.45,1.23-0.52l1.38-0.19V56.7
						c0-0.39-0.09-0.68-0.28-0.85c-0.19-0.17-0.44-0.26-0.75-0.26c-0.25,0-0.5,0.05-0.73,0.14c-0.24,0.1-0.46,0.24-0.68,0.43
						l-0.45-0.5c0.28-0.25,0.57-0.44,0.88-0.56c0.31-0.12,0.66-0.18,1.03-0.18c0.59,0,1.04,0.15,1.34,0.46
						c0.3,0.31,0.45,0.77,0.45,1.38V59.9z M105.95,57.91v-0.47l-1.16,0.16c-0.36,0.05-0.62,0.14-0.8,0.27
						c-0.18,0.13-0.27,0.33-0.27,0.61c0,0.28,0.08,0.49,0.25,0.64c0.17,0.15,0.37,0.23,0.62,0.23c0.41,0,0.74-0.14,0.98-0.41
						C105.83,58.67,105.95,58.33,105.95,57.91z"/>
					<path class="st8" d="M112.51,59.55c0,0.86-0.22,1.5-0.66,1.94s-1.05,0.65-1.84,0.65c-0.34,0-0.65-0.03-0.94-0.1
						c-0.29-0.07-0.58-0.17-0.87-0.31l0.3-0.63c0.25,0.12,0.5,0.21,0.74,0.26c0.24,0.05,0.5,0.08,0.77,0.08
						c0.53,0,0.94-0.15,1.23-0.45c0.3-0.3,0.45-0.75,0.45-1.34v-0.57h-0.02c-0.18,0.31-0.41,0.54-0.69,0.7
						c-0.28,0.16-0.6,0.23-0.97,0.23c-0.61,0-1.1-0.22-1.47-0.65c-0.37-0.44-0.56-1.02-0.56-1.75c0-0.8,0.2-1.45,0.61-1.95
						s0.95-0.75,1.62-0.75c0.33,0,0.61,0.07,0.85,0.2c0.24,0.13,0.44,0.33,0.6,0.59h0.02v-0.67h0.83V59.55z M111.68,57.69v-0.7
						c0-0.38-0.13-0.71-0.38-0.98c-0.25-0.27-0.57-0.41-0.96-0.41c-0.47,0-0.84,0.16-1.11,0.49s-0.4,0.82-0.4,1.47
						c0,0.56,0.12,1,0.38,1.3c0.25,0.31,0.59,0.46,1.03,0.46c0.43,0,0.78-0.15,1.05-0.46S111.68,58.17,111.68,57.69z"/>
					<path class="st8" d="M118.11,59.9h-0.83v-0.78h-0.02c-0.16,0.3-0.37,0.52-0.62,0.67c-0.25,0.15-0.55,0.22-0.88,0.22
						c-0.58,0-1.01-0.17-1.3-0.52c-0.29-0.35-0.43-0.87-0.43-1.56v-2.91h0.83v2.79c0,0.5,0.1,0.88,0.29,1.13
						c0.19,0.25,0.48,0.38,0.87,0.38c0.37,0,0.68-0.14,0.92-0.41c0.24-0.28,0.36-0.64,0.36-1.09v-2.8h0.83V59.9z"/>
					<path class="st8" d="M123.22,59.9h-0.82v-0.77h-0.02c-0.17,0.29-0.37,0.51-0.62,0.66c-0.25,0.15-0.54,0.22-0.87,0.22
						c-0.46,0-0.83-0.13-1.11-0.4s-0.42-0.62-0.42-1.05c0-0.42,0.14-0.77,0.43-1.04c0.28-0.27,0.69-0.45,1.23-0.52l1.38-0.19V56.7
						c0-0.39-0.09-0.68-0.28-0.85c-0.19-0.17-0.44-0.26-0.75-0.26c-0.25,0-0.5,0.05-0.73,0.14c-0.24,0.1-0.46,0.24-0.68,0.43
						l-0.45-0.5c0.28-0.25,0.57-0.44,0.88-0.56c0.31-0.12,0.66-0.18,1.03-0.18c0.59,0,1.04,0.15,1.34,0.46
						c0.3,0.31,0.45,0.77,0.45,1.38V59.9z M122.4,57.91v-0.47l-1.16,0.16c-0.36,0.05-0.62,0.14-0.8,0.27
						c-0.18,0.13-0.27,0.33-0.27,0.61c0,0.28,0.08,0.49,0.25,0.64c0.17,0.15,0.37,0.23,0.62,0.23c0.41,0,0.74-0.14,0.98-0.41
						C122.27,58.67,122.4,58.33,122.4,57.91z"/>
					<path class="st8" d="M127.2,55.73c-0.06-0.02-0.12-0.03-0.17-0.04c-0.05-0.01-0.12-0.01-0.19-0.01c-0.39,0-0.7,0.17-0.93,0.5
						c-0.23,0.33-0.34,0.75-0.34,1.26v2.46h-0.83v-4.87h0.83v0.97h0.02c0.11-0.34,0.28-0.6,0.51-0.78s0.49-0.27,0.79-0.27
						c0.1,0,0.18,0,0.25,0.01c0.07,0.01,0.13,0.02,0.19,0.04L127.2,55.73z"/>
					<path class="st8" d="M131.61,59.08c-0.18,0.31-0.41,0.54-0.68,0.7c-0.28,0.16-0.6,0.23-0.98,0.23c-0.61,0-1.1-0.22-1.47-0.66
						c-0.37-0.44-0.55-1.03-0.55-1.78c0-0.81,0.2-1.45,0.61-1.94c0.41-0.49,0.95-0.73,1.62-0.73c0.33,0,0.62,0.07,0.86,0.2
						s0.44,0.33,0.59,0.59h0.02v-2.84h0.83v7.04h-0.83v-0.82H131.61z M128.77,57.54c0,0.56,0.13,1,0.39,1.31
						c0.26,0.32,0.6,0.48,1.03,0.48c0.43,0,0.78-0.15,1.04-0.46c0.26-0.31,0.39-0.7,0.39-1.17v-0.7c0-0.39-0.13-0.72-0.38-0.99
						c-0.26-0.27-0.58-0.4-0.97-0.4c-0.47,0-0.84,0.17-1.1,0.52S128.77,56.93,128.77,57.54z"/>
					<path class="st8" d="M137.57,59.9h-0.82v-0.77h-0.02c-0.17,0.29-0.38,0.51-0.62,0.66c-0.25,0.15-0.54,0.22-0.86,0.22
						c-0.46,0-0.83-0.13-1.11-0.4s-0.42-0.62-0.42-1.05c0-0.42,0.14-0.77,0.43-1.04s0.7-0.45,1.23-0.52l1.38-0.19V56.7
						c0-0.39-0.09-0.68-0.28-0.85c-0.19-0.17-0.44-0.26-0.75-0.26c-0.25,0-0.5,0.05-0.73,0.14c-0.24,0.1-0.46,0.24-0.68,0.43
						l-0.45-0.5c0.28-0.25,0.57-0.44,0.88-0.56s0.66-0.18,1.03-0.18c0.59,0,1.04,0.15,1.34,0.46c0.3,0.31,0.45,0.77,0.45,1.38V59.9z
						 M136.75,57.91v-0.47l-1.16,0.16c-0.36,0.05-0.62,0.14-0.8,0.27c-0.18,0.13-0.26,0.33-0.26,0.61c0,0.28,0.08,0.49,0.25,0.64
						c0.17,0.15,0.37,0.23,0.62,0.23c0.41,0,0.74-0.14,0.99-0.41C136.62,58.67,136.75,58.33,136.75,57.91z"/>
					<path class="st8" d="M143.19,59.9h-0.83v-2.78c0-0.51-0.09-0.89-0.28-1.14c-0.19-0.25-0.46-0.38-0.83-0.38
						c-0.38,0-0.7,0.14-0.95,0.43c-0.25,0.29-0.38,0.65-0.38,1.09v2.78h-0.83v-4.87h0.83v0.81h0.02c0.18-0.31,0.41-0.54,0.67-0.69
						c0.27-0.15,0.57-0.23,0.92-0.23c0.53,0,0.94,0.17,1.22,0.52s0.42,0.84,0.42,1.49V59.9z"/>
					<path class="st8" d="M148.05,59.08c-0.18,0.31-0.41,0.54-0.68,0.7c-0.28,0.16-0.6,0.23-0.98,0.23c-0.61,0-1.1-0.22-1.47-0.66
						c-0.37-0.44-0.55-1.03-0.55-1.78c0-0.81,0.2-1.45,0.61-1.94c0.41-0.49,0.95-0.73,1.62-0.73c0.33,0,0.62,0.07,0.86,0.2
						s0.44,0.33,0.59,0.59h0.02v-2.84h0.83v7.04h-0.83v-0.82H148.05z M145.22,57.54c0,0.56,0.13,1,0.39,1.31
						c0.26,0.32,0.6,0.48,1.03,0.48c0.43,0,0.78-0.15,1.04-0.46c0.26-0.31,0.39-0.7,0.39-1.17v-0.7c0-0.39-0.13-0.72-0.38-0.99
						c-0.26-0.27-0.58-0.4-0.97-0.4c-0.47,0-0.84,0.17-1.1,0.52S145.22,56.93,145.22,57.54z"/>
					<path class="st8" d="M152.57,60.02c-0.73,0-1.31-0.23-1.74-0.69c-0.43-0.46-0.65-1.06-0.65-1.82c0-0.81,0.22-1.45,0.67-1.91
						c0.45-0.46,1.05-0.69,1.83-0.69c0.73,0,1.3,0.22,1.71,0.67c0.41,0.45,0.62,1.07,0.62,1.85c0,0.78-0.22,1.41-0.66,1.88
						C153.91,59.78,153.31,60.02,152.57,60.02z M152.63,59.33c0.5,0,0.88-0.16,1.14-0.49c0.27-0.32,0.4-0.78,0.4-1.38
						c0-0.6-0.13-1.06-0.4-1.38c-0.27-0.32-0.65-0.48-1.14-0.48s-0.88,0.17-1.17,0.5s-0.43,0.8-0.43,1.39
						c0,0.57,0.14,1.02,0.43,1.35C151.75,59.17,152.14,59.33,152.63,59.33z"/>
					<path class="st8" d="M28.96,70.5c-0.18,0.31-0.41,0.54-0.69,0.7c-0.28,0.16-0.6,0.23-0.98,0.23c-0.61,0-1.1-0.22-1.47-0.66
						c-0.37-0.44-0.55-1.03-0.55-1.78c0-0.81,0.2-1.45,0.61-1.94c0.41-0.49,0.95-0.73,1.62-0.73c0.33,0,0.62,0.07,0.86,0.2
						c0.24,0.13,0.44,0.33,0.59,0.59h0.02v-2.84h0.83v7.04h-0.83V70.5H28.96z M26.12,68.95c0,0.56,0.13,1,0.39,1.31
						c0.26,0.32,0.6,0.48,1.03,0.48c0.43,0,0.78-0.15,1.04-0.46c0.26-0.31,0.4-0.7,0.4-1.17v-0.7c0-0.39-0.13-0.72-0.38-0.99
						s-0.58-0.4-0.97-0.4c-0.47,0-0.84,0.17-1.1,0.52C26.25,67.87,26.12,68.35,26.12,68.95z"/>
					<path class="st8" d="M35.36,69.07h-3.43c0.02,0.54,0.16,0.95,0.43,1.24c0.27,0.29,0.65,0.43,1.15,0.43
						c0.21,0,0.43-0.03,0.66-0.1s0.45-0.18,0.68-0.33l0.38,0.58c-0.28,0.19-0.56,0.32-0.85,0.41c-0.29,0.09-0.6,0.13-0.94,0.13
						c-0.74,0-1.31-0.22-1.72-0.66c-0.41-0.44-0.62-1.05-0.62-1.84c0-0.78,0.21-1.41,0.62-1.89c0.42-0.48,0.96-0.72,1.63-0.72
						c0.64,0,1.13,0.21,1.49,0.62c0.35,0.41,0.53,0.99,0.53,1.73V69.07z M34.53,68.42c0-0.45-0.11-0.8-0.32-1.04
						C34,67.12,33.7,67,33.33,67c-0.37,0-0.67,0.13-0.93,0.38c-0.25,0.26-0.41,0.6-0.46,1.03H34.53z"/>
					<path class="st8" d="M36.15,70.95l0.39-0.62c0.2,0.14,0.41,0.24,0.61,0.31c0.2,0.07,0.42,0.11,0.66,0.11
						c0.33,0,0.57-0.06,0.74-0.18c0.17-0.12,0.26-0.3,0.26-0.54c0-0.2-0.07-0.36-0.23-0.49c-0.15-0.13-0.39-0.24-0.71-0.32
						c-0.6-0.15-1.02-0.35-1.24-0.58c-0.23-0.24-0.34-0.53-0.34-0.88c0-0.41,0.16-0.75,0.47-1.02s0.74-0.4,1.27-0.4
						c0.26,0,0.51,0.03,0.74,0.1c0.23,0.07,0.47,0.18,0.71,0.33l-0.36,0.61c-0.22-0.14-0.41-0.23-0.58-0.29
						C38.37,67.03,38.19,67,38.01,67c-0.31,0-0.54,0.06-0.71,0.17c-0.16,0.11-0.25,0.28-0.25,0.5c0,0.21,0.08,0.37,0.24,0.48
						c0.16,0.11,0.43,0.21,0.8,0.31c0.5,0.13,0.87,0.32,1.12,0.55c0.25,0.24,0.37,0.55,0.37,0.95c0,0.45-0.16,0.81-0.49,1.07
						c-0.32,0.26-0.76,0.4-1.32,0.4c-0.3,0-0.59-0.04-0.87-0.12C36.64,71.22,36.39,71.11,36.15,70.95z"/>
					<path class="st8" d="M44.75,69.07h-3.43c0.02,0.54,0.16,0.95,0.43,1.24c0.27,0.29,0.65,0.43,1.15,0.43
						c0.21,0,0.43-0.03,0.66-0.1s0.45-0.18,0.68-0.33l0.38,0.58c-0.28,0.19-0.56,0.32-0.85,0.41c-0.29,0.09-0.6,0.13-0.94,0.13
						c-0.74,0-1.31-0.22-1.72-0.66c-0.41-0.44-0.62-1.05-0.62-1.84c0-0.78,0.21-1.41,0.62-1.89c0.42-0.48,0.96-0.72,1.63-0.72
						c0.64,0,1.13,0.21,1.49,0.62c0.35,0.41,0.53,0.99,0.53,1.73V69.07z M43.92,68.42c0-0.45-0.11-0.8-0.32-1.04
						c-0.21-0.25-0.5-0.37-0.88-0.37c-0.37,0-0.67,0.13-0.93,0.38c-0.25,0.26-0.41,0.6-0.46,1.03H43.92z"/>
					<path class="st8" d="M50.06,71.31h-0.83v-2.78c0-0.51-0.09-0.89-0.28-1.14c-0.19-0.25-0.46-0.38-0.83-0.38
						c-0.38,0-0.7,0.14-0.95,0.43s-0.38,0.65-0.38,1.09v2.78h-0.83v-4.87h0.83v0.81h0.02c0.18-0.31,0.41-0.54,0.67-0.69
						c0.27-0.15,0.57-0.23,0.92-0.23c0.53,0,0.94,0.17,1.22,0.52s0.42,0.84,0.42,1.49V71.31z"/>
					<path class="st8" d="M55.47,66.44l-1.93,4.87h-0.83l-1.84-4.87h0.91l1.21,3.51c0.04,0.13,0.08,0.26,0.11,0.37
						c0.03,0.12,0.05,0.22,0.06,0.32h0.02c0.02-0.12,0.04-0.24,0.06-0.35c0.02-0.11,0.06-0.22,0.09-0.32l1.27-3.53H55.47z"/>
					<path class="st8" d="M58.43,71.43c-0.73,0-1.31-0.23-1.74-0.69c-0.43-0.46-0.65-1.06-0.65-1.82c0-0.81,0.22-1.45,0.67-1.91
						s1.05-0.69,1.83-0.69c0.73,0,1.3,0.22,1.72,0.67c0.41,0.45,0.62,1.07,0.62,1.85c0,0.78-0.22,1.41-0.66,1.88
						S59.17,71.43,58.43,71.43z M58.49,70.74c0.5,0,0.88-0.16,1.14-0.49s0.4-0.78,0.4-1.38c0-0.6-0.13-1.06-0.4-1.38
						c-0.27-0.32-0.65-0.48-1.14-0.48s-0.88,0.17-1.17,0.5s-0.43,0.8-0.43,1.39c0,0.57,0.14,1.02,0.43,1.35
						C57.61,70.58,58,70.74,58.49,70.74z"/>
					<path class="st8" d="M62.16,71.31v-7.04h0.83v7.04H62.16z"/>
					<path class="st8" d="M68.49,66.44l-1.93,4.87h-0.83l-1.84-4.87h0.91l1.21,3.51c0.04,0.13,0.08,0.26,0.11,0.37
						c0.03,0.12,0.05,0.22,0.06,0.32h0.02c0.02-0.12,0.04-0.24,0.06-0.35c0.02-0.11,0.06-0.22,0.09-0.32l1.27-3.53H68.49z"/>
					<path class="st8" d="M69.81,65.41c-0.16,0-0.3-0.05-0.41-0.16s-0.16-0.24-0.16-0.39c0-0.16,0.05-0.29,0.16-0.4
						c0.11-0.11,0.24-0.16,0.41-0.16s0.3,0.05,0.41,0.16c0.11,0.11,0.16,0.24,0.16,0.4c0,0.15-0.05,0.29-0.16,0.39
						S69.97,65.41,69.81,65.41z M70.21,71.31h-0.83v-4.87h0.83V71.31z"/>
					<path class="st8" d="M78.85,71.31h-0.83v-2.8c0-0.53-0.08-0.91-0.25-1.15s-0.44-0.35-0.82-0.35c-0.33,0-0.61,0.15-0.83,0.45
						c-0.23,0.3-0.34,0.66-0.34,1.08v2.78h-0.83v-2.89c0-0.47-0.09-0.82-0.27-1.06s-0.45-0.35-0.82-0.35
						c-0.34,0-0.62,0.14-0.83,0.42c-0.22,0.28-0.33,0.65-0.33,1.11v2.77h-0.83v-4.87h0.83v0.77h0.02c0.17-0.29,0.39-0.52,0.64-0.66
						c0.25-0.15,0.55-0.22,0.88-0.22c0.33,0,0.62,0.09,0.87,0.27s0.42,0.43,0.51,0.73c0.18-0.33,0.4-0.59,0.68-0.75
						s0.58-0.25,0.94-0.25c0.54,0,0.94,0.17,1.21,0.5s0.4,0.83,0.4,1.49V71.31z"/>
					<path class="st8" d="M84.31,69.07h-3.43c0.02,0.54,0.16,0.95,0.43,1.24c0.27,0.29,0.65,0.43,1.15,0.43
						c0.21,0,0.43-0.03,0.66-0.1s0.45-0.18,0.68-0.33l0.38,0.58c-0.28,0.19-0.56,0.32-0.85,0.41c-0.29,0.09-0.6,0.13-0.94,0.13
						c-0.74,0-1.31-0.22-1.72-0.66c-0.41-0.44-0.62-1.05-0.62-1.84c0-0.78,0.21-1.41,0.62-1.89c0.42-0.48,0.96-0.72,1.63-0.72
						c0.64,0,1.13,0.21,1.49,0.62c0.35,0.41,0.53,0.99,0.53,1.73V69.07z M83.48,68.42c0-0.45-0.11-0.8-0.32-1.04
						c-0.21-0.25-0.5-0.37-0.88-0.37c-0.37,0-0.67,0.13-0.93,0.38c-0.25,0.26-0.41,0.6-0.46,1.03H83.48z"/>
					<path class="st8" d="M89.62,71.31h-0.83v-2.78c0-0.51-0.09-0.89-0.28-1.14s-0.46-0.38-0.83-0.38c-0.38,0-0.7,0.14-0.95,0.43
						s-0.38,0.65-0.38,1.09v2.78h-0.83v-4.87h0.83v0.81h0.02c0.18-0.31,0.41-0.54,0.67-0.69c0.27-0.15,0.57-0.23,0.92-0.23
						c0.53,0,0.94,0.17,1.22,0.52c0.28,0.34,0.42,0.84,0.42,1.49V71.31z"/>
					<path class="st8" d="M93.51,71.25c-0.13,0.06-0.27,0.1-0.4,0.12s-0.28,0.04-0.44,0.04c-0.4,0-0.71-0.12-0.94-0.34
						c-0.22-0.23-0.34-0.57-0.34-1.02v-2.93h-0.83v-0.69h0.83v-1.11l0.83-0.26v1.38h1.22v0.69h-1.22v2.83c0,0.28,0.05,0.47,0.15,0.6
						c0.1,0.12,0.25,0.18,0.45,0.18c0.09,0,0.18-0.01,0.27-0.03c0.09-0.02,0.16-0.05,0.22-0.08L93.51,71.25z"/>
					<path class="st8" d="M96.61,71.43c-0.73,0-1.31-0.23-1.74-0.69c-0.43-0.46-0.65-1.06-0.65-1.82c0-0.81,0.22-1.45,0.67-1.91
						c0.45-0.46,1.05-0.69,1.83-0.69c0.73,0,1.3,0.22,1.71,0.67c0.41,0.45,0.62,1.07,0.62,1.85c0,0.78-0.22,1.41-0.66,1.88
						C97.95,71.2,97.35,71.43,96.61,71.43z M96.67,70.74c0.5,0,0.88-0.16,1.14-0.49c0.27-0.32,0.4-0.78,0.4-1.38
						c0-0.6-0.13-1.06-0.4-1.38c-0.27-0.32-0.65-0.48-1.14-0.48s-0.88,0.17-1.17,0.5s-0.43,0.8-0.43,1.39
						c0,0.57,0.14,1.02,0.43,1.35C95.79,70.58,96.18,70.74,96.67,70.74z"/>
					<path class="st8" d="M106.45,71.31h-0.82v-0.77h-0.02c-0.17,0.29-0.38,0.51-0.62,0.66c-0.25,0.15-0.54,0.22-0.86,0.22
						c-0.46,0-0.83-0.13-1.11-0.4c-0.28-0.27-0.42-0.62-0.42-1.05c0-0.42,0.14-0.77,0.43-1.04s0.7-0.45,1.23-0.52l1.38-0.19v-0.11
						c0-0.39-0.09-0.68-0.28-0.85c-0.19-0.17-0.44-0.26-0.75-0.26c-0.25,0-0.5,0.05-0.73,0.14c-0.24,0.1-0.46,0.24-0.68,0.43
						l-0.45-0.5c0.28-0.25,0.57-0.44,0.88-0.56s0.66-0.18,1.03-0.18c0.59,0,1.04,0.15,1.34,0.46s0.45,0.77,0.45,1.38V71.31z
						 M105.63,69.33v-0.47l-1.16,0.16c-0.36,0.05-0.62,0.14-0.8,0.27s-0.26,0.33-0.26,0.61c0,0.28,0.08,0.49,0.25,0.64
						c0.17,0.15,0.37,0.23,0.62,0.23c0.41,0,0.74-0.14,0.99-0.41C105.51,70.09,105.63,69.74,105.63,69.33z"/>
					<path class="st8" d="M111.34,70.5c-0.18,0.31-0.41,0.54-0.69,0.7s-0.6,0.23-0.98,0.23c-0.61,0-1.1-0.22-1.47-0.66
						s-0.55-1.03-0.55-1.78c0-0.81,0.2-1.45,0.61-1.94c0.41-0.49,0.95-0.73,1.62-0.73c0.33,0,0.62,0.07,0.86,0.2
						c0.24,0.13,0.44,0.33,0.59,0.59h0.02v-2.84h0.83v7.04h-0.83V70.5H111.34z M108.51,68.95c0,0.56,0.13,1,0.38,1.31
						c0.26,0.32,0.6,0.48,1.03,0.48c0.43,0,0.78-0.15,1.04-0.46c0.26-0.31,0.39-0.7,0.39-1.17v-0.7c0-0.39-0.13-0.72-0.38-0.99
						s-0.58-0.4-0.97-0.4c-0.47,0-0.83,0.17-1.1,0.52C108.64,67.87,108.51,68.35,108.51,68.95z"/>
					<path class="st8" d="M114.22,65.41c-0.16,0-0.3-0.05-0.41-0.16c-0.11-0.11-0.16-0.24-0.16-0.39c0-0.16,0.05-0.29,0.16-0.4
						c0.11-0.11,0.25-0.16,0.41-0.16s0.3,0.05,0.41,0.16c0.11,0.11,0.16,0.24,0.16,0.4c0,0.15-0.05,0.29-0.16,0.39
						S114.38,65.41,114.22,65.41z M114.62,71.31h-0.83v-4.87h0.83V71.31z"/>
					<path class="st8" d="M119.77,71.01c-0.23,0.15-0.46,0.26-0.7,0.32c-0.23,0.07-0.48,0.1-0.75,0.1c-0.7,0-1.27-0.21-1.71-0.64
						s-0.66-1.03-0.66-1.8c0-0.8,0.22-1.44,0.67-1.93c0.45-0.49,1.06-0.73,1.84-0.73c0.25,0,0.49,0.03,0.72,0.09
						c0.23,0.06,0.45,0.16,0.68,0.29l-0.35,0.6c-0.18-0.11-0.35-0.18-0.52-0.23c-0.17-0.04-0.35-0.07-0.55-0.07
						c-0.53,0-0.94,0.18-1.22,0.53s-0.43,0.8-0.43,1.35c0,0.59,0.15,1.05,0.44,1.37c0.3,0.32,0.68,0.47,1.14,0.47
						c0.16,0,0.32-0.02,0.49-0.07c0.17-0.05,0.34-0.13,0.52-0.24L119.77,71.01z"/>
					<path class="st8" d="M121.32,65.41c-0.16,0-0.3-0.05-0.41-0.16s-0.16-0.24-0.16-0.39c0-0.16,0.05-0.29,0.16-0.4
						c0.11-0.11,0.25-0.16,0.41-0.16s0.3,0.05,0.41,0.16c0.11,0.11,0.17,0.24,0.17,0.4c0,0.15-0.05,0.29-0.17,0.39
						C121.62,65.36,121.49,65.41,121.32,65.41z M121.73,71.31h-0.83v-4.87h0.83V71.31z"/>
					<path class="st8" d="M125.46,71.43c-0.73,0-1.31-0.23-1.74-0.69c-0.43-0.46-0.65-1.06-0.65-1.82c0-0.81,0.22-1.45,0.67-1.91
						c0.45-0.46,1.05-0.69,1.83-0.69c0.73,0,1.3,0.22,1.71,0.67c0.41,0.45,0.62,1.07,0.62,1.85c0,0.78-0.22,1.41-0.66,1.88
						C126.79,71.2,126.2,71.43,125.46,71.43z M125.51,70.74c0.5,0,0.88-0.16,1.14-0.49c0.27-0.32,0.4-0.78,0.4-1.38
						c0-0.6-0.13-1.06-0.4-1.38c-0.27-0.32-0.65-0.48-1.14-0.48s-0.88,0.17-1.17,0.5s-0.43,0.8-0.43,1.39
						c0,0.57,0.14,1.02,0.43,1.35C124.63,70.58,125.02,70.74,125.51,70.74z"/>
					<path class="st8" d="M133.27,71.31h-0.83v-2.78c0-0.51-0.09-0.89-0.28-1.14c-0.19-0.25-0.46-0.38-0.83-0.38
						c-0.38,0-0.7,0.14-0.95,0.43s-0.38,0.65-0.38,1.09v2.78h-0.83v-4.87h0.83v0.81h0.02c0.18-0.31,0.41-0.54,0.67-0.69
						c0.27-0.15,0.57-0.23,0.92-0.23c0.53,0,0.94,0.17,1.22,0.52c0.28,0.34,0.42,0.84,0.42,1.49V71.31z"/>
					<path class="st8" d="M138.28,71.31h-0.82v-0.77h-0.02c-0.17,0.29-0.38,0.51-0.62,0.66c-0.25,0.15-0.54,0.22-0.86,0.22
						c-0.46,0-0.83-0.13-1.11-0.4s-0.42-0.62-0.42-1.05c0-0.42,0.14-0.77,0.43-1.04s0.7-0.45,1.23-0.52l1.38-0.19v-0.11
						c0-0.39-0.09-0.68-0.28-0.85c-0.19-0.17-0.44-0.26-0.75-0.26c-0.25,0-0.5,0.05-0.73,0.14c-0.24,0.1-0.46,0.24-0.68,0.43
						l-0.45-0.5c0.28-0.25,0.57-0.44,0.88-0.56s0.66-0.18,1.03-0.18c0.59,0,1.04,0.15,1.34,0.46c0.3,0.31,0.45,0.77,0.45,1.38V71.31
						z M137.46,69.33v-0.47l-1.16,0.16c-0.36,0.05-0.62,0.14-0.8,0.27c-0.18,0.13-0.26,0.33-0.26,0.61c0,0.28,0.08,0.49,0.25,0.64
						c0.17,0.15,0.37,0.23,0.62,0.23c0.41,0,0.74-0.14,0.99-0.41C137.34,70.09,137.46,69.74,137.46,69.33z"/>
					<path class="st8" d="M139.81,71.31v-7.04h0.83v7.04H139.81z"/>
					<path class="st8" d="M142.55,71.42c-0.16,0-0.29-0.05-0.4-0.16s-0.17-0.24-0.17-0.39c0-0.15,0.06-0.28,0.17-0.39
						s0.25-0.16,0.4-0.16c0.16,0,0.29,0.05,0.4,0.16s0.17,0.24,0.17,0.39c0,0.15-0.06,0.28-0.17,0.39S142.7,71.42,142.55,71.42z"/>
				</g>
			</g>
		</g>
	</g>
</g>
</svg>
