<svg width="27" height="27" viewBox="0 0 27 27" fill="none" xmlns="http://www.w3.org/2000/svg">
<path opacity="0.15" d="M0 13.5C0 6.04416 6.04416 0 13.5 0C20.9558 0 27 6.04416 27 13.5C27 20.9558 20.9558 27 13.5 27C6.04416 27 0 20.9558 0 13.5Z" fill="#00CAFF"/>
<path d="M3.30688 13.4999C3.30688 7.87037 7.87049 3.30676 13.5 3.30676C19.1295 3.30676 23.6931 7.87037 23.6931 13.4999C23.6931 19.1294 19.1295 23.693 13.5 23.693C7.87049 23.693 3.30688 19.1294 3.30688 13.4999Z" fill="url(#paint0_linear_520_116)"/>
<g opacity="0.966">
<path fill-rule="evenodd" clip-rule="evenodd" d="M13.2461 7C13.4154 7 13.5846 7 13.7539 7C13.9006 7.03919 14.0445 7.0942 14.1855 7.16504C14.476 7.38015 14.7595 7.60443 15.0361 7.83789C15.4488 7.73739 15.8677 7.69085 16.293 7.69824C16.6865 7.76591 16.9954 7.96481 17.2197 8.29492C17.3735 8.63782 17.5174 8.98482 17.6514 9.33594C18.0042 9.47899 18.3555 9.62709 18.7051 9.78027C19.102 10.063 19.3051 10.4481 19.3145 10.9355C19.2842 11.2822 19.2334 11.625 19.1621 11.9639C19.3956 12.2405 19.6199 12.524 19.835 12.8145C19.9058 12.9555 19.9608 13.0994 20 13.2461C20 13.4154 20 13.5846 20 13.7539C19.9608 13.9006 19.9058 14.0445 19.835 14.1855C19.6199 14.476 19.3956 14.7595 19.1621 15.0361C19.2626 15.4488 19.3091 15.8677 19.3018 16.293C19.2341 16.6865 19.0352 16.9954 18.7051 17.2197C18.3622 17.3735 18.0152 17.5174 17.6641 17.6514C17.521 18.0042 17.3729 18.3555 17.2197 18.7051C16.937 19.102 16.5519 19.3051 16.0645 19.3145C15.7178 19.2842 15.375 19.2334 15.0361 19.1621C14.7595 19.3956 14.476 19.6199 14.1855 19.835C14.0445 19.9058 13.9006 19.9608 13.7539 20C13.5846 20 13.4154 20 13.2461 20C13.0994 19.9608 12.9555 19.9058 12.8145 19.835C12.524 19.6199 12.2405 19.3956 11.9639 19.1621C11.5512 19.2626 11.1323 19.3091 10.707 19.3018C10.3135 19.2341 10.0046 19.0352 9.78027 18.7051C9.62648 18.3622 9.4826 18.0152 9.34863 17.6641C8.99576 17.521 8.64452 17.3729 8.29492 17.2197C7.89802 16.937 7.69489 16.5519 7.68555 16.0645C7.71584 15.7178 7.76662 15.375 7.83789 15.0361C7.60443 14.7595 7.38015 14.476 7.16504 14.1855C7.0942 14.0445 7.03919 13.9006 7 13.7539C7 13.5846 7 13.4154 7 13.2461C7.03919 13.0994 7.0942 12.9555 7.16504 12.8145C7.38015 12.524 7.60443 12.2405 7.83789 11.9639C7.73739 11.5512 7.69085 11.1323 7.69824 10.707C7.76591 10.3135 7.96481 10.0046 8.29492 9.78027C8.63782 9.62648 8.98482 9.4826 9.33594 9.34863C9.47899 8.99576 9.62709 8.64452 9.78027 8.29492C10.063 7.89802 10.4481 7.69489 10.9355 7.68555C11.2822 7.71584 11.625 7.76662 11.9639 7.83789C12.2405 7.60443 12.524 7.38015 12.8145 7.16504C12.9555 7.0942 13.0994 7.03919 13.2461 7ZM13.3477 7.78711C13.4975 7.77345 13.6414 7.79461 13.7793 7.85059C14.0501 8.07064 14.321 8.29069 14.5918 8.51074C14.7557 8.61542 14.9334 8.64927 15.125 8.6123C15.4863 8.53934 15.8503 8.49702 16.2168 8.48535C16.4235 8.55663 16.5632 8.69628 16.6357 8.9043C16.7525 9.25612 16.8964 9.59467 17.0674 9.91992C17.1325 9.97647 17.2044 10.023 17.2832 10.0596C17.5983 10.1731 17.9115 10.2916 18.2227 10.415C18.4257 10.5291 18.5273 10.7026 18.5273 10.9355C18.4863 11.2494 18.4398 11.5626 18.3877 11.875C18.3507 12.0666 18.3846 12.2443 18.4893 12.4082C18.7093 12.679 18.9294 12.9499 19.1494 13.2207C19.234 13.4069 19.234 13.5931 19.1494 13.7793C18.9294 14.0501 18.7093 14.321 18.4893 14.5918C18.3846 14.7557 18.3507 14.9334 18.3877 15.125C18.4607 15.4863 18.503 15.8503 18.5146 16.2168C18.4434 16.4235 18.3037 16.5632 18.0957 16.6357C17.7439 16.7525 17.4053 16.8964 17.0801 17.0674C17.0235 17.1325 16.977 17.2044 16.9404 17.2832C16.8269 17.5983 16.7084 17.9115 16.585 18.2227C16.4709 18.4257 16.2974 18.5273 16.0645 18.5273C15.7506 18.4863 15.4374 18.4398 15.125 18.3877C14.9334 18.3507 14.7557 18.3846 14.5918 18.4893C14.321 18.7093 14.0501 18.9294 13.7793 19.1494C13.5931 19.234 13.4069 19.234 13.2207 19.1494C12.9499 18.9294 12.679 18.7093 12.4082 18.4893C12.2443 18.3846 12.0666 18.3507 11.875 18.3877C11.5137 18.4607 11.1497 18.503 10.7832 18.5146C10.5765 18.4434 10.4368 18.3037 10.3643 18.0957C10.2475 17.7439 10.1036 17.4053 9.93262 17.0801C9.86752 17.0235 9.79558 16.977 9.7168 16.9404C9.40167 16.8269 9.08852 16.7084 8.77734 16.585C8.57429 16.4709 8.47273 16.2974 8.47266 16.0645C8.51368 15.7506 8.56023 15.4374 8.6123 15.125C8.64927 14.9334 8.61542 14.7557 8.51074 14.5918C8.29069 14.321 8.07064 14.0501 7.85059 13.7793C7.76595 13.5931 7.76595 13.4069 7.85059 13.2207C8.07064 12.9499 8.29069 12.679 8.51074 12.4082C8.61542 12.2443 8.64927 12.0666 8.6123 11.875C8.53934 11.5137 8.49702 11.1497 8.48535 10.7832C8.55663 10.5765 8.69628 10.4368 8.9043 10.3643C9.25612 10.2475 9.59467 10.1036 9.91992 9.93262C9.97647 9.86752 10.023 9.79558 10.0596 9.7168C10.1731 9.40167 10.2916 9.08852 10.415 8.77734C10.5291 8.57429 10.7026 8.47273 10.9355 8.47266C11.2494 8.51368 11.5626 8.56023 11.875 8.6123C12.0666 8.64927 12.2443 8.61542 12.4082 8.51074C12.7049 8.24312 13.018 8.00191 13.3477 7.78711Z" fill="url(#paint1_linear_520_116)"/>
<path fill-rule="evenodd" clip-rule="evenodd" d="M9.81836 11.875C9.95821 11.8834 10.0725 11.9426 10.1611 12.0527C10.3896 12.4505 10.6182 12.8483 10.8467 13.2461C10.8551 12.8906 10.8636 12.5352 10.8721 12.1797C10.9879 11.8977 11.1868 11.8173 11.4688 11.9385C11.5432 11.996 11.5982 12.0679 11.6338 12.1543C11.6507 13.043 11.6507 13.9316 11.6338 14.8203C11.534 15.0738 11.352 15.1627 11.0879 15.0869C11.0254 15.0499 10.9704 15.0034 10.9229 14.9473C10.6943 14.5495 10.4658 14.1517 10.2373 13.7539C10.2288 14.1094 10.2204 14.4648 10.2119 14.8203C10.0961 15.1023 9.89722 15.1827 9.61523 15.0615C9.52969 15.0015 9.47468 14.9211 9.4502 14.8203C9.43327 13.9401 9.43327 13.0599 9.4502 12.1797C9.50971 11.9971 9.63242 11.8955 9.81836 11.875Z" fill="url(#paint2_linear_520_116)"/>
<path fill-rule="evenodd" clip-rule="evenodd" d="M12.4336 11.875C12.8738 11.8708 13.3139 11.875 13.7539 11.8877C13.9687 11.9248 14.0872 12.0517 14.1094 12.2686C14.0951 12.4523 14.002 12.5792 13.8301 12.6494C13.5086 12.6621 13.187 12.6664 12.8652 12.6621C12.8652 12.8145 12.8652 12.9668 12.8652 13.1191C13.1277 13.1149 13.3901 13.1191 13.6523 13.1318C13.8802 13.2626 13.9437 13.4531 13.8428 13.7031C13.798 13.7786 13.7345 13.8336 13.6523 13.8682C13.3901 13.8809 13.1277 13.8851 12.8652 13.8809C12.8652 14.0332 12.8652 14.1855 12.8652 14.3379C13.187 14.3337 13.5086 14.3379 13.8301 14.3506C14.0948 14.4983 14.1583 14.7056 14.0205 14.9727C13.9478 15.0492 13.8589 15.0958 13.7539 15.1123C13.3138 15.1292 12.8737 15.1292 12.4336 15.1123C12.2347 15.0827 12.1205 14.9684 12.0908 14.7695C12.0739 13.9232 12.0739 13.0768 12.0908 12.2305C12.125 12.0313 12.2393 11.9128 12.4336 11.875Z" fill="url(#paint3_linear_520_116)"/>
<path fill-rule="evenodd" clip-rule="evenodd" d="M14.668 11.875C14.8627 11.8728 15.0023 11.9574 15.0869 12.1289C15.1611 12.4829 15.2288 12.8384 15.29 13.1953C15.4339 12.8145 15.5778 12.4336 15.7217 12.0527C15.9249 11.8326 16.1365 11.8241 16.3564 12.0273C16.5138 12.4062 16.6661 12.787 16.8135 13.1699C16.8734 12.7934 16.9496 12.4209 17.042 12.0527C17.2621 11.8158 17.4821 11.8158 17.7021 12.0527C17.7757 12.217 17.7842 12.3862 17.7275 12.5605C17.5921 13.3053 17.4567 14.0501 17.3213 14.7949C17.2139 15.0877 17.015 15.1766 16.7246 15.0615C16.6865 15.0234 16.6484 14.9854 16.6104 14.9473C16.4171 14.4507 16.2309 13.9513 16.0518 13.4492C15.8705 13.9505 15.6844 14.4499 15.4932 14.9473C15.2711 15.1741 15.0511 15.1741 14.833 14.9473C14.6421 14.0684 14.4771 13.184 14.3379 12.2939C14.3484 12.0732 14.4584 11.9336 14.668 11.875Z" fill="url(#paint4_linear_520_116)"/>
</g>
<defs>
<linearGradient id="paint0_linear_520_116" x1="13.5" y1="3.30676" x2="13.5" y2="23.693" gradientUnits="userSpaceOnUse">
<stop stop-color="#66DFFF"/>
<stop offset="1" stop-color="#00CAFF"/>
</linearGradient>
<linearGradient id="paint1_linear_520_116" x1="13.5" y1="7" x2="13.5" y2="20" gradientUnits="userSpaceOnUse">
<stop stop-color="white"/>
<stop offset="1" stop-color="white" stop-opacity="0.7"/>
</linearGradient>
<linearGradient id="paint2_linear_520_116" x1="13.5" y1="7" x2="13.5" y2="20" gradientUnits="userSpaceOnUse">
<stop stop-color="white"/>
<stop offset="1" stop-color="white" stop-opacity="0.7"/>
</linearGradient>
<linearGradient id="paint3_linear_520_116" x1="13.5" y1="7" x2="13.5" y2="20" gradientUnits="userSpaceOnUse">
<stop stop-color="white"/>
<stop offset="1" stop-color="white" stop-opacity="0.7"/>
</linearGradient>
<linearGradient id="paint4_linear_520_116" x1="13.5" y1="7" x2="13.5" y2="20" gradientUnits="userSpaceOnUse">
<stop stop-color="white"/>
<stop offset="1" stop-color="white" stop-opacity="0.7"/>
</linearGradient>
</defs>
</svg>
