<svg width="25" height="25" viewBox="0 0 25 25" fill="none" xmlns="http://www.w3.org/2000/svg">
<rect opacity="0.15" width="25" height="25" rx="6" fill="#00CAFF"/>
<circle cx="12.5" cy="12.5" r="10.5" fill="#00CAFF"/>
<path opacity="0.964" fill-rule="evenodd" clip-rule="evenodd" d="M12.1881 5.01291C12.7611 4.95261 13.2706 5.10352 13.7165 5.46565C14.0054 5.73402 14.3277 5.95258 14.6835 6.12133C14.838 6.15074 14.994 6.16636 15.1514 6.16817C15.6532 6.11334 16.1523 6.12895 16.6487 6.215C17.1039 6.3688 17.4315 6.66542 17.6313 7.10486C17.776 7.51784 17.9112 7.93415 18.0368 8.35378C18.1114 8.53257 18.231 8.67307 18.3955 8.7753C18.8686 9.03554 19.3001 9.35299 19.69 9.7276C19.9993 10.1777 20.0721 10.6669 19.9084 11.1951C19.7897 11.5409 19.665 11.8844 19.534 12.2255C19.4717 12.4128 19.4717 12.6001 19.534 12.7875C19.7062 13.2049 19.8517 13.6316 19.9707 14.0676C20.079 14.6884 19.8867 15.1932 19.3937 15.5819C19.0694 15.8128 18.7367 16.0313 18.3955 16.2376C18.231 16.3398 18.1114 16.4804 18.0368 16.6591C17.9112 17.0788 17.776 17.4951 17.6313 17.9081C17.2667 18.6371 16.674 18.9598 15.8533 18.876C15.5257 18.8551 15.1982 18.8499 14.8707 18.8604C14.7747 18.8712 14.6811 18.892 14.5899 18.9228C14.1966 19.1813 13.8119 19.4519 13.4358 19.7346C12.8119 20.0885 12.1881 20.0885 11.5642 19.7346C11.3035 19.5625 11.0539 19.3751 10.8156 19.1726C10.6583 19.0627 10.4919 18.969 10.3165 18.8916C10.162 18.8622 10.006 18.8466 9.84859 18.8448C9.34678 18.8996 8.84769 18.884 8.35132 18.7979C7.89605 18.6441 7.56854 18.3475 7.36874 17.9081C7.22398 17.4951 7.08881 17.0788 6.96322 16.6591C6.8886 16.4804 6.76902 16.3398 6.6045 16.2376C6.13142 15.9774 5.69992 15.6599 5.30999 15.2853C5.00072 14.8352 4.92794 14.346 5.09164 13.8178C5.21027 13.472 5.33505 13.1285 5.46596 12.7875C5.52834 12.6001 5.52834 12.4128 5.46596 12.2255C5.29385 11.808 5.14828 11.3813 5.02925 10.9453C4.92096 10.3245 5.11332 9.81971 5.60633 9.43098C5.93062 9.20015 6.26334 8.98159 6.6045 8.7753C6.76902 8.67307 6.8886 8.53257 6.96322 8.35378C7.08881 7.93415 7.22398 7.51784 7.36874 7.10486C7.73332 6.37579 8.32599 6.05315 9.14674 6.13694C9.47427 6.15777 9.8018 6.16297 10.1293 6.15255C10.2253 6.14176 10.3189 6.12094 10.4101 6.09011C10.8034 5.83166 11.1881 5.56105 11.5642 5.27831C11.7645 5.16222 11.9724 5.07376 12.1881 5.01291ZM12.344 6.04327C12.5332 6.02259 12.7099 6.05902 12.8743 6.15255C13.2119 6.40998 13.555 6.65976 13.9037 6.90191C14.1826 7.06799 14.4842 7.16166 14.8083 7.18292C15.1463 7.19593 15.4842 7.19073 15.8221 7.16731C16.04 7.1585 16.2532 7.18452 16.4615 7.24536C16.5408 7.3142 16.6083 7.39226 16.6643 7.47954C16.7952 7.86233 16.92 8.24744 17.0386 8.63479C17.1773 9.02333 17.4113 9.34075 17.7404 9.5871C18.0681 9.78746 18.3904 9.99562 18.7074 10.2116C18.775 10.2792 18.8426 10.3468 18.9102 10.4145C18.958 10.546 18.9684 10.6813 18.9414 10.8204C18.8227 11.1663 18.698 11.5097 18.5671 11.8508C18.4215 12.2879 18.4215 12.725 18.5671 13.1621C18.698 13.5032 18.8227 13.8466 18.9414 14.1925C18.9622 14.307 18.9622 14.4215 18.9414 14.536C18.875 14.6337 18.797 14.7221 18.7074 14.8014C18.3904 15.0173 18.0681 15.2255 17.7404 15.4258C17.446 15.6558 17.2225 15.942 17.0698 16.2845C16.9506 16.6473 16.8362 17.0115 16.7267 17.3773C16.651 17.6404 16.4795 17.7913 16.212 17.83C15.744 17.8326 15.2761 17.8326 14.8083 17.83C14.4842 17.8513 14.1826 17.9449 13.9037 18.111C13.555 18.3531 13.2119 18.6029 12.8743 18.8604C12.6248 19.0061 12.3752 19.0061 12.1257 18.8604C11.7881 18.6029 11.445 18.3531 11.0963 18.111C10.7091 17.8944 10.2932 17.7956 9.84859 17.8144C9.49526 17.8421 9.14175 17.8473 8.78802 17.83C8.58289 17.8133 8.43214 17.7144 8.33572 17.5334C8.19438 17.1194 8.05923 16.703 7.93021 16.2845C7.77749 15.942 7.55394 15.6558 7.25956 15.4258C6.84368 15.1864 6.45377 14.9106 6.08982 14.5984C6.04197 14.4669 6.03157 14.3316 6.05863 14.1925C6.17726 13.8466 6.30203 13.5032 6.43294 13.1621C6.57851 12.725 6.57851 12.2879 6.43294 11.8508C6.30203 11.5097 6.17726 11.1663 6.05863 10.8204C6.03157 10.6813 6.04197 10.546 6.08982 10.4145C6.45377 10.1023 6.84368 9.82649 7.25956 9.5871C7.55394 9.35708 7.77749 9.07089 7.93021 8.72846C8.05923 8.30988 8.19438 7.89356 8.33572 7.47954C8.43214 7.29853 8.58289 7.19966 8.78802 7.18292C9.25598 7.18032 9.72388 7.18032 10.1917 7.18292C10.5158 7.16166 10.8174 7.06799 11.0963 6.90191C11.3858 6.70579 11.6666 6.49764 11.9385 6.27745C12.0665 6.18234 12.2016 6.10428 12.344 6.04327Z" fill="white" stroke="white" stroke-width="0.5"/>
</svg>
