<?xml version="1.0" encoding="UTF-8" standalone="no"?>
<!DOCTYPE svg PUBLIC "-//W3C//DTD SVG 1.1//EN" "http://www.w3.org/Graphics/SVG/1.1/DTD/svg11.dtd">
<!-- Created with Vectornator (http://vectornator.io/) -->
<svg height="100%" stroke-miterlimit="10" style="fill-rule:nonzero;clip-rule:evenodd;stroke-linecap:round;stroke-linejoin:round;" version="1.1" viewBox="0 0 20 20" width="100%" xml:space="preserve" xmlns="http://www.w3.org/2000/svg" xmlns:vectornator="http://vectornator.io" xmlns:xlink="http://www.w3.org/1999/xlink">
<defs/>
<g id="Sem-Título" vectornator:layerName="Sem Título">
<path d="M16.8 0L3.2 0C1.432 0 0 1.432 0 3.2L0 16.8C0 18.568 1.432 20 3.2 20L16.8 20C18.568 20 20 18.568 20 16.8L20 3.2C20 1.432 18.568 0 16.8 0Z" fill="#F68D08" fill-opacity="0.15" fill-rule="nonzero" opacity="1" stroke="none" vectornator:layerName="path"/>
<path d="M9.48233 2.6508L9.16983 2.99455L8.07608 4.24455L5.88858 3.80705C5.68845 3.75133 5.49505 3.77992 5.32608 3.9008C5.17883 4.03234 5.0823 4.20346 5.07608 4.4008L4.88858 6.43205L3.10733 7.18205L2.88858 7.2758C2.69105 7.33572 2.51099 7.48454 2.45108 7.68205C2.38534 7.87708 2.43562 8.10137 2.54483 8.2758L3.10733 9.11955L3.70108 10.0258L3.10733 10.9321L2.54483 11.7758C2.43997 11.95 2.41606 12.1461 2.48233 12.3383C2.5486 12.5305 2.69865 12.672 2.88858 12.7446L3.10733 12.8383L4.88858 13.5883L5.07608 15.6196C5.0823 15.8169 5.17882 15.988 5.32608 16.1196C5.49505 16.2404 5.68844 16.269 5.88858 16.2133L8.07608 15.7758L8.48233 16.2133L9.48233 17.3383C9.61269 17.4861 9.78524 17.5571 9.98233 17.5571C10.1794 17.5571 10.3832 17.4861 10.5136 17.3383L11.5136 16.2133L11.9198 15.7758L14.0761 16.2133C14.2762 16.269 14.4696 16.2404 14.6386 16.1196C14.7858 15.988 14.8824 15.8169 14.8886 15.6196L15.0761 13.5883L17.0761 12.7446C17.266 12.672 17.4161 12.5305 17.4823 12.3383C17.5486 12.1461 17.5247 11.95 17.4198 11.7758L16.2636 10.0258L17.4198 8.2758C17.529 8.10136 17.5793 7.87704 17.5136 7.68205C17.4537 7.48452 17.2736 7.3357 17.0761 7.2758L15.0761 6.43205L14.8886 4.4008C14.8824 4.20346 14.7858 4.03234 14.6386 3.9008C14.4696 3.77994 14.2762 3.75136 14.0761 3.80705L11.9198 4.24455L10.8261 2.99455L10.5136 2.6508C10.2235 2.3804 9.77245 2.3804 9.48233 2.6508Z" fill="#F68D08" fill-rule="nonzero" opacity="1" stroke="none"/>
<g opacity="1" vectornator:layerName="Agrupar 1">
<path d="M5.31362 8.60529L6.68918 10.6867L6.68918 8.58602C6.68918 8.4495 6.71849 8.34712 6.77711 8.27886C6.83573 8.21061 6.91483 8.17648 7.0144 8.17648C7.11719 8.17648 7.19829 8.21061 7.25771 8.27886C7.31713 8.34712 7.34685 8.4495 7.34685 8.58602L7.34685 11.3636C7.34685 11.6736 7.21836 11.8286 6.9614 11.8286C6.89716 11.8286 6.83934 11.8193 6.78795 11.8009C6.73656 11.7824 6.68838 11.7531 6.64341 11.7129C6.59844 11.6728 6.55668 11.6258 6.51814 11.572C6.47959 11.5182 6.44105 11.4632 6.40251 11.407L5.06067 9.34968L5.06067 11.419C5.06067 11.5539 5.02936 11.6559 4.96672 11.725C4.90409 11.794 4.82379 11.8286 4.72582 11.8286C4.62464 11.8286 4.54353 11.7936 4.48251 11.7238C4.42148 11.6539 4.39096 11.5523 4.39096 11.419L4.39096 8.69442C4.39096 8.57879 4.40381 8.48805 4.42951 8.4222C4.46002 8.34993 4.51061 8.29091 4.58128 8.24514C4.65194 8.19937 4.72823 8.17648 4.81013 8.17648C4.87438 8.17648 4.92938 8.18692 4.97515 8.2078C5.02092 8.22868 5.06108 8.25678 5.0956 8.29211C5.13013 8.32745 5.16547 8.37322 5.2016 8.42943C5.23774 8.48564 5.27508 8.54426 5.31362 8.60529Z" fill="#ffffff" fill-rule="nonzero" opacity="1" stroke="none"/>
<path d="M10.4569 8.78837L8.84526 8.78837L8.84526 9.65563L10.3292 9.65563C10.4384 9.65563 10.5199 9.68012 10.5737 9.7291C10.6275 9.77809 10.6544 9.84273 10.6544 9.92303C10.6544 10.0033 10.6279 10.0688 10.575 10.1194C10.522 10.17 10.44 10.1953 10.3292 10.1953L8.84526 10.1953L8.84526 11.1998L10.5123 11.1998C10.6247 11.1998 10.7095 11.2259 10.7665 11.2781C10.8235 11.3303 10.852 11.3998 10.852 11.4865C10.852 11.57 10.8235 11.6379 10.7665 11.6901C10.7095 11.7423 10.6247 11.7683 10.5123 11.7683L8.56823 11.7683C8.41244 11.7683 8.30042 11.7338 8.23217 11.6648C8.16391 11.5957 8.12978 11.4841 8.12978 11.3299L8.12978 8.67515C8.12978 8.57236 8.14504 8.48845 8.17555 8.42341C8.20607 8.35836 8.25385 8.31098 8.31889 8.28127C8.38394 8.25156 8.46705 8.23671 8.56823 8.23671L10.4569 8.23671C10.5709 8.23671 10.6557 8.262 10.7111 8.31259C10.7665 8.36318 10.7942 8.42943 10.7942 8.51134C10.7942 8.59485 10.7665 8.6619 10.7111 8.71249C10.6557 8.76308 10.5709 8.78837 10.4569 8.78837Z" fill="#ffffff" fill-rule="nonzero" opacity="1" stroke="none"/>
<path d="M13.9211 11.2119L13.3502 9.09432L12.772 11.2119C12.727 11.3725 12.6913 11.4877 12.6648 11.5576C12.6383 11.6274 12.5921 11.6901 12.5263 11.7455C12.4604 11.8009 12.3729 11.8286 12.2637 11.8286C12.1754 11.8286 12.1027 11.8121 12.0457 11.7792C11.9887 11.7463 11.9425 11.6997 11.9071 11.6395C11.8718 11.5792 11.8429 11.5078 11.8204 11.4251C11.7979 11.3424 11.7779 11.2657 11.7602 11.195L11.1724 8.81728C11.1371 8.67917 11.1194 8.57397 11.1194 8.5017C11.1194 8.41016 11.1515 8.33307 11.2158 8.27043C11.28 8.2078 11.3595 8.17648 11.4542 8.17648C11.5843 8.17648 11.6719 8.21824 11.7168 8.30175C11.7618 8.38526 11.8011 8.50652 11.8349 8.66551L12.2974 10.7276L12.8154 8.79801C12.8539 8.65026 12.8884 8.53784 12.9189 8.46075C12.9495 8.38366 12.9992 8.31701 13.0683 8.2608C13.1374 8.20459 13.2313 8.17648 13.3502 8.17648C13.4706 8.17648 13.5642 8.20579 13.6308 8.26441C13.6975 8.32303 13.7436 8.38687 13.7693 8.45593C13.795 8.52499 13.8296 8.63901 13.8729 8.79801L14.3957 10.7276L14.8582 8.66551C14.8807 8.55791 14.902 8.47359 14.9221 8.41257C14.9421 8.35154 14.9767 8.29693 15.0256 8.24875C15.0746 8.20057 15.1457 8.17648 15.2388 8.17648C15.332 8.17648 15.4111 8.2074 15.4761 8.26923C15.5412 8.33106 15.5737 8.40855 15.5737 8.5017C15.5737 8.56755 15.556 8.67274 15.5207 8.81728L14.9329 11.195C14.8927 11.3556 14.8594 11.4732 14.8329 11.5479C14.8064 11.6226 14.7614 11.688 14.698 11.7443C14.6346 11.8005 14.545 11.8286 14.4294 11.8286C14.3202 11.8286 14.2327 11.8013 14.1668 11.7467C14.101 11.6921 14.0552 11.6306 14.0295 11.5624C14.0038 11.4941 13.9677 11.3773 13.9211 11.2119Z" fill="#ffffff" fill-rule="nonzero" opacity="1" stroke="none"/>
</g>
</g>
</svg>
