<svg width="69" height="22" viewBox="0 0 69 22" fill="none" xmlns="http://www.w3.org/2000/svg">
<rect opacity="0.2" width="69" height="22" rx="10" fill="#F85151"/>
<path d="M17.801 6.54545V16H16.0745L11.9612 10.0494H11.892V16H9.89302V6.54545H11.6473L15.7282 12.4915H15.8113V6.54545H17.801ZM23.9629 12.9808V8.90909H25.9295V16H24.0414V14.712H23.9675C23.8075 15.1275 23.5413 15.4614 23.1689 15.7138C22.7995 15.9661 22.3487 16.0923 21.8162 16.0923C21.3423 16.0923 20.9252 15.9846 20.5652 15.7692C20.2051 15.5537 19.9235 15.2475 19.7203 14.8505C19.5203 14.4535 19.4187 13.978 19.4157 13.424V8.90909H21.3823V13.0732C21.3854 13.4917 21.4977 13.8226 21.7193 14.0657C21.9409 14.3088 22.2379 14.4304 22.6103 14.4304C22.8472 14.4304 23.0688 14.3765 23.275 14.2688C23.4812 14.158 23.6474 13.9949 23.7736 13.7795C23.9029 13.564 23.966 13.2978 23.9629 12.9808ZM27.5026 16V8.90909H29.3769V10.1602H29.46C29.6077 9.74467 29.8539 9.4169 30.1986 9.17685C30.5433 8.93679 30.9557 8.81676 31.4358 8.81676C31.9221 8.81676 32.336 8.93833 32.6776 9.18146C33.0193 9.42152 33.247 9.74775 33.3609 10.1602H33.4347C33.5794 9.75391 33.841 9.42921 34.2195 9.18608C34.6012 8.93987 35.0521 8.81676 35.5722 8.81676C36.2339 8.81676 36.7709 9.02758 37.1833 9.44922C37.5988 9.86778 37.8066 10.4618 37.8066 11.2312V16H35.8445V11.619C35.8445 11.225 35.7399 10.9296 35.5306 10.7326C35.3213 10.5356 35.0597 10.4371 34.7458 10.4371C34.3888 10.4371 34.1103 10.551 33.9102 10.7788C33.7102 11.0034 33.6102 11.3004 33.6102 11.6697V16H31.7036V11.5774C31.7036 11.2296 31.6035 10.9527 31.4035 10.7464C31.2065 10.5402 30.9465 10.4371 30.6233 10.4371C30.4048 10.4371 30.2078 10.4925 30.0324 10.6033C29.8601 10.7111 29.7231 10.8634 29.6215 11.0604C29.52 11.2543 29.4692 11.482 29.4692 11.7436V16H27.5026ZM39.3969 16V6.54545H41.3635V10.1001H41.4236C41.5097 9.90933 41.6344 9.71544 41.7975 9.51847C41.9637 9.31842 42.1791 9.15223 42.4438 9.01989C42.7116 8.88447 43.0439 8.81676 43.441 8.81676C43.958 8.81676 44.435 8.95218 44.8721 9.22301C45.3091 9.49077 45.6584 9.89548 45.92 10.4371C46.1816 10.9757 46.3124 11.6513 46.3124 12.4638C46.3124 13.2547 46.1847 13.9226 45.9292 14.4673C45.6769 15.009 45.3322 15.4199 44.8952 15.6999C44.4612 15.9769 43.9749 16.1154 43.4363 16.1154C43.0547 16.1154 42.73 16.0523 42.4623 15.9261C42.1976 15.8 41.9806 15.6415 41.8113 15.4506C41.6421 15.2567 41.5128 15.0613 41.4236 14.8643H41.3358V16H39.3969ZM41.322 12.4545C41.322 12.8762 41.3805 13.244 41.4974 13.5579C41.6144 13.8718 41.7836 14.1165 42.0052 14.2919C42.2268 14.4643 42.4961 14.5504 42.8131 14.5504C43.1332 14.5504 43.404 14.4627 43.6256 14.2873C43.8472 14.1088 44.0149 13.8626 44.1288 13.5487C44.2458 13.2317 44.3042 12.867 44.3042 12.4545C44.3042 12.0452 44.2473 11.6851 44.1334 11.3743C44.0196 11.0634 43.8518 10.8203 43.6302 10.6449C43.4086 10.4695 43.1363 10.3817 42.8131 10.3817C42.493 10.3817 42.2222 10.4664 42.0006 10.6357C41.7821 10.8049 41.6144 11.045 41.4974 11.3558C41.3805 11.6667 41.322 12.0329 41.322 12.4545ZM50.8562 16.1385C50.1268 16.1385 49.4989 15.9908 48.9727 15.6953C48.4495 15.3968 48.0463 14.9751 47.7631 14.4304C47.48 13.8826 47.3384 13.2347 47.3384 12.4869C47.3384 11.7575 47.48 11.1173 47.7631 10.5664C48.0463 10.0155 48.4448 9.58617 48.9588 9.27841C49.4759 8.97064 50.0821 8.81676 50.7777 8.81676C51.2455 8.81676 51.681 8.89216 52.0842 9.04297C52.4904 9.1907 52.8443 9.41383 53.146 9.71236C53.4506 10.0109 53.6876 10.3864 53.8569 10.8388C54.0262 11.2881 54.1108 11.8144 54.1108 12.4176V12.9577H48.1232V11.739H52.2596C52.2596 11.4558 52.198 11.205 52.0749 10.9865C51.9518 10.768 51.781 10.5972 51.5625 10.4741C51.3471 10.3479 51.0962 10.2848 50.81 10.2848C50.5115 10.2848 50.2468 10.354 50.016 10.4925C49.7882 10.628 49.6097 10.8111 49.4805 11.0419C49.3512 11.2696 49.285 11.5236 49.282 11.8036V12.9624C49.282 13.3132 49.3466 13.6164 49.4759 13.8718C49.6082 14.1272 49.7944 14.3242 50.0344 14.4627C50.2745 14.6012 50.5592 14.6705 50.8885 14.6705C51.107 14.6705 51.3071 14.6397 51.4886 14.5781C51.6702 14.5166 51.8256 14.4242 51.9549 14.3011C52.0842 14.178 52.1826 14.0272 52.2504 13.8487L54.0692 13.9688C53.9769 14.4058 53.7876 14.7874 53.5014 15.1136C53.2183 15.4368 52.852 15.6892 52.4027 15.8707C51.9564 16.0492 51.4409 16.1385 50.8562 16.1385ZM55.3942 16V8.90909H57.3008V10.1463H57.3746C57.5039 9.7062 57.7209 9.37382 58.0256 9.14915C58.3303 8.9214 58.6811 8.80753 59.0781 8.80753C59.1766 8.80753 59.2828 8.81368 59.3967 8.82599C59.5105 8.8383 59.6106 8.85523 59.6967 8.87678V10.6218C59.6044 10.5941 59.4767 10.5695 59.3136 10.5479C59.1504 10.5264 59.0012 10.5156 58.8658 10.5156C58.5765 10.5156 58.3179 10.5787 58.0902 10.7049C57.8655 10.828 57.687 11.0004 57.5547 11.2219C57.4254 11.4435 57.3608 11.699 57.3608 11.9883V16H55.3942Z" fill="#F85151"/>
</svg>
