<svg width="71" height="22" viewBox="0 0 71 22" fill="none" xmlns="http://www.w3.org/2000/svg">
<rect opacity="0.2" width="70.125" height="22" rx="11" fill="#F85151"/>
<path d="M20.0856 6.27273V15H18.4918L14.695 9.5071H14.631V15H12.7859V6.27273H14.4052L18.1722 11.7614H18.2489V6.27273H20.0856ZM25.7734 12.2131V8.45455H27.5888V15H25.8459V13.8111H25.7777C25.63 14.1946 25.3842 14.5028 25.0405 14.7358C24.6996 14.9687 24.2834 15.0852 23.7919 15.0852C23.3544 15.0852 22.9695 14.9858 22.6371 14.7869C22.3047 14.5881 22.0447 14.3054 21.8572 13.9389C21.6726 13.5724 21.5788 13.1335 21.576 12.6222V8.45455H23.3913V12.2983C23.3942 12.6847 23.4979 12.9901 23.7024 13.2145C23.907 13.4389 24.1811 13.5511 24.5249 13.5511C24.7436 13.5511 24.9482 13.5014 25.1385 13.402C25.3288 13.2997 25.4822 13.1491 25.5987 12.9503C25.718 12.7514 25.7763 12.5057 25.7734 12.2131ZM29.0408 15V8.45455H30.771V9.60938H30.8477C30.984 9.22585 31.2113 8.9233 31.5295 8.7017C31.8477 8.48011 32.2283 8.36932 32.6715 8.36932C33.1204 8.36932 33.5025 8.48153 33.8178 8.70597C34.1332 8.92756 34.3434 9.22869 34.4485 9.60938H34.5167C34.6502 9.23438 34.8917 8.93466 35.2411 8.71023C35.5934 8.48295 36.0096 8.36932 36.4897 8.36932C37.1005 8.36932 37.5962 8.56392 37.9769 8.95312C38.3604 9.33949 38.5522 9.88778 38.5522 10.598V15H36.7411V10.956C36.7411 10.5923 36.6445 10.3196 36.4513 10.1378C36.2582 9.95597 36.0167 9.86506 35.7269 9.86506C35.3974 9.86506 35.1403 9.97017 34.9556 10.1804C34.771 10.3878 34.6786 10.6619 34.6786 11.0028V15H32.9187V10.9176C32.9187 10.5966 32.8263 10.3409 32.6417 10.1506C32.4599 9.96023 32.2198 9.86506 31.9215 9.86506C31.7198 9.86506 31.538 9.91619 31.3761 10.0185C31.217 10.1179 31.0906 10.2585 30.9968 10.4403C30.9031 10.6193 30.8562 10.8295 30.8562 11.071V15H29.0408ZM40.0202 15V6.27273H41.8356V9.55398H41.891C41.9705 9.37784 42.0856 9.19886 42.2362 9.01705C42.3896 8.83239 42.5884 8.67898 42.8327 8.55682C43.0799 8.43182 43.3867 8.36932 43.7532 8.36932C44.2305 8.36932 44.6708 8.49432 45.0742 8.74432C45.4776 8.99148 45.8001 9.36506 46.0415 9.86506C46.283 10.3622 46.4038 10.9858 46.4038 11.7358C46.4038 12.4659 46.2859 13.0824 46.0501 13.5852C45.8171 14.0852 45.4989 14.4645 45.0955 14.723C44.695 14.9787 44.2461 15.1065 43.7489 15.1065C43.3967 15.1065 43.0969 15.0483 42.8498 14.9318C42.6055 14.8153 42.4052 14.669 42.2489 14.4929C42.0927 14.3139 41.9734 14.1335 41.891 13.9517H41.81V15H40.0202ZM41.7972 11.7273C41.7972 12.1165 41.8512 12.456 41.9592 12.7457C42.0671 13.0355 42.2234 13.2614 42.4279 13.4233C42.6325 13.5824 42.881 13.6619 43.1737 13.6619C43.4691 13.6619 43.7191 13.581 43.9237 13.419C44.1282 13.2543 44.283 13.027 44.3881 12.7372C44.4961 12.4446 44.5501 12.108 44.5501 11.7273C44.5501 11.3494 44.4975 11.017 44.3924 10.7301C44.2873 10.4432 44.1325 10.2187 43.9279 10.0568C43.7234 9.89489 43.4719 9.81392 43.1737 9.81392C42.8782 9.81392 42.6282 9.89205 42.4237 10.0483C42.2219 10.2045 42.0671 10.4261 41.9592 10.7131C41.8512 11 41.7972 11.3381 41.7972 11.7273ZM50.598 15.1278C49.9247 15.1278 49.3452 14.9915 48.8594 14.7188C48.3764 14.4432 48.0043 14.054 47.7429 13.5511C47.4815 13.0455 47.3509 12.4474 47.3509 11.7571C47.3509 11.0838 47.4815 10.4929 47.7429 9.98438C48.0043 9.47585 48.3722 9.07955 48.8466 8.79545C49.3239 8.51136 49.8835 8.36932 50.5256 8.36932C50.9574 8.36932 51.3594 8.43892 51.7315 8.57812C52.1065 8.71449 52.4332 8.92045 52.7116 9.19602C52.9929 9.47159 53.2116 9.81818 53.3679 10.2358C53.5241 10.6506 53.6023 11.1364 53.6023 11.6932V12.1918H48.0753V11.0668H51.8935C51.8935 10.8054 51.8366 10.5739 51.723 10.3722C51.6094 10.1705 51.4517 10.0128 51.25 9.89915C51.0511 9.78267 50.8196 9.72443 50.5554 9.72443C50.2798 9.72443 50.0355 9.78835 49.8224 9.91619C49.6122 10.0412 49.4474 10.2102 49.3281 10.4233C49.2088 10.6335 49.1477 10.8679 49.1449 11.1264V12.196C49.1449 12.5199 49.2045 12.7997 49.3239 13.0355C49.446 13.2713 49.6179 13.4531 49.8395 13.581C50.0611 13.7088 50.3239 13.7727 50.6278 13.7727C50.8295 13.7727 51.0142 13.7443 51.1818 13.6875C51.3494 13.6307 51.4929 13.5455 51.6122 13.4318C51.7315 13.3182 51.8224 13.179 51.8849 13.0142L53.5639 13.125C53.4787 13.5284 53.304 13.8807 53.0398 14.1818C52.7784 14.4801 52.4403 14.7131 52.0256 14.8807C51.6136 15.0455 51.1378 15.1278 50.598 15.1278ZM54.7869 15V8.45455H56.5469V9.59659H56.6151C56.7344 9.19034 56.9347 8.88352 57.2159 8.67614C57.4972 8.46591 57.821 8.3608 58.1875 8.3608C58.2784 8.3608 58.3764 8.36648 58.4815 8.37784C58.5866 8.3892 58.679 8.40483 58.7585 8.42472V10.0355C58.6733 10.0099 58.5554 9.98722 58.4048 9.96733C58.2543 9.94744 58.1165 9.9375 57.9915 9.9375C57.7244 9.9375 57.4858 9.99574 57.2756 10.1122C57.0682 10.2259 56.9034 10.3849 56.7812 10.5895C56.6619 10.794 56.6023 11.0298 56.6023 11.2969V15H54.7869Z" fill="#F85151"/>
</svg>
