<svg width="256" height="256" viewBox="0 0 256 256" fill="none" xmlns="http://www.w3.org/2000/svg">
<path opacity="0.956" fill-rule="evenodd" clip-rule="evenodd" d="M104.621 45.5586C107.056 45.5332 109.283 46.1777 111.301 47.4922C142.062 78.2539 172.824 109.016 203.586 139.777C205.937 143.313 206.113 146.946 204.113 150.676C205.631 152.37 207.213 154.01 208.859 155.598C211.294 159.385 211.411 163.252 209.211 167.199C195.09 181.32 180.969 195.441 166.848 209.562C163.205 211.65 159.572 211.65 155.949 209.562C154.308 207.922 152.668 206.281 151.027 204.641C149.237 205.246 147.362 205.656 145.402 205.871C143.072 205.7 140.963 204.938 139.074 203.586C108.664 173.176 78.2538 142.766 47.8437 112.355C45.7223 109.665 45.0192 106.618 45.7343 103.215C46.1349 101.945 46.7208 100.773 47.4921 99.6992C53.0686 94.0053 58.7521 88.439 64.5429 83C66.7833 81.7238 69.1271 81.4893 71.5741 82.2969C75.6087 84.7916 79.183 84.2642 82.2968 80.7148C83.0622 79.4735 83.4724 78.1259 83.5273 76.6719C82.7201 74.1209 82.017 71.5426 81.4179 68.9375C81.3989 67.3536 81.8092 65.8888 82.6484 64.543C88.3321 58.8594 94.0154 53.1758 99.6991 47.4922C101.287 46.5941 102.928 45.9496 104.621 45.5586ZM104.621 53.6445C105.218 53.5882 105.804 53.6468 106.379 53.8203C137.038 84.3036 167.507 114.948 197.785 145.754C180.866 163.2 163.757 180.485 146.457 197.609C145.754 197.844 145.051 197.844 144.348 197.609C113.928 167.307 83.6348 136.897 53.4687 106.379C53.2343 105.91 53.2343 105.441 53.4687 104.973C58.5178 99.8061 63.6741 94.7671 68.9374 89.8555C76.5424 93.286 83.105 91.8798 88.6249 85.6367C91.1073 81.8926 91.9275 77.7909 91.0859 73.332C90.8015 71.8343 90.2741 70.428 89.5038 69.1133C94.5505 63.9497 99.5895 58.7935 104.621 53.6445ZM198.488 156.652C200.324 158.078 201.847 159.777 203.059 161.75C200.789 164.372 198.387 166.891 195.851 169.309C194.205 167.721 192.623 166.081 191.105 164.387C193.574 161.801 196.035 159.223 198.488 156.652Z" fill="#FD5F26"/>
<path opacity="0.984" fill-rule="evenodd" clip-rule="evenodd" d="M110.949 75.0898C114.353 74.5494 117.4 75.3113 120.09 77.375C128.234 85.5196 136.379 93.6639 144.523 101.809C148.076 106.469 147.959 111.039 144.172 115.519C133.898 126.028 123.41 136.282 112.707 146.281C109.191 147.629 105.792 147.394 102.512 145.578C93.7813 136.848 85.0506 128.117 76.3203 119.387C74.1209 115.435 74.238 111.568 76.6718 107.785C87.0429 97.414 97.414 87.0429 107.785 76.6718C108.872 76.1283 109.927 75.601 110.949 75.0898Z" fill="#FD5F26"/>
<path opacity="0.974" fill-rule="evenodd" clip-rule="evenodd" d="M153.488 117.629C156.888 117.089 159.935 117.851 162.629 119.914C169.016 126.301 175.402 132.687 181.789 139.074C184.43 142.563 184.899 146.313 183.195 150.324C180.18 154.043 176.723 157.266 172.824 159.992C169.425 161.009 166.261 160.54 163.332 158.586C156.594 151.848 149.856 145.11 143.117 138.371C140.844 134.879 140.61 131.247 142.414 127.473C144.805 124.729 147.325 122.093 149.973 119.563C151.121 118.814 152.293 118.169 153.488 117.629Z" fill="#FD5F26"/>
<path opacity="0.98" fill-rule="evenodd" clip-rule="evenodd" d="M129.934 141.535C132.703 141.184 135.281 141.711 137.668 143.117C145.002 150.334 152.209 157.659 159.289 165.09C160.637 168.606 160.402 172.005 158.586 175.285C156.066 177.805 153.547 180.324 151.027 182.844C147.277 184.953 143.527 184.953 139.777 182.844C132.805 175.871 125.832 168.898 118.859 161.926C116.911 158.471 116.794 154.956 118.508 151.379C120.899 148.636 123.419 145.999 126.066 143.469C127.293 142.621 128.583 141.976 129.934 141.535Z" fill="#FD5F26"/>
</svg>
