<?xml version="1.0" encoding="utf-8"?>
<!-- Generator: Adobe Illustrator 26.3.0, SVG Export Plug-In . SVG Version: 6.00 Build 0)  -->
<svg version="1.1" id="Camada_1" xmlns="http://www.w3.org/2000/svg" xmlns:xlink="http://www.w3.org/1999/xlink" x="0px" y="0px"
	 width="25px" height="25px" viewBox="0 0 25 25" style="enable-background:new 0 0 25 25;" xml:space="preserve">
<style type="text/css">
	.st0{fill:#301E1E;}
	.st1{fill:url(#SVGID_1_);}
	.st2{fill:#FFFFFF;}
</style>
<g>
	<g>
		<path class="st0" d="M21,0L4,0C1.8,0,0,1.8,0,4l0,17c0,2.2,1.8,4,4,4h17c2.2,0,4-1.8,4-4V4C25,1.8,23.2,0,21,0z"/>
	</g>
	<g>
		<linearGradient id="SVGID_1_" gradientUnits="userSpaceOnUse" x1="3.0694" y1="12.5" x2="21.9306" y2="12.5">
			<stop  offset="0" style="stop-color:#EA3D3D"/>
			<stop  offset="1" style="stop-color:#FC5454"/>
		</linearGradient>
		<path class="st1" d="M21.79,10.88c-0.38-2.16-1.41-3.97-3.04-5.43c-1.35-1.2-2.92-1.96-4.7-2.25C11.59,2.81,9.3,3.29,7.23,4.7
			C5.15,6.11,3.8,8.07,3.29,10.54c-0.59,2.82,0,5.41,1.75,7.71c1.4,1.83,3.25,2.99,5.51,3.48c0.39,0.08,0.79,0.12,1.18,0.17
			c0.06,0.01,0.12,0.02,0.18,0.03h1.18c0.34-0.05,0.69-0.08,1.03-0.14c2.82-0.53,4.97-2.03,6.47-4.46c0.77-1.25,1.19-2.63,1.31-4.09
			c0-0.05,0.02-0.09,0.03-0.14v-1.18C21.88,11.57,21.85,11.22,21.79,10.88z M13.76,12.65c0.72,0.72,1.44,1.44,2.16,2.16
			c0.18,0.18,0.29,0.38,0.28,0.64c-0.02,0.32-0.17,0.56-0.47,0.69c-0.31,0.13-0.61,0.08-0.85-0.15c-0.25-0.24-0.5-0.49-0.74-0.74
			c-0.54-0.54-1.07-1.08-1.64-1.65c-0.12,0.14-0.23,0.26-0.34,0.37c-0.65,0.66-1.31,1.31-1.97,1.97c-0.27,0.27-0.62,0.34-0.92,0.2
			c-0.51-0.24-0.61-0.88-0.2-1.29c0.63-0.64,1.27-1.27,1.9-1.9c0.14-0.14,0.28-0.27,0.44-0.42c-0.06-0.06-0.1-0.11-0.15-0.16
			c-0.73-0.73-1.46-1.46-2.19-2.19c-0.4-0.4-0.33-1,0.14-1.27c0.31-0.18,0.69-0.12,0.97,0.16c0.73,0.72,1.45,1.45,2.17,2.17
			c0.05,0.05,0.1,0.09,0.15,0.15c0.06-0.05,0.11-0.1,0.15-0.14c0.72-0.72,1.45-1.45,2.17-2.17c0.32-0.32,0.76-0.35,1.08-0.09
			c0.37,0.3,0.4,0.83,0.05,1.19c-0.53,0.54-1.07,1.07-1.6,1.6c-0.24,0.24-0.49,0.48-0.74,0.73C13.67,12.55,13.72,12.6,13.76,12.65z"
			/>
		<path class="st2" d="M12.49,13.6c-0.12,0.14-0.23,0.26-0.34,0.37c-0.65,0.66-1.31,1.31-1.97,1.97c-0.27,0.27-0.62,0.34-0.92,0.2
			c-0.51-0.24-0.61-0.88-0.2-1.29c0.63-0.64,1.27-1.27,1.9-1.9c0.14-0.14,0.28-0.27,0.44-0.42c-0.06-0.06-0.1-0.11-0.15-0.16
			c-0.73-0.73-1.46-1.46-2.19-2.19c-0.4-0.4-0.33-1,0.14-1.27c0.31-0.18,0.69-0.12,0.97,0.16c0.73,0.72,1.45,1.45,2.17,2.17
			c0.05,0.05,0.1,0.09,0.15,0.15c0.06-0.05,0.11-0.1,0.15-0.14c0.72-0.72,1.45-1.45,2.17-2.17c0.32-0.32,0.76-0.35,1.08-0.09
			c0.37,0.3,0.4,0.83,0.05,1.18c-0.53,0.54-1.07,1.07-1.6,1.6c-0.24,0.24-0.49,0.48-0.74,0.73c0.06,0.06,0.1,0.11,0.15,0.16
			c0.72,0.72,1.44,1.44,2.16,2.16c0.18,0.18,0.29,0.38,0.28,0.64c-0.02,0.32-0.17,0.56-0.47,0.69c-0.31,0.13-0.61,0.08-0.85-0.15
			c-0.25-0.24-0.5-0.49-0.74-0.74C13.6,14.71,13.06,14.17,12.49,13.6z"/>
	</g>
</g>
</svg>
