<?xml version="1.0" encoding="utf-8"?>
<!-- Generator: Adobe Illustrator 26.3.0, SVG Export Plug-In . SVG Version: 6.00 Build 0)  -->
<svg version="1.1" id="Camada_1" xmlns="http://www.w3.org/2000/svg" xmlns:xlink="http://www.w3.org/1999/xlink" x="0px" y="0px"
	 width="91.03px" height="26.15px" viewBox="0 0 91.03 26.15" style="enable-background:new 0 0 91.03 26.15;" xml:space="preserve"
	>
<style type="text/css">
	.st0{fill:#1A1728;stroke:#8169F7;stroke-width:0.25;stroke-miterlimit:10;}
	.st1{fill:#7850E9;}
	.st2{fill:url(#SVGID_1_);}
</style>
<g>
	<path class="st0" d="M88.92,26.04H2.1c-1.09,0-1.98-0.89-1.98-1.98V2.14c0-1.09,0.89-1.98,1.98-1.98h86.82
		c1.09,0,1.98,0.89,1.98,1.98v21.93C90.9,25.16,90.01,26.04,88.92,26.04z"/>
	<g>
		<g>
			<g>
				<path class="st1" d="M36.76,14.97v4.22h-1.47V7.57h3.27c1.26,0,2.24,0.31,2.93,0.92c0.69,0.62,1.03,1.49,1.03,2.63
					c0,1.13-0.38,2.05-1.15,2.77c-0.77,0.72-1.8,1.07-3.1,1.07H36.76z M36.76,8.88v4.79h1.39c0.92,0,1.62-0.21,2.1-0.64
					c0.48-0.43,0.72-1.03,0.72-1.82c0-0.78-0.22-1.36-0.66-1.75c-0.44-0.39-1.11-0.58-2-0.58H36.76z"/>
				<path class="st1" d="M42.35,19.19l4.43-11.62h1.57l4.44,11.62h-1.64l-1.14-3.05h-4.96l-1.08,3.05H42.35z M45.52,14.85h4.04
					l-1.82-5c-0.04-0.09-0.07-0.19-0.1-0.32s-0.06-0.28-0.09-0.46h-0.03c-0.03,0.16-0.06,0.31-0.08,0.44s-0.06,0.24-0.1,0.34
					L45.52,14.85z"/>
				<path class="st1" d="M60.43,8.89h-3.35v10.31H55.6V8.89h-3.35V7.57h8.18V8.89z"/>
				<path class="st1" d="M69.87,18.6c-0.56,0.28-1.11,0.48-1.65,0.6s-1.13,0.19-1.76,0.19c-1.76,0-3.13-0.53-4.11-1.59
					s-1.47-2.46-1.47-4.21c0-1.88,0.55-3.39,1.64-4.52s2.52-1.69,4.27-1.69c0.56,0,1.09,0.05,1.57,0.15
					c0.49,0.1,0.98,0.27,1.48,0.49L69.3,9.24c-0.42-0.19-0.82-0.33-1.22-0.41c-0.4-0.08-0.83-0.13-1.29-0.13
					c-1.32,0-2.38,0.43-3.17,1.29c-0.79,0.86-1.19,2.03-1.19,3.51c0,1.4,0.38,2.51,1.13,3.33c0.75,0.82,1.76,1.23,3.01,1.23
					c0.46,0,0.91-0.05,1.36-0.16c0.45-0.11,0.89-0.27,1.35-0.51L69.87,18.6z"/>
				<path class="st1" d="M80.98,19.19H79.5v-5.25h-5.9v5.25h-1.48V7.57h1.48v5.06h5.9V7.57h1.48V19.19z"/>
			</g>
		</g>
	</g>
	<g>
		<linearGradient id="SVGID_1_" gradientUnits="userSpaceOnUse" x1="22.6008" y1="20.5558" x2="14.2234" y2="6.0457">
			<stop  offset="0" style="stop-color:#6747DD"/>
			<stop  offset="1" style="stop-color:#8169F7"/>
		</linearGradient>
		<path class="st2" d="M22.59,6.04c-1.1-0.62-2.27-0.99-3.53-1.09c-0.04,0-0.08-0.02-0.13-0.03h-1.05c-0.3,0.04-0.6,0.07-0.9,0.13
			c-1.9,0.33-3.5,1.22-4.79,2.65c-1.15,1.27-1.84,2.77-2.08,4.48c-0.03,0.2-0.05,0.4-0.07,0.6v1.05c0.04,0.31,0.07,0.63,0.13,0.94
			c0.34,1.92,1.25,3.53,2.71,4.82c1.26,1.12,2.73,1.81,4.4,2.02c2.59,0.32,4.87-0.38,6.8-2.14c1.48-1.35,2.35-3.05,2.63-5.03
			C27.19,11.09,25.52,7.71,22.59,6.04z M13.92,13.64c-0.19-0.14-0.3-0.33-0.28-0.56c0.05-0.8,0.2-1.58,0.62-2.28
			c0.74-1.24,1.85-1.96,3.26-2.2c1.26-0.21,2.41,0.06,3.44,0.83c0.02,0.01,0.04,0.02,0.06,0.04c0.01-0.03,0.03-0.06,0.04-0.09
			c0.13-0.35,0.4-0.52,0.78-0.48c0.33,0.03,0.61,0.28,0.62,0.63c0.02,0.58,0.02,1.17-0.02,1.75c-0.02,0.38-0.26,0.59-0.65,0.6
			c-0.54,0.02-1.08,0.02-1.62,0.01c-0.36-0.01-0.61-0.23-0.69-0.57c-0.08-0.32,0.05-0.59,0.36-0.78c0.01-0.01,0.02-0.02,0.05-0.04
			c-0.41-0.26-0.84-0.44-1.31-0.48c-1.87-0.18-3.4,1.15-3.5,3.02c-0.02,0.3-0.12,0.56-0.41,0.69
			C14.41,13.83,14.15,13.81,13.92,13.64z M23.08,14.52c-0.5,2.23-2.67,3.77-4.94,3.53c-0.82-0.09-1.56-0.37-2.23-0.86
			c-0.02-0.02-0.04-0.03-0.08-0.05c-0.2,0.49-0.55,0.68-0.98,0.54c-0.28-0.09-0.46-0.32-0.46-0.61c-0.01-0.56-0.01-1.12,0-1.68
			c0.01-0.35,0.26-0.64,0.62-0.66c0.58-0.02,1.15-0.02,1.73-0.01c0.33,0.01,0.56,0.23,0.64,0.56c0.07,0.31-0.05,0.6-0.33,0.77
			c-0.02,0.01-0.04,0.03-0.09,0.05c0.32,0.22,0.65,0.35,1.01,0.42c1.73,0.33,3.39-0.79,3.72-2.52c0.04-0.19,0.04-0.38,0.05-0.57
			c0.02-0.42,0.33-0.72,0.74-0.71c0.42,0.01,0.71,0.31,0.7,0.74C23.17,13.82,23.15,14.18,23.08,14.52z"/>
	</g>
</g>
</svg>
