<?xml version="1.0" encoding="utf-8"?>
<!-- Generator: Adobe Illustrator 26.3.0, SVG Export Plug-In . SVG Version: 6.00 Build 0)  -->
<svg version="1.1" id="Camada_1" xmlns="http://www.w3.org/2000/svg" xmlns:xlink="http://www.w3.org/1999/xlink" x="0px" y="0px"
	 width="168.44px" height="79.51px" viewBox="0 0 168.44 79.51" style="enable-background:new 0 0 168.44 79.51;"
	 xml:space="preserve">
<style type="text/css">
	.st0{fill:url(#SVGID_1_);}
	.st1{opacity:0.23;fill:#1A2C1F;}
	.st2{opacity:0.36;fill:url(#SVGID_00000100362750144076350190000004100179449084567175_);}
	.st3{opacity:0.36;fill:#FFFFFF;}
	.st4{fill:#FFFFFF;}
	.st5{font-family:'Poppins-ExtraBold';}
	.st6{font-size:17.5595px;}
	.st7{opacity:0.6;}
	.st8{fill:#020202;}
</style>
<g>
	<g>
		<linearGradient id="SVGID_1_" gradientUnits="userSpaceOnUse" x1="84.22" y1="0" x2="84.22" y2="79.5082">
			<stop  offset="0" style="stop-color:#F77C7C"/>
			<stop  offset="1" style="stop-color:#FF4151"/>
		</linearGradient>
		<path class="st0" d="M168.44,8.63v62.24c0,4.75-4.45,8.63-9.88,8.63H9.88C4.45,79.51,0,75.62,0,70.87V8.63C0,3.89,4.45,0,9.88,0
			h148.67c0.17,0,0.34,0.01,0.5,0.01C164.26,0.24,168.44,4.03,168.44,8.63z"/>
		<path class="st1" d="M168.44,8.63v62.24c0,4.75-4.45,8.63-9.88,8.63H72.28L59.01,13.32C58.06,8.58,58.93,3.9,61.12,0h97.43
			c0.17,0,0.34,0.01,0.5,0.01C164.26,0.24,168.44,4.03,168.44,8.63z"/>
		
			<linearGradient id="SVGID_00000165205761951279600630000000147179976974995373_" gradientUnits="userSpaceOnUse" x1="76.8308" y1="287.6429" x2="168.2812" y2="287.6429" gradientTransform="matrix(0.9449 -0.3273 0.3273 0.9449 -83.3823 -190.5736)">
			<stop  offset="0" style="stop-color:#EA3D3D"/>
			<stop  offset="1" style="stop-color:#FC5454"/>
		</linearGradient>
		<path style="opacity:0.36;fill:url(#SVGID_00000165205761951279600630000000147179976974995373_);" d="M167.02,19.57
			C162.04,10.65,154.88,4.14,145.66,0h-37.62c-6.96,3.09-12.89,7.86-17.72,14.34c-7.31,9.82-10.38,20.93-8.81,33.11
			c1.75,13.58,8.29,24.34,19.48,32.05h51.98c6.94-4.77,12.09-10.86,15.47-18.25V22.31C167.98,21.39,167.52,20.46,167.02,19.57z"/>
	</g>
	<path class="st3" d="M144.61,53.27c-1.21,1.1-2.66,1.33-4.16,0.66c-1.55-0.7-3.07-1.47-4.59-2.22c-3.33-1.62-6.65-3.23-10.18-4.95
		c-0.35,0.82-0.63,1.54-0.97,2.24c-1.96,4.06-3.93,8.11-5.9,12.16c-0.82,1.68-2.28,2.55-3.93,2.39c-2.71-0.27-4.21-3.06-2.99-5.61
		c1.87-3.93,3.79-7.84,5.7-11.76c0.42-0.86,0.87-1.7,1.35-2.64c-0.37-0.19-0.64-0.35-0.93-0.49c-4.51-2.19-9.02-4.37-13.52-6.57
		c-2.47-1.21-3.11-4.09-1.4-6.06c1.16-1.32,2.99-1.65,4.73-0.81c4.49,2.17,8.97,4.35,13.45,6.53c0.29,0.14,0.59,0.27,0.94,0.42
		c0.18-0.33,0.33-0.61,0.48-0.89c2.17-4.49,4.34-8.97,6.53-13.45c0.97-1.97,2.93-2.83,4.81-2.15c2.18,0.78,3.15,3.18,2.11,5.36
		c-1.57,3.32-3.19,6.61-4.8,9.91c-0.72,1.5-1.46,2.99-2.23,4.55c0.36,0.19,0.64,0.34,0.92,0.48c4.46,2.17,8.9,4.34,13.37,6.49
		c1.1,0.53,1.94,1.3,2.28,2.49C146.12,50.87,145.79,52.22,144.61,53.27z"/>
</g>
<g>
	<g>
		<text transform="matrix(1 0 0 1 40.5091 20.316)" class="st4 st5 st6">Pendente</text>
	</g>
	<g class="st7">
		<g>
			<g>
				<path class="st8" d="M12.54,37.07H11.7v-6.66h0.85V37.07z"/>
				<path class="st8" d="M18.35,37.07h-0.83v-2.78c0-0.51-0.09-0.89-0.28-1.14c-0.19-0.25-0.46-0.38-0.83-0.38
					c-0.38,0-0.7,0.14-0.95,0.43s-0.38,0.65-0.38,1.09v2.78h-0.83V32.2h0.83v0.81h0.02c0.18-0.31,0.41-0.54,0.67-0.69
					c0.27-0.15,0.57-0.23,0.92-0.23c0.53,0,0.94,0.17,1.22,0.52s0.42,0.84,0.42,1.49V37.07z"/>
				<path class="st8" d="M23.21,36.25c-0.18,0.31-0.41,0.54-0.69,0.7c-0.28,0.16-0.6,0.23-0.98,0.23c-0.61,0-1.1-0.22-1.47-0.66
					c-0.37-0.44-0.55-1.03-0.55-1.78c0-0.81,0.2-1.45,0.61-1.94c0.41-0.49,0.95-0.73,1.62-0.73c0.33,0,0.62,0.07,0.86,0.2
					c0.24,0.13,0.44,0.33,0.59,0.59h0.02v-2.84h0.83v7.04h-0.83v-0.82H23.21z M20.38,34.71c0,0.56,0.13,1,0.39,1.31
					c0.26,0.32,0.6,0.48,1.03,0.48c0.43,0,0.78-0.15,1.04-0.46c0.26-0.31,0.4-0.7,0.4-1.17v-0.7c0-0.39-0.13-0.72-0.38-0.99
					s-0.58-0.4-0.97-0.4c-0.47,0-0.84,0.17-1.1,0.52C20.51,33.63,20.38,34.1,20.38,34.71z"/>
				<path class="st8" d="M26.09,31.17c-0.16,0-0.3-0.05-0.41-0.16s-0.16-0.24-0.16-0.39c0-0.16,0.05-0.29,0.16-0.4
					c0.11-0.11,0.24-0.16,0.41-0.16s0.3,0.05,0.41,0.16c0.11,0.11,0.16,0.24,0.16,0.4c0,0.15-0.05,0.29-0.16,0.39
					S26.25,31.17,26.09,31.17z M26.49,37.07h-0.83V32.2h0.83V37.07z"/>
				<path class="st8" d="M31.64,36.77c-0.23,0.15-0.46,0.26-0.7,0.32c-0.23,0.07-0.48,0.1-0.75,0.1c-0.7,0-1.27-0.21-1.7-0.64
					c-0.44-0.43-0.66-1.03-0.66-1.8c0-0.8,0.22-1.44,0.67-1.93c0.45-0.49,1.06-0.73,1.84-0.73c0.25,0,0.49,0.03,0.72,0.09
					s0.45,0.16,0.68,0.29l-0.35,0.6c-0.18-0.11-0.35-0.18-0.52-0.23c-0.17-0.04-0.35-0.07-0.55-0.07c-0.53,0-0.94,0.18-1.22,0.53
					c-0.28,0.35-0.43,0.8-0.43,1.35c0,0.59,0.15,1.05,0.44,1.37c0.3,0.32,0.68,0.47,1.14,0.47c0.16,0,0.32-0.02,0.49-0.07
					c0.17-0.05,0.34-0.13,0.52-0.24L31.64,36.77z"/>
				<path class="st8" d="M36.28,37.07h-0.82v-0.77h-0.02c-0.17,0.29-0.37,0.51-0.62,0.66c-0.25,0.15-0.54,0.22-0.86,0.22
					c-0.46,0-0.83-0.13-1.11-0.4s-0.42-0.62-0.42-1.05c0-0.42,0.14-0.77,0.43-1.04c0.28-0.27,0.69-0.45,1.23-0.52l1.38-0.19v-0.11
					c0-0.39-0.09-0.68-0.28-0.85c-0.19-0.17-0.44-0.26-0.75-0.26c-0.25,0-0.5,0.05-0.73,0.14c-0.24,0.1-0.46,0.24-0.68,0.43
					l-0.45-0.5c0.28-0.25,0.57-0.44,0.88-0.56c0.31-0.12,0.66-0.18,1.03-0.18c0.59,0,1.04,0.15,1.34,0.46s0.45,0.77,0.45,1.38V37.07
					z M35.46,35.08v-0.47l-1.16,0.16c-0.36,0.05-0.62,0.14-0.8,0.27c-0.18,0.13-0.26,0.33-0.26,0.61c0,0.28,0.08,0.49,0.25,0.64
					c0.17,0.15,0.37,0.23,0.62,0.23c0.41,0,0.74-0.14,0.98-0.41C35.34,35.85,35.46,35.5,35.46,35.08z"/>
				<path class="st8" d="M44.77,39.26h-0.83v-3.01h-0.02c-0.17,0.32-0.39,0.55-0.67,0.71c-0.28,0.16-0.61,0.23-0.99,0.23
					c-0.61,0-1.1-0.22-1.47-0.66s-0.55-1.03-0.55-1.78c0-0.81,0.2-1.46,0.61-1.94c0.41-0.48,0.95-0.72,1.63-0.72
					c0.33,0,0.62,0.07,0.86,0.2c0.24,0.13,0.43,0.33,0.58,0.59h0.02V32.2h0.83V39.26z M43.94,34.87v-0.69c0-0.4-0.13-0.73-0.39-1
					s-0.58-0.41-0.98-0.41c-0.46,0-0.82,0.17-1.09,0.51c-0.27,0.34-0.4,0.82-0.4,1.45c0,0.55,0.13,0.98,0.39,1.3
					c0.26,0.31,0.59,0.47,1,0.47c0.45,0,0.81-0.15,1.07-0.46C43.81,35.73,43.94,35.34,43.94,34.87z"/>
				<path class="st8" d="M50.22,37.07h-0.83V36.3h-0.02c-0.16,0.3-0.37,0.52-0.62,0.67c-0.25,0.15-0.55,0.22-0.88,0.22
					c-0.58,0-1.01-0.17-1.3-0.52c-0.29-0.35-0.43-0.87-0.43-1.56V32.2h0.83v2.79c0,0.5,0.1,0.88,0.29,1.13
					c0.19,0.25,0.48,0.38,0.87,0.38c0.37,0,0.68-0.14,0.92-0.41c0.24-0.28,0.36-0.64,0.36-1.09v-2.8h0.83V37.07z"/>
				<path class="st8" d="M55.77,34.82h-3.43c0.02,0.54,0.16,0.95,0.43,1.24c0.27,0.29,0.65,0.43,1.15,0.43
					c0.21,0,0.43-0.03,0.66-0.1s0.45-0.18,0.68-0.33l0.38,0.58c-0.28,0.19-0.56,0.32-0.85,0.41c-0.29,0.09-0.6,0.13-0.94,0.13
					c-0.74,0-1.31-0.22-1.72-0.66c-0.41-0.44-0.62-1.05-0.62-1.84c0-0.78,0.21-1.41,0.62-1.89c0.42-0.48,0.96-0.72,1.63-0.72
					c0.64,0,1.13,0.21,1.49,0.62c0.35,0.41,0.53,0.99,0.53,1.73V34.82z M54.94,34.17c0-0.45-0.11-0.8-0.32-1.04
					c-0.21-0.25-0.5-0.37-0.88-0.37c-0.37,0-0.67,0.13-0.93,0.38c-0.25,0.26-0.41,0.6-0.46,1.03H54.94z"/>
				<path class="st8" d="M63.11,37.07h-0.82v-0.77h-0.02c-0.17,0.29-0.37,0.51-0.62,0.66c-0.25,0.15-0.54,0.22-0.86,0.22
					c-0.46,0-0.83-0.13-1.11-0.4s-0.42-0.62-0.42-1.05c0-0.42,0.14-0.77,0.43-1.04c0.28-0.27,0.69-0.45,1.23-0.52l1.38-0.19v-0.11
					c0-0.39-0.09-0.68-0.28-0.85c-0.19-0.17-0.44-0.26-0.75-0.26c-0.25,0-0.5,0.05-0.73,0.14c-0.24,0.1-0.46,0.24-0.68,0.43
					l-0.45-0.5c0.28-0.25,0.57-0.44,0.88-0.56c0.31-0.12,0.66-0.18,1.03-0.18c0.59,0,1.04,0.15,1.34,0.46s0.45,0.77,0.45,1.38V37.07
					z M62.29,35.08v-0.47l-1.16,0.16c-0.36,0.05-0.62,0.14-0.8,0.27c-0.18,0.13-0.26,0.33-0.26,0.61c0,0.28,0.08,0.49,0.25,0.64
					c0.17,0.15,0.37,0.23,0.62,0.23c0.41,0,0.74-0.14,0.98-0.41C62.17,35.85,62.29,35.5,62.29,35.08z"/>
				<path class="st8" d="M69.59,30.69c-0.09-0.03-0.17-0.05-0.24-0.07c-0.07-0.01-0.15-0.02-0.22-0.02c-0.26,0-0.45,0.07-0.57,0.2
					c-0.12,0.14-0.19,0.34-0.19,0.6v0.79h1.12v0.69h-1.12v4.18h-0.82v-4.18h-0.82V32.2h0.82v-0.83c0-0.46,0.14-0.81,0.42-1.07
					s0.67-0.39,1.16-0.39c0.12,0,0.24,0.01,0.34,0.03c0.1,0.02,0.21,0.04,0.32,0.08L69.59,30.69z"/>
				<path class="st8" d="M74.39,37.07h-0.83V36.3h-0.02c-0.16,0.3-0.37,0.52-0.62,0.67c-0.25,0.15-0.55,0.22-0.88,0.22
					c-0.58,0-1.01-0.17-1.3-0.52c-0.29-0.35-0.43-0.87-0.43-1.56V32.2h0.83v2.79c0,0.5,0.1,0.88,0.29,1.13
					c0.19,0.25,0.48,0.38,0.87,0.38c0.37,0,0.68-0.14,0.92-0.41c0.24-0.28,0.36-0.64,0.36-1.09v-2.8h0.83V37.07z"/>
				<path class="st8" d="M80.08,37.07h-0.83v-2.78c0-0.51-0.09-0.89-0.28-1.14c-0.19-0.25-0.46-0.38-0.83-0.38
					c-0.38,0-0.7,0.14-0.95,0.43s-0.38,0.65-0.38,1.09v2.78h-0.83V32.2h0.83v0.81h0.02c0.18-0.31,0.41-0.54,0.67-0.69
					c0.27-0.15,0.57-0.23,0.92-0.23c0.53,0,0.94,0.17,1.22,0.52s0.42,0.84,0.42,1.49V37.07z"/>
				<path class="st8" d="M85.07,36.77c-0.23,0.15-0.46,0.26-0.7,0.32c-0.23,0.07-0.48,0.1-0.75,0.1c-0.7,0-1.27-0.21-1.7-0.64
					c-0.44-0.43-0.66-1.03-0.66-1.8c0-0.8,0.22-1.44,0.67-1.93c0.45-0.49,1.06-0.73,1.84-0.73c0.25,0,0.49,0.03,0.72,0.09
					s0.45,0.16,0.68,0.29l-0.35,0.6c-0.18-0.11-0.35-0.18-0.52-0.23c-0.17-0.04-0.35-0.07-0.55-0.07c-0.53,0-0.94,0.18-1.22,0.53
					c-0.28,0.35-0.43,0.8-0.43,1.35c0,0.59,0.15,1.05,0.44,1.37c0.3,0.32,0.68,0.47,1.14,0.47c0.16,0,0.32-0.02,0.49-0.07
					c0.17-0.05,0.34-0.13,0.52-0.24L85.07,36.77z"/>
				<path class="st8" d="M86.63,31.17c-0.16,0-0.3-0.05-0.41-0.16s-0.16-0.24-0.16-0.39c0-0.16,0.05-0.29,0.16-0.4
					c0.11-0.11,0.24-0.16,0.41-0.16s0.3,0.05,0.41,0.16c0.11,0.11,0.17,0.24,0.17,0.4c0,0.15-0.05,0.29-0.17,0.39
					C86.93,31.11,86.79,31.17,86.63,31.17z M87.03,37.07H86.2V32.2h0.83V37.07z"/>
				<path class="st8" d="M90.76,37.19c-0.73,0-1.31-0.23-1.74-0.69c-0.43-0.46-0.65-1.06-0.65-1.82c0-0.81,0.22-1.45,0.67-1.91
					c0.45-0.46,1.05-0.69,1.83-0.69c0.73,0,1.3,0.22,1.72,0.67c0.41,0.45,0.62,1.07,0.62,1.85c0,0.78-0.22,1.41-0.66,1.88
					C92.1,36.95,91.5,37.19,90.76,37.19z M90.81,36.5c0.5,0,0.88-0.16,1.14-0.49s0.4-0.78,0.4-1.38c0-0.6-0.13-1.06-0.4-1.38
					s-0.65-0.48-1.14-0.48s-0.88,0.17-1.17,0.5c-0.29,0.34-0.43,0.8-0.43,1.39c0,0.57,0.14,1.02,0.43,1.35
					C89.94,36.34,90.33,36.5,90.81,36.5z"/>
				<path class="st8" d="M98.57,37.07h-0.83v-2.78c0-0.51-0.09-0.89-0.28-1.14s-0.46-0.38-0.83-0.38c-0.38,0-0.7,0.14-0.95,0.43
					s-0.38,0.65-0.38,1.09v2.78h-0.83V32.2h0.83v0.81h0.02c0.18-0.31,0.41-0.54,0.67-0.69c0.27-0.15,0.57-0.23,0.92-0.23
					c0.53,0,0.94,0.17,1.22,0.52c0.28,0.34,0.42,0.84,0.42,1.49V37.07z"/>
				<path class="st8" d="M103.58,37.07h-0.82v-0.77h-0.02c-0.17,0.29-0.38,0.51-0.62,0.66c-0.25,0.15-0.54,0.22-0.86,0.22
					c-0.46,0-0.83-0.13-1.11-0.4c-0.28-0.27-0.42-0.62-0.42-1.05c0-0.42,0.14-0.77,0.43-1.04s0.7-0.45,1.23-0.52l1.38-0.19v-0.11
					c0-0.39-0.09-0.68-0.28-0.85c-0.19-0.17-0.44-0.26-0.75-0.26c-0.25,0-0.5,0.05-0.73,0.14c-0.24,0.1-0.46,0.24-0.68,0.43
					l-0.45-0.5c0.28-0.25,0.57-0.44,0.88-0.56s0.66-0.18,1.03-0.18c0.59,0,1.04,0.15,1.34,0.46s0.45,0.77,0.45,1.38V37.07z
					 M102.76,35.08v-0.47l-1.16,0.16c-0.36,0.05-0.62,0.14-0.8,0.27c-0.18,0.13-0.26,0.33-0.26,0.61c0,0.28,0.08,0.49,0.25,0.64
					c0.17,0.15,0.37,0.23,0.62,0.23c0.41,0,0.74-0.14,0.98-0.41C102.64,35.85,102.76,35.5,102.76,35.08z"/>
				<path class="st8" d="M105.11,37.07v-7.04h0.83v7.04H105.11z"/>
				<path class="st8" d="M107.97,31.17c-0.16,0-0.3-0.05-0.41-0.16s-0.16-0.24-0.16-0.39c0-0.16,0.05-0.29,0.16-0.4
					c0.11-0.11,0.25-0.16,0.41-0.16s0.3,0.05,0.41,0.16c0.11,0.11,0.16,0.24,0.16,0.4c0,0.15-0.05,0.29-0.16,0.39
					C108.27,31.11,108.14,31.17,107.97,31.17z M108.38,37.07h-0.83V32.2h0.83V37.07z"/>
				<path class="st8" d="M113.4,36.25c-0.18,0.31-0.41,0.54-0.68,0.7c-0.28,0.16-0.6,0.23-0.98,0.23c-0.61,0-1.1-0.22-1.47-0.66
					c-0.37-0.44-0.55-1.03-0.55-1.78c0-0.81,0.2-1.45,0.61-1.94c0.41-0.49,0.95-0.73,1.62-0.73c0.33,0,0.62,0.07,0.86,0.2
					s0.44,0.33,0.59,0.59h0.02v-2.84h0.83v7.04h-0.83v-0.82H113.4z M110.56,34.71c0,0.56,0.13,1,0.39,1.31
					c0.26,0.32,0.6,0.48,1.03,0.48c0.43,0,0.78-0.15,1.04-0.46c0.26-0.31,0.39-0.7,0.39-1.17v-0.7c0-0.39-0.13-0.72-0.38-0.99
					c-0.26-0.27-0.58-0.4-0.97-0.4c-0.47,0-0.83,0.17-1.1,0.52C110.7,33.63,110.56,34.1,110.56,34.71z"/>
				<path class="st8" d="M119.36,37.07h-0.82v-0.77h-0.02c-0.17,0.29-0.38,0.51-0.62,0.66c-0.25,0.15-0.54,0.22-0.86,0.22
					c-0.46,0-0.83-0.13-1.11-0.4c-0.28-0.27-0.42-0.62-0.42-1.05c0-0.42,0.14-0.77,0.43-1.04s0.7-0.45,1.23-0.52l1.38-0.19v-0.11
					c0-0.39-0.09-0.68-0.28-0.85c-0.19-0.17-0.44-0.26-0.75-0.26c-0.25,0-0.5,0.05-0.73,0.14c-0.24,0.1-0.46,0.24-0.68,0.43
					l-0.45-0.5c0.28-0.25,0.57-0.44,0.88-0.56s0.66-0.18,1.03-0.18c0.59,0,1.04,0.15,1.34,0.46s0.45,0.77,0.45,1.38V37.07z
					 M118.54,35.08v-0.47l-1.16,0.16c-0.36,0.05-0.62,0.14-0.8,0.27c-0.18,0.13-0.26,0.33-0.26,0.61c0,0.28,0.08,0.49,0.25,0.64
					c0.17,0.15,0.37,0.23,0.62,0.23c0.41,0,0.74-0.14,0.98-0.41C118.42,35.85,118.54,35.5,118.54,35.08z"/>
				<path class="st8" d="M124.25,36.25c-0.18,0.31-0.41,0.54-0.68,0.7c-0.28,0.16-0.6,0.23-0.98,0.23c-0.61,0-1.1-0.22-1.47-0.66
					c-0.37-0.44-0.55-1.03-0.55-1.78c0-0.81,0.2-1.45,0.61-1.94c0.41-0.49,0.95-0.73,1.62-0.73c0.33,0,0.62,0.07,0.86,0.2
					s0.44,0.33,0.59,0.59h0.02v-2.84h0.83v7.04h-0.83v-0.82H124.25z M121.42,34.71c0,0.56,0.13,1,0.39,1.31
					c0.26,0.32,0.6,0.48,1.03,0.48c0.43,0,0.78-0.15,1.04-0.46c0.26-0.31,0.39-0.7,0.39-1.17v-0.7c0-0.39-0.13-0.72-0.38-0.99
					c-0.26-0.27-0.58-0.4-0.97-0.4c-0.47,0-0.83,0.17-1.1,0.52C121.55,33.63,121.42,34.1,121.42,34.71z"/>
				<path class="st8" d="M130.66,34.82h-3.43c0.02,0.54,0.16,0.95,0.43,1.24c0.27,0.29,0.65,0.43,1.15,0.43
					c0.21,0,0.43-0.03,0.66-0.1s0.45-0.18,0.68-0.33l0.38,0.58c-0.28,0.19-0.56,0.32-0.85,0.41c-0.29,0.09-0.6,0.13-0.94,0.13
					c-0.74,0-1.31-0.22-1.72-0.66s-0.62-1.05-0.62-1.84c0-0.78,0.21-1.41,0.62-1.89c0.42-0.48,0.96-0.72,1.63-0.72
					c0.64,0,1.13,0.21,1.49,0.62c0.35,0.41,0.53,0.99,0.53,1.73V34.82z M129.83,34.17c0-0.45-0.11-0.8-0.32-1.04
					c-0.21-0.25-0.5-0.37-0.88-0.37c-0.37,0-0.67,0.13-0.93,0.38c-0.25,0.26-0.41,0.6-0.46,1.03H129.83z"/>
				<path class="st8" d="M137.99,37.07h-0.82v-0.77h-0.02c-0.17,0.29-0.38,0.51-0.62,0.66c-0.25,0.15-0.54,0.22-0.86,0.22
					c-0.46,0-0.83-0.13-1.11-0.4c-0.28-0.27-0.42-0.62-0.42-1.05c0-0.42,0.14-0.77,0.43-1.04s0.7-0.45,1.23-0.52l1.38-0.19v-0.11
					c0-0.39-0.09-0.68-0.28-0.85c-0.19-0.17-0.44-0.26-0.75-0.26c-0.25,0-0.5,0.05-0.73,0.14c-0.24,0.1-0.46,0.24-0.68,0.43
					l-0.45-0.5c0.28-0.25,0.57-0.44,0.88-0.56s0.66-0.18,1.03-0.18c0.59,0,1.04,0.15,1.34,0.46s0.45,0.77,0.45,1.38V37.07z
					 M137.17,35.08v-0.47l-1.16,0.16c-0.36,0.05-0.62,0.14-0.8,0.27c-0.18,0.13-0.26,0.33-0.26,0.61c0,0.28,0.08,0.49,0.25,0.64
					c0.17,0.15,0.37,0.23,0.62,0.23c0.41,0,0.74-0.14,0.98-0.41C137.05,35.85,137.17,35.5,137.17,35.08z"/>
				<path class="st8" d="M139.95,31.17c-0.16,0-0.3-0.05-0.41-0.16s-0.16-0.24-0.16-0.39c0-0.16,0.05-0.29,0.16-0.4
					c0.11-0.11,0.25-0.16,0.41-0.16s0.3,0.05,0.41,0.16c0.11,0.11,0.16,0.24,0.16,0.4c0,0.15-0.05,0.29-0.16,0.39
					C140.25,31.11,140.11,31.17,139.95,31.17z M140.35,37.07h-0.83V32.2h0.83V37.07z"/>
				<path class="st8" d="M146.1,37.07h-0.83v-2.78c0-0.51-0.09-0.89-0.28-1.14s-0.46-0.38-0.83-0.38c-0.38,0-0.7,0.14-0.95,0.43
					s-0.38,0.65-0.38,1.09v2.78h-0.83V32.2h0.83v0.81h0.02c0.18-0.31,0.41-0.54,0.67-0.69c0.27-0.15,0.57-0.23,0.92-0.23
					c0.53,0,0.94,0.17,1.22,0.52c0.28,0.34,0.42,0.84,0.42,1.49V37.07z"/>
				<path class="st8" d="M150.97,36.25c-0.18,0.31-0.41,0.54-0.68,0.7c-0.28,0.16-0.6,0.23-0.98,0.23c-0.61,0-1.1-0.22-1.47-0.66
					c-0.37-0.44-0.55-1.03-0.55-1.78c0-0.81,0.2-1.45,0.61-1.94c0.41-0.49,0.95-0.73,1.62-0.73c0.33,0,0.62,0.07,0.86,0.2
					s0.44,0.33,0.59,0.59h0.02v-2.84h0.83v7.04h-0.83v-0.82H150.97z M148.13,34.71c0,0.56,0.13,1,0.39,1.31
					c0.26,0.32,0.6,0.48,1.03,0.48c0.43,0,0.78-0.15,1.04-0.46c0.26-0.31,0.39-0.7,0.39-1.17v-0.7c0-0.39-0.13-0.72-0.38-0.99
					c-0.26-0.27-0.58-0.4-0.97-0.4c-0.47,0-0.83,0.17-1.1,0.52C148.26,33.63,148.13,34.1,148.13,34.71z"/>
				<path class="st8" d="M156.93,37.07h-0.82v-0.77h-0.02c-0.17,0.29-0.38,0.51-0.62,0.66c-0.25,0.15-0.54,0.22-0.86,0.22
					c-0.46,0-0.83-0.13-1.11-0.4c-0.28-0.27-0.42-0.62-0.42-1.05c0-0.42,0.14-0.77,0.43-1.04s0.7-0.45,1.23-0.52l1.38-0.19v-0.11
					c0-0.39-0.09-0.68-0.28-0.85c-0.19-0.17-0.44-0.26-0.75-0.26c-0.25,0-0.5,0.05-0.73,0.14c-0.24,0.1-0.46,0.24-0.68,0.43
					l-0.45-0.5c0.28-0.25,0.57-0.44,0.88-0.56s0.66-0.18,1.03-0.18c0.59,0,1.04,0.15,1.34,0.46s0.45,0.77,0.45,1.38V37.07z
					 M156.11,35.08v-0.47l-1.16,0.16c-0.36,0.05-0.62,0.14-0.8,0.27c-0.18,0.13-0.26,0.33-0.26,0.61c0,0.28,0.08,0.49,0.25,0.64
					c0.17,0.15,0.37,0.23,0.62,0.23c0.41,0,0.74-0.14,0.98-0.41C155.98,35.85,156.11,35.5,156.11,35.08z"/>
				<path class="st8" d="M23.88,48.49h-0.83v-2.78c0-0.51-0.09-0.89-0.28-1.14c-0.19-0.25-0.46-0.38-0.83-0.38
					c-0.38,0-0.7,0.14-0.95,0.43s-0.38,0.65-0.38,1.09v2.78h-0.83v-4.87h0.83v0.81h0.02c0.18-0.31,0.41-0.54,0.67-0.69
					c0.27-0.15,0.57-0.23,0.92-0.23c0.53,0,0.94,0.17,1.22,0.52s0.42,0.84,0.42,1.49V48.49z"/>
				<path class="st8" d="M28.89,48.49h-0.82v-0.77h-0.02c-0.17,0.29-0.37,0.51-0.62,0.66c-0.25,0.15-0.54,0.22-0.86,0.22
					c-0.46,0-0.83-0.13-1.11-0.4s-0.42-0.62-0.42-1.05c0-0.42,0.14-0.77,0.43-1.04c0.28-0.27,0.69-0.45,1.23-0.52l1.38-0.19v-0.11
					c0-0.39-0.09-0.68-0.28-0.85c-0.19-0.17-0.44-0.26-0.75-0.26c-0.25,0-0.5,0.05-0.73,0.14c-0.24,0.1-0.46,0.24-0.68,0.43
					l-0.45-0.5c0.28-0.25,0.57-0.44,0.88-0.56c0.31-0.12,0.66-0.18,1.03-0.18c0.59,0,1.04,0.15,1.34,0.46s0.45,0.77,0.45,1.38V48.49
					z M28.63,41.6c0,0.34-0.08,0.61-0.23,0.82c-0.15,0.21-0.36,0.31-0.61,0.31c-0.11,0-0.23-0.02-0.36-0.06
					c-0.13-0.04-0.26-0.1-0.4-0.18c-0.12-0.07-0.23-0.12-0.32-0.16s-0.17-0.05-0.23-0.05c-0.14,0-0.24,0.04-0.31,0.13
					c-0.07,0.09-0.1,0.22-0.1,0.39h-0.46c0-0.34,0.07-0.62,0.23-0.82c0.15-0.2,0.36-0.3,0.63-0.3c0.1,0,0.21,0.02,0.33,0.06
					c0.12,0.04,0.24,0.1,0.37,0.18c0.12,0.07,0.23,0.12,0.32,0.15s0.19,0.05,0.27,0.05c0.13,0,0.23-0.04,0.29-0.13s0.1-0.22,0.1-0.4
					H28.63z M28.07,46.5v-0.47l-1.16,0.16c-0.36,0.05-0.62,0.14-0.8,0.27c-0.18,0.13-0.26,0.33-0.26,0.61
					c0,0.28,0.08,0.49,0.25,0.64c0.17,0.15,0.37,0.23,0.62,0.23c0.41,0,0.74-0.14,0.98-0.41C27.95,47.26,28.07,46.92,28.07,46.5z"/>
				<path class="st8" d="M32.49,48.6c-0.73,0-1.31-0.23-1.74-0.69c-0.43-0.46-0.65-1.06-0.65-1.82c0-0.81,0.22-1.45,0.67-1.91
					s1.05-0.69,1.83-0.69c0.73,0,1.3,0.22,1.72,0.67c0.41,0.45,0.62,1.07,0.62,1.85c0,0.78-0.22,1.41-0.66,1.88
					S33.23,48.6,32.49,48.6z M32.55,47.91c0.5,0,0.88-0.16,1.14-0.49s0.4-0.78,0.4-1.38c0-0.6-0.13-1.06-0.4-1.38
					c-0.27-0.32-0.65-0.48-1.14-0.48s-0.88,0.17-1.17,0.5s-0.43,0.8-0.43,1.39c0,0.57,0.14,1.02,0.43,1.35
					C31.67,47.75,32.06,47.91,32.55,47.91z"/>
				<path class="st8" d="M41.17,42.1c-0.09-0.03-0.17-0.05-0.24-0.07c-0.07-0.01-0.15-0.02-0.22-0.02c-0.26,0-0.45,0.07-0.57,0.2
					c-0.12,0.14-0.19,0.34-0.19,0.6v0.79h1.12v0.69h-1.12v4.18h-0.82V44.3H38.3v-0.69h0.82v-0.83c0-0.46,0.14-0.81,0.42-1.07
					s0.67-0.39,1.16-0.39c0.12,0,0.24,0.01,0.34,0.03c0.1,0.02,0.21,0.04,0.32,0.08L41.17,42.1z"/>
				<path class="st8" d="M44.05,48.6c-0.73,0-1.31-0.23-1.74-0.69c-0.43-0.46-0.65-1.06-0.65-1.82c0-0.81,0.22-1.45,0.67-1.91
					s1.05-0.69,1.83-0.69c0.73,0,1.3,0.22,1.72,0.67c0.41,0.45,0.62,1.07,0.62,1.85c0,0.78-0.22,1.41-0.66,1.88
					S44.79,48.6,44.05,48.6z M44.1,47.91c0.5,0,0.88-0.16,1.14-0.49s0.4-0.78,0.4-1.38c0-0.6-0.13-1.06-0.4-1.38
					c-0.27-0.32-0.65-0.48-1.14-0.48s-0.88,0.17-1.17,0.5s-0.43,0.8-0.43,1.39c0,0.57,0.14,1.02,0.43,1.35
					C43.22,47.75,43.61,47.91,44.1,47.91z"/>
				<path class="st8" d="M48.19,42.58c-0.16,0-0.3-0.05-0.41-0.16s-0.16-0.24-0.16-0.39c0-0.16,0.05-0.29,0.16-0.4
					c0.11-0.11,0.24-0.16,0.41-0.16s0.3,0.05,0.41,0.16c0.11,0.11,0.16,0.24,0.16,0.4c0,0.15-0.05,0.29-0.16,0.39
					S48.36,42.58,48.19,42.58z M48.6,48.49h-0.83v-4.87h0.83V48.49z"/>
				<path class="st8" d="M53.29,42.58c-0.16,0-0.3-0.05-0.41-0.16s-0.16-0.24-0.16-0.39c0-0.16,0.05-0.29,0.16-0.4
					c0.11-0.11,0.24-0.16,0.41-0.16s0.3,0.05,0.41,0.16c0.11,0.11,0.16,0.24,0.16,0.4c0,0.15-0.05,0.29-0.16,0.39
					S53.45,42.58,53.29,42.58z M53.69,48.49h-0.83v-4.87h0.83V48.49z"/>
				<path class="st8" d="M62.33,48.49H61.5v-2.8c0-0.53-0.08-0.91-0.25-1.15s-0.44-0.35-0.82-0.35c-0.33,0-0.61,0.15-0.83,0.45
					c-0.23,0.3-0.34,0.66-0.34,1.08v2.78h-0.83V45.6c0-0.47-0.09-0.82-0.27-1.06s-0.45-0.35-0.82-0.35c-0.34,0-0.62,0.14-0.83,0.42
					c-0.22,0.28-0.33,0.65-0.33,1.11v2.77h-0.83v-4.87h0.83v0.77h0.02c0.17-0.29,0.39-0.52,0.64-0.66c0.25-0.15,0.55-0.22,0.88-0.22
					c0.33,0,0.62,0.09,0.87,0.27s0.42,0.43,0.51,0.73c0.18-0.33,0.4-0.59,0.68-0.75s0.58-0.25,0.94-0.25c0.54,0,0.94,0.17,1.21,0.5
					s0.4,0.83,0.4,1.49V48.49z"/>
				<path class="st8" d="M64.68,47.78h-0.02v2.89h-0.83v-7.06h0.83v0.85h0.02c0.19-0.32,0.43-0.56,0.71-0.72s0.6-0.24,0.97-0.24
					c0.63,0,1.12,0.22,1.47,0.66s0.53,1.02,0.53,1.76c0,0.81-0.2,1.47-0.6,1.96c-0.4,0.49-0.94,0.74-1.62,0.74
					c-0.32,0-0.6-0.07-0.84-0.2C65.06,48.26,64.85,48.06,64.68,47.78z M64.66,45.82v0.65c0,0.4,0.13,0.74,0.39,1.02
					c0.26,0.28,0.59,0.42,0.98,0.42c0.46,0,0.82-0.18,1.09-0.53c0.26-0.36,0.39-0.85,0.39-1.49c0-0.54-0.12-0.95-0.37-1.26
					c-0.24-0.3-0.58-0.45-1-0.45c-0.45,0-0.81,0.16-1.08,0.47C64.79,44.96,64.66,45.35,64.66,45.82z"/>
				<path class="st8" d="M69.64,48.49v-7.04h0.83v7.04H69.64z"/>
				<path class="st8" d="M76.03,46.24H72.6c0.02,0.54,0.16,0.95,0.43,1.24c0.27,0.29,0.65,0.43,1.15,0.43c0.21,0,0.43-0.03,0.66-0.1
					s0.45-0.18,0.68-0.33l0.38,0.58c-0.28,0.19-0.56,0.32-0.85,0.41c-0.29,0.09-0.6,0.13-0.94,0.13c-0.74,0-1.31-0.22-1.72-0.66
					c-0.41-0.44-0.62-1.05-0.62-1.84c0-0.78,0.21-1.41,0.62-1.89c0.42-0.48,0.96-0.72,1.63-0.72c0.64,0,1.13,0.21,1.49,0.62
					c0.35,0.41,0.53,0.99,0.53,1.73V46.24z M75.19,45.59c0-0.45-0.11-0.8-0.32-1.04c-0.21-0.25-0.5-0.37-0.88-0.37
					c-0.37,0-0.67,0.13-0.93,0.38c-0.25,0.26-0.41,0.6-0.46,1.03H75.19z"/>
				<path class="st8" d="M84.22,48.49h-0.83v-2.8c0-0.53-0.08-0.91-0.25-1.15s-0.44-0.35-0.82-0.35c-0.33,0-0.61,0.15-0.83,0.45
					c-0.23,0.3-0.34,0.66-0.34,1.08v2.78h-0.83V45.6c0-0.47-0.09-0.82-0.27-1.06s-0.45-0.35-0.82-0.35c-0.34,0-0.62,0.14-0.83,0.42
					c-0.22,0.28-0.33,0.65-0.33,1.11v2.77h-0.83v-4.87h0.83v0.77h0.02c0.17-0.29,0.39-0.52,0.64-0.66c0.25-0.15,0.55-0.22,0.88-0.22
					c0.33,0,0.62,0.09,0.87,0.27s0.42,0.43,0.51,0.73c0.18-0.33,0.4-0.59,0.68-0.75s0.58-0.25,0.94-0.25c0.54,0,0.94,0.17,1.21,0.5
					s0.4,0.83,0.4,1.49V48.49z"/>
				<path class="st8" d="M89.68,46.24h-3.43c0.02,0.54,0.16,0.95,0.43,1.24c0.27,0.29,0.66,0.43,1.15,0.43
					c0.21,0,0.43-0.03,0.66-0.1s0.45-0.18,0.68-0.33l0.38,0.58c-0.28,0.19-0.57,0.32-0.85,0.41c-0.29,0.09-0.6,0.13-0.94,0.13
					c-0.74,0-1.31-0.22-1.72-0.66c-0.41-0.44-0.62-1.05-0.62-1.84c0-0.78,0.21-1.41,0.62-1.89S87,43.5,87.66,43.5
					c0.64,0,1.13,0.21,1.49,0.62c0.35,0.41,0.53,0.99,0.53,1.73V46.24z M88.85,45.59c0-0.45-0.11-0.8-0.32-1.04
					c-0.21-0.25-0.5-0.37-0.88-0.37c-0.37,0-0.67,0.13-0.93,0.38c-0.25,0.26-0.41,0.6-0.46,1.03H88.85z"/>
				<path class="st8" d="M94.99,48.49h-0.83v-2.78c0-0.51-0.09-0.89-0.28-1.14s-0.46-0.38-0.83-0.38c-0.38,0-0.7,0.14-0.95,0.43
					s-0.38,0.65-0.38,1.09v2.78H90.9v-4.87h0.83v0.81h0.02c0.18-0.31,0.41-0.54,0.67-0.69c0.27-0.15,0.57-0.23,0.92-0.23
					c0.53,0,0.94,0.17,1.22,0.52c0.28,0.34,0.42,0.84,0.42,1.49V48.49z"/>
				<path class="st8" d="M98.88,48.43c-0.13,0.06-0.26,0.1-0.4,0.12s-0.28,0.04-0.44,0.04c-0.4,0-0.71-0.12-0.94-0.34
					c-0.22-0.23-0.34-0.57-0.34-1.02V44.3h-0.83v-0.69h0.83V42.5l0.83-0.26v1.38h1.22v0.69H97.6v2.83c0,0.28,0.05,0.47,0.15,0.6
					s0.25,0.18,0.45,0.18c0.09,0,0.18-0.01,0.27-0.03c0.09-0.02,0.16-0.05,0.22-0.08L98.88,48.43z"/>
				<path class="st8" d="M103.42,48.49h-0.82v-0.77h-0.02c-0.17,0.29-0.38,0.51-0.62,0.66c-0.25,0.15-0.54,0.22-0.86,0.22
					c-0.46,0-0.83-0.13-1.11-0.4c-0.28-0.27-0.42-0.62-0.42-1.05c0-0.42,0.14-0.77,0.43-1.04s0.7-0.45,1.23-0.52l1.38-0.19v-0.11
					c0-0.39-0.09-0.68-0.28-0.85c-0.19-0.17-0.44-0.26-0.75-0.26c-0.25,0-0.5,0.05-0.73,0.14c-0.24,0.1-0.46,0.24-0.68,0.43
					l-0.45-0.5c0.28-0.25,0.57-0.44,0.88-0.56s0.66-0.18,1.03-0.18c0.59,0,1.04,0.15,1.34,0.46s0.45,0.77,0.45,1.38V48.49z
					 M102.6,46.5v-0.47l-1.16,0.16c-0.36,0.05-0.62,0.14-0.8,0.27c-0.18,0.13-0.26,0.33-0.26,0.61c0,0.28,0.08,0.49,0.25,0.64
					c0.17,0.15,0.37,0.23,0.62,0.23c0.41,0,0.74-0.14,0.98-0.41C102.48,47.26,102.6,46.92,102.6,46.5z"/>
				<path class="st8" d="M108.32,47.67c-0.18,0.31-0.41,0.54-0.68,0.7c-0.28,0.16-0.6,0.23-0.98,0.23c-0.61,0-1.1-0.22-1.47-0.66
					c-0.37-0.44-0.55-1.03-0.55-1.78c0-0.81,0.2-1.45,0.61-1.94c0.41-0.49,0.95-0.73,1.62-0.73c0.33,0,0.62,0.07,0.86,0.2
					s0.44,0.33,0.59,0.59h0.02v-2.84h0.83v7.04h-0.83v-0.82H108.32z M105.48,46.12c0,0.56,0.13,1,0.39,1.31
					c0.26,0.32,0.6,0.48,1.03,0.48c0.43,0,0.78-0.15,1.04-0.46c0.26-0.31,0.39-0.7,0.39-1.17v-0.7c0-0.39-0.13-0.72-0.38-0.99
					c-0.26-0.27-0.58-0.4-0.97-0.4c-0.47,0-0.83,0.17-1.1,0.52C105.61,45.04,105.48,45.52,105.48,46.12z"/>
				<path class="st8" d="M114.28,48.49h-0.82v-0.77h-0.02c-0.17,0.29-0.38,0.51-0.62,0.66c-0.25,0.15-0.54,0.22-0.86,0.22
					c-0.46,0-0.83-0.13-1.11-0.4c-0.28-0.27-0.42-0.62-0.42-1.05c0-0.42,0.14-0.77,0.43-1.04s0.7-0.45,1.23-0.52l1.38-0.19v-0.11
					c0-0.39-0.09-0.68-0.28-0.85c-0.19-0.17-0.44-0.26-0.75-0.26c-0.25,0-0.5,0.05-0.73,0.14c-0.24,0.1-0.46,0.24-0.68,0.43
					l-0.45-0.5c0.28-0.25,0.57-0.44,0.88-0.56s0.66-0.18,1.03-0.18c0.59,0,1.04,0.15,1.34,0.46s0.45,0.77,0.45,1.38V48.49z
					 M113.46,46.5v-0.47l-1.16,0.16c-0.36,0.05-0.62,0.14-0.8,0.27c-0.18,0.13-0.26,0.33-0.26,0.61c0,0.28,0.08,0.49,0.25,0.64
					c0.17,0.15,0.37,0.23,0.62,0.23c0.41,0,0.74-0.14,0.98-0.41C113.33,47.26,113.46,46.92,113.46,46.5z"/>
				<path class="st8" d="M120.48,48.6c-0.73,0-1.31-0.23-1.74-0.69c-0.43-0.46-0.65-1.06-0.65-1.82c0-0.81,0.22-1.45,0.67-1.91
					c0.45-0.46,1.05-0.69,1.83-0.69c0.73,0,1.3,0.22,1.72,0.67c0.41,0.45,0.62,1.07,0.62,1.85c0,0.78-0.22,1.41-0.66,1.88
					C121.82,48.37,121.22,48.6,120.48,48.6z M120.54,47.91c0.5,0,0.88-0.16,1.14-0.49s0.4-0.78,0.4-1.38c0-0.6-0.13-1.06-0.4-1.38
					c-0.27-0.32-0.65-0.48-1.14-0.48s-0.88,0.17-1.17,0.5c-0.29,0.34-0.43,0.8-0.43,1.39c0,0.57,0.14,1.02,0.43,1.35
					C119.66,47.75,120.05,47.91,120.54,47.91z"/>
				<path class="st8" d="M128.19,48.49h-0.83v-0.78h-0.02c-0.16,0.3-0.37,0.52-0.62,0.67c-0.25,0.15-0.55,0.22-0.88,0.22
					c-0.58,0-1.01-0.17-1.3-0.52c-0.29-0.35-0.43-0.87-0.43-1.56v-2.91h0.83v2.79c0,0.5,0.1,0.88,0.29,1.13
					c0.19,0.25,0.48,0.38,0.87,0.38c0.37,0,0.68-0.14,0.92-0.41c0.24-0.28,0.36-0.64,0.36-1.09v-2.8h0.83V48.49z"/>
				<path class="st8" d="M136.35,46.24h-3.43c0.02,0.54,0.16,0.95,0.43,1.24c0.27,0.29,0.65,0.43,1.15,0.43
					c0.21,0,0.43-0.03,0.66-0.1s0.45-0.18,0.68-0.33l0.38,0.58c-0.28,0.19-0.56,0.32-0.85,0.41c-0.29,0.09-0.6,0.13-0.94,0.13
					c-0.74,0-1.31-0.22-1.72-0.66s-0.62-1.05-0.62-1.84c0-0.78,0.21-1.41,0.62-1.89c0.42-0.48,0.96-0.72,1.63-0.72
					c0.64,0,1.13,0.21,1.49,0.62c0.35,0.41,0.53,0.99,0.53,1.73V46.24z M135.52,45.59c0-0.45-0.11-0.8-0.32-1.04
					c-0.21-0.25-0.5-0.37-0.88-0.37c-0.37,0-0.67,0.13-0.93,0.38c-0.25,0.26-0.41,0.6-0.46,1.03H135.52z"/>
				<path class="st8" d="M137.14,48.12l0.38-0.62c0.21,0.14,0.41,0.24,0.61,0.31c0.2,0.07,0.42,0.11,0.66,0.11
					c0.33,0,0.57-0.06,0.74-0.18c0.17-0.12,0.26-0.3,0.26-0.54c0-0.2-0.08-0.36-0.23-0.49c-0.15-0.13-0.39-0.24-0.71-0.32
					c-0.6-0.15-1.02-0.35-1.24-0.58c-0.23-0.24-0.34-0.53-0.34-0.88c0-0.41,0.16-0.75,0.47-1.02c0.31-0.27,0.74-0.4,1.28-0.4
					c0.26,0,0.51,0.03,0.74,0.1c0.23,0.07,0.47,0.18,0.71,0.33l-0.36,0.61c-0.22-0.14-0.41-0.23-0.58-0.29
					c-0.17-0.05-0.35-0.08-0.53-0.08c-0.31,0-0.54,0.06-0.71,0.17c-0.16,0.11-0.25,0.28-0.25,0.5c0,0.21,0.08,0.37,0.24,0.48
					c0.16,0.11,0.43,0.21,0.8,0.31c0.5,0.13,0.87,0.32,1.12,0.55c0.25,0.24,0.37,0.55,0.37,0.95c0,0.45-0.16,0.81-0.49,1.07
					s-0.76,0.4-1.32,0.4c-0.3,0-0.59-0.04-0.87-0.12S137.38,48.28,137.14,48.12z"/>
				<path class="st8" d="M144.18,48.43c-0.13,0.06-0.26,0.1-0.4,0.12s-0.28,0.04-0.44,0.04c-0.4,0-0.71-0.12-0.94-0.34
					c-0.22-0.23-0.34-0.57-0.34-1.02V44.3h-0.83v-0.69h0.83V42.5l0.83-0.26v1.38h1.22v0.69h-1.22v2.83c0,0.28,0.05,0.47,0.15,0.6
					s0.25,0.18,0.45,0.18c0.09,0,0.18-0.01,0.27-0.03c0.09-0.02,0.16-0.05,0.22-0.08L144.18,48.43z"/>
				<path class="st8" d="M148.72,48.49h-0.82v-0.77h-0.02c-0.17,0.29-0.38,0.51-0.62,0.66c-0.25,0.15-0.54,0.22-0.86,0.22
					c-0.46,0-0.83-0.13-1.11-0.4c-0.28-0.27-0.42-0.62-0.42-1.05c0-0.42,0.14-0.77,0.43-1.04s0.7-0.45,1.23-0.52l1.38-0.19v-0.11
					c0-0.39-0.09-0.68-0.28-0.85c-0.19-0.17-0.44-0.26-0.75-0.26c-0.25,0-0.5,0.05-0.73,0.14c-0.24,0.1-0.46,0.24-0.68,0.43
					l-0.45-0.5c0.28-0.25,0.57-0.44,0.88-0.56s0.66-0.18,1.03-0.18c0.59,0,1.04,0.15,1.34,0.46s0.45,0.77,0.45,1.38V48.49z
					 M147.9,46.5v-0.47l-1.16,0.16c-0.36,0.05-0.62,0.14-0.8,0.27c-0.18,0.13-0.26,0.33-0.26,0.61c0,0.28,0.08,0.49,0.25,0.64
					c0.17,0.15,0.37,0.23,0.62,0.23c0.41,0,0.74-0.14,0.98-0.41C147.78,47.26,147.9,46.92,147.9,46.5z M146.93,42.75h-0.64
					l1.05-1.52h0.82L146.93,42.75z"/>
				<path class="st8" d="M29.43,54c-0.16,0-0.3-0.05-0.41-0.16s-0.16-0.24-0.16-0.39c0-0.16,0.05-0.29,0.16-0.4
					c0.11-0.11,0.24-0.16,0.41-0.16s0.3,0.05,0.41,0.16c0.11,0.11,0.16,0.24,0.16,0.4c0,0.15-0.05,0.29-0.16,0.39S29.6,54,29.43,54z
					 M29.84,59.9h-0.83v-4.87h0.83V59.9z"/>
				<path class="st8" d="M35.59,59.9h-0.83v-2.78c0-0.51-0.09-0.89-0.28-1.14c-0.19-0.25-0.46-0.38-0.83-0.38
					c-0.38,0-0.7,0.14-0.95,0.43s-0.38,0.65-0.38,1.09v2.78H31.5v-4.87h0.83v0.81h0.02c0.18-0.31,0.41-0.54,0.67-0.69
					c0.27-0.15,0.57-0.23,0.92-0.23c0.53,0,0.94,0.17,1.22,0.52s0.42,0.84,0.42,1.49V59.9z"/>
				<path class="st8" d="M40.6,59.9h-0.82v-0.77h-0.02c-0.17,0.29-0.37,0.51-0.62,0.66c-0.25,0.15-0.54,0.22-0.86,0.22
					c-0.46,0-0.83-0.13-1.11-0.4s-0.42-0.62-0.42-1.05c0-0.42,0.14-0.77,0.43-1.04c0.28-0.27,0.69-0.45,1.23-0.52l1.38-0.19v-0.11
					c0-0.39-0.09-0.68-0.28-0.85c-0.19-0.17-0.44-0.26-0.75-0.26c-0.25,0-0.5,0.05-0.73,0.14c-0.24,0.1-0.46,0.24-0.68,0.43
					l-0.45-0.5c0.28-0.25,0.57-0.44,0.88-0.56c0.31-0.12,0.66-0.18,1.03-0.18c0.59,0,1.04,0.15,1.34,0.46s0.45,0.77,0.45,1.38V59.9z
					 M39.78,57.91v-0.47l-1.16,0.16c-0.36,0.05-0.62,0.14-0.8,0.27c-0.18,0.13-0.26,0.33-0.26,0.61c0,0.28,0.08,0.49,0.25,0.64
					c0.17,0.15,0.37,0.23,0.62,0.23c0.41,0,0.74-0.14,0.98-0.41C39.66,58.67,39.78,58.33,39.78,57.91z"/>
				<path class="st8" d="M44.52,59.84c-0.13,0.06-0.27,0.1-0.4,0.12C43.99,59.99,43.84,60,43.68,60c-0.4,0-0.71-0.12-0.94-0.34
					c-0.22-0.23-0.34-0.57-0.34-1.02v-2.93h-0.83v-0.69h0.83v-1.11l0.83-0.26v1.38h1.22v0.69h-1.22v2.83c0,0.28,0.05,0.47,0.15,0.6
					c0.1,0.12,0.25,0.18,0.45,0.18c0.09,0,0.18-0.01,0.27-0.03c0.09-0.02,0.16-0.05,0.22-0.08L44.52,59.84z"/>
				<path class="st8" d="M45.97,54c-0.16,0-0.3-0.05-0.41-0.16s-0.16-0.24-0.16-0.39c0-0.16,0.05-0.29,0.16-0.4
					c0.11-0.11,0.24-0.16,0.41-0.16s0.3,0.05,0.41,0.16c0.11,0.11,0.16,0.24,0.16,0.4c0,0.15-0.05,0.29-0.16,0.39S46.14,54,45.97,54
					z M46.38,59.9h-0.83v-4.87h0.83V59.9z"/>
				<path class="st8" d="M51.95,55.03l-1.93,4.87h-0.83l-1.84-4.87h0.91l1.21,3.51c0.04,0.13,0.08,0.26,0.11,0.37
					c0.03,0.12,0.05,0.22,0.06,0.32h0.02c0.02-0.12,0.04-0.24,0.06-0.35c0.02-0.11,0.06-0.22,0.09-0.32l1.27-3.53H51.95z"/>
				<path class="st8" d="M56.35,59.9h-0.82v-0.77H55.5c-0.17,0.29-0.37,0.51-0.62,0.66c-0.25,0.15-0.54,0.22-0.86,0.22
					c-0.46,0-0.83-0.13-1.11-0.4s-0.42-0.62-0.42-1.05c0-0.42,0.14-0.77,0.43-1.04c0.28-0.27,0.69-0.45,1.23-0.52l1.38-0.19v-0.11
					c0-0.39-0.09-0.68-0.28-0.85c-0.19-0.17-0.44-0.26-0.75-0.26c-0.25,0-0.5,0.05-0.73,0.14c-0.24,0.1-0.46,0.24-0.68,0.43
					l-0.45-0.5c0.28-0.25,0.57-0.44,0.88-0.56c0.31-0.12,0.66-0.18,1.03-0.18c0.59,0,1.04,0.15,1.34,0.46s0.45,0.77,0.45,1.38V59.9z
					 M55.53,57.91v-0.47l-1.16,0.16c-0.36,0.05-0.62,0.14-0.8,0.27C53.39,58,53.3,58.2,53.3,58.48c0,0.28,0.08,0.49,0.25,0.64
					c0.17,0.15,0.37,0.23,0.62,0.23c0.41,0,0.74-0.14,0.98-0.41C55.4,58.67,55.53,58.33,55.53,57.91z"/>
				<path class="st8" d="M64.57,59.9h-0.83v-2.78c0-0.51-0.09-0.89-0.28-1.14c-0.19-0.25-0.46-0.38-0.83-0.38
					c-0.38,0-0.7,0.14-0.95,0.43s-0.38,0.65-0.38,1.09v2.78h-0.83v-4.87h0.83v0.81h0.02c0.18-0.31,0.41-0.54,0.67-0.69
					c0.27-0.15,0.57-0.23,0.92-0.23c0.53,0,0.94,0.17,1.22,0.52c0.28,0.34,0.42,0.84,0.42,1.49V59.9z"/>
				<path class="st8" d="M68.14,60.01c-0.73,0-1.31-0.23-1.74-0.69c-0.43-0.46-0.65-1.06-0.65-1.82c0-0.81,0.22-1.45,0.67-1.91
					s1.05-0.69,1.83-0.69c0.73,0,1.3,0.22,1.72,0.67c0.41,0.45,0.62,1.07,0.62,1.85c0,0.78-0.22,1.41-0.66,1.88
					S68.89,60.01,68.14,60.01z M68.2,59.33c0.5,0,0.88-0.16,1.14-0.49s0.4-0.78,0.4-1.38c0-0.6-0.13-1.06-0.4-1.38
					c-0.27-0.32-0.65-0.48-1.14-0.48s-0.88,0.17-1.17,0.5s-0.43,0.8-0.43,1.39c0,0.57,0.14,1.02,0.43,1.35
					C67.32,59.16,67.71,59.33,68.2,59.33z"/>
				<path class="st8" d="M81.45,59.9h-0.83v-2.8c0-0.53-0.08-0.91-0.25-1.15s-0.44-0.35-0.82-0.35c-0.33,0-0.61,0.15-0.83,0.45
					c-0.23,0.3-0.34,0.66-0.34,1.08v2.78h-0.83v-2.89c0-0.47-0.09-0.82-0.27-1.06s-0.45-0.35-0.82-0.35c-0.34,0-0.62,0.14-0.83,0.42
					c-0.22,0.28-0.33,0.65-0.33,1.11v2.77h-0.83v-4.87h0.83v0.77h0.02c0.17-0.29,0.39-0.52,0.64-0.66c0.25-0.15,0.55-0.22,0.88-0.22
					c0.33,0,0.62,0.09,0.87,0.27s0.42,0.43,0.51,0.73c0.18-0.33,0.4-0.59,0.68-0.75s0.58-0.25,0.94-0.25c0.54,0,0.94,0.17,1.21,0.5
					s0.4,0.83,0.4,1.49V59.9z"/>
				<path class="st8" d="M85.02,60.01c-0.73,0-1.31-0.23-1.74-0.69c-0.43-0.46-0.65-1.06-0.65-1.82c0-0.81,0.22-1.45,0.67-1.91
					s1.05-0.69,1.83-0.69c0.73,0,1.3,0.22,1.72,0.67c0.41,0.45,0.62,1.07,0.62,1.85c0,0.78-0.22,1.41-0.66,1.88
					C86.35,59.78,85.76,60.01,85.02,60.01z M85.07,59.33c0.5,0,0.88-0.16,1.14-0.49s0.4-0.78,0.4-1.38c0-0.6-0.13-1.06-0.4-1.38
					s-0.65-0.48-1.14-0.48s-0.88,0.17-1.17,0.5s-0.43,0.8-0.43,1.39c0,0.57,0.14,1.02,0.43,1.35C84.2,59.16,84.59,59.33,85.07,59.33
					z"/>
				<path class="st8" d="M95.72,59.9h-0.83v-2.8c0-0.53-0.08-0.91-0.25-1.15s-0.44-0.35-0.82-0.35c-0.33,0-0.61,0.15-0.83,0.45
					c-0.23,0.3-0.34,0.66-0.34,1.08v2.78h-0.83v-2.89c0-0.47-0.09-0.82-0.27-1.06c-0.18-0.24-0.45-0.35-0.82-0.35
					c-0.34,0-0.62,0.14-0.83,0.42c-0.22,0.28-0.33,0.65-0.33,1.11v2.77h-0.83v-4.87h0.83v0.77h0.02c0.17-0.29,0.39-0.52,0.64-0.66
					c0.25-0.15,0.55-0.22,0.88-0.22c0.33,0,0.62,0.09,0.87,0.27s0.42,0.43,0.51,0.73c0.18-0.33,0.4-0.59,0.68-0.75
					c0.27-0.17,0.58-0.25,0.94-0.25c0.54,0,0.94,0.17,1.21,0.5s0.4,0.83,0.4,1.49V59.9z"/>
				<path class="st8" d="M101.18,57.65h-3.43c0.02,0.54,0.16,0.95,0.43,1.24c0.27,0.29,0.65,0.43,1.15,0.43
					c0.21,0,0.43-0.03,0.66-0.1s0.45-0.18,0.68-0.33l0.38,0.58c-0.28,0.19-0.56,0.32-0.85,0.41c-0.29,0.09-0.6,0.13-0.94,0.13
					c-0.74,0-1.31-0.22-1.72-0.66s-0.62-1.05-0.62-1.84c0-0.78,0.21-1.41,0.62-1.89c0.42-0.48,0.96-0.72,1.63-0.72
					c0.64,0,1.13,0.21,1.49,0.62c0.35,0.41,0.53,0.99,0.53,1.73V57.65z M100.35,57c0-0.45-0.11-0.8-0.32-1.04
					c-0.21-0.25-0.5-0.37-0.88-0.37c-0.37,0-0.67,0.13-0.93,0.38c-0.25,0.26-0.41,0.6-0.46,1.03H100.35z"/>
				<path class="st8" d="M106.48,59.9h-0.83v-2.78c0-0.51-0.09-0.89-0.28-1.14c-0.19-0.25-0.46-0.38-0.83-0.38
					c-0.38,0-0.7,0.14-0.95,0.43s-0.38,0.65-0.38,1.09v2.78h-0.83v-4.87h0.83v0.81h0.02c0.18-0.31,0.41-0.54,0.67-0.69
					c0.27-0.15,0.57-0.23,0.92-0.23c0.53,0,0.94,0.17,1.22,0.52c0.28,0.34,0.42,0.84,0.42,1.49V59.9z"/>
				<path class="st8" d="M110.38,59.84c-0.13,0.06-0.27,0.1-0.4,0.12c-0.13,0.03-0.28,0.04-0.44,0.04c-0.4,0-0.71-0.12-0.94-0.34
					c-0.22-0.23-0.34-0.57-0.34-1.02v-2.93h-0.83v-0.69h0.83v-1.11l0.83-0.26v1.38h1.22v0.69h-1.22v2.83c0,0.28,0.05,0.47,0.15,0.6
					c0.1,0.12,0.25,0.18,0.45,0.18c0.09,0,0.18-0.01,0.27-0.03s0.16-0.05,0.22-0.08L110.38,59.84z"/>
				<path class="st8" d="M113.48,60.01c-0.73,0-1.31-0.23-1.74-0.69c-0.43-0.46-0.65-1.06-0.65-1.82c0-0.81,0.22-1.45,0.67-1.91
					c0.45-0.46,1.05-0.69,1.83-0.69c0.73,0,1.3,0.22,1.72,0.67c0.41,0.45,0.62,1.07,0.62,1.85c0,0.78-0.22,1.41-0.66,1.88
					C114.81,59.78,114.22,60.01,113.48,60.01z M113.53,59.33c0.5,0,0.88-0.16,1.14-0.49s0.4-0.78,0.4-1.38c0-0.6-0.13-1.06-0.4-1.38
					s-0.65-0.48-1.14-0.48s-0.88,0.17-1.17,0.5c-0.29,0.34-0.43,0.8-0.43,1.39c0,0.57,0.14,1.02,0.43,1.35
					C112.66,59.16,113.05,59.33,113.53,59.33z"/>
				<path class="st8" d="M117.96,58.83l-0.73,2.29h-0.6l0.54-2.29H117.96z"/>
				<path class="st8" d="M126.1,59.9h-0.83v-2.78c0-0.51-0.09-0.89-0.28-1.14s-0.46-0.38-0.83-0.38c-0.38,0-0.7,0.14-0.95,0.43
					s-0.38,0.65-0.38,1.09v2.78h-0.83v-4.87h0.83v0.81h0.02c0.18-0.31,0.41-0.54,0.67-0.69c0.27-0.15,0.57-0.23,0.92-0.23
					c0.53,0,0.94,0.17,1.22,0.52c0.28,0.34,0.42,0.84,0.42,1.49V59.9z"/>
				<path class="st8" d="M131.11,59.9h-0.82v-0.77h-0.02c-0.17,0.29-0.38,0.51-0.62,0.66c-0.25,0.15-0.54,0.22-0.86,0.22
					c-0.46,0-0.83-0.13-1.11-0.4c-0.28-0.27-0.42-0.62-0.42-1.05c0-0.42,0.14-0.77,0.43-1.04s0.7-0.45,1.23-0.52l1.38-0.19v-0.11
					c0-0.39-0.09-0.68-0.28-0.85c-0.19-0.17-0.44-0.26-0.75-0.26c-0.25,0-0.5,0.05-0.73,0.14c-0.24,0.1-0.46,0.24-0.68,0.43
					l-0.45-0.5c0.28-0.25,0.57-0.44,0.88-0.56s0.66-0.18,1.03-0.18c0.59,0,1.04,0.15,1.34,0.46s0.45,0.77,0.45,1.38V59.9z
					 M130.84,53.01c0,0.34-0.08,0.61-0.23,0.82c-0.15,0.21-0.36,0.31-0.61,0.31c-0.11,0-0.23-0.02-0.36-0.06
					c-0.13-0.04-0.26-0.1-0.4-0.18c-0.12-0.07-0.23-0.12-0.32-0.16s-0.17-0.05-0.23-0.05c-0.14,0-0.24,0.04-0.31,0.13
					c-0.07,0.09-0.1,0.22-0.1,0.39h-0.46c0-0.34,0.08-0.62,0.23-0.82c0.15-0.2,0.36-0.3,0.63-0.3c0.1,0,0.21,0.02,0.33,0.06
					s0.24,0.1,0.37,0.18c0.12,0.07,0.23,0.12,0.32,0.15s0.19,0.05,0.27,0.05c0.13,0,0.23-0.04,0.29-0.13c0.06-0.09,0.1-0.22,0.1-0.4
					H130.84z M130.29,57.91v-0.47l-1.16,0.16c-0.36,0.05-0.62,0.14-0.8,0.27c-0.18,0.13-0.26,0.33-0.26,0.61
					c0,0.28,0.08,0.49,0.25,0.64c0.17,0.15,0.37,0.23,0.62,0.23c0.41,0,0.74-0.14,0.98-0.41C130.17,58.67,130.29,58.33,130.29,57.91
					z"/>
				<path class="st8" d="M134.71,60.01c-0.73,0-1.31-0.23-1.74-0.69c-0.43-0.46-0.65-1.06-0.65-1.82c0-0.81,0.22-1.45,0.67-1.91
					c0.45-0.46,1.05-0.69,1.83-0.69c0.73,0,1.3,0.22,1.72,0.67c0.41,0.45,0.62,1.07,0.62,1.85c0,0.78-0.22,1.41-0.66,1.88
					C136.04,59.78,135.45,60.01,134.71,60.01z M134.76,59.33c0.5,0,0.88-0.16,1.14-0.49s0.4-0.78,0.4-1.38c0-0.6-0.13-1.06-0.4-1.38
					c-0.27-0.32-0.65-0.48-1.14-0.48s-0.88,0.17-1.17,0.5c-0.29,0.34-0.43,0.8-0.43,1.39c0,0.57,0.14,1.02,0.43,1.35
					C133.89,59.16,134.27,59.33,134.76,59.33z"/>
				<path class="st8" d="M44.91,70.5c-0.18,0.31-0.41,0.54-0.69,0.7c-0.28,0.16-0.6,0.23-0.98,0.23c-0.61,0-1.1-0.22-1.47-0.66
					c-0.37-0.44-0.55-1.03-0.55-1.78c0-0.81,0.2-1.45,0.61-1.94c0.41-0.49,0.95-0.73,1.62-0.73c0.33,0,0.62,0.07,0.86,0.2
					c0.24,0.13,0.44,0.33,0.59,0.59h0.02v-2.84h0.83v7.04h-0.83V70.5H44.91z M42.08,68.95c0,0.56,0.13,1,0.39,1.31
					c0.26,0.32,0.6,0.48,1.03,0.48c0.43,0,0.78-0.15,1.04-0.46c0.26-0.31,0.4-0.7,0.4-1.17v-0.7c0-0.39-0.13-0.72-0.38-0.99
					s-0.58-0.4-0.97-0.4c-0.47,0-0.84,0.17-1.1,0.52C42.21,67.87,42.08,68.34,42.08,68.95z"/>
				<path class="st8" d="M47.79,65.41c-0.16,0-0.3-0.05-0.41-0.16s-0.16-0.24-0.16-0.39c0-0.16,0.05-0.29,0.16-0.4
					c0.11-0.11,0.24-0.16,0.41-0.16s0.3,0.05,0.41,0.16c0.11,0.11,0.16,0.24,0.16,0.4c0,0.15-0.05,0.29-0.16,0.39
					S47.95,65.41,47.79,65.41z M48.19,71.31h-0.83v-4.87h0.83V71.31z"/>
				<path class="st8" d="M49.42,70.95l0.39-0.62c0.2,0.14,0.41,0.24,0.61,0.31c0.2,0.07,0.42,0.11,0.66,0.11
					c0.33,0,0.57-0.06,0.74-0.18c0.17-0.12,0.26-0.3,0.26-0.54c0-0.2-0.07-0.36-0.23-0.49c-0.15-0.13-0.39-0.24-0.71-0.32
					c-0.6-0.15-1.02-0.35-1.24-0.58c-0.23-0.24-0.34-0.53-0.34-0.88c0-0.41,0.16-0.75,0.47-1.02s0.74-0.4,1.27-0.4
					c0.26,0,0.51,0.03,0.74,0.1c0.23,0.07,0.47,0.18,0.71,0.33l-0.36,0.61c-0.22-0.14-0.41-0.23-0.58-0.29
					C51.64,67.03,51.46,67,51.28,67c-0.31,0-0.54,0.06-0.71,0.17c-0.16,0.11-0.25,0.28-0.25,0.5c0,0.21,0.08,0.37,0.24,0.48
					c0.16,0.11,0.43,0.21,0.8,0.31c0.5,0.13,0.87,0.32,1.12,0.55c0.25,0.24,0.37,0.55,0.37,0.95c0,0.45-0.16,0.81-0.49,1.07
					c-0.32,0.26-0.76,0.4-1.32,0.4c-0.3,0-0.59-0.04-0.87-0.12C49.91,71.22,49.66,71.11,49.42,70.95z"/>
				<path class="st8" d="M54.92,70.61H54.9v2.89h-0.83v-7.06h0.83v0.85h0.02c0.19-0.32,0.43-0.56,0.71-0.72s0.6-0.24,0.97-0.24
					c0.63,0,1.12,0.22,1.47,0.66S58.6,68,58.6,68.74c0,0.81-0.2,1.47-0.6,1.96c-0.4,0.49-0.94,0.74-1.62,0.74
					c-0.32,0-0.6-0.07-0.84-0.2C55.29,71.09,55.09,70.88,54.92,70.61z M54.89,68.65v0.65c0,0.4,0.13,0.74,0.39,1.02
					c0.26,0.28,0.59,0.42,0.98,0.42c0.46,0,0.82-0.18,1.09-0.53c0.26-0.36,0.39-0.85,0.39-1.49c0-0.54-0.12-0.95-0.37-1.26
					c-0.24-0.3-0.58-0.45-1-0.45c-0.45,0-0.81,0.16-1.08,0.47C55.03,67.79,54.89,68.18,54.89,68.65z"/>
				<path class="st8" d="M61.94,71.43c-0.73,0-1.31-0.23-1.74-0.69c-0.43-0.46-0.65-1.06-0.65-1.82c0-0.81,0.22-1.45,0.67-1.91
					s1.05-0.69,1.83-0.69c0.73,0,1.3,0.22,1.72,0.67c0.41,0.45,0.62,1.07,0.62,1.85c0,0.78-0.22,1.41-0.66,1.88
					C63.28,71.2,62.69,71.43,61.94,71.43z M62,70.74c0.5,0,0.88-0.16,1.14-0.49s0.4-0.78,0.4-1.38c0-0.6-0.13-1.06-0.4-1.38
					c-0.27-0.32-0.65-0.48-1.14-0.48s-0.88,0.17-1.17,0.5s-0.43,0.8-0.43,1.39c0,0.57,0.14,1.02,0.43,1.35
					C61.12,70.58,61.51,70.74,62,70.74z"/>
				<path class="st8" d="M69.76,71.31h-0.83v-2.78c0-0.51-0.09-0.89-0.28-1.14c-0.19-0.25-0.46-0.38-0.83-0.38
					c-0.38,0-0.7,0.14-0.95,0.43s-0.38,0.65-0.38,1.09v2.78h-0.83v-4.87h0.83v0.81h0.02c0.18-0.31,0.41-0.54,0.67-0.69
					c0.27-0.15,0.57-0.23,0.92-0.23c0.53,0,0.94,0.17,1.22,0.52s0.42,0.84,0.42,1.49V71.31z"/>
				<path class="st8" d="M71.68,65.57h-0.64l1.05-1.52h0.82L71.68,65.57z M71.26,71.31v-4.87h0.83v4.87H71.26z"/>
				<path class="st8" d="M77.6,66.44l-1.93,4.87h-0.83L73,66.44h0.91l1.21,3.51c0.04,0.13,0.08,0.26,0.11,0.37
					c0.03,0.12,0.05,0.22,0.06,0.32h0.02c0.02-0.12,0.04-0.24,0.06-0.35c0.02-0.11,0.06-0.22,0.09-0.32l1.27-3.53H77.6z"/>
				<path class="st8" d="M82.44,69.06h-3.43c0.02,0.54,0.16,0.95,0.43,1.24c0.27,0.29,0.65,0.43,1.15,0.43
					c0.21,0,0.43-0.03,0.66-0.1s0.45-0.18,0.68-0.33l0.38,0.58c-0.28,0.19-0.56,0.32-0.85,0.41c-0.29,0.09-0.6,0.13-0.94,0.13
					c-0.74,0-1.31-0.22-1.72-0.66c-0.41-0.44-0.62-1.05-0.62-1.84c0-0.78,0.21-1.41,0.62-1.89c0.42-0.48,0.96-0.72,1.63-0.72
					c0.64,0,1.13,0.21,1.49,0.62c0.35,0.41,0.53,0.99,0.53,1.73V69.06z M81.61,68.41c0-0.45-0.11-0.8-0.32-1.04
					c-0.21-0.25-0.5-0.37-0.88-0.37c-0.37,0-0.67,0.13-0.93,0.38c-0.25,0.26-0.41,0.6-0.46,1.03H81.61z"/>
				<path class="st8" d="M83.66,71.31v-7.04h0.83v7.04H83.66z"/>
				<path class="st8" d="M89.55,70.61h-0.02v2.89H88.7v-7.06h0.83v0.85h0.02c0.19-0.32,0.43-0.56,0.71-0.72
					c0.28-0.16,0.61-0.24,0.97-0.24c0.63,0,1.12,0.22,1.47,0.66s0.53,1.02,0.53,1.76c0,0.81-0.2,1.47-0.6,1.96
					c-0.4,0.49-0.94,0.74-1.62,0.74c-0.32,0-0.6-0.07-0.84-0.2C89.93,71.09,89.72,70.88,89.55,70.61z M89.53,68.65v0.65
					c0,0.4,0.13,0.74,0.38,1.02c0.26,0.28,0.59,0.42,0.99,0.42c0.46,0,0.82-0.18,1.09-0.53c0.26-0.36,0.39-0.85,0.39-1.49
					c0-0.54-0.12-0.95-0.37-1.26s-0.58-0.45-1-0.45c-0.45,0-0.81,0.16-1.08,0.47C89.66,67.79,89.53,68.18,89.53,68.65z"/>
				<path class="st8" d="M98.02,71.31h-0.82v-0.77h-0.02c-0.17,0.29-0.38,0.51-0.62,0.66c-0.25,0.15-0.54,0.22-0.86,0.22
					c-0.46,0-0.83-0.13-1.11-0.4c-0.28-0.27-0.42-0.62-0.42-1.05c0-0.42,0.14-0.77,0.43-1.04s0.7-0.45,1.23-0.52l1.38-0.19v-0.11
					c0-0.39-0.09-0.68-0.28-0.85C96.73,67.09,96.48,67,96.16,67c-0.25,0-0.5,0.05-0.73,0.14c-0.24,0.1-0.46,0.24-0.68,0.43
					l-0.45-0.5c0.28-0.25,0.57-0.44,0.88-0.56s0.66-0.18,1.03-0.18c0.59,0,1.04,0.15,1.34,0.46s0.45,0.77,0.45,1.38V71.31z
					 M97.2,69.33v-0.47l-1.16,0.16c-0.36,0.05-0.62,0.14-0.8,0.27c-0.18,0.13-0.26,0.33-0.26,0.61c0,0.28,0.08,0.49,0.25,0.64
					c0.17,0.15,0.37,0.23,0.62,0.23c0.41,0,0.74-0.14,0.98-0.41C97.07,70.09,97.2,69.74,97.2,69.33z"/>
				<path class="st8" d="M102.01,67.15c-0.06-0.02-0.12-0.03-0.17-0.04c-0.05-0.01-0.12-0.01-0.19-0.01c-0.39,0-0.7,0.17-0.93,0.5
					c-0.23,0.33-0.34,0.75-0.34,1.26v2.46h-0.83v-4.87h0.83v0.97h0.02c0.11-0.34,0.28-0.6,0.51-0.78s0.49-0.27,0.79-0.27
					c0.1,0,0.18,0,0.25,0.01c0.07,0.01,0.13,0.02,0.19,0.04L102.01,67.15z"/>
				<path class="st8" d="M106.55,71.31h-0.82v-0.77h-0.02c-0.17,0.29-0.38,0.51-0.62,0.66c-0.25,0.15-0.54,0.22-0.86,0.22
					c-0.46,0-0.83-0.13-1.11-0.4c-0.28-0.27-0.42-0.62-0.42-1.05c0-0.42,0.14-0.77,0.43-1.04s0.7-0.45,1.23-0.52l1.38-0.19v-0.11
					c0-0.39-0.09-0.68-0.28-0.85c-0.19-0.17-0.44-0.26-0.75-0.26c-0.25,0-0.5,0.05-0.73,0.14c-0.24,0.1-0.46,0.24-0.68,0.43
					l-0.45-0.5c0.28-0.25,0.57-0.44,0.88-0.56s0.66-0.18,1.03-0.18c0.59,0,1.04,0.15,1.34,0.46s0.45,0.77,0.45,1.38V71.31z
					 M105.73,69.33v-0.47l-1.16,0.16c-0.36,0.05-0.62,0.14-0.8,0.27c-0.18,0.13-0.26,0.33-0.26,0.61c0,0.28,0.08,0.49,0.25,0.64
					c0.17,0.15,0.37,0.23,0.62,0.23c0.41,0,0.74-0.14,0.98-0.41C105.61,70.09,105.73,69.74,105.73,69.33z"/>
				<path class="st8" d="M114.68,71.31h-0.83v-0.78h-0.02c-0.16,0.3-0.37,0.52-0.62,0.67c-0.25,0.15-0.55,0.22-0.88,0.22
					c-0.58,0-1.01-0.17-1.3-0.52c-0.29-0.35-0.43-0.87-0.43-1.56v-2.91h0.83v2.79c0,0.5,0.1,0.88,0.29,1.13
					c0.19,0.25,0.48,0.38,0.87,0.38c0.37,0,0.68-0.14,0.92-0.41c0.24-0.28,0.36-0.64,0.36-1.09v-2.8h0.83V71.31z"/>
				<path class="st8" d="M115.85,70.95l0.39-0.62c0.2,0.14,0.41,0.24,0.61,0.31c0.2,0.07,0.42,0.11,0.66,0.11
					c0.33,0,0.57-0.06,0.74-0.18s0.25-0.3,0.25-0.54c0-0.2-0.07-0.36-0.22-0.49s-0.39-0.24-0.71-0.32c-0.6-0.15-1.02-0.35-1.25-0.58
					c-0.23-0.24-0.34-0.53-0.34-0.88c0-0.41,0.16-0.75,0.47-1.02c0.31-0.27,0.74-0.4,1.27-0.4c0.26,0,0.51,0.03,0.74,0.1
					c0.23,0.07,0.47,0.18,0.71,0.33l-0.36,0.61c-0.22-0.14-0.41-0.23-0.58-0.29c-0.17-0.05-0.35-0.08-0.53-0.08
					c-0.31,0-0.54,0.06-0.71,0.17c-0.16,0.11-0.25,0.28-0.25,0.5c0,0.21,0.08,0.37,0.24,0.48c0.16,0.11,0.43,0.21,0.8,0.31
					c0.5,0.13,0.87,0.32,1.12,0.55c0.25,0.24,0.37,0.55,0.37,0.95c0,0.45-0.16,0.81-0.49,1.07c-0.32,0.26-0.76,0.4-1.32,0.4
					c-0.3,0-0.59-0.04-0.87-0.12C116.34,71.22,116.08,71.11,115.85,70.95z"/>
				<path class="st8" d="M122.56,71.43c-0.73,0-1.31-0.23-1.74-0.69c-0.43-0.46-0.65-1.06-0.65-1.82c0-0.81,0.22-1.45,0.67-1.91
					c0.45-0.46,1.05-0.69,1.83-0.69c0.73,0,1.3,0.22,1.72,0.67c0.41,0.45,0.62,1.07,0.62,1.85c0,0.78-0.22,1.41-0.66,1.88
					C123.9,71.2,123.31,71.43,122.56,71.43z M122.62,70.74c0.5,0,0.88-0.16,1.14-0.49s0.4-0.78,0.4-1.38c0-0.6-0.13-1.06-0.4-1.38
					c-0.27-0.32-0.65-0.48-1.14-0.48s-0.88,0.17-1.17,0.5c-0.29,0.34-0.43,0.8-0.43,1.39c0,0.57,0.14,1.02,0.43,1.35
					C121.74,70.58,122.13,70.74,122.62,70.74z"/>
				<path class="st8" d="M126.59,71.42c-0.16,0-0.29-0.05-0.4-0.16s-0.17-0.24-0.17-0.39c0-0.15,0.06-0.28,0.17-0.39
					s0.25-0.16,0.4-0.16s0.29,0.05,0.4,0.16c0.11,0.11,0.17,0.24,0.17,0.39c0,0.15-0.05,0.28-0.17,0.39
					C126.88,71.36,126.75,71.42,126.59,71.42z"/>
			</g>
		</g>
	</g>
</g>
</svg>
