<?xml version="1.0" encoding="utf-8"?>
<!-- Generator: Adobe Illustrator 26.3.0, SVG Export Plug-In . SVG Version: 6.00 Build 0)  -->
<svg version="1.1" id="Camada_1" xmlns="http://www.w3.org/2000/svg" xmlns:xlink="http://www.w3.org/1999/xlink" x="0px" y="0px"
	 width="83.6px" height="26.15px" viewBox="0 0 83.6 26.15" style="enable-background:new 0 0 83.6 26.15;" xml:space="preserve">
<style type="text/css">
	.st0{fill:#001E36;stroke:url(#SVGID_1_);stroke-width:0.25;stroke-miterlimit:10;}
	.st1{fill:#31A8FF;}
	.st2{fill:url(#SVGID_00000048484872064789519630000014537540615483035778_);}
</style>
<g>
	<linearGradient id="SVGID_1_" gradientUnits="userSpaceOnUse" x1="0.018" y1="13.0784" x2="83.5931" y2="13.0784">
		<stop  offset="0" style="stop-color:#168EFD"/>
		<stop  offset="1" style="stop-color:#1F9DFC"/>
	</linearGradient>
	<path class="st0" d="M81.49,26.03H2.12c-1.09,0-1.98-0.89-1.98-1.98V2.1c0-1.09,0.89-1.98,1.98-1.98h79.37
		c1.09,0,1.98,0.89,1.98,1.98v21.95C83.47,25.14,82.58,26.03,81.49,26.03z"/>
	<g>
		<g>
			<g>
				<g>
					<path class="st1" d="M36.72,14.95v4.22h-1.48V7.54h3.28c1.27,0,2.24,0.31,2.93,0.92c0.69,0.62,1.03,1.49,1.03,2.64
						c0,1.13-0.38,2.05-1.15,2.77c-0.77,0.72-1.8,1.07-3.11,1.07H36.72z M36.72,8.85v4.79h1.39c0.92,0,1.62-0.21,2.1-0.64
						c0.48-0.43,0.72-1.04,0.72-1.82c0-0.78-0.22-1.36-0.67-1.75c-0.44-0.39-1.11-0.58-2-0.58H36.72z"/>
					<path class="st1" d="M49.49,19.37c-1.65,0-2.97-0.54-3.97-1.63c-1-1.09-1.5-2.5-1.5-4.24c0-1.87,0.51-3.36,1.52-4.47
						s2.39-1.67,4.14-1.67c1.61,0,2.91,0.54,3.9,1.62c0.99,1.08,1.48,2.5,1.48,4.25c0,1.89-0.51,3.39-1.52,4.49
						C52.53,18.82,51.18,19.37,49.49,19.37z M49.5,18.05c1.24,0,2.22-0.41,2.94-1.22c0.71-0.81,1.07-1.96,1.07-3.43
						c0-1.5-0.35-2.67-1.04-3.49c-0.7-0.82-1.65-1.23-2.88-1.23c-1.19,0-2.15,0.43-2.89,1.29c-0.74,0.86-1.11,2-1.11,3.4
						s0.36,2.54,1.08,3.39S48.33,18.05,49.5,18.05z"/>
					<path class="st1" d="M56.52,18.26l0.71-1.13c0.48,0.32,0.96,0.56,1.43,0.71c0.48,0.15,1.02,0.22,1.63,0.22
						c0.7,0,1.27-0.16,1.71-0.49c0.44-0.32,0.67-0.79,0.67-1.41c0-0.55-0.19-0.99-0.56-1.32s-0.99-0.65-1.85-0.95
						c-1.11-0.38-1.94-0.83-2.46-1.33c-0.53-0.5-0.79-1.16-0.79-1.99c0-0.95,0.34-1.73,1.03-2.33s1.6-0.9,2.75-0.9
						c0.53,0,1.05,0.06,1.56,0.18c0.51,0.12,1.02,0.31,1.54,0.57l-0.6,1.18c-0.43-0.22-0.85-0.38-1.26-0.48
						c-0.42-0.1-0.86-0.15-1.33-0.15c-0.68,0-1.22,0.16-1.61,0.47c-0.4,0.32-0.59,0.75-0.59,1.32c0,0.49,0.18,0.88,0.54,1.18
						s0.97,0.59,1.82,0.89c1.18,0.41,2.02,0.87,2.53,1.4s0.77,1.23,0.77,2.12c0,0.96-0.34,1.75-1.03,2.39
						c-0.69,0.63-1.66,0.95-2.92,0.95c-0.69,0-1.34-0.09-1.93-0.27C57.67,18.92,57.09,18.64,56.52,18.26z"/>
					<path class="st1" d="M73.54,8.86h-3.36v10.31h-1.48V8.86h-3.35V7.54h8.18V8.86z"/>
				</g>
			</g>
		</g>
	</g>
	<g>
		
			<linearGradient id="SVGID_00000068656053529593648650000017498579393739501495_" gradientUnits="userSpaceOnUse" x1="22.5297" y1="20.4653" x2="14.2232" y2="6.078">
			<stop  offset="0" style="stop-color:#168EFD"/>
			<stop  offset="1" style="stop-color:#1F9DFC"/>
		</linearGradient>
		<path style="fill:url(#SVGID_00000068656053529593648650000017498579393739501495_);" d="M26.55,11.84
			c-0.34-1.91-1.24-3.51-2.69-4.79C22.68,6,21.3,5.35,19.74,5.08c-0.28-0.05-0.57-0.08-0.85-0.11h-1.04
			c-0.3,0.04-0.61,0.07-0.91,0.13c-1.74,0.31-3.23,1.09-4.47,2.35c-1.22,1.24-2,2.72-2.28,4.44c-0.36,2.19,0.07,4.23,1.33,6.06
			c1.25,1.83,2.97,3.01,5.14,3.45c2.96,0.59,5.53-0.21,7.66-2.34c1.28-1.29,2.02-2.86,2.28-4.66c0.03-0.2,0.05-0.4,0.07-0.59v-1.04
			C26.63,12.45,26.6,12.14,26.55,11.84z M22.65,13.53c-0.11,0.27-0.35,0.43-0.68,0.43c-0.9,0-1.79,0-2.69,0h-0.22v0.22
			c0,0.91,0,1.82,0,2.72c0,0.51-0.5,0.84-0.95,0.64c-0.29-0.13-0.43-0.36-0.43-0.68c0-0.89,0-1.78,0-2.68v-0.22h-0.2
			c-0.91,0-1.83,0-2.74,0c-0.51,0-0.84-0.49-0.65-0.95c0.13-0.29,0.36-0.43,0.68-0.43c0.9,0,1.79,0,2.69,0h0.21v-0.21
			c0-0.91,0-1.82,0-2.72c0-0.52,0.5-0.85,0.96-0.65c0.29,0.13,0.42,0.36,0.42,0.67c0,0.9,0,1.79,0,2.69v0.22h0.2
			c0.91,0,1.82,0,2.72,0C22.5,12.59,22.83,13.07,22.65,13.53z"/>
	</g>
</g>
</svg>
