<svg width="107" height="33" viewBox="0 0 107 33" fill="none" xmlns="http://www.w3.org/2000/svg">
<g clip-path="url(#clip0_1_318)">
<path d="M102.737 33H4.26295C1.91833 33 0 31.0962 0 28.7692V4.23077C0 1.90385 1.91833 0 4.26295 0H102.737C105.082 0 107 1.90385 107 4.23077V28.7692C107 31.0962 105.082 33 102.737 33Z" fill="#001E36"/>
<path d="M47.3188 18.8269V24.1154H44.761V9.30771H49.2371C51.1554 9.51925 52.4343 9.94232 53.2869 10.5769C54.1395 11.4231 54.7789 12.4808 54.7789 13.9616C54.7789 15.4423 54.3526 16.5 53.2869 17.5577C52.2211 18.4039 50.9423 18.8269 49.2371 18.8269H47.3188ZM47.3188 11.4231V16.9231H49.0239C50.0897 16.9231 50.9423 16.7116 51.3686 16.2885C52.008 15.8654 52.2211 15.0192 52.2211 14.1731C52.2211 12.4808 51.1554 11.6346 49.2371 11.6346H47.3188V11.4231Z" fill="#31A8FF"/>
<path d="M63.5179 24.5385C61.3865 24.5385 59.6813 23.9039 58.4024 22.4231C57.1235 20.9423 56.4841 19.25 56.4841 16.9231C56.4841 14.5962 57.1235 12.6923 58.4024 11.2115C59.6813 9.73078 61.5996 9.09616 63.7311 9.09616C65.8626 9.09616 67.5677 9.73078 68.8466 11.2115C70.1255 12.6923 70.7649 14.3846 70.7649 16.7115C70.7649 19.0385 70.1255 20.9423 68.8466 22.4231C67.3546 23.9039 65.6494 24.5385 63.5179 24.5385ZM63.5179 11.4231C62.239 11.4231 60.9602 11.8462 60.1076 12.9039C59.255 13.9615 58.8287 15.2308 58.8287 16.9231C58.8287 18.6154 59.255 19.8846 60.1076 20.9423C60.9602 22 62.0259 22.4231 63.3048 22.4231C64.7968 22.4231 65.8626 22 66.7151 20.9423C67.5677 19.8846 67.994 18.6154 67.994 16.9231C67.994 15.2308 67.5677 13.75 66.7151 12.9039C66.0757 11.8462 65.01 11.4231 63.5179 11.4231Z" fill="#31A8FF"/>
<path d="M72.6833 23.6923V21.1539C72.8964 21.3654 73.1096 21.5769 73.5359 21.7885C73.749 22 74.1753 22 74.6016 22.2116C75.0279 22.4231 75.2411 22.4231 75.6674 22.4231C76.0937 22.4231 76.3068 22.4231 76.7331 22.4231C77.7988 22.4231 78.6514 22.2116 79.0777 22C79.504 21.5769 79.9303 21.1539 79.9303 20.5192C79.9303 20.0962 79.9303 19.8846 79.7172 19.6731C79.504 19.4616 79.2909 19.25 79.0777 19.0385C78.8646 18.8269 78.4383 18.6154 78.012 18.4039C77.5857 18.1923 77.1594 17.9808 76.7331 17.7692C76.3068 17.5577 75.6674 17.1346 75.2411 16.9231C74.8148 16.7116 74.3885 16.2885 74.1753 16.0769C73.749 15.6539 73.5359 15.4423 73.3227 15.0192C73.1096 14.5962 73.1096 14.1731 73.1096 13.5385C73.1096 12.9039 73.3227 12.2692 73.5359 11.6346C73.749 11.2116 74.1753 10.7885 74.8148 10.3654C75.2411 9.94232 75.8805 9.73079 76.5199 9.51925C77.1594 9.30771 77.7988 9.30771 78.4383 9.30771C79.9303 9.30771 81.2092 9.51925 81.8486 9.73079V12.0577C80.996 11.4231 79.9303 11.2116 78.6514 11.2116C78.2251 11.2116 78.012 11.2116 77.5857 11.2116C77.1594 11.2116 76.9462 11.4231 76.5199 11.6346C76.3068 11.8462 76.0936 12.0577 75.8805 12.2692C75.6674 12.4808 75.6674 12.9039 75.6674 13.1154C75.6674 13.5385 75.6674 13.75 75.8805 13.9616C76.0936 14.1731 76.3068 14.3846 76.5199 14.5962C76.5199 14.8077 76.7331 15.0192 77.1594 15.2308C77.5857 15.4423 78.012 15.6539 78.4383 15.8654C78.8646 16.0769 79.504 16.5 79.9303 16.7116C80.3566 16.9231 80.7829 17.3462 81.2092 17.7692C81.6355 18.1923 81.8486 18.6154 82.0618 19.0385C82.2749 19.4616 82.2749 19.8846 82.2749 20.5192C82.2749 21.3654 82.0618 22 81.8486 22.4231C81.6355 22.8462 81.2092 23.2692 80.5697 23.6923C80.1435 24.1154 79.504 24.3269 78.8646 24.3269C78.2251 24.3269 77.5857 24.5385 76.7331 24.5385C76.5199 24.5385 76.0936 24.5385 75.8805 24.5385C75.4542 24.5385 75.2411 24.5385 74.8148 24.3269C74.3885 24.1154 74.1753 24.1154 73.749 24.1154C73.3227 24.1154 72.8964 23.9039 72.6833 23.6923Z" fill="#31A8FF"/>
<path d="M94.6375 11.6346H90.3746V24.3269H87.8168V11.6346H83.5538V9.51923H94.6375V11.6346Z" fill="#31A8FF"/>
<path opacity="0.8" d="M22.8068 23.2692C26.456 23.2692 29.4144 20.3332 29.4144 16.7115C29.4144 13.0898 26.456 10.1538 22.8068 10.1538C19.1575 10.1538 16.1992 13.0898 16.1992 16.7115C16.1992 20.3332 19.1575 23.2692 22.8068 23.2692Z" fill="white"/>
<path d="M33.8905 15.0192C33.4642 12.4808 32.1853 10.5769 30.4801 8.88461C28.9881 7.61538 27.2829 6.76923 25.1514 6.34615C24.7251 6.34615 24.512 6.13461 24.0857 6.13461H22.8068C22.3805 6.13461 21.9542 6.13461 21.7411 6.34615C19.6096 6.76923 17.6913 7.82692 15.9861 9.30769C14.2809 10.7885 13.2152 12.6923 13.002 15.0192C12.5757 17.7692 13.002 20.3077 14.7072 22.8461C16.4124 25.1731 18.5439 26.6538 21.3148 27.2885C25.1514 27.9231 28.3486 27.0769 31.1196 24.3269C32.8247 22.6346 33.6773 20.7308 34.1036 18.4038C34.1036 18.1923 34.1036 17.9808 34.1036 17.5577V16.0769C34.1036 15.6538 33.8905 15.2308 33.8905 15.0192ZM28.9881 17.1346C28.7749 17.5577 28.5618 17.7692 28.1355 17.7692C27.0698 17.7692 25.7909 17.7692 24.7251 17.7692H24.512V21.5769C24.512 22.2115 23.8725 22.6346 23.2331 22.4231C22.8068 22.2115 22.8068 22 22.8068 21.5769V17.5577H22.5937C21.3148 17.5577 20.249 17.5577 18.9701 17.5577C18.1176 17.5577 17.6913 16.9231 17.9044 16.5C18.1176 16.0769 18.3307 15.8654 18.757 15.8654C19.8227 15.8654 21.1016 15.8654 22.1674 15.8654H22.3805V12.0577C22.3805 11.4231 23.02 11 23.6594 11.2115C24.0857 11.4231 24.0857 11.6346 24.0857 12.0577V15.8654H24.2988C25.5777 15.8654 26.6435 15.8654 27.7092 15.8654C28.7749 15.8654 29.2012 16.5 28.9881 17.1346Z" fill="url(#paint0_linear_1_318)"/>
</g>
<defs>
<linearGradient id="paint0_linear_1_318" x1="28.7314" y1="25.9073" x2="18.1891" y2="7.50833" gradientUnits="userSpaceOnUse">
<stop stop-color="#168EFD"/>
<stop offset="1" stop-color="#1F9DFC"/>
</linearGradient>
<clipPath id="clip0_1_318">
<rect width="107" height="33" fill="white"/>
</clipPath>
</defs>
</svg>
