<svg width="40" height="40" viewBox="0 0 40 40" fill="none" xmlns="http://www.w3.org/2000/svg">
<rect opacity="0.15" width="40" height="40" rx="20" fill="#FF4F64"/>
<path d="M19.4566 30.9986C17.2973 30.9986 15.138 31.0004 12.9786 30.9982C11.6568 30.9968 11.0021 30.3429 11.0014 29.0238C10.9996 25.9169 10.9994 22.81 11.0016 19.7029C11.0025 18.4716 11.6417 17.8378 12.863 17.8262C14.1522 17.8139 13.9746 18.0078 14.0009 16.6851C14.0214 15.662 13.9263 14.6364 14.0885 13.6154C14.4952 11.0595 16.8319 8.99889 19.423 9C22.4414 9.00134 24.6241 11.2952 24.9239 13.7911C25.0581 14.9078 24.9694 16.025 24.9959 17.1416C25.0121 17.826 25.0006 17.8262 25.7046 17.8277C25.9221 17.8282 26.1396 17.8246 26.3571 17.8297C27.2593 17.8507 27.9802 18.5099 27.9854 19.4136C28.0041 22.7224 28.0056 26.0315 27.9854 29.3401C27.9794 30.3432 27.235 30.9924 26.1677 30.9959C23.9306 31.0035 21.6937 30.9982 19.4566 30.9984V30.9986ZM19.4633 17.8273C20.3026 17.8273 21.1419 17.8173 21.981 17.8322C22.3278 17.8384 22.4956 17.7361 22.4898 17.3584C22.4737 16.3174 22.506 15.2753 22.476 14.2348C22.4325 12.7262 21.0728 11.5012 19.4867 11.5032C17.9082 11.505 16.5565 12.7447 16.5188 14.258C16.4934 15.2831 16.5246 16.3096 16.5057 17.335C16.4983 17.7355 16.671 17.8413 17.0388 17.8331C17.8466 17.8153 18.655 17.8275 19.4631 17.8275L19.4633 17.8273ZM18.0142 23.3014C18.014 23.6703 18.0679 24.0661 18.3679 24.274C18.8625 24.6168 18.8789 25.0747 18.8535 25.5817C18.8411 25.8291 18.8404 26.0787 18.8602 26.3254C18.8903 26.6969 19.0958 26.9298 19.4751 26.9621C19.819 26.9913 20.1112 26.713 20.1359 26.3263C20.1577 25.9865 20.1602 25.6437 20.1417 25.3038C20.121 24.9241 20.215 24.6399 20.5317 24.3778C21.0398 23.9573 21.1296 23.1708 20.8112 22.5874C20.4849 21.9899 19.8056 21.6895 19.1564 21.8557C18.4404 22.0391 18.0158 22.5769 18.0142 23.3017V23.3014Z" fill="#FF4F64"/>
</svg>
