<svg width="169" height="206" viewBox="0 0 169 206" fill="none" xmlns="http://www.w3.org/2000/svg">
<path d="M168.44 14.6701V190.51C168.44 198.55 163.04 205.12 156.44 205.12H12C5.4 205.12 0 198.55 0 190.51V14.6701C0 6.63006 5.4 0.0600586 12 0.0600586H156.44C163.04 0.0600586 168.44 6.63006 168.44 14.6701Z" fill="url(#paint0_linear_521_100)"/>
<mask id="mask0_521_100" style="mask-type:alpha" maskUnits="userSpaceOnUse" x="0" y="0" width="169" height="206">
<path d="M168.44 14.6701V190.51C168.44 198.55 163.04 205.12 156.44 205.12H12C5.4 205.12 0 198.55 0 190.51V14.6701C0 6.63006 5.4 0.0600586 12 0.0600586H156.44C163.04 0.0600586 168.44 6.63006 168.44 14.6701Z" fill="url(#paint1_linear_521_100)"/>
</mask>
<g mask="url(#mask0_521_100)">
<g opacity="0.8">
<g opacity="0.15">
<circle cx="94.2338" cy="55.7" r="93.937" transform="rotate(-10.7881 94.2338 55.7)" fill="white"/>
<circle cx="94.2338" cy="55.7" r="93.937" transform="rotate(-10.7881 94.2338 55.7)" fill="white"/>
</g>
<g opacity="0.3">
<circle cx="94.0749" cy="54.8649" r="75.2346" transform="rotate(-10.7881 94.0749 54.8649)" fill="white"/>
<circle cx="94.0749" cy="54.8649" r="75.2346" transform="rotate(-10.7881 94.0749 54.8649)" fill="white"/>
</g>
<g opacity="0.4">
<circle cx="94.0749" cy="54.865" r="59.9327" transform="rotate(-10.7881 94.0749 54.865)" fill="white"/>
<circle cx="94.0749" cy="54.865" r="59.9327" transform="rotate(-10.7881 94.0749 54.865)" fill="white"/>
</g>
</g>
<path d="M33.7642 127.06V112.515H39.5028C40.6061 112.515 41.5459 112.725 42.3224 113.147C43.099 113.563 43.6908 114.143 44.098 114.887C44.5099 115.625 44.7159 116.478 44.7159 117.444C44.7159 118.409 44.5076 119.262 44.0909 120C43.6742 120.739 43.0705 121.314 42.2798 121.726C41.4938 122.138 40.5421 122.344 39.4247 122.344H35.767V119.88H38.9276C39.5194 119.88 40.0071 119.778 40.3906 119.574C40.7789 119.366 41.0677 119.079 41.2571 118.715C41.4512 118.346 41.5483 117.922 41.5483 117.444C41.5483 116.961 41.4512 116.539 41.2571 116.179C41.0677 115.815 40.7789 115.533 40.3906 115.334C40.0024 115.131 39.5099 115.029 38.9134 115.029H36.8395V127.06H33.7642ZM47.6566 127.06V116.151H50.5898V118.054H50.7035C50.9023 117.377 51.2362 116.866 51.7049 116.52C52.1737 116.17 52.7134 115.995 53.3242 115.995C53.4757 115.995 53.6391 116.004 53.8143 116.023C53.9895 116.042 54.1433 116.068 54.2759 116.101V118.786C54.1339 118.743 53.9374 118.705 53.6864 118.672C53.4355 118.639 53.2058 118.623 52.9975 118.623C52.5524 118.623 52.1547 118.72 51.8043 118.914C51.4587 119.103 51.1841 119.368 50.9805 119.709C50.7816 120.05 50.6822 120.443 50.6822 120.888V127.06H47.6566ZM61.2614 127.273C60.1581 127.273 59.2041 127.039 58.3991 126.57C57.599 126.097 56.9811 125.438 56.5455 124.596C56.1098 123.748 55.892 122.766 55.892 121.648C55.892 120.521 56.1098 119.536 56.5455 118.694C56.9811 117.846 57.599 117.188 58.3991 116.719C59.2041 116.246 60.1581 116.009 61.2614 116.009C62.3646 116.009 63.3163 116.246 64.1165 116.719C64.9214 117.188 65.5417 117.846 65.9773 118.694C66.4129 119.536 66.6307 120.521 66.6307 121.648C66.6307 122.766 66.4129 123.748 65.9773 124.596C65.5417 125.438 64.9214 126.097 64.1165 126.57C63.3163 127.039 62.3646 127.273 61.2614 127.273ZM61.2756 124.929C61.7775 124.929 62.1965 124.787 62.5327 124.503C62.8688 124.214 63.1222 123.821 63.2926 123.324C63.4678 122.827 63.5554 122.261 63.5554 121.627C63.5554 120.992 63.4678 120.427 63.2926 119.929C63.1222 119.432 62.8688 119.039 62.5327 118.75C62.1965 118.462 61.7775 118.317 61.2756 118.317C60.7689 118.317 60.3428 118.462 59.9972 118.75C59.6563 119.039 59.3982 119.432 59.223 119.929C59.0526 120.427 58.9673 120.992 58.9673 121.627C58.9673 122.261 59.0526 122.827 59.223 123.324C59.3982 123.821 59.6563 124.214 59.9972 124.503C60.3428 124.787 60.7689 124.929 61.2756 124.929ZM75.4006 116.151V118.424H68.831V116.151H75.4006ZM70.3224 113.537H73.348V123.708C73.348 123.987 73.3906 124.205 73.4759 124.361C73.5611 124.513 73.6795 124.619 73.831 124.681C73.9872 124.742 74.1671 124.773 74.3707 124.773C74.5128 124.773 74.6548 124.761 74.7969 124.738C74.9389 124.709 75.0478 124.688 75.1236 124.674L75.5994 126.925C75.4479 126.972 75.2348 127.027 74.9602 127.088C74.6856 127.155 74.3518 127.195 73.9588 127.209C73.2296 127.238 72.5904 127.141 72.0412 126.918C71.4967 126.695 71.0729 126.35 70.7699 125.881C70.4669 125.412 70.3177 124.82 70.3224 124.106V113.537ZM83.2259 127.273C82.1037 127.273 81.1378 127.046 80.3281 126.591C79.5232 126.132 78.9029 125.483 78.4673 124.645C78.0317 123.802 77.8139 122.806 77.8139 121.655C77.8139 120.533 78.0317 119.548 78.4673 118.701C78.9029 117.853 79.5161 117.193 80.3068 116.719C81.1023 116.246 82.035 116.009 83.1051 116.009C83.8248 116.009 84.4948 116.125 85.1151 116.357C85.7401 116.584 86.2846 116.927 86.7486 117.387C87.2173 117.846 87.5819 118.424 87.8423 119.12C88.1027 119.811 88.233 120.621 88.233 121.549V122.38H79.0213V120.505H85.3849C85.3849 120.069 85.2902 119.683 85.1009 119.347C84.9115 119.011 84.6487 118.748 84.3125 118.559C83.9811 118.365 83.5952 118.267 83.1548 118.267C82.6955 118.267 82.2884 118.374 81.9332 118.587C81.5829 118.795 81.3082 119.077 81.1094 119.432C80.9105 119.783 80.8087 120.173 80.804 120.604V122.387C80.804 122.927 80.9034 123.393 81.1023 123.786C81.3059 124.179 81.5923 124.482 81.9616 124.695C82.331 124.908 82.7689 125.015 83.2756 125.015C83.6117 125.015 83.9195 124.967 84.1989 124.873C84.4782 124.778 84.7173 124.636 84.9162 124.446C85.1151 124.257 85.2666 124.025 85.3707 123.75L88.169 123.935C88.027 124.607 87.7358 125.195 87.2955 125.696C86.8598 126.194 86.2964 126.582 85.6051 126.861C84.9186 127.136 84.1255 127.273 83.2259 127.273ZM96.1222 131.378C95.142 131.378 94.3016 131.243 93.6009 130.973C92.9048 130.708 92.3509 130.346 91.9389 129.887C91.527 129.427 91.2595 128.911 91.1364 128.338L93.9347 127.962C94.0199 128.18 94.1548 128.383 94.3395 128.573C94.5241 128.762 94.768 128.914 95.071 129.027C95.3788 129.146 95.7528 129.205 96.1932 129.205C96.8513 129.205 97.3935 129.044 97.8196 128.722C98.2505 128.405 98.4659 127.872 98.4659 127.124V125.128H98.3381C98.2055 125.431 98.0066 125.718 97.7415 125.988C97.4763 126.258 97.1354 126.478 96.7188 126.648C96.3021 126.819 95.8049 126.904 95.2273 126.904C94.4081 126.904 93.6624 126.714 92.9901 126.336C92.3224 125.952 91.7898 125.367 91.392 124.581C90.9991 123.791 90.8026 122.792 90.8026 121.584C90.8026 120.348 91.0038 119.316 91.4062 118.488C91.8087 117.659 92.3438 117.039 93.0114 116.627C93.6837 116.215 94.42 116.009 95.2202 116.009C95.831 116.009 96.3423 116.113 96.7543 116.321C97.1662 116.525 97.4976 116.781 97.7486 117.088C98.0043 117.391 98.2008 117.69 98.3381 117.983H98.4517V116.151H101.456V127.167C101.456 128.095 101.229 128.871 100.774 129.496C100.32 130.121 99.6899 130.59 98.8849 130.902C98.0848 131.22 97.1638 131.378 96.1222 131.378ZM96.1861 124.631C96.6738 124.631 97.0857 124.51 97.4219 124.269C97.7628 124.023 98.0232 123.672 98.2031 123.218C98.3878 122.758 98.4801 122.209 98.4801 121.57C98.4801 120.931 98.3902 120.377 98.2102 119.908C98.0303 119.435 97.7699 119.068 97.429 118.807C97.0881 118.547 96.6738 118.417 96.1861 118.417C95.6889 118.417 95.2699 118.552 94.929 118.821C94.5881 119.087 94.33 119.456 94.1548 119.929C93.9796 120.403 93.892 120.95 93.892 121.57C93.892 122.2 93.9796 122.744 94.1548 123.204C94.3348 123.658 94.5928 124.011 94.929 124.262C95.2699 124.508 95.6889 124.631 96.1861 124.631ZM104.864 127.06V116.151H107.889V127.06H104.864ZM106.384 114.745C105.934 114.745 105.548 114.596 105.226 114.297C104.909 113.994 104.75 113.632 104.75 113.211C104.75 112.794 104.909 112.436 105.226 112.138C105.548 111.835 105.934 111.684 106.384 111.684C106.833 111.684 107.217 111.835 107.534 112.138C107.856 112.436 108.017 112.794 108.017 113.211C108.017 113.632 107.856 113.994 107.534 114.297C107.217 114.596 106.833 114.745 106.384 114.745ZM115.333 127.238C114.504 127.238 113.754 127.025 113.081 126.598C112.414 126.168 111.883 125.535 111.49 124.702C111.102 123.864 110.908 122.837 110.908 121.62C110.908 120.37 111.109 119.33 111.512 118.502C111.914 117.668 112.449 117.046 113.117 116.634C113.789 116.217 114.525 116.009 115.326 116.009C115.936 116.009 116.445 116.113 116.853 116.321C117.265 116.525 117.596 116.781 117.847 117.088C118.103 117.391 118.297 117.69 118.429 117.983H118.522V112.515H121.54V127.06H118.557V125.313H118.429C118.287 125.616 118.086 125.917 117.826 126.215C117.57 126.508 117.236 126.752 116.824 126.946C116.417 127.141 115.92 127.238 115.333 127.238ZM116.292 124.83C116.779 124.83 117.191 124.697 117.527 124.432C117.868 124.162 118.129 123.786 118.309 123.303C118.493 122.82 118.586 122.254 118.586 121.606C118.586 120.957 118.496 120.393 118.316 119.915C118.136 119.437 117.875 119.068 117.534 118.807C117.194 118.547 116.779 118.417 116.292 118.417C115.794 118.417 115.375 118.552 115.034 118.821C114.694 119.091 114.435 119.465 114.26 119.944C114.085 120.422 113.998 120.976 113.998 121.606C113.998 122.24 114.085 122.801 114.26 123.289C114.44 123.772 114.698 124.15 115.034 124.425C115.375 124.695 115.794 124.83 116.292 124.83ZM128.138 127.266C127.442 127.266 126.822 127.145 126.278 126.904C125.733 126.658 125.302 126.295 124.985 125.817C124.673 125.334 124.516 124.733 124.516 124.013C124.516 123.407 124.628 122.898 124.85 122.486C125.073 122.074 125.376 121.743 125.759 121.492C126.143 121.241 126.578 121.052 127.066 120.924C127.558 120.796 128.075 120.706 128.614 120.654C129.249 120.588 129.76 120.526 130.148 120.469C130.537 120.408 130.818 120.318 130.994 120.199C131.169 120.081 131.256 119.906 131.256 119.674V119.631C131.256 119.181 131.114 118.833 130.83 118.587C130.551 118.341 130.153 118.218 129.637 118.218C129.093 118.218 128.659 118.338 128.337 118.58C128.015 118.817 127.802 119.115 127.698 119.475L124.9 119.248C125.042 118.585 125.321 118.012 125.738 117.529C126.155 117.041 126.692 116.667 127.35 116.407C128.013 116.141 128.78 116.009 129.651 116.009C130.257 116.009 130.837 116.08 131.391 116.222C131.95 116.364 132.445 116.584 132.876 116.883C133.311 117.181 133.655 117.564 133.906 118.033C134.156 118.497 134.282 119.053 134.282 119.702V127.06H131.413V125.547H131.327C131.152 125.888 130.918 126.189 130.624 126.449C130.331 126.705 129.978 126.906 129.566 127.053C129.154 127.195 128.678 127.266 128.138 127.266ZM129.005 125.178C129.45 125.178 129.843 125.09 130.184 124.915C130.525 124.735 130.792 124.494 130.987 124.191C131.181 123.888 131.278 123.544 131.278 123.161V122.003C131.183 122.065 131.053 122.122 130.887 122.174C130.726 122.221 130.544 122.266 130.34 122.309C130.137 122.347 129.933 122.382 129.729 122.415C129.526 122.444 129.341 122.47 129.175 122.493C128.82 122.545 128.51 122.628 128.245 122.742C127.98 122.856 127.774 123.009 127.627 123.204C127.48 123.393 127.407 123.63 127.407 123.914C127.407 124.326 127.556 124.641 127.854 124.858C128.157 125.071 128.541 125.178 129.005 125.178Z" fill="white"/>
<path d="M19.7599 154.06V145.333H25.027V146.27H20.8168V149.219H24.7543V150.157H20.8168V153.123H25.0952V154.06H19.7599ZM31.4318 148.981L30.5284 149.236C30.4716 149.086 30.3878 148.939 30.277 148.797C30.169 148.652 30.0213 148.533 29.8338 148.439C29.6463 148.346 29.4062 148.299 29.1136 148.299C28.7131 148.299 28.3793 148.391 28.1122 148.576C27.848 148.758 27.7159 148.989 27.7159 149.27C27.7159 149.52 27.8068 149.718 27.9886 149.863C28.1705 150.008 28.4545 150.128 28.8409 150.225L29.8125 150.463C30.3977 150.606 30.8338 150.823 31.1207 151.115C31.4077 151.405 31.5511 151.779 31.5511 152.236C31.5511 152.611 31.4432 152.946 31.2273 153.242C31.0142 153.537 30.7159 153.77 30.3324 153.941C29.9489 154.111 29.5028 154.196 28.9943 154.196C28.3267 154.196 27.7741 154.052 27.3366 153.762C26.8991 153.472 26.6222 153.049 26.5057 152.492L27.4602 152.253C27.5511 152.606 27.723 152.87 27.9759 153.046C28.2315 153.222 28.5653 153.31 28.9773 153.31C29.446 153.31 29.8182 153.211 30.0938 153.012C30.3722 152.81 30.5114 152.569 30.5114 152.287C30.5114 152.06 30.4318 151.87 30.2727 151.716C30.1136 151.56 29.8693 151.444 29.5398 151.367L28.4489 151.111C27.8494 150.969 27.4091 150.749 27.1278 150.451C26.8494 150.15 26.7102 149.773 26.7102 149.321C26.7102 148.952 26.8139 148.625 27.0213 148.341C27.2315 148.057 27.517 147.834 27.8778 147.672C28.2415 147.51 28.6534 147.429 29.1136 147.429C29.7614 147.429 30.2699 147.571 30.6392 147.856C31.0114 148.14 31.2756 148.515 31.4318 148.981ZM35.9116 147.515V148.367H32.5195V147.515H35.9116ZM33.5082 145.946H34.5138V152.185C34.5138 152.469 34.555 152.682 34.6374 152.824C34.7227 152.963 34.8306 153.057 34.9613 153.106C35.0948 153.151 35.2354 153.174 35.3832 153.174C35.494 153.174 35.5849 153.168 35.6559 153.157C35.7269 153.142 35.7837 153.131 35.8263 153.123L36.0309 154.026C35.9627 154.052 35.8675 154.077 35.7454 154.103C35.6232 154.131 35.4684 154.145 35.2809 154.145C34.9968 154.145 34.7184 154.084 34.4457 153.962C34.1758 153.84 33.9513 153.654 33.7724 153.404C33.5962 153.154 33.5082 152.838 33.5082 152.458V145.946ZM40.0984 154.196C39.4677 154.196 38.9237 154.057 38.4663 153.779C38.0117 153.498 37.6609 153.106 37.4137 152.603C37.1694 152.097 37.0472 151.509 37.0472 150.838C37.0472 150.168 37.1694 149.577 37.4137 149.066C37.6609 148.552 38.0046 148.151 38.445 147.864C38.8881 147.574 39.4052 147.429 39.9961 147.429C40.337 147.429 40.6737 147.486 41.006 147.6C41.3384 147.713 41.641 147.898 41.9137 148.154C42.1864 148.407 42.4038 148.742 42.5657 149.159C42.7276 149.577 42.8086 150.091 42.8086 150.702V151.128H37.7631V150.259H41.7859C41.7859 149.89 41.712 149.56 41.5643 149.27C41.4194 148.981 41.212 148.752 40.9421 148.584C40.6751 148.417 40.3597 148.333 39.9961 148.333C39.5955 148.333 39.2489 148.432 38.9563 148.631C38.6665 148.827 38.4435 149.083 38.2873 149.398C38.131 149.713 38.0529 150.052 38.0529 150.412V150.992C38.0529 151.486 38.1381 151.905 38.3086 152.249C38.4819 152.59 38.7219 152.85 39.0288 153.029C39.3356 153.205 39.6921 153.293 40.0984 153.293C40.3626 153.293 40.6012 153.256 40.8143 153.182C41.0302 153.106 41.2163 152.992 41.3725 152.841C41.5288 152.688 41.6495 152.498 41.7347 152.27L42.7063 152.543C42.604 152.873 42.4322 153.162 42.1907 153.412C41.9492 153.659 41.6509 153.853 41.2958 153.992C40.9407 154.128 40.5415 154.196 40.0984 154.196ZM47.7134 154.06V147.515H48.7191V154.06H47.7134ZM47.7646 146.628L48.8043 144.651H49.9805L48.6509 146.628H47.7646ZM53.2202 154.196C52.6065 154.196 52.0781 154.052 51.6349 153.762C51.1918 153.472 50.8509 153.073 50.6122 152.564C50.3736 152.056 50.2543 151.475 50.2543 150.821C50.2543 150.157 50.3764 149.57 50.6207 149.061C50.8679 148.55 51.2116 148.151 51.652 147.864C52.0952 147.574 52.6122 147.429 53.2031 147.429C53.6634 147.429 54.0781 147.515 54.4474 147.685C54.8168 147.856 55.1193 148.094 55.3551 148.401C55.5909 148.708 55.7372 149.066 55.794 149.475H54.7884C54.7116 149.177 54.5412 148.912 54.277 148.682C54.0156 148.449 53.6634 148.333 53.2202 148.333C52.8281 148.333 52.4844 148.435 52.1889 148.64C51.8963 148.841 51.6676 149.127 51.5028 149.496C51.3409 149.863 51.2599 150.293 51.2599 150.787C51.2599 151.293 51.3395 151.733 51.4986 152.108C51.6605 152.483 51.8878 152.775 52.1804 152.982C52.4759 153.189 52.8224 153.293 53.2202 153.293C53.4815 153.293 53.7188 153.248 53.9318 153.157C54.1449 153.066 54.3253 152.935 54.473 152.765C54.6207 152.594 54.7259 152.39 54.7884 152.151H55.794C55.7372 152.537 55.5966 152.885 55.3722 153.195C55.1506 153.502 54.8565 153.746 54.4901 153.928C54.1264 154.107 53.7031 154.196 53.2202 154.196ZM59.9233 154.196C59.3324 154.196 58.8139 154.056 58.3679 153.775C57.9247 153.493 57.5781 153.1 57.3281 152.594C57.081 152.088 56.9574 151.498 56.9574 150.821C56.9574 150.14 57.081 149.544 57.3281 149.036C57.5781 148.527 57.9247 148.133 58.3679 147.851C58.8139 147.57 59.3324 147.429 59.9233 147.429C60.5142 147.429 61.0313 147.57 61.4744 147.851C61.9205 148.133 62.267 148.527 62.5142 149.036C62.7642 149.544 62.8892 150.14 62.8892 150.821C62.8892 151.498 62.7642 152.088 62.5142 152.594C62.267 153.1 61.9205 153.493 61.4744 153.775C61.0313 154.056 60.5142 154.196 59.9233 154.196ZM59.9233 153.293C60.3722 153.293 60.7415 153.178 61.0312 152.948C61.321 152.718 61.5355 152.415 61.6747 152.04C61.8139 151.665 61.8835 151.259 61.8835 150.821C61.8835 150.384 61.8139 149.976 61.6747 149.598C61.5355 149.221 61.321 148.915 61.0312 148.682C60.7415 148.449 60.3722 148.333 59.9233 148.333C59.4744 148.333 59.1051 148.449 58.8153 148.682C58.5256 148.915 58.3111 149.221 58.1719 149.598C58.0327 149.976 57.9631 150.384 57.9631 150.821C57.9631 151.259 58.0327 151.665 58.1719 152.04C58.3111 152.415 58.5256 152.718 58.8153 152.948C59.1051 153.178 59.4744 153.293 59.9233 153.293ZM65.43 150.123V154.06H64.4244V147.515H65.396V148.537H65.4812C65.6346 148.205 65.8675 147.938 66.18 147.736C66.4925 147.532 66.896 147.429 67.3903 147.429C67.8335 147.429 68.2212 147.52 68.5536 147.702C68.886 147.881 69.1445 148.154 69.3292 148.52C69.5138 148.884 69.6062 149.344 69.6062 149.901V154.06H68.6005V149.969C68.6005 149.455 68.467 149.054 68.1999 148.767C67.9329 148.478 67.5664 148.333 67.1005 148.333C66.7795 148.333 66.4925 148.402 66.2397 148.542C65.9897 148.681 65.7923 148.884 65.6474 149.151C65.5025 149.418 65.43 149.742 65.43 150.123ZM74.1882 154.196C73.5575 154.196 73.0135 154.057 72.5561 153.779C72.1016 153.498 71.7507 153.106 71.5036 152.603C71.2592 152.097 71.1371 151.509 71.1371 150.838C71.1371 150.168 71.2592 149.577 71.5036 149.066C71.7507 148.552 72.0945 148.151 72.5348 147.864C72.978 147.574 73.495 147.429 74.0859 147.429C74.4268 147.429 74.7635 147.486 75.0959 147.6C75.4283 147.713 75.7308 147.898 76.0036 148.154C76.2763 148.407 76.4936 148.742 76.6555 149.159C76.8175 149.577 76.8984 150.091 76.8984 150.702V151.128H71.853V150.259H75.8757C75.8757 149.89 75.8018 149.56 75.6541 149.27C75.5092 148.981 75.3018 148.752 75.032 148.584C74.7649 148.417 74.4496 148.333 74.0859 148.333C73.6854 148.333 73.3388 148.432 73.0462 148.631C72.7564 148.827 72.5334 149.083 72.3771 149.398C72.2209 149.713 72.1428 150.052 72.1428 150.412V150.992C72.1428 151.486 72.228 151.905 72.3984 152.249C72.5717 152.59 72.8118 152.85 73.1186 153.029C73.4254 153.205 73.782 153.293 74.1882 153.293C74.4524 153.293 74.6911 153.256 74.9041 153.182C75.12 153.106 75.3061 152.992 75.4624 152.841C75.6186 152.688 75.7393 152.498 75.8246 152.27L76.7962 152.543C76.6939 152.873 76.522 153.162 76.2805 153.412C76.0391 153.659 75.7408 153.853 75.3857 153.992C75.0305 154.128 74.6314 154.196 74.1882 154.196ZM81.8033 154.06V147.515H82.8089V154.06H81.8033ZM82.3146 146.424C82.1186 146.424 81.9496 146.357 81.8075 146.223C81.6683 146.09 81.5987 145.929 81.5987 145.742C81.5987 145.554 81.6683 145.394 81.8075 145.26C81.9496 145.127 82.1186 145.06 82.3146 145.06C82.5107 145.06 82.6783 145.127 82.8175 145.26C82.9595 145.394 83.0305 145.554 83.0305 145.742C83.0305 145.929 82.9595 146.09 82.8175 146.223C82.6783 146.357 82.5107 146.424 82.3146 146.424ZM85.6566 150.123V154.06H84.6509V147.515H85.6225V148.537H85.7077C85.8612 148.205 86.0941 147.938 86.4066 147.736C86.7191 147.532 87.1225 147.429 87.6168 147.429C88.06 147.429 88.4478 147.52 88.7802 147.702C89.1126 147.881 89.3711 148.154 89.5558 148.52C89.7404 148.884 89.8327 149.344 89.8327 149.901V154.06H88.8271V149.969C88.8271 149.455 88.6935 149.054 88.4265 148.767C88.1594 148.478 87.793 148.333 87.3271 148.333C87.006 148.333 86.7191 148.402 86.4663 148.542C86.2163 148.681 86.0188 148.884 85.8739 149.151C85.729 149.418 85.6566 149.742 85.6566 150.123ZM94.142 154.196C93.5966 154.196 93.1151 154.059 92.6974 153.783C92.2798 153.505 91.9531 153.113 91.7173 152.607C91.4815 152.098 91.3636 151.498 91.3636 150.804C91.3636 150.117 91.4815 149.52 91.7173 149.015C91.9531 148.509 92.2813 148.118 92.7017 147.843C93.1222 147.567 93.608 147.429 94.1591 147.429C94.5852 147.429 94.9219 147.5 95.169 147.642C95.419 147.782 95.6094 147.941 95.7401 148.12C95.8736 148.296 95.9773 148.441 96.0511 148.554H96.1364V145.333H97.142V154.06H96.1705V153.054H96.0511C95.9773 153.174 95.8722 153.324 95.7358 153.506C95.5994 153.685 95.4048 153.846 95.152 153.988C94.8991 154.127 94.5625 154.196 94.142 154.196ZM94.2784 153.293C94.6818 153.293 95.0227 153.188 95.3011 152.978C95.5795 152.765 95.7912 152.471 95.9361 152.096C96.081 151.718 96.1534 151.282 96.1534 150.787C96.1534 150.299 96.0824 149.871 95.9403 149.505C95.7983 149.135 95.5881 148.848 95.3097 148.644C95.0313 148.436 94.6875 148.333 94.2784 148.333C93.8523 148.333 93.4972 148.442 93.2131 148.661C92.9318 148.877 92.7202 149.171 92.5781 149.543C92.4389 149.912 92.3693 150.327 92.3693 150.787C92.3693 151.253 92.4403 151.677 92.5824 152.057C92.7273 152.435 92.9403 152.736 93.2216 152.961C93.5057 153.182 93.858 153.293 94.2784 153.293ZM99.1236 154.06V147.515H100.129V154.06H99.1236ZM99.6349 146.424C99.4389 146.424 99.2699 146.357 99.1278 146.223C98.9886 146.09 98.919 145.929 98.919 145.742C98.919 145.554 98.9886 145.394 99.1278 145.26C99.2699 145.127 99.4389 145.06 99.6349 145.06C99.831 145.06 99.9986 145.127 100.138 145.26C100.28 145.394 100.351 145.554 100.351 145.742C100.351 145.929 100.28 146.09 100.138 146.223C99.9986 146.357 99.831 146.424 99.6349 146.424ZM104.63 154.196C104.017 154.196 103.488 154.052 103.045 153.762C102.602 153.472 102.261 153.073 102.022 152.564C101.784 152.056 101.664 151.475 101.664 150.821C101.664 150.157 101.787 149.57 102.031 149.061C102.278 148.55 102.622 148.151 103.062 147.864C103.505 147.574 104.022 147.429 104.613 147.429C105.074 147.429 105.488 147.515 105.858 147.685C106.227 147.856 106.529 148.094 106.765 148.401C107.001 148.708 107.147 149.066 107.204 149.475H106.199C106.122 149.177 105.951 148.912 105.687 148.682C105.426 148.449 105.074 148.333 104.63 148.333C104.238 148.333 103.895 148.435 103.599 148.64C103.306 148.841 103.078 149.127 102.913 149.496C102.751 149.863 102.67 150.293 102.67 150.787C102.67 151.293 102.75 151.733 102.909 152.108C103.071 152.483 103.298 152.775 103.591 152.982C103.886 153.189 104.233 153.293 104.63 153.293C104.892 153.293 105.129 153.248 105.342 153.157C105.555 153.066 105.735 152.935 105.883 152.765C106.031 152.594 106.136 152.39 106.199 152.151H107.204C107.147 152.537 107.007 152.885 106.782 153.195C106.561 153.502 106.267 153.746 105.9 153.928C105.537 154.107 105.113 154.196 104.63 154.196ZM110.6 154.213C110.186 154.213 109.809 154.135 109.471 153.979C109.133 153.82 108.865 153.591 108.666 153.293C108.467 152.992 108.368 152.628 108.368 152.202C108.368 151.827 108.441 151.523 108.589 151.29C108.737 151.054 108.934 150.87 109.181 150.736C109.429 150.603 109.701 150.503 110 150.438C110.301 150.37 110.603 150.316 110.907 150.276C111.305 150.225 111.627 150.186 111.875 150.161C112.125 150.133 112.306 150.086 112.42 150.02C112.537 149.955 112.595 149.841 112.595 149.679V149.645C112.595 149.225 112.48 148.898 112.25 148.665C112.022 148.432 111.677 148.316 111.214 148.316C110.734 148.316 110.358 148.421 110.085 148.631C109.812 148.841 109.62 149.066 109.51 149.304L108.555 148.963C108.725 148.566 108.953 148.256 109.237 148.034C109.524 147.81 109.836 147.654 110.174 147.566C110.515 147.475 110.85 147.429 111.18 147.429C111.39 147.429 111.632 147.455 111.904 147.506C112.18 147.554 112.446 147.655 112.701 147.809C112.96 147.962 113.174 148.194 113.345 148.503C113.515 148.813 113.6 149.228 113.6 149.748V154.06H112.595V153.174H112.544C112.475 153.316 112.362 153.468 112.203 153.63C112.044 153.792 111.832 153.929 111.568 154.043C111.304 154.157 110.981 154.213 110.6 154.213ZM110.754 153.31C111.152 153.31 111.487 153.232 111.76 153.076C112.035 152.919 112.243 152.718 112.382 152.471C112.524 152.223 112.595 151.963 112.595 151.691V150.77C112.552 150.821 112.458 150.868 112.314 150.911C112.172 150.951 112.007 150.986 111.819 151.017C111.635 151.046 111.454 151.071 111.278 151.094C111.105 151.114 110.964 151.131 110.856 151.145C110.595 151.179 110.35 151.235 110.123 151.311C109.899 151.385 109.717 151.498 109.578 151.648C109.441 151.796 109.373 151.998 109.373 152.253C109.373 152.603 109.502 152.867 109.761 153.046C110.022 153.222 110.353 153.31 110.754 153.31ZM123.277 156.515V153.054H123.192C123.118 153.174 123.013 153.324 122.876 153.506C122.74 153.685 122.545 153.846 122.293 153.988C122.04 154.127 121.703 154.196 121.283 154.196C120.737 154.196 120.256 154.059 119.838 153.783C119.42 153.505 119.094 153.113 118.858 152.607C118.622 152.098 118.504 151.498 118.504 150.804C118.504 150.117 118.622 149.52 118.858 149.015C119.094 148.509 119.422 148.118 119.842 147.843C120.263 147.567 120.749 147.429 121.3 147.429C121.726 147.429 122.063 147.5 122.31 147.642C122.56 147.782 122.75 147.941 122.881 148.12C123.014 148.296 123.118 148.441 123.192 148.554H123.311V147.515H124.283V156.515H123.277ZM121.419 153.293C121.822 153.293 122.163 153.188 122.442 152.978C122.72 152.765 122.932 152.471 123.077 152.096C123.222 151.718 123.294 151.282 123.294 150.787C123.294 150.299 123.223 149.871 123.081 149.505C122.939 149.135 122.729 148.848 122.45 148.644C122.172 148.436 121.828 148.333 121.419 148.333C120.993 148.333 120.638 148.442 120.354 148.661C120.072 148.877 119.861 149.171 119.719 149.543C119.58 149.912 119.51 150.327 119.51 150.787C119.51 151.253 119.581 151.677 119.723 152.057C119.868 152.435 120.081 152.736 120.362 152.961C120.646 153.182 120.999 153.293 121.419 153.293ZM130.249 151.384V147.515H131.254V154.06H130.249V152.952H130.18C130.027 153.284 129.788 153.567 129.464 153.8C129.141 154.03 128.732 154.145 128.237 154.145C127.828 154.145 127.464 154.056 127.146 153.877C126.828 153.695 126.578 153.422 126.396 153.059C126.214 152.692 126.124 152.231 126.124 151.674V147.515H127.129V151.606C127.129 152.083 127.263 152.463 127.53 152.748C127.8 153.032 128.143 153.174 128.561 153.174C128.811 153.174 129.065 153.11 129.324 152.982C129.585 152.854 129.804 152.658 129.98 152.394C130.159 152.13 130.249 151.793 130.249 151.384ZM135.841 154.196C135.21 154.196 134.666 154.057 134.208 153.779C133.754 153.498 133.403 153.106 133.156 152.603C132.912 152.097 132.789 151.509 132.789 150.838C132.789 150.168 132.912 149.577 133.156 149.066C133.403 148.552 133.747 148.151 134.187 147.864C134.63 147.574 135.147 147.429 135.738 147.429C136.079 147.429 136.416 147.486 136.748 147.6C137.081 147.713 137.383 147.898 137.656 148.154C137.929 148.407 138.146 148.742 138.308 149.159C138.47 149.577 138.551 150.091 138.551 150.702V151.128H133.505V150.259H137.528C137.528 149.89 137.454 149.56 137.306 149.27C137.162 148.981 136.954 148.752 136.684 148.584C136.417 148.417 136.102 148.333 135.738 148.333C135.338 148.333 134.991 148.432 134.699 148.631C134.409 148.827 134.186 149.083 134.029 149.398C133.873 149.713 133.795 150.052 133.795 150.412V150.992C133.795 151.486 133.88 151.905 134.051 152.249C134.224 152.59 134.464 152.85 134.771 153.029C135.078 153.205 135.434 153.293 135.841 153.293C136.105 153.293 136.343 153.256 136.556 153.182C136.772 153.106 136.958 152.992 137.115 152.841C137.271 152.688 137.392 152.498 137.477 152.27L138.449 152.543C138.346 152.873 138.174 153.162 137.933 153.412C137.691 153.659 137.393 153.853 137.038 153.992C136.683 154.128 136.284 154.196 135.841 154.196ZM145.382 154.213C144.967 154.213 144.591 154.135 144.252 153.979C143.914 153.82 143.646 153.591 143.447 153.293C143.248 152.992 143.149 152.628 143.149 152.202C143.149 151.827 143.223 151.523 143.37 151.29C143.518 151.054 143.716 150.87 143.963 150.736C144.21 150.603 144.483 150.503 144.781 150.438C145.082 150.37 145.385 150.316 145.689 150.276C146.086 150.225 146.409 150.186 146.656 150.161C146.906 150.133 147.088 150.086 147.201 150.02C147.318 149.955 147.376 149.841 147.376 149.679V149.645C147.376 149.225 147.261 148.898 147.031 148.665C146.804 148.432 146.458 148.316 145.995 148.316C145.515 148.316 145.139 148.421 144.866 148.631C144.593 148.841 144.402 149.066 144.291 149.304L143.336 148.963C143.507 148.566 143.734 148.256 144.018 148.034C144.305 147.81 144.618 147.654 144.956 147.566C145.297 147.475 145.632 147.429 145.961 147.429C146.172 147.429 146.413 147.455 146.686 147.506C146.961 147.554 147.227 147.655 147.483 147.809C147.741 147.962 147.956 148.194 148.126 148.503C148.297 148.813 148.382 149.228 148.382 149.748V154.06H147.376V153.174H147.325C147.257 153.316 147.143 153.468 146.984 153.63C146.825 153.792 146.613 153.929 146.349 154.043C146.085 154.157 145.762 154.213 145.382 154.213ZM145.535 153.31C145.933 153.31 146.268 153.232 146.541 153.076C146.816 152.919 147.024 152.718 147.163 152.471C147.305 152.223 147.376 151.963 147.376 151.691V150.77C147.333 150.821 147.24 150.868 147.095 150.911C146.953 150.951 146.788 150.986 146.6 151.017C146.416 151.046 146.235 151.071 146.059 151.094C145.886 151.114 145.745 151.131 145.637 151.145C145.376 151.179 145.132 151.235 144.904 151.311C144.68 151.385 144.498 151.498 144.359 151.648C144.223 151.796 144.154 151.998 144.154 152.253C144.154 152.603 144.284 152.867 144.542 153.046C144.804 153.222 145.135 153.31 145.535 153.31ZM15.1177 169.06V162.515H16.0893V163.503H16.1575C16.2768 163.179 16.4927 162.917 16.8052 162.715C17.1177 162.513 17.47 162.412 17.862 162.412C17.9359 162.412 18.0282 162.414 18.139 162.417C18.2498 162.419 18.3336 162.424 18.3904 162.429V163.452C18.3564 163.444 18.2782 163.431 18.1561 163.414C18.0368 163.394 17.9103 163.384 17.7768 163.384C17.4586 163.384 17.1745 163.451 16.9245 163.584C16.6774 163.715 16.4814 163.897 16.3365 164.13C16.1944 164.36 16.1234 164.623 16.1234 164.918V169.06H15.1177ZM22.0424 169.196C21.4515 169.196 20.9331 169.056 20.487 168.775C20.0439 168.493 19.6973 168.1 19.4473 167.594C19.2001 167.088 19.0765 166.498 19.0765 165.821C19.0765 165.14 19.2001 164.544 19.4473 164.036C19.6973 163.527 20.0439 163.133 20.487 162.851C20.9331 162.57 21.4515 162.429 22.0424 162.429C22.6333 162.429 23.1504 162.57 23.5936 162.851C24.0396 163.133 24.3862 163.527 24.6333 164.036C24.8833 164.544 25.0083 165.14 25.0083 165.821C25.0083 166.498 24.8833 167.088 24.6333 167.594C24.3862 168.1 24.0396 168.493 23.5936 168.775C23.1504 169.056 22.6333 169.196 22.0424 169.196ZM22.0424 168.293C22.4913 168.293 22.8606 168.178 23.1504 167.948C23.4402 167.718 23.6547 167.415 23.7939 167.04C23.9331 166.665 24.0027 166.259 24.0027 165.821C24.0027 165.384 23.9331 164.976 23.7939 164.598C23.6547 164.221 23.4402 163.915 23.1504 163.682C22.8606 163.449 22.4913 163.333 22.0424 163.333C21.5936 163.333 21.2243 163.449 20.9345 163.682C20.6447 163.915 20.4302 164.221 20.291 164.598C20.1518 164.976 20.0822 165.384 20.0822 165.821C20.0822 166.259 20.1518 166.665 20.291 167.04C20.4302 167.415 20.6447 167.718 20.9345 167.948C21.2243 168.178 21.5936 168.293 22.0424 168.293ZM29.3901 162.515V163.367H25.998V162.515H29.3901ZM26.9867 160.946H27.9924V167.185C27.9924 167.469 28.0336 167.682 28.1159 167.824C28.2012 167.963 28.3091 168.057 28.4398 168.106C28.5733 168.151 28.714 168.174 28.8617 168.174C28.9725 168.174 29.0634 168.168 29.1344 168.157C29.2054 168.142 29.2623 168.131 29.3049 168.123L29.5094 169.026C29.4412 169.052 29.3461 169.077 29.2239 169.103C29.1017 169.131 28.9469 169.145 28.7594 169.145C28.4753 169.145 28.1969 169.084 27.9242 168.962C27.6543 168.84 27.4299 168.654 27.2509 168.404C27.0748 168.154 26.9867 167.838 26.9867 167.458V160.946ZM32.829 169.213C32.4142 169.213 32.0378 169.135 31.6998 168.979C31.3617 168.82 31.0932 168.591 30.8944 168.293C30.6955 167.992 30.5961 167.628 30.5961 167.202C30.5961 166.827 30.6699 166.523 30.8176 166.29C30.9654 166.054 31.1628 165.87 31.41 165.736C31.6571 165.603 31.9299 165.503 32.2282 165.438C32.5293 165.37 32.8319 165.316 33.1358 165.276C33.5336 165.225 33.856 165.186 34.1032 165.161C34.3532 165.133 34.535 165.086 34.6486 165.02C34.7651 164.955 34.8233 164.841 34.8233 164.679V164.645C34.8233 164.225 34.7083 163.898 34.4782 163.665C34.2509 163.432 33.9057 163.316 33.4426 163.316C32.9625 163.316 32.5861 163.421 32.3134 163.631C32.0407 163.841 31.8489 164.066 31.7381 164.304L30.7836 163.963C30.954 163.566 31.1813 163.256 31.4654 163.034C31.7523 162.81 32.0648 162.654 32.4029 162.566C32.7438 162.475 33.079 162.429 33.4086 162.429C33.6188 162.429 33.8603 162.455 34.133 162.506C34.4086 162.554 34.6742 162.655 34.9299 162.809C35.1884 162.962 35.4029 163.194 35.5733 163.503C35.7438 163.813 35.829 164.228 35.829 164.748V169.06H34.8233V168.174H34.7722C34.704 168.316 34.5904 168.468 34.4313 168.63C34.2722 168.792 34.0605 168.929 33.7963 169.043C33.5321 169.157 33.2097 169.213 32.829 169.213ZM32.9824 168.31C33.3801 168.31 33.7154 168.232 33.9881 168.076C34.2637 167.919 34.4711 167.718 34.6103 167.471C34.7523 167.223 34.8233 166.963 34.8233 166.691V165.77C34.7807 165.821 34.687 165.868 34.5421 165.911C34.4 165.951 34.2353 165.986 34.0478 166.017C33.8631 166.046 33.6827 166.071 33.5066 166.094C33.3333 166.114 33.1926 166.131 33.0847 166.145C32.8233 166.179 32.579 166.235 32.3517 166.311C32.1273 166.385 31.9455 166.498 31.8063 166.648C31.6699 166.796 31.6017 166.998 31.6017 167.253C31.6017 167.603 31.731 167.867 31.9895 168.046C32.2509 168.222 32.5819 168.31 32.9824 168.31ZM41.0396 169.06V162.515H42.0112V163.503H42.0794C42.1987 163.179 42.4146 162.917 42.7271 162.715C43.0396 162.513 43.3919 162.412 43.7839 162.412C43.8578 162.412 43.9501 162.414 44.0609 162.417C44.1717 162.419 44.2555 162.424 44.3123 162.429V163.452C44.2782 163.444 44.2001 163.431 44.0779 163.414C43.9586 163.394 43.8322 163.384 43.6987 163.384C43.3805 163.384 43.0964 163.451 42.8464 163.584C42.5993 163.715 42.4032 163.897 42.2583 164.13C42.1163 164.36 42.0453 164.623 42.0453 164.918V169.06H41.0396ZM48.0495 169.196C47.4189 169.196 46.8748 169.057 46.4174 168.779C45.9629 168.498 45.612 168.106 45.3649 167.603C45.1206 167.097 44.9984 166.509 44.9984 165.838C44.9984 165.168 45.1206 164.577 45.3649 164.066C45.612 163.552 45.9558 163.151 46.3961 162.864C46.8393 162.574 47.3564 162.429 47.9473 162.429C48.2882 162.429 48.6248 162.486 48.9572 162.6C49.2896 162.713 49.5922 162.898 49.8649 163.154C50.1376 163.407 50.3549 163.742 50.5169 164.159C50.6788 164.577 50.7598 165.091 50.7598 165.702V166.128H45.7143V165.259H49.737C49.737 164.89 49.6632 164.56 49.5154 164.27C49.3706 163.981 49.1632 163.752 48.8933 163.584C48.6262 163.417 48.3109 163.333 47.9473 163.333C47.5467 163.333 47.2001 163.432 46.9075 163.631C46.6177 163.827 46.3947 164.083 46.2385 164.398C46.0822 164.713 46.0041 165.052 46.0041 165.412V165.992C46.0041 166.486 46.0893 166.905 46.2598 167.249C46.4331 167.59 46.6731 167.85 46.9799 168.029C47.2868 168.205 47.6433 168.293 48.0495 168.293C48.3137 168.293 48.5524 168.256 48.7654 168.182C48.9814 168.106 49.1674 167.992 49.3237 167.841C49.4799 167.688 49.6007 167.498 49.6859 167.27L50.6575 167.543C50.5552 167.873 50.3833 168.162 50.1419 168.412C49.9004 168.659 49.6021 168.853 49.247 168.992C48.8919 169.128 48.4927 169.196 48.0495 169.196ZM56.7555 171.515V168.054H56.6703C56.5964 168.174 56.4913 168.324 56.3549 168.506C56.2186 168.685 56.024 168.846 55.7711 168.988C55.5183 169.127 55.1816 169.196 54.7612 169.196C54.2157 169.196 53.7342 169.059 53.3166 168.783C52.899 168.505 52.5723 168.113 52.3365 167.607C52.1007 167.098 51.9828 166.498 51.9828 165.804C51.9828 165.117 52.1007 164.52 52.3365 164.015C52.5723 163.509 52.9004 163.118 53.3208 162.843C53.7413 162.567 54.2271 162.429 54.7782 162.429C55.2044 162.429 55.541 162.5 55.7882 162.642C56.0382 162.782 56.2285 162.941 56.3592 163.12C56.4927 163.296 56.5964 163.441 56.6703 163.554H56.7896V162.515H57.7612V171.515H56.7555ZM54.8975 168.293C55.301 168.293 55.6419 168.188 55.9203 167.978C56.1987 167.765 56.4103 167.471 56.5552 167.096C56.7001 166.718 56.7725 166.282 56.7725 165.787C56.7725 165.299 56.7015 164.871 56.5595 164.505C56.4174 164.135 56.2072 163.848 55.9288 163.644C55.6504 163.436 55.3066 163.333 54.8975 163.333C54.4714 163.333 54.1163 163.442 53.8322 163.661C53.551 163.877 53.3393 164.171 53.1973 164.543C53.0581 164.912 52.9885 165.327 52.9885 165.787C52.9885 166.253 53.0595 166.677 53.2015 167.057C53.3464 167.435 53.5595 167.736 53.8407 167.961C54.1248 168.182 54.4771 168.293 54.8975 168.293ZM63.7271 166.384V162.515H64.7328V169.06H63.7271V167.952H63.6589C63.5055 168.284 63.2669 168.567 62.943 168.8C62.6191 169.03 62.21 169.145 61.7157 169.145C61.3066 169.145 60.943 169.056 60.6248 168.877C60.3066 168.695 60.0566 168.422 59.8748 168.059C59.693 167.692 59.6021 167.231 59.6021 166.674V162.515H60.6078V166.606C60.6078 167.083 60.7413 167.463 61.0083 167.748C61.2782 168.032 61.622 168.174 62.0396 168.174C62.2896 168.174 62.5439 168.11 62.8024 167.982C63.0637 167.854 63.2825 167.658 63.4586 167.394C63.6376 167.13 63.7271 166.793 63.7271 166.384ZM69.3191 169.196C68.6884 169.196 68.1444 169.057 67.687 168.779C67.2324 168.498 66.8816 168.106 66.6344 167.603C66.3901 167.097 66.2679 166.509 66.2679 165.838C66.2679 165.168 66.3901 164.577 66.6344 164.066C66.8816 163.552 67.2253 163.151 67.6657 162.864C68.1088 162.574 68.6259 162.429 69.2168 162.429C69.5577 162.429 69.8944 162.486 70.2267 162.6C70.5591 162.713 70.8617 162.898 71.1344 163.154C71.4071 163.407 71.6245 163.742 71.7864 164.159C71.9483 164.577 72.0293 165.091 72.0293 165.702V166.128H66.9838V165.259H71.0066C71.0066 164.89 70.9327 164.56 70.785 164.27C70.6401 163.981 70.4327 163.752 70.1628 163.584C69.8958 163.417 69.5804 163.333 69.2168 163.333C68.8162 163.333 68.4696 163.432 68.177 163.631C67.8873 163.827 67.6642 164.083 67.508 164.398C67.3517 164.713 67.2736 165.052 67.2736 165.412V165.992C67.2736 166.486 67.3588 166.905 67.5293 167.249C67.7026 167.59 67.9426 167.85 68.2495 168.029C68.5563 168.205 68.9128 168.293 69.3191 168.293C69.5833 168.293 69.8219 168.256 70.035 168.182C70.2509 168.106 70.437 167.992 70.5932 167.841C70.7495 167.688 70.8702 167.498 70.9554 167.27L71.927 167.543C71.8248 167.873 71.6529 168.162 71.4114 168.412C71.1699 168.659 70.8716 168.853 70.5165 168.992C70.1614 169.128 69.7623 169.196 69.3191 169.196ZM73.5591 169.06V162.515H74.5307V163.503H74.5989C74.7182 163.179 74.9341 162.917 75.2466 162.715C75.5591 162.513 75.9114 162.412 76.3034 162.412C76.3773 162.412 76.4696 162.414 76.5804 162.417C76.6912 162.419 76.775 162.424 76.8319 162.429V163.452C76.7978 163.444 76.7196 163.431 76.5975 163.414C76.4782 163.394 76.3517 163.384 76.2182 163.384C75.9 163.384 75.6159 163.451 75.3659 163.584C75.1188 163.715 74.9228 163.897 74.7779 164.13C74.6358 164.36 74.5648 164.623 74.5648 164.918V169.06H73.5591ZM83.3251 169.213C82.9103 169.213 82.5339 169.135 82.1958 168.979C81.8578 168.82 81.5893 168.591 81.3904 168.293C81.1916 167.992 81.0922 167.628 81.0922 167.202C81.0922 166.827 81.166 166.523 81.3137 166.29C81.4615 166.054 81.6589 165.87 81.9061 165.736C82.1532 165.603 82.426 165.503 82.7243 165.438C83.0254 165.37 83.3279 165.316 83.6319 165.276C84.0297 165.225 84.3521 165.186 84.5993 165.161C84.8493 165.133 85.0311 165.086 85.1447 165.02C85.2612 164.955 85.3194 164.841 85.3194 164.679V164.645C85.3194 164.225 85.2044 163.898 84.9743 163.665C84.747 163.432 84.4018 163.316 83.9387 163.316C83.4586 163.316 83.0822 163.421 82.8095 163.631C82.5368 163.841 82.345 164.066 82.2342 164.304L81.2797 163.963C81.4501 163.566 81.6774 163.256 81.9615 163.034C82.2484 162.81 82.5609 162.654 82.899 162.566C83.2399 162.475 83.5751 162.429 83.9047 162.429C84.1149 162.429 84.3564 162.455 84.6291 162.506C84.9047 162.554 85.1703 162.655 85.426 162.809C85.6845 162.962 85.899 163.194 86.0694 163.503C86.2399 163.813 86.3251 164.228 86.3251 164.748V169.06H85.3194V168.174H85.2683C85.2001 168.316 85.0865 168.468 84.9274 168.63C84.7683 168.792 84.5566 168.929 84.2924 169.043C84.0282 169.157 83.7058 169.213 83.3251 169.213ZM83.4785 168.31C83.8762 168.31 84.2115 168.232 84.4842 168.076C84.7598 167.919 84.9672 167.718 85.1064 167.471C85.2484 167.223 85.3194 166.963 85.3194 166.691V165.77C85.2768 165.821 85.1831 165.868 85.0382 165.911C84.8961 165.951 84.7314 165.986 84.5439 166.017C84.3592 166.046 84.1788 166.071 84.0027 166.094C83.8294 166.114 83.6887 166.131 83.5808 166.145C83.3194 166.179 83.0751 166.235 82.8478 166.311C82.6234 166.385 82.4416 166.498 82.3024 166.648C82.166 166.796 82.0978 166.998 82.0978 167.253C82.0978 167.603 82.2271 167.867 82.4856 168.046C82.747 168.222 83.0779 168.31 83.4785 168.31ZM92.2857 166.384V162.515H93.2914V169.06H92.2857V167.952H92.2175C92.0641 168.284 91.8255 168.567 91.5016 168.8C91.1777 169.03 90.7686 169.145 90.2743 169.145C89.8652 169.145 89.5016 169.056 89.1834 168.877C88.8652 168.695 88.6152 168.422 88.4334 168.059C88.2516 167.692 88.1607 167.231 88.1607 166.674V162.515H89.1664V166.606C89.1664 167.083 89.2999 167.463 89.5669 167.748C89.8368 168.032 90.1806 168.174 90.5982 168.174C90.8482 168.174 91.1025 168.11 91.361 167.982C91.6223 167.854 91.8411 167.658 92.0172 167.394C92.1962 167.13 92.2857 166.793 92.2857 166.384ZM97.9799 162.515V163.367H94.5879V162.515H97.9799ZM95.5765 160.946H96.5822V167.185C96.5822 167.469 96.6234 167.682 96.7058 167.824C96.791 167.963 96.899 168.057 97.0297 168.106C97.1632 168.151 97.3038 168.174 97.4515 168.174C97.5623 168.174 97.6532 168.168 97.7243 168.157C97.7953 168.142 97.8521 168.131 97.8947 168.123L98.0993 169.026C98.0311 169.052 97.9359 169.077 97.8137 169.103C97.6916 169.131 97.5368 169.145 97.3493 169.145C97.0652 169.145 96.7868 169.084 96.514 168.962C96.2441 168.84 96.0197 168.654 95.8407 168.404C95.6646 168.154 95.5765 167.838 95.5765 167.458V160.946ZM102.167 169.196C101.536 169.196 100.992 169.057 100.535 168.779C100.08 168.498 99.7292 168.106 99.4821 167.603C99.2377 167.097 99.1156 166.509 99.1156 165.838C99.1156 165.168 99.2377 164.577 99.4821 164.066C99.7292 163.552 100.073 163.151 100.513 162.864C100.956 162.574 101.474 162.429 102.064 162.429C102.405 162.429 102.742 162.486 103.074 162.6C103.407 162.713 103.709 162.898 103.982 163.154C104.255 163.407 104.472 163.742 104.634 164.159C104.796 164.577 104.877 165.091 104.877 165.702V166.128H99.8315V165.259H103.854C103.854 164.89 103.78 164.56 103.633 164.27C103.488 163.981 103.28 163.752 103.01 163.584C102.743 163.417 102.428 163.333 102.064 163.333C101.664 163.333 101.317 163.432 101.025 163.631C100.735 163.827 100.512 164.083 100.356 164.398C100.199 164.713 100.121 165.052 100.121 165.412V165.992C100.121 166.486 100.206 166.905 100.377 167.249C100.55 167.59 100.79 167.85 101.097 168.029C101.404 168.205 101.76 168.293 102.167 168.293C102.431 168.293 102.67 168.256 102.883 168.182C103.099 168.106 103.285 167.992 103.441 167.841C103.597 167.688 103.718 167.498 103.803 167.27L104.775 167.543C104.672 167.873 104.501 168.162 104.259 168.412C104.018 168.659 103.719 168.853 103.364 168.992C103.009 169.128 102.61 169.196 102.167 169.196ZM107.412 165.123V169.06H106.407V162.515H107.378V163.537H107.464C107.617 163.205 107.85 162.938 108.162 162.736C108.475 162.532 108.878 162.429 109.373 162.429C109.816 162.429 110.204 162.52 110.536 162.702C110.868 162.881 111.127 163.154 111.312 163.52C111.496 163.884 111.589 164.344 111.589 164.901V169.06H110.583V164.969C110.583 164.455 110.449 164.054 110.182 163.767C109.915 163.478 109.549 163.333 109.083 163.333C108.762 163.333 108.475 163.402 108.222 163.542C107.972 163.681 107.775 163.884 107.63 164.151C107.485 164.418 107.412 164.742 107.412 165.123ZM116.273 162.515V163.367H112.881V162.515H116.273ZM113.869 160.946H114.875V167.185C114.875 167.469 114.916 167.682 114.999 167.824C115.084 167.963 115.192 168.057 115.323 168.106C115.456 168.151 115.597 168.174 115.744 168.174C115.855 168.174 115.946 168.168 116.017 168.157C116.088 168.142 116.145 168.131 116.188 168.123L116.392 169.026C116.324 169.052 116.229 169.077 116.107 169.103C115.985 169.131 115.83 169.145 115.642 169.145C115.358 169.145 115.08 169.084 114.807 168.962C114.537 168.84 114.313 168.654 114.134 168.404C113.958 168.154 113.869 167.838 113.869 167.458V160.946ZM117.786 169.06V162.515H118.791V169.06H117.786ZM118.297 161.424C118.101 161.424 117.932 161.357 117.79 161.223C117.651 161.09 117.581 160.929 117.581 160.742C117.581 160.554 117.651 160.394 117.79 160.26C117.932 160.127 118.101 160.06 118.297 160.06C118.493 160.06 118.661 160.127 118.8 160.26C118.942 160.394 119.013 160.554 119.013 160.742C119.013 160.929 118.942 161.09 118.8 161.223C118.661 161.357 118.493 161.424 118.297 161.424ZM123.292 169.196C122.679 169.196 122.15 169.052 121.707 168.762C121.264 168.472 120.923 168.073 120.684 167.564C120.446 167.056 120.327 166.475 120.327 165.821C120.327 165.157 120.449 164.57 120.693 164.061C120.94 163.55 121.284 163.151 121.724 162.864C122.167 162.574 122.684 162.429 123.275 162.429C123.736 162.429 124.15 162.515 124.52 162.685C124.889 162.856 125.192 163.094 125.427 163.401C125.663 163.708 125.809 164.066 125.866 164.475H124.861C124.784 164.177 124.613 163.912 124.349 163.682C124.088 163.449 123.736 163.333 123.292 163.333C122.9 163.333 122.557 163.435 122.261 163.64C121.969 163.841 121.74 164.127 121.575 164.496C121.413 164.863 121.332 165.293 121.332 165.787C121.332 166.293 121.412 166.733 121.571 167.108C121.733 167.483 121.96 167.775 122.253 167.982C122.548 168.189 122.895 168.293 123.292 168.293C123.554 168.293 123.791 168.248 124.004 168.157C124.217 168.066 124.398 167.935 124.545 167.765C124.693 167.594 124.798 167.39 124.861 167.151H125.866C125.809 167.537 125.669 167.885 125.444 168.195C125.223 168.502 124.929 168.746 124.562 168.928C124.199 169.107 123.775 169.196 123.292 169.196ZM129.263 169.213C128.848 169.213 128.471 169.135 128.133 168.979C127.795 168.82 127.527 168.591 127.328 168.293C127.129 167.992 127.03 167.628 127.03 167.202C127.03 166.827 127.104 166.523 127.251 166.29C127.399 166.054 127.596 165.87 127.844 165.736C128.091 165.603 128.363 165.503 128.662 165.438C128.963 165.37 129.265 165.316 129.569 165.276C129.967 165.225 130.29 165.186 130.537 165.161C130.787 165.133 130.969 165.086 131.082 165.02C131.199 164.955 131.257 164.841 131.257 164.679V164.645C131.257 164.225 131.142 163.898 130.912 163.665C130.684 163.432 130.339 163.316 129.876 163.316C129.396 163.316 129.02 163.421 128.747 163.631C128.474 163.841 128.282 164.066 128.172 164.304L127.217 163.963C127.388 163.566 127.615 163.256 127.899 163.034C128.186 162.81 128.498 162.654 128.836 162.566C129.177 162.475 129.513 162.429 129.842 162.429C130.052 162.429 130.294 162.455 130.567 162.506C130.842 162.554 131.108 162.655 131.363 162.809C131.622 162.962 131.836 163.194 132.007 163.503C132.177 163.813 132.263 164.228 132.263 164.748V169.06H131.257V168.174H131.206C131.138 168.316 131.024 168.468 130.865 168.63C130.706 168.792 130.494 168.929 130.23 169.043C129.966 169.157 129.643 169.213 129.263 169.213ZM129.416 168.31C129.814 168.31 130.149 168.232 130.422 168.076C130.697 167.919 130.905 167.718 131.044 167.471C131.186 167.223 131.257 166.963 131.257 166.691V165.77C131.214 165.821 131.121 165.868 130.976 165.911C130.834 165.951 130.669 165.986 130.481 166.017C130.297 166.046 130.116 166.071 129.94 166.094C129.767 166.114 129.626 166.131 129.518 166.145C129.257 166.179 129.013 166.235 128.785 166.311C128.561 166.385 128.379 166.498 128.24 166.648C128.104 166.796 128.035 166.998 128.035 167.253C128.035 167.603 128.165 167.867 128.423 168.046C128.684 168.222 129.015 168.31 129.416 168.31ZM136.757 169.196C136.144 169.196 135.615 169.052 135.172 168.762C134.729 168.472 134.388 168.073 134.149 167.564C133.911 167.056 133.791 166.475 133.791 165.821C133.791 165.157 133.914 164.57 134.158 164.061C134.405 163.55 134.749 163.151 135.189 162.864C135.632 162.574 136.149 162.429 136.74 162.429C137.2 162.429 137.615 162.515 137.985 162.685C138.354 162.856 138.656 163.094 138.892 163.401C139.128 163.708 139.274 164.066 139.331 164.475H138.325C138.249 164.177 138.078 163.912 137.814 163.682C137.553 163.449 137.2 163.333 136.757 163.333C136.365 163.333 136.021 163.435 135.726 163.64C135.433 163.841 135.205 164.127 135.04 164.496C134.878 164.863 134.797 165.293 134.797 165.787C134.797 166.293 134.877 166.733 135.036 167.108C135.198 167.483 135.425 167.775 135.718 167.982C136.013 168.189 136.36 168.293 136.757 168.293C137.019 168.293 137.256 168.248 137.469 168.157C137.682 168.066 137.862 167.935 138.01 167.765C138.158 167.594 138.263 167.39 138.325 167.151H139.331C139.274 167.537 139.134 167.885 138.909 168.195C138.688 168.502 138.394 168.746 138.027 168.928C137.664 169.107 137.24 169.196 136.757 169.196ZM136.28 169.026H137.115L137.047 169.367C137.269 169.401 137.472 169.493 137.656 169.644C137.841 169.797 137.933 170.04 137.933 170.373C137.933 170.739 137.781 171.037 137.477 171.267C137.176 171.5 136.732 171.617 136.144 171.617L136.11 170.952C136.374 170.952 136.593 170.909 136.766 170.824C136.942 170.742 137.03 170.603 137.03 170.407C137.03 170.211 136.958 170.077 136.813 170.006C136.668 169.935 136.433 169.887 136.11 169.861L136.28 169.026ZM142.727 169.213C142.313 169.213 141.936 169.135 141.598 168.979C141.26 168.82 140.992 168.591 140.793 168.293C140.594 167.992 140.494 167.628 140.494 167.202C140.494 166.827 140.568 166.523 140.716 166.29C140.864 166.054 141.061 165.87 141.308 165.736C141.556 165.603 141.828 165.503 142.127 165.438C142.428 165.37 142.73 165.316 143.034 165.276C143.432 165.225 143.754 165.186 144.002 165.161C144.252 165.133 144.433 165.086 144.547 165.02C144.664 164.955 144.722 164.841 144.722 164.679V164.645C144.722 164.225 144.607 163.898 144.377 163.665C144.149 163.432 143.804 163.316 143.341 163.316C142.861 163.316 142.485 163.421 142.212 163.631C141.939 163.841 141.747 164.066 141.637 164.304L140.682 163.963C140.852 163.566 141.08 163.256 141.364 163.034C141.651 162.81 141.963 162.654 142.301 162.566C142.642 162.475 142.977 162.429 143.307 162.429C143.517 162.429 143.759 162.455 144.031 162.506C144.307 162.554 144.573 162.655 144.828 162.809C145.087 162.962 145.301 163.194 145.472 163.503C145.642 163.813 145.727 164.228 145.727 164.748V169.06H144.722V168.174H144.671C144.602 168.316 144.489 168.468 144.33 168.63C144.171 168.792 143.959 168.929 143.695 169.043C143.431 169.157 143.108 169.213 142.727 169.213ZM142.881 168.31C143.279 168.31 143.614 168.232 143.887 168.076C144.162 167.919 144.369 167.718 144.509 167.471C144.651 167.223 144.722 166.963 144.722 166.691V165.77C144.679 165.821 144.585 165.868 144.441 165.911C144.298 165.951 144.134 165.986 143.946 166.017C143.762 166.046 143.581 166.071 143.405 166.094C143.232 166.114 143.091 166.131 142.983 166.145C142.722 166.179 142.477 166.235 142.25 166.311C142.026 166.385 141.844 166.498 141.705 166.648C141.568 166.796 141.5 166.998 141.5 167.253C141.5 167.603 141.629 167.867 141.888 168.046C142.149 168.222 142.48 168.31 142.881 168.31ZM142.063 161.731L141.279 161.696C141.279 161.262 141.402 160.907 141.649 160.631C141.899 160.353 142.208 160.213 142.574 160.213C142.736 160.213 142.879 160.242 143.004 160.299C143.129 160.353 143.249 160.415 143.362 160.486C143.476 160.557 143.593 160.621 143.712 160.678C143.834 160.732 143.972 160.759 144.125 160.759C144.287 160.759 144.423 160.696 144.534 160.571C144.648 160.444 144.705 160.29 144.705 160.111L145.472 160.179C145.472 160.623 145.347 160.975 145.097 161.236C144.85 161.498 144.543 161.628 144.176 161.628C143.98 161.628 143.818 161.601 143.691 161.547C143.563 161.49 143.449 161.427 143.35 161.356C143.25 161.284 143.145 161.222 143.034 161.168C142.923 161.111 142.787 161.083 142.625 161.083C142.463 161.083 142.328 161.147 142.22 161.275C142.115 161.4 142.063 161.552 142.063 161.731ZM150.222 169.196C149.631 169.196 149.113 169.056 148.667 168.775C148.224 168.493 147.877 168.1 147.627 167.594C147.38 167.088 147.256 166.498 147.256 165.821C147.256 165.14 147.38 164.544 147.627 164.036C147.877 163.527 148.224 163.133 148.667 162.851C149.113 162.57 149.631 162.429 150.222 162.429C150.813 162.429 151.33 162.57 151.773 162.851C152.219 163.133 152.566 163.527 152.813 164.036C153.063 164.544 153.188 165.14 153.188 165.821C153.188 166.498 153.063 167.088 152.813 167.594C152.566 168.1 152.219 168.493 151.773 168.775C151.33 169.056 150.813 169.196 150.222 169.196ZM150.222 168.293C150.671 168.293 151.04 168.178 151.33 167.948C151.62 167.718 151.834 167.415 151.974 167.04C152.113 166.665 152.182 166.259 152.182 165.821C152.182 165.384 152.113 164.976 151.974 164.598C151.834 164.221 151.62 163.915 151.33 163.682C151.04 163.449 150.671 163.333 150.222 163.333C149.773 163.333 149.404 163.449 149.114 163.682C148.824 163.915 148.61 164.221 148.471 164.598C148.331 164.976 148.262 165.384 148.262 165.821C148.262 166.259 148.331 166.665 148.471 167.04C148.61 167.415 148.824 167.718 149.114 167.948C149.404 168.178 149.773 168.293 150.222 168.293ZM48.856 186.515V177.515H49.8276V178.554H49.9469C50.0208 178.441 50.123 178.296 50.2537 178.12C50.3873 177.941 50.5776 177.782 50.8248 177.642C51.0748 177.5 51.4128 177.429 51.839 177.429C52.3901 177.429 52.8759 177.567 53.2963 177.843C53.7168 178.118 54.0449 178.509 54.2807 179.015C54.5165 179.52 54.6344 180.117 54.6344 180.804C54.6344 181.498 54.5165 182.098 54.2807 182.607C54.0449 183.113 53.7182 183.505 53.3006 183.783C52.883 184.059 52.4015 184.196 51.856 184.196C51.4355 184.196 51.0989 184.127 50.8461 183.988C50.5932 183.846 50.3986 183.685 50.2623 183.506C50.1259 183.324 50.0208 183.174 49.9469 183.054H49.8617V186.515H48.856ZM49.8446 180.787C49.8446 181.282 49.9171 181.718 50.062 182.096C50.2069 182.471 50.4185 182.765 50.6969 182.978C50.9753 183.188 51.3162 183.293 51.7196 183.293C52.1401 183.293 52.4909 183.182 52.7722 182.961C53.0563 182.736 53.2694 182.435 53.4114 182.057C53.5563 181.677 53.6287 181.253 53.6287 180.787C53.6287 180.327 53.5577 179.912 53.4157 179.543C53.2765 179.171 53.0648 178.877 52.7807 178.661C52.4995 178.442 52.1458 178.333 51.7196 178.333C51.3105 178.333 50.9668 178.436 50.6884 178.644C50.41 178.848 50.1998 179.135 50.0577 179.505C49.9157 179.871 49.8446 180.299 49.8446 180.787ZM58.0946 184.213C57.6799 184.213 57.3034 184.135 56.9654 183.979C56.6273 183.82 56.3588 183.591 56.16 183.293C55.9611 182.992 55.8617 182.628 55.8617 182.202C55.8617 181.827 55.9355 181.523 56.0833 181.29C56.231 181.054 56.4284 180.87 56.6756 180.736C56.9228 180.603 57.1955 180.503 57.4938 180.438C57.7949 180.37 58.0975 180.316 58.4015 180.276C58.7992 180.225 59.1216 180.186 59.3688 180.161C59.6188 180.133 59.8006 180.086 59.9142 180.02C60.0307 179.955 60.089 179.841 60.089 179.679V179.645C60.089 179.225 59.9739 178.898 59.7438 178.665C59.5165 178.432 59.1713 178.316 58.7083 178.316C58.2282 178.316 57.8517 178.421 57.579 178.631C57.3063 178.841 57.1145 179.066 57.0037 179.304L56.0492 178.963C56.2196 178.566 56.4469 178.256 56.731 178.034C57.0179 177.81 57.3304 177.654 57.6685 177.566C58.0094 177.475 58.3446 177.429 58.6742 177.429C58.8844 177.429 59.1259 177.455 59.3986 177.506C59.6742 177.554 59.9398 177.655 60.1955 177.809C60.454 177.962 60.6685 178.194 60.839 178.503C61.0094 178.813 61.0946 179.228 61.0946 179.748V184.06H60.089V183.174H60.0378C59.9696 183.316 59.856 183.468 59.6969 183.63C59.5378 183.792 59.3262 183.929 59.062 184.043C58.7978 184.157 58.4753 184.213 58.0946 184.213ZM58.248 183.31C58.6458 183.31 58.981 183.232 59.2537 183.076C59.5293 182.919 59.7367 182.718 59.8759 182.471C60.0179 182.223 60.089 181.963 60.089 181.691V180.77C60.0463 180.821 59.9526 180.868 59.8077 180.911C59.6657 180.951 59.5009 180.986 59.3134 181.017C59.1287 181.046 58.9483 181.071 58.7722 181.094C58.5989 181.114 58.4583 181.131 58.3503 181.145C58.089 181.179 57.8446 181.235 57.6174 181.311C57.3929 181.385 57.2111 181.498 57.0719 181.648C56.9355 181.796 56.8674 181.998 56.8674 182.253C56.8674 182.603 56.9966 182.867 57.2551 183.046C57.5165 183.222 57.8475 183.31 58.248 183.31ZM62.9302 184.06V177.515H63.9018V178.503H63.97C64.0893 178.179 64.3052 177.917 64.6177 177.715C64.9302 177.513 65.2825 177.412 65.6745 177.412C65.7484 177.412 65.8407 177.414 65.9515 177.417C66.0623 177.419 66.1461 177.424 66.2029 177.429V178.452C66.1689 178.444 66.0907 178.431 65.9686 178.414C65.8493 178.394 65.7228 178.384 65.5893 178.384C65.2711 178.384 64.987 178.451 64.737 178.584C64.4899 178.715 64.2939 178.897 64.149 179.13C64.0069 179.36 63.9359 179.623 63.9359 179.918V184.06H62.9302ZM69.3212 184.213C68.9064 184.213 68.53 184.135 68.1919 183.979C67.8539 183.82 67.5854 183.591 67.3865 183.293C67.1877 182.992 67.0882 182.628 67.0882 182.202C67.0882 181.827 67.1621 181.523 67.3098 181.29C67.4576 181.054 67.655 180.87 67.9022 180.736C68.1493 180.603 68.4221 180.503 68.7203 180.438C69.0215 180.37 69.324 180.316 69.628 180.276C70.0257 180.225 70.3482 180.186 70.5953 180.161C70.8453 180.133 71.0272 180.086 71.1408 180.02C71.2573 179.955 71.3155 179.841 71.3155 179.679V179.645C71.3155 179.225 71.2005 178.898 70.9703 178.665C70.7431 178.432 70.3979 178.316 69.9348 178.316C69.4547 178.316 69.0783 178.421 68.8056 178.631C68.5328 178.841 68.3411 179.066 68.2303 179.304L67.2757 178.963C67.4462 178.566 67.6735 178.256 67.9576 178.034C68.2445 177.81 68.557 177.654 68.8951 177.566C69.236 177.475 69.5712 177.429 69.9007 177.429C70.111 177.429 70.3525 177.455 70.6252 177.506C70.9007 177.554 71.1664 177.655 71.4221 177.809C71.6806 177.962 71.8951 178.194 72.0655 178.503C72.236 178.813 72.3212 179.228 72.3212 179.748V184.06H71.3155V183.174H71.2644C71.1962 183.316 71.0826 183.468 70.9235 183.63C70.7644 183.792 70.5527 183.929 70.2885 184.043C70.0243 184.157 69.7019 184.213 69.3212 184.213ZM69.4746 183.31C69.8723 183.31 70.2076 183.232 70.4803 183.076C70.7559 182.919 70.9632 182.718 71.1025 182.471C71.2445 182.223 71.3155 181.963 71.3155 181.691V180.77C71.2729 180.821 71.1792 180.868 71.0343 180.911C70.8922 180.951 70.7275 180.986 70.54 181.017C70.3553 181.046 70.1749 181.071 69.9988 181.094C69.8255 181.114 69.6848 181.131 69.5769 181.145C69.3155 181.179 69.0712 181.235 68.8439 181.311C68.6195 181.385 68.4377 181.498 68.2985 181.648C68.1621 181.796 68.0939 181.998 68.0939 182.253C68.0939 182.603 68.2232 182.867 68.4817 183.046C68.7431 183.222 69.074 183.31 69.4746 183.31ZM79.4579 184.213C79.0431 184.213 78.6667 184.135 78.3287 183.979C77.9906 183.82 77.7221 183.591 77.5233 183.293C77.3244 182.992 77.225 182.628 77.225 182.202C77.225 181.827 77.2988 181.523 77.4466 181.29C77.5943 181.054 77.7917 180.87 78.0389 180.736C78.286 180.603 78.5588 180.503 78.8571 180.438C79.1582 180.37 79.4608 180.316 79.7647 180.276C80.1625 180.225 80.4849 180.186 80.7321 180.161C80.9821 180.133 81.1639 180.086 81.2775 180.02C81.394 179.955 81.4522 179.841 81.4522 179.679V179.645C81.4522 179.225 81.3372 178.898 81.1071 178.665C80.8798 178.432 80.5346 178.316 80.0716 178.316C79.5914 178.316 79.215 178.421 78.9423 178.631C78.6696 178.841 78.4778 179.066 78.367 179.304L77.4125 178.963C77.5829 178.566 77.8102 178.256 78.0943 178.034C78.3812 177.81 78.6937 177.654 79.0318 177.566C79.3727 177.475 79.7079 177.429 80.0375 177.429C80.2477 177.429 80.4892 177.455 80.7619 177.506C81.0375 177.554 81.3031 177.655 81.5588 177.809C81.8173 177.962 82.0318 178.194 82.2022 178.503C82.3727 178.813 82.4579 179.228 82.4579 179.748V184.06H81.4522V183.174H81.4011C81.3329 183.316 81.2193 183.468 81.0602 183.63C80.9011 183.792 80.6895 183.929 80.4252 184.043C80.161 184.157 79.8386 184.213 79.4579 184.213ZM79.6113 183.31C80.0091 183.31 80.3443 183.232 80.617 183.076C80.8926 182.919 81.1 182.718 81.2392 182.471C81.3812 182.223 81.4522 181.963 81.4522 181.691V180.77C81.4096 180.821 81.3159 180.868 81.171 180.911C81.0289 180.951 80.8642 180.986 80.6767 181.017C80.492 181.046 80.3116 181.071 80.1355 181.094C79.9622 181.114 79.8216 181.131 79.7136 181.145C79.4522 181.179 79.2079 181.235 78.9806 181.311C78.7562 181.385 78.5744 181.498 78.4352 181.648C78.2988 181.796 78.2306 181.998 78.2306 182.253C78.2306 182.603 78.3599 182.867 78.6184 183.046C78.8798 183.222 79.2108 183.31 79.6113 183.31ZM86.9526 184.196C86.339 184.196 85.8105 184.052 85.3674 183.762C84.9242 183.472 84.5833 183.073 84.3446 182.564C84.106 182.056 83.9867 181.475 83.9867 180.821C83.9867 180.157 84.1088 179.57 84.3532 179.061C84.6003 178.55 84.9441 178.151 85.3844 177.864C85.8276 177.574 86.3446 177.429 86.9355 177.429C87.3958 177.429 87.8105 177.515 88.1799 177.685C88.5492 177.856 88.8517 178.094 89.0875 178.401C89.3233 178.708 89.4696 179.066 89.5265 179.475H88.5208C88.4441 179.177 88.2736 178.912 88.0094 178.682C87.748 178.449 87.3958 178.333 86.9526 178.333C86.5605 178.333 86.2168 178.435 85.9213 178.64C85.6287 178.841 85.4 179.127 85.2353 179.496C85.0733 179.863 84.9924 180.293 84.9924 180.787C84.9924 181.293 85.0719 181.733 85.231 182.108C85.3929 182.483 85.6202 182.775 85.9128 182.982C86.2083 183.189 86.5549 183.293 86.9526 183.293C87.214 183.293 87.4512 183.248 87.6642 183.157C87.8773 183.066 88.0577 182.935 88.2054 182.765C88.3532 182.594 88.4583 182.39 88.5208 182.151H89.5265C89.4696 182.537 89.329 182.885 89.1046 183.195C88.883 183.502 88.589 183.746 88.2225 183.928C87.8588 184.107 87.4355 184.196 86.9526 184.196ZM93.7409 184.196C93.1103 184.196 92.5662 184.057 92.1088 183.779C91.6543 183.498 91.3034 183.106 91.0563 182.603C90.812 182.097 90.6898 181.509 90.6898 180.838C90.6898 180.168 90.812 179.577 91.0563 179.066C91.3034 178.552 91.6472 178.151 92.0875 177.864C92.5307 177.574 93.0478 177.429 93.6387 177.429C93.9796 177.429 94.3162 177.486 94.6486 177.6C94.981 177.713 95.2836 177.898 95.5563 178.154C95.829 178.407 96.0463 178.742 96.2083 179.159C96.3702 179.577 96.4512 180.091 96.4512 180.702V181.128H91.4057V180.259H95.4284C95.4284 179.89 95.3546 179.56 95.2069 179.27C95.062 178.981 94.8546 178.752 94.5847 178.584C94.3176 178.417 94.0023 178.333 93.6387 178.333C93.2381 178.333 92.8915 178.432 92.5989 178.631C92.3091 178.827 92.0861 179.083 91.9299 179.398C91.7736 179.713 91.6955 180.052 91.6955 180.412V180.992C91.6955 181.486 91.7807 181.905 91.9512 182.249C92.1245 182.59 92.3645 182.85 92.6713 183.029C92.9782 183.205 93.3347 183.293 93.7409 183.293C94.0051 183.293 94.2438 183.256 94.4569 183.182C94.6728 183.106 94.8588 182.992 95.0151 182.841C95.1713 182.688 95.2921 182.498 95.3773 182.27L96.3489 182.543C96.2466 182.873 96.0748 183.162 95.8333 183.412C95.5918 183.659 95.2935 183.853 94.9384 183.992C94.5833 184.128 94.1841 184.196 93.7409 184.196ZM102.617 178.981L101.714 179.236C101.657 179.086 101.573 178.939 101.463 178.797C101.355 178.652 101.207 178.533 101.019 178.439C100.832 178.346 100.592 178.299 100.299 178.299C99.8986 178.299 99.5648 178.391 99.2978 178.576C99.0336 178.758 98.9015 178.989 98.9015 179.27C98.9015 179.52 98.9924 179.718 99.1742 179.863C99.356 180.008 99.6401 180.128 100.026 180.225L100.998 180.463C101.583 180.606 102.019 180.823 102.306 181.115C102.593 181.405 102.737 181.779 102.737 182.236C102.737 182.611 102.629 182.946 102.413 183.242C102.2 183.537 101.901 183.77 101.518 183.941C101.134 184.111 100.688 184.196 100.18 184.196C99.5123 184.196 98.9597 184.052 98.5222 183.762C98.0847 183.472 97.8077 183.049 97.6912 182.492L98.6458 182.253C98.7367 182.606 98.9086 182.87 99.1614 183.046C99.4171 183.222 99.7509 183.31 100.163 183.31C100.632 183.31 101.004 183.211 101.279 183.012C101.558 182.81 101.697 182.569 101.697 182.287C101.697 182.06 101.617 181.87 101.458 181.716C101.299 181.56 101.055 181.444 100.725 181.367L99.6344 181.111C99.035 180.969 98.5946 180.749 98.3134 180.451C98.035 180.15 97.8958 179.773 97.8958 179.321C97.8958 178.952 97.9995 178.625 98.2069 178.341C98.4171 178.057 98.7026 177.834 99.0634 177.672C99.427 177.51 99.839 177.429 100.299 177.429C100.947 177.429 101.455 177.571 101.825 177.856C102.197 178.14 102.461 178.515 102.617 178.981ZM108.887 178.981L107.983 179.236C107.927 179.086 107.843 178.939 107.732 178.797C107.624 178.652 107.476 178.533 107.289 178.439C107.101 178.346 106.861 178.299 106.569 178.299C106.168 178.299 105.834 178.391 105.567 178.576C105.303 178.758 105.171 178.989 105.171 179.27C105.171 179.52 105.262 179.718 105.444 179.863C105.626 180.008 105.91 180.128 106.296 180.225L107.268 180.463C107.853 180.606 108.289 180.823 108.576 181.115C108.863 181.405 109.006 181.779 109.006 182.236C109.006 182.611 108.898 182.946 108.682 183.242C108.469 183.537 108.171 183.77 107.787 183.941C107.404 184.111 106.958 184.196 106.449 184.196C105.782 184.196 105.229 184.052 104.792 183.762C104.354 183.472 104.077 183.049 103.961 182.492L104.915 182.253C105.006 182.606 105.178 182.87 105.431 183.046C105.687 183.222 106.02 183.31 106.432 183.31C106.901 183.31 107.273 183.211 107.549 183.012C107.827 182.81 107.966 182.569 107.966 182.287C107.966 182.06 107.887 181.87 107.728 181.716C107.569 181.56 107.324 181.444 106.995 181.367L105.904 181.111C105.305 180.969 104.864 180.749 104.583 180.451C104.305 180.15 104.165 179.773 104.165 179.321C104.165 178.952 104.269 178.625 104.476 178.341C104.687 178.057 104.972 177.834 105.333 177.672C105.697 177.51 106.108 177.429 106.569 177.429C107.216 177.429 107.725 177.571 108.094 177.856C108.466 178.14 108.731 178.515 108.887 178.981ZM113.179 184.196C112.588 184.196 112.07 184.056 111.624 183.775C111.181 183.493 110.834 183.1 110.584 182.594C110.337 182.088 110.213 181.498 110.213 180.821C110.213 180.14 110.337 179.544 110.584 179.036C110.834 178.527 111.181 178.133 111.624 177.851C112.07 177.57 112.588 177.429 113.179 177.429C113.77 177.429 114.287 177.57 114.73 177.851C115.176 178.133 115.523 178.527 115.77 179.036C116.02 179.544 116.145 180.14 116.145 180.821C116.145 181.498 116.02 182.088 115.77 182.594C115.523 183.1 115.176 183.493 114.73 183.775C114.287 184.056 113.77 184.196 113.179 184.196ZM113.179 183.293C113.628 183.293 113.997 183.178 114.287 182.948C114.577 182.718 114.791 182.415 114.931 182.04C115.07 181.665 115.139 181.259 115.139 180.821C115.139 180.384 115.07 179.976 114.931 179.598C114.791 179.221 114.577 178.915 114.287 178.682C113.997 178.449 113.628 178.333 113.179 178.333C112.73 178.333 112.361 178.449 112.071 178.682C111.781 178.915 111.567 179.221 111.428 179.598C111.289 179.976 111.219 180.384 111.219 180.821C111.219 181.259 111.289 181.665 111.428 182.04C111.567 182.415 111.781 182.718 112.071 182.948C112.361 183.178 112.73 183.293 113.179 183.293ZM118.413 184.128C118.203 184.128 118.023 184.053 117.872 183.902C117.721 183.752 117.646 183.571 117.646 183.361C117.646 183.151 117.721 182.971 117.872 182.82C118.023 182.669 118.203 182.594 118.413 182.594C118.623 182.594 118.804 182.669 118.954 182.82C119.105 182.971 119.18 183.151 119.18 183.361C119.18 183.5 119.145 183.628 119.074 183.745C119.006 183.861 118.913 183.955 118.797 184.026C118.683 184.094 118.555 184.128 118.413 184.128Z" fill="white"/>
</g>
<rect opacity="0.15" x="47" y="8" width="94" height="94" rx="47" fill="white"/>
<path d="M92.7231 80.8467C87.6487 80.8467 82.5743 80.8509 77.4999 80.8457C74.3937 80.8425 72.8549 79.3059 72.8534 76.206C72.8492 68.9048 72.8487 61.6036 72.8539 54.3018C72.856 51.4083 74.358 49.9188 77.2281 49.8916C80.2579 49.8627 79.8404 50.3184 79.9022 47.2101C79.9504 44.8057 79.7268 42.3955 80.1081 39.9963C81.0639 33.9897 86.5552 29.1474 92.644 29.15C99.7374 29.1532 104.867 34.5438 105.571 40.409C105.887 43.0334 105.678 45.6588 105.74 48.2827C105.779 49.891 105.751 49.8916 107.406 49.8952C107.917 49.8963 108.428 49.8879 108.939 49.8999C111.059 49.9492 112.754 51.4983 112.766 53.622C112.81 61.3977 112.813 69.174 112.766 76.9492C112.752 79.3065 111.002 80.8321 108.494 80.8404C103.237 80.8582 97.9803 80.8457 92.7231 80.8462V80.8467ZM92.7388 49.8942C94.7112 49.8942 96.6836 49.8706 98.6554 49.9057C99.4703 49.9204 99.8647 49.68 99.8511 48.7923C99.8134 46.3459 99.8893 43.897 99.8186 41.4518C99.7165 37.9067 96.5212 35.0278 92.7938 35.0325C89.0843 35.0367 85.9078 37.9501 85.8193 41.5062C85.7596 43.9153 85.8329 46.3276 85.7884 48.7373C85.7711 49.6784 86.177 49.9272 87.0412 49.9078C88.9397 49.8659 90.8393 49.8947 92.7383 49.8947L92.7388 49.8942ZM89.3336 62.7584C89.333 63.6251 89.4598 64.5553 90.1647 65.0439C91.3269 65.8494 91.3656 66.9256 91.3059 68.1171C91.2766 68.6984 91.275 69.285 91.3216 69.8648C91.3923 70.7378 91.8752 71.2851 92.7666 71.3611C93.5747 71.4297 94.2613 70.7755 94.3195 69.8669C94.3708 69.0682 94.3765 68.2627 94.3331 67.464C94.2844 66.5716 94.5054 65.9039 95.2496 65.288C96.4437 64.2997 96.6548 62.4515 95.9064 61.0804C95.1396 59.6763 93.5433 58.9703 92.0177 59.361C90.3349 59.792 89.3372 61.0558 89.3336 62.7589V62.7584Z" fill="#FF4F64"/>
<defs>
<linearGradient id="paint0_linear_521_100" x1="84.22" y1="0.0600586" x2="84.22" y2="205.12" gradientUnits="userSpaceOnUse">
<stop stop-color="#FF6678"/>
<stop offset="1" stop-color="#FF334B"/>
</linearGradient>
<linearGradient id="paint1_linear_521_100" x1="84.22" y1="0.0600586" x2="84.22" y2="205.12" gradientUnits="userSpaceOnUse">
<stop stop-color="#FF9B52"/>
<stop offset="1" stop-color="#FF7F21"/>
</linearGradient>
</defs>
</svg>
