<svg width="169" height="206" viewBox="0 0 169 206" fill="none" xmlns="http://www.w3.org/2000/svg">
<path d="M168.44 14.6701V190.51C168.44 198.55 163.04 205.12 156.44 205.12H12C5.4 205.12 0 198.55 0 190.51V14.6701C0 6.63006 5.4 0.0600586 12 0.0600586H156.44C163.04 0.0600586 168.44 6.63006 168.44 14.6701Z" fill="url(#paint0_linear_521_100)"/>
<mask id="mask0_521_100" style="mask-type:alpha" maskUnits="userSpaceOnUse" x="0" y="0" width="169" height="206">
<path d="M168.44 14.6701V190.51C168.44 198.55 163.04 205.12 156.44 205.12H12C5.4 205.12 0 198.55 0 190.51V14.6701C0 6.63006 5.4 0.0600586 12 0.0600586H156.44C163.04 0.0600586 168.44 6.63006 168.44 14.6701Z" fill="url(#paint1_linear_521_100)"/>
</mask>
<g mask="url(#mask0_521_100)">
<g opacity="0.8">
<g opacity="0.15">
<circle cx="94.2338" cy="55.7" r="93.937" transform="rotate(-10.7881 94.2338 55.7)" fill="white"/>
<circle cx="94.2338" cy="55.7" r="93.937" transform="rotate(-10.7881 94.2338 55.7)" fill="white"/>
</g>
<g opacity="0.3">
<circle cx="94.0749" cy="54.8649" r="75.2346" transform="rotate(-10.7881 94.0749 54.8649)" fill="white"/>
<circle cx="94.0749" cy="54.8649" r="75.2346" transform="rotate(-10.7881 94.0749 54.8649)" fill="white"/>
</g>
<g opacity="0.4">
<circle cx="94.0749" cy="54.865" r="59.9327" transform="rotate(-10.7881 94.0749 54.865)" fill="white"/>
<circle cx="94.0749" cy="54.865" r="59.9327" transform="rotate(-10.7881 94.0749 54.865)" fill="white"/>
</g>
</g>
<path d="M33.7642 127.06V112.515H39.5028C40.6061 112.515 41.5459 112.725 42.3224 113.147C43.099 113.563 43.6908 114.143 44.098 114.887C44.5099 115.625 44.7159 116.478 44.7159 117.444C44.7159 118.409 44.5076 119.262 44.0909 120C43.6742 120.739 43.0705 121.314 42.2798 121.726C41.4938 122.138 40.5421 122.344 39.4247 122.344H35.767V119.88H38.9276C39.5194 119.88 40.0071 119.778 40.3906 119.574C40.7789 119.366 41.0677 119.079 41.2571 118.715C41.4512 118.346 41.5483 117.922 41.5483 117.444C41.5483 116.961 41.4512 116.539 41.2571 116.179C41.0677 115.815 40.7789 115.533 40.3906 115.334C40.0024 115.131 39.5099 115.029 38.9134 115.029H36.8395V127.06H33.7642ZM47.6566 127.06V116.151H50.5898V118.054H50.7035C50.9023 117.377 51.2362 116.866 51.7049 116.52C52.1737 116.17 52.7134 115.995 53.3242 115.995C53.4757 115.995 53.6391 116.004 53.8143 116.023C53.9895 116.042 54.1433 116.068 54.2759 116.101V118.786C54.1339 118.743 53.9374 118.705 53.6864 118.672C53.4355 118.639 53.2058 118.623 52.9975 118.623C52.5524 118.623 52.1547 118.72 51.8043 118.914C51.4587 119.103 51.1841 119.368 50.9805 119.709C50.7816 120.05 50.6822 120.443 50.6822 120.888V127.06H47.6566ZM61.2614 127.273C60.1581 127.273 59.2041 127.039 58.3991 126.57C57.599 126.097 56.9811 125.438 56.5455 124.596C56.1098 123.748 55.892 122.766 55.892 121.648C55.892 120.521 56.1098 119.536 56.5455 118.694C56.9811 117.846 57.599 117.188 58.3991 116.719C59.2041 116.246 60.1581 116.009 61.2614 116.009C62.3646 116.009 63.3163 116.246 64.1165 116.719C64.9214 117.188 65.5417 117.846 65.9773 118.694C66.4129 119.536 66.6307 120.521 66.6307 121.648C66.6307 122.766 66.4129 123.748 65.9773 124.596C65.5417 125.438 64.9214 126.097 64.1165 126.57C63.3163 127.039 62.3646 127.273 61.2614 127.273ZM61.2756 124.929C61.7775 124.929 62.1965 124.787 62.5327 124.503C62.8688 124.214 63.1222 123.821 63.2926 123.324C63.4678 122.827 63.5554 122.261 63.5554 121.627C63.5554 120.992 63.4678 120.427 63.2926 119.929C63.1222 119.432 62.8688 119.039 62.5327 118.75C62.1965 118.462 61.7775 118.317 61.2756 118.317C60.7689 118.317 60.3428 118.462 59.9972 118.75C59.6563 119.039 59.3982 119.432 59.223 119.929C59.0526 120.427 58.9673 120.992 58.9673 121.627C58.9673 122.261 59.0526 122.827 59.223 123.324C59.3982 123.821 59.6563 124.214 59.9972 124.503C60.3428 124.787 60.7689 124.929 61.2756 124.929ZM75.4006 116.151V118.424H68.831V116.151H75.4006ZM70.3224 113.537H73.348V123.708C73.348 123.987 73.3906 124.205 73.4759 124.361C73.5611 124.513 73.6795 124.619 73.831 124.681C73.9872 124.742 74.1671 124.773 74.3707 124.773C74.5128 124.773 74.6548 124.761 74.7969 124.738C74.9389 124.709 75.0478 124.688 75.1236 124.674L75.5994 126.925C75.4479 126.972 75.2348 127.027 74.9602 127.088C74.6856 127.155 74.3518 127.195 73.9588 127.209C73.2296 127.238 72.5904 127.141 72.0412 126.918C71.4967 126.695 71.0729 126.35 70.7699 125.881C70.4669 125.412 70.3177 124.82 70.3224 124.106V113.537ZM83.2259 127.273C82.1037 127.273 81.1378 127.046 80.3281 126.591C79.5232 126.132 78.9029 125.483 78.4673 124.645C78.0317 123.802 77.8139 122.806 77.8139 121.655C77.8139 120.533 78.0317 119.548 78.4673 118.701C78.9029 117.853 79.5161 117.193 80.3068 116.719C81.1023 116.246 82.035 116.009 83.1051 116.009C83.8248 116.009 84.4948 116.125 85.1151 116.357C85.7401 116.584 86.2846 116.927 86.7486 117.387C87.2173 117.846 87.5819 118.424 87.8423 119.12C88.1027 119.811 88.233 120.621 88.233 121.549V122.38H79.0213V120.505H85.3849C85.3849 120.069 85.2902 119.683 85.1009 119.347C84.9115 119.011 84.6487 118.748 84.3125 118.559C83.9811 118.365 83.5952 118.267 83.1548 118.267C82.6955 118.267 82.2884 118.374 81.9332 118.587C81.5829 118.795 81.3082 119.077 81.1094 119.432C80.9105 119.783 80.8087 120.173 80.804 120.604V122.387C80.804 122.927 80.9034 123.393 81.1023 123.786C81.3059 124.179 81.5923 124.482 81.9616 124.695C82.331 124.908 82.7689 125.015 83.2756 125.015C83.6117 125.015 83.9195 124.967 84.1989 124.873C84.4782 124.778 84.7173 124.636 84.9162 124.446C85.1151 124.257 85.2666 124.025 85.3707 123.75L88.169 123.935C88.027 124.607 87.7358 125.195 87.2955 125.696C86.8598 126.194 86.2964 126.582 85.6051 126.861C84.9186 127.136 84.1255 127.273 83.2259 127.273ZM96.1222 131.378C95.142 131.378 94.3016 131.243 93.6009 130.973C92.9048 130.708 92.3509 130.346 91.9389 129.887C91.527 129.427 91.2595 128.911 91.1364 128.338L93.9347 127.962C94.0199 128.18 94.1548 128.383 94.3395 128.573C94.5241 128.762 94.768 128.914 95.071 129.027C95.3788 129.146 95.7528 129.205 96.1932 129.205C96.8513 129.205 97.3935 129.044 97.8196 128.722C98.2505 128.405 98.4659 127.872 98.4659 127.124V125.128H98.3381C98.2055 125.431 98.0066 125.718 97.7415 125.988C97.4763 126.258 97.1354 126.478 96.7188 126.648C96.3021 126.819 95.8049 126.904 95.2273 126.904C94.4081 126.904 93.6624 126.714 92.9901 126.336C92.3224 125.952 91.7898 125.367 91.392 124.581C90.9991 123.791 90.8026 122.792 90.8026 121.584C90.8026 120.348 91.0038 119.316 91.4062 118.488C91.8087 117.659 92.3438 117.039 93.0114 116.627C93.6837 116.215 94.42 116.009 95.2202 116.009C95.831 116.009 96.3423 116.113 96.7543 116.321C97.1662 116.525 97.4976 116.781 97.7486 117.088C98.0043 117.391 98.2008 117.69 98.3381 117.983H98.4517V116.151H101.456V127.167C101.456 128.095 101.229 128.871 100.774 129.496C100.32 130.121 99.6899 130.59 98.8849 130.902C98.0848 131.22 97.1638 131.378 96.1222 131.378ZM96.1861 124.631C96.6738 124.631 97.0857 124.51 97.4219 124.269C97.7628 124.023 98.0232 123.672 98.2031 123.218C98.3878 122.758 98.4801 122.209 98.4801 121.57C98.4801 120.931 98.3902 120.377 98.2102 119.908C98.0303 119.435 97.7699 119.068 97.429 118.807C97.0881 118.547 96.6738 118.417 96.1861 118.417C95.6889 118.417 95.2699 118.552 94.929 118.821C94.5881 119.087 94.33 119.456 94.1548 119.929C93.9796 120.403 93.892 120.95 93.892 121.57C93.892 122.2 93.9796 122.744 94.1548 123.204C94.3348 123.658 94.5928 124.011 94.929 124.262C95.2699 124.508 95.6889 124.631 96.1861 124.631ZM104.864 127.06V116.151H107.889V127.06H104.864ZM106.384 114.745C105.934 114.745 105.548 114.596 105.226 114.297C104.909 113.994 104.75 113.632 104.75 113.211C104.75 112.794 104.909 112.436 105.226 112.138C105.548 111.835 105.934 111.684 106.384 111.684C106.833 111.684 107.217 111.835 107.534 112.138C107.856 112.436 108.017 112.794 108.017 113.211C108.017 113.632 107.856 113.994 107.534 114.297C107.217 114.596 106.833 114.745 106.384 114.745ZM115.333 127.238C114.504 127.238 113.754 127.025 113.081 126.598C112.414 126.168 111.883 125.535 111.49 124.702C111.102 123.864 110.908 122.837 110.908 121.62C110.908 120.37 111.109 119.33 111.512 118.502C111.914 117.668 112.449 117.046 113.117 116.634C113.789 116.217 114.525 116.009 115.326 116.009C115.936 116.009 116.445 116.113 116.853 116.321C117.265 116.525 117.596 116.781 117.847 117.088C118.103 117.391 118.297 117.69 118.429 117.983H118.522V112.515H121.54V127.06H118.557V125.313H118.429C118.287 125.616 118.086 125.917 117.826 126.215C117.57 126.508 117.236 126.752 116.824 126.946C116.417 127.141 115.92 127.238 115.333 127.238ZM116.292 124.83C116.779 124.83 117.191 124.697 117.527 124.432C117.868 124.162 118.129 123.786 118.309 123.303C118.493 122.82 118.586 122.254 118.586 121.606C118.586 120.957 118.496 120.393 118.316 119.915C118.136 119.437 117.875 119.068 117.534 118.807C117.194 118.547 116.779 118.417 116.292 118.417C115.794 118.417 115.375 118.552 115.034 118.821C114.694 119.091 114.435 119.465 114.26 119.944C114.085 120.422 113.998 120.976 113.998 121.606C113.998 122.24 114.085 122.801 114.26 123.289C114.44 123.772 114.698 124.15 115.034 124.425C115.375 124.695 115.794 124.83 116.292 124.83ZM128.138 127.266C127.442 127.266 126.822 127.145 126.278 126.904C125.733 126.658 125.302 126.295 124.985 125.817C124.673 125.334 124.516 124.733 124.516 124.013C124.516 123.407 124.628 122.898 124.85 122.486C125.073 122.074 125.376 121.743 125.759 121.492C126.143 121.241 126.578 121.052 127.066 120.924C127.558 120.796 128.075 120.706 128.614 120.654C129.249 120.588 129.76 120.526 130.148 120.469C130.537 120.408 130.818 120.318 130.994 120.199C131.169 120.081 131.256 119.906 131.256 119.674V119.631C131.256 119.181 131.114 118.833 130.83 118.587C130.551 118.341 130.153 118.218 129.637 118.218C129.093 118.218 128.659 118.338 128.337 118.58C128.015 118.817 127.802 119.115 127.698 119.475L124.9 119.248C125.042 118.585 125.321 118.012 125.738 117.529C126.155 117.041 126.692 116.667 127.35 116.407C128.013 116.141 128.78 116.009 129.651 116.009C130.257 116.009 130.837 116.08 131.391 116.222C131.95 116.364 132.445 116.584 132.876 116.883C133.311 117.181 133.655 117.564 133.906 118.033C134.156 118.497 134.282 119.053 134.282 119.702V127.06H131.413V125.547H131.327C131.152 125.888 130.918 126.189 130.624 126.449C130.331 126.705 129.978 126.906 129.566 127.053C129.154 127.195 128.678 127.266 128.138 127.266ZM129.005 125.178C129.45 125.178 129.843 125.09 130.184 124.915C130.525 124.735 130.792 124.494 130.987 124.191C131.181 123.888 131.278 123.544 131.278 123.161V122.003C131.183 122.065 131.053 122.122 130.887 122.174C130.726 122.221 130.544 122.266 130.34 122.309C130.137 122.347 129.933 122.382 129.729 122.415C129.526 122.444 129.341 122.47 129.175 122.493C128.82 122.545 128.51 122.628 128.245 122.742C127.98 122.856 127.774 123.009 127.627 123.204C127.48 123.393 127.407 123.63 127.407 123.914C127.407 124.326 127.556 124.641 127.854 124.858C128.157 125.071 128.541 125.178 129.005 125.178Z" fill="white"/>
<path d="M19.7599 147.06V138.333H25.027V139.27H20.8168V142.219H24.7543V143.157H20.8168V146.123H25.0952V147.06H19.7599ZM31.4318 141.981L30.5284 142.236C30.4716 142.086 30.3878 141.939 30.277 141.797C30.169 141.652 30.0213 141.533 29.8338 141.439C29.6463 141.346 29.4062 141.299 29.1136 141.299C28.7131 141.299 28.3793 141.391 28.1122 141.576C27.848 141.758 27.7159 141.989 27.7159 142.27C27.7159 142.52 27.8068 142.718 27.9886 142.863C28.1705 143.008 28.4545 143.128 28.8409 143.225L29.8125 143.463C30.3977 143.606 30.8338 143.823 31.1207 144.115C31.4077 144.405 31.5511 144.779 31.5511 145.236C31.5511 145.611 31.4432 145.946 31.2273 146.242C31.0142 146.537 30.7159 146.77 30.3324 146.941C29.9489 147.111 29.5028 147.196 28.9943 147.196C28.3267 147.196 27.7741 147.052 27.3366 146.762C26.8991 146.472 26.6222 146.049 26.5057 145.492L27.4602 145.253C27.5511 145.606 27.723 145.87 27.9759 146.046C28.2315 146.222 28.5653 146.31 28.9773 146.31C29.446 146.31 29.8182 146.211 30.0938 146.012C30.3722 145.81 30.5114 145.569 30.5114 145.287C30.5114 145.06 30.4318 144.87 30.2727 144.716C30.1136 144.56 29.8693 144.444 29.5398 144.367L28.4489 144.111C27.8494 143.969 27.4091 143.749 27.1278 143.451C26.8494 143.15 26.7102 142.773 26.7102 142.321C26.7102 141.952 26.8139 141.625 27.0213 141.341C27.2315 141.057 27.517 140.834 27.8778 140.672C28.2415 140.51 28.6534 140.429 29.1136 140.429C29.7614 140.429 30.2699 140.571 30.6392 140.856C31.0114 141.14 31.2756 141.515 31.4318 141.981ZM35.9116 140.515V141.367H32.5195V140.515H35.9116ZM33.5082 138.946H34.5138V145.185C34.5138 145.469 34.555 145.682 34.6374 145.824C34.7227 145.963 34.8306 146.057 34.9613 146.106C35.0948 146.151 35.2354 146.174 35.3832 146.174C35.494 146.174 35.5849 146.168 35.6559 146.157C35.7269 146.142 35.7837 146.131 35.8263 146.123L36.0309 147.026C35.9627 147.052 35.8675 147.077 35.7454 147.103C35.6232 147.131 35.4684 147.145 35.2809 147.145C34.9968 147.145 34.7184 147.084 34.4457 146.962C34.1758 146.84 33.9513 146.654 33.7724 146.404C33.5962 146.154 33.5082 145.838 33.5082 145.458V138.946ZM40.0984 147.196C39.4677 147.196 38.9237 147.057 38.4663 146.779C38.0117 146.498 37.6609 146.106 37.4137 145.603C37.1694 145.097 37.0472 144.509 37.0472 143.838C37.0472 143.168 37.1694 142.577 37.4137 142.066C37.6609 141.552 38.0046 141.151 38.445 140.864C38.8881 140.574 39.4052 140.429 39.9961 140.429C40.337 140.429 40.6737 140.486 41.006 140.6C41.3384 140.713 41.641 140.898 41.9137 141.154C42.1864 141.407 42.4038 141.742 42.5657 142.159C42.7276 142.577 42.8086 143.091 42.8086 143.702V144.128H37.7631V143.259H41.7859C41.7859 142.89 41.712 142.56 41.5643 142.27C41.4194 141.981 41.212 141.752 40.9421 141.584C40.6751 141.417 40.3597 141.333 39.9961 141.333C39.5955 141.333 39.2489 141.432 38.9563 141.631C38.6665 141.827 38.4435 142.083 38.2873 142.398C38.131 142.713 38.0529 143.052 38.0529 143.412V143.992C38.0529 144.486 38.1381 144.905 38.3086 145.249C38.4819 145.59 38.7219 145.85 39.0288 146.029C39.3356 146.205 39.6921 146.293 40.0984 146.293C40.3626 146.293 40.6012 146.256 40.8143 146.182C41.0302 146.106 41.2163 145.992 41.3725 145.841C41.5288 145.688 41.6495 145.498 41.7347 145.27L42.7063 145.543C42.604 145.873 42.4322 146.162 42.1907 146.412C41.9492 146.659 41.6509 146.853 41.2958 146.992C40.9407 147.128 40.5415 147.196 40.0984 147.196ZM47.7134 147.06V140.515H48.7191V147.06H47.7134ZM47.7646 139.628L48.8043 137.651H49.9805L48.6509 139.628H47.7646ZM53.2202 147.196C52.6065 147.196 52.0781 147.052 51.6349 146.762C51.1918 146.472 50.8509 146.073 50.6122 145.564C50.3736 145.056 50.2543 144.475 50.2543 143.821C50.2543 143.157 50.3764 142.57 50.6207 142.061C50.8679 141.55 51.2116 141.151 51.652 140.864C52.0952 140.574 52.6122 140.429 53.2031 140.429C53.6634 140.429 54.0781 140.515 54.4474 140.685C54.8168 140.856 55.1193 141.094 55.3551 141.401C55.5909 141.708 55.7372 142.066 55.794 142.475H54.7884C54.7116 142.177 54.5412 141.912 54.277 141.682C54.0156 141.449 53.6634 141.333 53.2202 141.333C52.8281 141.333 52.4844 141.435 52.1889 141.64C51.8963 141.841 51.6676 142.127 51.5028 142.496C51.3409 142.863 51.2599 143.293 51.2599 143.787C51.2599 144.293 51.3395 144.733 51.4986 145.108C51.6605 145.483 51.8878 145.775 52.1804 145.982C52.4759 146.189 52.8224 146.293 53.2202 146.293C53.4815 146.293 53.7188 146.248 53.9318 146.157C54.1449 146.066 54.3253 145.935 54.473 145.765C54.6207 145.594 54.7259 145.39 54.7884 145.151H55.794C55.7372 145.537 55.5966 145.885 55.3722 146.195C55.1506 146.502 54.8565 146.746 54.4901 146.928C54.1264 147.107 53.7031 147.196 53.2202 147.196ZM59.9233 147.196C59.3324 147.196 58.8139 147.056 58.3679 146.775C57.9247 146.493 57.5781 146.1 57.3281 145.594C57.081 145.088 56.9574 144.498 56.9574 143.821C56.9574 143.14 57.081 142.544 57.3281 142.036C57.5781 141.527 57.9247 141.133 58.3679 140.851C58.8139 140.57 59.3324 140.429 59.9233 140.429C60.5142 140.429 61.0313 140.57 61.4744 140.851C61.9205 141.133 62.267 141.527 62.5142 142.036C62.7642 142.544 62.8892 143.14 62.8892 143.821C62.8892 144.498 62.7642 145.088 62.5142 145.594C62.267 146.1 61.9205 146.493 61.4744 146.775C61.0313 147.056 60.5142 147.196 59.9233 147.196ZM59.9233 146.293C60.3722 146.293 60.7415 146.178 61.0312 145.948C61.321 145.718 61.5355 145.415 61.6747 145.04C61.8139 144.665 61.8835 144.259 61.8835 143.821C61.8835 143.384 61.8139 142.976 61.6747 142.598C61.5355 142.221 61.321 141.915 61.0312 141.682C60.7415 141.449 60.3722 141.333 59.9233 141.333C59.4744 141.333 59.1051 141.449 58.8153 141.682C58.5256 141.915 58.3111 142.221 58.1719 142.598C58.0327 142.976 57.9631 143.384 57.9631 143.821C57.9631 144.259 58.0327 144.665 58.1719 145.04C58.3111 145.415 58.5256 145.718 58.8153 145.948C59.1051 146.178 59.4744 146.293 59.9233 146.293ZM65.43 143.123V147.06H64.4244V140.515H65.396V141.537H65.4812C65.6346 141.205 65.8675 140.938 66.18 140.736C66.4925 140.532 66.896 140.429 67.3903 140.429C67.8335 140.429 68.2212 140.52 68.5536 140.702C68.886 140.881 69.1445 141.154 69.3292 141.52C69.5138 141.884 69.6062 142.344 69.6062 142.901V147.06H68.6005V142.969C68.6005 142.455 68.467 142.054 68.1999 141.767C67.9329 141.478 67.5664 141.333 67.1005 141.333C66.7795 141.333 66.4925 141.402 66.2397 141.542C65.9897 141.681 65.7923 141.884 65.6474 142.151C65.5025 142.418 65.43 142.742 65.43 143.123ZM74.1882 147.196C73.5575 147.196 73.0135 147.057 72.5561 146.779C72.1016 146.498 71.7507 146.106 71.5036 145.603C71.2592 145.097 71.1371 144.509 71.1371 143.838C71.1371 143.168 71.2592 142.577 71.5036 142.066C71.7507 141.552 72.0945 141.151 72.5348 140.864C72.978 140.574 73.495 140.429 74.0859 140.429C74.4268 140.429 74.7635 140.486 75.0959 140.6C75.4283 140.713 75.7308 140.898 76.0036 141.154C76.2763 141.407 76.4936 141.742 76.6555 142.159C76.8175 142.577 76.8984 143.091 76.8984 143.702V144.128H71.853V143.259H75.8757C75.8757 142.89 75.8018 142.56 75.6541 142.27C75.5092 141.981 75.3018 141.752 75.032 141.584C74.7649 141.417 74.4496 141.333 74.0859 141.333C73.6854 141.333 73.3388 141.432 73.0462 141.631C72.7564 141.827 72.5334 142.083 72.3771 142.398C72.2209 142.713 72.1428 143.052 72.1428 143.412V143.992C72.1428 144.486 72.228 144.905 72.3984 145.249C72.5717 145.59 72.8118 145.85 73.1186 146.029C73.4254 146.205 73.782 146.293 74.1882 146.293C74.4524 146.293 74.6911 146.256 74.9041 146.182C75.12 146.106 75.3061 145.992 75.4624 145.841C75.6186 145.688 75.7393 145.498 75.8246 145.27L76.7962 145.543C76.6939 145.873 76.522 146.162 76.2805 146.412C76.0391 146.659 75.7408 146.853 75.3857 146.992C75.0305 147.128 74.6314 147.196 74.1882 147.196ZM81.8033 147.06V140.515H82.8089V147.06H81.8033ZM82.3146 139.424C82.1186 139.424 81.9496 139.357 81.8075 139.223C81.6683 139.09 81.5987 138.929 81.5987 138.742C81.5987 138.554 81.6683 138.394 81.8075 138.26C81.9496 138.127 82.1186 138.06 82.3146 138.06C82.5107 138.06 82.6783 138.127 82.8175 138.26C82.9595 138.394 83.0305 138.554 83.0305 138.742C83.0305 138.929 82.9595 139.09 82.8175 139.223C82.6783 139.357 82.5107 139.424 82.3146 139.424ZM85.6566 143.123V147.06H84.6509V140.515H85.6225V141.537H85.7077C85.8612 141.205 86.0941 140.938 86.4066 140.736C86.7191 140.532 87.1225 140.429 87.6168 140.429C88.06 140.429 88.4478 140.52 88.7802 140.702C89.1126 140.881 89.3711 141.154 89.5558 141.52C89.7404 141.884 89.8327 142.344 89.8327 142.901V147.06H88.8271V142.969C88.8271 142.455 88.6935 142.054 88.4265 141.767C88.1594 141.478 87.793 141.333 87.3271 141.333C87.006 141.333 86.7191 141.402 86.4663 141.542C86.2163 141.681 86.0188 141.884 85.8739 142.151C85.729 142.418 85.6566 142.742 85.6566 143.123ZM94.142 147.196C93.5966 147.196 93.1151 147.059 92.6974 146.783C92.2798 146.505 91.9531 146.113 91.7173 145.607C91.4815 145.098 91.3636 144.498 91.3636 143.804C91.3636 143.117 91.4815 142.52 91.7173 142.015C91.9531 141.509 92.2813 141.118 92.7017 140.843C93.1222 140.567 93.608 140.429 94.1591 140.429C94.5852 140.429 94.9219 140.5 95.169 140.642C95.419 140.782 95.6094 140.941 95.7401 141.12C95.8736 141.296 95.9773 141.441 96.0511 141.554H96.1364V138.333H97.142V147.06H96.1705V146.054H96.0511C95.9773 146.174 95.8722 146.324 95.7358 146.506C95.5994 146.685 95.4048 146.846 95.152 146.988C94.8991 147.127 94.5625 147.196 94.142 147.196ZM94.2784 146.293C94.6818 146.293 95.0227 146.188 95.3011 145.978C95.5795 145.765 95.7912 145.471 95.9361 145.096C96.081 144.718 96.1534 144.282 96.1534 143.787C96.1534 143.299 96.0824 142.871 95.9403 142.505C95.7983 142.135 95.5881 141.848 95.3097 141.644C95.0313 141.436 94.6875 141.333 94.2784 141.333C93.8523 141.333 93.4972 141.442 93.2131 141.661C92.9318 141.877 92.7202 142.171 92.5781 142.543C92.4389 142.912 92.3693 143.327 92.3693 143.787C92.3693 144.253 92.4403 144.677 92.5824 145.057C92.7273 145.435 92.9403 145.736 93.2216 145.961C93.5057 146.182 93.858 146.293 94.2784 146.293ZM99.1236 147.06V140.515H100.129V147.06H99.1236ZM99.6349 139.424C99.4389 139.424 99.2699 139.357 99.1278 139.223C98.9886 139.09 98.919 138.929 98.919 138.742C98.919 138.554 98.9886 138.394 99.1278 138.26C99.2699 138.127 99.4389 138.06 99.6349 138.06C99.831 138.06 99.9986 138.127 100.138 138.26C100.28 138.394 100.351 138.554 100.351 138.742C100.351 138.929 100.28 139.09 100.138 139.223C99.9986 139.357 99.831 139.424 99.6349 139.424ZM104.63 147.196C104.017 147.196 103.488 147.052 103.045 146.762C102.602 146.472 102.261 146.073 102.022 145.564C101.784 145.056 101.664 144.475 101.664 143.821C101.664 143.157 101.787 142.57 102.031 142.061C102.278 141.55 102.622 141.151 103.062 140.864C103.505 140.574 104.022 140.429 104.613 140.429C105.074 140.429 105.488 140.515 105.858 140.685C106.227 140.856 106.529 141.094 106.765 141.401C107.001 141.708 107.147 142.066 107.204 142.475H106.199C106.122 142.177 105.951 141.912 105.687 141.682C105.426 141.449 105.074 141.333 104.63 141.333C104.238 141.333 103.895 141.435 103.599 141.64C103.306 141.841 103.078 142.127 102.913 142.496C102.751 142.863 102.67 143.293 102.67 143.787C102.67 144.293 102.75 144.733 102.909 145.108C103.071 145.483 103.298 145.775 103.591 145.982C103.886 146.189 104.233 146.293 104.63 146.293C104.892 146.293 105.129 146.248 105.342 146.157C105.555 146.066 105.735 145.935 105.883 145.765C106.031 145.594 106.136 145.39 106.199 145.151H107.204C107.147 145.537 107.007 145.885 106.782 146.195C106.561 146.502 106.267 146.746 105.9 146.928C105.537 147.107 105.113 147.196 104.63 147.196ZM110.6 147.213C110.186 147.213 109.809 147.135 109.471 146.979C109.133 146.82 108.865 146.591 108.666 146.293C108.467 145.992 108.368 145.628 108.368 145.202C108.368 144.827 108.441 144.523 108.589 144.29C108.737 144.054 108.934 143.87 109.181 143.736C109.429 143.603 109.701 143.503 110 143.438C110.301 143.37 110.603 143.316 110.907 143.276C111.305 143.225 111.627 143.186 111.875 143.161C112.125 143.133 112.306 143.086 112.42 143.02C112.537 142.955 112.595 142.841 112.595 142.679V142.645C112.595 142.225 112.48 141.898 112.25 141.665C112.022 141.432 111.677 141.316 111.214 141.316C110.734 141.316 110.358 141.421 110.085 141.631C109.812 141.841 109.62 142.066 109.51 142.304L108.555 141.963C108.725 141.566 108.953 141.256 109.237 141.034C109.524 140.81 109.836 140.654 110.174 140.566C110.515 140.475 110.85 140.429 111.18 140.429C111.39 140.429 111.632 140.455 111.904 140.506C112.18 140.554 112.446 140.655 112.701 140.809C112.96 140.962 113.174 141.194 113.345 141.503C113.515 141.813 113.6 142.228 113.6 142.748V147.06H112.595V146.174H112.544C112.475 146.316 112.362 146.468 112.203 146.63C112.044 146.792 111.832 146.929 111.568 147.043C111.304 147.157 110.981 147.213 110.6 147.213ZM110.754 146.31C111.152 146.31 111.487 146.232 111.76 146.076C112.035 145.919 112.243 145.718 112.382 145.471C112.524 145.223 112.595 144.963 112.595 144.691V143.77C112.552 143.821 112.458 143.868 112.314 143.911C112.172 143.951 112.007 143.986 111.819 144.017C111.635 144.046 111.454 144.071 111.278 144.094C111.105 144.114 110.964 144.131 110.856 144.145C110.595 144.179 110.35 144.235 110.123 144.311C109.899 144.385 109.717 144.498 109.578 144.648C109.441 144.796 109.373 144.998 109.373 145.253C109.373 145.603 109.502 145.867 109.761 146.046C110.022 146.222 110.353 146.31 110.754 146.31ZM123.277 149.515V146.054H123.192C123.118 146.174 123.013 146.324 122.876 146.506C122.74 146.685 122.545 146.846 122.293 146.988C122.04 147.127 121.703 147.196 121.283 147.196C120.737 147.196 120.256 147.059 119.838 146.783C119.42 146.505 119.094 146.113 118.858 145.607C118.622 145.098 118.504 144.498 118.504 143.804C118.504 143.117 118.622 142.52 118.858 142.015C119.094 141.509 119.422 141.118 119.842 140.843C120.263 140.567 120.749 140.429 121.3 140.429C121.726 140.429 122.063 140.5 122.31 140.642C122.56 140.782 122.75 140.941 122.881 141.12C123.014 141.296 123.118 141.441 123.192 141.554H123.311V140.515H124.283V149.515H123.277ZM121.419 146.293C121.822 146.293 122.163 146.188 122.442 145.978C122.72 145.765 122.932 145.471 123.077 145.096C123.222 144.718 123.294 144.282 123.294 143.787C123.294 143.299 123.223 142.871 123.081 142.505C122.939 142.135 122.729 141.848 122.45 141.644C122.172 141.436 121.828 141.333 121.419 141.333C120.993 141.333 120.638 141.442 120.354 141.661C120.072 141.877 119.861 142.171 119.719 142.543C119.58 142.912 119.51 143.327 119.51 143.787C119.51 144.253 119.581 144.677 119.723 145.057C119.868 145.435 120.081 145.736 120.362 145.961C120.646 146.182 120.999 146.293 121.419 146.293ZM130.249 144.384V140.515H131.254V147.06H130.249V145.952H130.18C130.027 146.284 129.788 146.567 129.464 146.8C129.141 147.03 128.732 147.145 128.237 147.145C127.828 147.145 127.464 147.056 127.146 146.877C126.828 146.695 126.578 146.422 126.396 146.059C126.214 145.692 126.124 145.231 126.124 144.674V140.515H127.129V144.606C127.129 145.083 127.263 145.463 127.53 145.748C127.8 146.032 128.143 146.174 128.561 146.174C128.811 146.174 129.065 146.11 129.324 145.982C129.585 145.854 129.804 145.658 129.98 145.394C130.159 145.13 130.249 144.793 130.249 144.384ZM135.841 147.196C135.21 147.196 134.666 147.057 134.208 146.779C133.754 146.498 133.403 146.106 133.156 145.603C132.912 145.097 132.789 144.509 132.789 143.838C132.789 143.168 132.912 142.577 133.156 142.066C133.403 141.552 133.747 141.151 134.187 140.864C134.63 140.574 135.147 140.429 135.738 140.429C136.079 140.429 136.416 140.486 136.748 140.6C137.081 140.713 137.383 140.898 137.656 141.154C137.929 141.407 138.146 141.742 138.308 142.159C138.47 142.577 138.551 143.091 138.551 143.702V144.128H133.505V143.259H137.528C137.528 142.89 137.454 142.56 137.306 142.27C137.162 141.981 136.954 141.752 136.684 141.584C136.417 141.417 136.102 141.333 135.738 141.333C135.338 141.333 134.991 141.432 134.699 141.631C134.409 141.827 134.186 142.083 134.029 142.398C133.873 142.713 133.795 143.052 133.795 143.412V143.992C133.795 144.486 133.88 144.905 134.051 145.249C134.224 145.59 134.464 145.85 134.771 146.029C135.078 146.205 135.434 146.293 135.841 146.293C136.105 146.293 136.343 146.256 136.556 146.182C136.772 146.106 136.958 145.992 137.115 145.841C137.271 145.688 137.392 145.498 137.477 145.27L138.449 145.543C138.346 145.873 138.174 146.162 137.933 146.412C137.691 146.659 137.393 146.853 137.038 146.992C136.683 147.128 136.284 147.196 135.841 147.196ZM145.382 147.213C144.967 147.213 144.591 147.135 144.252 146.979C143.914 146.82 143.646 146.591 143.447 146.293C143.248 145.992 143.149 145.628 143.149 145.202C143.149 144.827 143.223 144.523 143.37 144.29C143.518 144.054 143.716 143.87 143.963 143.736C144.21 143.603 144.483 143.503 144.781 143.438C145.082 143.37 145.385 143.316 145.689 143.276C146.086 143.225 146.409 143.186 146.656 143.161C146.906 143.133 147.088 143.086 147.201 143.02C147.318 142.955 147.376 142.841 147.376 142.679V142.645C147.376 142.225 147.261 141.898 147.031 141.665C146.804 141.432 146.458 141.316 145.995 141.316C145.515 141.316 145.139 141.421 144.866 141.631C144.593 141.841 144.402 142.066 144.291 142.304L143.336 141.963C143.507 141.566 143.734 141.256 144.018 141.034C144.305 140.81 144.618 140.654 144.956 140.566C145.297 140.475 145.632 140.429 145.961 140.429C146.172 140.429 146.413 140.455 146.686 140.506C146.961 140.554 147.227 140.655 147.483 140.809C147.741 140.962 147.956 141.194 148.126 141.503C148.297 141.813 148.382 142.228 148.382 142.748V147.06H147.376V146.174H147.325C147.257 146.316 147.143 146.468 146.984 146.63C146.825 146.792 146.613 146.929 146.349 147.043C146.085 147.157 145.762 147.213 145.382 147.213ZM145.535 146.31C145.933 146.31 146.268 146.232 146.541 146.076C146.816 145.919 147.024 145.718 147.163 145.471C147.305 145.223 147.376 144.963 147.376 144.691V143.77C147.333 143.821 147.24 143.868 147.095 143.911C146.953 143.951 146.788 143.986 146.6 144.017C146.416 144.046 146.235 144.071 146.059 144.094C145.886 144.114 145.745 144.131 145.637 144.145C145.376 144.179 145.132 144.235 144.904 144.311C144.68 144.385 144.498 144.498 144.359 144.648C144.223 144.796 144.154 144.998 144.154 145.253C144.154 145.603 144.284 145.867 144.542 146.046C144.804 146.222 145.135 146.31 145.535 146.31ZM15.1177 162.06V155.515H16.0893V156.503H16.1575C16.2768 156.179 16.4927 155.917 16.8052 155.715C17.1177 155.513 17.47 155.412 17.862 155.412C17.9359 155.412 18.0282 155.414 18.139 155.417C18.2498 155.419 18.3336 155.424 18.3904 155.429V156.452C18.3564 156.444 18.2782 156.431 18.1561 156.414C18.0368 156.394 17.9103 156.384 17.7768 156.384C17.4586 156.384 17.1745 156.451 16.9245 156.584C16.6774 156.715 16.4814 156.897 16.3365 157.13C16.1944 157.36 16.1234 157.623 16.1234 157.918V162.06H15.1177ZM22.0424 162.196C21.4515 162.196 20.9331 162.056 20.487 161.775C20.0439 161.493 19.6973 161.1 19.4473 160.594C19.2001 160.088 19.0765 159.498 19.0765 158.821C19.0765 158.14 19.2001 157.544 19.4473 157.036C19.6973 156.527 20.0439 156.133 20.487 155.851C20.9331 155.57 21.4515 155.429 22.0424 155.429C22.6333 155.429 23.1504 155.57 23.5936 155.851C24.0396 156.133 24.3862 156.527 24.6333 157.036C24.8833 157.544 25.0083 158.14 25.0083 158.821C25.0083 159.498 24.8833 160.088 24.6333 160.594C24.3862 161.1 24.0396 161.493 23.5936 161.775C23.1504 162.056 22.6333 162.196 22.0424 162.196ZM22.0424 161.293C22.4913 161.293 22.8606 161.178 23.1504 160.948C23.4402 160.718 23.6547 160.415 23.7939 160.04C23.9331 159.665 24.0027 159.259 24.0027 158.821C24.0027 158.384 23.9331 157.976 23.7939 157.598C23.6547 157.221 23.4402 156.915 23.1504 156.682C22.8606 156.449 22.4913 156.333 22.0424 156.333C21.5936 156.333 21.2243 156.449 20.9345 156.682C20.6447 156.915 20.4302 157.221 20.291 157.598C20.1518 157.976 20.0822 158.384 20.0822 158.821C20.0822 159.259 20.1518 159.665 20.291 160.04C20.4302 160.415 20.6447 160.718 20.9345 160.948C21.2243 161.178 21.5936 161.293 22.0424 161.293ZM29.3901 155.515V156.367H25.998V155.515H29.3901ZM26.9867 153.946H27.9924V160.185C27.9924 160.469 28.0336 160.682 28.1159 160.824C28.2012 160.963 28.3091 161.057 28.4398 161.106C28.5733 161.151 28.714 161.174 28.8617 161.174C28.9725 161.174 29.0634 161.168 29.1344 161.157C29.2054 161.142 29.2623 161.131 29.3049 161.123L29.5094 162.026C29.4412 162.052 29.3461 162.077 29.2239 162.103C29.1017 162.131 28.9469 162.145 28.7594 162.145C28.4753 162.145 28.1969 162.084 27.9242 161.962C27.6543 161.84 27.4299 161.654 27.2509 161.404C27.0748 161.154 26.9867 160.838 26.9867 160.458V153.946ZM32.829 162.213C32.4142 162.213 32.0378 162.135 31.6998 161.979C31.3617 161.82 31.0932 161.591 30.8944 161.293C30.6955 160.992 30.5961 160.628 30.5961 160.202C30.5961 159.827 30.6699 159.523 30.8176 159.29C30.9654 159.054 31.1628 158.87 31.41 158.736C31.6571 158.603 31.9299 158.503 32.2282 158.438C32.5293 158.37 32.8319 158.316 33.1358 158.276C33.5336 158.225 33.856 158.186 34.1032 158.161C34.3532 158.133 34.535 158.086 34.6486 158.02C34.7651 157.955 34.8233 157.841 34.8233 157.679V157.645C34.8233 157.225 34.7083 156.898 34.4782 156.665C34.2509 156.432 33.9057 156.316 33.4426 156.316C32.9625 156.316 32.5861 156.421 32.3134 156.631C32.0407 156.841 31.8489 157.066 31.7381 157.304L30.7836 156.963C30.954 156.566 31.1813 156.256 31.4654 156.034C31.7523 155.81 32.0648 155.654 32.4029 155.566C32.7438 155.475 33.079 155.429 33.4086 155.429C33.6188 155.429 33.8603 155.455 34.133 155.506C34.4086 155.554 34.6742 155.655 34.9299 155.809C35.1884 155.962 35.4029 156.194 35.5733 156.503C35.7438 156.813 35.829 157.228 35.829 157.748V162.06H34.8233V161.174H34.7722C34.704 161.316 34.5904 161.468 34.4313 161.63C34.2722 161.792 34.0605 161.929 33.7963 162.043C33.5321 162.157 33.2097 162.213 32.829 162.213ZM32.9824 161.31C33.3801 161.31 33.7154 161.232 33.9881 161.076C34.2637 160.919 34.4711 160.718 34.6103 160.471C34.7523 160.223 34.8233 159.963 34.8233 159.691V158.77C34.7807 158.821 34.687 158.868 34.5421 158.911C34.4 158.951 34.2353 158.986 34.0478 159.017C33.8631 159.046 33.6827 159.071 33.5066 159.094C33.3333 159.114 33.1926 159.131 33.0847 159.145C32.8233 159.179 32.579 159.235 32.3517 159.311C32.1273 159.385 31.9455 159.498 31.8063 159.648C31.6699 159.796 31.6017 159.998 31.6017 160.253C31.6017 160.603 31.731 160.867 31.9895 161.046C32.2509 161.222 32.5819 161.31 32.9824 161.31ZM41.0396 162.06V155.515H42.0112V156.503H42.0794C42.1987 156.179 42.4146 155.917 42.7271 155.715C43.0396 155.513 43.3919 155.412 43.7839 155.412C43.8578 155.412 43.9501 155.414 44.0609 155.417C44.1717 155.419 44.2555 155.424 44.3123 155.429V156.452C44.2782 156.444 44.2001 156.431 44.0779 156.414C43.9586 156.394 43.8322 156.384 43.6987 156.384C43.3805 156.384 43.0964 156.451 42.8464 156.584C42.5993 156.715 42.4032 156.897 42.2583 157.13C42.1163 157.36 42.0453 157.623 42.0453 157.918V162.06H41.0396ZM48.0495 162.196C47.4189 162.196 46.8748 162.057 46.4174 161.779C45.9629 161.498 45.612 161.106 45.3649 160.603C45.1206 160.097 44.9984 159.509 44.9984 158.838C44.9984 158.168 45.1206 157.577 45.3649 157.066C45.612 156.552 45.9558 156.151 46.3961 155.864C46.8393 155.574 47.3564 155.429 47.9473 155.429C48.2882 155.429 48.6248 155.486 48.9572 155.6C49.2896 155.713 49.5922 155.898 49.8649 156.154C50.1376 156.407 50.3549 156.742 50.5169 157.159C50.6788 157.577 50.7598 158.091 50.7598 158.702V159.128H45.7143V158.259H49.737C49.737 157.89 49.6632 157.56 49.5154 157.27C49.3706 156.981 49.1632 156.752 48.8933 156.584C48.6262 156.417 48.3109 156.333 47.9473 156.333C47.5467 156.333 47.2001 156.432 46.9075 156.631C46.6177 156.827 46.3947 157.083 46.2385 157.398C46.0822 157.713 46.0041 158.052 46.0041 158.412V158.992C46.0041 159.486 46.0893 159.905 46.2598 160.249C46.4331 160.59 46.6731 160.85 46.9799 161.029C47.2868 161.205 47.6433 161.293 48.0495 161.293C48.3137 161.293 48.5524 161.256 48.7654 161.182C48.9814 161.106 49.1674 160.992 49.3237 160.841C49.4799 160.688 49.6007 160.498 49.6859 160.27L50.6575 160.543C50.5552 160.873 50.3833 161.162 50.1419 161.412C49.9004 161.659 49.6021 161.853 49.247 161.992C48.8919 162.128 48.4927 162.196 48.0495 162.196ZM56.7555 164.515V161.054H56.6703C56.5964 161.174 56.4913 161.324 56.3549 161.506C56.2186 161.685 56.024 161.846 55.7711 161.988C55.5183 162.127 55.1816 162.196 54.7612 162.196C54.2157 162.196 53.7342 162.059 53.3166 161.783C52.899 161.505 52.5723 161.113 52.3365 160.607C52.1007 160.098 51.9828 159.498 51.9828 158.804C51.9828 158.117 52.1007 157.52 52.3365 157.015C52.5723 156.509 52.9004 156.118 53.3208 155.843C53.7413 155.567 54.2271 155.429 54.7782 155.429C55.2044 155.429 55.541 155.5 55.7882 155.642C56.0382 155.782 56.2285 155.941 56.3592 156.12C56.4927 156.296 56.5964 156.441 56.6703 156.554H56.7896V155.515H57.7612V164.515H56.7555ZM54.8975 161.293C55.301 161.293 55.6419 161.188 55.9203 160.978C56.1987 160.765 56.4103 160.471 56.5552 160.096C56.7001 159.718 56.7725 159.282 56.7725 158.787C56.7725 158.299 56.7015 157.871 56.5595 157.505C56.4174 157.135 56.2072 156.848 55.9288 156.644C55.6504 156.436 55.3066 156.333 54.8975 156.333C54.4714 156.333 54.1163 156.442 53.8322 156.661C53.551 156.877 53.3393 157.171 53.1973 157.543C53.0581 157.912 52.9885 158.327 52.9885 158.787C52.9885 159.253 53.0595 159.677 53.2015 160.057C53.3464 160.435 53.5595 160.736 53.8407 160.961C54.1248 161.182 54.4771 161.293 54.8975 161.293ZM63.7271 159.384V155.515H64.7328V162.06H63.7271V160.952H63.6589C63.5055 161.284 63.2669 161.567 62.943 161.8C62.6191 162.03 62.21 162.145 61.7157 162.145C61.3066 162.145 60.943 162.056 60.6248 161.877C60.3066 161.695 60.0566 161.422 59.8748 161.059C59.693 160.692 59.6021 160.231 59.6021 159.674V155.515H60.6078V159.606C60.6078 160.083 60.7413 160.463 61.0083 160.748C61.2782 161.032 61.622 161.174 62.0396 161.174C62.2896 161.174 62.5439 161.11 62.8024 160.982C63.0637 160.854 63.2825 160.658 63.4586 160.394C63.6376 160.13 63.7271 159.793 63.7271 159.384ZM69.3191 162.196C68.6884 162.196 68.1444 162.057 67.687 161.779C67.2324 161.498 66.8816 161.106 66.6344 160.603C66.3901 160.097 66.2679 159.509 66.2679 158.838C66.2679 158.168 66.3901 157.577 66.6344 157.066C66.8816 156.552 67.2253 156.151 67.6657 155.864C68.1088 155.574 68.6259 155.429 69.2168 155.429C69.5577 155.429 69.8944 155.486 70.2267 155.6C70.5591 155.713 70.8617 155.898 71.1344 156.154C71.4071 156.407 71.6245 156.742 71.7864 157.159C71.9483 157.577 72.0293 158.091 72.0293 158.702V159.128H66.9838V158.259H71.0066C71.0066 157.89 70.9327 157.56 70.785 157.27C70.6401 156.981 70.4327 156.752 70.1628 156.584C69.8958 156.417 69.5804 156.333 69.2168 156.333C68.8162 156.333 68.4696 156.432 68.177 156.631C67.8873 156.827 67.6642 157.083 67.508 157.398C67.3517 157.713 67.2736 158.052 67.2736 158.412V158.992C67.2736 159.486 67.3588 159.905 67.5293 160.249C67.7026 160.59 67.9426 160.85 68.2495 161.029C68.5563 161.205 68.9128 161.293 69.3191 161.293C69.5833 161.293 69.8219 161.256 70.035 161.182C70.2509 161.106 70.437 160.992 70.5932 160.841C70.7495 160.688 70.8702 160.498 70.9554 160.27L71.927 160.543C71.8248 160.873 71.6529 161.162 71.4114 161.412C71.1699 161.659 70.8716 161.853 70.5165 161.992C70.1614 162.128 69.7623 162.196 69.3191 162.196ZM73.5591 162.06V155.515H74.5307V156.503H74.5989C74.7182 156.179 74.9341 155.917 75.2466 155.715C75.5591 155.513 75.9114 155.412 76.3034 155.412C76.3773 155.412 76.4696 155.414 76.5804 155.417C76.6912 155.419 76.775 155.424 76.8319 155.429V156.452C76.7978 156.444 76.7196 156.431 76.5975 156.414C76.4782 156.394 76.3517 156.384 76.2182 156.384C75.9 156.384 75.6159 156.451 75.3659 156.584C75.1188 156.715 74.9228 156.897 74.7779 157.13C74.6358 157.36 74.5648 157.623 74.5648 157.918V162.06H73.5591ZM83.3251 162.213C82.9103 162.213 82.5339 162.135 82.1958 161.979C81.8578 161.82 81.5893 161.591 81.3904 161.293C81.1916 160.992 81.0922 160.628 81.0922 160.202C81.0922 159.827 81.166 159.523 81.3137 159.29C81.4615 159.054 81.6589 158.87 81.9061 158.736C82.1532 158.603 82.426 158.503 82.7243 158.438C83.0254 158.37 83.3279 158.316 83.6319 158.276C84.0297 158.225 84.3521 158.186 84.5993 158.161C84.8493 158.133 85.0311 158.086 85.1447 158.02C85.2612 157.955 85.3194 157.841 85.3194 157.679V157.645C85.3194 157.225 85.2044 156.898 84.9743 156.665C84.747 156.432 84.4018 156.316 83.9387 156.316C83.4586 156.316 83.0822 156.421 82.8095 156.631C82.5368 156.841 82.345 157.066 82.2342 157.304L81.2797 156.963C81.4501 156.566 81.6774 156.256 81.9615 156.034C82.2484 155.81 82.5609 155.654 82.899 155.566C83.2399 155.475 83.5751 155.429 83.9047 155.429C84.1149 155.429 84.3564 155.455 84.6291 155.506C84.9047 155.554 85.1703 155.655 85.426 155.809C85.6845 155.962 85.899 156.194 86.0694 156.503C86.2399 156.813 86.3251 157.228 86.3251 157.748V162.06H85.3194V161.174H85.2683C85.2001 161.316 85.0865 161.468 84.9274 161.63C84.7683 161.792 84.5566 161.929 84.2924 162.043C84.0282 162.157 83.7058 162.213 83.3251 162.213ZM83.4785 161.31C83.8762 161.31 84.2115 161.232 84.4842 161.076C84.7598 160.919 84.9672 160.718 85.1064 160.471C85.2484 160.223 85.3194 159.963 85.3194 159.691V158.77C85.2768 158.821 85.1831 158.868 85.0382 158.911C84.8961 158.951 84.7314 158.986 84.5439 159.017C84.3592 159.046 84.1788 159.071 84.0027 159.094C83.8294 159.114 83.6887 159.131 83.5808 159.145C83.3194 159.179 83.0751 159.235 82.8478 159.311C82.6234 159.385 82.4416 159.498 82.3024 159.648C82.166 159.796 82.0978 159.998 82.0978 160.253C82.0978 160.603 82.2271 160.867 82.4856 161.046C82.747 161.222 83.0779 161.31 83.4785 161.31ZM92.2857 159.384V155.515H93.2914V162.06H92.2857V160.952H92.2175C92.0641 161.284 91.8255 161.567 91.5016 161.8C91.1777 162.03 90.7686 162.145 90.2743 162.145C89.8652 162.145 89.5016 162.056 89.1834 161.877C88.8652 161.695 88.6152 161.422 88.4334 161.059C88.2516 160.692 88.1607 160.231 88.1607 159.674V155.515H89.1664V159.606C89.1664 160.083 89.2999 160.463 89.5669 160.748C89.8368 161.032 90.1806 161.174 90.5982 161.174C90.8482 161.174 91.1025 161.11 91.361 160.982C91.6223 160.854 91.8411 160.658 92.0172 160.394C92.1962 160.13 92.2857 159.793 92.2857 159.384ZM97.9799 155.515V156.367H94.5879V155.515H97.9799ZM95.5765 153.946H96.5822V160.185C96.5822 160.469 96.6234 160.682 96.7058 160.824C96.791 160.963 96.899 161.057 97.0297 161.106C97.1632 161.151 97.3038 161.174 97.4515 161.174C97.5623 161.174 97.6532 161.168 97.7243 161.157C97.7953 161.142 97.8521 161.131 97.8947 161.123L98.0993 162.026C98.0311 162.052 97.9359 162.077 97.8137 162.103C97.6916 162.131 97.5368 162.145 97.3493 162.145C97.0652 162.145 96.7868 162.084 96.514 161.962C96.2441 161.84 96.0197 161.654 95.8407 161.404C95.6646 161.154 95.5765 160.838 95.5765 160.458V153.946ZM102.167 162.196C101.536 162.196 100.992 162.057 100.535 161.779C100.08 161.498 99.7292 161.106 99.4821 160.603C99.2377 160.097 99.1156 159.509 99.1156 158.838C99.1156 158.168 99.2377 157.577 99.4821 157.066C99.7292 156.552 100.073 156.151 100.513 155.864C100.956 155.574 101.474 155.429 102.064 155.429C102.405 155.429 102.742 155.486 103.074 155.6C103.407 155.713 103.709 155.898 103.982 156.154C104.255 156.407 104.472 156.742 104.634 157.159C104.796 157.577 104.877 158.091 104.877 158.702V159.128H99.8315V158.259H103.854C103.854 157.89 103.78 157.56 103.633 157.27C103.488 156.981 103.28 156.752 103.01 156.584C102.743 156.417 102.428 156.333 102.064 156.333C101.664 156.333 101.317 156.432 101.025 156.631C100.735 156.827 100.512 157.083 100.356 157.398C100.199 157.713 100.121 158.052 100.121 158.412V158.992C100.121 159.486 100.206 159.905 100.377 160.249C100.55 160.59 100.79 160.85 101.097 161.029C101.404 161.205 101.76 161.293 102.167 161.293C102.431 161.293 102.67 161.256 102.883 161.182C103.099 161.106 103.285 160.992 103.441 160.841C103.597 160.688 103.718 160.498 103.803 160.27L104.775 160.543C104.672 160.873 104.501 161.162 104.259 161.412C104.018 161.659 103.719 161.853 103.364 161.992C103.009 162.128 102.61 162.196 102.167 162.196ZM107.412 158.123V162.06H106.407V155.515H107.378V156.537H107.464C107.617 156.205 107.85 155.938 108.162 155.736C108.475 155.532 108.878 155.429 109.373 155.429C109.816 155.429 110.204 155.52 110.536 155.702C110.868 155.881 111.127 156.154 111.312 156.52C111.496 156.884 111.589 157.344 111.589 157.901V162.06H110.583V157.969C110.583 157.455 110.449 157.054 110.182 156.767C109.915 156.478 109.549 156.333 109.083 156.333C108.762 156.333 108.475 156.402 108.222 156.542C107.972 156.681 107.775 156.884 107.63 157.151C107.485 157.418 107.412 157.742 107.412 158.123ZM116.273 155.515V156.367H112.881V155.515H116.273ZM113.869 153.946H114.875V160.185C114.875 160.469 114.916 160.682 114.999 160.824C115.084 160.963 115.192 161.057 115.323 161.106C115.456 161.151 115.597 161.174 115.744 161.174C115.855 161.174 115.946 161.168 116.017 161.157C116.088 161.142 116.145 161.131 116.188 161.123L116.392 162.026C116.324 162.052 116.229 162.077 116.107 162.103C115.985 162.131 115.83 162.145 115.642 162.145C115.358 162.145 115.08 162.084 114.807 161.962C114.537 161.84 114.313 161.654 114.134 161.404C113.958 161.154 113.869 160.838 113.869 160.458V153.946ZM117.786 162.06V155.515H118.791V162.06H117.786ZM118.297 154.424C118.101 154.424 117.932 154.357 117.79 154.223C117.651 154.09 117.581 153.929 117.581 153.742C117.581 153.554 117.651 153.394 117.79 153.26C117.932 153.127 118.101 153.06 118.297 153.06C118.493 153.06 118.661 153.127 118.8 153.26C118.942 153.394 119.013 153.554 119.013 153.742C119.013 153.929 118.942 154.09 118.8 154.223C118.661 154.357 118.493 154.424 118.297 154.424ZM123.292 162.196C122.679 162.196 122.15 162.052 121.707 161.762C121.264 161.472 120.923 161.073 120.684 160.564C120.446 160.056 120.327 159.475 120.327 158.821C120.327 158.157 120.449 157.57 120.693 157.061C120.94 156.55 121.284 156.151 121.724 155.864C122.167 155.574 122.684 155.429 123.275 155.429C123.736 155.429 124.15 155.515 124.52 155.685C124.889 155.856 125.192 156.094 125.427 156.401C125.663 156.708 125.809 157.066 125.866 157.475H124.861C124.784 157.177 124.613 156.912 124.349 156.682C124.088 156.449 123.736 156.333 123.292 156.333C122.9 156.333 122.557 156.435 122.261 156.64C121.969 156.841 121.74 157.127 121.575 157.496C121.413 157.863 121.332 158.293 121.332 158.787C121.332 159.293 121.412 159.733 121.571 160.108C121.733 160.483 121.96 160.775 122.253 160.982C122.548 161.189 122.895 161.293 123.292 161.293C123.554 161.293 123.791 161.248 124.004 161.157C124.217 161.066 124.398 160.935 124.545 160.765C124.693 160.594 124.798 160.39 124.861 160.151H125.866C125.809 160.537 125.669 160.885 125.444 161.195C125.223 161.502 124.929 161.746 124.562 161.928C124.199 162.107 123.775 162.196 123.292 162.196ZM129.263 162.213C128.848 162.213 128.471 162.135 128.133 161.979C127.795 161.82 127.527 161.591 127.328 161.293C127.129 160.992 127.03 160.628 127.03 160.202C127.03 159.827 127.104 159.523 127.251 159.29C127.399 159.054 127.596 158.87 127.844 158.736C128.091 158.603 128.363 158.503 128.662 158.438C128.963 158.37 129.265 158.316 129.569 158.276C129.967 158.225 130.29 158.186 130.537 158.161C130.787 158.133 130.969 158.086 131.082 158.02C131.199 157.955 131.257 157.841 131.257 157.679V157.645C131.257 157.225 131.142 156.898 130.912 156.665C130.684 156.432 130.339 156.316 129.876 156.316C129.396 156.316 129.02 156.421 128.747 156.631C128.474 156.841 128.282 157.066 128.172 157.304L127.217 156.963C127.388 156.566 127.615 156.256 127.899 156.034C128.186 155.81 128.498 155.654 128.836 155.566C129.177 155.475 129.513 155.429 129.842 155.429C130.052 155.429 130.294 155.455 130.567 155.506C130.842 155.554 131.108 155.655 131.363 155.809C131.622 155.962 131.836 156.194 132.007 156.503C132.177 156.813 132.263 157.228 132.263 157.748V162.06H131.257V161.174H131.206C131.138 161.316 131.024 161.468 130.865 161.63C130.706 161.792 130.494 161.929 130.23 162.043C129.966 162.157 129.643 162.213 129.263 162.213ZM129.416 161.31C129.814 161.31 130.149 161.232 130.422 161.076C130.697 160.919 130.905 160.718 131.044 160.471C131.186 160.223 131.257 159.963 131.257 159.691V158.77C131.214 158.821 131.121 158.868 130.976 158.911C130.834 158.951 130.669 158.986 130.481 159.017C130.297 159.046 130.116 159.071 129.94 159.094C129.767 159.114 129.626 159.131 129.518 159.145C129.257 159.179 129.013 159.235 128.785 159.311C128.561 159.385 128.379 159.498 128.24 159.648C128.104 159.796 128.035 159.998 128.035 160.253C128.035 160.603 128.165 160.867 128.423 161.046C128.684 161.222 129.015 161.31 129.416 161.31ZM136.757 162.196C136.144 162.196 135.615 162.052 135.172 161.762C134.729 161.472 134.388 161.073 134.149 160.564C133.911 160.056 133.791 159.475 133.791 158.821C133.791 158.157 133.914 157.57 134.158 157.061C134.405 156.55 134.749 156.151 135.189 155.864C135.632 155.574 136.149 155.429 136.74 155.429C137.2 155.429 137.615 155.515 137.985 155.685C138.354 155.856 138.656 156.094 138.892 156.401C139.128 156.708 139.274 157.066 139.331 157.475H138.325C138.249 157.177 138.078 156.912 137.814 156.682C137.553 156.449 137.2 156.333 136.757 156.333C136.365 156.333 136.021 156.435 135.726 156.64C135.433 156.841 135.205 157.127 135.04 157.496C134.878 157.863 134.797 158.293 134.797 158.787C134.797 159.293 134.877 159.733 135.036 160.108C135.198 160.483 135.425 160.775 135.718 160.982C136.013 161.189 136.36 161.293 136.757 161.293C137.019 161.293 137.256 161.248 137.469 161.157C137.682 161.066 137.862 160.935 138.01 160.765C138.158 160.594 138.263 160.39 138.325 160.151H139.331C139.274 160.537 139.134 160.885 138.909 161.195C138.688 161.502 138.394 161.746 138.027 161.928C137.664 162.107 137.24 162.196 136.757 162.196ZM136.28 162.026H137.115L137.047 162.367C137.269 162.401 137.472 162.493 137.656 162.644C137.841 162.797 137.933 163.04 137.933 163.373C137.933 163.739 137.781 164.037 137.477 164.267C137.176 164.5 136.732 164.617 136.144 164.617L136.11 163.952C136.374 163.952 136.593 163.909 136.766 163.824C136.942 163.742 137.03 163.603 137.03 163.407C137.03 163.211 136.958 163.077 136.813 163.006C136.668 162.935 136.433 162.887 136.11 162.861L136.28 162.026ZM142.727 162.213C142.313 162.213 141.936 162.135 141.598 161.979C141.26 161.82 140.992 161.591 140.793 161.293C140.594 160.992 140.494 160.628 140.494 160.202C140.494 159.827 140.568 159.523 140.716 159.29C140.864 159.054 141.061 158.87 141.308 158.736C141.556 158.603 141.828 158.503 142.127 158.438C142.428 158.37 142.73 158.316 143.034 158.276C143.432 158.225 143.754 158.186 144.002 158.161C144.252 158.133 144.433 158.086 144.547 158.02C144.664 157.955 144.722 157.841 144.722 157.679V157.645C144.722 157.225 144.607 156.898 144.377 156.665C144.149 156.432 143.804 156.316 143.341 156.316C142.861 156.316 142.485 156.421 142.212 156.631C141.939 156.841 141.747 157.066 141.637 157.304L140.682 156.963C140.852 156.566 141.08 156.256 141.364 156.034C141.651 155.81 141.963 155.654 142.301 155.566C142.642 155.475 142.977 155.429 143.307 155.429C143.517 155.429 143.759 155.455 144.031 155.506C144.307 155.554 144.573 155.655 144.828 155.809C145.087 155.962 145.301 156.194 145.472 156.503C145.642 156.813 145.727 157.228 145.727 157.748V162.06H144.722V161.174H144.671C144.602 161.316 144.489 161.468 144.33 161.63C144.171 161.792 143.959 161.929 143.695 162.043C143.431 162.157 143.108 162.213 142.727 162.213ZM142.881 161.31C143.279 161.31 143.614 161.232 143.887 161.076C144.162 160.919 144.369 160.718 144.509 160.471C144.651 160.223 144.722 159.963 144.722 159.691V158.77C144.679 158.821 144.585 158.868 144.441 158.911C144.298 158.951 144.134 158.986 143.946 159.017C143.762 159.046 143.581 159.071 143.405 159.094C143.232 159.114 143.091 159.131 142.983 159.145C142.722 159.179 142.477 159.235 142.25 159.311C142.026 159.385 141.844 159.498 141.705 159.648C141.568 159.796 141.5 159.998 141.5 160.253C141.5 160.603 141.629 160.867 141.888 161.046C142.149 161.222 142.48 161.31 142.881 161.31ZM142.063 154.731L141.279 154.696C141.279 154.262 141.402 153.907 141.649 153.631C141.899 153.353 142.208 153.213 142.574 153.213C142.736 153.213 142.879 153.242 143.004 153.299C143.129 153.353 143.249 153.415 143.362 153.486C143.476 153.557 143.593 153.621 143.712 153.678C143.834 153.732 143.972 153.759 144.125 153.759C144.287 153.759 144.423 153.696 144.534 153.571C144.648 153.444 144.705 153.29 144.705 153.111L145.472 153.179C145.472 153.623 145.347 153.975 145.097 154.236C144.85 154.498 144.543 154.628 144.176 154.628C143.98 154.628 143.818 154.601 143.691 154.547C143.563 154.49 143.449 154.427 143.35 154.356C143.25 154.284 143.145 154.222 143.034 154.168C142.923 154.111 142.787 154.083 142.625 154.083C142.463 154.083 142.328 154.147 142.22 154.275C142.115 154.4 142.063 154.552 142.063 154.731ZM150.222 162.196C149.631 162.196 149.113 162.056 148.667 161.775C148.224 161.493 147.877 161.1 147.627 160.594C147.38 160.088 147.256 159.498 147.256 158.821C147.256 158.14 147.38 157.544 147.627 157.036C147.877 156.527 148.224 156.133 148.667 155.851C149.113 155.57 149.631 155.429 150.222 155.429C150.813 155.429 151.33 155.57 151.773 155.851C152.219 156.133 152.566 156.527 152.813 157.036C153.063 157.544 153.188 158.14 153.188 158.821C153.188 159.498 153.063 160.088 152.813 160.594C152.566 161.1 152.219 161.493 151.773 161.775C151.33 162.056 150.813 162.196 150.222 162.196ZM150.222 161.293C150.671 161.293 151.04 161.178 151.33 160.948C151.62 160.718 151.834 160.415 151.974 160.04C152.113 159.665 152.182 159.259 152.182 158.821C152.182 158.384 152.113 157.976 151.974 157.598C151.834 157.221 151.62 156.915 151.33 156.682C151.04 156.449 150.671 156.333 150.222 156.333C149.773 156.333 149.404 156.449 149.114 156.682C148.824 156.915 148.61 157.221 148.471 157.598C148.331 157.976 148.262 158.384 148.262 158.821C148.262 159.259 148.331 159.665 148.471 160.04C148.61 160.415 148.824 160.718 149.114 160.948C149.404 161.178 149.773 161.293 150.222 161.293ZM48.856 179.515V170.515H49.8276V171.554H49.9469C50.0208 171.441 50.123 171.296 50.2537 171.12C50.3873 170.941 50.5776 170.782 50.8248 170.642C51.0748 170.5 51.4128 170.429 51.839 170.429C52.3901 170.429 52.8759 170.567 53.2963 170.843C53.7168 171.118 54.0449 171.509 54.2807 172.015C54.5165 172.52 54.6344 173.117 54.6344 173.804C54.6344 174.498 54.5165 175.098 54.2807 175.607C54.0449 176.113 53.7182 176.505 53.3006 176.783C52.883 177.059 52.4015 177.196 51.856 177.196C51.4355 177.196 51.0989 177.127 50.8461 176.988C50.5932 176.846 50.3986 176.685 50.2623 176.506C50.1259 176.324 50.0208 176.174 49.9469 176.054H49.8617V179.515H48.856ZM49.8446 173.787C49.8446 174.282 49.9171 174.718 50.062 175.096C50.2069 175.471 50.4185 175.765 50.6969 175.978C50.9753 176.188 51.3162 176.293 51.7196 176.293C52.1401 176.293 52.4909 176.182 52.7722 175.961C53.0563 175.736 53.2694 175.435 53.4114 175.057C53.5563 174.677 53.6287 174.253 53.6287 173.787C53.6287 173.327 53.5577 172.912 53.4157 172.543C53.2765 172.171 53.0648 171.877 52.7807 171.661C52.4995 171.442 52.1458 171.333 51.7196 171.333C51.3105 171.333 50.9668 171.436 50.6884 171.644C50.41 171.848 50.1998 172.135 50.0577 172.505C49.9157 172.871 49.8446 173.299 49.8446 173.787ZM58.0946 177.213C57.6799 177.213 57.3034 177.135 56.9654 176.979C56.6273 176.82 56.3588 176.591 56.16 176.293C55.9611 175.992 55.8617 175.628 55.8617 175.202C55.8617 174.827 55.9355 174.523 56.0833 174.29C56.231 174.054 56.4284 173.87 56.6756 173.736C56.9228 173.603 57.1955 173.503 57.4938 173.438C57.7949 173.37 58.0975 173.316 58.4015 173.276C58.7992 173.225 59.1216 173.186 59.3688 173.161C59.6188 173.133 59.8006 173.086 59.9142 173.02C60.0307 172.955 60.089 172.841 60.089 172.679V172.645C60.089 172.225 59.9739 171.898 59.7438 171.665C59.5165 171.432 59.1713 171.316 58.7083 171.316C58.2282 171.316 57.8517 171.421 57.579 171.631C57.3063 171.841 57.1145 172.066 57.0037 172.304L56.0492 171.963C56.2196 171.566 56.4469 171.256 56.731 171.034C57.0179 170.81 57.3304 170.654 57.6685 170.566C58.0094 170.475 58.3446 170.429 58.6742 170.429C58.8844 170.429 59.1259 170.455 59.3986 170.506C59.6742 170.554 59.9398 170.655 60.1955 170.809C60.454 170.962 60.6685 171.194 60.839 171.503C61.0094 171.813 61.0946 172.228 61.0946 172.748V177.06H60.089V176.174H60.0378C59.9696 176.316 59.856 176.468 59.6969 176.63C59.5378 176.792 59.3262 176.929 59.062 177.043C58.7978 177.157 58.4753 177.213 58.0946 177.213ZM58.248 176.31C58.6458 176.31 58.981 176.232 59.2537 176.076C59.5293 175.919 59.7367 175.718 59.8759 175.471C60.0179 175.223 60.089 174.963 60.089 174.691V173.77C60.0463 173.821 59.9526 173.868 59.8077 173.911C59.6657 173.951 59.5009 173.986 59.3134 174.017C59.1287 174.046 58.9483 174.071 58.7722 174.094C58.5989 174.114 58.4583 174.131 58.3503 174.145C58.089 174.179 57.8446 174.235 57.6174 174.311C57.3929 174.385 57.2111 174.498 57.0719 174.648C56.9355 174.796 56.8674 174.998 56.8674 175.253C56.8674 175.603 56.9966 175.867 57.2551 176.046C57.5165 176.222 57.8475 176.31 58.248 176.31ZM62.9302 177.06V170.515H63.9018V171.503H63.97C64.0893 171.179 64.3052 170.917 64.6177 170.715C64.9302 170.513 65.2825 170.412 65.6745 170.412C65.7484 170.412 65.8407 170.414 65.9515 170.417C66.0623 170.419 66.1461 170.424 66.2029 170.429V171.452C66.1689 171.444 66.0907 171.431 65.9686 171.414C65.8493 171.394 65.7228 171.384 65.5893 171.384C65.2711 171.384 64.987 171.451 64.737 171.584C64.4899 171.715 64.2939 171.897 64.149 172.13C64.0069 172.36 63.9359 172.623 63.9359 172.918V177.06H62.9302ZM69.3212 177.213C68.9064 177.213 68.53 177.135 68.1919 176.979C67.8539 176.82 67.5854 176.591 67.3865 176.293C67.1877 175.992 67.0882 175.628 67.0882 175.202C67.0882 174.827 67.1621 174.523 67.3098 174.29C67.4576 174.054 67.655 173.87 67.9022 173.736C68.1493 173.603 68.4221 173.503 68.7203 173.438C69.0215 173.37 69.324 173.316 69.628 173.276C70.0257 173.225 70.3482 173.186 70.5953 173.161C70.8453 173.133 71.0272 173.086 71.1408 173.02C71.2573 172.955 71.3155 172.841 71.3155 172.679V172.645C71.3155 172.225 71.2005 171.898 70.9703 171.665C70.7431 171.432 70.3979 171.316 69.9348 171.316C69.4547 171.316 69.0783 171.421 68.8056 171.631C68.5328 171.841 68.3411 172.066 68.2303 172.304L67.2757 171.963C67.4462 171.566 67.6735 171.256 67.9576 171.034C68.2445 170.81 68.557 170.654 68.8951 170.566C69.236 170.475 69.5712 170.429 69.9007 170.429C70.111 170.429 70.3525 170.455 70.6252 170.506C70.9007 170.554 71.1664 170.655 71.4221 170.809C71.6806 170.962 71.8951 171.194 72.0655 171.503C72.236 171.813 72.3212 172.228 72.3212 172.748V177.06H71.3155V176.174H71.2644C71.1962 176.316 71.0826 176.468 70.9235 176.63C70.7644 176.792 70.5527 176.929 70.2885 177.043C70.0243 177.157 69.7019 177.213 69.3212 177.213ZM69.4746 176.31C69.8723 176.31 70.2076 176.232 70.4803 176.076C70.7559 175.919 70.9632 175.718 71.1025 175.471C71.2445 175.223 71.3155 174.963 71.3155 174.691V173.77C71.2729 173.821 71.1792 173.868 71.0343 173.911C70.8922 173.951 70.7275 173.986 70.54 174.017C70.3553 174.046 70.1749 174.071 69.9988 174.094C69.8255 174.114 69.6848 174.131 69.5769 174.145C69.3155 174.179 69.0712 174.235 68.8439 174.311C68.6195 174.385 68.4377 174.498 68.2985 174.648C68.1621 174.796 68.0939 174.998 68.0939 175.253C68.0939 175.603 68.2232 175.867 68.4817 176.046C68.7431 176.222 69.074 176.31 69.4746 176.31ZM79.4579 177.213C79.0431 177.213 78.6667 177.135 78.3287 176.979C77.9906 176.82 77.7221 176.591 77.5233 176.293C77.3244 175.992 77.225 175.628 77.225 175.202C77.225 174.827 77.2988 174.523 77.4466 174.29C77.5943 174.054 77.7917 173.87 78.0389 173.736C78.286 173.603 78.5588 173.503 78.8571 173.438C79.1582 173.37 79.4608 173.316 79.7647 173.276C80.1625 173.225 80.4849 173.186 80.7321 173.161C80.9821 173.133 81.1639 173.086 81.2775 173.02C81.394 172.955 81.4522 172.841 81.4522 172.679V172.645C81.4522 172.225 81.3372 171.898 81.1071 171.665C80.8798 171.432 80.5346 171.316 80.0716 171.316C79.5914 171.316 79.215 171.421 78.9423 171.631C78.6696 171.841 78.4778 172.066 78.367 172.304L77.4125 171.963C77.5829 171.566 77.8102 171.256 78.0943 171.034C78.3812 170.81 78.6937 170.654 79.0318 170.566C79.3727 170.475 79.7079 170.429 80.0375 170.429C80.2477 170.429 80.4892 170.455 80.7619 170.506C81.0375 170.554 81.3031 170.655 81.5588 170.809C81.8173 170.962 82.0318 171.194 82.2022 171.503C82.3727 171.813 82.4579 172.228 82.4579 172.748V177.06H81.4522V176.174H81.4011C81.3329 176.316 81.2193 176.468 81.0602 176.63C80.9011 176.792 80.6895 176.929 80.4252 177.043C80.161 177.157 79.8386 177.213 79.4579 177.213ZM79.6113 176.31C80.0091 176.31 80.3443 176.232 80.617 176.076C80.8926 175.919 81.1 175.718 81.2392 175.471C81.3812 175.223 81.4522 174.963 81.4522 174.691V173.77C81.4096 173.821 81.3159 173.868 81.171 173.911C81.0289 173.951 80.8642 173.986 80.6767 174.017C80.492 174.046 80.3116 174.071 80.1355 174.094C79.9622 174.114 79.8216 174.131 79.7136 174.145C79.4522 174.179 79.2079 174.235 78.9806 174.311C78.7562 174.385 78.5744 174.498 78.4352 174.648C78.2988 174.796 78.2306 174.998 78.2306 175.253C78.2306 175.603 78.3599 175.867 78.6184 176.046C78.8798 176.222 79.2108 176.31 79.6113 176.31ZM86.9526 177.196C86.339 177.196 85.8105 177.052 85.3674 176.762C84.9242 176.472 84.5833 176.073 84.3446 175.564C84.106 175.056 83.9867 174.475 83.9867 173.821C83.9867 173.157 84.1088 172.57 84.3532 172.061C84.6003 171.55 84.9441 171.151 85.3844 170.864C85.8276 170.574 86.3446 170.429 86.9355 170.429C87.3958 170.429 87.8105 170.515 88.1799 170.685C88.5492 170.856 88.8517 171.094 89.0875 171.401C89.3233 171.708 89.4696 172.066 89.5265 172.475H88.5208C88.4441 172.177 88.2736 171.912 88.0094 171.682C87.748 171.449 87.3958 171.333 86.9526 171.333C86.5605 171.333 86.2168 171.435 85.9213 171.64C85.6287 171.841 85.4 172.127 85.2353 172.496C85.0733 172.863 84.9924 173.293 84.9924 173.787C84.9924 174.293 85.0719 174.733 85.231 175.108C85.3929 175.483 85.6202 175.775 85.9128 175.982C86.2083 176.189 86.5549 176.293 86.9526 176.293C87.214 176.293 87.4512 176.248 87.6642 176.157C87.8773 176.066 88.0577 175.935 88.2054 175.765C88.3532 175.594 88.4583 175.39 88.5208 175.151H89.5265C89.4696 175.537 89.329 175.885 89.1046 176.195C88.883 176.502 88.589 176.746 88.2225 176.928C87.8588 177.107 87.4355 177.196 86.9526 177.196ZM93.7409 177.196C93.1103 177.196 92.5662 177.057 92.1088 176.779C91.6543 176.498 91.3034 176.106 91.0563 175.603C90.812 175.097 90.6898 174.509 90.6898 173.838C90.6898 173.168 90.812 172.577 91.0563 172.066C91.3034 171.552 91.6472 171.151 92.0875 170.864C92.5307 170.574 93.0478 170.429 93.6387 170.429C93.9796 170.429 94.3162 170.486 94.6486 170.6C94.981 170.713 95.2836 170.898 95.5563 171.154C95.829 171.407 96.0463 171.742 96.2083 172.159C96.3702 172.577 96.4512 173.091 96.4512 173.702V174.128H91.4057V173.259H95.4284C95.4284 172.89 95.3546 172.56 95.2069 172.27C95.062 171.981 94.8546 171.752 94.5847 171.584C94.3176 171.417 94.0023 171.333 93.6387 171.333C93.2381 171.333 92.8915 171.432 92.5989 171.631C92.3091 171.827 92.0861 172.083 91.9299 172.398C91.7736 172.713 91.6955 173.052 91.6955 173.412V173.992C91.6955 174.486 91.7807 174.905 91.9512 175.249C92.1245 175.59 92.3645 175.85 92.6713 176.029C92.9782 176.205 93.3347 176.293 93.7409 176.293C94.0051 176.293 94.2438 176.256 94.4569 176.182C94.6728 176.106 94.8588 175.992 95.0151 175.841C95.1713 175.688 95.2921 175.498 95.3773 175.27L96.3489 175.543C96.2466 175.873 96.0748 176.162 95.8333 176.412C95.5918 176.659 95.2935 176.853 94.9384 176.992C94.5833 177.128 94.1841 177.196 93.7409 177.196ZM102.617 171.981L101.714 172.236C101.657 172.086 101.573 171.939 101.463 171.797C101.355 171.652 101.207 171.533 101.019 171.439C100.832 171.346 100.592 171.299 100.299 171.299C99.8986 171.299 99.5648 171.391 99.2978 171.576C99.0336 171.758 98.9015 171.989 98.9015 172.27C98.9015 172.52 98.9924 172.718 99.1742 172.863C99.356 173.008 99.6401 173.128 100.026 173.225L100.998 173.463C101.583 173.606 102.019 173.823 102.306 174.115C102.593 174.405 102.737 174.779 102.737 175.236C102.737 175.611 102.629 175.946 102.413 176.242C102.2 176.537 101.901 176.77 101.518 176.941C101.134 177.111 100.688 177.196 100.18 177.196C99.5123 177.196 98.9597 177.052 98.5222 176.762C98.0847 176.472 97.8077 176.049 97.6912 175.492L98.6458 175.253C98.7367 175.606 98.9086 175.87 99.1614 176.046C99.4171 176.222 99.7509 176.31 100.163 176.31C100.632 176.31 101.004 176.211 101.279 176.012C101.558 175.81 101.697 175.569 101.697 175.287C101.697 175.06 101.617 174.87 101.458 174.716C101.299 174.56 101.055 174.444 100.725 174.367L99.6344 174.111C99.035 173.969 98.5946 173.749 98.3134 173.451C98.035 173.15 97.8958 172.773 97.8958 172.321C97.8958 171.952 97.9995 171.625 98.2069 171.341C98.4171 171.057 98.7026 170.834 99.0634 170.672C99.427 170.51 99.839 170.429 100.299 170.429C100.947 170.429 101.455 170.571 101.825 170.856C102.197 171.14 102.461 171.515 102.617 171.981ZM108.887 171.981L107.983 172.236C107.927 172.086 107.843 171.939 107.732 171.797C107.624 171.652 107.476 171.533 107.289 171.439C107.101 171.346 106.861 171.299 106.569 171.299C106.168 171.299 105.834 171.391 105.567 171.576C105.303 171.758 105.171 171.989 105.171 172.27C105.171 172.52 105.262 172.718 105.444 172.863C105.626 173.008 105.91 173.128 106.296 173.225L107.268 173.463C107.853 173.606 108.289 173.823 108.576 174.115C108.863 174.405 109.006 174.779 109.006 175.236C109.006 175.611 108.898 175.946 108.682 176.242C108.469 176.537 108.171 176.77 107.787 176.941C107.404 177.111 106.958 177.196 106.449 177.196C105.782 177.196 105.229 177.052 104.792 176.762C104.354 176.472 104.077 176.049 103.961 175.492L104.915 175.253C105.006 175.606 105.178 175.87 105.431 176.046C105.687 176.222 106.02 176.31 106.432 176.31C106.901 176.31 107.273 176.211 107.549 176.012C107.827 175.81 107.966 175.569 107.966 175.287C107.966 175.06 107.887 174.87 107.728 174.716C107.569 174.56 107.324 174.444 106.995 174.367L105.904 174.111C105.305 173.969 104.864 173.749 104.583 173.451C104.305 173.15 104.165 172.773 104.165 172.321C104.165 171.952 104.269 171.625 104.476 171.341C104.687 171.057 104.972 170.834 105.333 170.672C105.697 170.51 106.108 170.429 106.569 170.429C107.216 170.429 107.725 170.571 108.094 170.856C108.466 171.14 108.731 171.515 108.887 171.981ZM113.179 177.196C112.588 177.196 112.07 177.056 111.624 176.775C111.181 176.493 110.834 176.1 110.584 175.594C110.337 175.088 110.213 174.498 110.213 173.821C110.213 173.14 110.337 172.544 110.584 172.036C110.834 171.527 111.181 171.133 111.624 170.851C112.07 170.57 112.588 170.429 113.179 170.429C113.77 170.429 114.287 170.57 114.73 170.851C115.176 171.133 115.523 171.527 115.77 172.036C116.02 172.544 116.145 173.14 116.145 173.821C116.145 174.498 116.02 175.088 115.77 175.594C115.523 176.1 115.176 176.493 114.73 176.775C114.287 177.056 113.77 177.196 113.179 177.196ZM113.179 176.293C113.628 176.293 113.997 176.178 114.287 175.948C114.577 175.718 114.791 175.415 114.931 175.04C115.07 174.665 115.139 174.259 115.139 173.821C115.139 173.384 115.07 172.976 114.931 172.598C114.791 172.221 114.577 171.915 114.287 171.682C113.997 171.449 113.628 171.333 113.179 171.333C112.73 171.333 112.361 171.449 112.071 171.682C111.781 171.915 111.567 172.221 111.428 172.598C111.289 172.976 111.219 173.384 111.219 173.821C111.219 174.259 111.289 174.665 111.428 175.04C111.567 175.415 111.781 175.718 112.071 175.948C112.361 176.178 112.73 176.293 113.179 176.293ZM118.413 177.128C118.203 177.128 118.023 177.053 117.872 176.902C117.721 176.752 117.646 176.571 117.646 176.361C117.646 176.151 117.721 175.971 117.872 175.82C118.023 175.669 118.203 175.594 118.413 175.594C118.623 175.594 118.804 175.669 118.954 175.82C119.105 175.971 119.18 176.151 119.18 176.361C119.18 176.5 119.145 176.628 119.074 176.745C119.006 176.861 118.913 176.955 118.797 177.026C118.683 177.094 118.555 177.128 118.413 177.128Z" fill="white"/>
</g>
<rect opacity="0.15" x="47" y="8" width="94" height="94" rx="47" fill="white"/>
<path d="M92.7231 80.8467C87.6487 80.8467 82.5743 80.8509 77.4999 80.8457C74.3937 80.8425 72.8549 79.3059 72.8534 76.206C72.8492 68.9048 72.8487 61.6036 72.8539 54.3018C72.856 51.4083 74.358 49.9188 77.2281 49.8916C80.2579 49.8627 79.8404 50.3184 79.9022 47.2101C79.9504 44.8057 79.7268 42.3955 80.1081 39.9963C81.0639 33.9897 86.5552 29.1474 92.644 29.15C99.7374 29.1532 104.867 34.5438 105.571 40.409C105.887 43.0334 105.678 45.6588 105.74 48.2827C105.779 49.891 105.751 49.8916 107.406 49.8952C107.917 49.8963 108.428 49.8879 108.939 49.8999C111.059 49.9492 112.754 51.4983 112.766 53.622C112.81 61.3977 112.813 69.174 112.766 76.9492C112.752 79.3065 111.002 80.8321 108.494 80.8404C103.237 80.8582 97.9803 80.8457 92.7231 80.8462V80.8467ZM92.7388 49.8942C94.7112 49.8942 96.6836 49.8706 98.6554 49.9057C99.4703 49.9204 99.8647 49.68 99.8511 48.7923C99.8134 46.3459 99.8893 43.897 99.8186 41.4518C99.7165 37.9067 96.5212 35.0278 92.7938 35.0325C89.0843 35.0367 85.9078 37.9501 85.8193 41.5062C85.7596 43.9153 85.8329 46.3276 85.7884 48.7373C85.7711 49.6784 86.177 49.9272 87.0412 49.9078C88.9397 49.8659 90.8393 49.8947 92.7383 49.8947L92.7388 49.8942ZM89.3336 62.7584C89.333 63.6251 89.4598 64.5553 90.1647 65.0439C91.3269 65.8494 91.3656 66.9256 91.3059 68.1171C91.2766 68.6984 91.275 69.285 91.3216 69.8648C91.3923 70.7378 91.8752 71.2851 92.7666 71.3611C93.5747 71.4297 94.2613 70.7755 94.3195 69.8669C94.3708 69.0682 94.3765 68.2627 94.3331 67.464C94.2844 66.5716 94.5054 65.9039 95.2496 65.288C96.4437 64.2997 96.6548 62.4515 95.9064 61.0804C95.1396 59.6763 93.5433 58.9703 92.0177 59.361C90.3349 59.792 89.3372 61.0558 89.3336 62.7589V62.7584Z" fill="#FF4F64"/>
<defs>
<linearGradient id="paint0_linear_521_100" x1="84.22" y1="0.0600586" x2="84.22" y2="205.12" gradientUnits="userSpaceOnUse">
<stop stop-color="#FF6678"/>
<stop offset="1" stop-color="#FF334B"/>
</linearGradient>
<linearGradient id="paint1_linear_521_100" x1="84.22" y1="0.0600586" x2="84.22" y2="205.12" gradientUnits="userSpaceOnUse">
<stop stop-color="#FF9B52"/>
<stop offset="1" stop-color="#FF7F21"/>
</linearGradient>
</defs>
</svg>
