<svg width="40" height="40" viewBox="0 0 40 40" fill="none" xmlns="http://www.w3.org/2000/svg">
<rect opacity="0.15" width="40" height="40" rx="20" fill="#1BD08C"/>
<path d="M19.9886 30.9993C17.9349 30.9993 15.8811 31.0014 13.8273 30.9985C12.5906 30.9967 12.0021 30.3857 12.0013 29.1048C11.9996 26.0727 11.9994 23.0405 12.0015 20.0083C12.0024 18.7751 12.5775 18.1894 13.7856 18.1887C16.4283 18.1867 19.0711 18.1815 21.7138 18.1954C22.0763 18.1973 22.2996 18.0842 22.4725 17.7526C22.8154 17.0957 23.2042 16.4646 23.5533 15.8107C24.1799 14.6372 23.979 13.0867 23.1054 12.2263C22.1555 11.2909 20.7979 11.1264 19.6348 11.8203C18.8469 12.2903 18.4872 13.1152 18.0646 13.8845C17.7182 14.5152 17.33 14.7459 16.753 14.658C16.0203 14.5462 15.5293 13.7766 15.8506 13.1056C16.4998 11.7499 17.2237 10.4617 18.5858 9.668C21.0255 8.24663 24.2714 9.16813 25.5992 11.7243C26.5866 13.6249 26.4578 15.482 25.396 17.3096C25.2474 17.5653 24.9026 17.8459 25.0531 18.1095C25.1766 18.3261 25.5859 18.1627 25.8674 18.1856C26.0175 18.1977 26.1693 18.1867 26.3203 18.1883C27.3996 18.1989 27.9936 18.8111 27.9971 19.9343C28.0024 21.6604 27.9988 23.3864 27.9988 25.1122C27.9988 26.4184 27.9998 27.7247 27.9984 29.0308C27.9971 30.3999 27.4226 30.9977 26.1043 30.9987C24.0657 31 22.0269 30.9991 19.9883 30.9991L19.9886 30.9993ZM18.5781 23.5539C18.577 23.8541 18.6576 24.2316 18.9219 24.4256C19.4352 24.8028 19.3886 25.313 19.3799 25.8374C19.3784 25.9304 19.3793 26.0235 19.3799 26.1164C19.3832 26.7868 19.5533 27.0493 19.9886 27.0564C20.4307 27.0637 20.6158 26.7955 20.6195 26.1393C20.621 25.8913 20.6304 25.6425 20.6175 25.3951C20.6003 25.0669 20.68 24.8174 20.9439 24.5848C21.4464 24.1418 21.5412 23.4317 21.2397 22.848C20.9459 22.2793 20.3068 21.9697 19.7197 22.1115C19.06 22.2709 18.6165 22.8104 18.5781 23.5535V23.5539Z" fill="#00E28D"/>
</svg>
