<svg width="169" height="206" viewBox="0 0 169 206" fill="none" xmlns="http://www.w3.org/2000/svg">
<path d="M168.44 14.7301V190.57C168.44 198.61 163.04 205.18 156.44 205.18H12C5.4 205.18 0 198.61 0 190.57V14.7301C0 6.69012 5.4 0.120117 12 0.120117H156.44C163.04 0.120117 168.44 6.69012 168.44 14.7301Z" fill="url(#paint0_linear_521_154)"/>
<mask id="mask0_521_154" style="mask-type:alpha" maskUnits="userSpaceOnUse" x="0" y="0" width="169" height="206">
<path d="M168.44 14.7301V190.57C168.44 198.61 163.04 205.18 156.44 205.18H12C5.4 205.18 0 198.61 0 190.57V14.7301C0 6.69012 5.4 0.120117 12 0.120117H156.44C163.04 0.120117 168.44 6.69012 168.44 14.7301Z" fill="url(#paint1_linear_521_154)"/>
</mask>
<g mask="url(#mask0_521_154)">
<g opacity="0.8">
<g opacity="0.15">
<circle cx="94.2338" cy="55.76" r="93.937" transform="rotate(-10.7881 94.2338 55.76)" fill="white"/>
<circle cx="94.2338" cy="55.76" r="93.937" transform="rotate(-10.7881 94.2338 55.76)" fill="white"/>
</g>
<g opacity="0.3">
<circle cx="94.0749" cy="54.925" r="75.2346" transform="rotate(-10.7881 94.0749 54.925)" fill="white"/>
<circle cx="94.0749" cy="54.925" r="75.2346" transform="rotate(-10.7881 94.0749 54.925)" fill="white"/>
</g>
<g opacity="0.4">
<circle cx="94.0749" cy="54.925" r="59.9327" transform="rotate(-10.7881 94.0749 54.925)" fill="white"/>
<circle cx="94.0749" cy="54.925" r="59.9327" transform="rotate(-10.7881 94.0749 54.925)" fill="white"/>
</g>
</g>
<path d="M45.7642 127.12V112.575H51.5028C52.6061 112.575 53.5459 112.785 54.3224 113.207C55.099 113.623 55.6908 114.203 56.098 114.947C56.5099 115.685 56.7159 116.538 56.7159 117.504C56.7159 118.47 56.5076 119.322 56.0909 120.06C55.6742 120.799 55.0705 121.374 54.2798 121.786C53.4938 122.198 52.5421 122.404 51.4247 122.404H47.767V119.94H50.9276C51.5194 119.94 52.0071 119.838 52.3906 119.634C52.7789 119.426 53.0677 119.14 53.2571 118.775C53.4512 118.406 53.5483 117.982 53.5483 117.504C53.5483 117.021 53.4512 116.599 53.2571 116.239C53.0677 115.875 52.7789 115.593 52.3906 115.394C52.0024 115.191 51.5099 115.089 50.9134 115.089H48.8395V127.12H45.7642ZM66.6523 122.475V116.211H69.6779V127.12H66.7731V125.139H66.6594C66.4132 125.778 66.0037 126.292 65.4308 126.68C64.8626 127.068 64.1689 127.262 63.3498 127.262C62.6206 127.262 61.979 127.096 61.4251 126.765C60.8711 126.434 60.4379 125.962 60.1254 125.352C59.8176 124.741 59.6613 124.009 59.6566 123.157V116.211H62.6822V122.617C62.6869 123.261 62.8597 123.77 63.2006 124.144C63.5415 124.518 63.9985 124.705 64.5714 124.705C64.936 124.705 65.2769 124.622 65.5941 124.457C65.9113 124.286 66.167 124.035 66.3612 123.704C66.56 123.372 66.6571 122.963 66.6523 122.475ZM63.5913 114.805L65.0969 111.573H67.8952L65.729 114.805H63.5913ZM73.1548 127.12V112.575H76.1804V118.043H76.2727C76.4053 117.75 76.5971 117.452 76.848 117.149C77.1037 116.841 77.4351 116.585 77.8423 116.381C78.2543 116.173 78.7656 116.069 79.3764 116.069C80.1719 116.069 80.9058 116.277 81.5781 116.694C82.2505 117.106 82.7879 117.729 83.1903 118.562C83.5928 119.39 83.794 120.43 83.794 121.68C83.794 122.897 83.5975 123.924 83.2045 124.762C82.8163 125.595 82.286 126.228 81.6136 126.658C80.946 127.085 80.1979 127.298 79.3693 127.298C78.7822 127.298 78.2827 127.201 77.8707 127.006C77.4635 126.812 77.1297 126.569 76.8693 126.275C76.6089 125.977 76.41 125.676 76.2727 125.373H76.1378V127.12H73.1548ZM76.1165 121.666C76.1165 122.314 76.2064 122.88 76.3864 123.363C76.5663 123.846 76.8267 124.222 77.1676 124.492C77.5085 124.757 77.9228 124.89 78.4105 124.89C78.9029 124.89 79.3196 124.755 79.6605 124.485C80.0014 124.211 80.2595 123.832 80.4347 123.349C80.6146 122.861 80.7045 122.3 80.7045 121.666C80.7045 121.036 80.617 120.482 80.4418 120.004C80.2666 119.525 80.0085 119.151 79.6676 118.881C79.3267 118.612 78.9077 118.477 78.4105 118.477C77.9181 118.477 77.5014 118.607 77.1605 118.867C76.8243 119.128 76.5663 119.497 76.3864 119.975C76.2064 120.453 76.1165 121.017 76.1165 121.666ZM89.8384 112.575V127.12H86.8129V112.575H89.8384ZM93.2621 127.12V116.211H96.2876V127.12H93.2621ZM94.782 114.805C94.3321 114.805 93.9463 114.656 93.6243 114.357C93.3071 114.054 93.1484 113.692 93.1484 113.271C93.1484 112.854 93.3071 112.497 93.6243 112.198C93.9463 111.895 94.3321 111.744 94.782 111.744C95.2318 111.744 95.6153 111.895 95.9325 112.198C96.2545 112.497 96.4155 112.854 96.4155 113.271C96.4155 113.692 96.2545 114.054 95.9325 114.357C95.6153 114.656 95.2318 114.805 94.782 114.805ZM104.64 127.333C103.523 127.333 102.562 127.096 101.757 126.623C100.957 126.145 100.341 125.482 99.9102 124.634C99.484 123.787 99.271 122.811 99.271 121.708C99.271 120.591 99.4864 119.611 99.9173 118.768C100.353 117.92 100.971 117.26 101.771 116.786C102.571 116.308 103.523 116.069 104.626 116.069C105.578 116.069 106.411 116.242 107.126 116.587C107.841 116.933 108.407 117.418 108.824 118.043C109.24 118.668 109.47 119.402 109.512 120.245H106.657C106.577 119.701 106.364 119.263 106.018 118.931C105.677 118.595 105.23 118.427 104.676 118.427C104.207 118.427 103.797 118.555 103.447 118.81C103.101 119.061 102.832 119.428 102.637 119.911C102.443 120.394 102.346 120.979 102.346 121.666C102.346 122.362 102.441 122.953 102.63 123.441C102.824 123.929 103.097 124.301 103.447 124.556C103.797 124.812 104.207 124.94 104.676 124.94C105.021 124.94 105.332 124.869 105.606 124.727C105.886 124.585 106.115 124.379 106.295 124.109C106.48 123.834 106.6 123.505 106.657 123.122H109.512C109.465 123.955 109.238 124.689 108.831 125.323C108.428 125.953 107.872 126.445 107.162 126.801C106.451 127.156 105.611 127.333 104.64 127.333ZM115.56 127.326C114.864 127.326 114.244 127.205 113.7 126.964C113.155 126.718 112.724 126.355 112.407 125.877C112.094 125.394 111.938 124.793 111.938 124.073C111.938 123.467 112.049 122.958 112.272 122.546C112.495 122.134 112.798 121.803 113.181 121.552C113.565 121.301 114 121.112 114.488 120.984C114.98 120.856 115.496 120.766 116.036 120.714C116.671 120.648 117.182 120.586 117.57 120.529C117.959 120.468 118.24 120.378 118.415 120.259C118.591 120.141 118.678 119.966 118.678 119.734V119.691C118.678 119.241 118.536 118.893 118.252 118.647C117.973 118.401 117.575 118.278 117.059 118.278C116.514 118.278 116.081 118.399 115.759 118.64C115.437 118.877 115.224 119.175 115.12 119.535L112.322 119.308C112.464 118.645 112.743 118.072 113.16 117.589C113.576 117.101 114.114 116.727 114.772 116.467C115.435 116.202 116.202 116.069 117.073 116.069C117.679 116.069 118.259 116.14 118.813 116.282C119.372 116.424 119.867 116.644 120.298 116.943C120.733 117.241 121.076 117.624 121.327 118.093C121.578 118.557 121.704 119.113 121.704 119.762V127.12H118.835V125.607H118.749C118.574 125.948 118.34 126.249 118.046 126.509C117.753 126.765 117.4 126.966 116.988 127.113C116.576 127.255 116.1 127.326 115.56 127.326ZM116.427 125.238C116.872 125.238 117.265 125.15 117.606 124.975C117.947 124.795 118.214 124.554 118.408 124.251C118.603 123.948 118.7 123.604 118.7 123.221V122.063C118.605 122.125 118.475 122.182 118.309 122.234C118.148 122.281 117.966 122.326 117.762 122.369C117.558 122.407 117.355 122.442 117.151 122.475C116.948 122.504 116.763 122.53 116.597 122.553C116.242 122.605 115.932 122.688 115.667 122.802C115.402 122.916 115.196 123.069 115.049 123.264C114.902 123.453 114.829 123.69 114.829 123.974C114.829 124.386 114.978 124.701 115.276 124.918C115.579 125.131 115.963 125.238 116.427 125.238Z" fill="white"/>
<path d="M19.7599 147.12V138.393H25.027V139.33H20.8168V142.279H24.7543V143.217H20.8168V146.183H25.0952V147.12H19.7599ZM31.4318 142.041L30.5284 142.296C30.4716 142.146 30.3878 141.999 30.277 141.857C30.169 141.712 30.0213 141.593 29.8338 141.499C29.6463 141.406 29.4062 141.359 29.1136 141.359C28.7131 141.359 28.3793 141.451 28.1122 141.636C27.848 141.818 27.7159 142.049 27.7159 142.33C27.7159 142.58 27.8068 142.778 27.9886 142.923C28.1705 143.068 28.4545 143.188 28.8409 143.285L29.8125 143.524C30.3977 143.666 30.8338 143.883 31.1207 144.176C31.4077 144.465 31.5511 144.839 31.5511 145.296C31.5511 145.671 31.4432 146.006 31.2273 146.302C31.0142 146.597 30.7159 146.83 30.3324 147.001C29.9489 147.171 29.5028 147.256 28.9943 147.256C28.3267 147.256 27.7741 147.112 27.3366 146.822C26.8991 146.532 26.6222 146.109 26.5057 145.552L27.4602 145.313C27.5511 145.666 27.723 145.93 27.9759 146.106C28.2315 146.282 28.5653 146.37 28.9773 146.37C29.446 146.37 29.8182 146.271 30.0938 146.072C30.3722 145.87 30.5114 145.629 30.5114 145.347C30.5114 145.12 30.4318 144.93 30.2727 144.776C30.1136 144.62 29.8693 144.504 29.5398 144.427L28.4489 144.171C27.8494 144.029 27.4091 143.809 27.1278 143.511C26.8494 143.21 26.7102 142.833 26.7102 142.381C26.7102 142.012 26.8139 141.685 27.0213 141.401C27.2315 141.117 27.517 140.894 27.8778 140.732C28.2415 140.57 28.6534 140.489 29.1136 140.489C29.7614 140.489 30.2699 140.631 30.6392 140.916C31.0114 141.2 31.2756 141.575 31.4318 142.041ZM35.9116 140.575V141.427H32.5195V140.575H35.9116ZM33.5082 139.006H34.5138V145.245C34.5138 145.529 34.555 145.742 34.6374 145.884C34.7227 146.024 34.8306 146.117 34.9613 146.166C35.0948 146.211 35.2354 146.234 35.3832 146.234C35.494 146.234 35.5849 146.228 35.6559 146.217C35.7269 146.203 35.7837 146.191 35.8263 146.183L36.0309 147.086C35.9627 147.112 35.8675 147.137 35.7454 147.163C35.6232 147.191 35.4684 147.205 35.2809 147.205C34.9968 147.205 34.7184 147.144 34.4457 147.022C34.1758 146.9 33.9513 146.714 33.7724 146.464C33.5962 146.214 33.5082 145.899 33.5082 145.518V139.006ZM40.0984 147.256C39.4677 147.256 38.9237 147.117 38.4663 146.839C38.0117 146.558 37.6609 146.166 37.4137 145.663C37.1694 145.157 37.0472 144.569 37.0472 143.899C37.0472 143.228 37.1694 142.637 37.4137 142.126C37.6609 141.612 38.0046 141.211 38.445 140.924C38.8881 140.634 39.4052 140.489 39.9961 140.489C40.337 140.489 40.6737 140.546 41.006 140.66C41.3384 140.774 41.641 140.958 41.9137 141.214C42.1864 141.467 42.4038 141.802 42.5657 142.22C42.7276 142.637 42.8086 143.151 42.8086 143.762V144.188H37.7631V143.319H41.7859C41.7859 142.95 41.712 142.62 41.5643 142.33C41.4194 142.041 41.212 141.812 40.9421 141.644C40.6751 141.477 40.3597 141.393 39.9961 141.393C39.5955 141.393 39.2489 141.492 38.9563 141.691C38.6665 141.887 38.4435 142.143 38.2873 142.458C38.131 142.774 38.0529 143.112 38.0529 143.472V144.052C38.0529 144.546 38.1381 144.965 38.3086 145.309C38.4819 145.65 38.7219 145.91 39.0288 146.089C39.3356 146.265 39.6921 146.353 40.0984 146.353C40.3626 146.353 40.6012 146.316 40.8143 146.242C41.0302 146.166 41.2163 146.052 41.3725 145.901C41.5288 145.748 41.6495 145.558 41.7347 145.33L42.7063 145.603C42.604 145.933 42.4322 146.222 42.1907 146.472C41.9492 146.72 41.6509 146.913 41.2958 147.052C40.9407 147.188 40.5415 147.256 40.0984 147.256ZM47.7134 147.12V140.575H48.7191V147.12H47.7134ZM47.7646 139.688L48.8043 137.711H49.9805L48.6509 139.688H47.7646ZM53.2202 147.256C52.6065 147.256 52.0781 147.112 51.6349 146.822C51.1918 146.532 50.8509 146.133 50.6122 145.624C50.3736 145.116 50.2543 144.535 50.2543 143.881C50.2543 143.217 50.3764 142.63 50.6207 142.122C50.8679 141.61 51.2116 141.211 51.652 140.924C52.0952 140.634 52.6122 140.489 53.2031 140.489C53.6634 140.489 54.0781 140.575 54.4474 140.745C54.8168 140.916 55.1193 141.154 55.3551 141.461C55.5909 141.768 55.7372 142.126 55.794 142.535H54.7884C54.7116 142.237 54.5412 141.972 54.277 141.742C54.0156 141.509 53.6634 141.393 53.2202 141.393C52.8281 141.393 52.4844 141.495 52.1889 141.7C51.8963 141.901 51.6676 142.187 51.5028 142.556C51.3409 142.923 51.2599 143.353 51.2599 143.847C51.2599 144.353 51.3395 144.793 51.4986 145.168C51.6605 145.543 51.8878 145.835 52.1804 146.042C52.4759 146.249 52.8224 146.353 53.2202 146.353C53.4815 146.353 53.7188 146.308 53.9318 146.217C54.1449 146.126 54.3253 145.995 54.473 145.825C54.6207 145.654 54.7259 145.45 54.7884 145.211H55.794C55.7372 145.597 55.5966 145.945 55.3722 146.255C55.1506 146.562 54.8565 146.806 54.4901 146.988C54.1264 147.167 53.7031 147.256 53.2202 147.256ZM59.9233 147.256C59.3324 147.256 58.8139 147.116 58.3679 146.835C57.9247 146.553 57.5781 146.16 57.3281 145.654C57.081 145.149 56.9574 144.558 56.9574 143.881C56.9574 143.2 57.081 142.604 57.3281 142.096C57.5781 141.587 57.9247 141.193 58.3679 140.911C58.8139 140.63 59.3324 140.489 59.9233 140.489C60.5142 140.489 61.0313 140.63 61.4744 140.911C61.9205 141.193 62.267 141.587 62.5142 142.096C62.7642 142.604 62.8892 143.2 62.8892 143.881C62.8892 144.558 62.7642 145.149 62.5142 145.654C62.267 146.16 61.9205 146.553 61.4744 146.835C61.0313 147.116 60.5142 147.256 59.9233 147.256ZM59.9233 146.353C60.3722 146.353 60.7415 146.238 61.0312 146.008C61.321 145.778 61.5355 145.475 61.6747 145.1C61.8139 144.725 61.8835 144.319 61.8835 143.881C61.8835 143.444 61.8139 143.036 61.6747 142.658C61.5355 142.281 61.321 141.975 61.0312 141.742C60.7415 141.509 60.3722 141.393 59.9233 141.393C59.4744 141.393 59.1051 141.509 58.8153 141.742C58.5256 141.975 58.3111 142.281 58.1719 142.658C58.0327 143.036 57.9631 143.444 57.9631 143.881C57.9631 144.319 58.0327 144.725 58.1719 145.1C58.3111 145.475 58.5256 145.778 58.8153 146.008C59.1051 146.238 59.4744 146.353 59.9233 146.353ZM65.43 143.183V147.12H64.4244V140.575H65.396V141.597H65.4812C65.6346 141.265 65.8675 140.998 66.18 140.796C66.4925 140.592 66.896 140.489 67.3903 140.489C67.8335 140.489 68.2212 140.58 68.5536 140.762C68.886 140.941 69.1445 141.214 69.3292 141.58C69.5138 141.944 69.6062 142.404 69.6062 142.961V147.12H68.6005V143.029C68.6005 142.515 68.467 142.114 68.1999 141.828C67.9329 141.538 67.5664 141.393 67.1005 141.393C66.7795 141.393 66.4925 141.462 66.2397 141.602C65.9897 141.741 65.7923 141.944 65.6474 142.211C65.5025 142.478 65.43 142.802 65.43 143.183ZM74.1882 147.256C73.5575 147.256 73.0135 147.117 72.5561 146.839C72.1016 146.558 71.7507 146.166 71.5036 145.663C71.2592 145.157 71.1371 144.569 71.1371 143.899C71.1371 143.228 71.2592 142.637 71.5036 142.126C71.7507 141.612 72.0945 141.211 72.5348 140.924C72.978 140.634 73.495 140.489 74.0859 140.489C74.4268 140.489 74.7635 140.546 75.0959 140.66C75.4283 140.774 75.7308 140.958 76.0036 141.214C76.2763 141.467 76.4936 141.802 76.6555 142.22C76.8175 142.637 76.8984 143.151 76.8984 143.762V144.188H71.853V143.319H75.8757C75.8757 142.95 75.8018 142.62 75.6541 142.33C75.5092 142.041 75.3018 141.812 75.032 141.644C74.7649 141.477 74.4496 141.393 74.0859 141.393C73.6854 141.393 73.3388 141.492 73.0462 141.691C72.7564 141.887 72.5334 142.143 72.3771 142.458C72.2209 142.774 72.1428 143.112 72.1428 143.472V144.052C72.1428 144.546 72.228 144.965 72.3984 145.309C72.5717 145.65 72.8118 145.91 73.1186 146.089C73.4254 146.265 73.782 146.353 74.1882 146.353C74.4524 146.353 74.6911 146.316 74.9041 146.242C75.12 146.166 75.3061 146.052 75.4624 145.901C75.6186 145.748 75.7393 145.558 75.8246 145.33L76.7962 145.603C76.6939 145.933 76.522 146.222 76.2805 146.472C76.0391 146.72 75.7408 146.913 75.3857 147.052C75.0305 147.188 74.6314 147.256 74.1882 147.256ZM81.8033 147.12V140.575H82.8089V147.12H81.8033ZM82.3146 139.484C82.1186 139.484 81.9496 139.417 81.8075 139.283C81.6683 139.15 81.5987 138.989 81.5987 138.802C81.5987 138.614 81.6683 138.454 81.8075 138.32C81.9496 138.187 82.1186 138.12 82.3146 138.12C82.5107 138.12 82.6783 138.187 82.8175 138.32C82.9595 138.454 83.0305 138.614 83.0305 138.802C83.0305 138.989 82.9595 139.15 82.8175 139.283C82.6783 139.417 82.5107 139.484 82.3146 139.484ZM85.6566 143.183V147.12H84.6509V140.575H85.6225V141.597H85.7077C85.8612 141.265 86.0941 140.998 86.4066 140.796C86.7191 140.592 87.1225 140.489 87.6168 140.489C88.06 140.489 88.4478 140.58 88.7802 140.762C89.1126 140.941 89.3711 141.214 89.5558 141.58C89.7404 141.944 89.8327 142.404 89.8327 142.961V147.12H88.8271V143.029C88.8271 142.515 88.6935 142.114 88.4265 141.828C88.1594 141.538 87.793 141.393 87.3271 141.393C87.006 141.393 86.7191 141.462 86.4663 141.602C86.2163 141.741 86.0188 141.944 85.8739 142.211C85.729 142.478 85.6566 142.802 85.6566 143.183ZM94.142 147.256C93.5966 147.256 93.1151 147.119 92.6974 146.843C92.2798 146.565 91.9531 146.173 91.7173 145.667C91.4815 145.158 91.3636 144.558 91.3636 143.864C91.3636 143.177 91.4815 142.58 91.7173 142.075C91.9531 141.569 92.2813 141.178 92.7017 140.903C93.1222 140.627 93.608 140.489 94.1591 140.489C94.5852 140.489 94.9219 140.56 95.169 140.703C95.419 140.842 95.6094 141.001 95.7401 141.18C95.8736 141.356 95.9773 141.501 96.0511 141.614H96.1364V138.393H97.142V147.12H96.1705V146.114H96.0511C95.9773 146.234 95.8722 146.384 95.7358 146.566C95.5994 146.745 95.4048 146.906 95.152 147.048C94.8991 147.187 94.5625 147.256 94.142 147.256ZM94.2784 146.353C94.6818 146.353 95.0227 146.248 95.3011 146.038C95.5795 145.825 95.7912 145.531 95.9361 145.156C96.081 144.778 96.1534 144.342 96.1534 143.847C96.1534 143.359 96.0824 142.931 95.9403 142.565C95.7983 142.195 95.5881 141.908 95.3097 141.704C95.0313 141.497 94.6875 141.393 94.2784 141.393C93.8523 141.393 93.4972 141.502 93.2131 141.721C92.9318 141.937 92.7202 142.231 92.5781 142.603C92.4389 142.972 92.3693 143.387 92.3693 143.847C92.3693 144.313 92.4403 144.737 92.5824 145.117C92.7273 145.495 92.9403 145.796 93.2216 146.021C93.5057 146.242 93.858 146.353 94.2784 146.353ZM99.1236 147.12V140.575H100.129V147.12H99.1236ZM99.6349 139.484C99.4389 139.484 99.2699 139.417 99.1278 139.283C98.9886 139.15 98.919 138.989 98.919 138.802C98.919 138.614 98.9886 138.454 99.1278 138.32C99.2699 138.187 99.4389 138.12 99.6349 138.12C99.831 138.12 99.9986 138.187 100.138 138.32C100.28 138.454 100.351 138.614 100.351 138.802C100.351 138.989 100.28 139.15 100.138 139.283C99.9986 139.417 99.831 139.484 99.6349 139.484ZM104.63 147.256C104.017 147.256 103.488 147.112 103.045 146.822C102.602 146.532 102.261 146.133 102.022 145.624C101.784 145.116 101.664 144.535 101.664 143.881C101.664 143.217 101.787 142.63 102.031 142.122C102.278 141.61 102.622 141.211 103.062 140.924C103.505 140.634 104.022 140.489 104.613 140.489C105.074 140.489 105.488 140.575 105.858 140.745C106.227 140.916 106.529 141.154 106.765 141.461C107.001 141.768 107.147 142.126 107.204 142.535H106.199C106.122 142.237 105.951 141.972 105.687 141.742C105.426 141.509 105.074 141.393 104.63 141.393C104.238 141.393 103.895 141.495 103.599 141.7C103.306 141.901 103.078 142.187 102.913 142.556C102.751 142.923 102.67 143.353 102.67 143.847C102.67 144.353 102.75 144.793 102.909 145.168C103.071 145.543 103.298 145.835 103.591 146.042C103.886 146.249 104.233 146.353 104.63 146.353C104.892 146.353 105.129 146.308 105.342 146.217C105.555 146.126 105.735 145.995 105.883 145.825C106.031 145.654 106.136 145.45 106.199 145.211H107.204C107.147 145.597 107.007 145.945 106.782 146.255C106.561 146.562 106.267 146.806 105.9 146.988C105.537 147.167 105.113 147.256 104.63 147.256ZM110.6 147.274C110.186 147.274 109.809 147.195 109.471 147.039C109.133 146.88 108.865 146.651 108.666 146.353C108.467 146.052 108.368 145.688 108.368 145.262C108.368 144.887 108.441 144.583 108.589 144.35C108.737 144.114 108.934 143.93 109.181 143.796C109.429 143.663 109.701 143.563 110 143.498C110.301 143.43 110.603 143.376 110.907 143.336C111.305 143.285 111.627 143.247 111.875 143.221C112.125 143.193 112.306 143.146 112.42 143.08C112.537 143.015 112.595 142.901 112.595 142.739V142.705C112.595 142.285 112.48 141.958 112.25 141.725C112.022 141.492 111.677 141.376 111.214 141.376C110.734 141.376 110.358 141.481 110.085 141.691C109.812 141.901 109.62 142.126 109.51 142.364L108.555 142.024C108.725 141.626 108.953 141.316 109.237 141.095C109.524 140.87 109.836 140.714 110.174 140.626C110.515 140.535 110.85 140.489 111.18 140.489C111.39 140.489 111.632 140.515 111.904 140.566C112.18 140.614 112.446 140.715 112.701 140.869C112.96 141.022 113.174 141.254 113.345 141.563C113.515 141.873 113.6 142.288 113.6 142.808V147.12H112.595V146.234H112.544C112.475 146.376 112.362 146.528 112.203 146.69C112.044 146.852 111.832 146.989 111.568 147.103C111.304 147.217 110.981 147.274 110.6 147.274ZM110.754 146.37C111.152 146.37 111.487 146.292 111.76 146.136C112.035 145.979 112.243 145.778 112.382 145.531C112.524 145.283 112.595 145.024 112.595 144.751V143.83C112.552 143.881 112.458 143.928 112.314 143.971C112.172 144.011 112.007 144.046 111.819 144.078C111.635 144.106 111.454 144.131 111.278 144.154C111.105 144.174 110.964 144.191 110.856 144.205C110.595 144.239 110.35 144.295 110.123 144.372C109.899 144.445 109.717 144.558 109.578 144.708C109.441 144.856 109.373 145.058 109.373 145.313C109.373 145.663 109.502 145.927 109.761 146.106C110.022 146.282 110.353 146.37 110.754 146.37ZM123.277 149.575V146.114H123.192C123.118 146.234 123.013 146.384 122.876 146.566C122.74 146.745 122.545 146.906 122.293 147.048C122.04 147.187 121.703 147.256 121.283 147.256C120.737 147.256 120.256 147.119 119.838 146.843C119.42 146.565 119.094 146.173 118.858 145.667C118.622 145.158 118.504 144.558 118.504 143.864C118.504 143.177 118.622 142.58 118.858 142.075C119.094 141.569 119.422 141.178 119.842 140.903C120.263 140.627 120.749 140.489 121.3 140.489C121.726 140.489 122.063 140.56 122.31 140.703C122.56 140.842 122.75 141.001 122.881 141.18C123.014 141.356 123.118 141.501 123.192 141.614H123.311V140.575H124.283V149.575H123.277ZM121.419 146.353C121.822 146.353 122.163 146.248 122.442 146.038C122.72 145.825 122.932 145.531 123.077 145.156C123.222 144.778 123.294 144.342 123.294 143.847C123.294 143.359 123.223 142.931 123.081 142.565C122.939 142.195 122.729 141.908 122.45 141.704C122.172 141.497 121.828 141.393 121.419 141.393C120.993 141.393 120.638 141.502 120.354 141.721C120.072 141.937 119.861 142.231 119.719 142.603C119.58 142.972 119.51 143.387 119.51 143.847C119.51 144.313 119.581 144.737 119.723 145.117C119.868 145.495 120.081 145.796 120.362 146.021C120.646 146.242 120.999 146.353 121.419 146.353ZM130.249 144.444V140.575H131.254V147.12H130.249V146.012H130.18C130.027 146.345 129.788 146.627 129.464 146.86C129.141 147.09 128.732 147.205 128.237 147.205C127.828 147.205 127.464 147.116 127.146 146.937C126.828 146.755 126.578 146.482 126.396 146.119C126.214 145.752 126.124 145.291 126.124 144.734V140.575H127.129V144.666C127.129 145.143 127.263 145.524 127.53 145.808C127.8 146.092 128.143 146.234 128.561 146.234C128.811 146.234 129.065 146.17 129.324 146.042C129.585 145.914 129.804 145.718 129.98 145.454C130.159 145.19 130.249 144.853 130.249 144.444ZM135.841 147.256C135.21 147.256 134.666 147.117 134.208 146.839C133.754 146.558 133.403 146.166 133.156 145.663C132.912 145.157 132.789 144.569 132.789 143.899C132.789 143.228 132.912 142.637 133.156 142.126C133.403 141.612 133.747 141.211 134.187 140.924C134.63 140.634 135.147 140.489 135.738 140.489C136.079 140.489 136.416 140.546 136.748 140.66C137.081 140.774 137.383 140.958 137.656 141.214C137.929 141.467 138.146 141.802 138.308 142.22C138.47 142.637 138.551 143.151 138.551 143.762V144.188H133.505V143.319H137.528C137.528 142.95 137.454 142.62 137.306 142.33C137.162 142.041 136.954 141.812 136.684 141.644C136.417 141.477 136.102 141.393 135.738 141.393C135.338 141.393 134.991 141.492 134.699 141.691C134.409 141.887 134.186 142.143 134.029 142.458C133.873 142.774 133.795 143.112 133.795 143.472V144.052C133.795 144.546 133.88 144.965 134.051 145.309C134.224 145.65 134.464 145.91 134.771 146.089C135.078 146.265 135.434 146.353 135.841 146.353C136.105 146.353 136.343 146.316 136.556 146.242C136.772 146.166 136.958 146.052 137.115 145.901C137.271 145.748 137.392 145.558 137.477 145.33L138.449 145.603C138.346 145.933 138.174 146.222 137.933 146.472C137.691 146.72 137.393 146.913 137.038 147.052C136.683 147.188 136.284 147.256 135.841 147.256ZM145.382 147.274C144.967 147.274 144.591 147.195 144.252 147.039C143.914 146.88 143.646 146.651 143.447 146.353C143.248 146.052 143.149 145.688 143.149 145.262C143.149 144.887 143.223 144.583 143.37 144.35C143.518 144.114 143.716 143.93 143.963 143.796C144.21 143.663 144.483 143.563 144.781 143.498C145.082 143.43 145.385 143.376 145.689 143.336C146.086 143.285 146.409 143.247 146.656 143.221C146.906 143.193 147.088 143.146 147.201 143.08C147.318 143.015 147.376 142.901 147.376 142.739V142.705C147.376 142.285 147.261 141.958 147.031 141.725C146.804 141.492 146.458 141.376 145.995 141.376C145.515 141.376 145.139 141.481 144.866 141.691C144.593 141.901 144.402 142.126 144.291 142.364L143.336 142.024C143.507 141.626 143.734 141.316 144.018 141.095C144.305 140.87 144.618 140.714 144.956 140.626C145.297 140.535 145.632 140.489 145.961 140.489C146.172 140.489 146.413 140.515 146.686 140.566C146.961 140.614 147.227 140.715 147.483 140.869C147.741 141.022 147.956 141.254 148.126 141.563C148.297 141.873 148.382 142.288 148.382 142.808V147.12H147.376V146.234H147.325C147.257 146.376 147.143 146.528 146.984 146.69C146.825 146.852 146.613 146.989 146.349 147.103C146.085 147.217 145.762 147.274 145.382 147.274ZM145.535 146.37C145.933 146.37 146.268 146.292 146.541 146.136C146.816 145.979 147.024 145.778 147.163 145.531C147.305 145.283 147.376 145.024 147.376 144.751V143.83C147.333 143.881 147.24 143.928 147.095 143.971C146.953 144.011 146.788 144.046 146.6 144.078C146.416 144.106 146.235 144.131 146.059 144.154C145.886 144.174 145.745 144.191 145.637 144.205C145.376 144.239 145.132 144.295 144.904 144.372C144.68 144.445 144.498 144.558 144.359 144.708C144.223 144.856 144.154 145.058 144.154 145.313C144.154 145.663 144.284 145.927 144.542 146.106C144.804 146.282 145.135 146.37 145.535 146.37ZM41.3091 162.12V155.575H42.2807V156.563H42.3489C42.4682 156.239 42.6841 155.977 42.9966 155.775C43.3091 155.573 43.6614 155.472 44.0534 155.472C44.1273 155.472 44.2196 155.474 44.3304 155.477C44.4412 155.479 44.525 155.484 44.5819 155.489V156.512C44.5478 156.504 44.4696 156.491 44.3475 156.474C44.2282 156.454 44.1017 156.444 43.9682 156.444C43.65 156.444 43.3659 156.511 43.1159 156.644C42.8688 156.775 42.6728 156.957 42.5279 157.19C42.3858 157.42 42.3148 157.683 42.3148 157.978V162.12H41.3091ZM48.2338 162.256C47.6429 162.256 47.1245 162.116 46.6784 161.835C46.2353 161.553 45.8887 161.16 45.6387 160.654C45.3915 160.149 45.2679 159.558 45.2679 158.881C45.2679 158.2 45.3915 157.604 45.6387 157.096C45.8887 156.587 46.2353 156.193 46.6784 155.911C47.1245 155.63 47.6429 155.489 48.2338 155.489C48.8248 155.489 49.3418 155.63 49.785 155.911C50.231 156.193 50.5776 156.587 50.8248 157.096C51.0748 157.604 51.1998 158.2 51.1998 158.881C51.1998 159.558 51.0748 160.149 50.8248 160.654C50.5776 161.16 50.231 161.553 49.785 161.835C49.3418 162.116 48.8248 162.256 48.2338 162.256ZM48.2338 161.353C48.6827 161.353 49.052 161.238 49.3418 161.008C49.6316 160.778 49.8461 160.475 49.9853 160.1C50.1245 159.725 50.1941 159.319 50.1941 158.881C50.1941 158.444 50.1245 158.036 49.9853 157.658C49.8461 157.281 49.6316 156.975 49.3418 156.742C49.052 156.509 48.6827 156.393 48.2338 156.393C47.785 156.393 47.4157 156.509 47.1259 156.742C46.8361 156.975 46.6216 157.281 46.4824 157.658C46.3432 158.036 46.2736 158.444 46.2736 158.881C46.2736 159.319 46.3432 159.725 46.4824 160.1C46.6216 160.475 46.8361 160.778 47.1259 161.008C47.4157 161.238 47.785 161.353 48.2338 161.353ZM55.5815 155.575V156.427H52.1895V155.575H55.5815ZM53.1781 154.006H54.1838V160.245C54.1838 160.529 54.225 160.742 54.3074 160.884C54.3926 161.024 54.5005 161.117 54.6312 161.166C54.7647 161.211 54.9054 161.234 55.0531 161.234C55.1639 161.234 55.2548 161.228 55.3258 161.217C55.3968 161.203 55.4537 161.191 55.4963 161.183L55.7008 162.086C55.6326 162.112 55.5375 162.137 55.4153 162.163C55.2931 162.191 55.1383 162.205 54.9508 162.205C54.6667 162.205 54.3883 162.144 54.1156 162.022C53.8457 161.9 53.6213 161.714 53.4423 161.464C53.2662 161.214 53.1781 160.899 53.1781 160.518V154.006ZM59.0204 162.274C58.6056 162.274 58.2292 162.195 57.8912 162.039C57.5531 161.88 57.2846 161.651 57.0858 161.353C56.8869 161.052 56.7875 160.688 56.7875 160.262C56.7875 159.887 56.8613 159.583 57.0091 159.35C57.1568 159.114 57.3542 158.93 57.6014 158.796C57.8485 158.663 58.1213 158.563 58.4196 158.498C58.7207 158.43 59.0233 158.376 59.3272 158.336C59.725 158.285 60.0474 158.247 60.2946 158.221C60.5446 158.193 60.7264 158.146 60.84 158.08C60.9565 158.015 61.0147 157.901 61.0147 157.739V157.705C61.0147 157.285 60.8997 156.958 60.6696 156.725C60.4423 156.492 60.0971 156.376 59.6341 156.376C59.1539 156.376 58.7775 156.481 58.5048 156.691C58.2321 156.901 58.0403 157.126 57.9295 157.364L56.975 157.024C57.1454 156.626 57.3727 156.316 57.6568 156.095C57.9437 155.87 58.2562 155.714 58.5943 155.626C58.9352 155.535 59.2704 155.489 59.6 155.489C59.8102 155.489 60.0517 155.515 60.3244 155.566C60.6 155.614 60.8656 155.715 61.1213 155.869C61.3798 156.022 61.5943 156.254 61.7647 156.563C61.9352 156.873 62.0204 157.288 62.0204 157.808V162.12H61.0147V161.234H60.9636C60.8954 161.376 60.7818 161.528 60.6227 161.69C60.4636 161.852 60.252 161.989 59.9877 162.103C59.7235 162.217 59.4011 162.274 59.0204 162.274ZM59.1738 161.37C59.5716 161.37 59.9068 161.292 60.1795 161.136C60.4551 160.979 60.6625 160.778 60.8017 160.531C60.9437 160.283 61.0147 160.024 61.0147 159.751V158.83C60.9721 158.881 60.8784 158.928 60.7335 158.971C60.5914 159.011 60.4267 159.046 60.2392 159.078C60.0545 159.106 59.8741 159.131 59.698 159.154C59.5247 159.174 59.3841 159.191 59.2761 159.205C59.0147 159.239 58.7704 159.295 58.5431 159.372C58.3187 159.445 58.1369 159.558 57.9977 159.708C57.8613 159.856 57.7931 160.058 57.7931 160.313C57.7931 160.663 57.9224 160.927 58.1809 161.106C58.4423 161.282 58.7733 161.37 59.1738 161.37ZM68.2367 158.183V162.12H67.231V155.575H68.2026V156.597H68.2878C68.4412 156.265 68.6742 155.998 68.9867 155.796C69.2992 155.592 69.7026 155.489 70.1969 155.489C70.6401 155.489 71.0279 155.58 71.3603 155.762C71.6926 155.941 71.9512 156.214 72.1358 156.58C72.3205 156.944 72.4128 157.404 72.4128 157.961V162.12H71.4071V158.029C71.4071 157.515 71.2736 157.114 71.0066 156.828C70.7395 156.538 70.373 156.393 69.9071 156.393C69.5861 156.393 69.2992 156.462 69.0463 156.602C68.7963 156.741 68.5989 156.944 68.454 157.211C68.3091 157.478 68.2367 157.802 68.2367 158.183ZM76.1767 162.274C75.7619 162.274 75.3855 162.195 75.0474 162.039C74.7093 161.88 74.4409 161.651 74.242 161.353C74.0431 161.052 73.9437 160.688 73.9437 160.262C73.9437 159.887 74.0176 159.583 74.1653 159.35C74.313 159.114 74.5105 158.93 74.7576 158.796C75.0048 158.663 75.2775 158.563 75.5758 158.498C75.877 158.43 76.1795 158.376 76.4835 158.336C76.8812 158.285 77.2037 158.247 77.4508 158.221C77.7008 158.193 77.8826 158.146 77.9963 158.08C78.1127 158.015 78.171 157.901 78.171 157.739V157.705C78.171 157.285 78.0559 156.958 77.8258 156.725C77.5985 156.492 77.2534 156.376 76.7903 156.376C76.3102 156.376 75.9338 156.481 75.661 156.691C75.3883 156.901 75.1966 157.126 75.0858 157.364L74.1312 157.024C74.3017 156.626 74.5289 156.316 74.813 156.095C75.1 155.87 75.4125 155.714 75.7505 155.626C76.0914 155.535 76.4267 155.489 76.7562 155.489C76.9664 155.489 77.2079 155.515 77.4806 155.566C77.7562 155.614 78.0218 155.715 78.2775 155.869C78.536 156.022 78.7505 156.254 78.921 156.563C79.0914 156.873 79.1767 157.288 79.1767 157.808V162.12H78.171V161.234H78.1199C78.0517 161.376 77.938 161.528 77.7789 161.69C77.6199 161.852 77.4082 161.989 77.144 162.103C76.8798 162.217 76.5574 162.274 76.1767 162.274ZM76.3301 161.37C76.7278 161.37 77.063 161.292 77.3358 161.136C77.6113 160.979 77.8187 160.778 77.9579 160.531C78.1 160.283 78.171 160.024 78.171 159.751V158.83C78.1284 158.881 78.0346 158.928 77.8897 158.971C77.7477 159.011 77.5829 159.046 77.3954 159.078C77.2108 159.106 77.0304 159.131 76.8542 159.154C76.6809 159.174 76.5403 159.191 76.4324 159.205C76.171 159.239 75.9267 159.295 75.6994 159.372C75.475 159.445 75.2931 159.558 75.1539 159.708C75.0176 159.856 74.9494 160.058 74.9494 160.313C74.9494 160.663 75.0787 160.927 75.3372 161.106C75.5985 161.282 75.9295 161.37 76.3301 161.37ZM75.5119 154.791L74.7278 154.756C74.7278 154.322 74.8514 153.967 75.0985 153.691C75.3485 153.413 75.6568 153.274 76.0233 153.274C76.1852 153.274 76.3287 153.302 76.4537 153.359C76.5787 153.413 76.698 153.475 76.8116 153.546C76.9252 153.617 77.0417 153.681 77.161 153.738C77.2832 153.792 77.421 153.819 77.5744 153.819C77.7363 153.819 77.8727 153.756 77.9835 153.631C78.0971 153.504 78.1539 153.35 78.1539 153.171L78.921 153.239C78.921 153.683 78.796 154.035 78.546 154.296C78.2988 154.558 77.992 154.688 77.6255 154.688C77.4295 154.688 77.2676 154.661 77.1397 154.607C77.0119 154.551 76.8983 154.487 76.7988 154.416C76.6994 154.345 76.5943 154.282 76.4835 154.228C76.3727 154.171 76.2363 154.143 76.0744 154.143C75.9125 154.143 75.7775 154.207 75.6696 154.335C75.5645 154.46 75.5119 154.612 75.5119 154.791ZM83.6713 162.256C83.0804 162.256 82.562 162.116 82.1159 161.835C81.6728 161.553 81.3262 161.16 81.0762 160.654C80.829 160.149 80.7054 159.558 80.7054 158.881C80.7054 158.2 80.829 157.604 81.0762 157.096C81.3262 156.587 81.6728 156.193 82.1159 155.911C82.562 155.63 83.0804 155.489 83.6713 155.489C84.2623 155.489 84.7793 155.63 85.2225 155.911C85.6685 156.193 86.0151 156.587 86.2623 157.096C86.5123 157.604 86.6373 158.2 86.6373 158.881C86.6373 159.558 86.5123 160.149 86.2623 160.654C86.0151 161.16 85.6685 161.553 85.2225 161.835C84.7793 162.116 84.2623 162.256 83.6713 162.256ZM83.6713 161.353C84.1202 161.353 84.4895 161.238 84.7793 161.008C85.0691 160.778 85.2836 160.475 85.4228 160.1C85.562 159.725 85.6316 159.319 85.6316 158.881C85.6316 158.444 85.562 158.036 85.4228 157.658C85.2836 157.281 85.0691 156.975 84.7793 156.742C84.4895 156.509 84.1202 156.393 83.6713 156.393C83.2225 156.393 82.8532 156.509 82.5634 156.742C82.2736 156.975 82.0591 157.281 81.9199 157.658C81.7807 158.036 81.7111 158.444 81.7111 158.881C81.7111 159.319 81.7807 159.725 81.9199 160.1C82.0591 160.475 82.2736 160.778 82.5634 161.008C82.8532 161.238 83.2225 161.353 83.6713 161.353ZM91.5474 162.12V155.575H92.519V156.563H92.5872C92.7065 156.239 92.9224 155.977 93.2349 155.775C93.5474 155.573 93.8997 155.472 94.2917 155.472C94.3656 155.472 94.4579 155.474 94.5687 155.477C94.6795 155.479 94.7633 155.484 94.8201 155.489V156.512C94.786 156.504 94.7079 156.491 94.5858 156.474C94.4664 156.454 94.34 156.444 94.2065 156.444C93.8883 156.444 93.6042 156.511 93.3542 156.644C93.1071 156.775 92.911 156.957 92.7662 157.19C92.6241 157.42 92.5531 157.683 92.5531 157.978V162.12H91.5474ZM98.5574 162.256C97.9267 162.256 97.3826 162.117 96.9252 161.839C96.4707 161.558 96.1199 161.166 95.8727 160.663C95.6284 160.157 95.5062 159.569 95.5062 158.899C95.5062 158.228 95.6284 157.637 95.8727 157.126C96.1199 156.612 96.4636 156.211 96.9039 155.924C97.3471 155.634 97.8642 155.489 98.4551 155.489C98.796 155.489 99.1326 155.546 99.465 155.66C99.7974 155.774 100.1 155.958 100.373 156.214C100.645 156.467 100.863 156.802 101.025 157.22C101.187 157.637 101.268 158.151 101.268 158.762V159.188H96.2221V158.319H100.245C100.245 157.95 100.171 157.62 100.023 157.33C99.8784 157.041 99.671 156.812 99.4011 156.644C99.1341 156.477 98.8187 156.393 98.4551 156.393C98.0545 156.393 97.7079 156.492 97.4153 156.691C97.1255 156.887 96.9025 157.143 96.7463 157.458C96.59 157.774 96.5119 158.112 96.5119 158.472V159.052C96.5119 159.546 96.5971 159.965 96.7676 160.309C96.9409 160.65 97.1809 160.91 97.4877 161.089C97.7946 161.265 98.1511 161.353 98.5574 161.353C98.8216 161.353 99.0602 161.316 99.2733 161.242C99.4892 161.166 99.6752 161.052 99.8315 160.901C99.9877 160.748 100.108 160.558 100.194 160.33L101.165 160.603C101.063 160.933 100.891 161.222 100.65 161.472C100.408 161.72 100.11 161.913 99.7548 162.052C99.3997 162.188 99.0005 162.256 98.5574 162.256ZM107.263 164.575V161.114H107.178C107.104 161.234 106.999 161.384 106.863 161.566C106.726 161.745 106.532 161.906 106.279 162.048C106.026 162.187 105.689 162.256 105.269 162.256C104.724 162.256 104.242 162.119 103.824 161.843C103.407 161.565 103.08 161.173 102.844 160.667C102.608 160.158 102.491 159.558 102.491 158.864C102.491 158.177 102.608 157.58 102.844 157.075C103.08 156.569 103.408 156.178 103.829 155.903C104.249 155.627 104.735 155.489 105.286 155.489C105.712 155.489 106.049 155.56 106.296 155.703C106.546 155.842 106.736 156.001 106.867 156.18C107.001 156.356 107.104 156.501 107.178 156.614H107.297V155.575H108.269V164.575H107.263ZM105.405 161.353C105.809 161.353 106.15 161.248 106.428 161.038C106.706 160.825 106.918 160.531 107.063 160.156C107.208 159.778 107.28 159.342 107.28 158.847C107.28 158.359 107.209 157.931 107.067 157.565C106.925 157.195 106.715 156.908 106.437 156.704C106.158 156.497 105.814 156.393 105.405 156.393C104.979 156.393 104.624 156.502 104.34 156.721C104.059 156.937 103.847 157.231 103.705 157.603C103.566 157.972 103.496 158.387 103.496 158.847C103.496 159.313 103.567 159.737 103.709 160.117C103.854 160.495 104.067 160.796 104.349 161.021C104.633 161.242 104.985 161.353 105.405 161.353ZM114.235 159.444V155.575H115.241V162.12H114.235V161.012H114.167C114.013 161.345 113.775 161.627 113.451 161.86C113.127 162.09 112.718 162.205 112.224 162.205C111.814 162.205 111.451 162.116 111.133 161.937C110.814 161.755 110.564 161.482 110.383 161.119C110.201 160.752 110.11 160.291 110.11 159.734V155.575H111.116V159.666C111.116 160.143 111.249 160.524 111.516 160.808C111.786 161.092 112.13 161.234 112.547 161.234C112.797 161.234 113.052 161.17 113.31 161.042C113.572 160.914 113.79 160.718 113.966 160.454C114.145 160.19 114.235 159.853 114.235 159.444ZM119.827 162.256C119.196 162.256 118.652 162.117 118.195 161.839C117.74 161.558 117.389 161.166 117.142 160.663C116.898 160.157 116.776 159.569 116.776 158.899C116.776 158.228 116.898 157.637 117.142 157.126C117.389 156.612 117.733 156.211 118.173 155.924C118.617 155.634 119.134 155.489 119.725 155.489C120.066 155.489 120.402 155.546 120.735 155.66C121.067 155.774 121.369 155.958 121.642 156.214C121.915 156.467 122.132 156.802 122.294 157.22C122.456 157.637 122.537 158.151 122.537 158.762V159.188H117.492V158.319H121.514C121.514 157.95 121.441 157.62 121.293 157.33C121.148 157.041 120.941 156.812 120.671 156.644C120.404 156.477 120.088 156.393 119.725 156.393C119.324 156.393 118.977 156.492 118.685 156.691C118.395 156.887 118.172 157.143 118.016 157.458C117.86 157.774 117.781 158.112 117.781 158.472V159.052C117.781 159.546 117.867 159.965 118.037 160.309C118.21 160.65 118.45 160.91 118.757 161.089C119.064 161.265 119.421 161.353 119.827 161.353C120.091 161.353 120.33 161.316 120.543 161.242C120.759 161.166 120.945 161.052 121.101 160.901C121.257 160.748 121.378 160.558 121.463 160.33L122.435 160.603C122.333 160.933 122.161 161.222 121.919 161.472C121.678 161.72 121.379 161.913 121.024 162.052C120.669 162.188 120.27 162.256 119.827 162.256ZM124.067 162.12V155.575H125.039V156.563H125.107C125.226 156.239 125.442 155.977 125.754 155.775C126.067 155.573 126.419 155.472 126.811 155.472C126.885 155.472 126.977 155.474 127.088 155.477C127.199 155.479 127.283 155.484 127.34 155.489V156.512C127.306 156.504 127.227 156.491 127.105 156.474C126.986 156.454 126.86 156.444 126.726 156.444C126.408 156.444 126.124 156.511 125.874 156.644C125.627 156.775 125.431 156.957 125.286 157.19C125.144 157.42 125.073 157.683 125.073 157.978V162.12H124.067ZM35.8466 177.274C35.4318 177.274 35.0554 177.195 34.7173 177.039C34.3793 176.88 34.1108 176.651 33.9119 176.353C33.7131 176.052 33.6136 175.688 33.6136 175.262C33.6136 174.887 33.6875 174.583 33.8352 174.35C33.983 174.114 34.1804 173.93 34.4276 173.796C34.6747 173.663 34.9474 173.563 35.2457 173.498C35.5469 173.43 35.8494 173.376 36.1534 173.336C36.5511 173.285 36.8736 173.247 37.1207 173.221C37.3707 173.193 37.5526 173.146 37.6662 173.08C37.7827 173.015 37.8409 172.901 37.8409 172.739V172.705C37.8409 172.285 37.7259 171.958 37.4957 171.725C37.2685 171.492 36.9233 171.376 36.4602 171.376C35.9801 171.376 35.6037 171.481 35.331 171.691C35.0582 171.901 34.8665 172.126 34.7557 172.364L33.8011 172.024C33.9716 171.626 34.1989 171.316 34.483 171.095C34.7699 170.87 35.0824 170.714 35.4205 170.626C35.7614 170.535 36.0966 170.489 36.4261 170.489C36.6364 170.489 36.8778 170.515 37.1506 170.566C37.4261 170.614 37.6918 170.715 37.9474 170.869C38.206 171.022 38.4205 171.254 38.5909 171.563C38.7614 171.873 38.8466 172.288 38.8466 172.808V177.12H37.8409V176.234H37.7898C37.7216 176.376 37.608 176.528 37.4489 176.69C37.2898 176.852 37.0781 176.989 36.8139 177.103C36.5497 177.217 36.2273 177.274 35.8466 177.274ZM36 176.37C36.3977 176.37 36.733 176.292 37.0057 176.136C37.2813 175.979 37.4886 175.778 37.6278 175.531C37.7699 175.283 37.8409 175.024 37.8409 174.751V173.83C37.7983 173.881 37.7045 173.928 37.5597 173.971C37.4176 174.011 37.2528 174.046 37.0653 174.078C36.8807 174.106 36.7003 174.131 36.5241 174.154C36.3509 174.174 36.2102 174.191 36.1023 174.205C35.8409 174.239 35.5966 174.295 35.3693 174.372C35.1449 174.445 34.9631 174.558 34.8239 174.708C34.6875 174.856 34.6193 175.058 34.6193 175.313C34.6193 175.663 34.7486 175.927 35.0071 176.106C35.2685 176.282 35.5994 176.37 36 176.37ZM44.8072 174.444V170.575H45.8129V177.12H44.8072V176.012H44.739C44.5856 176.345 44.3469 176.627 44.0231 176.86C43.6992 177.09 43.2901 177.205 42.7958 177.205C42.3867 177.205 42.0231 177.116 41.7049 176.937C41.3867 176.755 41.1367 176.482 40.9549 176.119C40.7731 175.752 40.6822 175.291 40.6822 174.734V170.575H41.6879V174.666C41.6879 175.143 41.8214 175.524 42.0884 175.808C42.3583 176.092 42.7021 176.234 43.1197 176.234C43.3697 176.234 43.6239 176.17 43.8825 176.042C44.1438 175.914 44.3626 175.718 44.5387 175.454C44.7177 175.19 44.8072 174.853 44.8072 174.444ZM50.5014 170.575V171.427H47.1094V170.575H50.5014ZM48.098 169.006H49.1037V175.245C49.1037 175.529 49.1449 175.742 49.2273 175.884C49.3125 176.024 49.4205 176.117 49.5511 176.166C49.6847 176.211 49.8253 176.234 49.973 176.234C50.0838 176.234 50.1747 176.228 50.2457 176.217C50.3168 176.203 50.3736 176.191 50.4162 176.183L50.6207 177.086C50.5526 177.112 50.4574 177.137 50.3352 177.163C50.2131 177.191 50.0582 177.205 49.8707 177.205C49.5866 177.205 49.3082 177.144 49.0355 177.022C48.7656 176.9 48.5412 176.714 48.3622 176.464C48.1861 176.214 48.098 175.899 48.098 175.518V169.006ZM54.6882 177.256C54.0575 177.256 53.5135 177.117 53.0561 176.839C52.6016 176.558 52.2507 176.166 52.0036 175.663C51.7592 175.157 51.6371 174.569 51.6371 173.899C51.6371 173.228 51.7592 172.637 52.0036 172.126C52.2507 171.612 52.5945 171.211 53.0348 170.924C53.478 170.634 53.995 170.489 54.5859 170.489C54.9268 170.489 55.2635 170.546 55.5959 170.66C55.9283 170.774 56.2308 170.958 56.5036 171.214C56.7763 171.467 56.9936 171.802 57.1555 172.22C57.3175 172.637 57.3984 173.151 57.3984 173.762V174.188H52.353V173.319H56.3757C56.3757 172.95 56.3018 172.62 56.1541 172.33C56.0092 172.041 55.8018 171.812 55.532 171.644C55.2649 171.477 54.9496 171.393 54.5859 171.393C54.1854 171.393 53.8388 171.492 53.5462 171.691C53.2564 171.887 53.0334 172.143 52.8771 172.458C52.7209 172.774 52.6428 173.112 52.6428 173.472V174.052C52.6428 174.546 52.728 174.965 52.8984 175.309C53.0717 175.65 53.3118 175.91 53.6186 176.089C53.9254 176.265 54.282 176.353 54.6882 176.353C54.9524 176.353 55.1911 176.316 55.4041 176.242C55.62 176.166 55.8061 176.052 55.9624 175.901C56.1186 175.748 56.2393 175.558 56.3246 175.33L57.2962 175.603C57.1939 175.933 57.022 176.222 56.7805 176.472C56.5391 176.72 56.2408 176.913 55.8857 177.052C55.5305 177.188 55.1314 177.256 54.6882 177.256ZM59.9339 173.183V177.12H58.9283V170.575H59.8999V171.597H59.9851C60.1385 171.265 60.3714 170.998 60.6839 170.796C60.9964 170.592 61.3999 170.489 61.8942 170.489C62.3374 170.489 62.7251 170.58 63.0575 170.762C63.3899 170.941 63.6484 171.214 63.8331 171.58C64.0178 171.944 64.1101 172.404 64.1101 172.961V177.12H63.1044V173.029C63.1044 172.515 62.9709 172.114 62.7038 171.828C62.4368 171.538 62.0703 171.393 61.6044 171.393C61.2834 171.393 60.9964 171.462 60.7436 171.602C60.4936 171.741 60.2962 171.944 60.1513 172.211C60.0064 172.478 59.9339 172.802 59.9339 173.183ZM68.7944 170.575V171.427H65.4023V170.575H68.7944ZM66.391 169.006H67.3967V175.245C67.3967 175.529 67.4379 175.742 67.5202 175.884C67.6055 176.024 67.7134 176.117 67.8441 176.166C67.9776 176.211 68.1183 176.234 68.266 176.234C68.3768 176.234 68.4677 176.228 68.5387 176.217C68.6097 176.203 68.6665 176.191 68.7092 176.183L68.9137 177.086C68.8455 177.112 68.7504 177.137 68.6282 177.163C68.506 177.191 68.3512 177.205 68.1637 177.205C67.8796 177.205 67.6012 177.144 67.3285 177.022C67.0586 176.9 66.8342 176.714 66.6552 176.464C66.479 176.214 66.391 175.899 66.391 175.518V169.006ZM70.3072 177.12V170.575H71.3129V177.12H70.3072ZM70.8185 169.484C70.6225 169.484 70.4535 169.417 70.3114 169.283C70.1722 169.15 70.1026 168.989 70.1026 168.802C70.1026 168.614 70.1722 168.454 70.3114 168.32C70.4535 168.187 70.6225 168.12 70.8185 168.12C71.0146 168.12 71.1822 168.187 71.3214 168.32C71.4634 168.454 71.5344 168.614 71.5344 168.802C71.5344 168.989 71.4634 169.15 71.3214 169.283C71.1822 169.417 71.0146 169.484 70.8185 169.484ZM75.8139 177.256C75.2003 177.256 74.6719 177.112 74.2287 176.822C73.7855 176.532 73.4446 176.133 73.206 175.624C72.9673 175.116 72.848 174.535 72.848 173.881C72.848 173.217 72.9702 172.63 73.2145 172.122C73.4616 171.61 73.8054 171.211 74.2457 170.924C74.6889 170.634 75.206 170.489 75.7969 170.489C76.2571 170.489 76.6719 170.575 77.0412 170.745C77.4105 170.916 77.7131 171.154 77.9489 171.461C78.1847 171.768 78.331 172.126 78.3878 172.535H77.3821C77.3054 172.237 77.1349 171.972 76.8707 171.742C76.6094 171.509 76.2571 171.393 75.8139 171.393C75.4219 171.393 75.0781 171.495 74.7827 171.7C74.4901 171.901 74.2614 172.187 74.0966 172.556C73.9347 172.923 73.8537 173.353 73.8537 173.847C73.8537 174.353 73.9332 174.793 74.0923 175.168C74.2543 175.543 74.4815 175.835 74.7741 176.042C75.0696 176.249 75.4162 176.353 75.8139 176.353C76.0753 176.353 76.3125 176.308 76.5256 176.217C76.7386 176.126 76.919 175.995 77.0668 175.825C77.2145 175.654 77.3196 175.45 77.3821 175.211H78.3878C78.331 175.597 78.1903 175.945 77.9659 176.255C77.7443 176.562 77.4503 176.806 77.0838 176.988C76.7202 177.167 76.2969 177.256 75.8139 177.256ZM81.7841 177.274C81.3693 177.274 80.9929 177.195 80.6548 177.039C80.3168 176.88 80.0483 176.651 79.8494 176.353C79.6506 176.052 79.5511 175.688 79.5511 175.262C79.5511 174.887 79.625 174.583 79.7727 174.35C79.9205 174.114 80.1179 173.93 80.3651 173.796C80.6122 173.663 80.8849 173.563 81.1832 173.498C81.4844 173.43 81.7869 173.376 82.0909 173.336C82.4886 173.285 82.8111 173.247 83.0582 173.221C83.3082 173.193 83.4901 173.146 83.6037 173.08C83.7202 173.015 83.7784 172.901 83.7784 172.739V172.705C83.7784 172.285 83.6634 171.958 83.4332 171.725C83.206 171.492 82.8608 171.376 82.3977 171.376C81.9176 171.376 81.5412 171.481 81.2685 171.691C80.9957 171.901 80.804 172.126 80.6932 172.364L79.7386 172.024C79.9091 171.626 80.1364 171.316 80.4205 171.095C80.7074 170.87 81.0199 170.714 81.358 170.626C81.6989 170.535 82.0341 170.489 82.3636 170.489C82.5739 170.489 82.8153 170.515 83.0881 170.566C83.3636 170.614 83.6293 170.715 83.8849 170.869C84.1435 171.022 84.358 171.254 84.5284 171.563C84.6989 171.873 84.7841 172.288 84.7841 172.808V177.12H83.7784V176.234H83.7273C83.6591 176.376 83.5455 176.528 83.3864 176.69C83.2273 176.852 83.0156 176.989 82.7514 177.103C82.4872 177.217 82.1648 177.274 81.7841 177.274ZM81.9375 176.37C82.3352 176.37 82.6705 176.292 82.9432 176.136C83.2188 175.979 83.4261 175.778 83.5653 175.531C83.7074 175.283 83.7784 175.024 83.7784 174.751V173.83C83.7358 173.881 83.642 173.928 83.4972 173.971C83.3551 174.011 83.1903 174.046 83.0028 174.078C82.8182 174.106 82.6378 174.131 82.4616 174.154C82.2884 174.174 82.1477 174.191 82.0398 174.205C81.7784 174.239 81.5341 174.295 81.3068 174.372C81.0824 174.445 80.9006 174.558 80.7614 174.708C80.625 174.856 80.5568 175.058 80.5568 175.313C80.5568 175.663 80.6861 175.927 80.9446 176.106C81.206 176.282 81.5369 176.37 81.9375 176.37ZM89.2788 177.256C88.6651 177.256 88.1367 177.112 87.6935 176.822C87.2504 176.532 86.9094 176.133 86.6708 175.624C86.4322 175.116 86.3129 174.535 86.3129 173.881C86.3129 173.217 86.435 172.63 86.6793 172.122C86.9265 171.61 87.2702 171.211 87.7106 170.924C88.1538 170.634 88.6708 170.489 89.2617 170.489C89.7219 170.489 90.1367 170.575 90.506 170.745C90.8754 170.916 91.1779 171.154 91.4137 171.461C91.6495 171.768 91.7958 172.126 91.8526 172.535H90.8469C90.7702 172.237 90.5998 171.972 90.3356 171.742C90.0742 171.509 89.7219 171.393 89.2788 171.393C88.8867 171.393 88.543 171.495 88.2475 171.7C87.9549 171.901 87.7262 172.187 87.5614 172.556C87.3995 172.923 87.3185 173.353 87.3185 173.847C87.3185 174.353 87.3981 174.793 87.5572 175.168C87.7191 175.543 87.9464 175.835 88.239 176.042C88.5344 176.249 88.881 176.353 89.2788 176.353C89.5401 176.353 89.7773 176.308 89.9904 176.217C90.2035 176.126 90.3839 175.995 90.5316 175.825C90.6793 175.654 90.7844 175.45 90.8469 175.211H91.8526C91.7958 175.597 91.6552 175.945 91.4308 176.255C91.2092 176.562 90.9151 176.806 90.5487 176.988C90.185 177.167 89.7617 177.256 89.2788 177.256ZM88.8015 177.086H89.6367L89.5685 177.427C89.7901 177.461 89.9933 177.553 90.1779 177.704C90.3626 177.857 90.4549 178.1 90.4549 178.433C90.4549 178.799 90.3029 179.097 89.9989 179.328C89.6978 179.56 89.2532 179.677 88.6651 179.677L88.631 179.012C88.8952 179.012 89.114 178.97 89.2873 178.884C89.4634 178.802 89.5515 178.663 89.5515 178.467C89.5515 178.271 89.479 178.137 89.3342 178.066C89.1893 177.995 88.9549 177.947 88.631 177.921L88.8015 177.086ZM95.2489 177.274C94.8342 177.274 94.4577 177.195 94.1197 177.039C93.7816 176.88 93.5131 176.651 93.3143 176.353C93.1154 176.052 93.016 175.688 93.016 175.262C93.016 174.887 93.0898 174.583 93.2376 174.35C93.3853 174.114 93.5827 173.93 93.8299 173.796C94.0771 173.663 94.3498 173.563 94.6481 173.498C94.9492 173.43 95.2518 173.376 95.5558 173.336C95.9535 173.285 96.2759 173.247 96.5231 173.221C96.7731 173.193 96.9549 173.146 97.0685 173.08C97.185 173.015 97.2433 172.901 97.2433 172.739V172.705C97.2433 172.285 97.1282 171.958 96.8981 171.725C96.6708 171.492 96.3256 171.376 95.8626 171.376C95.3825 171.376 95.006 171.481 94.7333 171.691C94.4606 171.901 94.2688 172.126 94.158 172.364L93.2035 172.024C93.3739 171.626 93.6012 171.316 93.8853 171.095C94.1722 170.87 94.4847 170.714 94.8228 170.626C95.1637 170.535 95.4989 170.489 95.8285 170.489C96.0387 170.489 96.2802 170.515 96.5529 170.566C96.8285 170.614 97.0941 170.715 97.3498 170.869C97.6083 171.022 97.8228 171.254 97.9933 171.563C98.1637 171.873 98.2489 172.288 98.2489 172.808V177.12H97.2433V176.234H97.1921C97.1239 176.376 97.0103 176.528 96.8512 176.69C96.6921 176.852 96.4805 176.989 96.2163 177.103C95.9521 177.217 95.6296 177.274 95.2489 177.274ZM95.4023 176.37C95.8001 176.37 96.1353 176.292 96.408 176.136C96.6836 175.979 96.891 175.778 97.0302 175.531C97.1722 175.283 97.2433 175.024 97.2433 174.751V173.83C97.2006 173.881 97.1069 173.928 96.962 173.971C96.82 174.011 96.6552 174.046 96.4677 174.078C96.283 174.106 96.1026 174.131 95.9265 174.154C95.7532 174.174 95.6126 174.191 95.5046 174.205C95.2433 174.239 94.9989 174.295 94.7717 174.372C94.5472 174.445 94.3654 174.558 94.2262 174.708C94.0898 174.856 94.0217 175.058 94.0217 175.313C94.0217 175.663 94.1509 175.927 94.4094 176.106C94.6708 176.282 95.0018 176.37 95.4023 176.37ZM94.5842 169.791L93.8001 169.756C93.8001 169.322 93.9237 168.967 94.1708 168.691C94.4208 168.413 94.729 168.274 95.0955 168.274C95.2575 168.274 95.4009 168.302 95.5259 168.359C95.6509 168.413 95.7702 168.475 95.8839 168.546C95.9975 168.617 96.114 168.681 96.2333 168.738C96.3555 168.792 96.4933 168.819 96.6467 168.819C96.8086 168.819 96.945 168.756 97.0558 168.631C97.1694 168.504 97.2262 168.35 97.2262 168.171L97.9933 168.239C97.9933 168.683 97.8683 169.035 97.6183 169.296C97.3711 169.558 97.0643 169.688 96.6978 169.688C96.5018 169.688 96.3398 169.661 96.212 169.607C96.0842 169.551 95.9705 169.487 95.8711 169.416C95.7717 169.345 95.6665 169.282 95.5558 169.228C95.445 169.171 95.3086 169.143 95.1467 169.143C94.9847 169.143 94.8498 169.207 94.7418 169.335C94.6367 169.46 94.5842 169.612 94.5842 169.791ZM102.744 177.256C102.153 177.256 101.634 177.116 101.188 176.835C100.745 176.553 100.398 176.16 100.148 175.654C99.9013 175.149 99.7777 174.558 99.7777 173.881C99.7777 173.2 99.9013 172.604 100.148 172.096C100.398 171.587 100.745 171.193 101.188 170.911C101.634 170.63 102.153 170.489 102.744 170.489C103.335 170.489 103.852 170.63 104.295 170.911C104.741 171.193 105.087 171.587 105.335 172.096C105.585 172.604 105.71 173.2 105.71 173.881C105.71 174.558 105.585 175.149 105.335 175.654C105.087 176.16 104.741 176.553 104.295 176.835C103.852 177.116 103.335 177.256 102.744 177.256ZM102.744 176.353C103.192 176.353 103.562 176.238 103.852 176.008C104.141 175.778 104.356 175.475 104.495 175.1C104.634 174.725 104.704 174.319 104.704 173.881C104.704 173.444 104.634 173.036 104.495 172.658C104.356 172.281 104.141 171.975 103.852 171.742C103.562 171.509 103.192 171.393 102.744 171.393C102.295 171.393 101.925 171.509 101.636 171.742C101.346 171.975 101.131 172.281 100.992 172.658C100.853 173.036 100.783 173.444 100.783 173.881C100.783 174.319 100.853 174.725 100.992 175.1C101.131 175.475 101.346 175.778 101.636 176.008C101.925 176.238 102.295 176.353 102.744 176.353ZM110.62 179.575V170.575H111.591V171.614H111.711C111.784 171.501 111.887 171.356 112.017 171.18C112.151 171.001 112.341 170.842 112.588 170.703C112.838 170.56 113.176 170.489 113.603 170.489C114.154 170.489 114.64 170.627 115.06 170.903C115.48 171.178 115.809 171.569 116.044 172.075C116.28 172.58 116.398 173.177 116.398 173.864C116.398 174.558 116.28 175.158 116.044 175.667C115.809 176.173 115.482 176.565 115.064 176.843C114.647 177.119 114.165 177.256 113.62 177.256C113.199 177.256 112.863 177.187 112.61 177.048C112.357 176.906 112.162 176.745 112.026 176.566C111.89 176.384 111.784 176.234 111.711 176.114H111.625V179.575H110.62ZM111.608 173.847C111.608 174.342 111.681 174.778 111.826 175.156C111.971 175.531 112.182 175.825 112.461 176.038C112.739 176.248 113.08 176.353 113.483 176.353C113.904 176.353 114.255 176.242 114.536 176.021C114.82 175.796 115.033 175.495 115.175 175.117C115.32 174.737 115.392 174.313 115.392 173.847C115.392 173.387 115.321 172.972 115.179 172.603C115.04 172.231 114.828 171.937 114.544 171.721C114.263 171.502 113.909 171.393 113.483 171.393C113.074 171.393 112.73 171.497 112.452 171.704C112.174 171.908 111.963 172.195 111.821 172.565C111.679 172.931 111.608 173.359 111.608 173.847ZM119.858 177.274C119.444 177.274 119.067 177.195 118.729 177.039C118.391 176.88 118.123 176.651 117.924 176.353C117.725 176.052 117.625 175.688 117.625 175.262C117.625 174.887 117.699 174.583 117.847 174.35C117.995 174.114 118.192 173.93 118.439 173.796C118.686 173.663 118.959 173.563 119.257 173.498C119.559 173.43 119.861 173.376 120.165 173.336C120.563 173.285 120.885 173.247 121.132 173.221C121.382 173.193 121.564 173.146 121.678 173.08C121.794 173.015 121.853 172.901 121.853 172.739V172.705C121.853 172.285 121.738 171.958 121.507 171.725C121.28 171.492 120.935 171.376 120.472 171.376C119.992 171.376 119.615 171.481 119.343 171.691C119.07 171.901 118.878 172.126 118.767 172.364L117.813 172.024C117.983 171.626 118.211 171.316 118.495 171.095C118.782 170.87 119.094 170.714 119.432 170.626C119.773 170.535 120.108 170.489 120.438 170.489C120.648 170.489 120.89 170.515 121.162 170.566C121.438 170.614 121.703 170.715 121.959 170.869C122.218 171.022 122.432 171.254 122.603 171.563C122.773 171.873 122.858 172.288 122.858 172.808V177.12H121.853V176.234H121.801C121.733 176.376 121.62 176.528 121.461 176.69C121.301 176.852 121.09 176.989 120.826 177.103C120.561 177.217 120.239 177.274 119.858 177.274ZM120.012 176.37C120.409 176.37 120.745 176.292 121.017 176.136C121.293 175.979 121.5 175.778 121.64 175.531C121.782 175.283 121.853 175.024 121.853 174.751V173.83C121.81 173.881 121.716 173.928 121.571 173.971C121.429 174.011 121.265 174.046 121.077 174.078C120.892 174.106 120.712 174.131 120.536 174.154C120.363 174.174 120.222 174.191 120.114 174.205C119.853 174.239 119.608 174.295 119.381 174.372C119.157 174.445 118.975 174.558 118.836 174.708C118.699 174.856 118.631 175.058 118.631 175.313C118.631 175.663 118.76 175.927 119.019 176.106C119.28 176.282 119.611 176.37 120.012 176.37ZM124.694 177.12V170.575H125.665V171.563H125.734C125.853 171.239 126.069 170.977 126.381 170.775C126.694 170.573 127.046 170.472 127.438 170.472C127.512 170.472 127.604 170.474 127.715 170.477C127.826 170.479 127.91 170.484 127.967 170.489V171.512C127.933 171.504 127.854 171.491 127.732 171.474C127.613 171.454 127.487 171.444 127.353 171.444C127.035 171.444 126.751 171.511 126.501 171.644C126.254 171.775 126.058 171.957 125.913 172.19C125.771 172.42 125.7 172.683 125.7 172.978V177.12H124.694ZM131.085 177.274C130.67 177.274 130.294 177.195 129.956 177.039C129.618 176.88 129.349 176.651 129.15 176.353C128.951 176.052 128.852 175.688 128.852 175.262C128.852 174.887 128.926 174.583 129.074 174.35C129.221 174.114 129.419 173.93 129.666 173.796C129.913 173.663 130.186 173.563 130.484 173.498C130.785 173.43 131.088 173.376 131.392 173.336C131.789 173.285 132.112 173.247 132.359 173.221C132.609 173.193 132.791 173.146 132.904 173.08C133.021 173.015 133.079 172.901 133.079 172.739V172.705C133.079 172.285 132.964 171.958 132.734 171.725C132.507 171.492 132.162 171.376 131.699 171.376C131.218 171.376 130.842 171.481 130.569 171.691C130.297 171.901 130.105 172.126 129.994 172.364L129.039 172.024C129.21 171.626 129.437 171.316 129.721 171.095C130.008 170.87 130.321 170.714 130.659 170.626C131 170.535 131.335 170.489 131.664 170.489C131.875 170.489 132.116 170.515 132.389 170.566C132.664 170.614 132.93 170.715 133.186 170.869C133.444 171.022 133.659 171.254 133.829 171.563C134 171.873 134.085 172.288 134.085 172.808V177.12H133.079V176.234H133.028C132.96 176.376 132.846 176.528 132.687 176.69C132.528 176.852 132.316 176.989 132.052 177.103C131.788 177.217 131.466 177.274 131.085 177.274ZM131.238 176.37C131.636 176.37 131.971 176.292 132.244 176.136C132.52 175.979 132.727 175.778 132.866 175.531C133.008 175.283 133.079 175.024 133.079 174.751V173.83C133.037 173.881 132.943 173.928 132.798 173.971C132.656 174.011 132.491 174.046 132.304 174.078C132.119 174.106 131.939 174.131 131.762 174.154C131.589 174.174 131.449 174.191 131.341 174.205C131.079 174.239 130.835 174.295 130.608 174.372C130.383 174.445 130.201 174.558 130.062 174.708C129.926 174.856 129.858 175.058 129.858 175.313C129.858 175.663 129.987 175.927 130.245 176.106C130.507 176.282 130.838 176.37 131.238 176.37ZM65.12 192.274C64.7053 192.274 64.3288 192.195 63.9908 192.039C63.6527 191.88 63.3842 191.651 63.1854 191.353C62.9865 191.052 62.8871 190.688 62.8871 190.262C62.8871 189.887 62.9609 189.583 63.1087 189.35C63.2564 189.114 63.4538 188.93 63.701 188.796C63.9482 188.663 64.2209 188.563 64.5192 188.498C64.8203 188.43 65.1229 188.376 65.4268 188.336C65.8246 188.285 66.147 188.247 66.3942 188.221C66.6442 188.193 66.826 188.146 66.9396 188.08C67.0561 188.015 67.1143 187.901 67.1143 187.739V187.705C67.1143 187.285 66.9993 186.958 66.7692 186.725C66.5419 186.492 66.1967 186.376 65.7337 186.376C65.2536 186.376 64.8771 186.481 64.6044 186.691C64.3317 186.901 64.1399 187.126 64.0291 187.364L63.0746 187.024C63.245 186.626 63.4723 186.316 63.7564 186.095C64.0433 185.87 64.3558 185.714 64.6939 185.626C65.0348 185.535 65.37 185.489 65.6996 185.489C65.9098 185.489 66.1513 185.515 66.424 185.566C66.6996 185.614 66.9652 185.715 67.2209 185.869C67.4794 186.022 67.6939 186.254 67.8643 186.563C68.0348 186.873 68.12 187.288 68.12 187.808V192.12H67.1143V191.234H67.0632C66.995 191.376 66.8814 191.528 66.7223 191.69C66.5632 191.852 66.3516 191.989 66.0874 192.103C65.8232 192.217 65.5007 192.274 65.12 192.274ZM65.2734 191.37C65.6712 191.37 66.0064 191.292 66.2791 191.136C66.5547 190.979 66.7621 190.778 66.9013 190.531C67.0433 190.283 67.1143 190.024 67.1143 189.751V188.83C67.0717 188.881 66.978 188.928 66.8331 188.971C66.6911 189.011 66.5263 189.046 66.3388 189.078C66.1541 189.106 65.9737 189.131 65.7976 189.154C65.6243 189.174 65.4837 189.191 65.3757 189.205C65.1143 189.239 64.87 189.295 64.6428 189.372C64.4183 189.445 64.2365 189.558 64.0973 189.708C63.9609 189.856 63.8928 190.058 63.8928 190.313C63.8928 190.663 64.022 190.927 64.2805 191.106C64.5419 191.282 64.8729 191.37 65.2734 191.37ZM72.6147 192.256C72.0011 192.256 71.4727 192.112 71.0295 191.822C70.5863 191.532 70.2454 191.133 70.0067 190.624C69.7681 190.116 69.6488 189.535 69.6488 188.881C69.6488 188.217 69.771 187.63 70.0153 187.122C70.2624 186.61 70.6062 186.211 71.0465 185.924C71.4897 185.634 72.0067 185.489 72.5977 185.489C73.0579 185.489 73.4727 185.575 73.842 185.745C74.2113 185.916 74.5138 186.154 74.7496 186.461C74.9854 186.768 75.1317 187.126 75.1886 187.535H74.1829C74.1062 187.237 73.9357 186.972 73.6715 186.742C73.4102 186.509 73.0579 186.393 72.6147 186.393C72.2227 186.393 71.8789 186.495 71.5835 186.7C71.2908 186.901 71.0621 187.187 70.8974 187.556C70.7354 187.923 70.6545 188.353 70.6545 188.847C70.6545 189.353 70.734 189.793 70.8931 190.168C71.055 190.543 71.2823 190.835 71.5749 191.042C71.8704 191.249 72.217 191.353 72.6147 191.353C72.8761 191.353 73.1133 191.308 73.3263 191.217C73.5394 191.126 73.7198 190.995 73.8675 190.825C74.0153 190.654 74.1204 190.45 74.1829 190.211H75.1886C75.1317 190.597 74.9911 190.945 74.7667 191.255C74.5451 191.562 74.2511 191.806 73.8846 191.988C73.521 192.167 73.0977 192.256 72.6147 192.256ZM79.4031 192.256C78.7724 192.256 78.2283 192.117 77.771 191.839C77.3164 191.558 76.9656 191.166 76.7184 190.663C76.4741 190.157 76.3519 189.569 76.3519 188.899C76.3519 188.228 76.4741 187.637 76.7184 187.126C76.9656 186.612 77.3093 186.211 77.7496 185.924C78.1928 185.634 78.7099 185.489 79.3008 185.489C79.6417 185.489 79.9783 185.546 80.3107 185.66C80.6431 185.774 80.9457 185.958 81.2184 186.214C81.4911 186.467 81.7085 186.802 81.8704 187.22C82.0323 187.637 82.1133 188.151 82.1133 188.762V189.188H77.0678V188.319H81.0906C81.0906 187.95 81.0167 187.62 80.869 187.33C80.7241 187.041 80.5167 186.812 80.2468 186.644C79.9798 186.477 79.6644 186.393 79.3008 186.393C78.9002 186.393 78.5536 186.492 78.261 186.691C77.9712 186.887 77.7482 187.143 77.592 187.458C77.4357 187.774 77.3576 188.112 77.3576 188.472V189.052C77.3576 189.546 77.4428 189.965 77.6133 190.309C77.7866 190.65 78.0266 190.91 78.3335 191.089C78.6403 191.265 78.9968 191.353 79.4031 191.353C79.6673 191.353 79.9059 191.316 80.119 191.242C80.3349 191.166 80.521 191.052 80.6772 190.901C80.8335 190.748 80.9542 190.558 81.0394 190.33L82.011 190.603C81.9087 190.933 81.7369 191.222 81.4954 191.472C81.2539 191.72 80.9556 191.913 80.6005 192.052C80.2454 192.188 79.8462 192.256 79.4031 192.256ZM88.2795 187.041L87.3761 187.296C87.3192 187.146 87.2354 186.999 87.1246 186.857C87.0167 186.712 86.869 186.593 86.6815 186.499C86.494 186.406 86.2539 186.359 85.9613 186.359C85.5607 186.359 85.2269 186.451 84.9599 186.636C84.6957 186.818 84.5636 187.049 84.5636 187.33C84.5636 187.58 84.6545 187.778 84.8363 187.923C85.0181 188.068 85.3022 188.188 85.6886 188.285L86.6602 188.524C87.2454 188.666 87.6815 188.883 87.9684 189.176C88.2553 189.465 88.3988 189.839 88.3988 190.296C88.3988 190.671 88.2908 191.006 88.0749 191.302C87.8619 191.597 87.5636 191.83 87.18 192.001C86.7965 192.171 86.3505 192.256 85.842 192.256C85.1744 192.256 84.6218 192.112 84.1843 191.822C83.7468 191.532 83.4698 191.109 83.3533 190.552L84.3079 190.313C84.3988 190.666 84.5707 190.93 84.8235 191.106C85.0792 191.282 85.413 191.37 85.8249 191.37C86.2937 191.37 86.6658 191.271 86.9414 191.072C87.2198 190.87 87.359 190.629 87.359 190.347C87.359 190.12 87.2795 189.93 87.1204 189.776C86.9613 189.62 86.717 189.504 86.3874 189.427L85.2965 189.171C84.6971 189.029 84.2567 188.809 83.9755 188.511C83.6971 188.21 83.5579 187.833 83.5579 187.381C83.5579 187.012 83.6616 186.685 83.869 186.401C84.0792 186.117 84.3647 185.894 84.7255 185.732C85.0891 185.57 85.5011 185.489 85.9613 185.489C86.609 185.489 87.1175 185.631 87.4869 185.916C87.859 186.2 88.1232 186.575 88.2795 187.041ZM94.549 187.041L93.6456 187.296C93.5888 187.146 93.505 186.999 93.3942 186.857C93.2862 186.712 93.1385 186.593 92.951 186.499C92.7635 186.406 92.5234 186.359 92.2308 186.359C91.8303 186.359 91.4964 186.451 91.2294 186.636C90.9652 186.818 90.8331 187.049 90.8331 187.33C90.8331 187.58 90.924 187.778 91.1058 187.923C91.2876 188.068 91.5717 188.188 91.9581 188.285L92.9297 188.524C93.5149 188.666 93.951 188.883 94.2379 189.176C94.5249 189.465 94.6683 189.839 94.6683 190.296C94.6683 190.671 94.5604 191.006 94.3445 191.302C94.1314 191.597 93.8331 191.83 93.4496 192.001C93.0661 192.171 92.62 192.256 92.1115 192.256C91.4439 192.256 90.8913 192.112 90.4538 191.822C90.0163 191.532 89.7393 191.109 89.6229 190.552L90.5774 190.313C90.6683 190.666 90.8402 190.93 91.093 191.106C91.3487 191.282 91.6825 191.37 92.0945 191.37C92.5632 191.37 92.9354 191.271 93.2109 191.072C93.4893 190.87 93.6286 190.629 93.6286 190.347C93.6286 190.12 93.549 189.93 93.3899 189.776C93.2308 189.62 92.9865 189.504 92.657 189.427L91.5661 189.171C90.9666 189.029 90.5263 188.809 90.245 188.511C89.9666 188.21 89.8274 187.833 89.8274 187.381C89.8274 187.012 89.9311 186.685 90.1385 186.401C90.3487 186.117 90.6342 185.894 90.995 185.732C91.3587 185.57 91.7706 185.489 92.2308 185.489C92.8786 185.489 93.3871 185.631 93.7564 185.916C94.1286 186.2 94.3928 186.575 94.549 187.041ZM98.8413 192.256C98.2504 192.256 97.7319 192.116 97.2859 191.835C96.8427 191.553 96.4961 191.16 96.2461 190.654C95.9989 190.149 95.8754 189.558 95.8754 188.881C95.8754 188.2 95.9989 187.604 96.2461 187.096C96.4961 186.587 96.8427 186.193 97.2859 185.911C97.7319 185.63 98.2504 185.489 98.8413 185.489C99.4322 185.489 99.9492 185.63 100.392 185.911C100.838 186.193 101.185 186.587 101.432 187.096C101.682 187.604 101.807 188.2 101.807 188.881C101.807 189.558 101.682 190.149 101.432 190.654C101.185 191.16 100.838 191.553 100.392 191.835C99.9492 192.116 99.4322 192.256 98.8413 192.256ZM98.8413 191.353C99.2901 191.353 99.6594 191.238 99.9492 191.008C100.239 190.778 100.453 190.475 100.593 190.1C100.732 189.725 100.801 189.319 100.801 188.881C100.801 188.444 100.732 188.036 100.593 187.658C100.453 187.281 100.239 186.975 99.9492 186.742C99.6594 186.509 99.2901 186.393 98.8413 186.393C98.3924 186.393 98.0231 186.509 97.7333 186.742C97.4435 186.975 97.229 187.281 97.0898 187.658C96.9506 188.036 96.881 188.444 96.881 188.881C96.881 189.319 96.9506 189.725 97.0898 190.1C97.229 190.475 97.4435 190.778 97.7333 191.008C98.0231 191.238 98.3924 191.353 98.8413 191.353ZM104.075 192.188C103.865 192.188 103.685 192.113 103.534 191.962C103.384 191.812 103.308 191.631 103.308 191.421C103.308 191.211 103.384 191.031 103.534 190.88C103.685 190.729 103.865 190.654 104.075 190.654C104.286 190.654 104.466 190.729 104.616 190.88C104.767 191.031 104.842 191.211 104.842 191.421C104.842 191.56 104.807 191.688 104.736 191.805C104.668 191.921 104.575 192.015 104.459 192.086C104.345 192.154 104.217 192.188 104.075 192.188Z" fill="white"/>
</g>
<rect opacity="0.15" x="47" y="8.06006" width="94" height="94" rx="47" fill="white"/>
<path d="M92.9716 80.9982C87.8372 80.9982 82.7027 81.0033 77.5683 80.9963C74.4766 80.9922 73.0051 79.5201 73.0033 76.4343C72.9991 69.1296 72.9986 61.8248 73.0037 54.5201C73.0061 51.549 74.4439 50.1382 77.464 50.1363C84.0708 50.1317 90.6776 50.1192 97.2845 50.1526C98.1907 50.1572 98.7489 49.8847 99.1812 49.0858C100.038 47.5032 101.011 45.9828 101.883 44.4077C103.45 41.5805 102.948 37.8453 100.764 35.7725C98.3887 33.5191 94.9947 33.1226 92.0869 34.7943C90.1171 35.9266 89.2179 37.914 88.1614 39.7672C87.2954 41.2866 86.325 41.8423 84.8826 41.6306C83.0508 41.3614 81.8231 39.5072 82.6265 37.8908C84.2495 34.6249 86.0593 31.5215 89.4644 29.6093C95.5636 26.1851 103.678 28.405 106.998 34.5631C109.466 39.1419 109.145 43.6157 106.49 48.0185C106.118 48.6345 105.257 49.3105 105.633 49.9455C105.942 50.4673 106.965 50.0737 107.668 50.1289C108.044 50.1582 108.423 50.1317 108.801 50.1354C111.499 50.1609 112.984 51.6358 112.993 54.3418C113.006 58.5 112.997 62.6581 112.997 66.8158C112.997 69.9624 112.999 73.1095 112.996 76.256C112.993 79.5544 111.556 80.9945 108.261 80.9968C103.164 81.0001 98.0672 80.9977 92.9707 80.9977L92.9716 80.9982ZM89.4453 63.0616C89.4425 63.7848 89.6441 64.6943 90.3047 65.1618C91.5881 66.0703 91.4716 67.2996 91.4496 68.5627C91.4459 68.787 91.4482 69.0112 91.4496 69.235C91.4581 70.85 91.8834 71.4823 92.9716 71.4995C94.0767 71.5171 94.5395 70.8709 94.5488 69.2902C94.5526 68.6927 94.576 68.0934 94.5437 67.4973C94.5006 66.7067 94.6999 66.1055 95.3596 65.5452C96.6159 64.4779 96.8531 62.7672 96.0994 61.3611C95.3648 59.9911 93.767 59.2451 92.2993 59.5868C90.65 59.9707 89.5412 61.2705 89.4453 63.0606V63.0616Z" fill="#00E28D"/>
<defs>
<linearGradient id="paint0_linear_521_154" x1="84.22" y1="0.120117" x2="84.22" y2="205.18" gradientUnits="userSpaceOnUse">
<stop stop-color="#24E29B"/>
<stop offset="1" stop-color="#00B36F"/>
</linearGradient>
<linearGradient id="paint1_linear_521_154" x1="84.22" y1="0.120117" x2="84.22" y2="205.18" gradientUnits="userSpaceOnUse">
<stop stop-color="#FF9B52"/>
<stop offset="1" stop-color="#FF7F21"/>
</linearGradient>
</defs>
</svg>
