<?xml version="1.0" encoding="utf-8"?>
<!-- Generator: Adobe Illustrator 26.3.0, SVG Export Plug-In . SVG Version: 6.00 Build 0)  -->
<svg version="1.1" id="Camada_1" xmlns="http://www.w3.org/2000/svg" xmlns:xlink="http://www.w3.org/1999/xlink" x="0px" y="0px"
	 width="73.48px" height="26.15px" viewBox="0 0 73.48 26.15" style="enable-background:new 0 0 73.48 26.15;" xml:space="preserve"
	>
<style type="text/css">
	.st0{fill:#31271C;stroke:url(#SVGID_1_);stroke-width:0.25;stroke-miterlimit:10;}
	.st1{fill:#FE9E2D;}
	.st2{fill:url(#SVGID_00000163049002214092090260000011862849909923442583_);}
</style>
<g>
	<linearGradient id="SVGID_1_" gradientUnits="userSpaceOnUse" x1="2.494799e-03" y1="13.0763" x2="73.4824" y2="13.0763">
		<stop  offset="0" style="stop-color:#FFA750"/>
		<stop  offset="1" style="stop-color:#EF8D2B"/>
	</linearGradient>
	<path class="st0" d="M71.38,26.02H2.1c-1.09,0-1.98-0.89-1.98-1.98V2.11c0-1.09,0.89-1.98,1.98-1.98h69.28
		c1.09,0,1.98,0.89,1.98,1.98v21.94C73.36,25.13,72.47,26.02,71.38,26.02z"/>
	<g>
		<g>
			<g>
				<path class="st1" d="M36.77,14.94v4.22h-1.48V7.54h3.27c1.26,0,2.24,0.31,2.93,0.92c0.69,0.62,1.03,1.49,1.03,2.63
					c0,1.13-0.38,2.05-1.15,2.77c-0.77,0.72-1.8,1.07-3.11,1.07H36.77z M36.77,8.85v4.79h1.39c0.92,0,1.62-0.21,2.1-0.64
					c0.48-0.43,0.72-1.03,0.72-1.82c0-0.78-0.22-1.36-0.67-1.75c-0.44-0.39-1.11-0.58-2-0.58H36.77z"/>
				<path class="st1" d="M53.43,14.43c0,1.65-0.37,2.88-1.11,3.71c-0.74,0.82-1.86,1.23-3.35,1.23c-1.43,0-2.5-0.39-3.21-1.18
					c-0.71-0.79-1.07-1.98-1.07-3.57V7.54h1.48v7c0,1.16,0.25,2.04,0.74,2.62c0.49,0.59,1.23,0.88,2.2,0.88
					c0.95,0,1.66-0.28,2.14-0.85c0.47-0.56,0.71-1.41,0.71-2.54V7.54h1.47V14.43z"/>
				<path class="st1" d="M63.44,8.86h-3.36v10.31h-1.47V8.86h-3.35V7.54h8.18V8.86z"/>
			</g>
		</g>
	</g>
	<g>
		<g>
			
				<linearGradient id="SVGID_00000053531877812658814330000015897852779145627555_" gradientUnits="userSpaceOnUse" x1="14.2333" y1="6.0105" x2="22.6179" y2="20.5331">
				<stop  offset="0" style="stop-color:#FFA750"/>
				<stop  offset="1" style="stop-color:#EF8D2B"/>
			</linearGradient>
			<path style="fill:url(#SVGID_00000053531877812658814330000015897852779145627555_);" d="M24.56,7.58
				C23.28,6.17,21.67,5.33,19.79,5c-0.28-0.05-0.56-0.07-0.84-0.11H17.9c-0.3,0.04-0.6,0.07-0.9,0.13
				c-1.91,0.33-3.51,1.23-4.81,2.66c-1.22,1.35-1.91,2.94-2.1,4.74c-0.01,0.11-0.03,0.21-0.04,0.32v1.05
				c0.04,0.31,0.07,0.63,0.13,0.94c0.35,1.93,1.27,3.55,2.74,4.84c1.26,1.11,2.72,1.79,4.38,2c2.6,0.33,4.89-0.39,6.83-2.16
				c1.41-1.29,2.28-2.89,2.57-4.78C27.1,11.95,26.39,9.58,24.56,7.58z M15.95,17.38c-0.05,0.04-0.12,0.07-0.19,0.09
				c-0.47,0.11-0.93,0.21-1.4,0.32c-0.31,0.07-0.49-0.11-0.42-0.43c0.1-0.46,0.2-0.93,0.31-1.39c0.02-0.09,0.07-0.17,0.13-0.24
				c0.13-0.14,0.27-0.26,0.41-0.39c0.53,0.53,1.06,1.06,1.6,1.6C16.25,17.08,16.1,17.23,15.95,17.38z M17.04,16.27
				c-0.53-0.53-1.06-1.06-1.58-1.59c1.3-1.3,2.62-2.62,3.92-3.92c0.52,0.52,1.05,1.06,1.58,1.59
				C19.65,13.65,18.34,14.96,17.04,16.27z M22.36,10.97c-0.24,0.25-0.49,0.49-0.73,0.74c-0.54-0.55-1.07-1.08-1.62-1.63
				c0.19-0.18,0.39-0.38,0.58-0.58c0.34-0.35,0.4-0.35,0.74,0c0.34,0.35,0.69,0.69,1.03,1.03C22.52,10.7,22.52,10.81,22.36,10.97z"
				/>
		</g>
	</g>
</g>
</svg>
