<svg width="169" height="206" viewBox="0 0 169 206" fill="none" xmlns="http://www.w3.org/2000/svg">
<path d="M168.44 14.61V190.45C168.44 198.49 163.04 205.06 156.44 205.06H12C5.4 205.06 0 198.49 0 190.45V14.61C0 6.57 5.4 0 12 0H156.44C163.04 0 168.44 6.57 168.44 14.61Z" fill="url(#paint0_linear_521_98)"/>
<mask id="mask0_521_98" style="mask-type:alpha" maskUnits="userSpaceOnUse" x="0" y="0" width="169" height="206">
<path d="M168.44 14.61V190.45C168.44 198.49 163.04 205.06 156.44 205.06H12C5.4 205.06 0 198.49 0 190.45V14.61C0 6.57 5.4 0 12 0H156.44C163.04 0 168.44 6.57 168.44 14.61Z" fill="url(#paint1_linear_521_98)"/>
</mask>
<g mask="url(#mask0_521_98)">
<g opacity="0.8">
<g opacity="0.15">
<circle cx="94.2338" cy="55.6399" r="93.937" transform="rotate(-10.7881 94.2338 55.6399)" fill="white"/>
<circle cx="94.2338" cy="55.6399" r="93.937" transform="rotate(-10.7881 94.2338 55.6399)" fill="white"/>
</g>
<g opacity="0.3">
<circle cx="94.0749" cy="54.8049" r="75.2346" transform="rotate(-10.7881 94.0749 54.8049)" fill="white"/>
<circle cx="94.0749" cy="54.8049" r="75.2346" transform="rotate(-10.7881 94.0749 54.8049)" fill="white"/>
</g>
<g opacity="0.4">
<circle cx="94.0749" cy="54.8049" r="59.9327" transform="rotate(-10.7881 94.0749 54.8049)" fill="white"/>
<circle cx="94.0749" cy="54.8049" r="59.9327" transform="rotate(-10.7881 94.0749 54.8049)" fill="white"/>
</g>
</g>
<ellipse opacity="0.15" cx="94.0559" cy="54.9" rx="47.0559" ry="46.9" fill="white"/>
<path d="M87.4735 81L88.5979 63.5312L74.0265 73.3264L68 62.6736L83.6958 55L68 47.3264L74.0265 36.6736L88.5979 46.4688L87.4735 29H99.5714L98.4021 46.4688L112.974 36.6736L119 47.3264L103.349 55L119 62.6736L112.974 73.3264L98.4021 63.5312L99.5714 81H87.4735Z" fill="#F51770"/>
<path d="M37.1307 119.727C37.1307 121.313 36.83 122.663 36.2287 123.776C35.6321 124.888 34.8177 125.738 33.7855 126.325C32.758 126.908 31.6027 127.199 30.3196 127.199C29.027 127.199 27.867 126.905 26.8395 126.318C25.812 125.731 25 124.881 24.4034 123.768C23.8068 122.656 23.5085 121.309 23.5085 119.727C23.5085 118.141 23.8068 116.792 24.4034 115.679C25 114.566 25.812 113.719 26.8395 113.136C27.867 112.549 29.027 112.256 30.3196 112.256C31.6027 112.256 32.758 112.549 33.7855 113.136C34.8177 113.719 35.6321 114.566 36.2287 115.679C36.83 116.792 37.1307 118.141 37.1307 119.727ZM34.0128 119.727C34.0128 118.7 33.8589 117.833 33.5511 117.128C33.2481 116.422 32.8196 115.887 32.2656 115.523C31.7116 115.158 31.063 114.976 30.3196 114.976C29.5762 114.976 28.9276 115.158 28.3736 115.523C27.8196 115.887 27.3887 116.422 27.081 117.128C26.7779 117.833 26.6264 118.7 26.6264 119.727C26.6264 120.755 26.7779 121.621 27.081 122.327C27.3887 123.032 27.8196 123.567 28.3736 123.932C28.9276 124.296 29.5762 124.479 30.3196 124.479C31.063 124.479 31.7116 124.296 32.2656 123.932C32.8196 123.567 33.2481 123.032 33.5511 122.327C33.8589 121.621 34.0128 120.755 34.0128 119.727ZM40.4087 127V112.455H43.4343V117.923H43.5266C43.6592 117.63 43.851 117.331 44.1019 117.028C44.3576 116.721 44.689 116.465 45.0962 116.261C45.5082 116.053 46.0195 115.949 46.6303 115.949C47.4258 115.949 48.1597 116.157 48.832 116.574C49.5044 116.986 50.0418 117.608 50.4442 118.442C50.8467 119.27 51.0479 120.31 51.0479 121.56C51.0479 122.777 50.8514 123.804 50.4585 124.642C50.0702 125.475 49.5399 126.107 48.8675 126.538C48.1999 126.964 47.4518 127.178 46.6232 127.178C46.0361 127.178 45.5366 127.08 45.1246 126.886C44.7174 126.692 44.3836 126.448 44.1232 126.155C43.8628 125.857 43.6639 125.556 43.5266 125.253H43.3917V127H40.4087ZM43.3704 121.545C43.3704 122.194 43.4603 122.76 43.6403 123.243C43.8202 123.726 44.0806 124.102 44.4215 124.372C44.7624 124.637 45.1767 124.77 45.6644 124.77C46.1568 124.77 46.5735 124.635 46.9144 124.365C47.2553 124.09 47.5134 123.712 47.6886 123.229C47.8685 122.741 47.9585 122.18 47.9585 121.545C47.9585 120.916 47.8709 120.362 47.6957 119.884C47.5205 119.405 47.2624 119.031 46.9215 118.761C46.5806 118.491 46.1616 118.357 45.6644 118.357C45.172 118.357 44.7553 118.487 44.4144 118.747C44.0782 119.008 43.8202 119.377 43.6403 119.855C43.4603 120.333 43.3704 120.897 43.3704 121.545ZM54.0668 127V116.091H57V117.994H57.1136C57.3125 117.317 57.6463 116.806 58.1151 116.46C58.5838 116.11 59.1236 115.935 59.7344 115.935C59.8859 115.935 60.0492 115.944 60.2244 115.963C60.3996 115.982 60.5535 116.008 60.6861 116.041V118.726C60.544 118.683 60.3475 118.645 60.0966 118.612C59.8456 118.579 59.616 118.562 59.4077 118.562C58.9626 118.562 58.5649 118.66 58.2145 118.854C57.8688 119.043 57.5942 119.308 57.3906 119.649C57.1918 119.99 57.0923 120.383 57.0923 120.828V127H54.0668ZM63.2504 127V116.091H66.2759V127H63.2504ZM64.7702 114.685C64.3204 114.685 63.9345 114.536 63.6126 114.237C63.2953 113.934 63.1367 113.572 63.1367 113.151C63.1367 112.734 63.2953 112.376 63.6126 112.078C63.9345 111.775 64.3204 111.624 64.7702 111.624C65.2201 111.624 65.6036 111.775 65.9208 112.078C66.2428 112.376 66.4038 112.734 66.4038 113.151C66.4038 113.572 66.2428 113.934 65.9208 114.237C65.6036 114.536 65.2201 114.685 64.7702 114.685ZM74.6143 131.318C73.6342 131.318 72.7938 131.183 72.093 130.913C71.397 130.648 70.843 130.286 70.4311 129.827C70.0192 129.367 69.7517 128.851 69.6286 128.278L72.4268 127.902C72.5121 128.12 72.647 128.323 72.8317 128.513C73.0163 128.702 73.2602 128.854 73.5632 128.967C73.871 129.086 74.245 129.145 74.6854 129.145C75.3435 129.145 75.8857 128.984 76.3118 128.662C76.7427 128.345 76.9581 127.812 76.9581 127.064V125.068H76.8303C76.6977 125.371 76.4988 125.658 76.2337 125.928C75.9685 126.197 75.6276 126.418 75.2109 126.588C74.7943 126.759 74.2971 126.844 73.7195 126.844C72.9003 126.844 72.1546 126.654 71.4822 126.276C70.8146 125.892 70.282 125.307 69.8842 124.521C69.4912 123.731 69.2947 122.732 69.2947 121.524C69.2947 120.288 69.496 119.256 69.8984 118.428C70.3009 117.599 70.8359 116.979 71.5036 116.567C72.1759 116.155 72.9122 115.949 73.7124 115.949C74.3232 115.949 74.8345 116.053 75.2464 116.261C75.6584 116.465 75.9898 116.721 76.2408 117.028C76.4964 117.331 76.6929 117.63 76.8303 117.923H76.9439V116.091H79.9482V127.107C79.9482 128.035 79.7209 128.811 79.2663 129.436C78.8118 130.061 78.1821 130.53 77.3771 130.842C76.5769 131.16 75.656 131.318 74.6143 131.318ZM74.6783 124.571C75.166 124.571 75.5779 124.45 75.9141 124.209C76.255 123.963 76.5154 123.612 76.6953 123.158C76.88 122.698 76.9723 122.149 76.9723 121.51C76.9723 120.871 76.8823 120.317 76.7024 119.848C76.5225 119.375 76.2621 119.008 75.9212 118.747C75.5803 118.487 75.166 118.357 74.6783 118.357C74.1811 118.357 73.7621 118.491 73.4212 118.761C73.0803 119.027 72.8222 119.396 72.647 119.869C72.4718 120.343 72.3842 120.89 72.3842 121.51C72.3842 122.14 72.4718 122.684 72.647 123.143C72.8269 123.598 73.085 123.951 73.4212 124.202C73.7621 124.448 74.1811 124.571 74.6783 124.571ZM86.4666 127.206C85.7706 127.206 85.1503 127.085 84.6058 126.844C84.0613 126.598 83.6304 126.235 83.3132 125.757C83.0007 125.274 82.8445 124.673 82.8445 123.953C82.8445 123.347 82.9557 122.838 83.1783 122.426C83.4008 122.014 83.7038 121.683 84.0874 121.432C84.4709 121.181 84.9065 120.991 85.3942 120.864C85.8866 120.736 86.4027 120.646 86.9425 120.594C87.5769 120.527 88.0883 120.466 88.4766 120.409C88.8648 120.348 89.1465 120.258 89.3217 120.139C89.4969 120.021 89.5845 119.846 89.5845 119.614V119.571C89.5845 119.121 89.4425 118.773 89.1584 118.527C88.879 118.281 88.4813 118.158 87.9652 118.158C87.4207 118.158 86.9875 118.278 86.6655 118.52C86.3435 118.757 86.1304 119.055 86.0263 119.415L83.228 119.188C83.37 118.525 83.6494 117.952 84.0661 117.469C84.4827 116.981 85.0201 116.607 85.6783 116.347C86.3411 116.081 87.1082 115.949 87.9794 115.949C88.5855 115.949 89.1655 116.02 89.7195 116.162C90.2782 116.304 90.773 116.524 91.2038 116.822C91.6394 117.121 91.9827 117.504 92.2337 117.973C92.4846 118.437 92.6101 118.993 92.6101 119.642V127H89.7408V125.487H89.6555C89.4804 125.828 89.246 126.129 88.9524 126.389C88.6589 126.645 88.3061 126.846 87.8942 126.993C87.4822 127.135 87.0064 127.206 86.4666 127.206ZM87.3331 125.118C87.7782 125.118 88.1712 125.03 88.5121 124.855C88.853 124.675 89.1205 124.434 89.3146 124.131C89.5088 123.828 89.6058 123.484 89.6058 123.101V121.943C89.5111 122.005 89.3809 122.062 89.2152 122.114C89.0542 122.161 88.8719 122.206 88.6683 122.249C88.4647 122.286 88.2611 122.322 88.0575 122.355C87.8539 122.384 87.6693 122.41 87.5036 122.433C87.1484 122.485 86.8383 122.568 86.5732 122.682C86.308 122.795 86.102 122.949 85.9553 123.143C85.8085 123.333 85.7351 123.57 85.7351 123.854C85.7351 124.266 85.8842 124.58 86.1825 124.798C86.4856 125.011 86.8691 125.118 87.3331 125.118ZM101.76 116.091V118.364H95.1903V116.091H101.76ZM96.6818 113.477H99.7074V123.648C99.7074 123.927 99.75 124.145 99.8352 124.301C99.9205 124.453 100.039 124.559 100.19 124.621C100.347 124.682 100.527 124.713 100.73 124.713C100.872 124.713 101.014 124.701 101.156 124.678C101.298 124.649 101.407 124.628 101.483 124.614L101.959 126.865C101.807 126.912 101.594 126.967 101.32 127.028C101.045 127.095 100.711 127.135 100.318 127.149C99.589 127.178 98.9498 127.08 98.4006 126.858C97.8561 126.635 97.4323 126.29 97.1293 125.821C96.8262 125.352 96.6771 124.76 96.6818 124.045V113.477ZM109.543 127.213C108.439 127.213 107.485 126.979 106.68 126.51C105.88 126.036 105.262 125.378 104.827 124.536C104.391 123.688 104.173 122.705 104.173 121.588C104.173 120.461 104.391 119.476 104.827 118.634C105.262 117.786 105.88 117.128 106.68 116.659C107.485 116.186 108.439 115.949 109.543 115.949C110.646 115.949 111.598 116.186 112.398 116.659C113.203 117.128 113.823 117.786 114.259 118.634C114.694 119.476 114.912 120.461 114.912 121.588C114.912 122.705 114.694 123.688 114.259 124.536C113.823 125.378 113.203 126.036 112.398 126.51C111.598 126.979 110.646 127.213 109.543 127.213ZM109.557 124.869C110.059 124.869 110.478 124.727 110.814 124.443C111.15 124.154 111.403 123.761 111.574 123.264C111.749 122.767 111.837 122.201 111.837 121.567C111.837 120.932 111.749 120.366 111.574 119.869C111.403 119.372 111.15 118.979 110.814 118.69C110.478 118.402 110.059 118.257 109.557 118.257C109.05 118.257 108.624 118.402 108.278 118.69C107.938 118.979 107.679 119.372 107.504 119.869C107.334 120.366 107.249 120.932 107.249 121.567C107.249 122.201 107.334 122.767 107.504 123.264C107.679 123.761 107.938 124.154 108.278 124.443C108.624 124.727 109.05 124.869 109.557 124.869ZM108.456 114.685L109.962 111.453H112.76L110.594 114.685H108.456ZM117.879 127V116.091H120.812V117.994H120.926C121.125 117.317 121.459 116.806 121.928 116.46C122.396 116.11 122.936 115.935 123.547 115.935C123.698 115.935 123.862 115.944 124.037 115.963C124.212 115.982 124.366 116.008 124.499 116.041V118.726C124.357 118.683 124.16 118.645 123.909 118.612C123.658 118.579 123.429 118.562 123.22 118.562C122.775 118.562 122.377 118.66 122.027 118.854C121.681 119.043 121.407 119.308 121.203 119.649C121.004 119.99 120.905 120.383 120.905 120.828V127H117.879ZM127.063 127V116.091H130.088V127H127.063ZM128.583 114.685C128.133 114.685 127.747 114.536 127.425 114.237C127.108 113.934 126.949 113.572 126.949 113.151C126.949 112.734 127.108 112.376 127.425 112.078C127.747 111.775 128.133 111.624 128.583 111.624C129.033 111.624 129.416 111.775 129.733 112.078C130.055 112.376 130.216 112.734 130.216 113.151C130.216 113.572 130.055 113.934 129.733 114.237C129.416 114.536 129.033 114.685 128.583 114.685ZM138.441 127.213C137.338 127.213 136.384 126.979 135.579 126.51C134.779 126.036 134.161 125.378 133.725 124.536C133.29 123.688 133.072 122.705 133.072 121.588C133.072 120.461 133.29 119.476 133.725 118.634C134.161 117.786 134.779 117.128 135.579 116.659C136.384 116.186 137.338 115.949 138.441 115.949C139.544 115.949 140.496 116.186 141.296 116.659C142.101 117.128 142.721 117.786 143.157 118.634C143.593 119.476 143.81 120.461 143.81 121.588C143.81 122.705 143.593 123.688 143.157 124.536C142.721 125.378 142.101 126.036 141.296 126.51C140.496 126.979 139.544 127.213 138.441 127.213ZM138.455 124.869C138.957 124.869 139.376 124.727 139.712 124.443C140.049 124.154 140.302 123.761 140.472 123.264C140.647 122.767 140.735 122.201 140.735 121.567C140.735 120.932 140.647 120.366 140.472 119.869C140.302 119.372 140.049 118.979 139.712 118.69C139.376 118.402 138.957 118.257 138.455 118.257C137.949 118.257 137.522 118.402 137.177 118.69C136.836 118.979 136.578 119.372 136.403 119.869C136.232 120.366 136.147 120.932 136.147 121.567C136.147 122.201 136.232 122.767 136.403 123.264C136.578 123.761 136.836 124.154 137.177 124.443C137.522 124.727 137.949 124.869 138.455 124.869Z" fill="white"/>
<path d="M19.5607 147V138.273H24.8278V139.21H20.6175V142.159H24.555V143.097H20.6175V146.062H24.896V147H19.5607ZM31.2326 141.92L30.3292 142.176C30.2724 142.026 30.1886 141.879 30.0778 141.737C29.9698 141.592 29.8221 141.473 29.6346 141.379C29.4471 141.286 29.207 141.239 28.9144 141.239C28.5138 141.239 28.18 141.331 27.913 141.516C27.6488 141.697 27.5167 141.929 27.5167 142.21C27.5167 142.46 27.6076 142.658 27.7894 142.803C27.9712 142.947 28.2553 143.068 28.6417 143.165L29.6133 143.403C30.1985 143.545 30.6346 143.763 30.9215 144.055C31.2085 144.345 31.3519 144.719 31.3519 145.176C31.3519 145.551 31.244 145.886 31.0281 146.182C30.815 146.477 30.5167 146.71 30.1332 146.881C29.7496 147.051 29.3036 147.136 28.7951 147.136C28.1275 147.136 27.5749 146.991 27.1374 146.702C26.6999 146.412 26.4229 145.989 26.3065 145.432L27.261 145.193C27.3519 145.545 27.5238 145.81 27.7766 145.986C28.0323 146.162 28.3661 146.25 28.7781 146.25C29.2468 146.25 29.619 146.151 29.8945 145.952C30.1729 145.75 30.3121 145.509 30.3121 145.227C30.3121 145 30.2326 144.81 30.0735 144.656C29.9144 144.5 29.6701 144.384 29.3406 144.307L28.2496 144.051C27.6502 143.909 27.2099 143.689 26.9286 143.391C26.6502 143.089 26.511 142.713 26.511 142.261C26.511 141.892 26.6147 141.565 26.8221 141.281C27.0323 140.997 27.3178 140.774 27.6786 140.612C28.0423 140.45 28.4542 140.369 28.9144 140.369C29.5621 140.369 30.0707 140.511 30.44 140.795C30.8121 141.08 31.0763 141.455 31.2326 141.92ZM35.7124 140.455V141.307H32.3203V140.455H35.7124ZM33.3089 138.886H34.3146V145.125C34.3146 145.409 34.3558 145.622 34.4382 145.764C34.5234 145.903 34.6314 145.997 34.7621 146.045C34.8956 146.091 35.0362 146.114 35.1839 146.114C35.2947 146.114 35.3857 146.108 35.4567 146.097C35.5277 146.082 35.5845 146.071 35.6271 146.062L35.8317 146.966C35.7635 146.991 35.6683 147.017 35.5462 147.043C35.424 147.071 35.2692 147.085 35.0817 147.085C34.7976 147.085 34.5192 147.024 34.2464 146.902C33.9766 146.78 33.7521 146.594 33.5732 146.344C33.397 146.094 33.3089 145.778 33.3089 145.398V138.886ZM39.8991 147.136C39.2685 147.136 38.7244 146.997 38.267 146.719C37.8125 146.438 37.4616 146.045 37.2145 145.543C36.9702 145.037 36.848 144.449 36.848 143.778C36.848 143.108 36.9702 142.517 37.2145 142.006C37.4616 141.491 37.8054 141.091 38.2457 140.804C38.6889 140.514 39.206 140.369 39.7969 140.369C40.1378 140.369 40.4744 140.426 40.8068 140.54C41.1392 140.653 41.4418 140.838 41.7145 141.094C41.9872 141.347 42.2045 141.682 42.3665 142.099C42.5284 142.517 42.6094 143.031 42.6094 143.642V144.068H37.5639V143.199H41.5866C41.5866 142.83 41.5128 142.5 41.3651 142.21C41.2202 141.92 41.0128 141.692 40.7429 141.524C40.4759 141.357 40.1605 141.273 39.7969 141.273C39.3963 141.273 39.0497 141.372 38.7571 141.571C38.4673 141.767 38.2443 142.023 38.0881 142.338C37.9318 142.653 37.8537 142.991 37.8537 143.352V143.932C37.8537 144.426 37.9389 144.845 38.1094 145.189C38.2827 145.53 38.5227 145.79 38.8295 145.969C39.1364 146.145 39.4929 146.233 39.8991 146.233C40.1634 146.233 40.402 146.196 40.6151 146.122C40.831 146.045 41.017 145.932 41.1733 145.781C41.3295 145.628 41.4503 145.437 41.5355 145.21L42.5071 145.483C42.4048 145.812 42.233 146.102 41.9915 146.352C41.75 146.599 41.4517 146.793 41.0966 146.932C40.7415 147.068 40.3423 147.136 39.8991 147.136ZM47.5142 147V140.455H48.5199V147H47.5142ZM47.5653 139.568L48.6051 137.591H49.7812L48.4517 139.568H47.5653ZM53.021 147.136C52.4073 147.136 51.8789 146.991 51.4357 146.702C50.9925 146.412 50.6516 146.013 50.413 145.504C50.1744 144.996 50.055 144.415 50.055 143.761C50.055 143.097 50.1772 142.51 50.4215 142.001C50.6687 141.49 51.0124 141.091 51.4528 140.804C51.896 140.514 52.413 140.369 53.0039 140.369C53.4641 140.369 53.8789 140.455 54.2482 140.625C54.6175 140.795 54.9201 141.034 55.1559 141.341C55.3917 141.648 55.538 142.006 55.5948 142.415H54.5891C54.5124 142.116 54.342 141.852 54.0778 141.622C53.8164 141.389 53.4641 141.273 53.021 141.273C52.6289 141.273 52.2852 141.375 51.9897 141.58C51.6971 141.781 51.4684 142.067 51.3036 142.436C51.1417 142.803 51.0607 143.233 51.0607 143.727C51.0607 144.233 51.1403 144.673 51.2994 145.048C51.4613 145.423 51.6886 145.714 51.9812 145.922C52.2766 146.129 52.6232 146.233 53.021 146.233C53.2823 146.233 53.5195 146.188 53.7326 146.097C53.9457 146.006 54.1261 145.875 54.2738 145.705C54.4215 145.534 54.5266 145.33 54.5891 145.091H55.5948C55.538 145.477 55.3974 145.825 55.1729 146.135C54.9513 146.442 54.6573 146.686 54.2908 146.868C53.9272 147.047 53.5039 147.136 53.021 147.136ZM59.7241 147.136C59.1332 147.136 58.6147 146.996 58.1687 146.714C57.7255 146.433 57.3789 146.04 57.1289 145.534C56.8817 145.028 56.7582 144.437 56.7582 143.761C56.7582 143.08 56.8817 142.484 57.1289 141.976C57.3789 141.467 57.7255 141.072 58.1687 140.791C58.6147 140.51 59.1332 140.369 59.7241 140.369C60.315 140.369 60.832 140.51 61.2752 140.791C61.7212 141.072 62.0678 141.467 62.315 141.976C62.565 142.484 62.69 143.08 62.69 143.761C62.69 144.437 62.565 145.028 62.315 145.534C62.0678 146.04 61.7212 146.433 61.2752 146.714C60.832 146.996 60.315 147.136 59.7241 147.136ZM59.7241 146.233C60.1729 146.233 60.5423 146.118 60.832 145.888C61.1218 145.658 61.3363 145.355 61.4755 144.98C61.6147 144.605 61.6843 144.199 61.6843 143.761C61.6843 143.324 61.6147 142.916 61.4755 142.538C61.3363 142.161 61.1218 141.855 60.832 141.622C60.5423 141.389 60.1729 141.273 59.7241 141.273C59.2752 141.273 58.9059 141.389 58.6161 141.622C58.3263 141.855 58.1119 142.161 57.9727 142.538C57.8335 142.916 57.7638 143.324 57.7638 143.761C57.7638 144.199 57.8335 144.605 57.9727 144.98C58.1119 145.355 58.3263 145.658 58.6161 145.888C58.9059 146.118 59.2752 146.233 59.7241 146.233ZM65.2308 143.062V147H64.2251V140.455H65.1967V141.477H65.282C65.4354 141.145 65.6683 140.878 65.9808 140.676C66.2933 140.472 66.6967 140.369 67.1911 140.369C67.6342 140.369 68.022 140.46 68.3544 140.642C68.6868 140.821 68.9453 141.094 69.13 141.46C69.3146 141.824 69.407 142.284 69.407 142.841V147H68.4013V142.909C68.4013 142.395 68.2678 141.994 68.0007 141.707C67.7337 141.418 67.3672 141.273 66.9013 141.273C66.5803 141.273 66.2933 141.342 66.0405 141.482C65.7905 141.621 65.593 141.824 65.4482 142.091C65.3033 142.358 65.2308 142.682 65.2308 143.062ZM73.989 147.136C73.3583 147.136 72.8143 146.997 72.3569 146.719C71.9023 146.438 71.5515 146.045 71.3043 145.543C71.06 145.037 70.9379 144.449 70.9379 143.778C70.9379 143.108 71.06 142.517 71.3043 142.006C71.5515 141.491 71.8952 141.091 72.3356 140.804C72.7788 140.514 73.2958 140.369 73.8867 140.369C74.2276 140.369 74.5643 140.426 74.8967 140.54C75.229 140.653 75.5316 140.838 75.8043 141.094C76.0771 141.347 76.2944 141.682 76.4563 142.099C76.6183 142.517 76.6992 143.031 76.6992 143.642V144.068H71.6538V143.199H75.6765C75.6765 142.83 75.6026 142.5 75.4549 142.21C75.31 141.92 75.1026 141.692 74.8327 141.524C74.5657 141.357 74.2504 141.273 73.8867 141.273C73.4862 141.273 73.1396 141.372 72.8469 141.571C72.5572 141.767 72.3342 142.023 72.1779 142.338C72.0217 142.653 71.9435 142.991 71.9435 143.352V143.932C71.9435 144.426 72.0288 144.845 72.1992 145.189C72.3725 145.53 72.6126 145.79 72.9194 145.969C73.2262 146.145 73.5827 146.233 73.989 146.233C74.2532 146.233 74.4918 146.196 74.7049 146.122C74.9208 146.045 75.1069 145.932 75.2631 145.781C75.4194 145.628 75.5401 145.437 75.6254 145.21L76.5969 145.483C76.4947 145.812 76.3228 146.102 76.0813 146.352C75.8398 146.599 75.5415 146.793 75.1864 146.932C74.8313 147.068 74.4322 147.136 73.989 147.136ZM81.604 147V140.455H82.6097V147H81.604ZM82.1154 139.364C81.9194 139.364 81.7504 139.297 81.6083 139.163C81.4691 139.03 81.3995 138.869 81.3995 138.682C81.3995 138.494 81.4691 138.334 81.6083 138.2C81.7504 138.067 81.9194 138 82.1154 138C82.3114 138 82.479 138.067 82.6183 138.2C82.7603 138.334 82.8313 138.494 82.8313 138.682C82.8313 138.869 82.7603 139.03 82.6183 139.163C82.479 139.297 82.3114 139.364 82.1154 139.364ZM85.4574 143.062V147H84.4517V140.455H85.4233V141.477H85.5085C85.6619 141.145 85.8949 140.878 86.2074 140.676C86.5199 140.472 86.9233 140.369 87.4176 140.369C87.8608 140.369 88.2486 140.46 88.581 140.642C88.9134 140.821 89.1719 141.094 89.3565 141.46C89.5412 141.824 89.6335 142.284 89.6335 142.841V147H88.6278V142.909C88.6278 142.395 88.4943 141.994 88.2273 141.707C87.9602 141.418 87.5938 141.273 87.1278 141.273C86.8068 141.273 86.5199 141.342 86.267 141.482C86.017 141.621 85.8196 141.824 85.6747 142.091C85.5298 142.358 85.4574 142.682 85.4574 143.062ZM93.9428 147.136C93.3974 147.136 92.9158 146.999 92.4982 146.723C92.0806 146.445 91.7539 146.053 91.5181 145.547C91.2823 145.038 91.1644 144.438 91.1644 143.744C91.1644 143.057 91.2823 142.46 91.5181 141.955C91.7539 141.449 92.082 141.058 92.5025 140.783C92.9229 140.507 93.4087 140.369 93.9599 140.369C94.386 140.369 94.7227 140.44 94.9698 140.582C95.2198 140.722 95.4102 140.881 95.5408 141.06C95.6744 141.236 95.7781 141.381 95.8519 141.494H95.9371V138.273H96.9428V147H95.9712V145.994H95.8519C95.7781 146.114 95.6729 146.264 95.5366 146.446C95.4002 146.625 95.2056 146.786 94.9528 146.928C94.6999 147.067 94.3633 147.136 93.9428 147.136ZM94.0792 146.233C94.4826 146.233 94.8235 146.128 95.1019 145.918C95.3803 145.705 95.592 145.411 95.7369 145.036C95.8817 144.658 95.9542 144.222 95.9542 143.727C95.9542 143.239 95.8832 142.811 95.7411 142.445C95.5991 142.075 95.3888 141.788 95.1104 141.584C94.832 141.376 94.4883 141.273 94.0792 141.273C93.6531 141.273 93.2979 141.382 93.0138 141.601C92.7326 141.817 92.521 142.111 92.3789 142.483C92.2397 142.852 92.1701 143.267 92.1701 143.727C92.1701 144.193 92.2411 144.616 92.3832 144.997C92.5281 145.375 92.7411 145.676 93.0224 145.901C93.3065 146.122 93.6587 146.233 94.0792 146.233ZM98.9244 147V140.455H99.93V147H98.9244ZM99.4357 139.364C99.2397 139.364 99.0707 139.297 98.9286 139.163C98.7894 139.03 98.7198 138.869 98.7198 138.682C98.7198 138.494 98.7894 138.334 98.9286 138.2C99.0707 138.067 99.2397 138 99.4357 138C99.6317 138 99.7994 138.067 99.9386 138.2C100.081 138.334 100.152 138.494 100.152 138.682C100.152 138.869 100.081 139.03 99.9386 139.163C99.7994 139.297 99.6317 139.364 99.4357 139.364ZM104.431 147.136C103.817 147.136 103.289 146.991 102.846 146.702C102.403 146.412 102.062 146.013 101.823 145.504C101.585 144.996 101.465 144.415 101.465 143.761C101.465 143.097 101.587 142.51 101.832 142.001C102.079 141.49 102.423 141.091 102.863 140.804C103.306 140.514 103.823 140.369 104.414 140.369C104.874 140.369 105.289 140.455 105.658 140.625C106.028 140.795 106.33 141.034 106.566 141.341C106.802 141.648 106.948 142.006 107.005 142.415H105.999C105.923 142.116 105.752 141.852 105.488 141.622C105.227 141.389 104.874 141.273 104.431 141.273C104.039 141.273 103.695 141.375 103.4 141.58C103.107 141.781 102.879 142.067 102.714 142.436C102.552 142.803 102.471 143.233 102.471 143.727C102.471 144.233 102.55 144.673 102.71 145.048C102.871 145.423 103.099 145.714 103.391 145.922C103.687 146.129 104.033 146.233 104.431 146.233C104.692 146.233 104.93 146.188 105.143 146.097C105.356 146.006 105.536 145.875 105.684 145.705C105.832 145.534 105.937 145.33 105.999 145.091H107.005C106.948 145.477 106.808 145.825 106.583 146.135C106.362 146.442 106.067 146.686 105.701 146.868C105.337 147.047 104.914 147.136 104.431 147.136ZM110.401 147.153C109.987 147.153 109.61 147.075 109.272 146.919C108.934 146.76 108.665 146.531 108.467 146.233C108.268 145.932 108.168 145.568 108.168 145.142C108.168 144.767 108.242 144.463 108.39 144.23C108.538 143.994 108.735 143.81 108.982 143.676C109.229 143.543 109.502 143.443 109.8 143.378C110.102 143.31 110.404 143.256 110.708 143.216C111.106 143.165 111.428 143.126 111.675 143.101C111.925 143.072 112.107 143.026 112.221 142.96C112.337 142.895 112.396 142.781 112.396 142.619V142.585C112.396 142.165 112.281 141.838 112.05 141.605C111.823 141.372 111.478 141.256 111.015 141.256C110.535 141.256 110.158 141.361 109.886 141.571C109.613 141.781 109.421 142.006 109.31 142.244L108.356 141.903C108.526 141.506 108.754 141.196 109.038 140.974C109.325 140.75 109.637 140.594 109.975 140.506C110.316 140.415 110.651 140.369 110.981 140.369C111.191 140.369 111.433 140.395 111.705 140.446C111.981 140.494 112.246 140.595 112.502 140.749C112.761 140.902 112.975 141.134 113.146 141.443C113.316 141.753 113.401 142.168 113.401 142.688V147H112.396V146.114H112.344C112.276 146.256 112.163 146.408 112.004 146.57C111.844 146.732 111.633 146.869 111.369 146.983C111.104 147.097 110.782 147.153 110.401 147.153ZM110.555 146.25C110.952 146.25 111.288 146.172 111.56 146.016C111.836 145.859 112.043 145.658 112.183 145.411C112.325 145.163 112.396 144.903 112.396 144.631V143.71C112.353 143.761 112.259 143.808 112.114 143.851C111.972 143.891 111.808 143.926 111.62 143.957C111.435 143.986 111.255 144.011 111.079 144.034C110.906 144.054 110.765 144.071 110.657 144.085C110.396 144.119 110.151 144.175 109.924 144.251C109.7 144.325 109.518 144.437 109.379 144.588C109.242 144.736 109.174 144.937 109.174 145.193C109.174 145.543 109.303 145.807 109.562 145.986C109.823 146.162 110.154 146.25 110.555 146.25ZM123.078 149.455V145.994H122.993C122.919 146.114 122.814 146.264 122.677 146.446C122.541 146.625 122.346 146.786 122.093 146.928C121.841 147.067 121.504 147.136 121.083 147.136C120.538 147.136 120.056 146.999 119.639 146.723C119.221 146.445 118.895 146.053 118.659 145.547C118.423 145.038 118.305 144.438 118.305 143.744C118.305 143.057 118.423 142.46 118.659 141.955C118.895 141.449 119.223 141.058 119.643 140.783C120.064 140.507 120.549 140.369 121.1 140.369C121.527 140.369 121.863 140.44 122.11 140.582C122.36 140.722 122.551 140.881 122.681 141.06C122.815 141.236 122.919 141.381 122.993 141.494H123.112V140.455H124.083V149.455H123.078ZM121.22 146.233C121.623 146.233 121.964 146.128 122.243 145.918C122.521 145.705 122.733 145.411 122.877 145.036C123.022 144.658 123.095 144.222 123.095 143.727C123.095 143.239 123.024 142.811 122.882 142.445C122.74 142.075 122.529 141.788 122.251 141.584C121.973 141.376 121.629 141.273 121.22 141.273C120.794 141.273 120.439 141.382 120.154 141.601C119.873 141.817 119.662 142.111 119.52 142.483C119.38 142.852 119.311 143.267 119.311 143.727C119.311 144.193 119.382 144.616 119.524 144.997C119.669 145.375 119.882 145.676 120.163 145.901C120.447 146.122 120.799 146.233 121.22 146.233ZM130.049 144.324V140.455H131.055V147H130.049V145.892H129.981C129.828 146.224 129.589 146.507 129.265 146.74C128.941 146.97 128.532 147.085 128.038 147.085C127.629 147.085 127.265 146.996 126.947 146.817C126.629 146.635 126.379 146.362 126.197 145.999C126.015 145.632 125.924 145.17 125.924 144.614V140.455H126.93V144.545C126.93 145.023 127.064 145.403 127.331 145.688C127.6 145.972 127.944 146.114 128.362 146.114C128.612 146.114 128.866 146.05 129.125 145.922C129.386 145.794 129.605 145.598 129.781 145.334C129.96 145.07 130.049 144.733 130.049 144.324ZM135.641 147.136C135.011 147.136 134.467 146.997 134.009 146.719C133.555 146.438 133.204 146.045 132.957 145.543C132.712 145.037 132.59 144.449 132.59 143.778C132.59 143.108 132.712 142.517 132.957 142.006C133.204 141.491 133.548 141.091 133.988 140.804C134.431 140.514 134.948 140.369 135.539 140.369C135.88 140.369 136.217 140.426 136.549 140.54C136.881 140.653 137.184 140.838 137.457 141.094C137.729 141.347 137.947 141.682 138.109 142.099C138.271 142.517 138.352 143.031 138.352 143.642V144.068H133.306V143.199H137.329C137.329 142.83 137.255 142.5 137.107 142.21C136.962 141.92 136.755 141.692 136.485 141.524C136.218 141.357 135.903 141.273 135.539 141.273C135.138 141.273 134.792 141.372 134.499 141.571C134.21 141.767 133.987 142.023 133.83 142.338C133.674 142.653 133.596 142.991 133.596 143.352V143.932C133.596 144.426 133.681 144.845 133.852 145.189C134.025 145.53 134.265 145.79 134.572 145.969C134.879 146.145 135.235 146.233 135.641 146.233C135.906 146.233 136.144 146.196 136.357 146.122C136.573 146.045 136.759 145.932 136.915 145.781C137.072 145.628 137.192 145.437 137.278 145.21L138.249 145.483C138.147 145.812 137.975 146.102 137.734 146.352C137.492 146.599 137.194 146.793 136.839 146.932C136.484 147.068 136.085 147.136 135.641 147.136ZM145.915 147.136C145.325 147.136 144.806 146.996 144.36 146.714C143.917 146.433 143.57 146.04 143.32 145.534C143.073 145.028 142.95 144.437 142.95 143.761C142.95 143.08 143.073 142.484 143.32 141.976C143.57 141.467 143.917 141.072 144.36 140.791C144.806 140.51 145.325 140.369 145.915 140.369C146.506 140.369 147.023 140.51 147.467 140.791C147.913 141.072 148.259 141.467 148.506 141.976C148.756 142.484 148.881 143.08 148.881 143.761C148.881 144.437 148.756 145.028 148.506 145.534C148.259 146.04 147.913 146.433 147.467 146.714C147.023 146.996 146.506 147.136 145.915 147.136ZM145.915 146.233C146.364 146.233 146.734 146.118 147.023 145.888C147.313 145.658 147.528 145.355 147.667 144.98C147.806 144.605 147.876 144.199 147.876 143.761C147.876 143.324 147.806 142.916 147.667 142.538C147.528 142.161 147.313 141.855 147.023 141.622C146.734 141.389 146.364 141.273 145.915 141.273C145.467 141.273 145.097 141.389 144.808 141.622C144.518 141.855 144.303 142.161 144.164 142.538C144.025 142.916 143.955 143.324 143.955 143.761C143.955 144.199 144.025 144.605 144.164 144.98C144.303 145.355 144.518 145.658 144.808 145.888C145.097 146.118 145.467 146.233 145.915 146.233ZM21.9897 162.136C21.3761 162.136 20.8477 161.991 20.4045 161.702C19.9613 161.412 19.6204 161.013 19.3817 160.504C19.1431 159.996 19.0238 159.415 19.0238 158.761C19.0238 158.097 19.146 157.51 19.3903 157.001C19.6374 156.49 19.9812 156.091 20.4215 155.804C20.8647 155.514 21.3817 155.369 21.9727 155.369C22.4329 155.369 22.8477 155.455 23.217 155.625C23.5863 155.795 23.8888 156.034 24.1246 156.341C24.3604 156.648 24.5067 157.006 24.5636 157.415H23.5579C23.4812 157.116 23.3107 156.852 23.0465 156.622C22.7852 156.389 22.4329 156.273 21.9897 156.273C21.5977 156.273 21.2539 156.375 20.9585 156.58C20.6658 156.781 20.4371 157.067 20.2724 157.436C20.1104 157.803 20.0295 158.233 20.0295 158.727C20.0295 159.233 20.109 159.673 20.2681 160.048C20.43 160.423 20.6573 160.714 20.9499 160.922C21.2454 161.129 21.592 161.233 21.9897 161.233C22.2511 161.233 22.4883 161.188 22.7013 161.097C22.9144 161.006 23.0948 160.875 23.2425 160.705C23.3903 160.534 23.4954 160.33 23.5579 160.091H24.5636C24.5067 160.477 24.3661 160.825 24.1417 161.135C23.9201 161.442 23.6261 161.686 23.2596 161.868C22.896 162.047 22.4727 162.136 21.9897 162.136ZM27.9599 162.153C27.5451 162.153 27.1687 162.075 26.8306 161.919C26.4925 161.76 26.2241 161.531 26.0252 161.233C25.8263 160.932 25.7269 160.568 25.7269 160.142C25.7269 159.767 25.8008 159.463 25.9485 159.23C26.0962 158.994 26.2937 158.81 26.5408 158.676C26.788 158.543 27.0607 158.443 27.359 158.378C27.6602 158.31 27.9627 158.256 28.2667 158.216C28.6644 158.165 28.9869 158.126 29.234 158.101C29.484 158.072 29.6658 158.026 29.7795 157.96C29.896 157.895 29.9542 157.781 29.9542 157.619V157.585C29.9542 157.165 29.8391 156.838 29.609 156.605C29.3817 156.372 29.0366 156.256 28.5735 156.256C28.0934 156.256 27.717 156.361 27.4442 156.571C27.1715 156.781 26.9798 157.006 26.869 157.244L25.9144 156.903C26.0849 156.506 26.3121 156.196 26.5962 155.974C26.8832 155.75 27.1957 155.594 27.5337 155.506C27.8746 155.415 28.2099 155.369 28.5394 155.369C28.7496 155.369 28.9911 155.395 29.2638 155.446C29.5394 155.494 29.805 155.595 30.0607 155.749C30.3192 155.902 30.5337 156.134 30.7042 156.443C30.8746 156.753 30.9599 157.168 30.9599 157.688V162H29.9542V161.114H29.9031C29.8349 161.256 29.7212 161.408 29.5621 161.57C29.4031 161.732 29.1914 161.869 28.9272 161.983C28.663 162.097 28.3406 162.153 27.9599 162.153ZM28.1133 161.25C28.511 161.25 28.8462 161.172 29.119 161.016C29.3945 160.859 29.6019 160.658 29.7411 160.411C29.8832 160.163 29.9542 159.903 29.9542 159.631V158.71C29.9116 158.761 29.8178 158.808 29.6729 158.851C29.5309 158.891 29.3661 158.926 29.1786 158.957C28.994 158.986 28.8136 159.011 28.6374 159.034C28.4641 159.054 28.3235 159.071 28.2156 159.085C27.9542 159.119 27.7099 159.175 27.4826 159.251C27.2582 159.325 27.0763 159.437 26.9371 159.588C26.8008 159.736 26.7326 159.937 26.7326 160.193C26.7326 160.543 26.8619 160.807 27.1204 160.986C27.3817 161.162 27.7127 161.25 28.1133 161.25ZM32.7955 162V155.455H33.767V156.477H33.8523C33.9886 156.128 34.2088 155.857 34.5128 155.663C34.8168 155.467 35.1818 155.369 35.608 155.369C36.0398 155.369 36.3991 155.467 36.6861 155.663C36.9759 155.857 37.2017 156.128 37.3636 156.477H37.4318C37.5994 156.139 37.8509 155.871 38.1861 155.672C38.5213 155.47 38.9233 155.369 39.392 155.369C39.9773 155.369 40.456 155.553 40.8281 155.919C41.2003 156.283 41.3864 156.849 41.3864 157.619V162H40.3807V157.619C40.3807 157.136 40.2486 156.791 39.9844 156.584C39.7202 156.376 39.4091 156.273 39.0511 156.273C38.5909 156.273 38.2344 156.412 37.9815 156.69C37.7287 156.966 37.6023 157.315 37.6023 157.739V162H36.5795V157.517C36.5795 157.145 36.4588 156.845 36.2173 156.618C35.9759 156.388 35.6648 156.273 35.2841 156.273C35.0227 156.273 34.7784 156.342 34.5511 156.482C34.3267 156.621 34.1449 156.814 34.0057 157.061C33.8693 157.305 33.8011 157.588 33.8011 157.909V162H32.7955ZM43.2251 164.455V155.455H44.1967V156.494H44.3161C44.3899 156.381 44.4922 156.236 44.6229 156.06C44.7564 155.881 44.9467 155.722 45.1939 155.582C45.4439 155.44 45.782 155.369 46.2081 155.369C46.7592 155.369 47.245 155.507 47.6655 155.783C48.0859 156.058 48.4141 156.449 48.6499 156.955C48.8857 157.46 49.0036 158.057 49.0036 158.744C49.0036 159.438 48.8857 160.038 48.6499 160.547C48.4141 161.053 48.0874 161.445 47.6697 161.723C47.2521 161.999 46.7706 162.136 46.2251 162.136C45.8047 162.136 45.468 162.067 45.2152 161.928C44.9624 161.786 44.7678 161.625 44.6314 161.446C44.495 161.264 44.3899 161.114 44.3161 160.994H44.2308V164.455H43.2251ZM44.2138 158.727C44.2138 159.222 44.2862 159.658 44.4311 160.036C44.576 160.411 44.7876 160.705 45.0661 160.918C45.3445 161.128 45.6854 161.233 46.0888 161.233C46.5092 161.233 46.8601 161.122 47.1413 160.901C47.4254 160.676 47.6385 160.375 47.7805 159.997C47.9254 159.616 47.9979 159.193 47.9979 158.727C47.9979 158.267 47.9268 157.852 47.7848 157.483C47.6456 157.111 47.4339 156.817 47.1499 156.601C46.8686 156.382 46.5149 156.273 46.0888 156.273C45.6797 156.273 45.3359 156.376 45.0575 156.584C44.7791 156.788 44.5689 157.075 44.4268 157.445C44.2848 157.811 44.2138 158.239 44.2138 158.727ZM53.1967 162.136C52.6058 162.136 52.0874 161.996 51.6413 161.714C51.1982 161.433 50.8516 161.04 50.6016 160.534C50.3544 160.028 50.2308 159.437 50.2308 158.761C50.2308 158.08 50.3544 157.484 50.6016 156.976C50.8516 156.467 51.1982 156.072 51.6413 155.791C52.0874 155.51 52.6058 155.369 53.1967 155.369C53.7876 155.369 54.3047 155.51 54.7479 155.791C55.1939 156.072 55.5405 156.467 55.7876 156.976C56.0376 157.484 56.1626 158.08 56.1626 158.761C56.1626 159.437 56.0376 160.028 55.7876 160.534C55.5405 161.04 55.1939 161.433 54.7479 161.714C54.3047 161.996 53.7876 162.136 53.1967 162.136ZM53.1967 161.233C53.6456 161.233 54.0149 161.118 54.3047 160.888C54.5945 160.658 54.8089 160.355 54.9482 159.98C55.0874 159.605 55.157 159.199 55.157 158.761C55.157 158.324 55.0874 157.916 54.9482 157.538C54.8089 157.161 54.5945 156.855 54.3047 156.622C54.0149 156.389 53.6456 156.273 53.1967 156.273C52.7479 156.273 52.3786 156.389 52.0888 156.622C51.799 156.855 51.5845 157.161 51.4453 157.538C51.3061 157.916 51.2365 158.324 51.2365 158.761C51.2365 159.199 51.3061 159.605 51.4453 159.98C51.5845 160.355 51.799 160.658 52.0888 160.888C52.3786 161.118 52.7479 161.233 53.1967 161.233ZM63.8171 162.136C63.1864 162.136 62.6424 161.997 62.185 161.719C61.7305 161.438 61.3796 161.045 61.1325 160.543C60.8881 160.037 60.766 159.449 60.766 158.778C60.766 158.108 60.8881 157.517 61.1325 157.006C61.3796 156.491 61.7234 156.091 62.1637 155.804C62.6069 155.514 63.1239 155.369 63.7148 155.369C64.0558 155.369 64.3924 155.426 64.7248 155.54C65.0572 155.653 65.3597 155.838 65.6325 156.094C65.9052 156.347 66.1225 156.682 66.2844 157.099C66.4464 157.517 66.5273 158.031 66.5273 158.642V159.068H61.4819V158.199H65.5046C65.5046 157.83 65.4308 157.5 65.283 157.21C65.1381 156.92 64.9308 156.692 64.6609 156.524C64.3938 156.357 64.0785 156.273 63.7148 156.273C63.3143 156.273 62.9677 156.372 62.6751 156.571C62.3853 156.767 62.1623 157.023 62.006 157.338C61.8498 157.653 61.7717 157.991 61.7717 158.352V158.932C61.7717 159.426 61.8569 159.845 62.0273 160.189C62.2006 160.53 62.4407 160.79 62.7475 160.969C63.0543 161.145 63.4109 161.233 63.8171 161.233C64.0813 161.233 64.32 161.196 64.533 161.122C64.7489 161.045 64.935 160.932 65.0913 160.781C65.2475 160.628 65.3683 160.437 65.4535 160.21L66.4251 160.483C66.3228 160.812 66.1509 161.102 65.9094 161.352C65.668 161.599 65.3697 161.793 65.0146 161.932C64.6594 162.068 64.2603 162.136 63.8171 162.136ZM63.2035 154.568L64.2433 152.591H65.4194L64.0898 154.568H63.2035ZM74.0913 162.136C73.5004 162.136 72.9819 161.996 72.5359 161.714C72.0927 161.433 71.7461 161.04 71.4961 160.534C71.2489 160.028 71.1254 159.437 71.1254 158.761C71.1254 158.08 71.2489 157.484 71.4961 156.976C71.7461 156.467 72.0927 156.072 72.5359 155.791C72.9819 155.51 73.5004 155.369 74.0913 155.369C74.6822 155.369 75.1992 155.51 75.6424 155.791C76.0884 156.072 76.435 156.467 76.6822 156.976C76.9322 157.484 77.0572 158.08 77.0572 158.761C77.0572 159.437 76.9322 160.028 76.6822 160.534C76.435 161.04 76.0884 161.433 75.6424 161.714C75.1992 161.996 74.6822 162.136 74.0913 162.136ZM74.0913 161.233C74.5401 161.233 74.9094 161.118 75.1992 160.888C75.489 160.658 75.7035 160.355 75.8427 159.98C75.9819 159.605 76.0515 159.199 76.0515 158.761C76.0515 158.324 75.9819 157.916 75.8427 157.538C75.7035 157.161 75.489 156.855 75.1992 156.622C74.9094 156.389 74.5401 156.273 74.0913 156.273C73.6424 156.273 73.2731 156.389 72.9833 156.622C72.6935 156.855 72.479 157.161 72.3398 157.538C72.2006 157.916 72.131 158.324 72.131 158.761C72.131 159.199 72.2006 159.605 72.3398 159.98C72.479 160.355 72.6935 160.658 72.9833 160.888C73.2731 161.118 73.6424 161.233 74.0913 161.233ZM78.7287 162V153.273H79.7344V156.494H79.8196C79.8935 156.381 79.9957 156.236 80.1264 156.06C80.2599 155.881 80.4503 155.722 80.6974 155.582C80.9474 155.44 81.2855 155.369 81.7116 155.369C82.2628 155.369 82.7486 155.507 83.169 155.783C83.5895 156.058 83.9176 156.449 84.1534 156.955C84.3892 157.46 84.5071 158.057 84.5071 158.744C84.5071 159.438 84.3892 160.038 84.1534 160.547C83.9176 161.053 83.5909 161.445 83.1733 161.723C82.7557 161.999 82.2741 162.136 81.7287 162.136C81.3082 162.136 80.9716 162.067 80.7188 161.928C80.4659 161.786 80.2713 161.625 80.1349 161.446C79.9986 161.264 79.8935 161.114 79.8196 160.994H79.7003V162H78.7287ZM79.7173 158.727C79.7173 159.222 79.7898 159.658 79.9347 160.036C80.0795 160.411 80.2912 160.705 80.5696 160.918C80.848 161.128 81.1889 161.233 81.5923 161.233C82.0128 161.233 82.3636 161.122 82.6449 160.901C82.929 160.676 83.142 160.375 83.2841 159.997C83.429 159.616 83.5014 159.193 83.5014 158.727C83.5014 158.267 83.4304 157.852 83.2884 157.483C83.1491 157.111 82.9375 156.817 82.6534 156.601C82.3722 156.382 82.0185 156.273 81.5923 156.273C81.1832 156.273 80.8395 156.376 80.5611 156.584C80.2827 156.788 80.0724 157.075 79.9304 157.445C79.7884 157.811 79.7173 158.239 79.7173 158.727ZM86.0455 162V155.455H87.017V156.443H87.0852C87.2045 156.119 87.4205 155.857 87.733 155.655C88.0455 155.453 88.3977 155.352 88.7898 155.352C88.8636 155.352 88.956 155.354 89.0668 155.357C89.1776 155.359 89.2614 155.364 89.3182 155.369V156.392C89.2841 156.384 89.206 156.371 89.0838 156.354C88.9645 156.334 88.8381 156.324 88.7045 156.324C88.3864 156.324 88.1023 156.391 87.8523 156.524C87.6051 156.655 87.4091 156.837 87.2642 157.07C87.1222 157.3 87.0511 157.562 87.0511 157.858V162H86.0455ZM90.5103 162V155.455H91.516V162H90.5103ZM91.0217 154.364C90.8256 154.364 90.6566 154.297 90.5146 154.163C90.3754 154.03 90.3058 153.869 90.3058 153.682C90.3058 153.494 90.3754 153.334 90.5146 153.2C90.6566 153.067 90.8256 153 91.0217 153C91.2177 153 91.3853 153.067 91.5245 153.2C91.6665 153.334 91.7376 153.494 91.7376 153.682C91.7376 153.869 91.6665 154.03 91.5245 154.163C91.3853 154.297 91.2177 154.364 91.0217 154.364ZM96 164.591C95.5142 164.591 95.0966 164.528 94.7472 164.403C94.3977 164.281 94.1065 164.119 93.8736 163.918C93.6435 163.719 93.4602 163.506 93.3239 163.278L94.125 162.716C94.2159 162.835 94.331 162.972 94.4702 163.125C94.6094 163.281 94.7997 163.416 95.0412 163.53C95.2855 163.646 95.6051 163.705 96 163.705C96.5284 163.705 96.9645 163.577 97.3082 163.321C97.652 163.065 97.8239 162.665 97.8239 162.119V160.79H97.7386C97.6648 160.909 97.5597 161.057 97.4233 161.233C97.2898 161.406 97.0966 161.561 96.8438 161.697C96.5938 161.831 96.2557 161.898 95.8295 161.898C95.3011 161.898 94.8267 161.773 94.4062 161.523C93.9886 161.273 93.6577 160.909 93.4134 160.432C93.1719 159.955 93.0511 159.375 93.0511 158.693C93.0511 158.023 93.169 157.439 93.4048 156.942C93.6406 156.442 93.9688 156.055 94.3892 155.783C94.8097 155.507 95.2955 155.369 95.8466 155.369C96.2727 155.369 96.6108 155.44 96.8608 155.582C97.1136 155.722 97.3068 155.881 97.4403 156.06C97.5767 156.236 97.6818 156.381 97.7557 156.494H97.858V155.455H98.8295V162.188C98.8295 162.75 98.7017 163.207 98.446 163.56C98.1932 163.915 97.8523 164.175 97.4233 164.339C96.9972 164.507 96.5227 164.591 96 164.591ZM95.9659 160.994C96.3693 160.994 96.7102 160.902 96.9886 160.717C97.267 160.533 97.4787 160.267 97.6236 159.92C97.7685 159.574 97.8409 159.159 97.8409 158.676C97.8409 158.205 97.7699 157.788 97.6278 157.428C97.4858 157.067 97.2756 156.784 96.9972 156.58C96.7188 156.375 96.375 156.273 95.9659 156.273C95.5398 156.273 95.1847 156.381 94.9006 156.597C94.6193 156.812 94.4077 157.102 94.2656 157.466C94.1264 157.83 94.0568 158.233 94.0568 158.676C94.0568 159.131 94.1278 159.533 94.2699 159.882C94.4148 160.229 94.6278 160.501 94.9091 160.7C95.1932 160.896 95.5455 160.994 95.9659 160.994ZM102.597 162.153C102.182 162.153 101.805 162.075 101.467 161.919C101.129 161.76 100.861 161.531 100.662 161.233C100.463 160.932 100.364 160.568 100.364 160.142C100.364 159.767 100.438 159.463 100.585 159.23C100.733 158.994 100.93 158.81 101.178 158.676C101.425 158.543 101.697 158.443 101.996 158.378C102.297 158.31 102.599 158.256 102.903 158.216C103.301 158.165 103.624 158.126 103.871 158.101C104.121 158.072 104.303 158.026 104.416 157.96C104.533 157.895 104.591 157.781 104.591 157.619V157.585C104.591 157.165 104.476 156.838 104.246 156.605C104.018 156.372 103.673 156.256 103.21 156.256C102.73 156.256 102.354 156.361 102.081 156.571C101.808 156.781 101.616 157.006 101.506 157.244L100.551 156.903C100.722 156.506 100.949 156.196 101.233 155.974C101.52 155.75 101.832 155.594 102.17 155.506C102.511 155.415 102.847 155.369 103.176 155.369C103.386 155.369 103.628 155.395 103.901 155.446C104.176 155.494 104.442 155.595 104.697 155.749C104.956 155.902 105.17 156.134 105.341 156.443C105.511 156.753 105.597 157.168 105.597 157.688V162H104.591V161.114H104.54C104.472 161.256 104.358 161.408 104.199 161.57C104.04 161.732 103.828 161.869 103.564 161.983C103.3 162.097 102.977 162.153 102.597 162.153ZM102.75 161.25C103.148 161.25 103.483 161.172 103.756 161.016C104.031 160.859 104.239 160.658 104.378 160.411C104.52 160.163 104.591 159.903 104.591 159.631V158.71C104.548 158.761 104.455 158.808 104.31 158.851C104.168 158.891 104.003 158.926 103.815 158.957C103.631 158.986 103.45 159.011 103.274 159.034C103.101 159.054 102.96 159.071 102.852 159.085C102.591 159.119 102.347 159.175 102.119 159.251C101.895 159.325 101.713 159.437 101.574 159.588C101.438 159.736 101.369 159.937 101.369 160.193C101.369 160.543 101.499 160.807 101.757 160.986C102.018 161.162 102.349 161.25 102.75 161.25ZM110.279 155.455V156.307H106.887V155.455H110.279ZM107.875 153.886H108.881V160.125C108.881 160.409 108.922 160.622 109.005 160.764C109.09 160.903 109.198 160.997 109.328 161.045C109.462 161.091 109.603 161.114 109.75 161.114C109.861 161.114 109.952 161.108 110.023 161.097C110.094 161.082 110.151 161.071 110.194 161.062L110.398 161.966C110.33 161.991 110.235 162.017 110.113 162.043C109.99 162.071 109.836 162.085 109.648 162.085C109.364 162.085 109.086 162.024 108.813 161.902C108.543 161.78 108.319 161.594 108.14 161.344C107.963 161.094 107.875 160.778 107.875 160.398V153.886ZM114.38 162.136C113.789 162.136 113.271 161.996 112.825 161.714C112.382 161.433 112.035 161.04 111.785 160.534C111.538 160.028 111.414 159.437 111.414 158.761C111.414 158.08 111.538 157.484 111.785 156.976C112.035 156.467 112.382 156.072 112.825 155.791C113.271 155.51 113.789 155.369 114.38 155.369C114.971 155.369 115.488 155.51 115.931 155.791C116.377 156.072 116.724 156.467 116.971 156.976C117.221 157.484 117.346 158.08 117.346 158.761C117.346 159.437 117.221 160.028 116.971 160.534C116.724 161.04 116.377 161.433 115.931 161.714C115.488 161.996 114.971 162.136 114.38 162.136ZM114.38 161.233C114.829 161.233 115.199 161.118 115.488 160.888C115.778 160.658 115.993 160.355 116.132 159.98C116.271 159.605 116.341 159.199 116.341 158.761C116.341 158.324 116.271 157.916 116.132 157.538C115.993 157.161 115.778 156.855 115.488 156.622C115.199 156.389 114.829 156.273 114.38 156.273C113.931 156.273 113.562 156.389 113.272 156.622C112.983 156.855 112.768 157.161 112.629 157.538C112.49 157.916 112.42 158.324 112.42 158.761C112.42 159.199 112.49 159.605 112.629 159.98C112.768 160.355 112.983 160.658 113.272 160.888C113.562 161.118 113.931 161.233 114.38 161.233ZM113.92 154.568L114.96 152.591H116.136L114.806 154.568H113.92ZM118.881 162V155.455H119.853V156.443H119.921C120.04 156.119 120.256 155.857 120.569 155.655C120.881 155.453 121.234 155.352 121.626 155.352C121.7 155.352 121.792 155.354 121.903 155.357C122.013 155.359 122.097 155.364 122.154 155.369V156.392C122.12 156.384 122.042 156.371 121.92 156.354C121.8 156.334 121.674 156.324 121.54 156.324C121.222 156.324 120.938 156.391 120.688 156.524C120.441 156.655 120.245 156.837 120.1 157.07C119.958 157.3 119.887 157.562 119.887 157.858V162H118.881ZM123.346 162V155.455H124.352V162H123.346ZM123.858 154.364C123.662 154.364 123.493 154.297 123.35 154.163C123.211 154.03 123.142 153.869 123.142 153.682C123.142 153.494 123.211 153.334 123.35 153.2C123.493 153.067 123.662 153 123.858 153C124.054 153 124.221 153.067 124.36 153.2C124.502 153.334 124.574 153.494 124.574 153.682C124.574 153.869 124.502 154.03 124.36 154.163C124.221 154.297 124.054 154.364 123.858 154.364ZM128.853 162.136C128.262 162.136 127.744 161.996 127.298 161.714C126.854 161.433 126.508 161.04 126.258 160.534C126.011 160.028 125.887 159.437 125.887 158.761C125.887 158.08 126.011 157.484 126.258 156.976C126.508 156.467 126.854 156.072 127.298 155.791C127.744 155.51 128.262 155.369 128.853 155.369C129.444 155.369 129.961 155.51 130.404 155.791C130.85 156.072 131.197 156.467 131.444 156.976C131.694 157.484 131.819 158.08 131.819 158.761C131.819 159.437 131.694 160.028 131.444 160.534C131.197 161.04 130.85 161.433 130.404 161.714C129.961 161.996 129.444 162.136 128.853 162.136ZM128.853 161.233C129.302 161.233 129.671 161.118 129.961 160.888C130.251 160.658 130.465 160.355 130.604 159.98C130.744 159.605 130.813 159.199 130.813 158.761C130.813 158.324 130.744 157.916 130.604 157.538C130.465 157.161 130.251 156.855 129.961 156.622C129.671 156.389 129.302 156.273 128.853 156.273C128.404 156.273 128.035 156.389 127.745 156.622C127.455 156.855 127.241 157.161 127.102 157.538C126.962 157.916 126.893 158.324 126.893 158.761C126.893 159.199 126.962 159.605 127.102 159.98C127.241 160.355 127.455 160.658 127.745 160.888C128.035 161.118 128.404 161.233 128.853 161.233ZM137.735 158.062V162H136.729V155.455H137.701V156.477H137.786C137.939 156.145 138.172 155.878 138.485 155.676C138.797 155.472 139.201 155.369 139.695 155.369C140.138 155.369 140.526 155.46 140.858 155.642C141.191 155.821 141.449 156.094 141.634 156.46C141.819 156.824 141.911 157.284 141.911 157.841V162H140.905V157.909C140.905 157.395 140.772 156.994 140.505 156.707C140.238 156.418 139.871 156.273 139.405 156.273C139.084 156.273 138.797 156.342 138.544 156.482C138.294 156.621 138.097 156.824 137.952 157.091C137.807 157.358 137.735 157.682 137.735 158.062ZM145.675 162.153C145.26 162.153 144.884 162.075 144.545 161.919C144.207 161.76 143.939 161.531 143.74 161.233C143.541 160.932 143.442 160.568 143.442 160.142C143.442 159.767 143.516 159.463 143.663 159.23C143.811 158.994 144.009 158.81 144.256 158.676C144.503 158.543 144.776 158.443 145.074 158.378C145.375 158.31 145.678 158.256 145.982 158.216C146.379 158.165 146.702 158.126 146.949 158.101C147.199 158.072 147.381 158.026 147.494 157.96C147.611 157.895 147.669 157.781 147.669 157.619V157.585C147.669 157.165 147.554 156.838 147.324 156.605C147.097 156.372 146.751 156.256 146.288 156.256C145.808 156.256 145.432 156.361 145.159 156.571C144.886 156.781 144.695 157.006 144.584 157.244L143.629 156.903C143.8 156.506 144.027 156.196 144.311 155.974C144.598 155.75 144.911 155.594 145.249 155.506C145.589 155.415 145.925 155.369 146.254 155.369C146.464 155.369 146.706 155.395 146.979 155.446C147.254 155.494 147.52 155.595 147.776 155.749C148.034 155.902 148.249 156.134 148.419 156.443C148.589 156.753 148.675 157.168 148.675 157.688V162H147.669V161.114H147.618C147.55 161.256 147.436 161.408 147.277 161.57C147.118 161.732 146.906 161.869 146.642 161.983C146.378 162.097 146.055 162.153 145.675 162.153ZM145.828 161.25C146.226 161.25 146.561 161.172 146.834 161.016C147.109 160.859 147.317 160.658 147.456 160.411C147.598 160.163 147.669 159.903 147.669 159.631V158.71C147.626 158.761 147.533 158.808 147.388 158.851C147.246 158.891 147.081 158.926 146.893 158.957C146.709 158.986 146.528 159.011 146.352 159.034C146.179 159.054 146.038 159.071 145.93 159.085C145.669 159.119 145.425 159.175 145.197 159.251C144.973 159.325 144.791 159.437 144.652 159.588C144.516 159.736 144.447 159.937 144.447 160.193C144.447 160.543 144.577 160.807 144.835 160.986C145.097 161.162 145.428 161.25 145.828 161.25ZM29.315 177V170.455H30.2866V171.443H30.3548C30.4741 171.119 30.69 170.857 31.0025 170.655C31.315 170.453 31.6673 170.352 32.0593 170.352C32.1332 170.352 32.2255 170.354 32.3363 170.357C32.4471 170.359 32.5309 170.364 32.5877 170.369V171.392C32.5536 171.384 32.4755 171.371 32.3533 171.354C32.234 171.334 32.1076 171.324 31.9741 171.324C31.6559 171.324 31.3718 171.391 31.1218 171.524C30.8746 171.655 30.6786 171.837 30.5337 172.07C30.3917 172.3 30.3207 172.562 30.3207 172.858V177H29.315ZM36.3249 177.136C35.6942 177.136 35.1502 176.997 34.6928 176.719C34.2383 176.438 33.8874 176.045 33.6403 175.543C33.396 175.037 33.2738 174.449 33.2738 173.778C33.2738 173.108 33.396 172.517 33.6403 172.006C33.8874 171.491 34.2312 171.091 34.6715 170.804C35.1147 170.514 35.6317 170.369 36.2227 170.369C36.5636 170.369 36.9002 170.426 37.2326 170.54C37.565 170.653 37.8675 170.838 38.1403 171.094C38.413 171.347 38.6303 171.682 38.7923 172.099C38.9542 172.517 39.0352 173.031 39.0352 173.642V174.068H33.9897V173.199H38.0124C38.0124 172.83 37.9386 172.5 37.7908 172.21C37.646 171.92 37.4386 171.692 37.1687 171.524C36.9016 171.357 36.5863 171.273 36.2227 171.273C35.8221 171.273 35.4755 171.372 35.1829 171.571C34.8931 171.767 34.6701 172.023 34.5138 172.338C34.3576 172.653 34.2795 172.991 34.2795 173.352V173.932C34.2795 174.426 34.3647 174.845 34.5352 175.189C34.7085 175.53 34.9485 175.79 35.2553 175.969C35.5621 176.145 35.9187 176.233 36.3249 176.233C36.5891 176.233 36.8278 176.196 37.0408 176.122C37.2567 176.045 37.4428 175.932 37.5991 175.781C37.7553 175.628 37.8761 175.437 37.9613 175.21L38.9329 175.483C38.8306 175.812 38.6587 176.102 38.4173 176.352C38.1758 176.599 37.8775 176.793 37.5224 176.932C37.1673 177.068 36.7681 177.136 36.3249 177.136ZM45.0309 179.455V175.994H44.9457C44.8718 176.114 44.7667 176.264 44.6303 176.446C44.494 176.625 44.2994 176.786 44.0465 176.928C43.7937 177.067 43.457 177.136 43.0366 177.136C42.4911 177.136 42.0096 176.999 41.592 176.723C41.1744 176.445 40.8477 176.053 40.6119 175.547C40.3761 175.038 40.2582 174.438 40.2582 173.744C40.2582 173.057 40.3761 172.46 40.6119 171.955C40.8477 171.449 41.1758 171.058 41.5962 170.783C42.0167 170.507 42.5025 170.369 43.0536 170.369C43.4798 170.369 43.8164 170.44 44.0636 170.582C44.3136 170.722 44.5039 170.881 44.6346 171.06C44.7681 171.236 44.8718 171.381 44.9457 171.494H45.065V170.455H46.0366V179.455H45.0309ZM43.1729 176.233C43.5763 176.233 43.9173 176.128 44.1957 175.918C44.4741 175.705 44.6857 175.411 44.8306 175.036C44.9755 174.658 45.0479 174.222 45.0479 173.727C45.0479 173.239 44.9769 172.811 44.8349 172.445C44.6928 172.075 44.4826 171.788 44.2042 171.584C43.9258 171.376 43.582 171.273 43.1729 171.273C42.7468 171.273 42.3917 171.382 42.1076 171.601C41.8263 171.817 41.6147 172.111 41.4727 172.483C41.3335 172.852 41.2638 173.267 41.2638 173.727C41.2638 174.193 41.3349 174.616 41.4769 174.997C41.6218 175.375 41.8349 175.676 42.1161 175.901C42.4002 176.122 42.7525 176.233 43.1729 176.233ZM52.0025 174.324V170.455H53.0082V177H52.0025V175.892H51.9343C51.7809 176.224 51.5423 176.507 51.2184 176.74C50.8945 176.97 50.4854 177.085 49.9911 177.085C49.582 177.085 49.2184 176.996 48.9002 176.817C48.582 176.635 48.332 176.362 48.1502 175.999C47.9684 175.632 47.8775 175.17 47.8775 174.614V170.455H48.8832V174.545C48.8832 175.023 49.0167 175.403 49.2837 175.688C49.5536 175.972 49.8974 176.114 50.315 176.114C50.565 176.114 50.8192 176.05 51.0778 175.922C51.3391 175.794 51.5579 175.598 51.734 175.334C51.913 175.07 52.0025 174.733 52.0025 174.324ZM54.8501 177V170.455H55.8558V177H54.8501ZM55.3615 169.364C55.1655 169.364 54.9964 169.297 54.8544 169.163C54.7152 169.03 54.6456 168.869 54.6456 168.682C54.6456 168.494 54.7152 168.334 54.8544 168.2C54.9964 168.067 55.1655 168 55.3615 168C55.5575 168 55.7251 168.067 55.8643 168.2C56.0064 168.334 56.0774 168.494 56.0774 168.682C56.0774 168.869 56.0064 169.03 55.8643 169.163C55.7251 169.297 55.5575 169.364 55.3615 169.364ZM62.3342 171.92L61.4308 172.176C61.3739 172.026 61.2901 171.879 61.1793 171.737C61.0714 171.592 60.9237 171.473 60.7362 171.379C60.5487 171.286 60.3086 171.239 60.016 171.239C59.6154 171.239 59.2816 171.331 59.0146 171.516C58.7504 171.697 58.6183 171.929 58.6183 172.21C58.6183 172.46 58.7092 172.658 58.891 172.803C59.0728 172.947 59.3569 173.068 59.7433 173.165L60.7148 173.403C61.3001 173.545 61.7362 173.763 62.0231 174.055C62.31 174.345 62.4535 174.719 62.4535 175.176C62.4535 175.551 62.3455 175.886 62.1296 176.182C61.9165 176.477 61.6183 176.71 61.2347 176.881C60.8512 177.051 60.4052 177.136 59.8967 177.136C59.229 177.136 58.6765 176.991 58.239 176.702C57.8015 176.412 57.5245 175.989 57.408 175.432L58.3626 175.193C58.4535 175.545 58.6254 175.81 58.8782 175.986C59.1339 176.162 59.4677 176.25 59.8796 176.25C60.3484 176.25 60.7205 176.151 60.9961 175.952C61.2745 175.75 61.4137 175.509 61.4137 175.227C61.4137 175 61.3342 174.81 61.1751 174.656C61.016 174.5 60.7717 174.384 60.4421 174.307L59.3512 174.051C58.7518 173.909 58.3114 173.689 58.0302 173.391C57.7518 173.089 57.6126 172.713 57.6126 172.261C57.6126 171.892 57.7163 171.565 57.9237 171.281C58.1339 170.997 58.4194 170.774 58.7802 170.612C59.1438 170.45 59.5558 170.369 60.016 170.369C60.6637 170.369 61.1722 170.511 61.5415 170.795C61.9137 171.08 62.1779 171.455 62.3342 171.92ZM63.9673 177V170.455H64.973V177H63.9673ZM64.4787 169.364C64.2827 169.364 64.1136 169.297 63.9716 169.163C63.8324 169.03 63.7628 168.869 63.7628 168.682C63.7628 168.494 63.8324 168.334 63.9716 168.2C64.1136 168.067 64.2827 168 64.4787 168C64.6747 168 64.8423 168.067 64.9815 168.2C65.1236 168.334 65.1946 168.494 65.1946 168.682C65.1946 168.869 65.1236 169.03 64.9815 169.163C64.8423 169.297 64.6747 169.364 64.4787 169.364ZM69.4741 177.136C68.8604 177.136 68.332 176.991 67.8888 176.702C67.4457 176.412 67.1048 176.013 66.8661 175.504C66.6275 174.996 66.5082 174.415 66.5082 173.761C66.5082 173.097 66.6303 172.51 66.8746 172.001C67.1218 171.49 67.4656 171.091 67.9059 170.804C68.3491 170.514 68.8661 170.369 69.457 170.369C69.9173 170.369 70.332 170.455 70.7013 170.625C71.0707 170.795 71.3732 171.034 71.609 171.341C71.8448 171.648 71.9911 172.006 72.0479 172.415H71.0423C70.9656 172.116 70.7951 171.852 70.5309 171.622C70.2695 171.389 69.9173 171.273 69.4741 171.273C69.082 171.273 68.7383 171.375 68.4428 171.58C68.1502 171.781 67.9215 172.067 67.7567 172.436C67.5948 172.803 67.5138 173.233 67.5138 173.727C67.5138 174.233 67.5934 174.673 67.7525 175.048C67.9144 175.423 68.1417 175.714 68.4343 175.922C68.7298 176.129 69.0763 176.233 69.4741 176.233C69.7354 176.233 69.9727 176.188 70.1857 176.097C70.3988 176.006 70.5792 175.875 70.7269 175.705C70.8746 175.534 70.9798 175.33 71.0423 175.091H72.0479C71.9911 175.477 71.8505 175.825 71.6261 176.135C71.4045 176.442 71.1104 176.686 70.744 176.868C70.3803 177.047 69.957 177.136 69.4741 177.136ZM68.9968 176.966H69.832L69.7638 177.307C69.9854 177.341 70.1886 177.433 70.3732 177.584C70.5579 177.737 70.6502 177.98 70.6502 178.312C70.6502 178.679 70.4982 178.977 70.1942 179.207C69.8931 179.44 69.4485 179.557 68.8604 179.557L68.8263 178.892C69.0906 178.892 69.3093 178.849 69.4826 178.764C69.6587 178.682 69.7468 178.543 69.7468 178.347C69.7468 178.151 69.6744 178.017 69.5295 177.946C69.3846 177.875 69.1502 177.827 68.8263 177.801L68.9968 176.966ZM75.4442 177.153C75.0295 177.153 74.6531 177.075 74.315 176.919C73.9769 176.76 73.7085 176.531 73.5096 176.233C73.3107 175.932 73.2113 175.568 73.2113 175.142C73.2113 174.767 73.2852 174.463 73.4329 174.23C73.5806 173.994 73.7781 173.81 74.0252 173.676C74.2724 173.543 74.5451 173.443 74.8434 173.378C75.1445 173.31 75.4471 173.256 75.7511 173.216C76.1488 173.165 76.4712 173.126 76.7184 173.101C76.9684 173.072 77.1502 173.026 77.2638 172.96C77.3803 172.895 77.4386 172.781 77.4386 172.619V172.585C77.4386 172.165 77.3235 171.838 77.0934 171.605C76.8661 171.372 76.521 171.256 76.0579 171.256C75.5778 171.256 75.2013 171.361 74.9286 171.571C74.6559 171.781 74.4641 172.006 74.3533 172.244L73.3988 171.903C73.5692 171.506 73.7965 171.196 74.0806 170.974C74.3675 170.75 74.68 170.594 75.0181 170.506C75.359 170.415 75.6942 170.369 76.0238 170.369C76.234 170.369 76.4755 170.395 76.7482 170.446C77.0238 170.494 77.2894 170.595 77.5451 170.749C77.8036 170.902 78.0181 171.134 78.1886 171.443C78.359 171.753 78.4442 172.168 78.4442 172.688V177H77.4386V176.114H77.3874C77.3192 176.256 77.2056 176.408 77.0465 176.57C76.8874 176.732 76.6758 176.869 76.4116 176.983C76.1474 177.097 75.8249 177.153 75.4442 177.153ZM75.5977 176.25C75.9954 176.25 76.3306 176.172 76.6033 176.016C76.8789 175.859 77.0863 175.658 77.2255 175.411C77.3675 175.163 77.4386 174.903 77.4386 174.631V173.71C77.396 173.761 77.3022 173.808 77.1573 173.851C77.0153 173.891 76.8505 173.926 76.663 173.957C76.4783 173.986 76.2979 174.011 76.1218 174.034C75.9485 174.054 75.8079 174.071 75.6999 174.085C75.4386 174.119 75.1942 174.175 74.967 174.251C74.7425 174.325 74.5607 174.437 74.4215 174.588C74.2852 174.736 74.217 174.937 74.217 175.193C74.217 175.543 74.3462 175.807 74.6048 175.986C74.8661 176.162 75.1971 176.25 75.5977 176.25ZM74.7795 169.67L73.9954 169.636C73.9954 169.202 74.119 168.847 74.3661 168.571C74.6161 168.293 74.9244 168.153 75.2908 168.153C75.4528 168.153 75.5962 168.182 75.7212 168.239C75.8462 168.293 75.9656 168.355 76.0792 168.426C76.1928 168.497 76.3093 168.561 76.4286 168.618C76.5508 168.672 76.6886 168.699 76.842 168.699C77.0039 168.699 77.1403 168.636 77.2511 168.511C77.3647 168.384 77.4215 168.23 77.4215 168.051L78.1886 168.119C78.1886 168.562 78.0636 168.915 77.8136 169.176C77.5664 169.437 77.2596 169.568 76.8931 169.568C76.6971 169.568 76.5352 169.541 76.4073 169.487C76.2795 169.43 76.1658 169.366 76.0664 169.295C75.967 169.224 75.8619 169.162 75.7511 169.108C75.6403 169.051 75.5039 169.023 75.342 169.023C75.18 169.023 75.0451 169.087 74.9371 169.214C74.832 169.339 74.7795 169.491 74.7795 169.67ZM82.9389 177.136C82.348 177.136 81.8295 176.996 81.3835 176.714C80.9403 176.433 80.5938 176.04 80.3438 175.534C80.0966 175.028 79.973 174.437 79.973 173.761C79.973 173.08 80.0966 172.484 80.3438 171.976C80.5938 171.467 80.9403 171.072 81.3835 170.791C81.8295 170.51 82.348 170.369 82.9389 170.369C83.5298 170.369 84.0469 170.51 84.4901 170.791C84.9361 171.072 85.2827 171.467 85.5298 171.976C85.7798 172.484 85.9048 173.08 85.9048 173.761C85.9048 174.437 85.7798 175.028 85.5298 175.534C85.2827 176.04 84.9361 176.433 84.4901 176.714C84.0469 176.996 83.5298 177.136 82.9389 177.136ZM82.9389 176.233C83.3878 176.233 83.7571 176.118 84.0469 175.888C84.3366 175.658 84.5511 175.355 84.6903 174.98C84.8295 174.605 84.8991 174.199 84.8991 173.761C84.8991 173.324 84.8295 172.916 84.6903 172.538C84.5511 172.161 84.3366 171.855 84.0469 171.622C83.7571 171.389 83.3878 171.273 82.9389 171.273C82.4901 171.273 82.1207 171.389 81.831 171.622C81.5412 171.855 81.3267 172.161 81.1875 172.538C81.0483 172.916 80.9787 173.324 80.9787 173.761C80.9787 174.199 81.0483 174.605 81.1875 174.98C81.3267 175.355 81.5412 175.658 81.831 175.888C82.1207 176.118 82.4901 176.233 82.9389 176.233ZM91.1729 173.318C91.1729 172.244 91.3121 171.257 91.5906 170.357C91.8718 169.453 92.2724 168.622 92.7923 167.864H93.6786C93.4741 168.145 93.2823 168.491 93.1033 168.903C92.9272 169.312 92.7724 169.763 92.6388 170.254C92.5053 170.743 92.4002 171.249 92.3235 171.771C92.2496 172.294 92.2127 172.81 92.2127 173.318C92.2127 173.994 92.2781 174.68 92.4087 175.376C92.5394 176.072 92.7156 176.719 92.9371 177.315C93.1587 177.912 93.4059 178.398 93.6786 178.773H92.7923C92.2724 178.014 91.8718 177.185 91.5906 176.284C91.3121 175.381 91.1729 174.392 91.1729 173.318ZM95.1626 179.455V170.455H96.1342V171.494H96.2536C96.3274 171.381 96.4297 171.236 96.5604 171.06C96.6939 170.881 96.8842 170.722 97.1314 170.582C97.3814 170.44 97.7195 170.369 98.1456 170.369C98.6967 170.369 99.1825 170.507 99.603 170.783C100.023 171.058 100.352 171.449 100.587 171.955C100.823 172.46 100.941 173.057 100.941 173.744C100.941 174.438 100.823 175.038 100.587 175.547C100.352 176.053 100.025 176.445 99.6072 176.723C99.1896 176.999 98.7081 177.136 98.1626 177.136C97.7422 177.136 97.4055 177.067 97.1527 176.928C96.8999 176.786 96.7053 176.625 96.5689 176.446C96.4325 176.264 96.3274 176.114 96.2536 175.994H96.1683V179.455H95.1626ZM96.1513 173.727C96.1513 174.222 96.2237 174.658 96.3686 175.036C96.5135 175.411 96.7251 175.705 97.0036 175.918C97.282 176.128 97.6229 176.233 98.0263 176.233C98.4467 176.233 98.7976 176.122 99.0788 175.901C99.3629 175.676 99.576 175.375 99.718 174.997C99.8629 174.616 99.9354 174.193 99.9354 173.727C99.9354 173.267 99.8643 172.852 99.7223 172.483C99.5831 172.111 99.3714 171.817 99.0874 171.601C98.8061 171.382 98.4524 171.273 98.0263 171.273C97.6172 171.273 97.2734 171.376 96.995 171.584C96.7166 171.788 96.5064 172.075 96.3643 172.445C96.2223 172.811 96.1513 173.239 96.1513 173.727ZM104.401 177.153C103.987 177.153 103.61 177.075 103.272 176.919C102.934 176.76 102.665 176.531 102.467 176.233C102.268 175.932 102.168 175.568 102.168 175.142C102.168 174.767 102.242 174.463 102.39 174.23C102.538 173.994 102.735 173.81 102.982 173.676C103.229 173.543 103.502 173.443 103.8 173.378C104.102 173.31 104.404 173.256 104.708 173.216C105.106 173.165 105.428 173.126 105.675 173.101C105.925 173.072 106.107 173.026 106.221 172.96C106.337 172.895 106.396 172.781 106.396 172.619V172.585C106.396 172.165 106.281 171.838 106.05 171.605C105.823 171.372 105.478 171.256 105.015 171.256C104.535 171.256 104.158 171.361 103.886 171.571C103.613 171.781 103.421 172.006 103.31 172.244L102.356 171.903C102.526 171.506 102.754 171.196 103.038 170.974C103.325 170.75 103.637 170.594 103.975 170.506C104.316 170.415 104.651 170.369 104.981 170.369C105.191 170.369 105.433 170.395 105.705 170.446C105.981 170.494 106.246 170.595 106.502 170.749C106.761 170.902 106.975 171.134 107.146 171.443C107.316 171.753 107.401 172.168 107.401 172.688V177H106.396V176.114H106.344C106.276 176.256 106.163 176.408 106.004 176.57C105.844 176.732 105.633 176.869 105.369 176.983C105.104 177.097 104.782 177.153 104.401 177.153ZM104.555 176.25C104.952 176.25 105.288 176.172 105.56 176.016C105.836 175.859 106.043 175.658 106.183 175.411C106.325 175.163 106.396 174.903 106.396 174.631V173.71C106.353 173.761 106.259 173.808 106.114 173.851C105.972 173.891 105.808 173.926 105.62 173.957C105.435 173.986 105.255 174.011 105.079 174.034C104.906 174.054 104.765 174.071 104.657 174.085C104.396 174.119 104.151 174.175 103.924 174.251C103.7 174.325 103.518 174.437 103.379 174.588C103.242 174.736 103.174 174.937 103.174 175.193C103.174 175.543 103.303 175.807 103.562 175.986C103.823 176.162 104.154 176.25 104.555 176.25ZM109.237 177V170.455H110.208V171.443H110.277C110.396 171.119 110.612 170.857 110.924 170.655C111.237 170.453 111.589 170.352 111.981 170.352C112.055 170.352 112.147 170.354 112.258 170.357C112.369 170.359 112.453 170.364 112.51 170.369V171.392C112.475 171.384 112.397 171.371 112.275 171.354C112.156 171.334 112.029 171.324 111.896 171.324C111.578 171.324 111.294 171.391 111.044 171.524C110.797 171.655 110.6 171.837 110.456 172.07C110.314 172.3 110.243 172.562 110.243 172.858V177H109.237ZM115.628 177.153C115.213 177.153 114.837 177.075 114.499 176.919C114.161 176.76 113.892 176.531 113.693 176.233C113.494 175.932 113.395 175.568 113.395 175.142C113.395 174.767 113.469 174.463 113.616 174.23C113.764 173.994 113.962 173.81 114.209 173.676C114.456 173.543 114.729 173.443 115.027 173.378C115.328 173.31 115.631 173.256 115.935 173.216C116.332 173.165 116.655 173.126 116.902 173.101C117.152 173.072 117.334 173.026 117.447 172.96C117.564 172.895 117.622 172.781 117.622 172.619V172.585C117.622 172.165 117.507 171.838 117.277 171.605C117.05 171.372 116.705 171.256 116.241 171.256C115.761 171.256 115.385 171.361 115.112 171.571C114.839 171.781 114.648 172.006 114.537 172.244L113.582 171.903C113.753 171.506 113.98 171.196 114.264 170.974C114.551 170.75 114.864 170.594 115.202 170.506C115.543 170.415 115.878 170.369 116.207 170.369C116.418 170.369 116.659 170.395 116.932 170.446C117.207 170.494 117.473 170.595 117.729 170.749C117.987 170.902 118.202 171.134 118.372 171.443C118.543 171.753 118.628 172.168 118.628 172.688V177H117.622V176.114H117.571C117.503 176.256 117.389 176.408 117.23 176.57C117.071 176.732 116.859 176.869 116.595 176.983C116.331 177.097 116.009 177.153 115.628 177.153ZM115.781 176.25C116.179 176.25 116.514 176.172 116.787 176.016C117.063 175.859 117.27 175.658 117.409 175.411C117.551 175.163 117.622 174.903 117.622 174.631V173.71C117.58 173.761 117.486 173.808 117.341 173.851C117.199 173.891 117.034 173.926 116.847 173.957C116.662 173.986 116.482 174.011 116.305 174.034C116.132 174.054 115.991 174.071 115.884 174.085C115.622 174.119 115.378 174.175 115.151 174.251C114.926 174.325 114.744 174.437 114.605 174.588C114.469 174.736 114.401 174.937 114.401 175.193C114.401 175.543 114.53 175.807 114.788 175.986C115.05 176.162 115.381 176.25 115.781 176.25ZM120.463 177V170.455H121.435V171.477H121.52C121.657 171.128 121.877 170.857 122.181 170.663C122.485 170.467 122.85 170.369 123.276 170.369C123.708 170.369 124.067 170.467 124.354 170.663C124.644 170.857 124.87 171.128 125.032 171.477H125.1C125.267 171.139 125.519 170.871 125.854 170.672C126.189 170.47 126.591 170.369 127.06 170.369C127.645 170.369 128.124 170.553 128.496 170.919C128.868 171.283 129.054 171.849 129.054 172.619V177H128.049V172.619C128.049 172.136 127.917 171.791 127.652 171.584C127.388 171.376 127.077 171.273 126.719 171.273C126.259 171.273 125.902 171.412 125.65 171.69C125.397 171.966 125.27 172.315 125.27 172.739V177H124.248V172.517C124.248 172.145 124.127 171.845 123.885 171.618C123.644 171.388 123.333 171.273 122.952 171.273C122.691 171.273 122.446 171.342 122.219 171.482C121.995 171.621 121.813 171.814 121.674 172.061C121.537 172.305 121.469 172.588 121.469 172.909V177H120.463ZM135.529 171.92L134.626 172.176C134.569 172.026 134.485 171.879 134.375 171.737C134.267 171.592 134.119 171.473 133.931 171.379C133.744 171.286 133.504 171.239 133.211 171.239C132.811 171.239 132.477 171.331 132.21 171.516C131.946 171.697 131.814 171.929 131.814 172.21C131.814 172.46 131.904 172.658 132.086 172.803C132.268 172.947 132.552 173.068 132.939 173.165L133.91 173.403C134.495 173.545 134.931 173.763 135.218 174.055C135.505 174.345 135.649 174.719 135.649 175.176C135.649 175.551 135.541 175.886 135.325 176.182C135.112 176.477 134.814 176.71 134.43 176.881C134.047 177.051 133.6 177.136 133.092 177.136C132.424 177.136 131.872 176.991 131.434 176.702C130.997 176.412 130.72 175.989 130.603 175.432L131.558 175.193C131.649 175.545 131.821 175.81 132.074 175.986C132.329 176.162 132.663 176.25 133.075 176.25C133.544 176.25 133.916 176.151 134.191 175.952C134.47 175.75 134.609 175.509 134.609 175.227C134.609 175 134.529 174.81 134.37 174.656C134.211 174.5 133.967 174.384 133.637 174.307L132.547 174.051C131.947 173.909 131.507 173.689 131.225 173.391C130.947 173.089 130.808 172.713 130.808 172.261C130.808 171.892 130.912 171.565 131.119 171.281C131.329 170.997 131.615 170.774 131.975 170.612C132.339 170.45 132.751 170.369 133.211 170.369C133.859 170.369 134.368 170.511 134.737 170.795C135.109 171.08 135.373 171.455 135.529 171.92ZM138.663 175.807L138.594 176.267C138.546 176.591 138.472 176.938 138.373 177.307C138.276 177.676 138.175 178.024 138.07 178.351C137.965 178.678 137.879 178.938 137.81 179.131H137.043C137.08 178.949 137.129 178.709 137.188 178.411C137.248 178.112 137.308 177.778 137.367 177.409C137.43 177.043 137.481 176.668 137.521 176.284L137.572 175.807H138.663ZM51.7164 194.455V190.994H51.6312C51.5574 191.114 51.4522 191.264 51.3159 191.446C51.1795 191.625 50.9849 191.786 50.7321 191.928C50.4792 192.067 50.1426 192.136 49.7221 192.136C49.1767 192.136 48.6951 191.999 48.2775 191.723C47.8599 191.445 47.5332 191.053 47.2974 190.547C47.0616 190.038 46.9437 189.438 46.9437 188.744C46.9437 188.057 47.0616 187.46 47.2974 186.955C47.5332 186.449 47.8613 186.058 48.2818 185.783C48.7022 185.507 49.188 185.369 49.7392 185.369C50.1653 185.369 50.502 185.44 50.7491 185.582C50.9991 185.722 51.1895 185.881 51.3201 186.06C51.4537 186.236 51.5574 186.381 51.6312 186.494H51.7505V185.455H52.7221V194.455H51.7164ZM49.8585 191.233C50.2619 191.233 50.6028 191.128 50.8812 190.918C51.1596 190.705 51.3713 190.411 51.5162 190.036C51.661 189.658 51.7335 189.222 51.7335 188.727C51.7335 188.239 51.6625 187.811 51.5204 187.445C51.3784 187.075 51.1681 186.788 50.8897 186.584C50.6113 186.376 50.2676 186.273 49.8585 186.273C49.4324 186.273 49.0772 186.382 48.7931 186.601C48.5119 186.817 48.3002 187.111 48.1582 187.483C48.019 187.852 47.9494 188.267 47.9494 188.727C47.9494 189.193 48.0204 189.616 48.1625 189.997C48.3074 190.375 48.5204 190.676 48.8017 190.901C49.0858 191.122 49.438 191.233 49.8585 191.233ZM58.688 189.324V185.455H59.6937V192H58.688V190.892H58.6199C58.4664 191.224 58.2278 191.507 57.9039 191.74C57.5801 191.97 57.171 192.085 56.6767 192.085C56.2676 192.085 55.9039 191.996 55.5858 191.817C55.2676 191.635 55.0176 191.362 54.8358 190.999C54.6539 190.632 54.563 190.17 54.563 189.614V185.455H55.5687V189.545C55.5687 190.023 55.7022 190.403 55.9693 190.688C56.2392 190.972 56.5829 191.114 57.0005 191.114C57.2505 191.114 57.5048 191.05 57.7633 190.922C58.0247 190.794 58.2434 190.598 58.4196 190.334C58.5985 190.07 58.688 189.733 58.688 189.324ZM64.28 192.136C63.6493 192.136 63.1053 191.997 62.6479 191.719C62.1934 191.438 61.8425 191.045 61.5953 190.543C61.351 190.037 61.2289 189.449 61.2289 188.778C61.2289 188.108 61.351 187.517 61.5953 187.006C61.8425 186.491 62.1863 186.091 62.6266 185.804C63.0698 185.514 63.5868 185.369 64.1777 185.369C64.5186 185.369 64.8553 185.426 65.1877 185.54C65.5201 185.653 65.8226 185.838 66.0953 186.094C66.3681 186.347 66.5854 186.682 66.7473 187.099C66.9093 187.517 66.9902 188.031 66.9902 188.642V189.068H61.9448V188.199H65.9675C65.9675 187.83 65.8936 187.5 65.7459 187.21C65.601 186.92 65.3936 186.692 65.1238 186.524C64.8567 186.357 64.5414 186.273 64.1777 186.273C63.7772 186.273 63.4306 186.372 63.138 186.571C62.8482 186.767 62.6252 187.023 62.4689 187.338C62.3127 187.653 62.2346 187.991 62.2346 188.352V188.932C62.2346 189.426 62.3198 189.845 62.4902 190.189C62.6635 190.53 62.9036 190.79 63.2104 190.969C63.5172 191.145 63.8738 191.233 64.28 191.233C64.5442 191.233 64.7828 191.196 64.9959 191.122C65.2118 191.045 65.3979 190.932 65.5542 190.781C65.7104 190.628 65.8311 190.437 65.9164 190.21L66.888 190.483C66.7857 190.812 66.6138 191.102 66.3723 191.352C66.1309 191.599 65.8326 191.793 65.4775 191.932C65.1223 192.068 64.7232 192.136 64.28 192.136ZM68.5201 192V185.455H69.4917V186.443H69.5598C69.6792 186.119 69.8951 185.857 70.2076 185.655C70.5201 185.453 70.8723 185.352 71.2644 185.352C71.3382 185.352 71.4306 185.354 71.5414 185.357C71.6522 185.359 71.736 185.364 71.7928 185.369V186.392C71.7587 186.384 71.6806 186.371 71.5584 186.354C71.4391 186.334 71.3127 186.324 71.1792 186.324C70.861 186.324 70.5769 186.391 70.3269 186.524C70.0797 186.655 69.8837 186.837 69.7388 187.07C69.5968 187.3 69.5257 187.562 69.5257 187.858V192H68.5201ZM73.8319 194.455C73.6614 194.455 73.5094 194.44 73.3759 194.412C73.2424 194.386 73.15 194.361 73.0989 194.335L73.3546 193.449C73.5989 193.511 73.8148 193.534 74.0023 193.517C74.1898 193.5 74.356 193.416 74.5009 193.266C74.6486 193.118 74.7836 192.878 74.9057 192.545L75.0932 192.034L72.6728 185.455H73.7637L75.5705 190.67H75.6387L77.4455 185.455H78.5364L75.758 192.955C75.633 193.293 75.4782 193.572 75.2935 193.794C75.1088 194.018 74.8944 194.185 74.65 194.293C74.4086 194.401 74.1358 194.455 73.8319 194.455ZM80.9537 190.807L80.8855 191.267C80.8372 191.591 80.7633 191.938 80.6639 192.307C80.5673 192.676 80.4664 193.024 80.3613 193.351C80.2562 193.678 80.1696 193.938 80.1014 194.131H79.3343C79.3713 193.949 79.4196 193.709 79.4792 193.411C79.5389 193.112 79.5985 192.778 79.6582 192.409C79.7207 192.043 79.7718 191.668 79.8116 191.284L79.8627 190.807H80.9537ZM86.3283 192V183.273H87.334V186.494H87.4192C87.4931 186.381 87.5953 186.236 87.726 186.06C87.8596 185.881 88.0499 185.722 88.2971 185.582C88.5471 185.44 88.8851 185.369 89.3113 185.369C89.8624 185.369 90.3482 185.507 90.7686 185.783C91.1891 186.058 91.5172 186.449 91.753 186.955C91.9888 187.46 92.1067 188.057 92.1067 188.744C92.1067 189.438 91.9888 190.038 91.753 190.547C91.5172 191.053 91.1905 191.445 90.7729 191.723C90.3553 191.999 89.8738 192.136 89.3283 192.136C88.9078 192.136 88.5712 192.067 88.3184 191.928C88.0655 191.786 87.8709 191.625 87.7346 191.446C87.5982 191.264 87.4931 191.114 87.4192 190.994H87.2999V192H86.3283ZM87.3169 188.727C87.3169 189.222 87.3894 189.658 87.5343 190.036C87.6792 190.411 87.8908 190.705 88.1692 190.918C88.4476 191.128 88.7885 191.233 89.1919 191.233C89.6124 191.233 89.9632 191.122 90.2445 190.901C90.5286 190.676 90.7417 190.375 90.8837 189.997C91.0286 189.616 91.101 189.193 91.101 188.727C91.101 188.267 91.03 187.852 90.888 187.483C90.7488 187.111 90.5371 186.817 90.253 186.601C89.9718 186.382 89.6181 186.273 89.1919 186.273C88.7828 186.273 88.4391 186.376 88.1607 186.584C87.8823 186.788 87.6721 187.075 87.53 187.445C87.388 187.811 87.3169 188.239 87.3169 188.727ZM96.3042 192.136C95.7132 192.136 95.1948 191.996 94.7488 191.714C94.3056 191.433 93.959 191.04 93.709 190.534C93.4618 190.028 93.3382 189.437 93.3382 188.761C93.3382 188.08 93.4618 187.484 93.709 186.976C93.959 186.467 94.3056 186.072 94.7488 185.791C95.1948 185.51 95.7132 185.369 96.3042 185.369C96.8951 185.369 97.4121 185.51 97.8553 185.791C98.3013 186.072 98.6479 186.467 98.8951 186.976C99.1451 187.484 99.2701 188.08 99.2701 188.761C99.2701 189.437 99.1451 190.028 98.8951 190.534C98.6479 191.04 98.3013 191.433 97.8553 191.714C97.4121 191.996 96.8951 192.136 96.3042 192.136ZM96.3042 191.233C96.753 191.233 97.1223 191.118 97.4121 190.888C97.7019 190.658 97.9164 190.355 98.0556 189.98C98.1948 189.605 98.2644 189.199 98.2644 188.761C98.2644 188.324 98.1948 187.916 98.0556 187.538C97.9164 187.161 97.7019 186.855 97.4121 186.622C97.1223 186.389 96.753 186.273 96.3042 186.273C95.8553 186.273 95.486 186.389 95.1962 186.622C94.9064 186.855 94.6919 187.161 94.5527 187.538C94.4135 187.916 94.3439 188.324 94.3439 188.761C94.3439 189.199 94.4135 189.605 94.5527 189.98C94.6919 190.355 94.9064 190.658 95.1962 190.888C95.486 191.118 95.8553 191.233 96.3042 191.233ZM103.277 192.136C102.731 192.136 102.25 191.999 101.832 191.723C101.415 191.445 101.088 191.053 100.852 190.547C100.616 190.038 100.498 189.438 100.498 188.744C100.498 188.057 100.616 187.46 100.852 186.955C101.088 186.449 101.416 186.058 101.836 185.783C102.257 185.507 102.743 185.369 103.294 185.369C103.72 185.369 104.057 185.44 104.304 185.582C104.554 185.722 104.744 185.881 104.875 186.06C105.008 186.236 105.112 186.381 105.186 186.494H105.271V183.273H106.277V192H105.305V190.994H105.186C105.112 191.114 105.007 191.264 104.871 191.446C104.734 191.625 104.54 191.786 104.287 191.928C104.034 192.067 103.697 192.136 103.277 192.136ZM103.413 191.233C103.817 191.233 104.157 191.128 104.436 190.918C104.714 190.705 104.926 190.411 105.071 190.036C105.216 189.658 105.288 189.222 105.288 188.727C105.288 188.239 105.217 187.811 105.075 187.445C104.933 187.075 104.723 186.788 104.444 186.584C104.166 186.376 103.822 186.273 103.413 186.273C102.987 186.273 102.632 186.382 102.348 186.601C102.067 186.817 101.855 187.111 101.713 187.483C101.574 187.852 101.504 188.267 101.504 188.727C101.504 189.193 101.575 189.616 101.717 189.997C101.862 190.375 102.075 190.676 102.356 190.901C102.64 191.122 102.993 191.233 103.413 191.233ZM108.906 194.455C108.736 194.455 108.584 194.44 108.45 194.412C108.317 194.386 108.224 194.361 108.173 194.335L108.429 193.449C108.673 193.511 108.889 193.534 109.077 193.517C109.264 193.5 109.43 193.416 109.575 193.266C109.723 193.118 109.858 192.878 109.98 192.545L110.167 192.034L107.747 185.455H108.838L110.645 190.67H110.713L112.52 185.455H113.611L110.832 192.955C110.707 193.293 110.552 193.572 110.368 193.794C110.183 194.018 109.969 194.185 109.724 194.293C109.483 194.401 109.21 194.455 108.906 194.455ZM117.086 188.318C117.086 189.392 116.945 190.381 116.664 191.284C116.385 192.185 115.986 193.014 115.466 193.773H114.58C114.785 193.491 114.975 193.145 115.151 192.733C115.33 192.324 115.486 191.875 115.62 191.386C115.753 190.895 115.857 190.388 115.931 189.865C116.008 189.339 116.046 188.824 116.046 188.318C116.046 187.642 115.981 186.956 115.85 186.26C115.719 185.564 115.543 184.918 115.322 184.321C115.1 183.724 114.853 183.239 114.58 182.864H115.466C115.986 183.622 116.385 184.453 116.664 185.357C116.945 186.257 117.086 187.244 117.086 188.318ZM120.019 192.068C119.808 192.068 119.628 191.993 119.477 191.842C119.327 191.692 119.252 191.511 119.252 191.301C119.252 191.091 119.327 190.911 119.477 190.76C119.628 190.609 119.808 190.534 120.019 190.534C120.229 190.534 120.409 190.609 120.56 190.76C120.71 190.911 120.786 191.091 120.786 191.301C120.786 191.44 120.75 191.568 120.679 191.685C120.611 191.801 120.519 191.895 120.402 191.966C120.289 192.034 120.161 192.068 120.019 192.068Z" fill="white"/>
</g>
<defs>
<linearGradient id="paint0_linear_521_98" x1="84.22" y1="0" x2="84.22" y2="205.06" gradientUnits="userSpaceOnUse">
<stop stop-color="#FF3385"/>
<stop offset="1" stop-color="#F51770"/>
</linearGradient>
<linearGradient id="paint1_linear_521_98" x1="84.22" y1="0" x2="84.22" y2="205.06" gradientUnits="userSpaceOnUse">
<stop stop-color="#FF9B52"/>
<stop offset="1" stop-color="#FF7F21"/>
</linearGradient>
</defs>
</svg>
