<svg width="34" height="34" viewBox="0 0 34 34" fill="none" xmlns="http://www.w3.org/2000/svg">
<rect opacity="0.15" width="34" height="34" rx="10" fill="#566B88"/>
<path d="M9.95833 25.9466C9.86667 25.9096 9.69792 25.782 9.58333 25.6629L9.375 25.4465V23.2819V21.1173L9.64744 20.8542L9.91987 20.5911H17H24.0801L24.3526 20.8542L24.625 21.1173V23.2868V25.4563L24.3526 25.7194L24.0802 25.9825L17.1026 25.9982C13.2649 26.0068 10.05 25.9836 9.95833 25.9466ZM14.619 24.8502C14.6911 24.7806 14.75 24.6818 14.75 24.6307C14.75 24.5795 14.4603 24.2562 14.1061 23.9122L13.4622 23.2868L14.1149 22.6528C14.6369 22.1459 14.7567 21.9855 14.7129 21.8523C14.6828 21.7606 14.5804 21.6618 14.4853 21.6327C14.3454 21.5898 14.1559 21.7304 13.4896 22.3714C13.037 22.8068 12.6667 23.2174 12.6667 23.2838C12.6667 23.4267 14.2431 24.9766 14.3883 24.9766C14.4432 24.9766 14.547 24.9197 14.619 24.8502ZM16.8572 24.8616C16.9744 24.7485 17.6667 22.2355 17.6667 21.9233C17.6667 21.7388 17.4044 21.5757 17.2184 21.6446C17.0666 21.7009 17.0118 21.8586 16.6284 23.3431C16.304 24.5992 16.2864 24.7381 16.4333 24.8801C16.5662 25.0083 16.7118 25.002 16.8572 24.8616ZM20.5193 24.1936C20.967 23.7629 21.3333 23.3548 21.3333 23.2868C21.3333 23.2188 20.963 22.8068 20.5104 22.3714C19.8441 21.7304 19.6546 21.5898 19.5147 21.6327C19.4196 21.6618 19.3172 21.7606 19.2871 21.8523C19.2433 21.9855 19.3631 22.1459 19.8851 22.6528L20.5378 23.2868L19.8939 23.9122C19.5397 24.2562 19.25 24.5795 19.25 24.6307C19.25 24.7511 19.4838 24.9766 19.6086 24.9766C19.6618 24.9766 20.0716 24.6242 20.5193 24.1936ZM9.65959 19.8142C9.60202 19.7104 9.45818 19.3373 9.33995 18.985C9.14439 18.4022 9.10245 18.34 8.875 18.2947C8.18742 18.158 8 17.8139 8 16.6884C8 15.563 8.18742 15.2189 8.875 15.0822C9.10308 15.0368 9.14427 14.975 9.34483 14.377C9.46574 14.0165 9.70742 13.4464 9.88191 13.11C10.1851 12.5255 10.1934 12.4888 10.0692 12.28C9.70756 11.6718 9.79937 11.3832 10.6086 10.5844C11.4506 9.75315 11.7957 9.64178 12.4335 9.9954C12.6488 10.1148 12.689 10.1058 13.3502 9.79062C13.7305 9.60933 14.313 9.38191 14.6447 9.28524C15.218 9.11813 15.2519 9.09479 15.3308 8.81176C15.4263 8.46917 15.6754 8.18228 15.9718 8.07347C16.2386 7.97551 17.7614 7.97551 18.0282 8.07347C18.3246 8.18228 18.5737 8.46917 18.6692 8.81176C18.7481 9.09479 18.782 9.11813 19.3553 9.28524C19.687 9.38191 20.2695 9.60933 20.6498 9.79062C21.311 10.1058 21.3512 10.1148 21.5665 9.9954C22.1952 9.64685 22.4946 9.7358 23.3215 10.5168C24.1842 11.3317 24.2979 11.6628 23.9286 12.2836C23.8019 12.4965 23.8084 12.5282 24.0846 13.0481C24.2431 13.3464 24.4872 13.9151 24.627 14.312C24.859 14.9704 24.9028 15.0378 25.1281 15.0827C25.8124 15.2191 26 15.5646 26 16.6884C26 17.8123 25.8124 18.1578 25.1281 18.2942C24.9019 18.3393 24.8596 18.4055 24.6218 19.0871C24.4791 19.4962 24.3277 19.8571 24.2853 19.8891C24.243 19.9212 23.3755 19.9364 22.3576 19.9229L20.5069 19.8985L20.8671 19.4261C22.5363 17.2366 21.8811 14.1117 19.4583 12.7068C17.9668 11.842 16.0332 11.842 14.5417 12.7068C12.1114 14.116 11.4601 17.2319 13.1362 19.4304L13.4997 19.9072L11.8123 19.9083C10.8843 19.9089 10.0438 19.9304 9.94464 19.9561C9.81157 19.9906 9.73682 19.9533 9.65959 19.8142Z" fill="#566B88"/>
</svg>
