<svg width="146" height="58" viewBox="0 0 146 58" fill="none" xmlns="http://www.w3.org/2000/svg">
<rect opacity="0.15" x="6" y="6" width="134" height="46" rx="10" fill="#ACB0BC"/>
<rect x="12" y="12" width="34" height="34" rx="10" fill="#ACB0BC"/>
<path d="M29.0076 20C34.0281 19.9997 38.0046 23.9739 38.0049 28.9925C38.0052 34.0127 34.0295 37.955 29.0116 38.0001C24.039 38.045 19.933 33.8307 20.0008 28.9426C20.0695 23.9681 24.0104 20.0003 29.0076 20ZM29.8217 30.2903C29.8217 29.5096 29.8304 28.7286 29.8189 27.9479C29.8099 27.3368 29.4891 26.9406 29.0253 26.9288C28.5441 26.9165 28.2039 27.327 28.2006 27.9695C28.1921 29.5133 28.1919 31.0573 28.2011 32.601C28.2048 33.2113 28.5303 33.6083 28.9939 33.6204C29.4743 33.6327 29.8111 33.2214 29.8195 32.5797C29.8296 31.8167 29.822 31.0536 29.8217 30.2906V30.2903ZM29.0331 26.3705C29.4336 26.3553 29.8116 25.9538 29.7965 25.5595C29.7813 25.1593 29.3795 24.7807 28.9858 24.7959C28.5859 24.811 28.2073 25.2129 28.2221 25.6069C28.237 26.0062 28.64 26.3856 29.0331 26.3705Z" fill="white"/>
<path d="M58.4929 26.7827C58.4588 26.4389 58.3125 26.1719 58.054 25.9815C57.7955 25.7912 57.4446 25.696 57.0014 25.696C56.7003 25.696 56.446 25.7386 56.2386 25.8239C56.0313 25.9062 55.8722 26.0213 55.7614 26.169C55.6534 26.3168 55.5994 26.4844 55.5994 26.6719C55.5938 26.8281 55.6264 26.9645 55.6974 27.081C55.7713 27.1974 55.8722 27.2983 56 27.3835C56.1278 27.4659 56.2756 27.5384 56.4432 27.6009C56.6108 27.6605 56.7898 27.7116 56.9801 27.7543L57.7642 27.9418C58.1449 28.027 58.4943 28.1406 58.8125 28.2827C59.1307 28.4247 59.4063 28.5994 59.6392 28.8068C59.8722 29.0142 60.0526 29.2585 60.1804 29.5398C60.3111 29.821 60.3778 30.1435 60.3807 30.5071C60.3778 31.0412 60.2415 31.5043 59.9716 31.8963C59.7045 32.2855 59.3182 32.5881 58.8125 32.804C58.3097 33.017 57.7031 33.1236 56.9929 33.1236C56.2884 33.1236 55.6747 33.0156 55.152 32.7997C54.6321 32.5838 54.2259 32.2642 53.9332 31.8409C53.6435 31.4148 53.4915 30.8878 53.4773 30.2599H55.2628C55.2827 30.5526 55.3665 30.7969 55.5142 30.9929C55.6648 31.1861 55.8651 31.3324 56.1151 31.4318C56.3679 31.5284 56.6534 31.5767 56.9716 31.5767C57.2841 31.5767 57.5554 31.5312 57.7855 31.4403C58.0185 31.3494 58.1989 31.223 58.3267 31.0611C58.4545 30.8991 58.5185 30.7131 58.5185 30.5028C58.5185 30.3068 58.4602 30.142 58.3438 30.0085C58.2301 29.875 58.0625 29.7614 57.8409 29.6676C57.6222 29.5739 57.3537 29.4886 57.0355 29.4119L56.0852 29.1733C55.3494 28.9943 54.7685 28.7145 54.3423 28.3338C53.9162 27.9531 53.7045 27.4403 53.7074 26.7955C53.7045 26.267 53.8452 25.8054 54.1293 25.4105C54.4162 25.0156 54.8097 24.7074 55.3097 24.4858C55.8097 24.2642 56.3778 24.1534 57.0142 24.1534C57.6619 24.1534 58.2273 24.2642 58.7102 24.4858C59.196 24.7074 59.5739 25.0156 59.8438 25.4105C60.1136 25.8054 60.2528 26.2628 60.2614 26.7827H58.4929ZM64.5451 33.1278C63.8832 33.1278 63.3107 32.9872 62.8278 32.706C62.3477 32.4219 61.9769 32.027 61.7156 31.5213C61.4542 31.0128 61.3235 30.4233 61.3235 29.7528C61.3235 29.0767 61.4542 28.4858 61.7156 27.9801C61.9769 27.4716 62.3477 27.0767 62.8278 26.7955C63.3107 26.5114 63.8832 26.3693 64.5451 26.3693C65.207 26.3693 65.7781 26.5114 66.2582 26.7955C66.7411 27.0767 67.1133 27.4716 67.3746 27.9801C67.636 28.4858 67.7667 29.0767 67.7667 29.7528C67.7667 30.4233 67.636 31.0128 67.3746 31.5213C67.1133 32.027 66.7411 32.4219 66.2582 32.706C65.7781 32.9872 65.207 33.1278 64.5451 33.1278ZM64.5536 31.7216C64.8548 31.7216 65.1062 31.6364 65.3079 31.4659C65.5096 31.2926 65.6616 31.0568 65.7638 30.7585C65.869 30.4602 65.9215 30.1207 65.9215 29.7401C65.9215 29.3594 65.869 29.0199 65.7638 28.7216C65.6616 28.4233 65.5096 28.1875 65.3079 28.0142C65.1062 27.8409 64.8548 27.7543 64.5536 27.7543C64.2496 27.7543 63.994 27.8409 63.7866 28.0142C63.582 28.1875 63.4272 28.4233 63.3221 28.7216C63.2198 29.0199 63.1687 29.3594 63.1687 29.7401C63.1687 30.1207 63.2198 30.4602 63.3221 30.7585C63.4272 31.0568 63.582 31.2926 63.7866 31.4659C63.994 31.6364 64.2496 31.7216 64.5536 31.7216ZM68.9812 33V24.2727H70.7965V27.554H70.8519C70.9315 27.3778 71.0465 27.1989 71.1971 27.017C71.3505 26.8324 71.5494 26.679 71.7937 26.5568C72.0408 26.4318 72.3477 26.3693 72.7141 26.3693C73.1914 26.3693 73.6317 26.4943 74.0352 26.7443C74.4386 26.9915 74.761 27.3651 75.0025 27.8651C75.244 28.3622 75.3647 28.9858 75.3647 29.7358C75.3647 30.4659 75.2468 31.0824 75.011 31.5852C74.7781 32.0852 74.4599 32.4645 74.0565 32.723C73.6559 32.9787 73.207 33.1065 72.7099 33.1065C72.3576 33.1065 72.0579 33.0483 71.8107 32.9318C71.5664 32.8153 71.3661 32.669 71.2099 32.4929C71.0536 32.3139 70.9343 32.1335 70.8519 31.9517H70.771V33H68.9812ZM70.7582 29.7273C70.7582 30.1165 70.8121 30.456 70.9201 30.7457C71.0281 31.0355 71.1843 31.2614 71.3888 31.4233C71.5934 31.5824 71.842 31.6619 72.1346 31.6619C72.43 31.6619 72.68 31.581 72.8846 31.419C73.0891 31.2543 73.244 31.027 73.3491 30.7372C73.457 30.4446 73.511 30.108 73.511 29.7273C73.511 29.3494 73.4585 29.017 73.3533 28.7301C73.2482 28.4432 73.0934 28.2187 72.8888 28.0568C72.6843 27.8949 72.4329 27.8139 72.1346 27.8139C71.8391 27.8139 71.5891 27.892 71.3846 28.0483C71.1829 28.2045 71.0281 28.4261 70.9201 28.7131C70.8121 29 70.7582 29.3381 70.7582 29.7273ZM76.576 33V26.4545H78.3359V27.5966H78.4041C78.5234 27.1903 78.7237 26.8835 79.005 26.6761C79.2862 26.4659 79.6101 26.3608 79.9766 26.3608C80.0675 26.3608 80.1655 26.3665 80.2706 26.3778C80.3757 26.3892 80.468 26.4048 80.5476 26.4247V28.0355C80.4624 28.0099 80.3445 27.9872 80.1939 27.9673C80.0433 27.9474 79.9055 27.9375 79.7805 27.9375C79.5135 27.9375 79.2749 27.9957 79.0646 28.1122C78.8572 28.2259 78.6925 28.3849 78.5703 28.5895C78.451 28.794 78.3913 29.0298 78.3913 29.2969V33H76.576ZM84.1644 33.1278C83.4911 33.1278 82.9116 32.9915 82.4258 32.7188C81.9428 32.4432 81.5707 32.054 81.3093 31.5511C81.0479 31.0455 80.9173 30.4474 80.9173 29.7571C80.9173 29.0838 81.0479 28.4929 81.3093 27.9844C81.5707 27.4759 81.9386 27.0795 82.413 26.7955C82.8903 26.5114 83.4499 26.3693 84.092 26.3693C84.5238 26.3693 84.9258 26.4389 85.2979 26.5781C85.6729 26.7145 85.9996 26.9205 86.2781 27.196C86.5593 27.4716 86.7781 27.8182 86.9343 28.2358C87.0906 28.6506 87.1687 29.1364 87.1687 29.6932V30.1918H81.6417V29.0668H85.4599C85.4599 28.8054 85.4031 28.5739 85.2894 28.3722C85.1758 28.1705 85.0181 28.0128 84.8164 27.8991C84.6175 27.7827 84.386 27.7244 84.1218 27.7244C83.8462 27.7244 83.6019 27.7884 83.3888 27.9162C83.1786 28.0412 83.0138 28.2102 82.8945 28.4233C82.7752 28.6335 82.7141 28.8679 82.7113 29.1264V30.196C82.7113 30.5199 82.771 30.7997 82.8903 31.0355C83.0124 31.2713 83.1843 31.4531 83.4059 31.581C83.6275 31.7088 83.8903 31.7727 84.1942 31.7727C84.396 31.7727 84.5806 31.7443 84.7482 31.6875C84.9158 31.6307 85.0593 31.5455 85.1786 31.4318C85.2979 31.3182 85.3888 31.179 85.4513 31.0142L87.1303 31.125C87.0451 31.5284 86.8704 31.8807 86.6062 32.1818C86.3448 32.4801 86.0067 32.7131 85.592 32.8807C85.18 33.0455 84.7042 33.1278 84.1644 33.1278ZM91.1648 33V24.2727H94.608C95.2699 24.2727 95.8338 24.3991 96.2997 24.652C96.7656 24.902 97.1207 25.25 97.3651 25.696C97.6122 26.1392 97.7358 26.6506 97.7358 27.2301C97.7358 27.8097 97.6108 28.321 97.3608 28.7642C97.1108 29.2074 96.7486 29.5526 96.2741 29.7997C95.8026 30.0469 95.2315 30.1705 94.5611 30.1705H92.3665V28.6918H94.2628C94.6179 28.6918 94.9105 28.6307 95.1406 28.5085C95.3736 28.3835 95.5469 28.2116 95.6605 27.9929C95.777 27.7713 95.8352 27.517 95.8352 27.2301C95.8352 26.9403 95.777 26.6875 95.6605 26.4716C95.5469 26.2528 95.3736 26.0838 95.1406 25.9645C94.9077 25.8423 94.6122 25.7812 94.2543 25.7812H93.0099V33H91.1648ZM98.9002 33V26.4545H100.66V27.5966H100.728C100.848 27.1903 101.048 26.8835 101.329 26.6761C101.61 26.4659 101.934 26.3608 102.301 26.3608C102.392 26.3608 102.49 26.3665 102.595 26.3778C102.7 26.3892 102.792 26.4048 102.872 26.4247V28.0355C102.787 28.0099 102.669 27.9872 102.518 27.9673C102.368 27.9474 102.23 27.9375 102.105 27.9375C101.838 27.9375 101.599 27.9957 101.389 28.1122C101.181 28.2259 101.017 28.3849 100.895 28.5895C100.775 28.794 100.716 29.0298 100.716 29.2969V33H98.9002ZM106.463 33.1278C105.801 33.1278 105.229 32.9872 104.746 32.706C104.266 32.4219 103.895 32.027 103.634 31.5213C103.372 31.0128 103.241 30.4233 103.241 29.7528C103.241 29.0767 103.372 28.4858 103.634 27.9801C103.895 27.4716 104.266 27.0767 104.746 26.7955C105.229 26.5114 105.801 26.3693 106.463 26.3693C107.125 26.3693 107.696 26.5114 108.176 26.7955C108.659 27.0767 109.031 27.4716 109.293 27.9801C109.554 28.4858 109.685 29.0767 109.685 29.7528C109.685 30.4233 109.554 31.0128 109.293 31.5213C109.031 32.027 108.659 32.4219 108.176 32.706C107.696 32.9872 107.125 33.1278 106.463 33.1278ZM106.472 31.7216C106.773 31.7216 107.024 31.6364 107.226 31.4659C107.428 31.2926 107.58 31.0568 107.682 30.7585C107.787 30.4602 107.839 30.1207 107.839 29.7401C107.839 29.3594 107.787 29.0199 107.682 28.7216C107.58 28.4233 107.428 28.1875 107.226 28.0142C107.024 27.8409 106.773 27.7543 106.472 27.7543C106.168 27.7543 105.912 27.8409 105.705 28.0142C105.5 28.1875 105.345 28.4233 105.24 28.7216C105.138 29.0199 105.087 29.3594 105.087 29.7401C105.087 30.1207 105.138 30.4602 105.24 30.7585C105.345 31.0568 105.5 31.2926 105.705 31.4659C105.912 31.6364 106.168 31.7216 106.472 31.7216ZM110.865 26.4545H112.68V33.3239C112.68 33.8295 112.581 34.2386 112.382 34.5511C112.183 34.8636 111.898 35.0923 111.526 35.2372C111.156 35.3821 110.714 35.4545 110.2 35.4545C110.138 35.4545 110.078 35.4531 110.021 35.4503C109.962 35.4503 109.899 35.4489 109.834 35.446V34.027C109.882 34.0298 109.925 34.0312 109.962 34.0312C109.996 34.0341 110.033 34.0355 110.072 34.0355C110.365 34.0355 110.57 33.973 110.686 33.848C110.805 33.7259 110.865 33.5412 110.865 33.294V26.4545ZM111.768 25.6108C111.501 25.6108 111.271 25.5213 111.078 25.3423C110.885 25.1605 110.788 24.9432 110.788 24.6903C110.788 24.4403 110.885 24.2259 111.078 24.0469C111.271 23.8651 111.501 23.7741 111.768 23.7741C112.041 23.7741 112.273 23.8651 112.463 24.0469C112.656 24.2259 112.753 24.4403 112.753 24.6903C112.753 24.9432 112.656 25.1605 112.463 25.3423C112.273 25.5213 112.041 25.6108 111.768 25.6108ZM117.118 33.1278C116.444 33.1278 115.865 32.9915 115.379 32.7188C114.896 32.4432 114.524 32.054 114.262 31.5511C114.001 31.0455 113.87 30.4474 113.87 29.7571C113.87 29.0838 114.001 28.4929 114.262 27.9844C114.524 27.4759 114.892 27.0795 115.366 26.7955C115.843 26.5114 116.403 26.3693 117.045 26.3693C117.477 26.3693 117.879 26.4389 118.251 26.5781C118.626 26.7145 118.953 26.9205 119.231 27.196C119.512 27.4716 119.731 27.8182 119.887 28.2358C120.044 28.6506 120.122 29.1364 120.122 29.6932V30.1918H114.595V29.0668H118.413C118.413 28.8054 118.356 28.5739 118.243 28.3722C118.129 28.1705 117.971 28.0128 117.77 27.8991C117.571 27.7827 117.339 27.7244 117.075 27.7244C116.799 27.7244 116.555 27.7884 116.342 27.9162C116.132 28.0412 115.967 28.2102 115.848 28.4233C115.728 28.6335 115.667 28.8679 115.664 29.1264V30.196C115.664 30.5199 115.724 30.7997 115.843 31.0355C115.966 31.2713 116.137 31.4531 116.359 31.581C116.581 31.7088 116.843 31.7727 117.147 31.7727C117.349 31.7727 117.534 31.7443 117.701 31.6875C117.869 31.6307 118.012 31.5455 118.132 31.4318C118.251 31.3182 118.342 31.179 118.404 31.0142L120.083 31.125C119.998 31.5284 119.824 31.8807 119.559 32.1818C119.298 32.4801 118.96 32.7131 118.545 32.8807C118.133 33.0455 117.657 33.1278 117.118 33.1278ZM124.788 26.4545V27.8182H120.846V26.4545H124.788ZM121.741 24.8864H123.556V30.9886C123.556 31.1562 123.582 31.2869 123.633 31.3807C123.684 31.4716 123.755 31.5355 123.846 31.5724C123.94 31.6094 124.048 31.6278 124.17 31.6278C124.255 31.6278 124.341 31.6207 124.426 31.6065C124.511 31.5895 124.576 31.5767 124.622 31.5682L124.907 32.919C124.816 32.9474 124.689 32.9801 124.524 33.017C124.359 33.0568 124.159 33.081 123.923 33.0895C123.485 33.1065 123.102 33.0483 122.772 32.9148C122.446 32.7812 122.191 32.5739 122.01 32.2926C121.828 32.0114 121.738 31.6562 121.741 31.2273V24.8864ZM128.858 33.1278C128.196 33.1278 127.623 32.9872 127.14 32.706C126.66 32.4219 126.289 32.027 126.028 31.5213C125.767 31.0128 125.636 30.4233 125.636 29.7528C125.636 29.0767 125.767 28.4858 126.028 27.9801C126.289 27.4716 126.66 27.0767 127.14 26.7955C127.623 26.5114 128.196 26.3693 128.858 26.3693C129.52 26.3693 130.091 26.5114 130.571 26.7955C131.054 27.0767 131.426 27.4716 131.687 27.9801C131.949 28.4858 132.079 29.0767 132.079 29.7528C132.079 30.4233 131.949 31.0128 131.687 31.5213C131.426 32.027 131.054 32.4219 130.571 32.706C130.091 32.9872 129.52 33.1278 128.858 33.1278ZM128.866 31.7216C129.167 31.7216 129.419 31.6364 129.62 31.4659C129.822 31.2926 129.974 31.0568 130.076 30.7585C130.181 30.4602 130.234 30.1207 130.234 29.7401C130.234 29.3594 130.181 29.0199 130.076 28.7216C129.974 28.4233 129.822 28.1875 129.62 28.0142C129.419 27.8409 129.167 27.7543 128.866 27.7543C128.562 27.7543 128.306 27.8409 128.099 28.0142C127.895 28.1875 127.74 28.4233 127.635 28.7216C127.532 29.0199 127.481 29.3594 127.481 29.7401C127.481 30.1207 127.532 30.4602 127.635 30.7585C127.74 31.0568 127.895 31.2926 128.099 31.4659C128.306 31.6364 128.562 31.7216 128.866 31.7216Z" fill="white"/>
</svg>
