<svg width="34" height="34" viewBox="0 0 34 34" fill="none" xmlns="http://www.w3.org/2000/svg">
<rect width="34" height="34" rx="10" fill="#ACB0BC" fill-opacity="0.15"/>
<path d="M17.0076 8C22.0281 7.99972 26.0046 11.9739 26.0049 16.9925C26.0052 22.0127 22.0295 25.955 17.0116 26.0001C12.039 26.045 7.93297 21.8307 8.00083 16.9426C8.06953 11.9681 12.0104 8.00028 17.0076 8ZM17.8217 18.2903C17.8217 17.5096 17.8304 16.7286 17.8189 15.9479C17.8099 15.3368 17.4891 14.9406 17.0253 14.9288C16.5441 14.9165 16.2039 15.327 16.2006 15.9695C16.1921 17.5133 16.1919 19.0573 16.2011 20.601C16.2048 21.2113 16.5303 21.6083 16.9939 21.6204C17.4743 21.6327 17.8111 21.2214 17.8195 20.5797C17.8296 19.8167 17.822 19.0536 17.8217 18.2906V18.2903ZM17.0331 14.3705C17.4336 14.3553 17.8116 13.9538 17.7965 13.5595C17.7813 13.1593 17.3795 12.7807 16.9858 12.7959C16.5859 12.811 16.2073 13.2129 16.2221 13.6069C16.237 14.0062 16.64 14.3856 17.0331 14.3705Z" fill="#ACB0BC"/>
</svg>
