<svg width="134" height="46" viewBox="0 0 134 46" fill="none" xmlns="http://www.w3.org/2000/svg">
<rect opacity="0.15" width="134" height="46" rx="10" fill="#ACB0BC"/>
<rect x="6" y="6" width="34" height="34" rx="10" fill="#ACB0BC"/>
<path d="M23.0076 14C28.0281 13.9997 32.0046 17.9739 32.0049 22.9925C32.0052 28.0127 28.0295 31.955 23.0116 32.0001C18.039 32.045 13.933 27.8307 14.0008 22.9426C14.0695 17.9681 18.0104 14.0003 23.0076 14ZM23.8217 24.2903C23.8217 23.5096 23.8304 22.7286 23.8189 21.9479C23.8099 21.3368 23.4891 20.9406 23.0253 20.9288C22.5441 20.9165 22.2039 21.327 22.2006 21.9695C22.1921 23.5133 22.1919 25.0573 22.2011 26.601C22.2048 27.2113 22.5303 27.6083 22.9939 27.6204C23.4743 27.6327 23.8111 27.2214 23.8195 26.5797C23.8296 25.8167 23.822 25.0536 23.8217 24.2906V24.2903ZM23.0331 20.3705C23.4336 20.3553 23.8116 19.9538 23.7965 19.5595C23.7813 19.1593 23.3795 18.7807 22.9858 18.7959C22.5859 18.811 22.2073 19.2129 22.2221 19.6069C22.237 20.0062 22.64 20.3856 23.0331 20.3705Z" fill="white"/>
<path d="M52.4929 20.7827C52.4588 20.4389 52.3125 20.1719 52.054 19.9815C51.7955 19.7912 51.4446 19.696 51.0014 19.696C50.7003 19.696 50.446 19.7386 50.2386 19.8239C50.0313 19.9062 49.8722 20.0213 49.7614 20.169C49.6534 20.3168 49.5994 20.4844 49.5994 20.6719C49.5938 20.8281 49.6264 20.9645 49.6974 21.081C49.7713 21.1974 49.8722 21.2983 50 21.3835C50.1278 21.4659 50.2756 21.5384 50.4432 21.6009C50.6108 21.6605 50.7898 21.7116 50.9801 21.7543L51.7642 21.9418C52.1449 22.027 52.4943 22.1406 52.8125 22.2827C53.1307 22.4247 53.4063 22.5994 53.6392 22.8068C53.8722 23.0142 54.0526 23.2585 54.1804 23.5398C54.3111 23.821 54.3778 24.1435 54.3807 24.5071C54.3778 25.0412 54.2415 25.5043 53.9716 25.8963C53.7045 26.2855 53.3182 26.5881 52.8125 26.804C52.3097 27.017 51.7031 27.1236 50.9929 27.1236C50.2884 27.1236 49.6747 27.0156 49.152 26.7997C48.6321 26.5838 48.2259 26.2642 47.9332 25.8409C47.6435 25.4148 47.4915 24.8878 47.4773 24.2599H49.2628C49.2827 24.5526 49.3665 24.7969 49.5142 24.9929C49.6648 25.1861 49.8651 25.3324 50.1151 25.4318C50.3679 25.5284 50.6534 25.5767 50.9716 25.5767C51.2841 25.5767 51.5554 25.5312 51.7855 25.4403C52.0185 25.3494 52.1989 25.223 52.3267 25.0611C52.4545 24.8991 52.5185 24.7131 52.5185 24.5028C52.5185 24.3068 52.4602 24.142 52.3438 24.0085C52.2301 23.875 52.0625 23.7614 51.8409 23.6676C51.6222 23.5739 51.3537 23.4886 51.0355 23.4119L50.0852 23.1733C49.3494 22.9943 48.7685 22.7145 48.3423 22.3338C47.9162 21.9531 47.7045 21.4403 47.7074 20.7955C47.7045 20.267 47.8452 19.8054 48.1293 19.4105C48.4162 19.0156 48.8097 18.7074 49.3097 18.4858C49.8097 18.2642 50.3778 18.1534 51.0142 18.1534C51.6619 18.1534 52.2273 18.2642 52.7102 18.4858C53.196 18.7074 53.5739 19.0156 53.8438 19.4105C54.1136 19.8054 54.2528 20.2628 54.2614 20.7827H52.4929ZM58.5451 27.1278C57.8832 27.1278 57.3107 26.9872 56.8278 26.706C56.3477 26.4219 55.9769 26.027 55.7156 25.5213C55.4542 25.0128 55.3235 24.4233 55.3235 23.7528C55.3235 23.0767 55.4542 22.4858 55.7156 21.9801C55.9769 21.4716 56.3477 21.0767 56.8278 20.7955C57.3107 20.5114 57.8832 20.3693 58.5451 20.3693C59.207 20.3693 59.7781 20.5114 60.2582 20.7955C60.7411 21.0767 61.1133 21.4716 61.3746 21.9801C61.636 22.4858 61.7667 23.0767 61.7667 23.7528C61.7667 24.4233 61.636 25.0128 61.3746 25.5213C61.1133 26.027 60.7411 26.4219 60.2582 26.706C59.7781 26.9872 59.207 27.1278 58.5451 27.1278ZM58.5536 25.7216C58.8548 25.7216 59.1062 25.6364 59.3079 25.4659C59.5096 25.2926 59.6616 25.0568 59.7638 24.7585C59.869 24.4602 59.9215 24.1207 59.9215 23.7401C59.9215 23.3594 59.869 23.0199 59.7638 22.7216C59.6616 22.4233 59.5096 22.1875 59.3079 22.0142C59.1062 21.8409 58.8548 21.7543 58.5536 21.7543C58.2496 21.7543 57.994 21.8409 57.7866 22.0142C57.582 22.1875 57.4272 22.4233 57.3221 22.7216C57.2198 23.0199 57.1687 23.3594 57.1687 23.7401C57.1687 24.1207 57.2198 24.4602 57.3221 24.7585C57.4272 25.0568 57.582 25.2926 57.7866 25.4659C57.994 25.6364 58.2496 25.7216 58.5536 25.7216ZM62.9812 27V18.2727H64.7965V21.554H64.8519C64.9315 21.3778 65.0465 21.1989 65.1971 21.017C65.3505 20.8324 65.5494 20.679 65.7937 20.5568C66.0408 20.4318 66.3477 20.3693 66.7141 20.3693C67.1914 20.3693 67.6317 20.4943 68.0352 20.7443C68.4386 20.9915 68.761 21.3651 69.0025 21.8651C69.244 22.3622 69.3647 22.9858 69.3647 23.7358C69.3647 24.4659 69.2468 25.0824 69.011 25.5852C68.7781 26.0852 68.4599 26.4645 68.0565 26.723C67.6559 26.9787 67.207 27.1065 66.7099 27.1065C66.3576 27.1065 66.0579 27.0483 65.8107 26.9318C65.5664 26.8153 65.3661 26.669 65.2099 26.4929C65.0536 26.3139 64.9343 26.1335 64.8519 25.9517H64.771V27H62.9812ZM64.7582 23.7273C64.7582 24.1165 64.8121 24.456 64.9201 24.7457C65.0281 25.0355 65.1843 25.2614 65.3888 25.4233C65.5934 25.5824 65.842 25.6619 66.1346 25.6619C66.43 25.6619 66.68 25.581 66.8846 25.419C67.0891 25.2543 67.244 25.027 67.3491 24.7372C67.457 24.4446 67.511 24.108 67.511 23.7273C67.511 23.3494 67.4585 23.017 67.3533 22.7301C67.2482 22.4432 67.0934 22.2187 66.8888 22.0568C66.6843 21.8949 66.4329 21.8139 66.1346 21.8139C65.8391 21.8139 65.5891 21.892 65.3846 22.0483C65.1829 22.2045 65.0281 22.4261 64.9201 22.7131C64.8121 23 64.7582 23.3381 64.7582 23.7273ZM70.576 27V20.4545H72.3359V21.5966H72.4041C72.5234 21.1903 72.7237 20.8835 73.005 20.6761C73.2862 20.4659 73.6101 20.3608 73.9766 20.3608C74.0675 20.3608 74.1655 20.3665 74.2706 20.3778C74.3757 20.3892 74.468 20.4048 74.5476 20.4247V22.0355C74.4624 22.0099 74.3445 21.9872 74.1939 21.9673C74.0433 21.9474 73.9055 21.9375 73.7805 21.9375C73.5135 21.9375 73.2749 21.9957 73.0646 22.1122C72.8572 22.2259 72.6925 22.3849 72.5703 22.5895C72.451 22.794 72.3913 23.0298 72.3913 23.2969V27H70.576ZM78.1644 27.1278C77.4911 27.1278 76.9116 26.9915 76.4258 26.7188C75.9428 26.4432 75.5707 26.054 75.3093 25.5511C75.0479 25.0455 74.9173 24.4474 74.9173 23.7571C74.9173 23.0838 75.0479 22.4929 75.3093 21.9844C75.5707 21.4759 75.9386 21.0795 76.413 20.7955C76.8903 20.5114 77.4499 20.3693 78.092 20.3693C78.5238 20.3693 78.9258 20.4389 79.2979 20.5781C79.6729 20.7145 79.9996 20.9205 80.2781 21.196C80.5593 21.4716 80.7781 21.8182 80.9343 22.2358C81.0906 22.6506 81.1687 23.1364 81.1687 23.6932V24.1918H75.6417V23.0668H79.4599C79.4599 22.8054 79.4031 22.5739 79.2894 22.3722C79.1758 22.1705 79.0181 22.0128 78.8164 21.8991C78.6175 21.7827 78.386 21.7244 78.1218 21.7244C77.8462 21.7244 77.6019 21.7884 77.3888 21.9162C77.1786 22.0412 77.0138 22.2102 76.8945 22.4233C76.7752 22.6335 76.7141 22.8679 76.7113 23.1264V24.196C76.7113 24.5199 76.771 24.7997 76.8903 25.0355C77.0124 25.2713 77.1843 25.4531 77.4059 25.581C77.6275 25.7088 77.8903 25.7727 78.1942 25.7727C78.396 25.7727 78.5806 25.7443 78.7482 25.6875C78.9158 25.6307 79.0593 25.5455 79.1786 25.4318C79.2979 25.3182 79.3888 25.179 79.4513 25.0142L81.1303 25.125C81.0451 25.5284 80.8704 25.8807 80.6062 26.1818C80.3448 26.4801 80.0067 26.7131 79.592 26.8807C79.18 27.0455 78.7042 27.1278 78.1644 27.1278ZM85.1648 27V18.2727H88.608C89.2699 18.2727 89.8338 18.3991 90.2997 18.652C90.7656 18.902 91.1207 19.25 91.3651 19.696C91.6122 20.1392 91.7358 20.6506 91.7358 21.2301C91.7358 21.8097 91.6108 22.321 91.3608 22.7642C91.1108 23.2074 90.7486 23.5526 90.2741 23.7997C89.8026 24.0469 89.2315 24.1705 88.5611 24.1705H86.3665V22.6918H88.2628C88.6179 22.6918 88.9105 22.6307 89.1406 22.5085C89.3736 22.3835 89.5469 22.2116 89.6605 21.9929C89.777 21.7713 89.8352 21.517 89.8352 21.2301C89.8352 20.9403 89.777 20.6875 89.6605 20.4716C89.5469 20.2528 89.3736 20.0838 89.1406 19.9645C88.9077 19.8423 88.6122 19.7812 88.2543 19.7812H87.0099V27H85.1648ZM92.9002 27V20.4545H94.6602V21.5966H94.7283C94.8477 21.1903 95.0479 20.8835 95.3292 20.6761C95.6104 20.4659 95.9343 20.3608 96.3008 20.3608C96.3917 20.3608 96.4897 20.3665 96.5948 20.3778C96.6999 20.3892 96.7923 20.4048 96.8718 20.4247V22.0355C96.7866 22.0099 96.6687 21.9872 96.5181 21.9673C96.3675 21.9474 96.2298 21.9375 96.1048 21.9375C95.8377 21.9375 95.5991 21.9957 95.3888 22.1122C95.1815 22.2259 95.0167 22.3849 94.8945 22.5895C94.7752 22.794 94.7156 23.0298 94.7156 23.2969V27H92.9002ZM100.463 27.1278C99.8011 27.1278 99.2287 26.9872 98.7457 26.706C98.2656 26.4219 97.8949 26.027 97.6335 25.5213C97.3722 25.0128 97.2415 24.4233 97.2415 23.7528C97.2415 23.0767 97.3722 22.4858 97.6335 21.9801C97.8949 21.4716 98.2656 21.0767 98.7457 20.7955C99.2287 20.5114 99.8011 20.3693 100.463 20.3693C101.125 20.3693 101.696 20.5114 102.176 20.7955C102.659 21.0767 103.031 21.4716 103.293 21.9801C103.554 22.4858 103.685 23.0767 103.685 23.7528C103.685 24.4233 103.554 25.0128 103.293 25.5213C103.031 26.027 102.659 26.4219 102.176 26.706C101.696 26.9872 101.125 27.1278 100.463 27.1278ZM100.472 25.7216C100.773 25.7216 101.024 25.6364 101.226 25.4659C101.428 25.2926 101.58 25.0568 101.682 24.7585C101.787 24.4602 101.839 24.1207 101.839 23.7401C101.839 23.3594 101.787 23.0199 101.682 22.7216C101.58 22.4233 101.428 22.1875 101.226 22.0142C101.024 21.8409 100.773 21.7543 100.472 21.7543C100.168 21.7543 99.9119 21.8409 99.7045 22.0142C99.5 22.1875 99.3452 22.4233 99.2401 22.7216C99.1378 23.0199 99.0866 23.3594 99.0866 23.7401C99.0866 24.1207 99.1378 24.4602 99.2401 24.7585C99.3452 25.0568 99.5 25.2926 99.7045 25.4659C99.9119 25.6364 100.168 25.7216 100.472 25.7216ZM104.865 20.4545H106.68V27.3239C106.68 27.8295 106.581 28.2386 106.382 28.5511C106.183 28.8636 105.898 29.0923 105.526 29.2372C105.156 29.3821 104.714 29.4545 104.2 29.4545C104.138 29.4545 104.078 29.4531 104.021 29.4503C103.962 29.4503 103.899 29.4489 103.834 29.446V28.027C103.882 28.0298 103.925 28.0312 103.962 28.0312C103.996 28.0341 104.033 28.0355 104.072 28.0355C104.365 28.0355 104.57 27.973 104.686 27.848C104.805 27.7259 104.865 27.5412 104.865 27.294V20.4545ZM105.768 19.6108C105.501 19.6108 105.271 19.5213 105.078 19.3423C104.885 19.1605 104.788 18.9432 104.788 18.6903C104.788 18.4403 104.885 18.2259 105.078 18.0469C105.271 17.8651 105.501 17.7741 105.768 17.7741C106.041 17.7741 106.273 17.8651 106.463 18.0469C106.656 18.2259 106.753 18.4403 106.753 18.6903C106.753 18.9432 106.656 19.1605 106.463 19.3423C106.273 19.5213 106.041 19.6108 105.768 19.6108ZM111.118 27.1278C110.444 27.1278 109.865 26.9915 109.379 26.7188C108.896 26.4432 108.524 26.054 108.262 25.5511C108.001 25.0455 107.87 24.4474 107.87 23.7571C107.87 23.0838 108.001 22.4929 108.262 21.9844C108.524 21.4759 108.892 21.0795 109.366 20.7955C109.843 20.5114 110.403 20.3693 111.045 20.3693C111.477 20.3693 111.879 20.4389 112.251 20.5781C112.626 20.7145 112.953 20.9205 113.231 21.196C113.512 21.4716 113.731 21.8182 113.887 22.2358C114.044 22.6506 114.122 23.1364 114.122 23.6932V24.1918H108.595V23.0668H112.413C112.413 22.8054 112.356 22.5739 112.243 22.3722C112.129 22.1705 111.971 22.0128 111.77 21.8991C111.571 21.7827 111.339 21.7244 111.075 21.7244C110.799 21.7244 110.555 21.7884 110.342 21.9162C110.132 22.0412 109.967 22.2102 109.848 22.4233C109.728 22.6335 109.667 22.8679 109.664 23.1264V24.196C109.664 24.5199 109.724 24.7997 109.843 25.0355C109.966 25.2713 110.137 25.4531 110.359 25.581C110.581 25.7088 110.843 25.7727 111.147 25.7727C111.349 25.7727 111.534 25.7443 111.701 25.6875C111.869 25.6307 112.012 25.5455 112.132 25.4318C112.251 25.3182 112.342 25.179 112.404 25.0142L114.083 25.125C113.998 25.5284 113.824 25.8807 113.559 26.1818C113.298 26.4801 112.96 26.7131 112.545 26.8807C112.133 27.0455 111.657 27.1278 111.118 27.1278ZM118.788 20.4545V21.8182H114.846V20.4545H118.788ZM115.741 18.8864H117.556V24.9886C117.556 25.1562 117.582 25.2869 117.633 25.3807C117.684 25.4716 117.755 25.5355 117.846 25.5724C117.94 25.6094 118.048 25.6278 118.17 25.6278C118.255 25.6278 118.341 25.6207 118.426 25.6065C118.511 25.5895 118.576 25.5767 118.622 25.5682L118.907 26.919C118.816 26.9474 118.689 26.9801 118.524 27.017C118.359 27.0568 118.159 27.081 117.923 27.0895C117.485 27.1065 117.102 27.0483 116.772 26.9148C116.446 26.7812 116.191 26.5739 116.01 26.2926C115.828 26.0114 115.738 25.6562 115.741 25.2273V18.8864ZM122.858 27.1278C122.196 27.1278 121.623 26.9872 121.14 26.706C120.66 26.4219 120.289 26.027 120.028 25.5213C119.767 25.0128 119.636 24.4233 119.636 23.7528C119.636 23.0767 119.767 22.4858 120.028 21.9801C120.289 21.4716 120.66 21.0767 121.14 20.7955C121.623 20.5114 122.196 20.3693 122.858 20.3693C123.52 20.3693 124.091 20.5114 124.571 20.7955C125.054 21.0767 125.426 21.4716 125.687 21.9801C125.949 22.4858 126.079 23.0767 126.079 23.7528C126.079 24.4233 125.949 25.0128 125.687 25.5213C125.426 26.027 125.054 26.4219 124.571 26.706C124.091 26.9872 123.52 27.1278 122.858 27.1278ZM122.866 25.7216C123.167 25.7216 123.419 25.6364 123.62 25.4659C123.822 25.2926 123.974 25.0568 124.076 24.7585C124.181 24.4602 124.234 24.1207 124.234 23.7401C124.234 23.3594 124.181 23.0199 124.076 22.7216C123.974 22.4233 123.822 22.1875 123.62 22.0142C123.419 21.8409 123.167 21.7543 122.866 21.7543C122.562 21.7543 122.306 21.8409 122.099 22.0142C121.895 22.1875 121.74 22.4233 121.635 22.7216C121.532 23.0199 121.481 23.3594 121.481 23.7401C121.481 24.1207 121.532 24.4602 121.635 24.7585C121.74 25.0568 121.895 25.2926 122.099 25.4659C122.306 25.6364 122.562 25.7216 122.866 25.7216Z" fill="white"/>
</svg>
