<svg width="72" height="32" viewBox="0 0 72 32" fill="none" xmlns="http://www.w3.org/2000/svg">
<g clip-path="url(#clip0_344_32)">
<rect opacity="0.2" width="72" height="32" rx="5" fill="#FC5D20"/>
<path d="M22.8767 12.0835C22.8113 11.4246 22.5309 10.9128 22.0354 10.5479C21.5399 10.1831 20.8675 10.0007 20.018 10.0007C19.4408 10.0007 18.9535 10.0824 18.556 10.2457C18.1585 10.4036 17.8536 10.6242 17.6412 10.9073C17.4343 11.1905 17.3309 11.5117 17.3309 11.8711C17.32 12.1706 17.3826 12.4319 17.5187 12.6552C17.6603 12.8784 17.8536 13.0717 18.0986 13.2351C18.3437 13.393 18.6268 13.5318 18.9481 13.6516C19.2693 13.766 19.6124 13.864 19.9772 13.9457L21.48 14.305C22.2097 14.4684 22.8794 14.6862 23.4893 14.9585C24.0991 15.2307 24.6273 15.5656 25.0738 15.9631C25.5203 16.3606 25.866 16.8288 26.1111 17.3679C26.3615 17.907 26.4895 18.525 26.4949 19.2219C26.4895 20.2456 26.2281 21.1332 25.7108 21.8846C25.199 22.6306 24.4585 23.2105 23.4893 23.6243C22.5255 24.0327 21.363 24.2369 20.0017 24.2369C18.6513 24.2369 17.4752 24.0299 16.4733 23.6161C15.4768 23.2023 14.6982 22.5897 14.1373 21.7784C13.5819 20.9616 13.2906 19.9516 13.2634 18.7482H16.6856C16.7238 19.3091 16.8844 19.7773 17.1675 20.1531C17.4561 20.5233 17.84 20.8037 18.3192 20.9943C18.8038 21.1795 19.351 21.272 19.9608 21.272C20.5598 21.272 21.0798 21.1849 21.5209 21.0107C21.9674 20.8364 22.3131 20.5941 22.5582 20.2837C22.8032 19.9734 22.9257 19.6167 22.9257 19.2138C22.9257 18.8381 22.8141 18.5223 22.5908 18.2663C22.373 18.0104 22.0518 17.7926 21.627 17.6129C21.2078 17.4332 20.6932 17.2699 20.0834 17.1229L18.262 16.6655C16.8517 16.3224 15.7382 15.7861 14.9214 15.0565C14.1047 14.3268 13.699 13.344 13.7045 12.108C13.699 11.0952 13.9685 10.2103 14.5131 9.45348C15.063 8.69661 15.8171 8.10582 16.7755 7.68111C17.7338 7.25639 18.8228 7.04403 20.0425 7.04403C21.284 7.04403 22.3676 7.25639 23.2932 7.68111C24.2243 8.10582 24.9485 8.69661 25.4658 9.45348C25.9831 10.2103 26.2499 11.087 26.2662 12.0835H22.8767ZM37.948 12.0835C37.8826 11.4246 37.6022 10.9128 37.1067 10.5479C36.6112 10.1831 35.9387 10.0007 35.0893 10.0007C34.5121 10.0007 34.0248 10.0824 33.6273 10.2457C33.2298 10.4036 32.9249 10.6242 32.7125 10.9073C32.5056 11.1905 32.4022 11.5117 32.4022 11.8711C32.3913 12.1706 32.4539 12.4319 32.59 12.6552C32.7316 12.8784 32.9249 13.0717 33.1699 13.2351C33.415 13.393 33.6981 13.5318 34.0194 13.6516C34.3406 13.766 34.6837 13.864 35.0485 13.9457L36.5513 14.305C37.281 14.4684 37.9507 14.6862 38.5605 14.9585C39.1704 15.2307 39.6986 15.5656 40.1451 15.9631C40.5916 16.3606 40.9373 16.8288 41.1824 17.3679C41.4328 17.907 41.5608 18.525 41.5662 19.2219C41.5608 20.2456 41.2994 21.1332 40.7821 21.8846C40.2703 22.6306 39.5298 23.2105 38.5605 23.6243C37.5968 24.0327 36.4342 24.2369 35.073 24.2369C33.7226 24.2369 32.5465 24.0299 31.5446 23.6161C30.5481 23.2023 29.7695 22.5897 29.2086 21.7784C28.6532 20.9616 28.3619 19.9516 28.3347 18.7482H31.7569C31.795 19.3091 31.9557 19.7773 32.2388 20.1531C32.5274 20.5233 32.9113 20.8037 33.3904 20.9943C33.8751 21.1795 34.4223 21.272 35.0321 21.272C35.6311 21.272 36.1511 21.1849 36.5922 21.0107C37.0386 20.8364 37.3844 20.5941 37.6294 20.2837C37.8745 19.9734 37.997 19.6167 37.997 19.2138C37.997 18.8381 37.8854 18.5223 37.6621 18.2663C37.4443 18.0104 37.123 17.7926 36.6983 17.6129C36.2791 17.4332 35.7645 17.2699 35.1547 17.1229L33.3333 16.6655C31.923 16.3224 30.8095 15.7861 29.9927 15.0565C29.176 14.3268 28.7703 13.344 28.7757 12.108C28.7703 11.0952 29.0398 10.2103 29.5843 9.45348C30.1343 8.69661 30.8884 8.10582 31.8468 7.68111C32.8051 7.25639 33.8941 7.04403 35.1138 7.04403C36.3553 7.04403 37.4389 7.25639 38.3645 7.68111C39.2956 8.10582 40.0198 8.69661 40.5371 9.45348C41.0544 10.2103 41.3212 11.087 41.3375 12.0835H37.948ZM43.945 24V7.27273H47.4816V14.1744H54.661V7.27273H58.1894V24H54.661V17.0902H47.4816V24H43.945Z" fill="#FC5D20"/>
</g>
<defs>
<clipPath id="clip0_344_32">
<rect width="72" height="32" fill="white"/>
</clipPath>
</defs>
</svg>
