<svg width="71" height="22" viewBox="0 0 71 22" fill="none" xmlns="http://www.w3.org/2000/svg">
<rect opacity="0.2" width="70.125" height="22" rx="11" fill="#5179F8"/>
<path d="M22.6101 8.78267C22.576 8.43892 22.4297 8.17187 22.1712 7.98153C21.9126 7.79119 21.5618 7.69602 21.1186 7.69602C20.8175 7.69602 20.5632 7.73864 20.3558 7.82386C20.1484 7.90625 19.9893 8.02131 19.8786 8.16903C19.7706 8.31676 19.7166 8.48438 19.7166 8.67188C19.7109 8.82812 19.7436 8.96449 19.8146 9.08097C19.8885 9.19744 19.9893 9.2983 20.1172 9.38352C20.245 9.46591 20.3928 9.53835 20.5604 9.60085C20.728 9.66051 20.907 9.71165 21.0973 9.75426L21.8814 9.94176C22.2621 10.027 22.6115 10.1406 22.9297 10.2827C23.2479 10.4247 23.5234 10.5994 23.7564 10.8068C23.9893 11.0142 24.1697 11.2585 24.2976 11.5398C24.4283 11.821 24.495 12.1435 24.4979 12.5071C24.495 13.0412 24.3587 13.5043 24.0888 13.8963C23.8217 14.2855 23.4354 14.5881 22.9297 14.804C22.4268 15.017 21.8203 15.1236 21.1101 15.1236C20.4055 15.1236 19.7919 15.0156 19.2692 14.7997C18.7493 14.5838 18.343 14.2642 18.0504 13.8409C17.7607 13.4148 17.6087 12.8878 17.5945 12.2599H19.38C19.3999 12.5526 19.4837 12.7969 19.6314 12.9929C19.782 13.1861 19.9822 13.3324 20.2322 13.4318C20.4851 13.5284 20.7706 13.5767 21.0888 13.5767C21.4013 13.5767 21.6726 13.5312 21.9027 13.4403C22.1357 13.3494 22.3161 13.223 22.4439 13.0611C22.5717 12.8991 22.6357 12.7131 22.6357 12.5028C22.6357 12.3068 22.5774 12.142 22.4609 12.0085C22.3473 11.875 22.1797 11.7614 21.9581 11.6676C21.7393 11.5739 21.4709 11.4886 21.1527 11.4119L20.2024 11.1733C19.4666 10.9943 18.8857 10.7145 18.4595 10.3338C18.0334 9.95312 17.8217 9.44034 17.8246 8.79545C17.8217 8.26705 17.9624 7.8054 18.2464 7.41051C18.5334 7.01562 18.9268 6.70739 19.4268 6.4858C19.9268 6.2642 20.495 6.15341 21.1314 6.15341C21.7791 6.15341 22.3445 6.2642 22.8274 6.4858C23.3132 6.70739 23.6911 7.01562 23.9609 7.41051C24.2308 7.8054 24.37 8.26278 24.3786 8.78267H22.6101ZM29.1864 8.45455V9.81818H25.2447V8.45455H29.1864ZM26.1396 6.88636H27.9549V12.9886C27.9549 13.1562 27.9805 13.2869 28.0316 13.3807C28.0827 13.4716 28.1538 13.5355 28.2447 13.5724C28.3384 13.6094 28.4464 13.6278 28.5685 13.6278C28.6538 13.6278 28.739 13.6207 28.8242 13.6065C28.9094 13.5895 28.9748 13.5767 29.0202 13.5682L29.3058 14.919C29.2148 14.9474 29.087 14.9801 28.9222 15.017C28.7575 15.0568 28.5572 15.081 28.3214 15.0895C27.8839 15.1065 27.5004 15.0483 27.1708 14.9148C26.8441 14.7812 26.5898 14.5739 26.408 14.2926C26.2262 14.0114 26.1367 13.6562 26.1396 13.2273V6.88636ZM30.369 15V8.45455H32.1289V9.59659H32.1971C32.3164 9.19034 32.5167 8.88352 32.7979 8.67614C33.0792 8.46591 33.4031 8.3608 33.7695 8.3608C33.8604 8.3608 33.9585 8.36648 34.0636 8.37784C34.1687 8.3892 34.261 8.40483 34.3406 8.42472V10.0355C34.2553 10.0099 34.1374 9.98722 33.9869 9.96733C33.8363 9.94744 33.6985 9.9375 33.5735 9.9375C33.3065 9.9375 33.0678 9.99574 32.8576 10.1122C32.6502 10.2259 32.4854 10.3849 32.3633 10.5895C32.244 10.794 32.1843 11.0298 32.1843 11.2969V15H30.369ZM35.2791 15V8.45455H37.0945V15H35.2791ZM36.1911 7.6108C35.9212 7.6108 35.6896 7.52131 35.4964 7.34233C35.3061 7.16051 35.2109 6.94318 35.2109 6.69034C35.2109 6.44034 35.3061 6.22585 35.4964 6.04688C35.6896 5.86506 35.9212 5.77415 36.1911 5.77415C36.4609 5.77415 36.6911 5.86506 36.8814 6.04688C37.0746 6.22585 37.1712 6.44034 37.1712 6.69034C37.1712 6.94318 37.0746 7.16051 36.8814 7.34233C36.6911 7.52131 36.4609 7.6108 36.1911 7.6108ZM40.364 11.2159V15H38.5487V8.45455H40.2788V9.60938H40.3555C40.5004 9.22869 40.7433 8.92756 41.0842 8.70597C41.4251 8.48153 41.8384 8.36932 42.3242 8.36932C42.7788 8.36932 43.1751 8.46875 43.5131 8.66761C43.8512 8.86648 44.114 9.15057 44.3015 9.51989C44.489 9.88636 44.5827 10.3239 44.5827 10.8324V15H42.7674V11.1562C42.7702 10.7557 42.668 10.4432 42.4606 10.2188C42.2532 9.99148 41.9677 9.87784 41.604 9.87784C41.3597 9.87784 41.1438 9.9304 40.9563 10.0355C40.7717 10.1406 40.6268 10.294 40.5217 10.4957C40.4194 10.6946 40.3668 10.9347 40.364 11.2159ZM48.9624 17.5909C48.3743 17.5909 47.87 17.5099 47.4496 17.348C47.032 17.1889 46.6996 16.9716 46.4524 16.696C46.2053 16.4205 46.0447 16.1108 45.9709 15.767L47.6499 15.5412C47.701 15.6719 47.782 15.794 47.8928 15.9077C48.0036 16.0213 48.1499 16.1122 48.3317 16.1804C48.5163 16.2514 48.7408 16.2869 49.005 16.2869C49.3999 16.2869 49.7251 16.1903 49.9808 15.9972C50.2393 15.8068 50.3686 15.4872 50.3686 15.0384V13.8409H50.2919C50.2124 14.0227 50.093 14.1946 49.9339 14.3565C49.7749 14.5185 49.5703 14.6506 49.3203 14.7528C49.0703 14.8551 48.772 14.9062 48.4254 14.9062C47.9339 14.9062 47.4865 14.7926 47.0831 14.5653C46.6825 14.3352 46.3629 13.9844 46.1243 13.5128C45.8885 13.0384 45.7706 12.4389 45.7706 11.7145C45.7706 10.973 45.8913 10.3537 46.1328 9.85653C46.3743 9.35937 46.6953 8.98722 47.0959 8.74006C47.4993 8.4929 47.9411 8.36932 48.4212 8.36932C48.7876 8.36932 49.0945 8.43182 49.3416 8.55682C49.5888 8.67898 49.7876 8.83239 49.9382 9.01705C50.0916 9.19886 50.2095 9.37784 50.2919 9.55398H50.3601V8.45455H52.1626V15.0639C52.1626 15.6207 52.0263 16.0866 51.7536 16.4616C51.4808 16.8366 51.103 17.1179 50.62 17.3054C50.1399 17.4957 49.5874 17.5909 48.9624 17.5909ZM49.0007 13.5426C49.2933 13.5426 49.5405 13.4702 49.7422 13.3253C49.9467 13.1776 50.103 12.9673 50.2109 12.6946C50.3217 12.419 50.3771 12.0895 50.3771 11.706C50.3771 11.3224 50.3232 10.9901 50.2152 10.7088C50.1072 10.4247 49.951 10.2045 49.7464 10.0483C49.5419 9.89205 49.2933 9.81392 49.0007 9.81392C48.7024 9.81392 48.451 9.89489 48.2464 10.0568C48.0419 10.2159 47.8871 10.4375 47.782 10.7216C47.6768 11.0057 47.6243 11.3338 47.6243 11.706C47.6243 12.0838 47.6768 12.4105 47.782 12.6861C47.8899 12.9588 48.0447 13.1705 48.2464 13.321C48.451 13.4687 48.7024 13.5426 49.0007 13.5426Z" fill="#5179F8"/>
</svg>
