<svg width="57" height="22" viewBox="0 0 57 22" fill="none" xmlns="http://www.w3.org/2000/svg">
<g id="Group 31">
<g id="Group 22">
<rect id="Surface" opacity="0.2" width="57" height="22" rx="10" fill="#5179F8"/>
</g>
<path id="String" d="M15.0776 9.26456C15.0407 8.89216 14.8822 8.60286 14.6021 8.39666C14.322 8.19046 13.9419 8.08736 13.4618 8.08736C13.1356 8.08736 12.8601 8.13352 12.6355 8.22585C12.4108 8.3151 12.2385 8.43975 12.1184 8.59979C12.0015 8.75982 11.943 8.94141 11.943 9.14453C11.9368 9.3138 11.9722 9.46153 12.0492 9.58771C12.1292 9.7139 12.2385 9.82315 12.377 9.91548C12.5154 10.0047 12.6755 10.0832 12.8571 10.1509C13.0386 10.2156 13.2325 10.271 13.4387 10.3171L14.2882 10.5202C14.7006 10.6126 15.0791 10.7357 15.4238 10.8896C15.7685 11.0434 16.0671 11.2327 16.3194 11.4574C16.5718 11.6821 16.7672 11.9467 16.9057 12.2514C17.0473 12.5561 17.1196 12.9054 17.1227 13.2994C17.1196 13.878 16.9719 14.3796 16.6795 14.8043C16.3902 15.226 15.9717 15.5537 15.4238 15.7876C14.8791 16.0185 14.222 16.1339 13.4526 16.1339C12.6893 16.1339 12.0246 16.0169 11.4583 15.783C10.8951 15.5491 10.455 15.2029 10.138 14.7443C9.82404 14.2827 9.65939 13.7118 9.644 13.0316H11.5783C11.5998 13.3486 11.6906 13.6133 11.8507 13.8256C12.0138 14.0349 12.2308 14.1934 12.5016 14.3011C12.7755 14.4058 13.0848 14.4581 13.4295 14.4581C13.7681 14.4581 14.062 14.4089 14.3113 14.3104C14.5636 14.2119 14.7591 14.0749 14.8975 13.8995C15.036 13.7241 15.1053 13.5225 15.1053 13.2947C15.1053 13.0824 15.0422 12.9039 14.916 12.7592C14.7929 12.6146 14.6113 12.4915 14.3713 12.3899C14.1343 12.2884 13.8435 12.196 13.4988 12.1129L12.4693 11.8544C11.6722 11.6605 11.0428 11.3574 10.5811 10.945C10.1195 10.5326 9.89021 9.97704 9.89329 9.27841C9.89021 8.70597 10.0426 8.20585 10.3503 7.77805C10.6612 7.35026 11.0874 7.01634 11.6291 6.77628C12.1708 6.53622 12.7863 6.41619 13.4757 6.41619C14.1774 6.41619 14.7898 6.53622 15.313 6.77628C15.8393 7.01634 16.2486 7.35026 16.541 7.77805C16.8334 8.20585 16.9842 8.70135 16.9934 9.26456H15.0776ZM22.202 8.90909V10.3864H17.9317V8.90909H22.202ZM18.9012 7.21023H20.8678V13.821C20.8678 14.0026 20.8955 14.1442 20.9509 14.2457C21.0063 14.3442 21.0832 14.4135 21.1817 14.4535C21.2833 14.4935 21.4002 14.5135 21.5326 14.5135C21.6249 14.5135 21.7172 14.5058 21.8096 14.4904C21.9019 14.4719 21.9727 14.4581 22.0219 14.4489L22.3312 15.9123C22.2327 15.9431 22.0943 15.9785 21.9157 16.0185C21.7372 16.0616 21.5203 16.0877 21.2648 16.0969C20.7909 16.1154 20.3754 16.0523 20.0184 15.9077C19.6644 15.763 19.389 15.5384 19.192 15.2337C18.9951 14.929 18.8981 14.5443 18.9012 14.0795V7.21023ZM23.483 16V8.90909H25.3896V10.1463H25.4635C25.5928 9.7062 25.8097 9.37382 26.1144 9.14915C26.4191 8.9214 26.77 8.80753 27.167 8.80753C27.2655 8.80753 27.3717 8.81368 27.4855 8.82599C27.5994 8.8383 27.6994 8.85523 27.7856 8.87678V10.6218C27.6933 10.5941 27.5655 10.5695 27.4024 10.5479C27.2393 10.5264 27.0901 10.5156 26.9546 10.5156C26.6653 10.5156 26.4068 10.5787 26.1791 10.7049C25.9544 10.828 25.7759 11.0004 25.6436 11.2219C25.5143 11.4435 25.4497 11.699 25.4497 11.9883V16H23.483ZM28.8024 16V8.90909H30.769V16H28.8024ZM29.7903 7.99503C29.4979 7.99503 29.2471 7.89808 29.0378 7.70419C28.8316 7.50722 28.7285 7.27178 28.7285 6.99787C28.7285 6.72704 28.8316 6.49467 29.0378 6.30078C29.2471 6.10381 29.4979 6.00533 29.7903 6.00533C30.0827 6.00533 30.332 6.10381 30.5382 6.30078C30.7475 6.49467 30.8521 6.72704 30.8521 6.99787C30.8521 7.27178 30.7475 7.50722 30.5382 7.70419C30.332 7.89808 30.0827 7.99503 29.7903 7.99503ZM34.311 11.9006V16H32.3444V8.90909H34.2187V10.1602H34.3018C34.4587 9.74775 34.7219 9.42152 35.0912 9.18146C35.4605 8.93833 35.9083 8.81676 36.4346 8.81676C36.927 8.81676 37.3563 8.92448 37.7226 9.13991C38.0888 9.35535 38.3735 9.66312 38.5766 10.0632C38.7797 10.4602 38.8813 10.9342 38.8813 11.4851V16H36.9147V11.8359C36.9178 11.402 36.807 11.0634 36.5823 10.8203C36.3576 10.5741 36.0483 10.451 35.6544 10.451C35.3897 10.451 35.1558 10.5079 34.9527 10.6218C34.7526 10.7357 34.5957 10.9019 34.4818 11.1204C34.371 11.3358 34.3141 11.5959 34.311 11.9006ZM43.6259 18.8068C42.9888 18.8068 42.4425 18.7191 41.987 18.5437C41.5346 18.3713 41.1745 18.1359 40.9068 17.8374C40.639 17.5388 40.4651 17.2034 40.3851 16.831L42.204 16.5863C42.2594 16.7279 42.3471 16.8602 42.4672 16.9833C42.5872 17.1064 42.7457 17.2049 42.9426 17.2788C43.1427 17.3557 43.3858 17.3942 43.6721 17.3942C44.0998 17.3942 44.4522 17.2895 44.7292 17.0803C45.0093 16.8741 45.1493 16.5278 45.1493 16.0415V14.7443H45.0662C44.9801 14.9413 44.8508 15.1275 44.6784 15.3029C44.5061 15.4783 44.2845 15.6214 44.0137 15.7322C43.7428 15.843 43.4197 15.8984 43.0442 15.8984C42.5118 15.8984 42.027 15.7753 41.59 15.5291C41.1561 15.2798 40.8098 14.8997 40.5513 14.3888C40.2959 13.8749 40.1681 13.2255 40.1681 12.4407C40.1681 11.6374 40.2989 10.9665 40.5605 10.4279C40.8221 9.88932 41.1699 9.48615 41.6039 9.21839C42.0409 8.95064 42.5195 8.81676 43.0396 8.81676C43.4366 8.81676 43.769 8.88447 44.0368 9.01989C44.3045 9.15223 44.5199 9.31842 44.6831 9.51847C44.8493 9.71544 44.977 9.90933 45.0662 10.1001H45.1401V8.90909H47.0929V16.0692C47.0929 16.6725 46.9451 17.1772 46.6497 17.5835C46.3542 17.9897 45.9449 18.2944 45.4217 18.4975C44.9016 18.7037 44.303 18.8068 43.6259 18.8068ZM43.6674 14.4212C43.9844 14.4212 44.2522 14.3427 44.4707 14.1857C44.6923 14.0257 44.8616 13.7979 44.9785 13.5025C45.0985 13.204 45.1586 12.8469 45.1586 12.4315C45.1586 12.016 45.1001 11.6559 44.9831 11.3512C44.8662 11.0434 44.6969 10.8049 44.4753 10.6357C44.2537 10.4664 43.9844 10.3817 43.6674 10.3817C43.3443 10.3817 43.0719 10.4695 42.8503 10.6449C42.6287 10.8172 42.461 11.0573 42.3471 11.3651C42.2333 11.6728 42.1763 12.0283 42.1763 12.4315C42.1763 12.8408 42.2333 13.1947 42.3471 13.4933C42.4641 13.7887 42.6318 14.018 42.8503 14.1811C43.0719 14.3411 43.3443 14.4212 43.6674 14.4212Z" fill="#5179F8"/>
</g>
</svg>
