<svg width="172" height="46" viewBox="0 0 172 46" fill="none" xmlns="http://www.w3.org/2000/svg">
<rect opacity="0.15" width="172" height="46" rx="10" fill="#F68D08"/>
<rect x="6" y="6" width="34" height="34" rx="10" fill="#F68D08"/>
<path d="M22.9783 14.0024C23.1718 13.985 23.3257 14.064 23.4786 14.1515C26.1421 15.6774 28.8061 17.2027 31.4702 18.7279C31.6882 18.8527 31.9112 18.977 31.9668 19.2503C32.0471 19.6457 31.8341 19.8756 31.5134 20.0581C29.9796 20.931 28.45 21.8114 26.9187 22.6885C25.7755 23.3431 24.6295 23.9929 23.49 24.654C23.1687 24.8404 22.8714 24.8561 22.544 24.6678C19.8825 23.138 17.2167 21.6161 14.5542 20.088C13.819 19.666 13.8149 19.145 14.544 18.7267C17.2063 17.1986 19.8713 15.6748 22.5351 14.1492C22.6762 14.0684 22.8171 13.9881 22.9785 14.0024H22.9783ZM24.0827 17.4834C24.1077 17.3161 24.0552 17.2222 23.9046 17.1884C23.7351 17.1503 23.5627 17.1186 23.3991 17.0623C23.1229 16.9671 23.0101 17.057 22.9429 17.3434C22.6669 18.5167 22.3573 19.682 22.0775 20.8545C21.8806 21.6796 21.7831 21.5088 22.6068 21.7441C22.8771 21.8213 22.9998 21.7709 23.0705 21.4733C23.3319 20.3733 23.6225 19.2801 23.9024 18.1844C23.9639 17.9436 24.0261 17.7032 24.0827 17.4836V17.4834ZM18.2709 19.4019C18.2831 19.527 18.3161 19.6521 18.4043 19.7422C18.8653 20.2136 19.3318 20.6793 19.797 21.1464C19.8798 21.2294 19.9575 21.2262 20.0598 21.158C20.6931 20.7349 20.7187 20.524 20.1883 19.9935C19.5994 19.4045 19.6056 19.4106 20.1803 18.8201C20.7765 18.2076 20.8104 18.4269 20.1479 17.7347C19.9922 17.5721 19.8781 17.566 19.7194 17.7304C19.3137 18.1514 18.8951 18.5599 18.4816 18.9732C18.3631 19.0916 18.2908 19.2323 18.271 19.4018L18.2709 19.4019ZM27.7372 19.387C27.7148 19.2657 27.6765 19.1328 27.577 19.0322C27.1312 18.5808 26.6821 18.1329 26.2343 17.6835C26.1449 17.5937 26.0648 17.5704 25.9433 17.6542C25.3061 18.0939 25.2837 18.2789 25.8229 18.8192C25.8318 18.828 25.8406 18.8367 25.8493 18.8455C26.4863 19.5045 26.4826 19.3024 25.8488 19.9653C25.2311 20.6113 25.1902 20.3728 25.8633 21.0778C26.0227 21.2448 26.137 21.2348 26.2917 21.0746C26.6891 20.663 27.0982 20.2626 27.5038 19.8589C27.6313 19.732 27.7179 19.586 27.7372 19.387Z" fill="white"/>
<path d="M22.9963 28.4138C22.8138 28.4159 22.661 28.3312 22.5095 28.2443C19.8553 26.7248 17.2002 25.2069 14.548 23.684C13.8174 23.2645 13.8583 22.788 14.5325 22.3038C15.1587 21.8541 15.6378 21.942 16.2614 22.3177C18.178 23.4719 20.1354 24.5583 22.0768 25.6713C22.7042 26.0309 23.326 26.0167 23.9504 25.6573C26.0084 24.4728 28.0736 23.3005 30.123 22.1013C30.49 21.8866 30.7886 21.8277 31.1305 22.1077C31.273 22.2244 31.4547 22.2919 31.6084 22.3969C32.1405 22.7602 32.1316 23.2903 31.5741 23.6142C30.2736 24.3703 28.9661 25.1141 27.6607 25.8619C26.3015 26.6407 24.9416 27.4182 23.5819 28.196C23.3986 28.3008 23.2198 28.4182 22.9962 28.4138H22.9963Z" fill="white"/>
<path d="M23.0081 31.9998C22.8255 32.0045 22.6716 31.923 22.5197 31.8361C19.8548 30.3105 17.1888 28.7867 14.5258 27.2573C13.821 26.8525 13.8634 26.3658 14.523 25.8972C15.1402 25.4586 15.6191 25.5127 16.2519 25.896C18.1657 27.0548 20.1251 28.1377 22.0659 29.2518C22.6924 29.6115 23.314 29.6083 23.9395 29.2488C25.9981 28.0654 28.0627 26.8922 30.1128 25.694C30.4751 25.4824 30.7736 25.4008 31.1203 25.6875C31.2719 25.8127 31.4663 25.8842 31.6288 25.9979C32.1365 26.353 32.1226 26.8815 31.5844 27.1944C30.273 27.9566 28.9544 28.7063 27.6384 29.4602C26.29 30.2326 24.9409 31.0041 23.5922 31.7759C23.409 31.8808 23.2311 31.9998 23.0081 32V31.9998Z" fill="white"/>
<path d="M47.4261 19.794V18.2727H54.5938V19.794H51.9219V27H50.098V19.794H47.4261ZM57.7738 27.1278C57.1005 27.1278 56.521 26.9915 56.0352 26.7188C55.5522 26.4432 55.18 26.054 54.9187 25.5511C54.6573 25.0455 54.5266 24.4474 54.5266 23.7571C54.5266 23.0838 54.6573 22.4929 54.9187 21.9844C55.18 21.4759 55.5479 21.0795 56.0224 20.7955C56.4996 20.5114 57.0593 20.3693 57.7013 20.3693C58.1332 20.3693 58.5352 20.4389 58.9073 20.5781C59.2823 20.7145 59.609 20.9205 59.8874 21.196C60.1687 21.4716 60.3874 21.8182 60.5437 22.2358C60.6999 22.6506 60.7781 23.1364 60.7781 23.6932V24.1918H55.2511V23.0668H59.0692C59.0692 22.8054 59.0124 22.5739 58.8988 22.3722C58.7852 22.1705 58.6275 22.0128 58.4258 21.8991C58.2269 21.7827 57.9954 21.7244 57.7312 21.7244C57.4556 21.7244 57.2113 21.7884 56.9982 21.9162C56.788 22.0412 56.6232 22.2102 56.5039 22.4233C56.3846 22.6335 56.3235 22.8679 56.3207 23.1264V24.196C56.3207 24.5199 56.3803 24.7997 56.4996 25.0355C56.6218 25.2713 56.7937 25.4531 57.0153 25.581C57.2369 25.7088 57.4996 25.7727 57.8036 25.7727C58.0053 25.7727 58.19 25.7443 58.3576 25.6875C58.5252 25.6307 58.6687 25.5455 58.788 25.4318C58.9073 25.3182 58.9982 25.179 59.0607 25.0142L60.7397 25.125C60.6545 25.5284 60.4798 25.8807 60.2156 26.1818C59.9542 26.4801 59.6161 26.7131 59.2013 26.8807C58.7894 27.0455 58.3136 27.1278 57.7738 27.1278ZM64.9201 27.1278C64.2496 27.1278 63.6729 26.9858 63.19 26.7017C62.7099 26.4148 62.3406 26.017 62.082 25.5085C61.8263 25 61.6985 24.4148 61.6985 23.7528C61.6985 23.0824 61.8278 22.4943 62.0863 21.9886C62.3477 21.4801 62.7184 21.0838 63.1985 20.7997C63.6786 20.5128 64.2496 20.3693 64.9116 20.3693C65.4826 20.3693 65.9826 20.473 66.4116 20.6804C66.8406 20.8878 67.18 21.179 67.43 21.554C67.68 21.929 67.8178 22.3693 67.8434 22.875H66.1303C66.082 22.5483 65.9542 22.2855 65.7468 22.0866C65.5423 21.8849 65.2738 21.7841 64.9414 21.7841C64.6602 21.7841 64.4144 21.8608 64.2042 22.0142C63.9968 22.1648 63.8349 22.3849 63.7184 22.6747C63.6019 22.9645 63.5437 23.3153 63.5437 23.7273C63.5437 24.1449 63.6005 24.5 63.7141 24.7926C63.8306 25.0852 63.994 25.3082 64.2042 25.4616C64.4144 25.6151 64.6602 25.6918 64.9414 25.6918C65.1488 25.6918 65.3349 25.6491 65.4996 25.5639C65.6673 25.4787 65.805 25.3551 65.913 25.1932C66.0238 25.0284 66.0962 24.831 66.1303 24.6009H67.8434C67.815 25.1009 67.6786 25.5412 67.4343 25.9219C67.1928 26.2997 66.859 26.5952 66.4329 26.8082C66.0067 27.0213 65.5025 27.1278 64.9201 27.1278ZM70.821 23.2159V27H69.0057V20.4545H70.7358V21.6094H70.8125C70.9574 21.2287 71.2003 20.9276 71.5412 20.706C71.8821 20.4815 72.2955 20.3693 72.7812 20.3693C73.2358 20.3693 73.6321 20.4688 73.9702 20.6676C74.3082 20.8665 74.571 21.1506 74.7585 21.5199C74.946 21.8864 75.0398 22.3239 75.0398 22.8324V27H73.2244V23.1562C73.2273 22.7557 73.125 22.4432 72.9176 22.2188C72.7102 21.9915 72.4247 21.8778 72.0611 21.8778C71.8168 21.8778 71.6009 21.9304 71.4134 22.0355C71.2287 22.1406 71.0838 22.294 70.9787 22.4957C70.8764 22.6946 70.8239 22.9347 70.821 23.2159ZM79.4279 27.1278C78.766 27.1278 78.1935 26.9872 77.7106 26.706C77.2305 26.4219 76.8597 26.027 76.5984 25.5213C76.337 25.0128 76.2063 24.4233 76.2063 23.7528C76.2063 23.0767 76.337 22.4858 76.5984 21.9801C76.8597 21.4716 77.2305 21.0767 77.7106 20.7955C78.1935 20.5114 78.766 20.3693 79.4279 20.3693C80.0898 20.3693 80.6609 20.5114 81.141 20.7955C81.6239 21.0767 81.9961 21.4716 82.2575 21.9801C82.5188 22.4858 82.6495 23.0767 82.6495 23.7528C82.6495 24.4233 82.5188 25.0128 82.2575 25.5213C81.9961 26.027 81.6239 26.4219 81.141 26.706C80.6609 26.9872 80.0898 27.1278 79.4279 27.1278ZM79.4364 25.7216C79.7376 25.7216 79.989 25.6364 80.1907 25.4659C80.3924 25.2926 80.5444 25.0568 80.6467 24.7585C80.7518 24.4602 80.8043 24.1207 80.8043 23.7401C80.8043 23.3594 80.7518 23.0199 80.6467 22.7216C80.5444 22.4233 80.3924 22.1875 80.1907 22.0142C79.989 21.8409 79.7376 21.7543 79.4364 21.7543C79.1325 21.7543 78.8768 21.8409 78.6694 22.0142C78.4648 22.1875 78.31 22.4233 78.2049 22.7216C78.1026 23.0199 78.0515 23.3594 78.0515 23.7401C78.0515 24.1207 78.1026 24.4602 78.2049 24.7585C78.31 25.0568 78.4648 25.2926 78.6694 25.4659C78.8768 25.6364 79.1325 25.7216 79.4364 25.7216ZM85.6452 18.2727V27H83.8299V18.2727H85.6452ZM90.0568 27.1278C89.3949 27.1278 88.8224 26.9872 88.3395 26.706C87.8594 26.4219 87.4886 26.027 87.2273 25.5213C86.9659 25.0128 86.8352 24.4233 86.8352 23.7528C86.8352 23.0767 86.9659 22.4858 87.2273 21.9801C87.4886 21.4716 87.8594 21.0767 88.3395 20.7955C88.8224 20.5114 89.3949 20.3693 90.0568 20.3693C90.7188 20.3693 91.2898 20.5114 91.7699 20.7955C92.2528 21.0767 92.625 21.4716 92.8864 21.9801C93.1477 22.4858 93.2784 23.0767 93.2784 23.7528C93.2784 24.4233 93.1477 25.0128 92.8864 25.5213C92.625 26.027 92.2528 26.4219 91.7699 26.706C91.2898 26.9872 90.7188 27.1278 90.0568 27.1278ZM90.0653 25.7216C90.3665 25.7216 90.6179 25.6364 90.8196 25.4659C91.0213 25.2926 91.1733 25.0568 91.2756 24.7585C91.3807 24.4602 91.4332 24.1207 91.4332 23.7401C91.4332 23.3594 91.3807 23.0199 91.2756 22.7216C91.1733 22.4233 91.0213 22.1875 90.8196 22.0142C90.6179 21.8409 90.3665 21.7543 90.0653 21.7543C89.7614 21.7543 89.5057 21.8409 89.2983 22.0142C89.0938 22.1875 88.9389 22.4233 88.8338 22.7216C88.7315 23.0199 88.6804 23.3594 88.6804 23.7401C88.6804 24.1207 88.7315 24.4602 88.8338 24.7585C88.9389 25.0568 89.0938 25.2926 89.2983 25.4659C89.5057 25.6364 89.7614 25.7216 90.0653 25.7216ZM97.4077 29.5909C96.8196 29.5909 96.3153 29.5099 95.8949 29.348C95.4773 29.1889 95.1449 28.9716 94.8977 28.696C94.6506 28.4205 94.4901 28.1108 94.4162 27.767L96.0952 27.5412C96.1463 27.6719 96.2273 27.794 96.3381 27.9077C96.4489 28.0213 96.5952 28.1122 96.777 28.1804C96.9616 28.2514 97.1861 28.2869 97.4503 28.2869C97.8452 28.2869 98.1705 28.1903 98.4261 27.9972C98.6847 27.8068 98.8139 27.4872 98.8139 27.0384V25.8409H98.7372C98.6577 26.0227 98.5384 26.1946 98.3793 26.3565C98.2202 26.5185 98.0156 26.6506 97.7656 26.7528C97.5156 26.8551 97.2173 26.9062 96.8707 26.9062C96.3793 26.9062 95.9318 26.7926 95.5284 26.5653C95.1278 26.3352 94.8082 25.9844 94.5696 25.5128C94.3338 25.0384 94.2159 24.4389 94.2159 23.7145C94.2159 22.973 94.3366 22.3537 94.5781 21.8565C94.8196 21.3594 95.1406 20.9872 95.5412 20.7401C95.9446 20.4929 96.3864 20.3693 96.8665 20.3693C97.233 20.3693 97.5398 20.4318 97.7869 20.5568C98.0341 20.679 98.233 20.8324 98.3835 21.017C98.5369 21.1989 98.6548 21.3778 98.7372 21.554H98.8054V20.4545H100.608V27.0639C100.608 27.6207 100.472 28.0866 100.199 28.4616C99.9261 28.8366 99.5483 29.1179 99.0653 29.3054C98.5852 29.4957 98.0327 29.5909 97.4077 29.5909ZM97.446 25.5426C97.7386 25.5426 97.9858 25.4702 98.1875 25.3253C98.392 25.1776 98.5483 24.9673 98.6562 24.6946C98.767 24.419 98.8224 24.0895 98.8224 23.706C98.8224 23.3224 98.7685 22.9901 98.6605 22.7088C98.5526 22.4247 98.3963 22.2045 98.1918 22.0483C97.9872 21.892 97.7386 21.8139 97.446 21.8139C97.1477 21.8139 96.8963 21.8949 96.6918 22.0568C96.4872 22.2159 96.3324 22.4375 96.2273 22.7216C96.1222 23.0057 96.0696 23.3338 96.0696 23.706C96.0696 24.0838 96.1222 24.4105 96.2273 24.6861C96.3352 24.9588 96.4901 25.1705 96.6918 25.321C96.8963 25.4687 97.1477 25.5426 97.446 25.5426ZM102.053 27V20.4545H103.868V27H102.053ZM102.964 19.6108C102.695 19.6108 102.463 19.5213 102.27 19.3423C102.08 19.1605 101.984 18.9432 101.984 18.6903C101.984 18.4403 102.08 18.2259 102.27 18.0469C102.463 17.8651 102.695 17.7741 102.964 17.7741C103.234 17.7741 103.464 17.8651 103.655 18.0469C103.848 18.2259 103.945 18.4403 103.945 18.6903C103.945 18.9432 103.848 19.1605 103.655 19.3423C103.464 19.5213 103.234 19.6108 102.964 19.6108ZM107.189 27.1236C106.771 27.1236 106.399 27.0511 106.072 26.9062C105.745 26.7585 105.487 26.5412 105.297 26.2543C105.109 25.9645 105.015 25.6037 105.015 25.1719C105.015 24.8082 105.082 24.5028 105.216 24.2557C105.349 24.0085 105.531 23.8097 105.761 23.6591C105.991 23.5085 106.252 23.3949 106.545 23.3182C106.841 23.2415 107.15 23.1875 107.474 23.1562C107.855 23.1165 108.162 23.0795 108.395 23.0455C108.627 23.0085 108.797 22.9545 108.902 22.8835C109.007 22.8125 109.059 22.7074 109.059 22.5682V22.5426C109.059 22.2727 108.974 22.0639 108.804 21.9162C108.636 21.7685 108.397 21.6946 108.088 21.6946C107.761 21.6946 107.501 21.767 107.308 21.9119C107.115 22.054 106.987 22.233 106.924 22.4489L105.245 22.3125C105.331 21.9148 105.498 21.571 105.748 21.2812C105.998 20.9886 106.321 20.7642 106.716 20.608C107.113 20.4489 107.574 20.3693 108.096 20.3693C108.46 20.3693 108.808 20.4119 109.14 20.4972C109.475 20.5824 109.772 20.7145 110.031 20.8935C110.292 21.0724 110.498 21.3026 110.649 21.5838C110.799 21.8622 110.875 22.196 110.875 22.5852V27H109.153V26.0923H109.102C108.997 26.2969 108.856 26.4773 108.68 26.6335C108.504 26.7869 108.292 26.9077 108.045 26.9957C107.798 27.081 107.512 27.1236 107.189 27.1236ZM107.708 25.8707C107.975 25.8707 108.211 25.8182 108.416 25.7131C108.62 25.6051 108.781 25.4602 108.897 25.2784C109.014 25.0966 109.072 24.8906 109.072 24.6605V23.9659C109.015 24.0028 108.937 24.0369 108.838 24.0682C108.741 24.0966 108.632 24.1236 108.51 24.1491C108.387 24.1719 108.265 24.1932 108.143 24.2131C108.021 24.2301 107.91 24.2457 107.811 24.2599C107.598 24.2912 107.412 24.3409 107.252 24.4091C107.093 24.4773 106.97 24.5696 106.882 24.6861C106.794 24.7997 106.75 24.9418 106.75 25.1122C106.75 25.3594 106.839 25.5483 107.018 25.679C107.2 25.8068 107.43 25.8707 107.708 25.8707ZM117.729 22.321L116.067 22.4233C116.039 22.2812 115.978 22.1534 115.884 22.0398C115.79 21.9233 115.667 21.831 115.513 21.7628C115.363 21.6918 115.182 21.6562 114.972 21.6562C114.691 21.6562 114.453 21.7159 114.26 21.8352C114.067 21.9517 113.971 22.108 113.971 22.304C113.971 22.4602 114.033 22.5923 114.158 22.7003C114.283 22.8082 114.498 22.8949 114.801 22.9602L115.986 23.1989C116.623 23.3295 117.097 23.5398 117.409 23.8295C117.722 24.1193 117.878 24.5 117.878 24.9716C117.878 25.4006 117.752 25.777 117.499 26.1009C117.249 26.4247 116.905 26.6776 116.468 26.8594C116.033 27.0384 115.532 27.1278 114.963 27.1278C114.097 27.1278 113.407 26.9474 112.892 26.5866C112.381 26.223 112.081 25.7287 111.993 25.1037L113.779 25.0099C113.833 25.2741 113.963 25.4759 114.171 25.6151C114.378 25.7514 114.644 25.8196 114.968 25.8196C115.286 25.8196 115.542 25.7585 115.735 25.6364C115.931 25.5114 116.03 25.3509 116.033 25.1548C116.03 24.9901 115.961 24.8551 115.824 24.75C115.688 24.642 115.478 24.5597 115.194 24.5028L114.06 24.277C113.421 24.1491 112.945 23.9276 112.632 23.6122C112.323 23.2969 112.168 22.8949 112.168 22.4062C112.168 21.9858 112.282 21.6236 112.509 21.3196C112.739 21.0156 113.061 20.7812 113.476 20.6165C113.894 20.4517 114.382 20.3693 114.942 20.3693C115.769 20.3693 116.419 20.544 116.894 20.8935C117.371 21.2429 117.65 21.7187 117.729 22.321ZM127.223 18.2727H129.069V23.9403C129.069 24.5767 128.917 25.1335 128.613 25.6108C128.311 26.0881 127.89 26.4602 127.347 26.7273C126.804 26.9915 126.172 27.1236 125.451 27.1236C124.726 27.1236 124.093 26.9915 123.55 26.7273C123.007 26.4602 122.586 26.0881 122.284 25.6108C121.983 25.1335 121.833 24.5767 121.833 23.9403V18.2727H123.678V23.7827C123.678 24.1151 123.75 24.4105 123.895 24.669C124.043 24.9276 124.25 25.1307 124.517 25.2784C124.784 25.4261 125.096 25.5 125.451 25.5C125.809 25.5 126.12 25.4261 126.384 25.2784C126.651 25.1307 126.857 24.9276 127.002 24.669C127.15 24.4105 127.223 24.1151 127.223 23.7827V18.2727ZM135.999 22.321L134.337 22.4233C134.308 22.2812 134.247 22.1534 134.153 22.0398C134.06 21.9233 133.936 21.831 133.783 21.7628C133.632 21.6918 133.452 21.6562 133.241 21.6562C132.96 21.6562 132.723 21.7159 132.53 21.8352C132.337 21.9517 132.24 22.108 132.24 22.304C132.24 22.4602 132.303 22.5923 132.428 22.7003C132.553 22.8082 132.767 22.8949 133.071 22.9602L134.256 23.1989C134.892 23.3295 135.366 23.5398 135.679 23.8295C135.991 24.1193 136.148 24.5 136.148 24.9716C136.148 25.4006 136.021 25.777 135.768 26.1009C135.518 26.4247 135.175 26.6776 134.737 26.8594C134.303 27.0384 133.801 27.1278 133.233 27.1278C132.366 27.1278 131.676 26.9474 131.162 26.5866C130.651 26.223 130.351 25.7287 130.263 25.1037L132.048 25.0099C132.102 25.2741 132.233 25.4759 132.44 25.6151C132.648 25.7514 132.913 25.8196 133.237 25.8196C133.555 25.8196 133.811 25.7585 134.004 25.6364C134.2 25.5114 134.3 25.3509 134.303 25.1548C134.3 24.9901 134.23 24.8551 134.094 24.75C133.957 24.642 133.747 24.5597 133.463 24.5028L132.33 24.277C131.69 24.1491 131.214 23.9276 130.902 23.6122C130.592 23.2969 130.438 22.8949 130.438 22.4062C130.438 21.9858 130.551 21.6236 130.778 21.3196C131.009 21.0156 131.331 20.7812 131.746 20.6165C132.163 20.4517 132.652 20.3693 133.212 20.3693C134.038 20.3693 134.689 20.544 135.163 20.8935C135.641 21.2429 135.919 21.7187 135.999 22.321ZM139.157 27.1236C138.74 27.1236 138.368 27.0511 138.041 26.9062C137.714 26.7585 137.456 26.5412 137.265 26.2543C137.078 25.9645 136.984 25.6037 136.984 25.1719C136.984 24.8082 137.051 24.5028 137.184 24.2557C137.318 24.0085 137.5 23.8097 137.73 23.6591C137.96 23.5085 138.221 23.3949 138.514 23.3182C138.809 23.2415 139.119 23.1875 139.443 23.1562C139.824 23.1165 140.13 23.0795 140.363 23.0455C140.596 23.0085 140.765 22.9545 140.87 22.8835C140.975 22.8125 141.028 22.7074 141.028 22.5682V22.5426C141.028 22.2727 140.943 22.0639 140.772 21.9162C140.605 21.7685 140.366 21.6946 140.056 21.6946C139.73 21.6946 139.47 21.767 139.277 21.9119C139.083 22.054 138.956 22.233 138.893 22.4489L137.214 22.3125C137.299 21.9148 137.467 21.571 137.717 21.2812C137.967 20.9886 138.289 20.7642 138.684 20.608C139.082 20.4489 139.542 20.3693 140.065 20.3693C140.429 20.3693 140.777 20.4119 141.109 20.4972C141.444 20.5824 141.741 20.7145 142 20.8935C142.261 21.0724 142.467 21.3026 142.618 21.5838C142.768 21.8622 142.843 22.196 142.843 22.5852V27H141.122V26.0923H141.071C140.966 26.2969 140.825 26.4773 140.649 26.6335C140.473 26.7869 140.261 26.9077 140.014 26.9957C139.767 27.081 139.481 27.1236 139.157 27.1236ZM139.677 25.8707C139.944 25.8707 140.18 25.8182 140.385 25.7131C140.589 25.6051 140.75 25.4602 140.866 25.2784C140.983 25.0966 141.041 24.8906 141.041 24.6605V23.9659C140.984 24.0028 140.906 24.0369 140.806 24.0682C140.71 24.0966 140.6 24.1236 140.478 24.1491C140.356 24.1719 140.234 24.1932 140.112 24.2131C139.99 24.2301 139.879 24.2457 139.779 24.2599C139.566 24.2912 139.38 24.3409 139.221 24.4091C139.062 24.4773 138.939 24.5696 138.85 24.6861C138.762 24.7997 138.718 24.9418 138.718 25.1122C138.718 25.3594 138.808 25.5483 138.987 25.679C139.169 25.8068 139.399 25.8707 139.677 25.8707ZM146.664 27.1065C146.167 27.1065 145.716 26.9787 145.313 26.723C144.912 26.4645 144.594 26.0852 144.358 25.5852C144.125 25.0824 144.009 24.4659 144.009 23.7358C144.009 22.9858 144.13 22.3622 144.371 21.8651C144.613 21.3651 144.934 20.9915 145.334 20.7443C145.738 20.4943 146.179 20.3693 146.659 20.3693C147.026 20.3693 147.331 20.4318 147.576 20.5568C147.823 20.679 148.022 20.8324 148.172 21.017C148.326 21.1989 148.442 21.3778 148.522 21.554H148.577V18.2727H150.388V27H148.598V25.9517H148.522C148.436 26.1335 148.316 26.3139 148.159 26.4929C148.006 26.669 147.806 26.8153 147.559 26.9318C147.314 27.0483 147.016 27.1065 146.664 27.1065ZM147.239 25.6619C147.532 25.6619 147.779 25.5824 147.98 25.4233C148.185 25.2614 148.341 25.0355 148.449 24.7457C148.56 24.456 148.615 24.1165 148.615 23.7273C148.615 23.3381 148.561 23 148.453 22.7131C148.346 22.4261 148.189 22.2045 147.985 22.0483C147.78 21.892 147.532 21.8139 147.239 21.8139C146.941 21.8139 146.689 21.8949 146.485 22.0568C146.28 22.2187 146.125 22.4432 146.02 22.7301C145.915 23.017 145.863 23.3494 145.863 23.7273C145.863 24.108 145.915 24.4446 146.02 24.7372C146.128 25.027 146.283 25.2543 146.485 25.419C146.689 25.581 146.941 25.6619 147.239 25.6619ZM153.747 27.1236C153.33 27.1236 152.957 27.0511 152.631 26.9062C152.304 26.7585 152.045 26.5412 151.855 26.2543C151.668 25.9645 151.574 25.6037 151.574 25.1719C151.574 24.8082 151.641 24.5028 151.774 24.2557C151.908 24.0085 152.089 23.8097 152.32 23.6591C152.55 23.5085 152.811 23.3949 153.104 23.3182C153.399 23.2415 153.709 23.1875 154.033 23.1562C154.413 23.1165 154.72 23.0795 154.953 23.0455C155.186 23.0085 155.355 22.9545 155.46 22.8835C155.565 22.8125 155.618 22.7074 155.618 22.5682V22.5426C155.618 22.2727 155.533 22.0639 155.362 21.9162C155.195 21.7685 154.956 21.6946 154.646 21.6946C154.32 21.6946 154.06 21.767 153.866 21.9119C153.673 22.054 153.545 22.233 153.483 22.4489L151.804 22.3125C151.889 21.9148 152.057 21.571 152.307 21.2812C152.557 20.9886 152.879 20.7642 153.274 20.608C153.672 20.4489 154.132 20.3693 154.655 20.3693C155.018 20.3693 155.366 20.4119 155.699 20.4972C156.034 20.5824 156.331 20.7145 156.589 20.8935C156.851 21.0724 157.057 21.3026 157.207 21.5838C157.358 21.8622 157.433 22.196 157.433 22.5852V27H155.712V26.0923H155.661C155.555 26.2969 155.415 26.4773 155.239 26.6335C155.062 26.7869 154.851 26.9077 154.604 26.9957C154.357 27.081 154.071 27.1236 153.747 27.1236ZM154.267 25.8707C154.534 25.8707 154.77 25.8182 154.974 25.7131C155.179 25.6051 155.339 25.4602 155.456 25.2784C155.572 25.0966 155.631 24.8906 155.631 24.6605V23.9659C155.574 24.0028 155.496 24.0369 155.396 24.0682C155.3 24.0966 155.19 24.1236 155.068 24.1491C154.946 24.1719 154.824 24.1932 154.702 24.2131C154.58 24.2301 154.469 24.2457 154.369 24.2599C154.156 24.2912 153.97 24.3409 153.811 24.4091C153.652 24.4773 153.528 24.5696 153.44 24.6861C153.352 24.7997 153.308 24.9418 153.308 25.1122C153.308 25.3594 153.398 25.5483 153.577 25.679C153.759 25.8068 153.989 25.8707 154.267 25.8707ZM164.288 22.321L162.626 22.4233C162.597 22.2812 162.536 22.1534 162.442 22.0398C162.349 21.9233 162.225 21.831 162.072 21.7628C161.921 21.6918 161.741 21.6562 161.531 21.6562C161.249 21.6562 161.012 21.7159 160.819 21.8352C160.626 21.9517 160.529 22.108 160.529 22.304C160.529 22.4602 160.592 22.5923 160.717 22.7003C160.842 22.8082 161.056 22.8949 161.36 22.9602L162.545 23.1989C163.181 23.3295 163.656 23.5398 163.968 23.8295C164.281 24.1193 164.437 24.5 164.437 24.9716C164.437 25.4006 164.31 25.777 164.058 26.1009C163.808 26.4247 163.464 26.6776 163.026 26.8594C162.592 27.0384 162.09 27.1278 161.522 27.1278C160.656 27.1278 159.965 26.9474 159.451 26.5866C158.94 26.223 158.64 25.7287 158.552 25.1037L160.337 25.0099C160.391 25.2741 160.522 25.4759 160.729 25.6151C160.937 25.7514 161.202 25.8196 161.526 25.8196C161.844 25.8196 162.1 25.7585 162.293 25.6364C162.489 25.5114 162.589 25.3509 162.592 25.1548C162.589 24.9901 162.519 24.8551 162.383 24.75C162.246 24.642 162.036 24.5597 161.752 24.5028L160.619 24.277C159.979 24.1491 159.504 23.9276 159.191 23.6122C158.881 23.2969 158.727 22.8949 158.727 22.4062C158.727 21.9858 158.84 21.6236 159.067 21.3196C159.298 21.0156 159.62 20.7812 160.035 20.6165C160.452 20.4517 160.941 20.3693 161.501 20.3693C162.327 20.3693 162.978 20.544 163.452 20.8935C163.93 21.2429 164.208 21.7187 164.288 22.321Z" fill="white"/>
</svg>
