<svg width="184" height="58" viewBox="0 0 184 58" fill="none" xmlns="http://www.w3.org/2000/svg">
<rect opacity="0.15" x="6" y="6" width="172" height="46" rx="10" fill="#F68D08"/>
<rect x="12" y="12" width="34" height="34" rx="10" fill="#F68D08"/>
<path d="M28.9783 20.0024C29.1718 19.985 29.3257 20.064 29.4786 20.1515C32.1421 21.6774 34.8061 23.2027 37.4702 24.7279C37.6882 24.8527 37.9112 24.977 37.9668 25.2503C38.0471 25.6457 37.8341 25.8756 37.5134 26.0581C35.9796 26.931 34.45 27.8114 32.9187 28.6885C31.7755 29.3431 30.6295 29.9929 29.49 30.654C29.1687 30.8404 28.8714 30.8561 28.544 30.6678C25.8825 29.138 23.2167 27.6161 20.5542 26.088C19.819 25.666 19.8149 25.145 20.544 24.7267C23.2063 23.1986 25.8713 21.6748 28.5351 20.1492C28.6762 20.0684 28.8171 19.9881 28.9785 20.0024H28.9783ZM30.0827 23.4834C30.1077 23.3161 30.0552 23.2222 29.9046 23.1884C29.7351 23.1503 29.5627 23.1186 29.3991 23.0623C29.1229 22.9671 29.0101 23.057 28.9429 23.3434C28.6669 24.5167 28.3573 25.682 28.0775 26.8545C27.8806 27.6796 27.7831 27.5088 28.6068 27.7441C28.8771 27.8213 28.9998 27.7709 29.0705 27.4733C29.3319 26.3733 29.6225 25.2801 29.9024 24.1844C29.9639 23.9436 30.0261 23.7032 30.0827 23.4836V23.4834ZM24.2709 25.4019C24.2831 25.527 24.3161 25.6521 24.4043 25.7422C24.8653 26.2136 25.3318 26.6793 25.797 27.1464C25.8798 27.2294 25.9575 27.2262 26.0598 27.158C26.6931 26.7349 26.7187 26.524 26.1883 25.9935C25.5994 25.4045 25.6056 25.4106 26.1803 24.8201C26.7765 24.2076 26.8104 24.4269 26.1479 23.7347C25.9922 23.5721 25.8781 23.566 25.7194 23.7304C25.3137 24.1514 24.8951 24.5599 24.4816 24.9732C24.3631 25.0916 24.2908 25.2323 24.271 25.4018L24.2709 25.4019ZM33.7372 25.387C33.7148 25.2657 33.6765 25.1328 33.577 25.0322C33.1312 24.5808 32.6821 24.1329 32.2343 23.6835C32.1449 23.5937 32.0648 23.5704 31.9433 23.6542C31.3061 24.0939 31.2837 24.2789 31.8229 24.8192C31.8318 24.828 31.8406 24.8367 31.8493 24.8455C32.4863 25.5045 32.4826 25.3024 31.8488 25.9653C31.2311 26.6113 31.1902 26.3728 31.8633 27.0778C32.0227 27.2448 32.137 27.2348 32.2917 27.0746C32.6891 26.663 33.0982 26.2626 33.5038 25.8589C33.6313 25.732 33.7179 25.586 33.7372 25.387Z" fill="white"/>
<path d="M28.9963 34.4137C28.8138 34.4158 28.661 34.3311 28.5095 34.2442C25.8553 32.7247 23.2002 31.2069 20.548 29.684C19.8174 29.2644 19.8583 28.7879 20.5325 28.3037C21.1587 27.854 21.6378 27.942 22.2614 28.3176C24.178 29.4719 26.1354 30.5583 28.0768 31.6712C28.7042 32.0309 29.326 32.0167 29.9504 31.6572C32.0084 30.4728 34.0736 29.3004 36.123 28.1012C36.49 27.8865 36.7886 27.8277 37.1305 28.1076C37.273 28.2244 37.4547 28.2919 37.6084 28.3969C38.1405 28.7602 38.1316 29.2902 37.5741 29.6142C36.2736 30.3702 34.9661 31.1141 33.6607 31.8619C32.3015 32.6406 30.9416 33.4181 29.5819 34.1959C29.3986 34.3008 29.2198 34.4181 28.9962 34.4137H28.9963Z" fill="white"/>
<path d="M29.0081 37.9998C28.8255 38.0045 28.6716 37.923 28.5197 37.8361C25.8548 36.3105 23.1888 34.7867 20.5258 33.2573C19.821 32.8525 19.8634 32.3658 20.523 31.8972C21.1402 31.4586 21.6191 31.5127 22.2519 31.896C24.1657 33.0548 26.1251 34.1377 28.0659 35.2518C28.6924 35.6115 29.314 35.6083 29.9395 35.2488C31.9981 34.0654 34.0627 32.8922 36.1128 31.694C36.4751 31.4824 36.7736 31.4008 37.1203 31.6875C37.2719 31.8127 37.4663 31.8842 37.6288 31.9979C38.1365 32.353 38.1226 32.8815 37.5844 33.1944C36.273 33.9566 34.9544 34.7063 33.6384 35.4602C32.29 36.2326 30.9409 37.0041 29.5922 37.7759C29.409 37.8808 29.2311 37.9998 29.0081 38V37.9998Z" fill="white"/>
<path d="M53.4261 25.794V24.2727H60.5938V25.794H57.9219V33H56.098V25.794H53.4261ZM63.7738 33.1278C63.1005 33.1278 62.521 32.9915 62.0352 32.7188C61.5522 32.4432 61.18 32.054 60.9187 31.5511C60.6573 31.0455 60.5266 30.4474 60.5266 29.7571C60.5266 29.0838 60.6573 28.4929 60.9187 27.9844C61.18 27.4759 61.5479 27.0795 62.0224 26.7955C62.4996 26.5114 63.0593 26.3693 63.7013 26.3693C64.1332 26.3693 64.5352 26.4389 64.9073 26.5781C65.2823 26.7145 65.609 26.9205 65.8874 27.196C66.1687 27.4716 66.3874 27.8182 66.5437 28.2358C66.6999 28.6506 66.7781 29.1364 66.7781 29.6932V30.1918H61.2511V29.0668H65.0692C65.0692 28.8054 65.0124 28.5739 64.8988 28.3722C64.7852 28.1705 64.6275 28.0128 64.4258 27.8991C64.2269 27.7827 63.9954 27.7244 63.7312 27.7244C63.4556 27.7244 63.2113 27.7884 62.9982 27.9162C62.788 28.0412 62.6232 28.2102 62.5039 28.4233C62.3846 28.6335 62.3235 28.8679 62.3207 29.1264V30.196C62.3207 30.5199 62.3803 30.7997 62.4996 31.0355C62.6218 31.2713 62.7937 31.4531 63.0153 31.581C63.2369 31.7088 63.4996 31.7727 63.8036 31.7727C64.0053 31.7727 64.19 31.7443 64.3576 31.6875C64.5252 31.6307 64.6687 31.5455 64.788 31.4318C64.9073 31.3182 64.9982 31.179 65.0607 31.0142L66.7397 31.125C66.6545 31.5284 66.4798 31.8807 66.2156 32.1818C65.9542 32.4801 65.6161 32.7131 65.2013 32.8807C64.7894 33.0455 64.3136 33.1278 63.7738 33.1278ZM70.9201 33.1278C70.2496 33.1278 69.6729 32.9858 69.19 32.7017C68.7099 32.4148 68.3406 32.017 68.082 31.5085C67.8263 31 67.6985 30.4148 67.6985 29.7528C67.6985 29.0824 67.8278 28.4943 68.0863 27.9886C68.3477 27.4801 68.7184 27.0838 69.1985 26.7997C69.6786 26.5128 70.2496 26.3693 70.9116 26.3693C71.4826 26.3693 71.9826 26.473 72.4116 26.6804C72.8406 26.8878 73.18 27.179 73.43 27.554C73.68 27.929 73.8178 28.3693 73.8434 28.875H72.1303C72.082 28.5483 71.9542 28.2855 71.7468 28.0866C71.5423 27.8849 71.2738 27.7841 70.9414 27.7841C70.6602 27.7841 70.4144 27.8608 70.2042 28.0142C69.9968 28.1648 69.8349 28.3849 69.7184 28.6747C69.6019 28.9645 69.5437 29.3153 69.5437 29.7273C69.5437 30.1449 69.6005 30.5 69.7141 30.7926C69.8306 31.0852 69.994 31.3082 70.2042 31.4616C70.4144 31.6151 70.6602 31.6918 70.9414 31.6918C71.1488 31.6918 71.3349 31.6491 71.4996 31.5639C71.6673 31.4787 71.805 31.3551 71.913 31.1932C72.0238 31.0284 72.0962 30.831 72.1303 30.6009H73.8434C73.815 31.1009 73.6786 31.5412 73.4343 31.9219C73.1928 32.2997 72.859 32.5952 72.4329 32.8082C72.0067 33.0213 71.5025 33.1278 70.9201 33.1278ZM76.821 29.2159V33H75.0057V26.4545H76.7358V27.6094H76.8125C76.9574 27.2287 77.2003 26.9276 77.5412 26.706C77.8821 26.4815 78.2955 26.3693 78.7812 26.3693C79.2358 26.3693 79.6321 26.4688 79.9702 26.6676C80.3082 26.8665 80.571 27.1506 80.7585 27.5199C80.946 27.8864 81.0398 28.3239 81.0398 28.8324V33H79.2244V29.1562C79.2273 28.7557 79.125 28.4432 78.9176 28.2188C78.7102 27.9915 78.4247 27.8778 78.0611 27.8778C77.8168 27.8778 77.6009 27.9304 77.4134 28.0355C77.2287 28.1406 77.0838 28.294 76.9787 28.4957C76.8764 28.6946 76.8239 28.9347 76.821 29.2159ZM85.4279 33.1278C84.766 33.1278 84.1935 32.9872 83.7106 32.706C83.2305 32.4219 82.8597 32.027 82.5984 31.5213C82.337 31.0128 82.2063 30.4233 82.2063 29.7528C82.2063 29.0767 82.337 28.4858 82.5984 27.9801C82.8597 27.4716 83.2305 27.0767 83.7106 26.7955C84.1935 26.5114 84.766 26.3693 85.4279 26.3693C86.0898 26.3693 86.6609 26.5114 87.141 26.7955C87.6239 27.0767 87.9961 27.4716 88.2575 27.9801C88.5188 28.4858 88.6495 29.0767 88.6495 29.7528C88.6495 30.4233 88.5188 31.0128 88.2575 31.5213C87.9961 32.027 87.6239 32.4219 87.141 32.706C86.6609 32.9872 86.0898 33.1278 85.4279 33.1278ZM85.4364 31.7216C85.7376 31.7216 85.989 31.6364 86.1907 31.4659C86.3924 31.2926 86.5444 31.0568 86.6467 30.7585C86.7518 30.4602 86.8043 30.1207 86.8043 29.7401C86.8043 29.3594 86.7518 29.0199 86.6467 28.7216C86.5444 28.4233 86.3924 28.1875 86.1907 28.0142C85.989 27.8409 85.7376 27.7543 85.4364 27.7543C85.1325 27.7543 84.8768 27.8409 84.6694 28.0142C84.4648 28.1875 84.31 28.4233 84.2049 28.7216C84.1026 29.0199 84.0515 29.3594 84.0515 29.7401C84.0515 30.1207 84.1026 30.4602 84.2049 30.7585C84.31 31.0568 84.4648 31.2926 84.6694 31.4659C84.8768 31.6364 85.1325 31.7216 85.4364 31.7216ZM91.6452 24.2727V33H89.8299V24.2727H91.6452ZM96.0568 33.1278C95.3949 33.1278 94.8224 32.9872 94.3395 32.706C93.8594 32.4219 93.4886 32.027 93.2273 31.5213C92.9659 31.0128 92.8352 30.4233 92.8352 29.7528C92.8352 29.0767 92.9659 28.4858 93.2273 27.9801C93.4886 27.4716 93.8594 27.0767 94.3395 26.7955C94.8224 26.5114 95.3949 26.3693 96.0568 26.3693C96.7188 26.3693 97.2898 26.5114 97.7699 26.7955C98.2528 27.0767 98.625 27.4716 98.8864 27.9801C99.1477 28.4858 99.2784 29.0767 99.2784 29.7528C99.2784 30.4233 99.1477 31.0128 98.8864 31.5213C98.625 32.027 98.2528 32.4219 97.7699 32.706C97.2898 32.9872 96.7188 33.1278 96.0568 33.1278ZM96.0653 31.7216C96.3665 31.7216 96.6179 31.6364 96.8196 31.4659C97.0213 31.2926 97.1733 31.0568 97.2756 30.7585C97.3807 30.4602 97.4332 30.1207 97.4332 29.7401C97.4332 29.3594 97.3807 29.0199 97.2756 28.7216C97.1733 28.4233 97.0213 28.1875 96.8196 28.0142C96.6179 27.8409 96.3665 27.7543 96.0653 27.7543C95.7614 27.7543 95.5057 27.8409 95.2983 28.0142C95.0938 28.1875 94.9389 28.4233 94.8338 28.7216C94.7315 29.0199 94.6804 29.3594 94.6804 29.7401C94.6804 30.1207 94.7315 30.4602 94.8338 30.7585C94.9389 31.0568 95.0938 31.2926 95.2983 31.4659C95.5057 31.6364 95.7614 31.7216 96.0653 31.7216ZM103.408 35.5909C102.82 35.5909 102.315 35.5099 101.895 35.348C101.477 35.1889 101.145 34.9716 100.898 34.696C100.651 34.4205 100.49 34.1108 100.416 33.767L102.095 33.5412C102.146 33.6719 102.227 33.794 102.338 33.9077C102.449 34.0213 102.595 34.1122 102.777 34.1804C102.962 34.2514 103.186 34.2869 103.45 34.2869C103.845 34.2869 104.17 34.1903 104.426 33.9972C104.685 33.8068 104.814 33.4872 104.814 33.0384V31.8409H104.737C104.658 32.0227 104.538 32.1946 104.379 32.3565C104.22 32.5185 104.016 32.6506 103.766 32.7528C103.516 32.8551 103.217 32.9062 102.871 32.9062C102.379 32.9062 101.932 32.7926 101.528 32.5653C101.128 32.3352 100.808 31.9844 100.57 31.5128C100.334 31.0384 100.216 30.4389 100.216 29.7145C100.216 28.973 100.337 28.3537 100.578 27.8565C100.82 27.3594 101.141 26.9872 101.541 26.7401C101.945 26.4929 102.386 26.3693 102.866 26.3693C103.233 26.3693 103.54 26.4318 103.787 26.5568C104.034 26.679 104.233 26.8324 104.384 27.017C104.537 27.1989 104.655 27.3778 104.737 27.554H104.805V26.4545H106.608V33.0639C106.608 33.6207 106.472 34.0866 106.199 34.4616C105.926 34.8366 105.548 35.1179 105.065 35.3054C104.585 35.4957 104.033 35.5909 103.408 35.5909ZM103.446 31.5426C103.739 31.5426 103.986 31.4702 104.188 31.3253C104.392 31.1776 104.548 30.9673 104.656 30.6946C104.767 30.419 104.822 30.0895 104.822 29.706C104.822 29.3224 104.768 28.9901 104.661 28.7088C104.553 28.4247 104.396 28.2045 104.192 28.0483C103.987 27.892 103.739 27.8139 103.446 27.8139C103.148 27.8139 102.896 27.8949 102.692 28.0568C102.487 28.2159 102.332 28.4375 102.227 28.7216C102.122 29.0057 102.07 29.3338 102.07 29.706C102.07 30.0838 102.122 30.4105 102.227 30.6861C102.335 30.9588 102.49 31.1705 102.692 31.321C102.896 31.4687 103.148 31.5426 103.446 31.5426ZM108.053 33V26.4545H109.868V33H108.053ZM108.964 25.6108C108.695 25.6108 108.463 25.5213 108.27 25.3423C108.08 25.1605 107.984 24.9432 107.984 24.6903C107.984 24.4403 108.08 24.2259 108.27 24.0469C108.463 23.8651 108.695 23.7741 108.964 23.7741C109.234 23.7741 109.464 23.8651 109.655 24.0469C109.848 24.2259 109.945 24.4403 109.945 24.6903C109.945 24.9432 109.848 25.1605 109.655 25.3423C109.464 25.5213 109.234 25.6108 108.964 25.6108ZM113.189 33.1236C112.771 33.1236 112.399 33.0511 112.072 32.9062C111.745 32.7585 111.487 32.5412 111.297 32.2543C111.109 31.9645 111.015 31.6037 111.015 31.1719C111.015 30.8082 111.082 30.5028 111.216 30.2557C111.349 30.0085 111.531 29.8097 111.761 29.6591C111.991 29.5085 112.252 29.3949 112.545 29.3182C112.841 29.2415 113.15 29.1875 113.474 29.1562C113.855 29.1165 114.162 29.0795 114.395 29.0455C114.627 29.0085 114.797 28.9545 114.902 28.8835C115.007 28.8125 115.059 28.7074 115.059 28.5682V28.5426C115.059 28.2727 114.974 28.0639 114.804 27.9162C114.636 27.7685 114.397 27.6946 114.088 27.6946C113.761 27.6946 113.501 27.767 113.308 27.9119C113.115 28.054 112.987 28.233 112.924 28.4489L111.245 28.3125C111.331 27.9148 111.498 27.571 111.748 27.2812C111.998 26.9886 112.321 26.7642 112.716 26.608C113.113 26.4489 113.574 26.3693 114.096 26.3693C114.46 26.3693 114.808 26.4119 115.14 26.4972C115.475 26.5824 115.772 26.7145 116.031 26.8935C116.292 27.0724 116.498 27.3026 116.649 27.5838C116.799 27.8622 116.875 28.196 116.875 28.5852V33H115.153V32.0923H115.102C114.997 32.2969 114.856 32.4773 114.68 32.6335C114.504 32.7869 114.292 32.9077 114.045 32.9957C113.798 33.081 113.512 33.1236 113.189 33.1236ZM113.708 31.8707C113.975 31.8707 114.211 31.8182 114.416 31.7131C114.62 31.6051 114.781 31.4602 114.897 31.2784C115.014 31.0966 115.072 30.8906 115.072 30.6605V29.9659C115.015 30.0028 114.937 30.0369 114.838 30.0682C114.741 30.0966 114.632 30.1236 114.51 30.1491C114.387 30.1719 114.265 30.1932 114.143 30.2131C114.021 30.2301 113.91 30.2457 113.811 30.2599C113.598 30.2912 113.412 30.3409 113.252 30.4091C113.093 30.4773 112.97 30.5696 112.882 30.6861C112.794 30.7997 112.75 30.9418 112.75 31.1122C112.75 31.3594 112.839 31.5483 113.018 31.679C113.2 31.8068 113.43 31.8707 113.708 31.8707ZM123.729 28.321L122.067 28.4233C122.039 28.2812 121.978 28.1534 121.884 28.0398C121.79 27.9233 121.667 27.831 121.513 27.7628C121.363 27.6918 121.182 27.6562 120.972 27.6562C120.691 27.6562 120.453 27.7159 120.26 27.8352C120.067 27.9517 119.971 28.108 119.971 28.304C119.971 28.4602 120.033 28.5923 120.158 28.7003C120.283 28.8082 120.498 28.8949 120.801 28.9602L121.986 29.1989C122.623 29.3295 123.097 29.5398 123.409 29.8295C123.722 30.1193 123.878 30.5 123.878 30.9716C123.878 31.4006 123.752 31.777 123.499 32.1009C123.249 32.4247 122.905 32.6776 122.468 32.8594C122.033 33.0384 121.532 33.1278 120.963 33.1278C120.097 33.1278 119.407 32.9474 118.892 32.5866C118.381 32.223 118.081 31.7287 117.993 31.1037L119.779 31.0099C119.833 31.2741 119.963 31.4759 120.171 31.6151C120.378 31.7514 120.644 31.8196 120.968 31.8196C121.286 31.8196 121.542 31.7585 121.735 31.6364C121.931 31.5114 122.03 31.3509 122.033 31.1548C122.03 30.9901 121.961 30.8551 121.824 30.75C121.688 30.642 121.478 30.5597 121.194 30.5028L120.06 30.277C119.421 30.1491 118.945 29.9276 118.632 29.6122C118.323 29.2969 118.168 28.8949 118.168 28.4062C118.168 27.9858 118.282 27.6236 118.509 27.3196C118.739 27.0156 119.061 26.7812 119.476 26.6165C119.894 26.4517 120.382 26.3693 120.942 26.3693C121.769 26.3693 122.419 26.544 122.894 26.8935C123.371 27.2429 123.65 27.7187 123.729 28.321ZM133.223 24.2727H135.069V29.9403C135.069 30.5767 134.917 31.1335 134.613 31.6108C134.311 32.0881 133.89 32.4602 133.347 32.7273C132.804 32.9915 132.172 33.1236 131.451 33.1236C130.726 33.1236 130.093 32.9915 129.55 32.7273C129.007 32.4602 128.586 32.0881 128.284 31.6108C127.983 31.1335 127.833 30.5767 127.833 29.9403V24.2727H129.678V29.7827C129.678 30.1151 129.75 30.4105 129.895 30.669C130.043 30.9276 130.25 31.1307 130.517 31.2784C130.784 31.4261 131.096 31.5 131.451 31.5C131.809 31.5 132.12 31.4261 132.384 31.2784C132.651 31.1307 132.857 30.9276 133.002 30.669C133.15 30.4105 133.223 30.1151 133.223 29.7827V24.2727ZM141.999 28.321L140.337 28.4233C140.308 28.2812 140.247 28.1534 140.153 28.0398C140.06 27.9233 139.936 27.831 139.783 27.7628C139.632 27.6918 139.452 27.6562 139.241 27.6562C138.96 27.6562 138.723 27.7159 138.53 27.8352C138.337 27.9517 138.24 28.108 138.24 28.304C138.24 28.4602 138.303 28.5923 138.428 28.7003C138.553 28.8082 138.767 28.8949 139.071 28.9602L140.256 29.1989C140.892 29.3295 141.366 29.5398 141.679 29.8295C141.991 30.1193 142.148 30.5 142.148 30.9716C142.148 31.4006 142.021 31.777 141.768 32.1009C141.518 32.4247 141.175 32.6776 140.737 32.8594C140.303 33.0384 139.801 33.1278 139.233 33.1278C138.366 33.1278 137.676 32.9474 137.162 32.5866C136.651 32.223 136.351 31.7287 136.263 31.1037L138.048 31.0099C138.102 31.2741 138.233 31.4759 138.44 31.6151C138.648 31.7514 138.913 31.8196 139.237 31.8196C139.555 31.8196 139.811 31.7585 140.004 31.6364C140.2 31.5114 140.3 31.3509 140.303 31.1548C140.3 30.9901 140.23 30.8551 140.094 30.75C139.957 30.642 139.747 30.5597 139.463 30.5028L138.33 30.277C137.69 30.1491 137.214 29.9276 136.902 29.6122C136.592 29.2969 136.438 28.8949 136.438 28.4062C136.438 27.9858 136.551 27.6236 136.778 27.3196C137.009 27.0156 137.331 26.7812 137.746 26.6165C138.163 26.4517 138.652 26.3693 139.212 26.3693C140.038 26.3693 140.689 26.544 141.163 26.8935C141.641 27.2429 141.919 27.7187 141.999 28.321ZM145.157 33.1236C144.74 33.1236 144.368 33.0511 144.041 32.9062C143.714 32.7585 143.456 32.5412 143.265 32.2543C143.078 31.9645 142.984 31.6037 142.984 31.1719C142.984 30.8082 143.051 30.5028 143.184 30.2557C143.318 30.0085 143.5 29.8097 143.73 29.6591C143.96 29.5085 144.221 29.3949 144.514 29.3182C144.809 29.2415 145.119 29.1875 145.443 29.1562C145.824 29.1165 146.13 29.0795 146.363 29.0455C146.596 29.0085 146.765 28.9545 146.87 28.8835C146.975 28.8125 147.028 28.7074 147.028 28.5682V28.5426C147.028 28.2727 146.943 28.0639 146.772 27.9162C146.605 27.7685 146.366 27.6946 146.056 27.6946C145.73 27.6946 145.47 27.767 145.277 27.9119C145.083 28.054 144.956 28.233 144.893 28.4489L143.214 28.3125C143.299 27.9148 143.467 27.571 143.717 27.2812C143.967 26.9886 144.289 26.7642 144.684 26.608C145.082 26.4489 145.542 26.3693 146.065 26.3693C146.429 26.3693 146.777 26.4119 147.109 26.4972C147.444 26.5824 147.741 26.7145 148 26.8935C148.261 27.0724 148.467 27.3026 148.618 27.5838C148.768 27.8622 148.843 28.196 148.843 28.5852V33H147.122V32.0923H147.071C146.966 32.2969 146.825 32.4773 146.649 32.6335C146.473 32.7869 146.261 32.9077 146.014 32.9957C145.767 33.081 145.481 33.1236 145.157 33.1236ZM145.677 31.8707C145.944 31.8707 146.18 31.8182 146.385 31.7131C146.589 31.6051 146.75 31.4602 146.866 31.2784C146.983 31.0966 147.041 30.8906 147.041 30.6605V29.9659C146.984 30.0028 146.906 30.0369 146.806 30.0682C146.71 30.0966 146.6 30.1236 146.478 30.1491C146.356 30.1719 146.234 30.1932 146.112 30.2131C145.99 30.2301 145.879 30.2457 145.779 30.2599C145.566 30.2912 145.38 30.3409 145.221 30.4091C145.062 30.4773 144.939 30.5696 144.85 30.6861C144.762 30.7997 144.718 30.9418 144.718 31.1122C144.718 31.3594 144.808 31.5483 144.987 31.679C145.169 31.8068 145.399 31.8707 145.677 31.8707ZM152.664 33.1065C152.167 33.1065 151.716 32.9787 151.313 32.723C150.912 32.4645 150.594 32.0852 150.358 31.5852C150.125 31.0824 150.009 30.4659 150.009 29.7358C150.009 28.9858 150.13 28.3622 150.371 27.8651C150.613 27.3651 150.934 26.9915 151.334 26.7443C151.738 26.4943 152.179 26.3693 152.659 26.3693C153.026 26.3693 153.331 26.4318 153.576 26.5568C153.823 26.679 154.022 26.8324 154.172 27.017C154.326 27.1989 154.442 27.3778 154.522 27.554H154.577V24.2727H156.388V33H154.598V31.9517H154.522C154.436 32.1335 154.316 32.3139 154.159 32.4929C154.006 32.669 153.806 32.8153 153.559 32.9318C153.314 33.0483 153.016 33.1065 152.664 33.1065ZM153.239 31.6619C153.532 31.6619 153.779 31.5824 153.98 31.4233C154.185 31.2614 154.341 31.0355 154.449 30.7457C154.56 30.456 154.615 30.1165 154.615 29.7273C154.615 29.3381 154.561 29 154.453 28.7131C154.346 28.4261 154.189 28.2045 153.985 28.0483C153.78 27.892 153.532 27.8139 153.239 27.8139C152.941 27.8139 152.689 27.8949 152.485 28.0568C152.28 28.2187 152.125 28.4432 152.02 28.7301C151.915 29.017 151.863 29.3494 151.863 29.7273C151.863 30.108 151.915 30.4446 152.02 30.7372C152.128 31.027 152.283 31.2543 152.485 31.419C152.689 31.581 152.941 31.6619 153.239 31.6619ZM159.747 33.1236C159.33 33.1236 158.957 33.0511 158.631 32.9062C158.304 32.7585 158.045 32.5412 157.855 32.2543C157.668 31.9645 157.574 31.6037 157.574 31.1719C157.574 30.8082 157.641 30.5028 157.774 30.2557C157.908 30.0085 158.089 29.8097 158.32 29.6591C158.55 29.5085 158.811 29.3949 159.104 29.3182C159.399 29.2415 159.709 29.1875 160.033 29.1562C160.413 29.1165 160.72 29.0795 160.953 29.0455C161.186 29.0085 161.355 28.9545 161.46 28.8835C161.565 28.8125 161.618 28.7074 161.618 28.5682V28.5426C161.618 28.2727 161.533 28.0639 161.362 27.9162C161.195 27.7685 160.956 27.6946 160.646 27.6946C160.32 27.6946 160.06 27.767 159.866 27.9119C159.673 28.054 159.545 28.233 159.483 28.4489L157.804 28.3125C157.889 27.9148 158.057 27.571 158.307 27.2812C158.557 26.9886 158.879 26.7642 159.274 26.608C159.672 26.4489 160.132 26.3693 160.655 26.3693C161.018 26.3693 161.366 26.4119 161.699 26.4972C162.034 26.5824 162.331 26.7145 162.589 26.8935C162.851 27.0724 163.057 27.3026 163.207 27.5838C163.358 27.8622 163.433 28.196 163.433 28.5852V33H161.712V32.0923H161.661C161.555 32.2969 161.415 32.4773 161.239 32.6335C161.062 32.7869 160.851 32.9077 160.604 32.9957C160.357 33.081 160.071 33.1236 159.747 33.1236ZM160.267 31.8707C160.534 31.8707 160.77 31.8182 160.974 31.7131C161.179 31.6051 161.339 31.4602 161.456 31.2784C161.572 31.0966 161.631 30.8906 161.631 30.6605V29.9659C161.574 30.0028 161.496 30.0369 161.396 30.0682C161.3 30.0966 161.19 30.1236 161.068 30.1491C160.946 30.1719 160.824 30.1932 160.702 30.2131C160.58 30.2301 160.469 30.2457 160.369 30.2599C160.156 30.2912 159.97 30.3409 159.811 30.4091C159.652 30.4773 159.528 30.5696 159.44 30.6861C159.352 30.7997 159.308 30.9418 159.308 31.1122C159.308 31.3594 159.398 31.5483 159.577 31.679C159.759 31.8068 159.989 31.8707 160.267 31.8707ZM170.288 28.321L168.626 28.4233C168.597 28.2812 168.536 28.1534 168.442 28.0398C168.349 27.9233 168.225 27.831 168.072 27.7628C167.921 27.6918 167.741 27.6562 167.531 27.6562C167.249 27.6562 167.012 27.7159 166.819 27.8352C166.626 27.9517 166.529 28.108 166.529 28.304C166.529 28.4602 166.592 28.5923 166.717 28.7003C166.842 28.8082 167.056 28.8949 167.36 28.9602L168.545 29.1989C169.181 29.3295 169.656 29.5398 169.968 29.8295C170.281 30.1193 170.437 30.5 170.437 30.9716C170.437 31.4006 170.31 31.777 170.058 32.1009C169.808 32.4247 169.464 32.6776 169.026 32.8594C168.592 33.0384 168.09 33.1278 167.522 33.1278C166.656 33.1278 165.965 32.9474 165.451 32.5866C164.94 32.223 164.64 31.7287 164.552 31.1037L166.337 31.0099C166.391 31.2741 166.522 31.4759 166.729 31.6151C166.937 31.7514 167.202 31.8196 167.526 31.8196C167.844 31.8196 168.1 31.7585 168.293 31.6364C168.489 31.5114 168.589 31.3509 168.592 31.1548C168.589 30.9901 168.519 30.8551 168.383 30.75C168.246 30.642 168.036 30.5597 167.752 30.5028L166.619 30.277C165.979 30.1491 165.504 29.9276 165.191 29.6122C164.881 29.2969 164.727 28.8949 164.727 28.4062C164.727 27.9858 164.84 27.6236 165.067 27.3196C165.298 27.0156 165.62 26.7812 166.035 26.6165C166.452 26.4517 166.941 26.3693 167.501 26.3693C168.327 26.3693 168.978 26.544 169.452 26.8935C169.93 27.2429 170.208 27.7187 170.288 28.321Z" fill="white"/>
</svg>
