<svg width="34" height="34" viewBox="0 0 34 34" fill="none" xmlns="http://www.w3.org/2000/svg">
<rect opacity="0.15" width="34" height="34" rx="10" fill="#F68D08"/>
<path d="M16.9783 8.00242C17.1718 7.98505 17.3257 8.06399 17.4786 8.15146C20.1421 9.67739 22.8061 11.2027 25.4702 12.7279C25.6882 12.8527 25.9112 12.977 25.9668 13.2503C26.0471 13.6457 25.8341 13.8756 25.5134 14.0581C23.9796 14.931 22.45 15.8114 20.9187 16.6885C19.7755 17.3431 18.6295 17.9929 17.49 18.654C17.1687 18.8404 16.8714 18.8561 16.544 18.6678C13.8825 17.138 11.2167 15.6161 8.55419 14.088C7.81904 13.666 7.81493 13.145 8.544 12.7267C11.2063 11.1986 13.8713 9.6748 16.5351 8.14917C16.6762 8.06841 16.8171 7.98809 16.9785 8.00242H16.9783ZM18.0827 11.4834C18.1077 11.3161 18.0552 11.2222 17.9046 11.1884C17.7351 11.1503 17.5627 11.1186 17.3991 11.0623C17.1229 10.9671 17.0101 11.057 16.9429 11.3434C16.6669 12.5167 16.3573 13.682 16.0775 14.8545C15.8806 15.6796 15.7831 15.5088 16.6068 15.7441C16.8771 15.8213 16.9998 15.7709 17.0705 15.4733C17.3319 14.3733 17.6225 13.2801 17.9024 12.1844C17.9639 11.9436 18.0261 11.7032 18.0827 11.4836V11.4834ZM12.2709 13.4019C12.2831 13.527 12.3161 13.6521 12.4043 13.7422C12.8653 14.2136 13.3318 14.6793 13.797 15.1464C13.8798 15.2294 13.9575 15.2262 14.0598 15.158C14.6931 14.7349 14.7187 14.524 14.1883 13.9935C13.5994 13.4045 13.6056 13.4106 14.1803 12.8201C14.7765 12.2076 14.8104 12.4269 14.1479 11.7347C13.9922 11.5721 13.8781 11.566 13.7194 11.7304C13.3137 12.1514 12.8951 12.5599 12.4816 12.9732C12.3631 13.0916 12.2908 13.2323 12.271 13.4018L12.2709 13.4019ZM21.7372 13.387C21.7148 13.2657 21.6765 13.1328 21.577 13.0322C21.1312 12.5808 20.6821 12.1329 20.2343 11.6835C20.1449 11.5937 20.0648 11.5704 19.9433 11.6542C19.3061 12.0939 19.2837 12.2789 19.8229 12.8192C19.8318 12.828 19.8406 12.8367 19.8493 12.8455C20.4863 13.5045 20.4826 13.3024 19.8488 13.9653C19.2311 14.6113 19.1902 14.3728 19.8633 15.0778C20.0227 15.2448 20.137 15.2348 20.2917 15.0746C20.6891 14.663 21.0982 14.2626 21.5038 13.8589C21.6313 13.732 21.7179 13.586 21.7372 13.387Z" fill="#F68D08"/>
<path d="M16.9963 22.4138C16.8138 22.4159 16.661 22.3312 16.5095 22.2443C13.8553 20.7248 11.2002 19.2069 8.548 17.684C7.81742 17.2645 7.85834 16.788 8.53249 16.3038C9.1587 15.8541 9.6378 15.942 10.2614 16.3177C12.178 17.4719 14.1354 18.5583 16.0768 19.6713C16.7042 20.0309 17.326 20.0167 17.9504 19.6573C20.0084 18.4728 22.0736 17.3005 24.123 16.1013C24.49 15.8866 24.7886 15.8277 25.1305 16.1077C25.273 16.2244 25.4547 16.2919 25.6084 16.3969C26.1405 16.7602 26.1316 17.2903 25.5741 17.6142C24.2736 18.3703 22.9661 19.1141 21.6607 19.8619C20.3015 20.6407 18.9416 21.4182 17.5819 22.196C17.3986 22.3008 17.2198 22.4182 16.9962 22.4138H16.9963Z" fill="#F68D08"/>
<path d="M17.0081 25.9998C16.8255 26.0045 16.6716 25.923 16.5197 25.8361C13.8548 24.3105 11.1888 22.7867 8.52584 21.2573C7.82097 20.8525 7.86341 20.3658 8.52295 19.8972C9.14019 19.4586 9.61914 19.5127 10.2519 19.896C12.1657 21.0548 14.1251 22.1377 16.0659 23.2518C16.6924 23.6115 17.314 23.6083 17.9395 23.2488C19.9981 22.0654 22.0627 20.8922 24.1128 19.694C24.4751 19.4824 24.7736 19.4008 25.1203 19.6875C25.2719 19.8127 25.4663 19.8842 25.6288 19.9979C26.1365 20.353 26.1226 20.8815 25.5844 21.1944C24.273 21.9566 22.9544 22.7063 21.6384 23.4602C20.29 24.2326 18.9409 25.0041 17.5922 25.7759C17.409 25.8808 17.2311 25.9998 17.0081 26V25.9998Z" fill="#F68D08"/>
</svg>
