<svg width="48" height="22" viewBox="0 0 48 22" fill="none" xmlns="http://www.w3.org/2000/svg">
<rect opacity="0.2" width="48" height="22" rx="10" fill="#FFAB00"/>
<path d="M15.9731 6.54545H17.972V12.6854C17.972 13.3748 17.8074 13.978 17.4781 14.495C17.1518 15.0121 16.6948 15.4152 16.107 15.7045C15.5191 15.9908 14.8344 16.1339 14.0526 16.1339C13.2678 16.1339 12.5815 15.9908 11.9937 15.7045C11.4059 15.4152 10.9488 15.0121 10.6226 14.495C10.2964 13.978 10.1333 13.3748 10.1333 12.6854V6.54545H12.1322V12.5146C12.1322 12.8746 12.2107 13.1947 12.3676 13.4748C12.5277 13.7549 12.7523 13.9749 13.0416 14.1349C13.3309 14.295 13.6679 14.375 14.0526 14.375C14.4404 14.375 14.7774 14.295 15.0637 14.1349C15.353 13.9749 15.5761 13.7549 15.733 13.4748C15.8931 13.1947 15.9731 12.8746 15.9731 12.5146V6.54545ZM24.127 12.9808V8.90909H26.0936V16H24.2054V14.712H24.1316C23.9715 15.1275 23.7053 15.4614 23.3329 15.7138C22.9636 15.9661 22.5127 16.0923 21.9803 16.0923C21.5063 16.0923 21.0893 15.9846 20.7292 15.7692C20.3691 15.5537 20.0875 15.2475 19.8844 14.8505C19.6844 14.4535 19.5828 13.978 19.5797 13.424V8.90909H21.5463V13.0732C21.5494 13.4917 21.6618 13.8226 21.8833 14.0657C22.1049 14.3088 22.4019 14.4304 22.7743 14.4304C23.0113 14.4304 23.2329 14.3765 23.4391 14.2688C23.6453 14.158 23.8115 13.9949 23.9377 13.7795C24.0669 13.564 24.13 13.2978 24.127 12.9808ZM27.6666 16V8.90909H29.6333V16H27.6666ZM28.6546 7.99503C28.3622 7.99503 28.1114 7.89808 27.9021 7.70419C27.6959 7.50722 27.5928 7.27178 27.5928 6.99787C27.5928 6.72704 27.6959 6.49467 27.9021 6.30078C28.1114 6.10381 28.3622 6.00533 28.6546 6.00533C28.9469 6.00533 29.1962 6.10381 29.4024 6.30078C29.6117 6.49467 29.7164 6.72704 29.7164 6.99787C29.7164 7.27178 29.6117 7.50722 29.4024 7.70419C29.1962 7.89808 28.9469 7.99503 28.6546 7.99503ZM33.8216 16.1154C33.283 16.1154 32.7952 15.9769 32.3581 15.6999C31.9242 15.4199 31.5795 15.009 31.324 14.4673C31.0717 13.9226 30.9455 13.2547 30.9455 12.4638C30.9455 11.6513 31.0763 10.9757 31.3379 10.4371C31.5995 9.89548 31.9473 9.49077 32.3812 9.22301C32.8182 8.95218 33.2968 8.81676 33.8169 8.81676C34.214 8.81676 34.5448 8.88447 34.8095 9.01989C35.0772 9.15223 35.2927 9.31842 35.4558 9.51847C35.622 9.71544 35.7482 9.90933 35.8343 10.1001H35.8944V6.54545H37.8564V16H35.9174V14.8643H35.8343C35.742 15.0613 35.6112 15.2567 35.4419 15.4506C35.2757 15.6415 35.0588 15.8 34.791 15.9261C34.5263 16.0523 34.2032 16.1154 33.8216 16.1154ZM34.4448 14.5504C34.7618 14.5504 35.0295 14.4643 35.248 14.2919C35.4696 14.1165 35.6389 13.8718 35.7559 13.5579C35.8759 13.244 35.9359 12.8762 35.9359 12.4545C35.9359 12.0329 35.8774 11.6667 35.7605 11.3558C35.6435 11.045 35.4743 10.8049 35.2527 10.6357C35.0311 10.4664 34.7618 10.3817 34.4448 10.3817C34.1216 10.3817 33.8493 10.4695 33.6277 10.6449C33.4061 10.8203 33.2383 11.0634 33.1245 11.3743C33.0106 11.6851 32.9537 12.0452 32.9537 12.4545C32.9537 12.867 33.0106 13.2317 33.1245 13.5487C33.2414 13.8626 33.4092 14.1088 33.6277 14.2873C33.8493 14.4627 34.1216 14.5504 34.4448 14.5504Z" fill="#FFAB00"/>
</svg>
