<svg width="30" height="15" viewBox="0 0 30 15" fill="none" xmlns="http://www.w3.org/2000/svg">
<path d="M6.34837 3.27273H8.19354V8.94034C8.19354 9.5767 8.04155 10.1335 7.73757 10.6108C7.43643 11.0881 7.01456 11.4602 6.47195 11.7273C5.92933 11.9915 5.29723 12.1236 4.57564 12.1236C3.85121 12.1236 3.21768 11.9915 2.67507 11.7273C2.13246 11.4602 1.71058 11.0881 1.40945 10.6108C1.10831 10.1335 0.957741 9.5767 0.957741 8.94034V3.27273H2.80291V8.78267C2.80291 9.11506 2.87536 9.41051 3.02024 9.66903C3.16797 9.92756 3.37536 10.1307 3.6424 10.2784C3.90945 10.4261 4.22053 10.5 4.57564 10.5C4.93359 10.5 5.24467 10.4261 5.50888 10.2784C5.77592 10.1307 5.98189 9.92756 6.12678 9.66903C6.2745 9.41051 6.34837 9.11506 6.34837 8.78267V3.27273ZM15.1023 3.27273H16.9474V8.94034C16.9474 9.5767 16.7955 10.1335 16.4915 10.6108C16.1903 11.0881 15.7685 11.4602 15.2259 11.7273C14.6832 11.9915 14.0511 12.1236 13.3295 12.1236C12.6051 12.1236 11.9716 11.9915 11.429 11.7273C10.8864 11.4602 10.4645 11.0881 10.1634 10.6108C9.86222 10.1335 9.71165 9.5767 9.71165 8.94034V3.27273H11.5568V8.78267C11.5568 9.11506 11.6293 9.41051 11.7741 9.66903C11.9219 9.92756 12.1293 10.1307 12.3963 10.2784C12.6634 10.4261 12.9744 10.5 13.3295 10.5C13.6875 10.5 13.9986 10.4261 14.2628 10.2784C14.5298 10.1307 14.7358 9.92756 14.8807 9.66903C15.0284 9.41051 15.1023 9.11506 15.1023 8.78267V3.27273ZM20.3107 3.27273V12H18.4656V3.27273H20.3107ZM24.9226 12H21.8288V3.27273H24.9482C25.826 3.27273 26.5817 3.44744 27.2152 3.79688C27.8487 4.14347 28.3359 4.64205 28.6768 5.29261C29.0206 5.94318 29.1925 6.72159 29.1925 7.62784C29.1925 8.53693 29.0206 9.31818 28.6768 9.97159C28.3359 10.625 27.8459 11.1264 27.2067 11.4759C26.5703 11.8253 25.8089 12 24.9226 12ZM23.674 10.419H24.8459C25.3913 10.419 25.8501 10.3224 26.2223 10.1293C26.5973 9.93324 26.8786 9.63068 27.0661 9.22159C27.2564 8.80966 27.3516 8.27841 27.3516 7.62784C27.3516 6.98295 27.2564 6.45597 27.0661 6.04688C26.8786 5.63778 26.5987 5.33665 26.2266 5.14347C25.8544 4.95028 25.3956 4.85369 24.8501 4.85369H23.674V10.419Z" fill="#32A7F4"/>
</svg>
